//Event file generated from Sappy .s format.
	#include "MPlayDef.event"

	#define	BLOODY_STREAM0_grp  voicegroup000
	#define	BLOODY_STREAM0_pri  0
	#define	BLOODY_STREAM0_rev  0
	#define	BLOODY_STREAM0_mvl  67
	#define	BLOODY_STREAM0_key  0
	#define	BLOODY_STREAM0_tbs  1
	#define	BLOODY_STREAM0_exg  0
	#define	BLOODY_STREAM0_cmp  1

	// .rodata
	//	BLOODY_STREAM0
	ALIGN 4

//**************** Track 1 (Midi-Chn.1) ****************//

BLOODY_STREAM0_1:
	BYTE	KEYSH   BLOODY_STREAM0_key+0
// 000   ----------------------------------------
	BYTE	W09
	BYTE	W03
	BYTE		VOL     127*BLOODY_STREAM0_mvl/mxv
	BYTE 		BENDR   6
	BYTE	W03
	BYTE		PAN     c_v+0
	BYTE	W03
	BYTE	W03
	BYTE	W03
// 001   ----------------------------------------
	BYTE	TEMPO   132*BLOODY_STREAM0_tbs/2
	BYTE		VOICE   91
	// BYTE	W96
BLOODY_STREAM0_1_B1:
// 002   ----------------------------------------
	BYTE		N06     Ds3   v100
	BYTE		N06     Cn4 
	BYTE	W06
	BYTE		        Gn3 
	BYTE		N06     Ds4 
	BYTE	W06
	BYTE		        As3 
	BYTE		N06     Gn4 
	BYTE	W12
	BYTE		N12     As3 
	BYTE		N12     Fs4 
	BYTE	W12
	BYTE		N06     Gn3 
	BYTE		N06     Ds4 
	BYTE	W06
	BYTE		        Gs3 
	BYTE		N06     Fn4 
	BYTE	W12
	BYTE		        Gs3 
	BYTE		N06     Fn4 
	BYTE	W12
	BYTE		        Ds3 
	BYTE		N06     Cn4 
	BYTE	W06
	BYTE		N12     Gn3 
	BYTE		N12     Ds4 
	BYTE	W12
	BYTE		        Gs3 
	BYTE		N12     Fn4 
	BYTE	W12
// 003   ----------------------------------------
	BYTE		N06     Ds3 
	BYTE		N06     Cn4 
	BYTE	W06
	BYTE		        Gn3 
	BYTE		N06     Ds4 
	BYTE	W06
	BYTE		        As3 
	BYTE		N06     Gn4 
	BYTE	W06
	BYTE		        Gn3 
	BYTE		N06     Ds4 
	BYTE	W06
	BYTE		N12     As3 
	BYTE		N12     Fs4 
	BYTE	W12
	BYTE		N06     Gn3 
	BYTE		N06     Ds4 
	BYTE	W06
	BYTE		        Gs3 
	BYTE		N06     Fn4 
	BYTE	W12
	BYTE		        Gs3 
	BYTE		N06     Fn4 
	BYTE	W12
	BYTE		        Ds3 
	BYTE		N06     Cn4 
	BYTE	W06
	BYTE		N12     Gn3 
	BYTE		N12     Ds4 
	BYTE	W12
	BYTE		        Gs3 
	BYTE		N12     Fn4 
	BYTE	W12
// 004   ----------------------------------------
	BYTE		N06     Ds3 
	BYTE		N06     Cn4 
	BYTE	W06
	BYTE		        Gn3 
	BYTE		N06     Ds4 
	BYTE	W06
	BYTE		        As3 
	BYTE		N06     Gn4 
	BYTE	W12
	BYTE		N12     As3 
	BYTE		N12     Fs4 
	BYTE	W12
	BYTE		N06     Gn3 
	BYTE		N06     Ds4 
	BYTE	W06
	BYTE		        Gs3 
	BYTE		N06     Fn4 
	BYTE	W12
	BYTE		        Gs3 
	BYTE		N06     Fn4 
	BYTE	W12
	BYTE		        Cn3 
	BYTE		N06     Cn4 
	BYTE	W06
	BYTE		N12     Ds3 
	BYTE		N12     Ds4 
	BYTE	W12
//	BYTE		MOD     1
	BYTE		N24     Gn3 
	BYTE		N24     As4 
	BYTE	W03
//	BYTE		MOD     8
	BYTE	W03
	BYTE		        15
	BYTE	W03
	BYTE		        22
	BYTE	W03
// 005   ----------------------------------------
	BYTE		        28
	BYTE		BEND    c_v-2
	BYTE	W03
//	BYTE		MOD     35
	BYTE		BEND    c_v+1
	BYTE	W03
//	BYTE		MOD     42
	BYTE		BEND    c_v-2
	BYTE	W03
//	BYTE		MOD     49
	BYTE		BEND    c_v+2
	BYTE	W03
//	BYTE		MOD     56
	BYTE		BEND    c_v-1
	BYTE		N03     As3 
	BYTE		N03     Cn5 
	BYTE	W03
//	BYTE		MOD     63
	BYTE		BEND    c_v+6
	BYTE		N03     Gn3 
	BYTE		N03     As4 
	BYTE	W03
//	BYTE		MOD     70
	BYTE		BEND    c_v+1
	BYTE		N03     As3 
	BYTE		N03     Cn5 
	BYTE	W03
//	BYTE		MOD     77
	BYTE		BEND    c_v+0
	BYTE		N03     Gn3 
	BYTE		N03     As4 
	BYTE	W03
//	BYTE		MOD     0
	BYTE		N03     As3   v104
	BYTE		N03     Cn5 
	BYTE	W03
	BYTE		        Gn3 
	BYTE		N03     As4 
	BYTE	W03
	BYTE		        As3 
	BYTE		N03     Cn5 
	BYTE	W03
	BYTE		        Gn3 
	BYTE		N03     As4 
	BYTE	W03
	BYTE		        As3 
	BYTE		N03     Cn5 
	BYTE	W03
	BYTE		        Gn3 
	BYTE		N03     As4 
	BYTE	W03
	BYTE		        As3 
	BYTE		N03     Cn5 
	BYTE	W03
	BYTE		        Gn3 
	BYTE		N03     As4 
	BYTE	W03
	BYTE		        As3 
	BYTE		N03     Cn5 
	BYTE	W03
	BYTE		        Gn3 
	BYTE		N03     As4 
	BYTE	W03
	BYTE		        As3   v100
	BYTE		N03     Cn5 
	BYTE	W03
	BYTE		        Gn3 
	BYTE		N03     As4 
	BYTE	W03
	BYTE		        As3 
	BYTE		N03     Cn5 
	BYTE	W03
	BYTE		        Gn3   v096
	BYTE		N03     As4 
	BYTE	W03
	BYTE		        As3   v092
	BYTE		N03     Cn5 
	BYTE	W03
	BYTE		        Gn3 
	BYTE		N03     As4 
	BYTE	W03
	BYTE		        As3 
	BYTE		N03     Cn5 
	BYTE	W03
	BYTE		        Gn3   v084
	BYTE		N03     As4 
	BYTE	W03
	BYTE		        As3   v080
	BYTE		N03     Cn5 
	BYTE	W03
	BYTE		        Gn3   v076
	BYTE		N03     As4 
	BYTE	W03
	BYTE		        As3   v068
	BYTE		N03     Cn5 
	BYTE	W03
	BYTE		        Gn3   v060
	BYTE		N03     As4 
	BYTE	W03
	BYTE		        As3   v052
	BYTE		N03     Cn5 
	BYTE	W03
	BYTE		        Gn3   v032
	BYTE		N03     As4 
	BYTE	W03
// 006   ----------------------------------------
	BYTE		        As3   v020
	BYTE		N03     Cn5 
	BYTE	W03
	BYTE		        Gn3   v004
	BYTE		N03     As4 
	BYTE	W92
	BYTE	W01
// 007   ----------------------------------------
	BYTE	W96
// 008   ----------------------------------------
	BYTE	W72
	BYTE		N24     Ds3   v100
	BYTE	W24
// 009   ----------------------------------------
	BYTE		N72     Fn3 
	BYTE	W72
	BYTE		N24     Gs3 
	BYTE	W24
// 010   ----------------------------------------
	BYTE		N96     Gn3 
	BYTE	W96
// 011   ----------------------------------------
	BYTE		        As3 
	BYTE	W30
	BYTE	W03
	BYTE	W03
	BYTE	W03
	BYTE	W03
	BYTE	W03
	BYTE	W03
	BYTE	W03
	BYTE	W03
	BYTE	W03
	BYTE	W03
	BYTE	W03
	BYTE	W03
	BYTE	W03
	BYTE	W03
	BYTE	W03
	BYTE	W03
	BYTE	W03
	BYTE	W03
	BYTE	W03
	BYTE	W03
	BYTE	W03
	BYTE	W03
// 012   ----------------------------------------
	BYTE	W96
// 013   ----------------------------------------
	BYTE		N06     Ds3   v116
	BYTE		N06     Ds4 
	BYTE	W06
	BYTE		        Fn3   v124
	BYTE		N03     Fn4 
	BYTE	W12
	BYTE		N06     Cn3   v112
	BYTE		N06     Cn4 
	BYTE	W06
	BYTE		        Ds3   v120
	BYTE		N03     Ds4 
	BYTE	W12
	BYTE		N06     Gn2   v104
	BYTE		N06     Gn3 
	BYTE	W06
	BYTE		        Cn3   v112
	BYTE		N03     Cn4 
	BYTE	W12
	BYTE		N06     Cn3   v092
	BYTE	W06
	BYTE		        Ds3   v096
	BYTE	W06
	BYTE		        Gn3   v100
	BYTE	W06
	BYTE		        Cn4   v108
	BYTE	W06
	BYTE		        Gn3   v096
	BYTE	W06
	BYTE		        Ds3   v092
	BYTE	W06
	BYTE		        Cn3   v084
	BYTE	W06
// 014   ----------------------------------------
	BYTE	W96
// 015   ----------------------------------------
	BYTE	W96
// 016   ----------------------------------------
	BYTE	W72
	BYTE		N24     Ds3   v072
	BYTE	W24
// 017   ----------------------------------------
	BYTE		        Fn3   v080
	BYTE	W24
	BYTE		        Gn3   v084
	BYTE	W24
	BYTE		        Ds4   v104
	BYTE	W24
	BYTE		        Dn4   v100
	BYTE	W12
	BYTE	W03
	BYTE	W06
	BYTE	W03
// 018   ----------------------------------------
	BYTE		N96     Cn4   v096
	BYTE	W03
	BYTE	W03
	BYTE	W03
	BYTE	W03
	BYTE	W03
	BYTE	W03
	BYTE	W03
	BYTE	W03
	BYTE	W06
	BYTE	W03
	BYTE	W03
	BYTE	W03
	BYTE	W03
	BYTE	W03
	BYTE	W03
	BYTE	W03
	BYTE	W03
	BYTE	W03
	BYTE	W03
	BYTE	W03
	BYTE	W03
	BYTE	W03
	BYTE	W03
	BYTE	W03
	BYTE	W03
	BYTE	W06
	BYTE	W03
	BYTE	W03
	BYTE	W03
	BYTE	W03
// 019   ----------------------------------------
	BYTE		        Fn4   v104
	BYTE	W36
	BYTE	W03
	BYTE	W03
	BYTE	W03
	BYTE	W03
	BYTE	W03
	BYTE	W03
	BYTE	W03
	BYTE	W03
	BYTE	W03
	BYTE	W03
	BYTE	W03
	BYTE	W03
	BYTE	W03
	BYTE	W03
	BYTE	W03
	BYTE	W03
	BYTE	W03
	BYTE	W03
	BYTE	W03
	BYTE	W03
// 020   ----------------------------------------
	BYTE	W96
// 021   ----------------------------------------
	BYTE		N06     Gn4   v100
	BYTE	W06
	BYTE		        Gs4 
	BYTE	W06
	BYTE		        As4 
	BYTE	W06
	BYTE		        Ds4 
	BYTE	W06
	BYTE		        Fn4 
	BYTE	W06
	BYTE		        Gn4 
	BYTE	W06
	BYTE		        Cn4 
	BYTE	W06
	BYTE		        Cs4 
	BYTE	W06
	BYTE		        Ds4 
	BYTE	W06
	BYTE		        Gn3 
	BYTE	W06
	BYTE		        Gs3 
	BYTE	W06
	BYTE		        Bn3 
	BYTE	W06
	BYTE		        Gn3 
	BYTE	W06
	BYTE		        Dn3 
	BYTE	W06
	BYTE		        Bn2 
	BYTE	W06
	BYTE		        Gn2 
	BYTE	W06
// 022   ----------------------------------------
	BYTE	W96
// 023   ----------------------------------------
	BYTE	W96
// 024   ----------------------------------------
	BYTE	W96
// 025   ----------------------------------------
	BYTE	W96
// 026   ----------------------------------------
	BYTE	W96
// 027   ----------------------------------------
	BYTE	W96
// 028   ----------------------------------------
	BYTE		N24     Cn3   v084
	BYTE	W24
	BYTE		        Dn3   v088
	BYTE	W24
	BYTE		        Ds3   v096
	BYTE	W24
	BYTE		        Fn3   v100
	BYTE	W24
// 029   ----------------------------------------
	BYTE		N06     Gn2   v104
	BYTE		N06     Gn3 
	BYTE	W06
	BYTE		        As2   v108
	BYTE		N06     As3 
	BYTE	W12
	BYTE		        Cn3 
	BYTE		N06     Cn4 
	BYTE	W12
	BYTE		        Dn3   v112
	BYTE		N06     Dn4 
	BYTE	W12
	BYTE		        Ds3   v116
	BYTE		N06     Ds4 
	BYTE	W12
	BYTE		        Fn3   v120
	BYTE		N06     Fn4 
	BYTE	W12
	BYTE		        Gn3   v124
	BYTE		N06     Gn4 
	BYTE	W12
	BYTE		        Gs3 
	BYTE		N06     Gs4 
	BYTE	W18
// 030   ----------------------------------------
	BYTE	W96
// 031   ----------------------------------------
BLOODY_STREAM0_1_031:
	BYTE	W24
	BYTE		N06     Cn4   v100
	BYTE		N06     Cn5 
	BYTE	W06
	BYTE		        Cn4 
	BYTE		N06     Cn5 
	BYTE	W12
	BYTE		N09     Cn4 
	BYTE		N09     Cn5 
	BYTE	W54
	BYTE	PEND
// 032   ----------------------------------------
BLOODY_STREAM0_1_032:
	BYTE	W24
	BYTE		N06     As3   v100
	BYTE		N06     As4 
	BYTE	W06
	BYTE		        As3 
	BYTE		N06     As4 
	BYTE	W12
	BYTE		N09     As3 
	BYTE		N09     As4 
	BYTE	W54
	BYTE	PEND
// 033   ----------------------------------------
	BYTE	W96
// 034   ----------------------------------------
	BYTE	W96
// 035   ----------------------------------------
	BYTE	PATT
	 POIN2	BLOODY_STREAM0_1_031
// 036   ----------------------------------------
	BYTE	PATT
	 POIN2	BLOODY_STREAM0_1_032
// 037   ----------------------------------------
	BYTE	W96
// 038   ----------------------------------------
	BYTE		N06     Gn3   v100
	BYTE		N06     Gn4 
	BYTE	W06
	BYTE		        Gs3 
	BYTE		N06     Gs4 
	BYTE	W06
	BYTE		        As3 
	BYTE		N06     As4 
	BYTE	W06
	BYTE		        Ds3 
	BYTE		N06     Ds4 
	BYTE	W06
	BYTE		        Fn3 
	BYTE		N06     Fn4 
	BYTE	W06
	BYTE		        Gn3 
	BYTE		N06     Gn4 
	BYTE	W06
	BYTE		        Cn3 
	BYTE		N06     Cn4 
	BYTE	W06
	BYTE		        Dn3 
	BYTE		N06     Cs4 
	BYTE	W06
	BYTE		        Ds3 
	BYTE		N06     Ds4 
	BYTE	W12
	BYTE		N36     Fn3 
	BYTE		N30     Fn4 
	BYTE	W30
	BYTE		N03     Ds4   v084
	BYTE	W03
	BYTE		        Dn4   v060
	BYTE	W03
// 039   ----------------------------------------
	BYTE	PATT
	 POIN2	BLOODY_STREAM0_1_031
// 040   ----------------------------------------
	BYTE	PATT
	 POIN2	BLOODY_STREAM0_1_032
// 041   ----------------------------------------
	BYTE	W96
// 042   ----------------------------------------
	BYTE	W96
// 043   ----------------------------------------
	BYTE		N48     Cn3   v096
	BYTE		N48     Cn4 
	BYTE	W48
	BYTE		        As2 
	BYTE		N48     As3 
	BYTE	W48
// 044   ----------------------------------------
	BYTE		N96     Gs2   v092
	BYTE		N96     Gs3 
	BYTE	W96
// 045   ----------------------------------------
	BYTE	W24
	BYTE		N06     Cn2   v080
	BYTE		N06     Cn3 
	BYTE	W06
	BYTE		        Dn2 
	BYTE		N06     Dn3 
	BYTE	W12
	BYTE		        Fn2   v088
	BYTE		N06     Fn3 
	BYTE	W12
	BYTE		        Gs2   v096
	BYTE		N06     Gs3 
	BYTE	W12
	BYTE		        Cn3   v100
	BYTE		N06     Cn4 
	BYTE	W12
	BYTE		        Dn3   v108
	BYTE		N06     Dn4 
	BYTE	W12
	BYTE		        Fn3   v112
	BYTE		N06     Fn4 
	BYTE	W06
// 046   ----------------------------------------
	BYTE		N12     Gn3   v124
	BYTE		N12     Gn4 
	BYTE	W96
// 047   ----------------------------------------
	BYTE		N96     Gs2   v060
	BYTE		N96     Gs3 
	BYTE	W03
	BYTE	W03
	BYTE	W03
	BYTE	W03
	BYTE	W03
	BYTE	W03
	BYTE	W03
	BYTE	W03
	BYTE	W03
	BYTE	W03
	BYTE	W03
	BYTE	W03
	BYTE	W03
	BYTE	W03
	BYTE	W03
	BYTE	W03
	BYTE	W03
	BYTE	W03
	BYTE	W06
	BYTE	W06
	BYTE	W06
	BYTE	W03
	BYTE	W06
	BYTE	W09
	BYTE	W03
	BYTE	W03
// 048   ----------------------------------------
	BYTE		        As2   v072
	BYTE		N96     As3 
	BYTE	W09
	BYTE	W36
	BYTE	W03
	BYTE	W48
// 049   ----------------------------------------
	BYTE		TIE     Cn3   v100
	BYTE		TIE     Cn4 
	BYTE	W03
	BYTE	W03
	BYTE	W03
	BYTE	W03
	BYTE	W03
	BYTE	W03
	BYTE	W09
	BYTE	W03
	BYTE	W03
	BYTE	W03
	BYTE	W03
	BYTE	W03
	BYTE	W03
	BYTE	W03
	BYTE	W06
	BYTE	W03
	BYTE	W03
	BYTE	W03
	BYTE	W03
	BYTE	W06
	BYTE	W03
	BYTE	W03
	BYTE	W06
	BYTE	W06
	BYTE	W06
// 050   ----------------------------------------
	BYTE	W03
	BYTE	W12
	BYTE	W12
	BYTE	W09
	BYTE	W06
	BYTE	W54
	BYTE		EOT     Cn3 
	BYTE		        Cn4 
// 051   ----------------------------------------
	BYTE	W24
	// BYTE		VOICE   0
	BYTE	W72
	BYTE	GoTo
	 POIN2	BLOODY_STREAM0_1_B1
BLOODY_STREAM0_1_B2:
// 052   ----------------------------------------
	BYTE	FINE

//**************** Track 2 (Midi-Chn.2) ****************//

BLOODY_STREAM0_2:
	BYTE	KEYSH   BLOODY_STREAM0_key+0
// 000   ----------------------------------------
	BYTE	W09
	BYTE	W03
	BYTE		VOL     127*BLOODY_STREAM0_mvl/mxv
	BYTE 		BENDR   6
	BYTE	W03
	BYTE		PAN     c_v+0
	BYTE	W03
	BYTE	W03
	BYTE	W03
// 001   ----------------------------------------
	BYTE		VOICE   92
	// BYTE	W96
BLOODY_STREAM0_2_B1:
// 002   ----------------------------------------
	BYTE	W96
// 003   ----------------------------------------
	BYTE	W96
// 004   ----------------------------------------
	BYTE	W96
// 005   ----------------------------------------
	BYTE	W36
	BYTE		N30     Gn3   v100
	BYTE	W36
	BYTE		N18   
	BYTE	W24
// 006   ----------------------------------------
BLOODY_STREAM0_2_006:
	BYTE		N36     Fs3   v100
	BYTE	W36
	BYTE		TIE     Gn3 
	BYTE	W60
	BYTE	PEND
// 007   ----------------------------------------
	BYTE	W42
	BYTE		EOT   
	BYTE	W06
	BYTE		N24     Ds3 
	BYTE	W24
	BYTE		        Fn3 
	BYTE	W24
// 008   ----------------------------------------
	BYTE	PATT
	 POIN2	BLOODY_STREAM0_2_006
// 009   ----------------------------------------
	BYTE	W48
	BYTE		EOT     Gn3 
	BYTE	W24
	BYTE		N12     Fn3   v100
	BYTE	W12
	BYTE		        Gn3 
	BYTE	W12
// 010   ----------------------------------------
	BYTE		        Cn4 
	BYTE	W12
	BYTE		        Gn3 
	BYTE	W12
	BYTE		        Fn3 
	BYTE	W12
	BYTE		N06     Cn3 
	BYTE	W06
	BYTE		        Ds3 
	BYTE	W12
	BYTE		N18     Cn3 
	BYTE	W18
	BYTE		N06     Ds3 
	BYTE	W12
	BYTE		        Cn3 
	BYTE	W06
	BYTE		N54     Ds3 
	BYTE	W06
// 011   ----------------------------------------
	BYTE	W60
	BYTE		N12   
	BYTE	W12
	BYTE		        Fn3 
	BYTE	W12
	BYTE		        Ds3 
	BYTE	W12
// 012   ----------------------------------------
	BYTE		N36     Fs3 
	BYTE	W36
	BYTE		N84     Gn3 
	BYTE	W60
// 013   ----------------------------------------
	BYTE	W36
	BYTE	W03
	BYTE		N24   
	BYTE	W32
	BYTE	W01
	BYTE		N24   
	BYTE	W24
// 014   ----------------------------------------
	BYTE	PATT
	 POIN2	BLOODY_STREAM0_2_006
// 015   ----------------------------------------
	BYTE	W42
	BYTE		EOT     Gn3 
	BYTE	W06
	BYTE		N24     Ds3   v100
	BYTE	W24
	BYTE		        Fn3 
	BYTE	W24
// 016   ----------------------------------------
	BYTE	PATT
	 POIN2	BLOODY_STREAM0_2_006
// 017   ----------------------------------------
	BYTE	W48
	BYTE		EOT     Gn3 
	BYTE	W24
	BYTE		N12     Fn3   v100
	BYTE	W12
	BYTE		        Gn3 
	BYTE	W12
// 018   ----------------------------------------
	BYTE		N18     Cn4 
	BYTE	W24
	BYTE		N06   
	BYTE	W06
	BYTE		        Dn4 
	BYTE	W12
	BYTE		N18     Ds4 
	BYTE	W18
	BYTE		N09     Dn4 
	BYTE	W12
	BYTE		N12     Cn4 
	BYTE	W12
	BYTE		N06     Dn4 
	BYTE	W06
	BYTE		N54     Cn4 
	BYTE	W06
// 019   ----------------------------------------
	BYTE	W60
	BYTE		N12     Ds3 
	BYTE	W12
	BYTE		N12   
	BYTE	W12
	BYTE		N12   
	BYTE	W12
// 020   ----------------------------------------
	BYTE		        As3 
	BYTE	W12
	BYTE		N06     Gs3 
	BYTE	W06
	BYTE		N66     Gn3 
	BYTE	W78
// 021   ----------------------------------------
	BYTE	W60
	BYTE		N12     Cn3 
	BYTE	W12
	BYTE		N12   
	BYTE	W12
	BYTE		        Fn3 
	BYTE	W12
// 022   ----------------------------------------
	BYTE		N24     Cn4 
	BYTE	W24
	BYTE		N12   
	BYTE	W12
	BYTE		N06     As3 
	BYTE	W06
	BYTE		N90     Cn4 
	BYTE	W54
// 023   ----------------------------------------
	BYTE	W48
	BYTE		N18   
	BYTE	W18
	BYTE		        Dn4 
	BYTE	W18
	BYTE		N12     Ds4 
	BYTE	W12
// 024   ----------------------------------------
	BYTE		N60     Dn4 
	BYTE	W60
	BYTE		N12     As3 
	BYTE	W12
	BYTE		N12   
	BYTE	W12
	BYTE		N06     Cn4 
	BYTE	W06
	BYTE		N78     Gn3 
	BYTE	W06
// 025   ----------------------------------------
	BYTE	W84
	BYTE		N12     Cn3 
	BYTE	W12
// 026   ----------------------------------------
	BYTE		N18     Fn3 
	BYTE	W18
	BYTE		        Gn3 
	BYTE	W18
	BYTE		N36   
	BYTE	W36
	BYTE		N12     Cn3 
	BYTE	W12
	BYTE		N36     Ds3 
	BYTE	W12
// 027   ----------------------------------------
	BYTE	W36
	BYTE		N12     Cn3 
	BYTE	W12
	BYTE		N18     Gn3 
	BYTE	W18
	BYTE		        Gs3 
	BYTE	W18
	BYTE		N12     As3 
	BYTE	W12
// 028   ----------------------------------------
	BYTE		N96     Gn3 
	BYTE	W96
// 029   ----------------------------------------
	BYTE	W96
// 030   ----------------------------------------
	BYTE	W24
	BYTE		N24   
	BYTE	W24
	BYTE		        Bn3 
	BYTE	W24
	BYTE		        Dn4 
	BYTE	W24
// 031   ----------------------------------------
BLOODY_STREAM0_2_031:
	BYTE		N12     Ds4   v100
	BYTE	W12
	BYTE		N06     Dn4 
	BYTE	W12
	BYTE		N06   
	BYTE	W06
	BYTE		N12     Cn4 
	BYTE	W12
	BYTE		N06   
	BYTE	W18
	BYTE		N12     Gn3 
	BYTE	W12
	BYTE		        As3 
	BYTE	W12
	BYTE		        Ds4 
	BYTE	W12
	BYTE	PEND
// 032   ----------------------------------------
	BYTE		        Gn4 
	BYTE	W12
	BYTE		N06     Fn4 
	BYTE	W12
	BYTE		        Ds4 
	BYTE	W06
	BYTE		        Fn4 
	BYTE	W12
	BYTE		N30     Ds4 
	BYTE	W42
	BYTE		N06     As3 
	BYTE	W06
	BYTE		N06   
	BYTE	W06
// 033   ----------------------------------------
BLOODY_STREAM0_2_033:
	BYTE		N12     Cn4   v100
	BYTE	W12
	BYTE		N12   
	BYTE	W12
	BYTE		N12   
	BYTE	W12
	BYTE		N06   
	BYTE	W06
	BYTE		N12   
	BYTE	W12
	BYTE		N12   
	BYTE	W12
	BYTE		N06   
	BYTE	W06
	BYTE		N12   
	BYTE	W12
	BYTE		N12   
	BYTE	W12
	BYTE	PEND
// 034   ----------------------------------------
BLOODY_STREAM0_2_034:
	BYTE		N12     Cn4   v100
	BYTE	W12
	BYTE		N06     Bn3 
	BYTE	W12
	BYTE		N06   
	BYTE	W06
	BYTE		N12     Cn4 
	BYTE	W12
	BYTE		N30     Dn4 
	BYTE	W54
	BYTE	PEND
// 035   ----------------------------------------
	BYTE	PATT
	 POIN2	BLOODY_STREAM0_2_031
// 036   ----------------------------------------
	BYTE		N24     Gn4   v100
	BYTE	W36
	BYTE		N12     Cn4 
	BYTE	W12
	BYTE		        Gs4 
	BYTE	W12
	BYTE		        Gn4 
	BYTE	W12
	BYTE		        Fn4 
	BYTE	W12
	BYTE		        Gn4 
	BYTE	W12
// 037   ----------------------------------------
	BYTE		N24     Fn4 
	BYTE	W36
	BYTE		N60     Ds4 
	BYTE	W60
// 038   ----------------------------------------
	BYTE	W96
// 039   ----------------------------------------
	BYTE	PATT
	 POIN2	BLOODY_STREAM0_2_031
// 040   ----------------------------------------
	BYTE		N12     Gn4   v100
	BYTE	W12
	BYTE		N06     Fn4 
	BYTE	W12
	BYTE		        Ds4 
	BYTE	W06
	BYTE		        Fn4 
	BYTE	W12
	BYTE		N30     Ds4 
	BYTE	W42
	BYTE		N12     As3 
	BYTE	W12
// 041   ----------------------------------------
	BYTE	PATT
	 POIN2	BLOODY_STREAM0_2_033
// 042   ----------------------------------------
	BYTE	PATT
	 POIN2	BLOODY_STREAM0_2_034
// 043   ----------------------------------------
	BYTE	PATT
	 POIN2	BLOODY_STREAM0_2_031
// 044   ----------------------------------------
	BYTE		N12     Gn4   v100
	BYTE	W12
	BYTE		N06     Fn4 
	BYTE	W12
	BYTE		        Ds4 
	BYTE	W06
	BYTE		        Fn4 
	BYTE	W12
	BYTE		N18     Ds4 
	BYTE	W18
	BYTE		N12     Gn3 
	BYTE	W12
	BYTE		N12   
	BYTE	W12
	BYTE		TIE     Gn4 
	BYTE	W09
	BYTE		BEND    c_v-2
	BYTE	W03
// 045   ----------------------------------------
	BYTE		        c_v-9
	BYTE	W03
	BYTE		        c_v-4
	BYTE	W03
	BYTE		        c_v+0
	BYTE	W90
	BYTE		EOT   
// 046   ----------------------------------------
	BYTE	W24
	BYTE		N36     Gn3 
	BYTE	W36
	BYTE		N18     Dn4 
	BYTE	W18
	BYTE		        Fn4 
	BYTE	W18
// 047   ----------------------------------------
	BYTE		N06     Ds4 
	BYTE	W06
	BYTE		        Dn4 
	BYTE	W12
	BYTE		TIE     Cn4 
	BYTE	W78
// 048   ----------------------------------------
	BYTE	W96
// 049   ----------------------------------------
	BYTE	W03
	BYTE		EOT   
	BYTE	W24
	// BYTE		VOICE   0
	BYTE	W68
	BYTE	W01
// 050   ----------------------------------------
	BYTE	W96
// 051   ----------------------------------------
	BYTE	W96
	BYTE	GoTo
	 POIN2	BLOODY_STREAM0_2_B1
BLOODY_STREAM0_2_B2:
// 052   ----------------------------------------
	BYTE	FINE

//**************** Track 3 (Midi-Chn.3) ****************//

BLOODY_STREAM0_3:
	BYTE	KEYSH   BLOODY_STREAM0_key+0
// 000   ----------------------------------------
	BYTE	W09
	BYTE	W03
	BYTE		VOL     127*BLOODY_STREAM0_mvl
	BYTE 		BENDR   6
	BYTE	W03
	BYTE		PAN     c_v+0
	BYTE	W03
	BYTE	W03
	BYTE	W03
// 001   ----------------------------------------
	BYTE		VOICE   19
	// BYTE	W96
BLOODY_STREAM0_3_B1:
// 002   ----------------------------------------
	BYTE		N24     Cn3   v100
	BYTE	W24
	BYTE		        Bn2 
	BYTE	W24
	BYTE		N18     As2 
	BYTE	W18
	BYTE		N06     An2 
	BYTE	W18
	BYTE		N12     Gs2 
	BYTE	W12
// 003   ----------------------------------------
	BYTE	W12
	BYTE		N09     Cn3 
	BYTE	W12
	BYTE		N24     Bn2 
	BYTE	W24
	BYTE		N06     As2 
	BYTE	W06
	BYTE		        An2 
	BYTE	W12
	BYTE		        Gs2 
	BYTE	W12
	BYTE		N06   
	BYTE	W06
	BYTE		N12     Gn2 
	BYTE	W12
// 004   ----------------------------------------
	BYTE		N24     Cn3 
	BYTE	W24
	BYTE		        Bn2 
	BYTE	W24
	BYTE		N18     As2 
	BYTE	W18
	BYTE		N06     An2 
	BYTE	W18
	BYTE		TIE     Gn2 
	BYTE	W12
// 005   ----------------------------------------
	BYTE	W96
	BYTE		EOT   
// 006   ----------------------------------------
BLOODY_STREAM0_3_006:
	BYTE		N21     Cn3   v100
	BYTE		N21     Ds3 
	BYTE	W24
	BYTE		N12     Cn3 
	BYTE		N12     Ds3 
	BYTE		N12     Gn3 
	BYTE	W18
	BYTE		N03     Cn3 
	BYTE		N03     Ds3 
	BYTE		N03     Gn3 
	BYTE	W12
	BYTE		        Cn3 
	BYTE		N03     Ds3 
	BYTE		N03     Gn3 
	BYTE	W06
	BYTE		N12     Cn3 
	BYTE		N12     Ds3 
	BYTE		N12     Gn3 
	BYTE	W12
	BYTE		N09     Cn3 
	BYTE		N09     Ds3 
	BYTE		N09     Gn3 
	BYTE	W12
	BYTE		N03     Cn3 
	BYTE		N03     Ds3 
	BYTE		N03     Gn3 
	BYTE	W06
	BYTE		        Cn3 
	BYTE		N03     Ds3 
	BYTE		N03     Gn3 
	BYTE	W06
	BYTE	PEND
// 007   ----------------------------------------
BLOODY_STREAM0_3_007:
	BYTE		N18     As2   v100
	BYTE		N21     Ds3 
	BYTE	W24
	BYTE		N12     As2 
	BYTE		N12     Ds3 
	BYTE		N12     Gn3 
	BYTE	W18
	BYTE		N03     As2 
	BYTE		N03     Ds3 
	BYTE		N03     Gn3 
	BYTE	W12
	BYTE		        As2 
	BYTE		N03     Ds3 
	BYTE		N03     Gn3 
	BYTE	W06
	BYTE		N12     As2 
	BYTE		N12     Ds3 
	BYTE		N12     Gn3 
	BYTE	W12
	BYTE		        As2 
	BYTE		N09     Ds3 
	BYTE		N09     Gn3 
	BYTE	W12
	BYTE		N03     As2 
	BYTE		N03     Ds3 
	BYTE		N03     Gn3 
	BYTE	W06
	BYTE		        As2 
	BYTE		N03     Ds3 
	BYTE		N03     Gn3 
	BYTE	W06
	BYTE	PEND
// 008   ----------------------------------------
BLOODY_STREAM0_3_008:
	BYTE		N24     An2   v100
	BYTE		N24     Dn3 
	BYTE	W24
	BYTE		N12     An2 
	BYTE		N12     Dn3 
	BYTE		N12     Gn3 
	BYTE	W18
	BYTE		N03     An2 
	BYTE		N03     Dn3 
	BYTE		N03     Gn3 
	BYTE	W12
	BYTE		        An2 
	BYTE		N03     Dn3 
	BYTE		N03     Gn3 
	BYTE	W06
	BYTE		N12     An2 
	BYTE		N12     Dn3 
	BYTE		N12     Gn3 
	BYTE	W12
	BYTE		N09     An2 
	BYTE		N09     Dn3 
	BYTE		N12     Gn3 
	BYTE	W12
	BYTE		N03     An2 
	BYTE		N03     Dn3 
	BYTE		N03     Gn3 
	BYTE	W06
	BYTE		        An2 
	BYTE		N03     Dn3 
	BYTE		N03     Gn3 
	BYTE	W06
	BYTE	PEND
// 009   ----------------------------------------
BLOODY_STREAM0_3_009:
	BYTE		N24     Gs2   v100
	BYTE		N24     Cs3 
	BYTE	W24
	BYTE		N12     Gs2 
	BYTE		N12     Cs3 
	BYTE		N12     Fn3 
	BYTE	W18
	BYTE		N03     Gs2 
	BYTE		N03     Cs3 
	BYTE		N03     Fn3 
	BYTE	W12
	BYTE		        Gs2 
	BYTE		N03     Cs3 
	BYTE		N03     Fn3 
	BYTE	W06
	BYTE		N12     Gs2 
	BYTE		N12     Cs3 
	BYTE		N12     Fn3 
	BYTE	W12
	BYTE		        Gs2 
	BYTE		N12     Cs3 
	BYTE		N12     Fn3 
	BYTE	W12
	BYTE		N03     Gs2 
	BYTE		N03     Cs3 
	BYTE		N03     Fn3 
	BYTE	W06
	BYTE		        Gs2 
	BYTE		N03     Cs3 
	BYTE		N03     Fn3 
	BYTE	W06
	BYTE	PEND
// 010   ----------------------------------------
BLOODY_STREAM0_3_010:
	BYTE		N24     Ds2   v100
	BYTE		N24     Gn2 
	BYTE	W24
	BYTE		N12   
	BYTE		N12     Cn3 
	BYTE		N12     Ds3 
	BYTE	W18
	BYTE		N03     Gn2 
	BYTE		N03     Cn3 
	BYTE		N03     Ds3 
	BYTE	W12
	BYTE		        Gn2 
	BYTE		N03     Cn3 
	BYTE		N03     Ds3 
	BYTE	W06
	BYTE		N12     Gn2 
	BYTE		N12     Cn3 
	BYTE		N12     Ds3 
	BYTE	W12
	BYTE		        Gn2 
	BYTE		N09     Cn3 
	BYTE		N09     Ds3 
	BYTE	W12
	BYTE		N03     Gn2 
	BYTE		N03     Cn3 
	BYTE		N03     Ds3 
	BYTE	W06
	BYTE		        Gn2 
	BYTE		N03     Cn3 
	BYTE		N03     Ds3 
	BYTE	W06
	BYTE	PEND
// 011   ----------------------------------------
	BYTE	PATT
	 POIN2	BLOODY_STREAM0_3_007
// 012   ----------------------------------------
	BYTE	PATT
	 POIN2	BLOODY_STREAM0_3_008
// 013   ----------------------------------------
	BYTE	PATT
	 POIN2	BLOODY_STREAM0_3_009
// 014   ----------------------------------------
	BYTE	PATT
	 POIN2	BLOODY_STREAM0_3_006
// 015   ----------------------------------------
	BYTE	PATT
	 POIN2	BLOODY_STREAM0_3_007
// 016   ----------------------------------------
	BYTE	PATT
	 POIN2	BLOODY_STREAM0_3_008
// 017   ----------------------------------------
	BYTE	PATT
	 POIN2	BLOODY_STREAM0_3_009
// 018   ----------------------------------------
	BYTE	PATT
	 POIN2	BLOODY_STREAM0_3_010
// 019   ----------------------------------------
	BYTE	PATT
	 POIN2	BLOODY_STREAM0_3_007
// 020   ----------------------------------------
	BYTE		N24     Ds3   v100
	BYTE		N24     Gn3 
	BYTE	W24
	BYTE		N12     Ds3 
	BYTE		N12     Gn3 
	BYTE		N12     As3 
	BYTE	W18
	BYTE		N03     Ds3 
	BYTE		N03     Gn3 
	BYTE		N03     As3 
	BYTE	W12
	BYTE		        Ds3 
	BYTE		N03     Gn3 
	BYTE		N03     As3 
	BYTE	W06
	BYTE		N12     Ds3 
	BYTE		N12     Gn3 
	BYTE		N12     As3 
	BYTE	W12
	BYTE		        Ds3 
	BYTE		N12     Gn3 
	BYTE		N12     As3 
	BYTE	W12
	BYTE		N03     Ds3 
	BYTE		N03     Gn3 
	BYTE		N03     As3 
	BYTE	W06
	BYTE		        Ds3 
	BYTE		N03     Gn3 
	BYTE		N03     As3 
	BYTE	W06
// 021   ----------------------------------------
	BYTE		N24     Bn2 
	BYTE		N24     Dn3 
	BYTE	W24
	BYTE		N12     Bn2 
	BYTE		N12     Dn3 
	BYTE		N12     Gn3 
	BYTE	W18
	BYTE		N03     Bn2 
	BYTE		N03     Dn3 
	BYTE		N03     Gn3 
	BYTE	W12
	BYTE		        Bn2 
	BYTE		N03     Dn3 
	BYTE		N03     Gn3 
	BYTE	W06
	BYTE		N12     Bn2 
	BYTE		N12     Dn3 
	BYTE		N12     Gn3 
	BYTE	W12
	BYTE		        Bn2 
	BYTE		N12     Dn3 
	BYTE		N12     Gn3 
	BYTE	W12
	BYTE		N03     Bn2 
	BYTE		N03     Dn3 
	BYTE		N03     Gn3 
	BYTE	W06
	BYTE		        Bn2 
	BYTE		N03     Dn3 
	BYTE		N03     Gn3 
	BYTE	W06
// 022   ----------------------------------------
	BYTE		N96     Cn3 
	BYTE		N96     Fn3 
	BYTE	W96
// 023   ----------------------------------------
	BYTE		        Cs3 
	BYTE		N96     Fn3 
	BYTE		N96     Gs3 
	BYTE	W96
// 024   ----------------------------------------
BLOODY_STREAM0_3_024:
	BYTE		N96     Cn3   v100
	BYTE		N96     Ds3 
	BYTE		N96     Gn3 
	BYTE	W96
	BYTE	PEND
// 025   ----------------------------------------
	BYTE		        As2 
	BYTE		N96     Dn3 
	BYTE		N96     Fn3 
	BYTE	W96
// 026   ----------------------------------------
	BYTE		        An2 
	BYTE		N96     Dn3 
	BYTE		N96     Fn3 
	BYTE	W96
// 027   ----------------------------------------
	BYTE		        Gn2 
	BYTE		N96     Cn3 
	BYTE		N96     Ds3 
	BYTE	W96
// 028   ----------------------------------------
	BYTE		N24     Ds2   v084
	BYTE		N24     Gn2 
	BYTE		N24     Cn3 
	BYTE	W24
	BYTE		        Fn2 
	BYTE		N24     As2 
	BYTE		N24     Dn3 
	BYTE	W24
	BYTE		        Gn2 
	BYTE		N24     Cn3 
	BYTE		N24     Ds3 
	BYTE	W24
	BYTE		        As2 
	BYTE		N24     Dn3 
	BYTE		N24     Fn3 
	BYTE	W24
// 029   ----------------------------------------
	BYTE	W96
// 030   ----------------------------------------
	BYTE	W96
// 031   ----------------------------------------
	BYTE	PATT
	 POIN2	BLOODY_STREAM0_3_024
// 032   ----------------------------------------
BLOODY_STREAM0_3_032:
	BYTE		N96     Gn2   v100
	BYTE		N96     As2 
	BYTE		N96     Ds3 
	BYTE	W96
	BYTE	PEND
// 033   ----------------------------------------
BLOODY_STREAM0_3_033:
	BYTE		N96     Ds2   v100
	BYTE		N96     Gs2 
	BYTE		N96     Cn3 
	BYTE	W96
	BYTE	PEND
// 034   ----------------------------------------
BLOODY_STREAM0_3_034:
	BYTE		N96     Gn2   v100
	BYTE		N96     Bn2 
	BYTE		N96     Dn3 
	BYTE	W96
	BYTE	PEND
// 035   ----------------------------------------
	BYTE	PATT
	 POIN2	BLOODY_STREAM0_3_024
// 036   ----------------------------------------
	BYTE	PATT
	 POIN2	BLOODY_STREAM0_3_032
// 037   ----------------------------------------
	BYTE	PATT
	 POIN2	BLOODY_STREAM0_3_033
// 038   ----------------------------------------
	BYTE	PATT
	 POIN2	BLOODY_STREAM0_3_034
// 039   ----------------------------------------
	BYTE	PATT
	 POIN2	BLOODY_STREAM0_3_024
// 040   ----------------------------------------
	BYTE	PATT
	 POIN2	BLOODY_STREAM0_3_032
// 041   ----------------------------------------
	BYTE	PATT
	 POIN2	BLOODY_STREAM0_3_033
// 042   ----------------------------------------
	BYTE	PATT
	 POIN2	BLOODY_STREAM0_3_034
// 043   ----------------------------------------
	BYTE		N66     Cn3   v100
	BYTE		N66     Ds3 
	BYTE		N66     Gn3 
	BYTE	W72
	BYTE		N18     Cn3 
	BYTE		N18     Ds3 
	BYTE		N18     Gn3 
	BYTE	W24
// 044   ----------------------------------------
	BYTE		N44     Gs2 
	BYTE		N44     Cs3 
	BYTE		N44     Fn3 
	BYTE	W48
	BYTE		        Gs2 
	BYTE		N44     Cs3 
	BYTE		N44     Fn3 
	BYTE	W48
// 045   ----------------------------------------
	BYTE		N96     Gs2 
	BYTE		N96     Cn3 
	BYTE		N96     Fn3 
	BYTE	W96
// 046   ----------------------------------------
	BYTE	W24
	BYTE		N72     Gn2 
	BYTE		N72     Bn2 
	BYTE		N72     Dn3 
	BYTE		N72     Bn3 
	BYTE	W72
// 047   ----------------------------------------
	BYTE		N96     Cn3 
	BYTE		N96     Ds3 
	BYTE		N96     Gs3 
	BYTE	W96
// 048   ----------------------------------------
	BYTE		        Dn3 
	BYTE		N96     Fn3 
	BYTE		N96     As3 
	BYTE	W96
// 049   ----------------------------------------
	BYTE		TIE     Ds3 
	BYTE		TIE     Gn3 
	BYTE		TIE     Cn4 
	BYTE	W96
// 050   ----------------------------------------
	BYTE	W96
	BYTE		EOT     Ds3 
	BYTE		        Gn3 
	BYTE		        Cn4 
// 051   ----------------------------------------
	BYTE	W24
	// BYTE		VOICE   0
	BYTE	W72
	BYTE	GoTo
	 POIN2	BLOODY_STREAM0_3_B1
BLOODY_STREAM0_3_B2:
// 052   ----------------------------------------
	BYTE	FINE

//**************** Track 4 (Midi-Chn.4) ****************//

BLOODY_STREAM0_4:
	BYTE	KEYSH   BLOODY_STREAM0_key+0
// 000   ----------------------------------------
	BYTE	W09
	BYTE	W03
	BYTE		VOL     127*BLOODY_STREAM0_mvl/mxv
	BYTE 		BENDR   6
	BYTE	W03
	BYTE		PAN     c_v+0
	BYTE	W03
	BYTE	W03
	BYTE	W03
// 001   ----------------------------------------
	BYTE		VOICE   56
	// BYTE	W96
BLOODY_STREAM0_4_B1:
// 002   ----------------------------------------
	BYTE		N06     Ds3   v100
	BYTE		N06     Cn4 
	BYTE	W06
	BYTE		        Gn3 
	BYTE		N06     Ds4 
	BYTE	W06
	BYTE		        As3 
	BYTE		N06     Gn4 
	BYTE	W12
	BYTE		N12     As3 
	BYTE		N12     Fs4 
	BYTE	W12
	BYTE		N06     Gn3 
	BYTE		N06     Ds4 
	BYTE	W06
	BYTE		        Gs3 
	BYTE		N06     Fn4 
	BYTE	W12
	BYTE		        Gs3 
	BYTE		N06     Fn4 
	BYTE	W12
	BYTE		        Ds3 
	BYTE		N06     Cn4 
	BYTE	W06
	BYTE		N12     Gn3 
	BYTE		N12     Ds4 
	BYTE	W12
	BYTE		        Gs3 
	BYTE		N12     Fn4 
	BYTE	W12
// 003   ----------------------------------------
	BYTE		N06     Ds3 
	BYTE		N06     Cn4 
	BYTE	W06
	BYTE		        Gn3 
	BYTE		N06     Ds4 
	BYTE	W06
	BYTE		        As3 
	BYTE		N06     Gn4 
	BYTE	W06
	BYTE		        Gn3 
	BYTE		N06     Ds4 
	BYTE	W06
	BYTE		N12     As3 
	BYTE		N12     Fs4 
	BYTE	W12
	BYTE		N06     Gn3 
	BYTE		N06     Ds4 
	BYTE	W06
	BYTE		        Gs3 
	BYTE		N06     Fn4 
	BYTE	W12
	BYTE		        Gs3 
	BYTE		N06     Fn4 
	BYTE	W12
	BYTE		        Ds3 
	BYTE		N06     Cn4 
	BYTE	W06
	BYTE		N12     Gn3 
	BYTE		N12     Ds4 
	BYTE	W12
	BYTE		        Gs3 
	BYTE		N12     Fn4 
	BYTE	W12
// 004   ----------------------------------------
	BYTE		N06     Ds3 
	BYTE		N06     Cn4 
	BYTE	W06
	BYTE		        Gn3 
	BYTE		N06     Ds4 
	BYTE	W06
	BYTE		        As3 
	BYTE		N06     Gn4 
	BYTE	W12
	BYTE		N12     As3 
	BYTE		N12     Fs4 
	BYTE	W12
	BYTE		N06     Gn3 
	BYTE		N06     Ds4 
	BYTE	W06
	BYTE		        Gs3 
	BYTE		N06     Fn4 
	BYTE	W12
	BYTE		        Gs3 
	BYTE		N06     Fn4 
	BYTE	W12
	BYTE		        Cn3 
	BYTE		N06     Cn4 
	BYTE	W06
	BYTE		N12     Ds3 
	BYTE		N12     Ds4 
	BYTE	W12
//	BYTE		MOD     1
	BYTE		N24     Gn3 
	BYTE		N24     As4 
	BYTE	W03
//	BYTE		MOD     8
	BYTE	W03
	BYTE		        15
	BYTE	W03
	BYTE		        22
	BYTE	W03
// 005   ----------------------------------------
	BYTE		        28
	BYTE		BEND    c_v-2
	BYTE	W03
//	BYTE		MOD     35
	BYTE		BEND    c_v+1
	BYTE	W03
//	BYTE		MOD     42
	BYTE		BEND    c_v-2
	BYTE	W03
//	BYTE		MOD     49
	BYTE		BEND    c_v+2
	BYTE	W03
//	BYTE		MOD     56
	BYTE		BEND    c_v-1
	BYTE		N03     As3 
	BYTE		N03     Cn5 
	BYTE	W03
//	BYTE		MOD     63
	BYTE		BEND    c_v+6
	BYTE		N03     Gn3 
	BYTE		N03     As4 
	BYTE	W03
//	BYTE		MOD     70
	BYTE		BEND    c_v+1
	BYTE		N03     As3 
	BYTE		N03     Cn5 
	BYTE	W03
//	BYTE		MOD     77
	BYTE		BEND    c_v+0
	BYTE		N03     Gn3 
	BYTE		N03     As4 
	BYTE	W03
//	BYTE		MOD     0
	BYTE		N03     As3   v104
	BYTE		N03     Cn5 
	BYTE	W03
	BYTE		        Gn3 
	BYTE		N03     As4 
	BYTE	W03
	BYTE		        As3 
	BYTE		N03     Cn5 
	BYTE	W03
	BYTE		        Gn3 
	BYTE		N03     As4 
	BYTE	W03
	BYTE		        As3 
	BYTE		N03     Cn5 
	BYTE	W03
	BYTE		        Gn3 
	BYTE		N03     As4 
	BYTE	W03
	BYTE		        As3 
	BYTE		N03     Cn5 
	BYTE	W03
	BYTE		        Gn3 
	BYTE		N03     As4 
	BYTE	W03
	BYTE		        As3 
	BYTE		N03     Cn5 
	BYTE	W03
	BYTE		        Gn3 
	BYTE		N03     As4 
	BYTE	W03
	BYTE		        As3   v100
	BYTE		N03     Cn5 
	BYTE	W03
	BYTE		        Gn3 
	BYTE		N03     As4 
	BYTE	W03
	BYTE		        As3 
	BYTE		N03     Cn5 
	BYTE	W03
	BYTE		        Gn3   v096
	BYTE		N03     As4 
	BYTE	W03
	BYTE		        As3   v092
	BYTE		N03     Cn5 
	BYTE	W03
	BYTE		        Gn3 
	BYTE		N03     As4 
	BYTE	W03
	BYTE		        As3 
	BYTE		N03     Cn5 
	BYTE	W03
	BYTE		        Gn3   v084
	BYTE		N03     As4 
	BYTE	W03
	BYTE		        As3   v080
	BYTE		N03     Cn5 
	BYTE	W03
	BYTE		        Gn3   v076
	BYTE		N03     As4 
	BYTE	W03
	BYTE		        As3   v068
	BYTE		N03     Cn5 
	BYTE	W03
	BYTE		        Gn3   v060
	BYTE		N03     As4 
	BYTE	W03
	BYTE		        As3   v052
	BYTE		N03     Cn5 
	BYTE	W03
	BYTE		        Gn3   v032
	BYTE		N03     As4 
	BYTE	W03
// 006   ----------------------------------------
	BYTE		        As3   v020
	BYTE		N03     Cn5 
	BYTE	W03
	BYTE		        Gn3   v004
	BYTE		N03     As4 
	BYTE	W92
	BYTE	W01
// 007   ----------------------------------------
	BYTE	W96
// 008   ----------------------------------------
	BYTE	W72
	BYTE		N24     Ds3   v100
	BYTE	W24
// 009   ----------------------------------------
	BYTE		N72     Fn3 
	BYTE	W72
	BYTE		N24     Gs3 
	BYTE	W24
// 010   ----------------------------------------
	BYTE		N96     Gn3 
	BYTE	W96
// 011   ----------------------------------------
	BYTE		        As3 
	BYTE	W42
	BYTE	W03
	BYTE	W03
	BYTE	W03
	BYTE	W03
	BYTE	W03
	BYTE	W03
	BYTE	W03
	BYTE	W03
	BYTE	W03
	BYTE	W03
	BYTE	W03
	BYTE	W03
	BYTE	W03
	BYTE	W03
	BYTE	W03
	BYTE	W03
	BYTE	W03
	BYTE	W03
// 012   ----------------------------------------
	BYTE	W96
// 013   ----------------------------------------
	BYTE		N06     Ds3   v116
	BYTE		N06     Ds4 
	BYTE	W06
	BYTE		        Fn3   v120
	BYTE		N03     Fn4 
	BYTE	W12
	BYTE		N06     Cn3   v116
	BYTE		N06     Cn4 
	BYTE	W06
	BYTE		        Ds3   v120
	BYTE		N03     Ds4 
	BYTE	W12
	BYTE		N06     Gn2   v112
	BYTE		N06     Gn3 
	BYTE	W06
	BYTE		        Cn3   v116
	BYTE		N03     Cn4 
	BYTE	W12
	BYTE		N06     Cn3   v100
	BYTE	W06
	BYTE		        Ds3   v104
	BYTE	W06
	BYTE		        Gn3   v108
	BYTE	W06
	BYTE		        Cn4 
	BYTE	W06
	BYTE		        Gn3   v100
	BYTE	W06
	BYTE		        Ds3   v092
	BYTE	W06
	BYTE		        Cn3   v080
	BYTE	W06
// 014   ----------------------------------------
	BYTE	W96
// 015   ----------------------------------------
	BYTE	W96
// 016   ----------------------------------------
	BYTE	W72
	BYTE		N24     Ds3   v072
	BYTE	W24
// 017   ----------------------------------------
	BYTE		        Fn3   v080
	BYTE	W24
	BYTE		        Gn3   v084
	BYTE	W24
	BYTE		        Ds4   v104
	BYTE	W24
	BYTE		        Dn4   v100
	BYTE	W12
	BYTE	W03
	BYTE	W06
	BYTE	W03
// 018   ----------------------------------------
	BYTE		N96     Cn4   v096
	BYTE	W03
	BYTE	W03
	BYTE	W03
	BYTE	W03
	BYTE	W03
	BYTE	W03
	BYTE	W03
	BYTE	W03
	BYTE	W06
	BYTE	W03
	BYTE	W03
	BYTE	W03
	BYTE	W03
	BYTE	W03
	BYTE	W03
	BYTE	W03
	BYTE	W03
	BYTE	W03
	BYTE	W03
	BYTE	W03
	BYTE	W03
	BYTE	W03
	BYTE	W03
	BYTE	W03
	BYTE	W03
	BYTE	W06
	BYTE	W03
	BYTE	W03
	BYTE	W03
	BYTE	W03
// 019   ----------------------------------------
	BYTE		        Fn4   v104
	BYTE	W44
	BYTE	W01
	BYTE	W03
	BYTE	W03
	BYTE	W03
	BYTE	W03
	BYTE	W03
	BYTE	W03
	BYTE	W03
	BYTE	W03
	BYTE	W03
	BYTE	W03
	BYTE	W03
	BYTE	W03
	BYTE	W03
	BYTE	W03
	BYTE	W03
	BYTE	W03
	BYTE	W03
// 020   ----------------------------------------
	BYTE	W96
// 021   ----------------------------------------
	BYTE		N06     Gn4   v100
	BYTE	W06
	BYTE		        Gs4 
	BYTE	W06
	BYTE		        As4 
	BYTE	W06
	BYTE		        Ds4 
	BYTE	W06
	BYTE		        Fn4 
	BYTE	W06
	BYTE		        Gn4 
	BYTE	W06
	BYTE		        Cn4 
	BYTE	W06
	BYTE		        Cs4 
	BYTE	W06
	BYTE		        Ds4 
	BYTE	W06
	BYTE		        Gn3 
	BYTE	W06
	BYTE		        Gs3 
	BYTE	W06
	BYTE		        Bn3 
	BYTE	W06
	BYTE		        Gn3 
	BYTE	W06
	BYTE		        Dn3 
	BYTE	W06
	BYTE		        Bn2 
	BYTE	W06
	BYTE		        Gn2 
	BYTE	W06
// 022   ----------------------------------------
	BYTE	W96
// 023   ----------------------------------------
	BYTE	W96
// 024   ----------------------------------------
	BYTE	W96
// 025   ----------------------------------------
	BYTE	W96
// 026   ----------------------------------------
	BYTE	W96
// 027   ----------------------------------------
	BYTE	W96
// 028   ----------------------------------------
	BYTE		N24     Gn2   v076
	BYTE		N24     Cn3 
	BYTE	W24
	BYTE		        As2   v084
	BYTE		N24     Dn3 
	BYTE	W24
	BYTE		        Cn3   v088
	BYTE		N24     Ds3 
	BYTE	W24
	BYTE		        Dn3   v096
	BYTE		N24     Fn3 
	BYTE	W24
// 029   ----------------------------------------
	BYTE		N06     Ds3   v104
	BYTE		N06     Gn3 
	BYTE	W06
	BYTE		        Fn3 
	BYTE		N06     As3 
	BYTE	W12
	BYTE		        Gn3   v108
	BYTE		N06     Cn4 
	BYTE	W12
	BYTE		        Gs3   v112
	BYTE		N06     Dn4 
	BYTE	W12
	BYTE		        As3 
	BYTE		N06     Ds4 
	BYTE	W12
	BYTE		        Cn4   v116
	BYTE		N06     Fn4 
	BYTE	W12
	BYTE		        Ds4   v120
	BYTE		N06     Gn4 
	BYTE	W12
	BYTE		        Fn4   v124
	BYTE		N06     Gs4 
	BYTE	W18
// 030   ----------------------------------------
	BYTE	W96
// 031   ----------------------------------------
BLOODY_STREAM0_4_031:
	BYTE	W24
	BYTE		N06     Cn4   v100
	BYTE		N06     Cn5 
	BYTE	W06
	BYTE		        Cn4 
	BYTE		N06     Cn5 
	BYTE	W12
	BYTE		N09     Cn4 
	BYTE		N09     Cn5 
	BYTE	W54
	BYTE	PEND
// 032   ----------------------------------------
BLOODY_STREAM0_4_032:
	BYTE	W24
	BYTE		N06     As3   v100
	BYTE		N06     As4 
	BYTE	W06
	BYTE		        As3 
	BYTE		N06     As4 
	BYTE	W12
	BYTE		N09     As3 
	BYTE		N09     As4 
	BYTE	W54
	BYTE	PEND
// 033   ----------------------------------------
	BYTE	W96
// 034   ----------------------------------------
	BYTE	W96
// 035   ----------------------------------------
	BYTE	PATT
	 POIN2	BLOODY_STREAM0_4_031
// 036   ----------------------------------------
	BYTE	PATT
	 POIN2	BLOODY_STREAM0_4_032
// 037   ----------------------------------------
	BYTE	W96
// 038   ----------------------------------------
	BYTE		N06     Gn3   v100
	BYTE		N06     Gn4 
	BYTE	W06
	BYTE		        Gs3 
	BYTE		N06     Gs4 
	BYTE	W06
	BYTE		        As3 
	BYTE		N06     As4 
	BYTE	W06
	BYTE		        Ds3 
	BYTE		N06     Ds4 
	BYTE	W06
	BYTE		        Fn3 
	BYTE		N06     Fn4 
	BYTE	W06
	BYTE		        Gn3 
	BYTE		N06     Gn4 
	BYTE	W06
	BYTE		        Cn3 
	BYTE		N06     Cn4 
	BYTE	W06
	BYTE		        Dn3 
	BYTE		N06     Cs4 
	BYTE	W06
	BYTE		        Ds3 
	BYTE		N06     Ds4 
	BYTE	W12
	BYTE		N36     Fn3 
	BYTE		N30     Fn4 
	BYTE	W30
	BYTE		N03     Ds4   v084
	BYTE	W03
	BYTE		        Dn4   v060
	BYTE	W03
// 039   ----------------------------------------
	BYTE	PATT
	 POIN2	BLOODY_STREAM0_4_031
// 040   ----------------------------------------
	BYTE	PATT
	 POIN2	BLOODY_STREAM0_4_032
// 041   ----------------------------------------
	BYTE	W96
// 042   ----------------------------------------
	BYTE	W96
// 043   ----------------------------------------
	BYTE		N48     Cn3   v096
	BYTE		N48     Cn4 
	BYTE	W48
	BYTE		        As2   v088
	BYTE		N48     As3 
	BYTE	W48
// 044   ----------------------------------------
	BYTE		N96     Gs2   v084
	BYTE		N96     Gs3 
	BYTE	W96
// 045   ----------------------------------------
	BYTE	W24
	BYTE		N06     Cn2   v096
	BYTE		N06     Cn3 
	BYTE	W06
	BYTE		        Dn2 
	BYTE		N06     Dn3 
	BYTE	W12
	BYTE		        Fn2   v104
	BYTE		N06     Fn3 
	BYTE	W12
	BYTE		        Gs2   v108
	BYTE		N06     Gs3 
	BYTE	W12
	BYTE		        Cn3   v112
	BYTE		N06     Cn4 
	BYTE	W12
	BYTE		        Dn3   v120
	BYTE		N06     Dn4 
	BYTE	W12
	BYTE		        Fn3   v124
	BYTE		N06     Fn4 
	BYTE	W06
// 046   ----------------------------------------
	BYTE		N12     Gn3   v127
	BYTE		N12     Gn4 
	BYTE	W96
// 047   ----------------------------------------
	BYTE		N96     Gs2   v060
	BYTE		N96     Gs3 
	BYTE	W03
	BYTE	W03
	BYTE	W03
	BYTE	W03
	BYTE	W03
	BYTE	W03
	BYTE	W03
	BYTE	W03
	BYTE	W03
	BYTE	W03
	BYTE	W03
	BYTE	W03
	BYTE	W03
	BYTE	W03
	BYTE	W03
	BYTE	W03
	BYTE	W03
	BYTE	W03
	BYTE	W06
	BYTE	W06
	BYTE	W06
	BYTE	W03
	BYTE	W06
	BYTE	W09
	BYTE	W03
	BYTE	W03
// 048   ----------------------------------------
	BYTE		        As2   v072
	BYTE		N96     As3 
	BYTE	W09
	BYTE	W36
	BYTE	W03
	BYTE	W48
// 049   ----------------------------------------
	BYTE		TIE     Cn3   v100
	BYTE		TIE     Cn4 
	BYTE	W03
	BYTE	W03
	BYTE	W03
	BYTE	W03
	BYTE	W03
	BYTE	W03
	BYTE	W09
	BYTE	W03
	BYTE	W03
	BYTE	W03
	BYTE	W03
	BYTE	W03
	BYTE	W03
	BYTE	W03
	BYTE	W06
	BYTE	W03
	BYTE	W03
	BYTE	W03
	BYTE	W03
	BYTE	W06
	BYTE	W03
	BYTE	W03
	BYTE	W06
	BYTE	W06
	BYTE	W06
// 050   ----------------------------------------
	BYTE	W03
	BYTE	W12
	BYTE	W12
	BYTE	W09
	BYTE	W06
	BYTE	W54
	BYTE		EOT     Cn3 
	BYTE		        Cn4 
// 051   ----------------------------------------
	BYTE	W24
	// BYTE		VOICE   0
	BYTE	W72
	BYTE	GoTo
	 POIN2	BLOODY_STREAM0_4_B1
BLOODY_STREAM0_4_B2:
// 052   ----------------------------------------
	BYTE	FINE

//**************** Track 5 (Midi-Chn.5) ****************//

BLOODY_STREAM0_5:
	BYTE	KEYSH   BLOODY_STREAM0_key+0
// 000   ----------------------------------------
	BYTE	W09
	BYTE	W03
	BYTE		VOL     127*BLOODY_STREAM0_mvl/mxv
	BYTE 		BENDR   6
	BYTE	W03
	BYTE		PAN     c_v+0
	BYTE	W03
	BYTE	W03
	BYTE	W03
// 001   ----------------------------------------
	BYTE		VOICE   67
	// BYTE	W96
BLOODY_STREAM0_5_B1:
// 002   ----------------------------------------
	BYTE		N06     Ds2   v100
	BYTE		N06     Cn3 
	BYTE	W06
	BYTE		        Gn2 
	BYTE		N06     Ds3 
	BYTE	W06
	BYTE		        As2 
	BYTE		N06     Gn3 
	BYTE	W12
	BYTE		N12     As2 
	BYTE		N12     Fs3 
	BYTE	W12
	BYTE		N06     Gn2 
	BYTE		N06     Ds3 
	BYTE	W06
	BYTE		        Gs2 
	BYTE		N06     Fn3 
	BYTE	W12
	BYTE		        Gs2 
	BYTE		N06     Fn3 
	BYTE	W12
	BYTE		        Ds2 
	BYTE		N06     Cn3 
	BYTE	W06
	BYTE		N12     Gn2 
	BYTE		N12     Ds3 
	BYTE	W12
	BYTE		        Gs2 
	BYTE		N12     Fn3 
	BYTE	W12
// 003   ----------------------------------------
	BYTE		N06     Ds2 
	BYTE		N06     Cn3 
	BYTE	W06
	BYTE		        Gn2 
	BYTE		N06     Ds3 
	BYTE	W06
	BYTE		        As2 
	BYTE		N06     Gn3 
	BYTE	W06
	BYTE		        Gn2 
	BYTE		N06     Ds3 
	BYTE	W06
	BYTE		N12     As2 
	BYTE		N12     Fs3 
	BYTE	W12
	BYTE		N06     Gn2 
	BYTE		N06     Ds3 
	BYTE	W06
	BYTE		        Gs2 
	BYTE		N06     Fn3 
	BYTE	W12
	BYTE		        Gs2 
	BYTE		N06     Fn3 
	BYTE	W12
	BYTE		        Ds2 
	BYTE		N06     Cn3 
	BYTE	W06
	BYTE		N12     Gn2 
	BYTE		N12     Ds3 
	BYTE	W12
	BYTE		        Gs2 
	BYTE		N12     Fn3 
	BYTE	W12
// 004   ----------------------------------------
	BYTE		N06     Ds2 
	BYTE		N06     Cn3 
	BYTE	W06
	BYTE		        Gn2 
	BYTE		N06     Ds3 
	BYTE	W06
	BYTE		        As2 
	BYTE		N06     Gn3 
	BYTE	W12
	BYTE		N12     As2 
	BYTE		N12     Fs3 
	BYTE	W12
	BYTE		N06     Gn2 
	BYTE		N06     Ds3 
	BYTE	W06
	BYTE		        Gs2 
	BYTE		N06     Fn3 
	BYTE	W12
	BYTE		        Gs2 
	BYTE		N06     Fn3 
	BYTE	W12
	BYTE		        Cn2 
	BYTE		N06     Cn3 
	BYTE	W06
	BYTE		N12     Ds2 
	BYTE		N12     Ds3 
	BYTE	W12
//	BYTE		MOD     1
	BYTE		N24     Gn2 
	BYTE		N24     As3 
	BYTE	W03
//	BYTE		MOD     8
	BYTE	W03
	BYTE		        15
	BYTE	W03
	BYTE		        22
	BYTE	W03
// 005   ----------------------------------------
	BYTE		        28
	BYTE		BEND    c_v-2
	BYTE	W03
//	BYTE		MOD     35
	BYTE		BEND    c_v+1
	BYTE	W03
//	BYTE		MOD     42
	BYTE		BEND    c_v-2
	BYTE	W03
//	BYTE		MOD     49
	BYTE		BEND    c_v+2
	BYTE	W03
//	BYTE		MOD     56
	BYTE		BEND    c_v-1
	BYTE		N03     As2 
	BYTE		N03     Cn4 
	BYTE	W03
//	BYTE		MOD     63
	BYTE		BEND    c_v+6
	BYTE		N03     Gn2 
	BYTE		N03     As3 
	BYTE	W03
//	BYTE		MOD     70
	BYTE		BEND    c_v+1
	BYTE		N03     As2 
	BYTE		N03     Cn4 
	BYTE	W03
//	BYTE		MOD     77
	BYTE		BEND    c_v+0
	BYTE		N03     Gn2 
	BYTE		N03     As3 
	BYTE	W03
//	BYTE		MOD     0
	BYTE		N03     As2   v104
	BYTE		N03     Cn4 
	BYTE	W03
	BYTE		        Gn2 
	BYTE		N03     As3 
	BYTE	W03
	BYTE		        As2 
	BYTE		N03     Cn4 
	BYTE	W03
	BYTE		        Gn2 
	BYTE		N03     As3 
	BYTE	W03
	BYTE		        As2 
	BYTE		N03     Cn4 
	BYTE	W03
	BYTE		        Gn2 
	BYTE		N03     As3 
	BYTE	W03
	BYTE		        As2 
	BYTE		N03     Cn4 
	BYTE	W03
	BYTE		        Gn2 
	BYTE		N03     As3 
	BYTE	W03
	BYTE		        As2 
	BYTE		N03     Cn4 
	BYTE	W03
	BYTE		        Gn2 
	BYTE		N03     As3 
	BYTE	W03
	BYTE		        As2   v100
	BYTE		N03     Cn4 
	BYTE	W03
	BYTE		        Gn2 
	BYTE		N03     As3 
	BYTE	W03
	BYTE		        As2 
	BYTE		N03     Cn4 
	BYTE	W03
	BYTE		        Gn2   v096
	BYTE		N03     As3 
	BYTE	W03
	BYTE		        As2   v092
	BYTE		N03     Cn4 
	BYTE	W03
	BYTE		        Gn2 
	BYTE		N03     As3 
	BYTE	W03
	BYTE		        As2 
	BYTE		N03     Cn4 
	BYTE	W03
	BYTE		        Gn2   v084
	BYTE		N03     As3 
	BYTE	W03
	BYTE		        As2   v080
	BYTE		N03     Cn4 
	BYTE	W03
	BYTE		        Gn2   v076
	BYTE		N03     As3 
	BYTE	W03
	BYTE		        As2   v068
	BYTE		N03     Cn4 
	BYTE	W03
	BYTE		        Gn2   v060
	BYTE		N03     As3 
	BYTE	W03
	BYTE		        As2   v052
	BYTE		N03     Cn4 
	BYTE	W03
	BYTE		        Gn2   v032
	BYTE		N03     As3 
	BYTE	W03
// 006   ----------------------------------------
	BYTE		        Cn3   v020
	BYTE	W03
	BYTE		        As2   v004
	BYTE	W92
	BYTE	W01
// 007   ----------------------------------------
	BYTE	W96
// 008   ----------------------------------------
	BYTE	W72
	BYTE		N24     Ds2   v100
	BYTE	W24
// 009   ----------------------------------------
	BYTE		N72     Fn2 
	BYTE	W72
	BYTE		N24     Gs2 
	BYTE	W24
// 010   ----------------------------------------
	BYTE		N96     Gn2 
	BYTE	W96
// 011   ----------------------------------------
	BYTE		        Ds3 
	BYTE	W24
	BYTE	W12
	BYTE	W06
	BYTE	W03
	BYTE	W06
	BYTE	W03
	BYTE	W03
	BYTE	W03
	BYTE	W03
	BYTE	W03
	BYTE	W03
	BYTE	W03
	BYTE	W03
	BYTE	W03
	BYTE	W03
	BYTE	W03
	BYTE	W03
	BYTE	W03
	BYTE	W03
	BYTE	W03
// 012   ----------------------------------------
	BYTE	W96
// 013   ----------------------------------------
	BYTE		N06     Ds3   v104
	BYTE	W06
	BYTE		N03     Fn3   v108
	BYTE	W12
	BYTE		N06     Cn3   v100
	BYTE	W06
	BYTE		N03     Ds3   v104
	BYTE	W12
	BYTE		N06     Gn2   v096
	BYTE	W06
	BYTE		N03     Cn3   v108
	BYTE	W12
	BYTE		N06     Cn2   v088
	BYTE	W06
	BYTE		        Ds2   v096
	BYTE	W06
	BYTE		        Gn2   v100
	BYTE	W06
	BYTE		        Cn3 
	BYTE	W06
	BYTE		        Gn2   v092
	BYTE	W06
	BYTE		        Ds2   v080
	BYTE	W06
	BYTE		        Cn2   v068
	BYTE	W06
// 014   ----------------------------------------
	BYTE	W96
// 015   ----------------------------------------
	BYTE	W96
// 016   ----------------------------------------
	BYTE	W72
	BYTE		N24     Ds2   v072
	BYTE	W24
// 017   ----------------------------------------
	BYTE		        Fn2   v080
	BYTE	W24
	BYTE		        Gn2   v084
	BYTE	W24
	BYTE		        Ds3   v104
	BYTE	W24
	BYTE		        Dn3   v100
	BYTE	W12
	BYTE	W03
	BYTE	W06
	BYTE	W03
// 018   ----------------------------------------
	BYTE		N96     Cn3   v096
	BYTE	W03
	BYTE	W03
	BYTE	W03
	BYTE	W03
	BYTE	W03
	BYTE	W03
	BYTE	W03
	BYTE	W03
	BYTE	W06
	BYTE	W03
	BYTE	W03
	BYTE	W03
	BYTE	W03
	BYTE	W03
	BYTE	W03
	BYTE	W03
	BYTE	W03
	BYTE	W03
	BYTE	W03
	BYTE	W03
	BYTE	W03
	BYTE	W03
	BYTE	W03
	BYTE	W03
	BYTE	W03
	BYTE	W06
	BYTE	W03
	BYTE	W03
	BYTE	W03
	BYTE	W03
// 019   ----------------------------------------
	BYTE		        Fn3   v104
	BYTE	W36
	BYTE	W03
	BYTE	W03
	BYTE	W03
	BYTE	W03
	BYTE	W03
	BYTE	W03
	BYTE	W03
	BYTE	W03
	BYTE	W03
	BYTE	W03
	BYTE	W03
	BYTE	W03
	BYTE	W03
	BYTE	W03
	BYTE	W03
	BYTE	W03
	BYTE	W03
	BYTE	W03
	BYTE	W03
	BYTE	W03
// 020   ----------------------------------------
	BYTE	W96
// 021   ----------------------------------------
	BYTE		N06     Gn3   v100
	BYTE	W06
	BYTE		        Gs3 
	BYTE	W06
	BYTE		        As3 
	BYTE	W06
	BYTE		        Ds3 
	BYTE	W06
	BYTE		        Fn3 
	BYTE	W06
	BYTE		        Gn3 
	BYTE	W06
	BYTE		        Cn3 
	BYTE	W06
	BYTE		        Cs3 
	BYTE	W06
	BYTE		        Ds3 
	BYTE	W06
	BYTE		        Gn2 
	BYTE	W06
	BYTE		        Gs2 
	BYTE	W06
	BYTE		        Bn2 
	BYTE	W06
	BYTE		        Gn2 
	BYTE	W06
	BYTE		        Dn2 
	BYTE	W06
	BYTE		        Bn1 
	BYTE	W06
	BYTE		        Gn1 
	BYTE	W06
// 022   ----------------------------------------
	BYTE	W96
// 023   ----------------------------------------
	BYTE	W96
// 024   ----------------------------------------
	BYTE	W96
// 025   ----------------------------------------
	BYTE	W96
// 026   ----------------------------------------
	BYTE	W96
// 027   ----------------------------------------
	BYTE	W96
// 028   ----------------------------------------
	BYTE		N24     Cn2   v076
	BYTE	W24
	BYTE		        Dn2   v092
	BYTE	W24
	BYTE		        Ds2   v100
	BYTE	W24
	BYTE		        Fn2   v108
	BYTE	W24
// 029   ----------------------------------------
	BYTE		N06     Gn2   v112
	BYTE	W06
	BYTE		        As2   v116
	BYTE	W12
	BYTE		        Cn3 
	BYTE	W12
	BYTE		        Dn3   v120
	BYTE	W12
	BYTE		        Ds3   v124
	BYTE	W12
	BYTE		        Fn3 
	BYTE	W12
	BYTE		        Gn3   v127
	BYTE	W12
	BYTE		        Gs3 
	BYTE	W18
// 030   ----------------------------------------
	BYTE	W96
// 031   ----------------------------------------
BLOODY_STREAM0_5_031:
	BYTE	W24
	BYTE		N06     Cn3   v100
	BYTE	W06
	BYTE		N06   
	BYTE	W12
	BYTE		N12   
	BYTE	W54
	BYTE	PEND
// 032   ----------------------------------------
BLOODY_STREAM0_5_032:
	BYTE	W24
	BYTE		N06     As2   v100
	BYTE	W06
	BYTE		N06   
	BYTE	W12
	BYTE		N12   
	BYTE	W54
	BYTE	PEND
// 033   ----------------------------------------
	BYTE	W96
// 034   ----------------------------------------
	BYTE	W96
// 035   ----------------------------------------
	BYTE	PATT
	 POIN2	BLOODY_STREAM0_5_031
// 036   ----------------------------------------
	BYTE	PATT
	 POIN2	BLOODY_STREAM0_5_032
// 037   ----------------------------------------
	BYTE	W96
// 038   ----------------------------------------
	BYTE		N06     Gn3   v100
	BYTE	W06
	BYTE		        Gs3 
	BYTE	W06
	BYTE		        As3 
	BYTE	W06
	BYTE		        Ds3 
	BYTE	W06
	BYTE		        Fn3 
	BYTE	W06
	BYTE		        Gn3 
	BYTE	W06
	BYTE		        Cn3 
	BYTE	W06
	BYTE		        Cs3 
	BYTE	W06
	BYTE		        Ds3 
	BYTE	W12
	BYTE		N30     Fn3 
	BYTE	W30
	BYTE		N03     Ds3   v056
	BYTE	W03
	BYTE		        Dn3 
	BYTE	W03
// 039   ----------------------------------------
	BYTE	PATT
	 POIN2	BLOODY_STREAM0_5_031
// 040   ----------------------------------------
	BYTE	PATT
	 POIN2	BLOODY_STREAM0_5_032
// 041   ----------------------------------------
	BYTE	W96
// 042   ----------------------------------------
	BYTE	W96
// 043   ----------------------------------------
	BYTE		N48     Cn3   v100
	BYTE	W48
	BYTE		        As2   v096
	BYTE	W48
// 044   ----------------------------------------
	BYTE		N96     Gs2   v088
	BYTE	W96
// 045   ----------------------------------------
	BYTE	W24
	BYTE		N06     Cn2   v100
	BYTE	W06
	BYTE		        Dn2   v092
	BYTE	W12
	BYTE		        Fn2   v100
	BYTE	W12
	BYTE		        Gs2   v108
	BYTE	W12
	BYTE		        Cn3   v112
	BYTE	W12
	BYTE		        Dn3   v116
	BYTE	W12
	BYTE		        Fn3   v120
	BYTE	W06
// 046   ----------------------------------------
	BYTE		N12     Gn3   v124
	BYTE	W96
// 047   ----------------------------------------
	BYTE		N96     Gs2   v060
	BYTE	W03
	BYTE	W03
	BYTE	W03
	BYTE	W03
	BYTE	W03
	BYTE	W03
	BYTE	W03
	BYTE	W03
	BYTE	W03
	BYTE	W03
	BYTE	W03
	BYTE	W03
	BYTE	W03
	BYTE	W03
	BYTE	W03
	BYTE	W03
	BYTE	W03
	BYTE	W03
	BYTE	W06
	BYTE	W06
	BYTE	W06
	BYTE	W03
	BYTE	W06
	BYTE	W09
	BYTE	W03
	BYTE	W03
// 048   ----------------------------------------
	BYTE		        As2   v072
	BYTE	W09
	BYTE	W36
	BYTE	W03
	BYTE	W48
// 049   ----------------------------------------
	BYTE		TIE     Cn3   v100
	BYTE	W03
	BYTE	W03
	BYTE	W03
	BYTE	W03
	BYTE	W03
	BYTE	W03
	BYTE	W09
	BYTE	W03
	BYTE	W03
	BYTE	W03
	BYTE	W03
	BYTE	W03
	BYTE	W03
	BYTE	W03
	BYTE	W06
	BYTE	W03
	BYTE	W03
	BYTE	W03
	BYTE	W03
	BYTE	W06
	BYTE	W03
	BYTE	W03
	BYTE	W06
	BYTE	W06
	BYTE	W06
// 050   ----------------------------------------
	BYTE	W03
	BYTE	W12
	BYTE	W12
	BYTE	W09
	BYTE	W06
	BYTE	W54
	BYTE		EOT   
// 051   ----------------------------------------
	BYTE	W24
	// BYTE		VOICE   0
	BYTE	W72
	BYTE	GoTo
	 POIN2	BLOODY_STREAM0_5_B1
BLOODY_STREAM0_5_B2:
// 052   ----------------------------------------
	BYTE	FINE

//**************** Track 6 (Midi-Chn.6) ****************//

BLOODY_STREAM0_6:
	BYTE	KEYSH   BLOODY_STREAM0_key+0
// 000   ----------------------------------------
	BYTE	W09
	BYTE	W03
	BYTE		VOL     127*BLOODY_STREAM0_mvl/mxv
	BYTE 		BENDR   6
	BYTE	W03
	BYTE		PAN     c_v+0
	BYTE	W03
	BYTE	W03
	BYTE	W03
// 001   ----------------------------------------
	BYTE		VOICE   50
	// BYTE	W96
BLOODY_STREAM0_6_B1:
// 002   ----------------------------------------
	BYTE		N06     Ds3   v100
	BYTE		N06     Cn4 
	BYTE	W06
	BYTE		        Gn3 
	BYTE		N06     Ds4 
	BYTE	W06
	BYTE		        As3 
	BYTE		N06     Gn4 
	BYTE	W12
	BYTE		N12     As3 
	BYTE		N12     Fs4 
	BYTE	W12
	BYTE		N06     Gn3 
	BYTE		N06     Ds4 
	BYTE	W06
	BYTE		        Gs3 
	BYTE		N06     Fn4 
	BYTE	W12
	BYTE		        Gs3 
	BYTE		N06     Fn4 
	BYTE	W12
	BYTE		        Ds3 
	BYTE		N06     Cn4 
	BYTE	W06
	BYTE		N12     Gn3 
	BYTE		N12     Ds4 
	BYTE	W12
	BYTE		        Gs3 
	BYTE		N12     Fn4 
	BYTE	W12
// 003   ----------------------------------------
	BYTE		N06     Ds3 
	BYTE		N06     Cn4 
	BYTE	W06
	BYTE		        Gn3 
	BYTE		N06     Ds4 
	BYTE	W06
	BYTE		        As3 
	BYTE		N06     Gn4 
	BYTE	W06
	BYTE		        Gn3 
	BYTE		N06     Ds4 
	BYTE	W06
	BYTE		N12     As3 
	BYTE		N12     Fs4 
	BYTE	W12
	BYTE		N06     Gn3 
	BYTE		N06     Ds4 
	BYTE	W06
	BYTE		        Gs3 
	BYTE		N06     Fn4 
	BYTE	W12
	BYTE		        Gs3 
	BYTE		N06     Fn4 
	BYTE	W12
	BYTE		        Ds3 
	BYTE		N06     Cn4 
	BYTE	W06
	BYTE		N12     Gn3 
	BYTE		N12     Ds4 
	BYTE	W12
	BYTE		        Gs3 
	BYTE		N12     Fn4 
	BYTE	W12
// 004   ----------------------------------------
	BYTE		N06     Ds3 
	BYTE		N06     Cn4 
	BYTE	W06
	BYTE		        Gn3 
	BYTE		N06     Ds4 
	BYTE	W06
	BYTE		        As3 
	BYTE		N06     Gn4 
	BYTE	W12
	BYTE		N12     As3 
	BYTE		N12     Fs4 
	BYTE	W12
	BYTE		N06     Gn3 
	BYTE		N06     Ds4 
	BYTE	W06
	BYTE		        Gs3 
	BYTE		N06     Fn4 
	BYTE	W12
	BYTE		        Gs3 
	BYTE		N06     Fn4 
	BYTE	W12
	BYTE		        Cn3 
	BYTE		N06     Cn4 
	BYTE	W06
	BYTE		N12     Ds3 
	BYTE		N12     Ds4 
	BYTE	W12
//	BYTE		MOD     1
	BYTE		N24     Gn3 
	BYTE		N24     As4 
	BYTE	W03
//	BYTE		MOD     8
	BYTE	W03
	BYTE		        15
	BYTE	W03
	BYTE		        22
	BYTE	W03
// 005   ----------------------------------------
	BYTE		        28
	BYTE		BEND    c_v-2
	BYTE	W03
//	BYTE		MOD     35
	BYTE		BEND    c_v+1
	BYTE	W03
//	BYTE		MOD     42
	BYTE		BEND    c_v-2
	BYTE	W03
//	BYTE		MOD     49
	BYTE		BEND    c_v+2
	BYTE	W03
//	BYTE		MOD     56
	BYTE		BEND    c_v-1
	BYTE		N03     As3 
	BYTE		N03     Cn5 
	BYTE	W03
//	BYTE		MOD     63
	BYTE		BEND    c_v+6
	BYTE		N03     Gn3 
	BYTE		N03     As4 
	BYTE	W03
//	BYTE		MOD     70
	BYTE		BEND    c_v+1
	BYTE		N03     As3 
	BYTE		N03     Cn5 
	BYTE	W03
//	BYTE		MOD     77
	BYTE		BEND    c_v+0
	BYTE		N03     Gn3 
	BYTE		N03     As4 
	BYTE	W03
//	BYTE		MOD     0
	BYTE		N03     As3   v104
	BYTE		N03     Cn5 
	BYTE	W03
	BYTE		        Gn3 
	BYTE		N03     As4 
	BYTE	W03
	BYTE		        As3 
	BYTE		N03     Cn5 
	BYTE	W03
	BYTE		        Gn3 
	BYTE		N03     As4 
	BYTE	W03
	BYTE		        As3 
	BYTE		N03     Cn5 
	BYTE	W03
	BYTE		        Gn3 
	BYTE		N03     As4 
	BYTE	W03
	BYTE		        As3 
	BYTE		N03     Cn5 
	BYTE	W03
	BYTE		        Gn3 
	BYTE		N03     As4 
	BYTE	W03
	BYTE		        As3 
	BYTE		N03     Cn5 
	BYTE	W03
	BYTE		        Gn3 
	BYTE		N03     As4 
	BYTE	W03
	BYTE		        As3   v100
	BYTE		N03     Cn5 
	BYTE	W03
	BYTE		        Gn3 
	BYTE		N03     As4 
	BYTE	W03
	BYTE		        As3 
	BYTE		N03     Cn5 
	BYTE	W03
	BYTE		        Gn3   v096
	BYTE		N03     As4 
	BYTE	W03
	BYTE		        As3   v092
	BYTE		N03     Cn5 
	BYTE	W03
	BYTE		        Gn3 
	BYTE		N03     As4 
	BYTE	W03
	BYTE		        As3 
	BYTE		N03     Cn5 
	BYTE	W03
	BYTE		        Gn3   v084
	BYTE		N03     As4 
	BYTE	W03
	BYTE		        As3   v080
	BYTE		N03     Cn5 
	BYTE	W03
	BYTE		        Gn3   v076
	BYTE		N03     As4 
	BYTE	W03
	BYTE		        As3   v068
	BYTE		N03     Cn5 
	BYTE	W03
	BYTE		        Gn3   v060
	BYTE		N03     As4 
	BYTE	W03
	BYTE		        As3   v052
	BYTE		N03     Cn5 
	BYTE	W03
	BYTE		        Gn3   v032
	BYTE		N03     As4 
	BYTE	W03
// 006   ----------------------------------------
	BYTE		        As3   v020
	BYTE		N03     Cn5 
	BYTE	W03
	BYTE		        Gn3   v004
	BYTE		N03     As4 
	BYTE	W92
	BYTE	W01
// 007   ----------------------------------------
	BYTE	W96
// 008   ----------------------------------------
	BYTE	W96
// 009   ----------------------------------------
	BYTE	W96
// 010   ----------------------------------------
	BYTE	W96
// 011   ----------------------------------------
	BYTE	W96
// 012   ----------------------------------------
	BYTE	W96
// 013   ----------------------------------------
	BYTE		N06     Ds3   v116
	BYTE		N06     Ds4 
	BYTE	W06
	BYTE		        Fn3   v124
	BYTE		N03     Fn4 
	BYTE	W12
	BYTE		N06     Cn3   v112
	BYTE		N06     Cn4 
	BYTE	W06
	BYTE		        Ds3   v120
	BYTE		N03     Ds4 
	BYTE	W12
	BYTE		N06     Gn2   v104
	BYTE		N06     Gn3 
	BYTE	W06
	BYTE		        Cn3   v112
	BYTE		N03     Cn4 
	BYTE	W12
	BYTE		N06     Cn3   v092
	BYTE	W06
	BYTE		        Ds3   v096
	BYTE	W06
	BYTE		        Gn3   v100
	BYTE	W06
	BYTE		        Cn4   v108
	BYTE	W06
	BYTE		        Gn3   v096
	BYTE	W06
	BYTE		        Ds3   v092
	BYTE	W06
	BYTE		        Cn3   v084
	BYTE	W06
// 014   ----------------------------------------
	BYTE	W96
// 015   ----------------------------------------
	BYTE	W96
// 016   ----------------------------------------
	BYTE	W96
// 017   ----------------------------------------
	BYTE	W96
// 018   ----------------------------------------
	BYTE	W96
// 019   ----------------------------------------
	BYTE	W96
// 020   ----------------------------------------
	BYTE	W96
// 021   ----------------------------------------
	BYTE		        Gn4   v100
	BYTE	W06
	BYTE		        Gs4 
	BYTE	W06
	BYTE		        As4 
	BYTE	W06
	BYTE		        Ds4 
	BYTE	W06
	BYTE		        Fn4 
	BYTE	W06
	BYTE		        Gn4 
	BYTE	W06
	BYTE		        Cn4 
	BYTE	W06
	BYTE		        Cs4 
	BYTE	W06
	BYTE		        Ds4 
	BYTE	W06
	BYTE		        Gn3 
	BYTE	W06
	BYTE		        Gs3 
	BYTE	W06
	BYTE		        Bn3 
	BYTE	W06
	BYTE		        Gn3 
	BYTE	W06
	BYTE		        Dn3 
	BYTE	W06
	BYTE		        Bn2 
	BYTE	W06
	BYTE		        Gn2 
	BYTE	W06
// 022   ----------------------------------------
	BYTE	W96
// 023   ----------------------------------------
	BYTE	W96
// 024   ----------------------------------------
	BYTE	W96
// 025   ----------------------------------------
	BYTE	W96
// 026   ----------------------------------------
	BYTE	W96
// 027   ----------------------------------------
	BYTE	W96
// 028   ----------------------------------------
	BYTE	W96
// 029   ----------------------------------------
	BYTE		        Gn2   v104
	BYTE		N06     Gn3 
	BYTE	W06
	BYTE		        As2   v108
	BYTE		N06     As3 
	BYTE	W12
	BYTE		        Cn3 
	BYTE		N06     Cn4 
	BYTE	W12
	BYTE		        Dn3   v112
	BYTE		N06     Dn4 
	BYTE	W12
	BYTE		        Ds3   v116
	BYTE		N06     Ds4 
	BYTE	W12
	BYTE		        Fn3   v120
	BYTE		N06     Fn4 
	BYTE	W12
	BYTE		        Gn3   v124
	BYTE		N06     Gn4 
	BYTE	W12
	BYTE		        Gs3 
	BYTE		N06     Gs4 
	BYTE	W18
// 030   ----------------------------------------
	BYTE	W96
// 031   ----------------------------------------
	BYTE	W96
// 032   ----------------------------------------
	BYTE	W96
// 033   ----------------------------------------
	BYTE	W96
// 034   ----------------------------------------
	BYTE	W96
// 035   ----------------------------------------
	BYTE	W96
// 036   ----------------------------------------
	BYTE	W96
// 037   ----------------------------------------
	BYTE	W96
// 038   ----------------------------------------
	BYTE		        Dn4   v100
	BYTE	W06
	BYTE		        Ds4 
	BYTE	W06
	BYTE		        Fn4 
	BYTE	W06
	BYTE		        Gn4 
	BYTE	W06
	BYTE		        Gs4 
	BYTE	W06
	BYTE		        As4 
	BYTE	W06
	BYTE		        Cn5 
	BYTE	W06
	BYTE		        Dn5 
	BYTE	W06
	BYTE		        Ds5 
	BYTE	W12
	BYTE		N36     Fn5 
	BYTE	W36
// 039   ----------------------------------------
	BYTE	W96
// 040   ----------------------------------------
	BYTE	W96
// 041   ----------------------------------------
	BYTE	W96
// 042   ----------------------------------------
	BYTE	W96
// 043   ----------------------------------------
	BYTE		N48     Cn4   v080
	BYTE	W48
	BYTE		        As3   v076
	BYTE	W48
// 044   ----------------------------------------
	BYTE		N96     Gs3   v072
	BYTE	W96
// 045   ----------------------------------------
	BYTE	W24
	BYTE		N06     Cn3 
	BYTE	W06
	BYTE		        Dn3 
	BYTE	W12
	BYTE		        Fn3   v076
	BYTE	W12
	BYTE		        Gs3   v080
	BYTE	W12
	BYTE		        Cn4   v084
	BYTE	W12
	BYTE		        Dn4   v088
	BYTE	W12
	BYTE		        Fn4   v092
	BYTE	W06
// 046   ----------------------------------------
	BYTE		N12     Gn4   v100
	BYTE	W96
// 047   ----------------------------------------
	BYTE		N96     Gs3   v060
	BYTE	W03
	BYTE	W03
	BYTE	W03
	BYTE	W03
	BYTE	W03
	BYTE	W03
	BYTE	W03
	BYTE	W03
	BYTE	W03
	BYTE	W03
	BYTE	W03
	BYTE	W03
	BYTE	W03
	BYTE	W03
	BYTE	W03
	BYTE	W03
	BYTE	W03
	BYTE	W03
	BYTE	W06
	BYTE	W06
	BYTE	W06
	BYTE	W03
	BYTE	W06
	BYTE	W09
	BYTE	W03
	BYTE	W03
// 048   ----------------------------------------
	BYTE		        As3   v072
	BYTE	W09
	BYTE	W36
	BYTE	W03
	BYTE	W48
// 049   ----------------------------------------
	BYTE		TIE     Cn4   v100
	BYTE	W03
	BYTE	W03
	BYTE	W03
	BYTE	W03
	BYTE	W03
	BYTE	W03
	BYTE	W09
	BYTE	W03
	BYTE	W03
	BYTE	W03
	BYTE	W03
	BYTE	W03
	BYTE	W03
	BYTE	W03
	BYTE	W06
	BYTE	W03
	BYTE	W03
	BYTE	W03
	BYTE	W03
	BYTE	W06
	BYTE	W03
	BYTE	W03
	BYTE	W06
	BYTE	W06
	BYTE	W06
// 050   ----------------------------------------
	BYTE	W03
	BYTE	W12
	BYTE	W12
	BYTE	W09
	BYTE	W06
	BYTE	W54
	BYTE		EOT   
// 051   ----------------------------------------
	BYTE	W24
	// BYTE		VOICE   0
	BYTE	W72
	BYTE	GoTo
	 POIN2	BLOODY_STREAM0_6_B1
BLOODY_STREAM0_6_B2:
// 052   ----------------------------------------
	BYTE	FINE

//**************** Track 7 (Midi-Chn.8) ****************//

BLOODY_STREAM0_7:
	BYTE	KEYSH   BLOODY_STREAM0_key+0
// 000   ----------------------------------------
	BYTE	W09
	BYTE	W03
	BYTE		VOL     127*BLOODY_STREAM0_mvl/mxv
	BYTE 		BENDR   6
	BYTE	W03
	BYTE		PAN     c_v+0
	BYTE	W03
	BYTE	W03
	BYTE	W03
// 001   ----------------------------------------
	BYTE		VOICE   29
	// BYTE	W96
BLOODY_STREAM0_7_B1:
// 002   ----------------------------------------
	BYTE	W96
// 003   ----------------------------------------
	BYTE	W96
// 004   ----------------------------------------
	BYTE	W96
// 005   ----------------------------------------
	BYTE	W96
// 006   ----------------------------------------
	BYTE	W96
// 007   ----------------------------------------
	BYTE	W96
// 008   ----------------------------------------
	BYTE	W96
// 009   ----------------------------------------
	BYTE	W96
// 010   ----------------------------------------
	BYTE	W96
// 011   ----------------------------------------
	BYTE	W96
// 012   ----------------------------------------
	BYTE	W96
// 013   ----------------------------------------
	BYTE	W96
// 014   ----------------------------------------
	BYTE	W96
// 015   ----------------------------------------
	BYTE	W96
// 016   ----------------------------------------
	BYTE	W96
// 017   ----------------------------------------
	BYTE	W96
// 018   ----------------------------------------
	BYTE	W96
// 019   ----------------------------------------
	BYTE	W96
// 020   ----------------------------------------
	BYTE	W96
// 021   ----------------------------------------
	BYTE	W96
// 022   ----------------------------------------
	BYTE		N96     Cn2   v100
	BYTE		N96     Fn2 
	BYTE	W96
// 023   ----------------------------------------
	BYTE		        Cs2 
	BYTE		N96     Gs2 
	BYTE	W96
// 024   ----------------------------------------
	BYTE		        Cn2 
	BYTE		N96     Gn2 
	BYTE	W96
// 025   ----------------------------------------
	BYTE		        As1 
	BYTE		N96     Fn2 
	BYTE	W96
// 026   ----------------------------------------
	BYTE		        An1 
	BYTE		N96     Fn2 
	BYTE	W96
// 027   ----------------------------------------
	BYTE		        Gs1 
	BYTE		N96     Ds2 
	BYTE	W96
// 028   ----------------------------------------
	BYTE		N24     Cn2   v096
	BYTE		N24     Gn2 
	BYTE	W24
	BYTE		        Dn2 
	BYTE		N24     As2 
	BYTE	W24
	BYTE		        Ds2 
	BYTE		N24     Cn3 
	BYTE	W24
	BYTE		        Fn2 
	BYTE		N24     Dn3 
	BYTE	W24
// 029   ----------------------------------------
	BYTE		N06     Gn2 
	BYTE	W06
	BYTE		N09     Fn3   v092
	BYTE	W12
	BYTE		        Ds3   v096
	BYTE	W12
	BYTE		        Dn3 
	BYTE	W12
	BYTE		        Cn3   v100
	BYTE	W12
	BYTE		        As2   v104
	BYTE	W12
	BYTE		        Gs2 
	BYTE	W12
	BYTE		        Gn2 
	BYTE	W18
// 030   ----------------------------------------
	BYTE	W15
	// BYTE		VOICE   0
	BYTE	W80
	BYTE	W01
// 031   ----------------------------------------
	BYTE	W96
// 032   ----------------------------------------
	BYTE	W96
// 033   ----------------------------------------
	BYTE	W96
// 034   ----------------------------------------
	BYTE	W96
// 035   ----------------------------------------
	BYTE	W96
// 036   ----------------------------------------
	BYTE	W96
// 037   ----------------------------------------
	BYTE	W96
// 038   ----------------------------------------
	BYTE	W96
// 039   ----------------------------------------
	BYTE	W96
// 040   ----------------------------------------
	BYTE	W96
// 041   ----------------------------------------
	BYTE	W96
// 042   ----------------------------------------
	BYTE	W96
// 043   ----------------------------------------
	BYTE	W96
// 044   ----------------------------------------
	BYTE	W96
// 045   ----------------------------------------
	BYTE	W96
// 046   ----------------------------------------
	BYTE	W96
// 047   ----------------------------------------
	BYTE	W96
// 048   ----------------------------------------
	BYTE	W96
// 049   ----------------------------------------
	BYTE	W96
// 050   ----------------------------------------
	BYTE	W96
// 051   ----------------------------------------
	BYTE	W96
	BYTE	GoTo
	 POIN2	BLOODY_STREAM0_7_B1
BLOODY_STREAM0_7_B2:
// 052   ----------------------------------------
	BYTE	FINE

//**************** Track 8 (Midi-Chn.9) ****************//

BLOODY_STREAM0_8:
	BYTE	KEYSH   BLOODY_STREAM0_key+0
// 000   ----------------------------------------
	BYTE	W09
	BYTE	W03
	BYTE		VOL     127*BLOODY_STREAM0_mvl/mxv
	BYTE 		BENDR   6
	BYTE	W03
	BYTE		PAN     c_v+0
	BYTE	W03
	BYTE	W03
	BYTE	W03
// 001   ----------------------------------------
	BYTE		VOICE   34
	// BYTE	W96
BLOODY_STREAM0_8_B1:
// 002   ----------------------------------------
	BYTE		N24     Cn1   v100
	BYTE	W24
	BYTE		        Bn0 
	BYTE	W24
	BYTE		N18     As0 
	BYTE	W18
	BYTE		N06     An0 
	BYTE	W18
	BYTE		N12     Gs0 
	BYTE	W12
// 003   ----------------------------------------
	BYTE	W12
	BYTE		N09     Cn1 
	BYTE	W12
	BYTE		N24     Bn0 
	BYTE	W24
	BYTE		N06     As0 
	BYTE	W06
	BYTE		        An0 
	BYTE	W12
	BYTE		        Gs0 
	BYTE	W12
	BYTE		N06   
	BYTE	W06
	BYTE		N12     Gn0 
	BYTE	W12
// 004   ----------------------------------------
	BYTE		N24     Cn1 
	BYTE	W24
	BYTE		        Bn0 
	BYTE	W24
	BYTE		N18     As0 
	BYTE	W18
	BYTE		N06     An0 
	BYTE	W18
	BYTE		N48     Gn0 
	BYTE	W12
// 005   ----------------------------------------
	BYTE	W48
	BYTE		N12   
	BYTE	W12
	BYTE		N36     Gn1 
	BYTE	W36
// 006   ----------------------------------------
BLOODY_STREAM0_8_006:
	BYTE		N24     Cn1   v100
	BYTE	W24
	BYTE		N12   
	BYTE	W18
	BYTE		N06     Gn0 
	BYTE	W12
	BYTE		        As0 
	BYTE	W06
	BYTE		        Gn0 
	BYTE	W12
	BYTE		N12     Cn1 
	BYTE	W12
	BYTE		        Gn0 
	BYTE	W12
	BYTE	PEND
// 007   ----------------------------------------
BLOODY_STREAM0_8_007:
	BYTE		N24     Ds1   v100
	BYTE	W24
	BYTE		N12   
	BYTE	W18
	BYTE		N06     As0 
	BYTE	W12
	BYTE		        Cs1 
	BYTE	W06
	BYTE		        As0 
	BYTE	W12
	BYTE		N12     Ds1 
	BYTE	W12
	BYTE		        As0 
	BYTE	W12
	BYTE	PEND
// 008   ----------------------------------------
BLOODY_STREAM0_8_008:
	BYTE		N24     Dn1   v100
	BYTE	W24
	BYTE		N12   
	BYTE	W18
	BYTE		N06     An0 
	BYTE	W12
	BYTE		        Cn1 
	BYTE	W06
	BYTE		        An0 
	BYTE	W12
	BYTE		N12     Dn1 
	BYTE	W12
	BYTE		        An0 
	BYTE	W12
	BYTE	PEND
// 009   ----------------------------------------
BLOODY_STREAM0_8_009:
	BYTE		N24     Cs1   v100
	BYTE	W24
	BYTE		N12   
	BYTE	W18
	BYTE		N06     Gs0 
	BYTE	W12
	BYTE		        Bn0 
	BYTE	W06
	BYTE		        Gs0 
	BYTE	W12
	BYTE		N12     Cs1 
	BYTE	W12
	BYTE		        Gs0 
	BYTE	W12
	BYTE	PEND
// 010   ----------------------------------------
	BYTE	PATT
	 POIN2	BLOODY_STREAM0_8_006
// 011   ----------------------------------------
	BYTE	PATT
	 POIN2	BLOODY_STREAM0_8_007
// 012   ----------------------------------------
	BYTE	PATT
	 POIN2	BLOODY_STREAM0_8_008
// 013   ----------------------------------------
	BYTE		N36     Cs1   v100
	BYTE	W42
	BYTE		N06   
	BYTE	W18
	BYTE		N12     An0 
	BYTE	W12
	BYTE		N12   
	BYTE	W12
	BYTE		N06     As0 
	BYTE	W12
// 014   ----------------------------------------
	BYTE	PATT
	 POIN2	BLOODY_STREAM0_8_006
// 015   ----------------------------------------
	BYTE	PATT
	 POIN2	BLOODY_STREAM0_8_007
// 016   ----------------------------------------
	BYTE	PATT
	 POIN2	BLOODY_STREAM0_8_008
// 017   ----------------------------------------
	BYTE	PATT
	 POIN2	BLOODY_STREAM0_8_009
// 018   ----------------------------------------
	BYTE	PATT
	 POIN2	BLOODY_STREAM0_8_006
// 019   ----------------------------------------
	BYTE	PATT
	 POIN2	BLOODY_STREAM0_8_007
// 020   ----------------------------------------
	BYTE		N36     Gs0   v100
	BYTE	W42
	BYTE		N06     Cn1 
	BYTE	W12
	BYTE		N06   
	BYTE	W12
	BYTE		        Dn1 
	BYTE	W06
	BYTE		N12   
	BYTE	W12
	BYTE		        Ds1 
	BYTE	W12
// 021   ----------------------------------------
	BYTE		N36     Gn0 
	BYTE	W42
	BYTE		N06     Bn0 
	BYTE	W12
	BYTE		N06   
	BYTE	W12
	BYTE		        Cn1 
	BYTE	W06
	BYTE		N24     Dn1 
	BYTE	W24
// 022   ----------------------------------------
	BYTE		N48     Fn1 
	BYTE	W48
	BYTE		N06     Cn1 
	BYTE	W06
	BYTE		        Fn1 
	BYTE	W12
	BYTE		        Cn1 
	BYTE	W06
	BYTE		N12     Fn1 
	BYTE	W12
	BYTE		        Cn1 
	BYTE	W12
// 023   ----------------------------------------
	BYTE		N48     Cs1 
	BYTE	W48
	BYTE		N06     Gs0 
	BYTE	W06
	BYTE		        Cs1 
	BYTE	W12
	BYTE		        Gs0 
	BYTE	W06
	BYTE		N12   
	BYTE	W12
	BYTE		        Cs1 
	BYTE	W12
// 024   ----------------------------------------
	BYTE		N48     Cn1 
	BYTE	W48
	BYTE		N06     Gn0 
	BYTE	W06
	BYTE		        Cn1 
	BYTE	W12
	BYTE		N06   
	BYTE	W06
	BYTE		N12     Gn0 
	BYTE	W12
	BYTE		        Cn1 
	BYTE	W12
// 025   ----------------------------------------
	BYTE		N48     As0 
	BYTE	W48
	BYTE		N06     Fn0 
	BYTE	W06
	BYTE		        As0 
	BYTE	W12
	BYTE		N06   
	BYTE	W06
	BYTE		N12     Fn0 
	BYTE	W12
	BYTE		        As0 
	BYTE	W12
// 026   ----------------------------------------
	BYTE		N36     An0 
	BYTE	W42
	BYTE		N06   
	BYTE	W12
	BYTE		N06   
	BYTE	W12
	BYTE		N06   
	BYTE	W06
	BYTE		N12     Fn0 
	BYTE	W12
	BYTE		        An0 
	BYTE	W12
// 027   ----------------------------------------
	BYTE		N36     Gs0 
	BYTE	W42
	BYTE		N06   
	BYTE	W12
	BYTE		N06   
	BYTE	W12
	BYTE		N06   
	BYTE	W06
	BYTE		N12     Ds0 
	BYTE	W12
	BYTE		        Gs0 
	BYTE	W12
// 028   ----------------------------------------
	BYTE		N96     Gn0 
	BYTE	W96
// 029   ----------------------------------------
	BYTE		N06   
	BYTE	W06
	BYTE		        Fn1 
	BYTE	W12
	BYTE		        Ds1 
	BYTE	W12
	BYTE		        Dn1 
	BYTE	W12
	BYTE		        Cn1 
	BYTE	W12
	BYTE		        As0 
	BYTE	W12
	BYTE		        Gs0 
	BYTE	W12
	BYTE		        Gn0 
	BYTE	W18
// 030   ----------------------------------------
	BYTE	W96
// 031   ----------------------------------------
BLOODY_STREAM0_8_031:
	BYTE		N12     Cn1   v100
	BYTE	W12
	BYTE		N24   
	BYTE	W30
	BYTE		N06     Fn0 
	BYTE	W12
	BYTE		N06   
	BYTE	W06
	BYTE		        Gn0 
	BYTE	W12
	BYTE		N12     Gs0 
	BYTE	W12
	BYTE		        As0 
	BYTE	W12
	BYTE	PEND
// 032   ----------------------------------------
BLOODY_STREAM0_8_032:
	BYTE		N12     Ds1   v100
	BYTE	W12
	BYTE		N24   
	BYTE	W30
	BYTE		N06     Gs0 
	BYTE	W12
	BYTE		N06   
	BYTE	W06
	BYTE		        An0 
	BYTE	W12
	BYTE		N12     As0 
	BYTE	W12
	BYTE		        Ds1 
	BYTE	W12
	BYTE	PEND
// 033   ----------------------------------------
BLOODY_STREAM0_8_033:
	BYTE		N12     Gs0   v100
	BYTE	W12
	BYTE		N24   
	BYTE	W30
	BYTE		N06     Cn1 
	BYTE	W12
	BYTE		N06   
	BYTE	W06
	BYTE		        Dn1 
	BYTE	W12
	BYTE		N12     Ds1 
	BYTE	W12
	BYTE		        Gs0 
	BYTE	W12
	BYTE	PEND
// 034   ----------------------------------------
BLOODY_STREAM0_8_034:
	BYTE		N06     Gn0   v100
	BYTE	W12
	BYTE		N06   
	BYTE	W12
	BYTE		N06   
	BYTE	W06
	BYTE		N12     Bn0 
	BYTE	W12
	BYTE		N06   
	BYTE	W12
	BYTE		N06   
	BYTE	W06
	BYTE		        Cn1 
	BYTE	W12
	BYTE		N12     Dn1 
	BYTE	W12
	BYTE		        Gn0 
	BYTE	W12
	BYTE	PEND
// 035   ----------------------------------------
	BYTE	PATT
	 POIN2	BLOODY_STREAM0_8_031
// 036   ----------------------------------------
	BYTE	PATT
	 POIN2	BLOODY_STREAM0_8_032
// 037   ----------------------------------------
	BYTE	PATT
	 POIN2	BLOODY_STREAM0_8_033
// 038   ----------------------------------------
	BYTE		N06     Gn1   v100
	BYTE	W06
	BYTE		        Gs1 
	BYTE	W06
	BYTE		        As1 
	BYTE	W06
	BYTE		        Ds1 
	BYTE	W06
	BYTE		        Fn1 
	BYTE	W06
	BYTE		        Gn1 
	BYTE	W06
	BYTE		        Cn1 
	BYTE	W06
	BYTE		        Cs1 
	BYTE	W06
	BYTE		        Ds1 
	BYTE	W12
	BYTE		N30     Fn1 
	BYTE	W36
// 039   ----------------------------------------
	BYTE	PATT
	 POIN2	BLOODY_STREAM0_8_031
// 040   ----------------------------------------
	BYTE	PATT
	 POIN2	BLOODY_STREAM0_8_032
// 041   ----------------------------------------
	BYTE	PATT
	 POIN2	BLOODY_STREAM0_8_033
// 042   ----------------------------------------
	BYTE	PATT
	 POIN2	BLOODY_STREAM0_8_034
// 043   ----------------------------------------
	BYTE		N12     Fn0   v100
	BYTE	W12
	BYTE		N24   
	BYTE	W30
	BYTE		N06     Ds1 
	BYTE	W12
	BYTE		N06   
	BYTE	W12
	BYTE		N06   
	BYTE	W06
	BYTE		N12     Gn0 
	BYTE	W12
	BYTE		        As0 
	BYTE	W12
// 044   ----------------------------------------
	BYTE		N24     Cs1 
	BYTE	W24
	BYTE		N06   
	BYTE	W06
	BYTE		N12   
	BYTE	W12
	BYTE		N06     Gs0 
	BYTE	W06
	BYTE		N12     Cs1 
	BYTE	W12
	BYTE		N03     Gs0 
	BYTE	W06
	BYTE		N03   
	BYTE	W06
	BYTE		N12   
	BYTE	W12
	BYTE		        Cs1 
	BYTE	W12
// 045   ----------------------------------------
	BYTE		        Cn1 
	BYTE	W12
	BYTE		N12   
	BYTE	W12
	BYTE		N06   
	BYTE	W06
	BYTE		N06   
	BYTE	W12
	BYTE		        Fn0 
	BYTE	W12
	BYTE		        Gs0 
	BYTE	W12
	BYTE		        Cn1 
	BYTE	W12
	BYTE		        Dn1 
	BYTE	W12
	BYTE		        Fn1 
	BYTE	W06
// 046   ----------------------------------------
	BYTE		N12     Gn1 
	BYTE	W24
	BYTE		N72     Gn0 
	BYTE	W72
// 047   ----------------------------------------
	BYTE		N12     Gs0 
	BYTE	W12
	BYTE		N12   
	BYTE	W12
	BYTE		N06     Ds1 
	BYTE	W06
	BYTE		N12     Gs0 
	BYTE	W12
	BYTE		N18     Cn1 
	BYTE	W18
	BYTE		N12     Dn1 
	BYTE	W12
	BYTE		        Ds1 
	BYTE	W12
	BYTE		        Gs0 
	BYTE	W12
// 048   ----------------------------------------
	BYTE		        As0 
	BYTE	W12
	BYTE		N12   
	BYTE	W12
	BYTE		N06     Fn1 
	BYTE	W06
	BYTE		N12     As0 
	BYTE	W12
	BYTE		N18     Dn1 
	BYTE	W18
	BYTE		N12     Ds1 
	BYTE	W12
	BYTE		        Fn1 
	BYTE	W12
	BYTE		        As0 
	BYTE	W12
// 049   ----------------------------------------
	BYTE		TIE     Cn1 
	BYTE	W96
// 050   ----------------------------------------
	BYTE	W84
	BYTE		EOT   
	BYTE		N06     Gn0 
	BYTE	W06
	BYTE		        Fn0 
	BYTE	W06
// 051   ----------------------------------------
	BYTE		N24     Cn0 
	BYTE	W48
	// BYTE		VOICE   0
	BYTE	W48
	BYTE	GoTo
	 POIN2	BLOODY_STREAM0_8_B1
BLOODY_STREAM0_8_B2:
// 052   ----------------------------------------
	BYTE	FINE

//**************** Track 9 (Midi-Chn.11) ****************//

BLOODY_STREAM0_9:
	BYTE	KEYSH   BLOODY_STREAM0_key+0
// 000   ----------------------------------------
	BYTE	W09
	BYTE	W03
	BYTE		VOL     127*BLOODY_STREAM0_mvl/mxv
	BYTE 		BENDR   6
	BYTE	W03
	BYTE		PAN     c_v+0
	BYTE	W03
	BYTE	W03
	BYTE	W03
// 001   ----------------------------------------
	BYTE		VOICE   33
	// BYTE	W96
BLOODY_STREAM0_9_B1:
// 002   ----------------------------------------
	BYTE		N24     Cn1   v100
	BYTE	W24
	BYTE		        Bn0 
	BYTE	W24
	BYTE		N18     As0 
	BYTE	W18
	BYTE		N06     An0 
	BYTE	W18
	BYTE		N12     Gs0 
	BYTE	W12
// 003   ----------------------------------------
	BYTE	W12
	BYTE		N09     Cn1 
	BYTE	W12
	BYTE		N24     Bn0 
	BYTE	W24
	BYTE		N06     As0 
	BYTE	W06
	BYTE		        An0 
	BYTE	W12
	BYTE		        Gs0 
	BYTE	W12
	BYTE		N06   
	BYTE	W06
	BYTE		N12     Gn0 
	BYTE	W12
// 004   ----------------------------------------
	BYTE		N24     Cn1 
	BYTE	W24
	BYTE		        Bn0 
	BYTE	W24
	BYTE		N18     As0 
	BYTE	W18
	BYTE		N06     An0 
	BYTE	W18
	BYTE		N48     Gn0 
	BYTE	W12
// 005   ----------------------------------------
	BYTE	W48
	BYTE		N12   
	BYTE	W12
	BYTE		N36     Gn1 
	BYTE	W36
// 006   ----------------------------------------
BLOODY_STREAM0_9_006:
	BYTE		N24     Cn1   v100
	BYTE	W24
	BYTE		N12   
	BYTE	W18
	BYTE		N06     Gn0 
	BYTE	W12
	BYTE		        As0 
	BYTE	W06
	BYTE		        Gn0 
	BYTE	W12
	BYTE		N12     Cn1 
	BYTE	W12
	BYTE		        Gn0 
	BYTE	W12
	BYTE	PEND
// 007   ----------------------------------------
BLOODY_STREAM0_9_007:
	BYTE		N24     Ds1   v100
	BYTE	W24
	BYTE		N12   
	BYTE	W18
	BYTE		N06     As0 
	BYTE	W12
	BYTE		        Cs1 
	BYTE	W06
	BYTE		        As0 
	BYTE	W12
	BYTE		N12     Ds1 
	BYTE	W12
	BYTE		        As0 
	BYTE	W12
	BYTE	PEND
// 008   ----------------------------------------
BLOODY_STREAM0_9_008:
	BYTE		N24     Dn1   v100
	BYTE	W24
	BYTE		N12   
	BYTE	W18
	BYTE		N06     An0 
	BYTE	W12
	BYTE		        Cn1 
	BYTE	W06
	BYTE		        An0 
	BYTE	W12
	BYTE		N12     Dn1 
	BYTE	W12
	BYTE		        An0 
	BYTE	W12
	BYTE	PEND
// 009   ----------------------------------------
BLOODY_STREAM0_9_009:
	BYTE		N24     Cs1   v100
	BYTE	W24
	BYTE		N12   
	BYTE	W18
	BYTE		N06     Gs0 
	BYTE	W12
	BYTE		        Bn0 
	BYTE	W06
	BYTE		        Gs0 
	BYTE	W12
	BYTE		N12     Cs1 
	BYTE	W12
	BYTE		        Gs0 
	BYTE	W12
	BYTE	PEND
// 010   ----------------------------------------
	BYTE	PATT
	 POIN2	BLOODY_STREAM0_9_006
// 011   ----------------------------------------
	BYTE	PATT
	 POIN2	BLOODY_STREAM0_9_007
// 012   ----------------------------------------
	BYTE	PATT
	 POIN2	BLOODY_STREAM0_9_008
// 013   ----------------------------------------
	BYTE		N36     Cs1   v100
	BYTE	W42
	BYTE		N06   
	BYTE	W18
	BYTE		N12     An0 
	BYTE	W12
	BYTE		N12   
	BYTE	W12
	BYTE		N06     As0 
	BYTE	W12
// 014   ----------------------------------------
	BYTE	PATT
	 POIN2	BLOODY_STREAM0_9_006
// 015   ----------------------------------------
	BYTE	PATT
	 POIN2	BLOODY_STREAM0_9_007
// 016   ----------------------------------------
	BYTE	PATT
	 POIN2	BLOODY_STREAM0_9_008
// 017   ----------------------------------------
	BYTE	PATT
	 POIN2	BLOODY_STREAM0_9_009
// 018   ----------------------------------------
	BYTE	PATT
	 POIN2	BLOODY_STREAM0_9_006
// 019   ----------------------------------------
	BYTE	PATT
	 POIN2	BLOODY_STREAM0_9_007
// 020   ----------------------------------------
	BYTE		N36     Gs0   v100
	BYTE	W42
	BYTE		N06     Cn1 
	BYTE	W12
	BYTE		N06   
	BYTE	W12
	BYTE		        Dn1 
	BYTE	W06
	BYTE		N12   
	BYTE	W12
	BYTE		        Ds1 
	BYTE	W12
// 021   ----------------------------------------
	BYTE		N36     Gn0 
	BYTE	W42
	BYTE		N06     Bn0 
	BYTE	W12
	BYTE		N06   
	BYTE	W12
	BYTE		        Cn1 
	BYTE	W06
	BYTE		N24     Dn1 
	BYTE	W24
// 022   ----------------------------------------
	BYTE		N48     Fn1 
	BYTE	W48
	BYTE		N06     Cn1 
	BYTE	W06
	BYTE		        Fn1 
	BYTE	W12
	BYTE		        Cn1 
	BYTE	W06
	BYTE		N12     Fn1 
	BYTE	W12
	BYTE		        Cn1 
	BYTE	W12
// 023   ----------------------------------------
	BYTE		N48     Cs1 
	BYTE	W48
	BYTE		N06     Gs0 
	BYTE	W06
	BYTE		        Cs1 
	BYTE	W12
	BYTE		        Gs0 
	BYTE	W06
	BYTE		N12   
	BYTE	W12
	BYTE		        Cs1 
	BYTE	W12
// 024   ----------------------------------------
	BYTE		N48     Cn1 
	BYTE	W48
	BYTE		N06     Gn0 
	BYTE	W06
	BYTE		        Cn1 
	BYTE	W12
	BYTE		N06   
	BYTE	W06
	BYTE		N12     Gn0 
	BYTE	W12
	BYTE		        Cn1 
	BYTE	W12
// 025   ----------------------------------------
	BYTE		N48     As0 
	BYTE	W48
	BYTE		N06     Fn0 
	BYTE	W06
	BYTE		        As0 
	BYTE	W12
	BYTE		N06   
	BYTE	W06
	BYTE		N12     Fn0 
	BYTE	W12
	BYTE		        As0 
	BYTE	W12
// 026   ----------------------------------------
	BYTE		N36     An0 
	BYTE	W42
	BYTE		N06   
	BYTE	W12
	BYTE		N06   
	BYTE	W12
	BYTE		N06   
	BYTE	W06
	BYTE		N12     Fn0 
	BYTE	W12
	BYTE		        An0 
	BYTE	W12
// 027   ----------------------------------------
	BYTE		N36     Gs0 
	BYTE	W42
	BYTE		N06   
	BYTE	W12
	BYTE		N06   
	BYTE	W12
	BYTE		N06   
	BYTE	W06
	BYTE		N12     Ds0 
	BYTE	W12
	BYTE		        Gs0 
	BYTE	W12
// 028   ----------------------------------------
	BYTE		N96     Gn0 
	BYTE	W96
// 029   ----------------------------------------
	BYTE		N06   
	BYTE	W06
	BYTE		        Fn1 
	BYTE	W12
	BYTE		        Ds1 
	BYTE	W12
	BYTE		        Dn1 
	BYTE	W12
	BYTE		        Cn1 
	BYTE	W12
	BYTE		        As0 
	BYTE	W12
	BYTE		        Gs0 
	BYTE	W12
	BYTE		        Gn0 
	BYTE	W18
// 030   ----------------------------------------
	BYTE	W96
// 031   ----------------------------------------
BLOODY_STREAM0_9_031:
	BYTE		N12     Cn1   v100
	BYTE	W12
	BYTE		N24   
	BYTE	W30
	BYTE		N06     Fn0 
	BYTE	W12
	BYTE		N06   
	BYTE	W06
	BYTE		        Gn0 
	BYTE	W12
	BYTE		N12     Gs0 
	BYTE	W12
	BYTE		        As0 
	BYTE	W12
	BYTE	PEND
// 032   ----------------------------------------
BLOODY_STREAM0_9_032:
	BYTE		N12     Ds1   v100
	BYTE	W12
	BYTE		N24   
	BYTE	W30
	BYTE		N06     Gs0 
	BYTE	W12
	BYTE		N06   
	BYTE	W06
	BYTE		        An0 
	BYTE	W12
	BYTE		N12     As0 
	BYTE	W12
	BYTE		        Ds1 
	BYTE	W12
	BYTE	PEND
// 033   ----------------------------------------
BLOODY_STREAM0_9_033:
	BYTE		N12     Gs0   v100
	BYTE	W12
	BYTE		N24   
	BYTE	W30
	BYTE		N06     Cn1 
	BYTE	W12
	BYTE		N06   
	BYTE	W06
	BYTE		        Dn1 
	BYTE	W12
	BYTE		N12     Ds1 
	BYTE	W12
	BYTE		        Gs0 
	BYTE	W12
	BYTE	PEND
// 034   ----------------------------------------
BLOODY_STREAM0_9_034:
	BYTE		N06     Gn0   v100
	BYTE	W12
	BYTE		N06   
	BYTE	W12
	BYTE		N06   
	BYTE	W06
	BYTE		N12     Bn0 
	BYTE	W12
	BYTE		N06   
	BYTE	W12
	BYTE		N06   
	BYTE	W06
	BYTE		        Cn1 
	BYTE	W12
	BYTE		N12     Dn1 
	BYTE	W12
	BYTE		        Gn0 
	BYTE	W12
	BYTE	PEND
// 035   ----------------------------------------
	BYTE	PATT
	 POIN2	BLOODY_STREAM0_9_031
// 036   ----------------------------------------
	BYTE	PATT
	 POIN2	BLOODY_STREAM0_9_032
// 037   ----------------------------------------
	BYTE	PATT
	 POIN2	BLOODY_STREAM0_9_033
// 038   ----------------------------------------
	BYTE		N06     Gn1   v100
	BYTE	W06
	BYTE		        Gs1 
	BYTE	W06
	BYTE		        As1 
	BYTE	W06
	BYTE		        Ds1 
	BYTE	W06
	BYTE		        Fn1 
	BYTE	W06
	BYTE		        Gn1 
	BYTE	W06
	BYTE		        Cn1 
	BYTE	W06
	BYTE		        Cs1 
	BYTE	W06
	BYTE		        Ds1 
	BYTE	W12
	BYTE		N30     Fn1 
	BYTE	W36
// 039   ----------------------------------------
	BYTE	PATT
	 POIN2	BLOODY_STREAM0_9_031
// 040   ----------------------------------------
	BYTE	PATT
	 POIN2	BLOODY_STREAM0_9_032
// 041   ----------------------------------------
	BYTE	PATT
	 POIN2	BLOODY_STREAM0_9_033
// 042   ----------------------------------------
	BYTE	PATT
	 POIN2	BLOODY_STREAM0_9_034
// 043   ----------------------------------------
	BYTE		N12     Fn0   v100
	BYTE	W12
	BYTE		N24   
	BYTE	W30
	BYTE		N06     Ds1 
	BYTE	W12
	BYTE		N06   
	BYTE	W12
	BYTE		N06   
	BYTE	W06
	BYTE		N12     Gn0 
	BYTE	W12
	BYTE		        As0 
	BYTE	W12
// 044   ----------------------------------------
	BYTE		N24     Cs1 
	BYTE	W24
	BYTE		N06   
	BYTE	W06
	BYTE		N12   
	BYTE	W12
	BYTE		N06     Gs0 
	BYTE	W06
	BYTE		N12     Cs1 
	BYTE	W12
	BYTE		N03     Gs0 
	BYTE	W06
	BYTE		N03   
	BYTE	W06
	BYTE		N12   
	BYTE	W12
	BYTE		        Cs1 
	BYTE	W12
// 045   ----------------------------------------
	BYTE		        Cn1 
	BYTE	W12
	BYTE		N12   
	BYTE	W12
	BYTE		N06   
	BYTE	W06
	BYTE		N06   
	BYTE	W12
	BYTE		        Fn0 
	BYTE	W12
	BYTE		        Gs0 
	BYTE	W12
	BYTE		        Cn1 
	BYTE	W12
	BYTE		        Dn1 
	BYTE	W12
	BYTE		        Fn1 
	BYTE	W06
// 046   ----------------------------------------
	BYTE		N12     Gn1 
	BYTE	W24
	BYTE		N72     Gn0 
	BYTE	W72
// 047   ----------------------------------------
	BYTE		N12     Gs0 
	BYTE	W12
	BYTE		N12   
	BYTE	W12
	BYTE		N06     Ds1 
	BYTE	W06
	BYTE		N12     Gs0 
	BYTE	W12
	BYTE		N18     Cn1 
	BYTE	W18
	BYTE		N12     Dn1 
	BYTE	W12
	BYTE		        Ds1 
	BYTE	W12
	BYTE		        Gs0 
	BYTE	W12
// 048   ----------------------------------------
	BYTE		        As0 
	BYTE	W12
	BYTE		N12   
	BYTE	W12
	BYTE		N06     Fn1 
	BYTE	W06
	BYTE		N12     As0 
	BYTE	W12
	BYTE		N18     Dn1 
	BYTE	W18
	BYTE		N12     Ds1 
	BYTE	W12
	BYTE		        Fn1 
	BYTE	W12
	BYTE		        As0 
	BYTE	W12
// 049   ----------------------------------------
	BYTE		TIE     Cn1 
	BYTE	W96
// 050   ----------------------------------------
	BYTE	W84
	BYTE		EOT   
	BYTE		N06     Gn0 
	BYTE	W06
	BYTE		        Fn0 
	BYTE	W06
// 051   ----------------------------------------
	BYTE		N24     Cn0 
	BYTE	W48
	// BYTE		VOICE   0
	BYTE	W48
	BYTE	GoTo
	 POIN2	BLOODY_STREAM0_9_B1
BLOODY_STREAM0_9_B2:
// 052   ----------------------------------------
	BYTE	FINE

//**************** Track 10 (Midi-Chn.12) ****************//

BLOODY_STREAM0_10:
	BYTE	KEYSH   BLOODY_STREAM0_key+0
// 000   ----------------------------------------
	BYTE		VOICE   122
	BYTE	W09
	BYTE	W03
	BYTE		VOL     127*BLOODY_STREAM0_mvl/mxv
	BYTE 		BENDR   6	
	BYTE	W03
	BYTE		PAN     c_v+0
	BYTE	W03
	BYTE	W03
	BYTE	W03
// 001   ----------------------------------------
	// BYTE		VOICE   121
	// BYTE	W96
BLOODY_STREAM0_10_B1:
// 002   ----------------------------------------
	BYTE		N06     Cn1   v100
	BYTE		N06     Fs1 
	BYTE	W24
	BYTE		        Cn1 
	BYTE		N06     Fs1 
	BYTE	W24
	BYTE		        Cn1 
	BYTE		N06     Fs1 
	BYTE	W18
	BYTE		        Cn1 
	BYTE		N06     Fs1 
	BYTE	W18
	BYTE		        Cn1 
	BYTE		N06     Cs2 
	BYTE	W12
// 003   ----------------------------------------
	BYTE		        Fs1 
	BYTE	W12
	BYTE		        Cn1 
	BYTE		N06     Gs1 
	BYTE	W06
	BYTE		        Fs1 
	BYTE	W06
	BYTE		        Cn1 
	BYTE		N06     En1 
	BYTE		N06     Fs1 
	BYTE	W12
	BYTE		        Gs1 
	BYTE	W06
	BYTE		        Fs1 
	BYTE	W06
	BYTE		        Cn1 
	BYTE		N06     Fs1 
	BYTE	W06
	BYTE		        En1 
	BYTE	W12
	BYTE		        Cn1 
	BYTE		N06     Fs1 
	BYTE	W12
	BYTE		        Cn1 
	BYTE		N06     Gs1 
	BYTE	W06
	BYTE		        Cn1 
	BYTE		N06     Fs1 
	BYTE	W12
// 004   ----------------------------------------
	BYTE		        Cn1 
	BYTE		N06     Fs1 
	BYTE		N06     Cs2 
	BYTE	W12
	BYTE		        Gs1 
	BYTE	W06
	BYTE		        Cn1 
	BYTE		N06     Fs1 
	BYTE	W06
	BYTE		        En1 
	BYTE		N06     Fs1 
	BYTE	W06
	BYTE		        Cn1 
	BYTE	W06
	BYTE		        Gs1 
	BYTE	W06
	BYTE		        Fs1 
	BYTE	W06
	BYTE		        Cn1 
	BYTE		N06     Fs1 
	BYTE	W06
	BYTE		        En1 
	BYTE	W12
	BYTE		N06   
	BYTE		N06     Gs1 
	BYTE	W06
	BYTE		        Cn1 
	BYTE		N06     Fs1 
	BYTE	W12
	BYTE		        Cn1 
	BYTE		N06     En1 
	BYTE	W12
// 005   ----------------------------------------
	BYTE	W48
	BYTE		        Cn1 
	BYTE	W24
	BYTE		        En1 
	BYTE	W06
	BYTE		N06   
	BYTE	W06
	BYTE		        Cn1 
	BYTE	W06
	BYTE		        En1 
	BYTE	W06
// 006   ----------------------------------------
BLOODY_STREAM0_10_006:
	BYTE		N06     Cn1   v100
	BYTE		N06     Fs1 
	BYTE		N06     An2 
	BYTE	W12
	BYTE		        Cn1 
	BYTE		N06     Gs1 
	BYTE	W06
	BYTE		        Fs1 
	BYTE	W06
	BYTE		        En1 
	BYTE	W12
	BYTE		        Gs1 
	BYTE	W06
	BYTE		        Cn1 
	BYTE		N06     Fs1 
	BYTE	W06
	BYTE		N06   
	BYTE	W06
	BYTE		        Dn1 
	BYTE	W06
	BYTE		        Cn1 
	BYTE		N06     Gs1 
	BYTE	W06
	BYTE		        Fs1 
	BYTE	W06
	BYTE		        En1 
	BYTE		N06     Fs1 
	BYTE	W12
	BYTE		        Cn1 
	BYTE		N06     Gs1 
	BYTE	W06
	BYTE		        Fs1 
	BYTE	W06
	BYTE	PEND
// 007   ----------------------------------------
BLOODY_STREAM0_10_007:
	BYTE		N06     Cn1   v100
	BYTE		N06     Fs1 
	BYTE	W12
	BYTE		        Cn1 
	BYTE		N06     Gs1 
	BYTE	W06
	BYTE		        Fs1 
	BYTE	W06
	BYTE		        En1 
	BYTE	W12
	BYTE		        Gs1 
	BYTE	W06
	BYTE		        Cn1 
	BYTE		N06     Fs1 
	BYTE	W06
	BYTE		N06   
	BYTE	W06
	BYTE		        Dn1 
	BYTE	W06
	BYTE		        Cn1 
	BYTE		N06     Gs1 
	BYTE	W06
	BYTE		        Fs1 
	BYTE	W06
	BYTE		        En1 
	BYTE		N06     Fs1 
	BYTE	W12
	BYTE		        Cn1 
	BYTE		N06     Gs1 
	BYTE	W06
	BYTE		        Fs1 
	BYTE	W06
	BYTE	PEND
// 008   ----------------------------------------
	BYTE	PATT
	 POIN2	BLOODY_STREAM0_10_007
// 009   ----------------------------------------
	BYTE	PATT
	 POIN2	BLOODY_STREAM0_10_007
// 010   ----------------------------------------
	BYTE	PATT
	 POIN2	BLOODY_STREAM0_10_007
// 011   ----------------------------------------
	BYTE	PATT
	 POIN2	BLOODY_STREAM0_10_007
// 012   ----------------------------------------
	BYTE	PATT
	 POIN2	BLOODY_STREAM0_10_007
// 013   ----------------------------------------
	BYTE		N06     Cn1   v100
	BYTE		N06     Fs1 
	BYTE	W06
	BYTE		        Gs1 
	BYTE	W12
	BYTE		        Cn1 
	BYTE		N06     Fs1 
	BYTE	W06
	BYTE		        Gs1 
	BYTE	W12
	BYTE		        Cn1 
	BYTE		N06     Fs1 
	BYTE	W06
	BYTE		        Cn1 
	BYTE		N06     Gs1 
	BYTE	W06
	BYTE		        Fs1 
	BYTE	W12
	BYTE		        Cn1 
	BYTE		N06     Gs1 
	BYTE	W06
	BYTE		        Fs1 
	BYTE	W06
	BYTE		        En1 
	BYTE	W06
	BYTE		N06   
	BYTE	W06
	BYTE		N06   
	BYTE	W06
	BYTE		N06   
	BYTE	W06
// 014   ----------------------------------------
	BYTE	PATT
	 POIN2	BLOODY_STREAM0_10_006
// 015   ----------------------------------------
	BYTE	PATT
	 POIN2	BLOODY_STREAM0_10_007
// 016   ----------------------------------------
	BYTE	PATT
	 POIN2	BLOODY_STREAM0_10_007
// 017   ----------------------------------------
	BYTE	PATT
	 POIN2	BLOODY_STREAM0_10_007
// 018   ----------------------------------------
	BYTE	PATT
	 POIN2	BLOODY_STREAM0_10_007
// 019   ----------------------------------------
	BYTE	PATT
	 POIN2	BLOODY_STREAM0_10_007
// 020   ----------------------------------------
	BYTE	PATT
	 POIN2	BLOODY_STREAM0_10_007
// 021   ----------------------------------------
	BYTE		N06     Cn1   v100
	BYTE		N06     Fs1 
	BYTE	W06
	BYTE		        Gs1 
	BYTE	W06
	BYTE		        Fs1 
	BYTE	W06
	BYTE		        Cn1 
	BYTE	W06
	BYTE		        Gs1 
	BYTE	W06
	BYTE		        Fs1 
	BYTE	W06
	BYTE		        Cn1 
	BYTE	W06
	BYTE		        Fs1 
	BYTE	W06
	BYTE		        Gs1 
	BYTE	W06
	BYTE		        Cn1 
	BYTE		N06     Fs1 
	BYTE	W12
	BYTE		        Cn1 
	BYTE	W06
	BYTE		        En1 
	BYTE	W12
	BYTE		        Cn1 
	BYTE		N06     Gs1 
	BYTE	W06
	BYTE		        Fs1 
	BYTE	W06
// 022   ----------------------------------------
	BYTE		        Cn1 
	BYTE		N06     Fs1 
	BYTE		N06     An2 
	BYTE	W06
	BYTE		        Fs1 
	BYTE	W06
	BYTE		        Gs1 
	BYTE	W12
	BYTE		        Cn1 
	BYTE		N06     Fs1 
	BYTE	W06
	BYTE		N06   
	BYTE	W06
	BYTE		        Gs1 
	BYTE	W12
	BYTE		        Cn1 
	BYTE		N06     Fs1 
	BYTE	W06
	BYTE		N06   
	BYTE	W06
	BYTE		        Gs1 
	BYTE	W12
	BYTE		        Cn1 
	BYTE		N06     Fs1 
	BYTE	W06
	BYTE		N06   
	BYTE	W06
	BYTE		        Gs1 
	BYTE	W12
// 023   ----------------------------------------
BLOODY_STREAM0_10_023:
	BYTE		N06     Cn1   v100
	BYTE		N06     Fs1 
	BYTE	W06
	BYTE		N06   
	BYTE	W06
	BYTE		        Gs1 
	BYTE	W12
	BYTE		        Cn1 
	BYTE		N06     Fs1 
	BYTE	W06
	BYTE		N06   
	BYTE	W06
	BYTE		        Gs1 
	BYTE	W12
	BYTE		        Cn1 
	BYTE		N06     Fs1 
	BYTE	W06
	BYTE		N06   
	BYTE	W06
	BYTE		        Gs1 
	BYTE	W12
	BYTE		        Cn1 
	BYTE		N06     Fs1 
	BYTE	W06
	BYTE		N06   
	BYTE	W06
	BYTE		        Gs1 
	BYTE	W12
	BYTE	PEND
// 024   ----------------------------------------
	BYTE	PATT
	 POIN2	BLOODY_STREAM0_10_023
// 025   ----------------------------------------
	BYTE	PATT
	 POIN2	BLOODY_STREAM0_10_023
// 026   ----------------------------------------
	BYTE	PATT
	 POIN2	BLOODY_STREAM0_10_023
// 027   ----------------------------------------
	BYTE	PATT
	 POIN2	BLOODY_STREAM0_10_023
// 028   ----------------------------------------
	BYTE		N06     Cn1   v100
	BYTE		N06     Fs1 
	BYTE	W12
	BYTE		        Gs1   v088
	BYTE	W06
	BYTE		        Fs1   v100
	BYTE	W06
	BYTE		        En1 
	BYTE	W12
	BYTE		        Fs1 
	BYTE	W06
	BYTE		        Cn1 
	BYTE		N06     Gs1 
	BYTE	W06
	BYTE		        Cn1 
	BYTE		N06     Fs1 
	BYTE	W12
	BYTE		        Cn1 
	BYTE		N06     Gs1 
	BYTE	W06
	BYTE		        Fs1 
	BYTE	W06
	BYTE		        En1 
	BYTE	W12
	BYTE		        Cn1 
	BYTE		N06     Fs1 
	BYTE	W06
	BYTE		        Gs1 
	BYTE	W06
// 029   ----------------------------------------
	BYTE		        Cn1 
	BYTE	W06
	BYTE		N06   
	BYTE	W06
	BYTE		        Fs1 
	BYTE	W06
	BYTE		        Cn1 
	BYTE		N06     En1 
	BYTE	W06
	BYTE		        Fs1 
	BYTE	W06
	BYTE		        Cn1 
	BYTE		N06     En1 
	BYTE	W06
	BYTE		        Fs1 
	BYTE	W06
	BYTE		        Cn1 
	BYTE		N06     En1 
	BYTE		N06     Gs1 
	BYTE	W12
	BYTE		        Cn1 
	BYTE		N06     En1 
	BYTE	W12
	BYTE		        Cn1 
	BYTE		N06     En1 
	BYTE	W12
	BYTE		        Cn1 
	BYTE		N06     En1 
	BYTE	W18
// 030   ----------------------------------------
	BYTE	W48
	BYTE		        Cn1 
	BYTE	W06
	BYTE		        En1 
	BYTE	W06
	BYTE		        Cn1 
	BYTE	W06
	BYTE		N06   
	BYTE	W06
	BYTE		        En1 
	BYTE	W06
	BYTE		N06   
	BYTE	W06
	BYTE		        Cn1 
	BYTE	W12
// 031   ----------------------------------------
BLOODY_STREAM0_10_031:
	BYTE		N06     Cn1   v100
	BYTE		N06     Fs1 
	BYTE		N06     An2 
	BYTE	W12
	BYTE		        Cn1 
	BYTE		N06     Gs1 
	BYTE	W06
	BYTE		        Fs1 
	BYTE	W06
	BYTE		        En1 
	BYTE	W12
	BYTE		        Fs1 
	BYTE	W06
	BYTE		        Cn1 
	BYTE		N06     Gs1 
	BYTE	W06
	BYTE		        Fs1 
	BYTE	W06
	BYTE		        Cn1 
	BYTE	W06
	BYTE		        Gs1 
	BYTE	W06
	BYTE		        Fs1 
	BYTE	W06
	BYTE		        En1 
	BYTE	W12
	BYTE		        Cn1 
	BYTE		N06     Fs1 
	BYTE	W06
	BYTE		        Gs1 
	BYTE	W06
	BYTE	PEND
// 032   ----------------------------------------
BLOODY_STREAM0_10_032:
	BYTE		N06     Cn1   v100
	BYTE		N06     Fs1 
	BYTE	W12
	BYTE		        Cn1 
	BYTE		N06     Gs1 
	BYTE	W06
	BYTE		        Fs1 
	BYTE	W06
	BYTE		        En1 
	BYTE	W12
	BYTE		        Fs1 
	BYTE	W06
	BYTE		        Cn1 
	BYTE		N06     Gs1 
	BYTE	W06
	BYTE		        Fs1 
	BYTE	W06
	BYTE		        Cn1 
	BYTE	W06
	BYTE		        Gs1 
	BYTE	W06
	BYTE		        Fs1 
	BYTE	W06
	BYTE		        En1 
	BYTE	W12
	BYTE		        Cn1 
	BYTE		N06     Fs1 
	BYTE	W06
	BYTE		        Gs1 
	BYTE	W06
	BYTE	PEND
// 033   ----------------------------------------
	BYTE	PATT
	 POIN2	BLOODY_STREAM0_10_032
// 034   ----------------------------------------
BLOODY_STREAM0_10_034:
	BYTE		N06     Cn1   v100
	BYTE		N06     Fs1 
	BYTE	W12
	BYTE		        Cn1 
	BYTE		N06     Gs1 
	BYTE	W06
	BYTE		        Fs1 
	BYTE	W06
	BYTE		        En1 
	BYTE	W12
	BYTE		        Fs1 
	BYTE	W06
	BYTE		        Cn1 
	BYTE		N06     Gs1 
	BYTE	W06
	BYTE		        Fs1 
	BYTE	W06
	BYTE		        Cn1 
	BYTE	W06
	BYTE		        Gs1 
	BYTE	W06
	BYTE		        Cn1 
	BYTE		N06     Fs1 
	BYTE	W06
	BYTE		        En1 
	BYTE	W12
	BYTE		        Fs1 
	BYTE	W06
	BYTE		        Gs1 
	BYTE	W06
	BYTE	PEND
// 035   ----------------------------------------
	BYTE	PATT
	 POIN2	BLOODY_STREAM0_10_031
// 036   ----------------------------------------
	BYTE	PATT
	 POIN2	BLOODY_STREAM0_10_032
// 037   ----------------------------------------
	BYTE		N06     Cn1   v100
	BYTE		N06     Fs1 
	BYTE	W12
	BYTE		        Cn1 
	BYTE		N06     Gs1 
	BYTE	W06
	BYTE		        Fs1 
	BYTE	W06
	BYTE		        En1 
	BYTE	W12
	BYTE		        Fs1 
	BYTE	W06
	BYTE		        Cn1 
	BYTE		N06     Gs1 
	BYTE	W06
	BYTE		        Fs1 
	BYTE	W06
	BYTE		        Cn1 
	BYTE	W06
	BYTE		        Gs1 
	BYTE	W06
	BYTE		        Fs1 
	BYTE	W06
	BYTE		        En1 
	BYTE	W06
	BYTE		N06   
	BYTE	W06
	BYTE		N06   
	BYTE	W06
	BYTE		N06   
	BYTE	W06
// 038   ----------------------------------------
	BYTE		        Cn1 
	BYTE	W06
	BYTE		        Fs1 
	BYTE	W06
	BYTE		        Gs1 
	BYTE	W06
	BYTE		        Cn1 
	BYTE	W06
	BYTE		        Fs1 
	BYTE	W06
	BYTE		        Gs1 
	BYTE	W06
	BYTE		        Cn1 
	BYTE	W06
	BYTE		        Gs1 
	BYTE	W06
	BYTE		        Cn1 
	BYTE	W12
	BYTE		        En1 
	BYTE		N06     Cs2 
	BYTE	W36
// 039   ----------------------------------------
	BYTE	PATT
	 POIN2	BLOODY_STREAM0_10_031
// 040   ----------------------------------------
	BYTE	PATT
	 POIN2	BLOODY_STREAM0_10_032
// 041   ----------------------------------------
	BYTE	PATT
	 POIN2	BLOODY_STREAM0_10_032
// 042   ----------------------------------------
	BYTE	PATT
	 POIN2	BLOODY_STREAM0_10_034
// 043   ----------------------------------------
	BYTE	PATT
	 POIN2	BLOODY_STREAM0_10_032
// 044   ----------------------------------------
	BYTE	PATT
	 POIN2	BLOODY_STREAM0_10_032
// 045   ----------------------------------------
	BYTE	PATT
	 POIN2	BLOODY_STREAM0_10_032
// 046   ----------------------------------------
	BYTE	W24
	BYTE		N06     En1   v100
	BYTE		N06     An2 
	BYTE	W12
	BYTE		        Fs1 
	BYTE	W06
	BYTE		        Cn1 
	BYTE		N06     Gs1 
	BYTE	W06
	BYTE		        Fs1 
	BYTE	W06
	BYTE		        Cn1 
	BYTE	W06
	BYTE		        Gs1 
	BYTE	W06
	BYTE		        Fs1 
	BYTE	W06
	BYTE		        En1 
	BYTE	W12
	BYTE		        Cn1 
	BYTE		N06     Fs1 
	BYTE	W06
	BYTE		        Gs1 
	BYTE	W06
// 047   ----------------------------------------
	BYTE	PATT
	 POIN2	BLOODY_STREAM0_10_031
// 048   ----------------------------------------
	BYTE	PATT
	 POIN2	BLOODY_STREAM0_10_032
// 049   ----------------------------------------
	BYTE		N06     Cn1   v100
	BYTE		N06     Bn2 
	BYTE	W06
	BYTE		        Bn2   v044
	BYTE	W06
	BYTE		        Bn2   v080
	BYTE	W12
	BYTE		        Cn1   v100
	BYTE		N06     Bn2 
	BYTE	W06
	BYTE		        Bn2   v048
	BYTE	W06
	BYTE		        Bn2   v080
	BYTE	W12
	BYTE		        Cn1   v100
	BYTE		N06     Bn2 
	BYTE	W06
	BYTE		        Bn2   v044
	BYTE	W06
	BYTE		        Bn2   v080
	BYTE	W12
	BYTE		        Cn1   v100
	BYTE		N06     Bn2 
	BYTE	W06
	BYTE		        Bn2   v044
	BYTE	W06
	BYTE		        Bn2   v080
	BYTE	W12
// 050   ----------------------------------------
	BYTE		        Cn1   v100
	BYTE		N06     Bn2 
	BYTE	W06
	BYTE		        Bn2   v044
	BYTE	W06
	BYTE		        Bn2   v080
	BYTE	W12
	BYTE		        Cn1   v100
	BYTE		N06     Bn2 
	BYTE	W06
	BYTE		        Bn2   v048
	BYTE	W06
	BYTE		        Bn2   v080
	BYTE	W12
	BYTE		        Cn1   v100
	BYTE		N06     Bn2 
	BYTE	W06
	BYTE		        Bn2   v044
	BYTE	W06
	BYTE		        Bn2   v080
	BYTE	W12
	BYTE		        Cn1   v100
	BYTE		N06     Bn2 
	BYTE	W06
	BYTE		        Bn2   v044
	BYTE	W06
	BYTE		        Dn2   v080
	BYTE		N06     Bn2 
	BYTE	W06
	BYTE		        Bn1   v100
	BYTE	W06
// 051   ----------------------------------------
	BYTE		        Gn1 
	BYTE	W30
	// BYTE		VOICE   0
	BYTE	W66
	BYTE	GoTo
	 POIN2	BLOODY_STREAM0_10_B1
BLOODY_STREAM0_10_B2:
// 052   ----------------------------------------
	BYTE	FINE

//******************************************************//
	ALIGN 4

BLOODY_STREAM0:
	BYTE	10	// NumTrks
	BYTE	0	// NumBlks
	BYTE	BLOODY_STREAM0_pri	// Priority
	BYTE	BLOODY_STREAM0_rev	// Reverb.

	POIN2	BLOODY_STREAM0_grp

	POIN2	BLOODY_STREAM0_1
	POIN2	BLOODY_STREAM0_2
	POIN2	BLOODY_STREAM0_3
	POIN2	BLOODY_STREAM0_4
	POIN2	BLOODY_STREAM0_5
	POIN2	BLOODY_STREAM0_6
	POIN2	BLOODY_STREAM0_7
	POIN2	BLOODY_STREAM0_8
	POIN2	BLOODY_STREAM0_9
	POIN2	BLOODY_STREAM0_10

	
