	.include "MPlayDef.s"

	.equ	I_May_Fall_0_grp, voicegroup000
	.equ	I_May_Fall_0_pri, 0
	.equ	I_May_Fall_0_rev, 0
	.equ	I_May_Fall_0_mvl, 67
	.equ	I_May_Fall_0_key, 0
	.equ	I_May_Fall_0_tbs, 1
	.equ	I_May_Fall_0_exg, 0
	.equ	I_May_Fall_0_cmp, 1

	.section .rodata
	.global	I_May_Fall_0
	.align	2

@**************** Track 1 (Midi-Chn.1) ****************@

I_May_Fall_0_1:
	.byte	KEYSH , I_May_Fall_0_key+0
@ 000   ----------------------------------------
	.byte	TEMPO , 145*I_May_Fall_0_tbs/2
	.byte		VOICE , 73
	.byte		VOL   , 100*I_May_Fall_0_mvl/mxv
	.byte		PAN   , c_v+0
	.byte	W12
	.byte		N11   , En3 , v112
	.byte	W12
	.byte		N11   
	.byte	W12
	.byte		N23   , Cn4 
	.byte	W24
	.byte		N11   , Bn3 
	.byte	W12
	.byte		        An3 
	.byte	W12
	.byte		N23   , Gn3 
	.byte	W12
@ 001   ----------------------------------------
I_May_Fall_0_1_001:
	.byte	W12
	.byte		N11   , Gn3 , v112
	.byte	W12
	.byte		        An3 
	.byte	W12
	.byte		N23   , En3 
	.byte	W24
	.byte		N44   , Dn3 
	.byte	W36
	.byte	PEND
@ 002   ----------------------------------------
I_May_Fall_0_1_002:
	.byte	W12
	.byte		N11   , Dn3 , v112
	.byte	W12
	.byte		N11   
	.byte	W12
	.byte		N23   , An3 
	.byte	W24
	.byte		N11   
	.byte	W12
	.byte		        Gn3 
	.byte	W12
	.byte		N23   , En3 
	.byte	W12
	.byte	PEND
@ 003   ----------------------------------------
	.byte	W09
	.byte		N02   , Fn3 
	.byte	W03
	.byte		N11   , En3 
	.byte	W12
	.byte		        Dn3 
	.byte	W12
	.byte		N56   , En3 
	.byte	W60
@ 004   ----------------------------------------
I_May_Fall_0_1_004:
	.byte	W12
	.byte		N11   , En3 , v112
	.byte	W12
	.byte		N11   
	.byte	W12
	.byte		N23   , Cn4 
	.byte	W24
	.byte		N11   , Bn3 
	.byte	W12
	.byte		        An3 
	.byte	W12
	.byte		N23   , Gn3 
	.byte	W12
	.byte	PEND
@ 005   ----------------------------------------
	.byte	W12
	.byte		        An3 
	.byte	W24
	.byte		N32   , En3 
	.byte	W60
@ 006   ----------------------------------------
I_May_Fall_0_1_006:
	.byte		N32   , En3 , v112
	.byte	W36
	.byte		        Fn3 
	.byte	W36
	.byte		N23   , Gn3 
	.byte	W24
	.byte	PEND
@ 007   ----------------------------------------
	.byte		N92   , Dn3 
	.byte	W96
@ 008   ----------------------------------------
	.byte	PATT
	 .word	I_May_Fall_0_1_004
@ 009   ----------------------------------------
	.byte	PATT
	 .word	I_May_Fall_0_1_001
@ 010   ----------------------------------------
	.byte	W12
	.byte		N11   , Dn3 , v112
	.byte	W12
	.byte		N11   
	.byte	W12
	.byte		N23   , An3 
	.byte	W24
	.byte		N11   , Gn3 
	.byte	W12
	.byte		        Fn3 
	.byte	W12
	.byte		N23   , En3 
	.byte	W12
@ 011   ----------------------------------------
I_May_Fall_0_1_011:
	.byte	W12
	.byte		N11   , En3 , v112
	.byte	W12
	.byte		        Dn3 
	.byte	W12
	.byte		N56   , En3 
	.byte	W60
	.byte	PEND
@ 012   ----------------------------------------
I_May_Fall_0_1_012:
	.byte	W36
	.byte		N23   , An3 , v112
	.byte	W24
	.byte		N11   , Cn4 
	.byte	W12
	.byte		        An3 
	.byte	W12
	.byte		N23   , En4 
	.byte	W12
	.byte	PEND
@ 013   ----------------------------------------
I_May_Fall_0_1_013:
	.byte	W12
	.byte		N11   , An3 , v112
	.byte	W12
	.byte		        Gn3 
	.byte	W12
	.byte		N23   , An3 
	.byte	W24
	.byte		        Gn3 
	.byte	W24
	.byte		N11   
	.byte	W12
	.byte	PEND
@ 014   ----------------------------------------
I_May_Fall_0_1_014:
	.byte		N32   , En4 , v112
	.byte	W36
	.byte		        Gn3 
	.byte	W36
	.byte		N80   
	.byte	W24
	.byte	PEND
@ 015   ----------------------------------------
I_May_Fall_0_1_015:
	.byte	W60
	.byte		N11   , Cn4 , v112
	.byte	W12
	.byte		        Dn4 
	.byte	W12
	.byte		N44   , En4 
	.byte	W12
	.byte	PEND
@ 016   ----------------------------------------
I_May_Fall_0_1_016:
	.byte	W36
	.byte		N44   , En4 , v112
	.byte	W48
	.byte		N68   
	.byte	W12
	.byte	PEND
@ 017   ----------------------------------------
I_May_Fall_0_1_017:
	.byte	W60
	.byte		N11   , Dn4 , v112
	.byte	W12
	.byte		        Cn4 
	.byte	W12
	.byte		N44   , Dn4 
	.byte	W12
	.byte	PEND
@ 018   ----------------------------------------
I_May_Fall_0_1_018:
	.byte	W36
	.byte		N44   , Dn4 , v112
	.byte	W48
	.byte		N68   
	.byte	W12
	.byte	PEND
@ 019   ----------------------------------------
I_May_Fall_0_1_019:
	.byte	W60
	.byte		N11   , Dn4 , v112
	.byte	W12
	.byte		N11   
	.byte	W12
	.byte		N44   
	.byte	W12
	.byte	PEND
@ 020   ----------------------------------------
I_May_Fall_0_1_020:
	.byte	W36
	.byte		N44   , Dn4 , v112
	.byte	W48
	.byte		N68   , En4 
	.byte	W12
	.byte	PEND
@ 021   ----------------------------------------
I_May_Fall_0_1_021:
	.byte	W60
	.byte		N11   , En4 , v112
	.byte	W12
	.byte		N11   
	.byte	W12
	.byte		N44   
	.byte	W12
	.byte	PEND
@ 022   ----------------------------------------
I_May_Fall_0_1_022:
	.byte	W36
	.byte		N44   , Dn4 , v112
	.byte	W48
	.byte		TIE   , Bn3 
	.byte	W12
	.byte	PEND
@ 023   ----------------------------------------
	.byte	W96
@ 024   ----------------------------------------
	.byte	W92
	.byte	W03
	.byte		EOT   
	.byte	W01
@ 025   ----------------------------------------
I_May_Fall_0_1_025:
	.byte		N32   , Gn3 , v112
	.byte	W36
	.byte		        Dn4 
	.byte	W36
	.byte		N92   , Bn3 
	.byte	W24
	.byte	PEND
@ 026   ----------------------------------------
I_May_Fall_0_1_026:
	.byte	W72
	.byte		N11   , Bn3 , v112
	.byte	W12
	.byte		N23   
	.byte	W12
	.byte	PEND
@ 027   ----------------------------------------
I_May_Fall_0_1_027:
	.byte	W12
	.byte		N23   , An3 , v112
	.byte	W24
	.byte		N32   
	.byte	W36
	.byte		N11   
	.byte	W12
	.byte		N23   
	.byte	W12
	.byte	PEND
@ 028   ----------------------------------------
I_May_Fall_0_1_028:
	.byte	W12
	.byte		N23   , An3 , v112
	.byte	W24
	.byte		N23   
	.byte	W24
	.byte		        Dn4 
	.byte	W24
	.byte		N44   , Bn3 
	.byte	W12
	.byte	PEND
@ 029   ----------------------------------------
	.byte	W96
@ 030   ----------------------------------------
	.byte	W84
	.byte		N23   , En4 
	.byte	W12
@ 031   ----------------------------------------
I_May_Fall_0_1_031:
	.byte	W12
	.byte		N23   , Dn4 , v112
	.byte	W24
	.byte		N11   
	.byte	W12
	.byte		        Bn3 
	.byte	W36
	.byte		N23   , En4 
	.byte	W12
	.byte	PEND
@ 032   ----------------------------------------
I_May_Fall_0_1_032:
	.byte	W12
	.byte		N23   , Dn4 , v112
	.byte	W24
	.byte		N11   
	.byte	W12
	.byte		        An3 
	.byte	W12
	.byte		N23   , Bn3 
	.byte	W36
	.byte	PEND
@ 033   ----------------------------------------
I_May_Fall_0_1_033:
	.byte		N32   , Gn3 , v112
	.byte	W36
	.byte		        Dn4 
	.byte	W36
	.byte		N68   , Bn3 
	.byte	W24
	.byte	PEND
@ 034   ----------------------------------------
I_May_Fall_0_1_034:
	.byte	W48
	.byte		N11   , Dn4 , v112
	.byte	W12
	.byte		N23   
	.byte	W24
	.byte		N11   
	.byte	W12
	.byte	PEND
@ 035   ----------------------------------------
I_May_Fall_0_1_035:
	.byte		N23   , En4 , v112
	.byte	W24
	.byte		N11   , Bn3 
	.byte	W12
	.byte		N32   , An3 
	.byte	W36
	.byte		N11   , Gn3 
	.byte	W12
	.byte		N23   , An3 
	.byte	W12
	.byte	PEND
@ 036   ----------------------------------------
I_May_Fall_0_1_036:
	.byte	W12
	.byte		N11   , An3 , v112
	.byte	W12
	.byte		        Gn3 
	.byte	W12
	.byte		N23   , An3 
	.byte	W24
	.byte		        Dn4 
	.byte	W24
	.byte		N08   , Bn3 
	.byte	W09
	.byte		N02   , An3 
	.byte	W03
	.byte	PEND
@ 037   ----------------------------------------
	.byte		N32   , Bn3 
	.byte	W96
@ 038   ----------------------------------------
	.byte	W96
@ 039   ----------------------------------------
	.byte	W96
@ 040   ----------------------------------------
	.byte	W96
@ 041   ----------------------------------------
	.byte	W96
@ 042   ----------------------------------------
	.byte	PATT
	 .word	I_May_Fall_0_1_004
@ 043   ----------------------------------------
	.byte	W12
	.byte		N23   , An3 , v112
	.byte	W24
	.byte		        En3 
	.byte	W24
	.byte		N44   , Dn3 
	.byte	W36
@ 044   ----------------------------------------
	.byte	W12
	.byte		N11   
	.byte	W12
	.byte		N11   
	.byte	W12
	.byte		N23   , An3 
	.byte	W24
	.byte		N11   
	.byte	W12
	.byte		        Gn3 
	.byte	W12
	.byte		N21   , En3 
	.byte	W12
@ 045   ----------------------------------------
	.byte	W09
	.byte		N02   
	.byte	W03
	.byte		N11   
	.byte	W12
	.byte		        Dn3 
	.byte	W12
	.byte		N56   , En3 
	.byte	W60
@ 046   ----------------------------------------
	.byte	PATT
	 .word	I_May_Fall_0_1_004
@ 047   ----------------------------------------
	.byte	W12
	.byte		N23   , An3 , v112
	.byte	W24
	.byte		        En3 
	.byte	W24
	.byte		        Dn3 
	.byte	W36
@ 048   ----------------------------------------
	.byte	PATT
	 .word	I_May_Fall_0_1_006
@ 049   ----------------------------------------
	.byte		N92   , Dn3 , v112
	.byte	W96
@ 050   ----------------------------------------
	.byte	PATT
	 .word	I_May_Fall_0_1_004
@ 051   ----------------------------------------
	.byte	PATT
	 .word	I_May_Fall_0_1_001
@ 052   ----------------------------------------
	.byte	PATT
	 .word	I_May_Fall_0_1_002
@ 053   ----------------------------------------
	.byte	PATT
	 .word	I_May_Fall_0_1_011
@ 054   ----------------------------------------
	.byte	PATT
	 .word	I_May_Fall_0_1_012
@ 055   ----------------------------------------
	.byte	PATT
	 .word	I_May_Fall_0_1_013
@ 056   ----------------------------------------
	.byte	PATT
	 .word	I_May_Fall_0_1_014
@ 057   ----------------------------------------
	.byte	PATT
	 .word	I_May_Fall_0_1_015
@ 058   ----------------------------------------
	.byte	PATT
	 .word	I_May_Fall_0_1_016
@ 059   ----------------------------------------
	.byte	PATT
	 .word	I_May_Fall_0_1_017
@ 060   ----------------------------------------
	.byte	PATT
	 .word	I_May_Fall_0_1_018
@ 061   ----------------------------------------
	.byte	PATT
	 .word	I_May_Fall_0_1_019
@ 062   ----------------------------------------
	.byte	PATT
	 .word	I_May_Fall_0_1_020
@ 063   ----------------------------------------
	.byte	PATT
	 .word	I_May_Fall_0_1_021
@ 064   ----------------------------------------
	.byte	W36
	.byte		N44   , Dn4 , v112
	.byte	W48
	.byte		N56   , Bn3 
	.byte	W12
@ 065   ----------------------------------------
	.byte	W96
@ 066   ----------------------------------------
	.byte	W96
@ 067   ----------------------------------------
	.byte		N32   , Gn3 
	.byte	W36
	.byte		        Dn4 
	.byte	W36
	.byte		TIE   , Bn3 
	.byte	W24
@ 068   ----------------------------------------
	.byte	W92
	.byte	W03
	.byte		EOT   
	.byte	W01
@ 069   ----------------------------------------
	.byte	W96
@ 070   ----------------------------------------
	.byte	W96
@ 071   ----------------------------------------
	.byte	W96
@ 072   ----------------------------------------
	.byte	W96
@ 073   ----------------------------------------
	.byte	W96
@ 074   ----------------------------------------
	.byte	W96
@ 075   ----------------------------------------
	.byte	W96
@ 076   ----------------------------------------
	.byte	W96
@ 077   ----------------------------------------
	.byte	W96
@ 078   ----------------------------------------
	.byte	W96
@ 079   ----------------------------------------
	.byte	W96
@ 080   ----------------------------------------
	.byte	W96
@ 081   ----------------------------------------
	.byte	W96
@ 082   ----------------------------------------
	.byte	W96
@ 083   ----------------------------------------
	.byte	W96
@ 084   ----------------------------------------
	.byte	W96
@ 085   ----------------------------------------
	.byte	W96
@ 086   ----------------------------------------
	.byte	W96
@ 087   ----------------------------------------
	.byte	W96
@ 088   ----------------------------------------
	.byte	W96
@ 089   ----------------------------------------
	.byte	W96
@ 090   ----------------------------------------
	.byte	W12
	.byte		N11   , En2 
	.byte	W12
	.byte		N11   
	.byte	W12
	.byte		N23   , Cn3 
	.byte	W24
	.byte		N11   , Bn2 
	.byte	W12
	.byte		        An2 
	.byte	W12
	.byte		N23   , Gn2 
	.byte	W12
@ 091   ----------------------------------------
	.byte	W12
	.byte		N11   
	.byte	W12
	.byte		        An2 
	.byte	W12
	.byte		N23   , En2 
	.byte	W24
	.byte		N44   , Dn2 
	.byte	W36
@ 092   ----------------------------------------
	.byte	W12
	.byte		N11   
	.byte	W12
	.byte		N11   
	.byte	W12
	.byte		N23   , An2 
	.byte	W24
	.byte		N11   
	.byte	W12
	.byte		        Gn2 
	.byte	W12
	.byte		N23   , En2 
	.byte	W12
@ 093   ----------------------------------------
	.byte	W12
	.byte		N11   
	.byte	W12
	.byte		        Dn2 
	.byte	W12
	.byte		N56   
	.byte	W60
@ 094   ----------------------------------------
	.byte	PATT
	 .word	I_May_Fall_0_1_004
@ 095   ----------------------------------------
	.byte	W12
	.byte		N11   , Gn3 , v112
	.byte	W12
	.byte		        An3 
	.byte	W12
	.byte		N23   , En3 
	.byte	W24
	.byte		        Dn3 
	.byte	W36
@ 096   ----------------------------------------
	.byte		N30   , En3 
	.byte	W32
	.byte		        Fn3 
	.byte	W32
	.byte		        Gn3 
	.byte	W32
@ 097   ----------------------------------------
	.byte		N92   , Dn3 
	.byte	W48
I_May_Fall_0_1_B1:
	.byte	W48
@ 098   ----------------------------------------
	.byte	PATT
	 .word	I_May_Fall_0_1_004
@ 099   ----------------------------------------
	.byte	PATT
	 .word	I_May_Fall_0_1_001
@ 100   ----------------------------------------
	.byte	PATT
	 .word	I_May_Fall_0_1_002
@ 101   ----------------------------------------
	.byte	PATT
	 .word	I_May_Fall_0_1_011
@ 102   ----------------------------------------
	.byte	W24
	.byte		N11   , Gn3 , v112
	.byte	W12
	.byte		N23   , An3 
	.byte	W24
	.byte		N11   , Cn4 
	.byte	W12
	.byte		        An3 
	.byte	W12
	.byte		N23   , En4 
	.byte	W12
@ 103   ----------------------------------------
	.byte	PATT
	 .word	I_May_Fall_0_1_013
@ 104   ----------------------------------------
	.byte	PATT
	 .word	I_May_Fall_0_1_014
@ 105   ----------------------------------------
	.byte	PATT
	 .word	I_May_Fall_0_1_015
@ 106   ----------------------------------------
	.byte	PATT
	 .word	I_May_Fall_0_1_016
@ 107   ----------------------------------------
	.byte	PATT
	 .word	I_May_Fall_0_1_017
@ 108   ----------------------------------------
	.byte	PATT
	 .word	I_May_Fall_0_1_018
@ 109   ----------------------------------------
	.byte	PATT
	 .word	I_May_Fall_0_1_019
@ 110   ----------------------------------------
	.byte	PATT
	 .word	I_May_Fall_0_1_020
@ 111   ----------------------------------------
	.byte	PATT
	 .word	I_May_Fall_0_1_021
@ 112   ----------------------------------------
	.byte	PATT
	 .word	I_May_Fall_0_1_022
@ 113   ----------------------------------------
	.byte	W96
@ 114   ----------------------------------------
	.byte	W92
	.byte	W03
	.byte		EOT   , Bn3 
	.byte	W01
@ 115   ----------------------------------------
	.byte	PATT
	 .word	I_May_Fall_0_1_025
@ 116   ----------------------------------------
	.byte	PATT
	 .word	I_May_Fall_0_1_026
@ 117   ----------------------------------------
	.byte	PATT
	 .word	I_May_Fall_0_1_027
@ 118   ----------------------------------------
	.byte	PATT
	 .word	I_May_Fall_0_1_028
@ 119   ----------------------------------------
	.byte	W96
@ 120   ----------------------------------------
	.byte	W84
	.byte		N23   , En4 , v112
	.byte	W12
@ 121   ----------------------------------------
	.byte	PATT
	 .word	I_May_Fall_0_1_031
@ 122   ----------------------------------------
	.byte	PATT
	 .word	I_May_Fall_0_1_032
@ 123   ----------------------------------------
	.byte	PATT
	 .word	I_May_Fall_0_1_033
@ 124   ----------------------------------------
	.byte	PATT
	 .word	I_May_Fall_0_1_034
@ 125   ----------------------------------------
	.byte	PATT
	 .word	I_May_Fall_0_1_035
@ 126   ----------------------------------------
	.byte	PATT
	 .word	I_May_Fall_0_1_036
@ 127   ----------------------------------------
	.byte		N32   , Bn3 , v112
	.byte	W36
	.byte		N23   , Gn3 
	.byte	W24
	.byte		        Dn4 
	.byte	W24
	.byte		N92   , Bn3 
	.byte	W12
@ 128   ----------------------------------------
	.byte	W84
	.byte		N44   , An3 
	.byte	W12
@ 129   ----------------------------------------
	.byte	W36
	.byte		N23   , Gn3 
	.byte	W24
	.byte		        Dn4 
	.byte	W24
	.byte		N92   , Bn3 
	.byte	W12
@ 130   ----------------------------------------
	.byte	W84
	.byte		N44   , An3 
	.byte	W12
@ 131   ----------------------------------------
	.byte	W36
	.byte		N23   , Gn3 
	.byte	W24
	.byte		        Dn4 
	.byte	W24
	.byte		N44   , Bn3 
	.byte	W12
@ 132   ----------------------------------------
	.byte	W36
	.byte		N23   , En4 
	.byte	W24
	.byte		N11   , Dn4 
	.byte	W12
	.byte		        Bn3 
	.byte	W24
@ 133   ----------------------------------------
	.byte	W36
	.byte		N23   , En4 
	.byte	W24
	.byte		N11   , Dn4 
	.byte	W12
	.byte		        Bn3 
	.byte	W12
	.byte		N56   
	.byte	W12
@ 134   ----------------------------------------
	.byte	W48
	.byte		TIE   , An3 
	.byte	W48
@ 135   ----------------------------------------
	.byte	W92
	.byte	W03
	.byte		EOT   
	.byte	W01
	.byte	GOTO
	 .word	I_May_Fall_0_1_B1
I_May_Fall_0_1_B2:
@ 136   ----------------------------------------
	.byte	FINE

@**************** Track 2 (Midi-Chn.2) ****************@

I_May_Fall_0_2:
	.byte	KEYSH , I_May_Fall_0_key+0
@ 000   ----------------------------------------
	.byte		VOICE , 73
	.byte		VOL   , 100*I_May_Fall_0_mvl/mxv
	.byte		PAN   , c_v+0
	.byte	W12
	.byte		N11   , En2 , v080
	.byte	W12
	.byte		N11   
	.byte	W12
	.byte		N23   , Cn3 
	.byte	W24
	.byte		N11   , Bn2 
	.byte	W12
	.byte		        An2 
	.byte	W12
	.byte		N23   , Gn2 
	.byte	W12
@ 001   ----------------------------------------
	.byte	W12
	.byte		N11   
	.byte	W12
	.byte		        An2 
	.byte	W12
	.byte		N23   , En2 
	.byte	W24
	.byte		N44   , Dn2 
	.byte	W36
@ 002   ----------------------------------------
	.byte	W12
	.byte		N11   
	.byte	W12
	.byte		N11   
	.byte	W12
	.byte		N23   , An2 
	.byte	W24
	.byte		N11   
	.byte	W12
	.byte		        Gn2 
	.byte	W12
	.byte		N23   , En2 
	.byte	W12
@ 003   ----------------------------------------
	.byte	W09
	.byte		N02   , Fn2 
	.byte	W03
	.byte		N11   , En2 
	.byte	W12
	.byte		        Dn2 
	.byte	W12
	.byte		N56   , En2 
	.byte	W60
@ 004   ----------------------------------------
	.byte	W12
	.byte		N11   
	.byte	W12
	.byte		N11   
	.byte	W12
	.byte		N23   , Cn3 
	.byte	W24
	.byte		N11   , Bn2 
	.byte	W12
	.byte		        An2 
	.byte	W12
	.byte		N23   , Gn2 
	.byte	W12
@ 005   ----------------------------------------
	.byte	W12
	.byte		        An2 
	.byte	W24
	.byte		N32   , En2 
	.byte	W36
	.byte		N23   , Dn2 
	.byte	W24
@ 006   ----------------------------------------
	.byte		N30   , En2 
	.byte	W32
	.byte		        Fn2 
	.byte	W32
	.byte		        Gn2 
	.byte	W32
@ 007   ----------------------------------------
	.byte	W96
@ 008   ----------------------------------------
	.byte	W96
@ 009   ----------------------------------------
	.byte	W96
@ 010   ----------------------------------------
	.byte	W96
@ 011   ----------------------------------------
	.byte	W96
@ 012   ----------------------------------------
	.byte	W96
@ 013   ----------------------------------------
	.byte	W96
@ 014   ----------------------------------------
	.byte	W96
@ 015   ----------------------------------------
	.byte	W84
	.byte		N44   , An2 
	.byte		N44   , Cn3 
	.byte		N44   , Cn4 
	.byte	W12
@ 016   ----------------------------------------
	.byte	W36
	.byte		        An2 
	.byte		N44   , Cn3 
	.byte		N44   , Cn4 
	.byte	W48
	.byte		N56   , An2 
	.byte		N56   , Cn3 
	.byte		N56   , Cn4 
	.byte	W12
@ 017   ----------------------------------------
I_May_Fall_0_2_017:
	.byte	W84
	.byte		N44   , Gn2 , v080
	.byte		N44   , Bn2 
	.byte		N44   , Bn3 
	.byte	W12
	.byte	PEND
@ 018   ----------------------------------------
	.byte	W36
	.byte		        Gn2 
	.byte		N44   , Bn2 
	.byte		N44   , Bn3 
	.byte	W48
	.byte		N56   , Gn2 
	.byte		N56   , Bn2 
	.byte		N56   , Bn3 
	.byte	W12
@ 019   ----------------------------------------
	.byte	PATT
	 .word	I_May_Fall_0_2_017
@ 020   ----------------------------------------
	.byte	W36
	.byte		N44   , Gn2 , v080
	.byte		N44   , Bn2 
	.byte		N44   , Bn3 
	.byte	W48
	.byte		N56   , An2 
	.byte		N56   , Cn3 
	.byte		N56   , Cn4 
	.byte	W12
@ 021   ----------------------------------------
	.byte	W96
@ 022   ----------------------------------------
	.byte	W84
	.byte		TIE   , Dn3 
	.byte		TIE   , Gn3 
	.byte	W12
@ 023   ----------------------------------------
	.byte	W92
	.byte	W03
	.byte		EOT   , Dn3 
	.byte		        Gn3 
	.byte	W01
@ 024   ----------------------------------------
	.byte	W96
@ 025   ----------------------------------------
I_May_Fall_0_2_025:
	.byte		N32   , Gn2 , v080
	.byte		N32   , En3 
	.byte		N32   , Gn3 
	.byte	W36
	.byte		        Bn2 
	.byte		N32   , Dn3 
	.byte		N32   , Gn3 
	.byte		N32   , Bn3 
	.byte	W30
	.byte		N05   , An2 
	.byte	W06
	.byte		N92   , Gn2 
	.byte		N92   , Bn2 
	.byte		N92   , Dn3 
	.byte		N92   , Gn3 
	.byte		N92   , Bn3 
	.byte	W24
	.byte	PEND
@ 026   ----------------------------------------
	.byte	W96
@ 027   ----------------------------------------
	.byte	W96
@ 028   ----------------------------------------
	.byte	W96
@ 029   ----------------------------------------
I_May_Fall_0_2_029:
	.byte	W36
	.byte		N23   , Gn2 , v080
	.byte		N23   , En3 
	.byte		N23   , Gn3 
	.byte	W24
	.byte		        Bn2 
	.byte		N23   , Dn3 
	.byte		N23   , Gn3 
	.byte		N23   , Bn3 
	.byte	W21
	.byte		N02   , An2 
	.byte	W03
	.byte		N92   , Gn2 
	.byte		N92   , Bn2 
	.byte		N92   , Dn3 
	.byte		N92   , Gn3 
	.byte		N92   , Bn3 
	.byte	W12
	.byte	PEND
@ 030   ----------------------------------------
I_May_Fall_0_2_030:
	.byte	W84
	.byte		N92   , Fs2 , v080
	.byte		N92   , An2 
	.byte		N92   , En3 
	.byte		N92   , An3 
	.byte	W12
	.byte	PEND
@ 031   ----------------------------------------
I_May_Fall_0_2_031:
	.byte	W84
	.byte		TIE   , An2 , v080
	.byte		TIE   , En3 
	.byte		TIE   , An3 
	.byte		TIE   , Cn4 
	.byte	W12
	.byte	PEND
@ 032   ----------------------------------------
	.byte	W92
	.byte	W03
	.byte		EOT   , An2 
	.byte		        En3 
	.byte		        An3 
	.byte		        Cn4 
	.byte	W01
@ 033   ----------------------------------------
	.byte	PATT
	 .word	I_May_Fall_0_2_025
@ 034   ----------------------------------------
	.byte	W96
@ 035   ----------------------------------------
	.byte	W96
@ 036   ----------------------------------------
	.byte	W96
@ 037   ----------------------------------------
	.byte	PATT
	 .word	I_May_Fall_0_2_029
@ 038   ----------------------------------------
	.byte	PATT
	 .word	I_May_Fall_0_2_030
@ 039   ----------------------------------------
	.byte	PATT
	 .word	I_May_Fall_0_2_031
@ 040   ----------------------------------------
	.byte	W92
	.byte	W03
	.byte		EOT   , An2 
	.byte		        En3 
	.byte		        An3 
	.byte		        Cn4 
	.byte	W01
@ 041   ----------------------------------------
	.byte	W96
@ 042   ----------------------------------------
	.byte	W96
@ 043   ----------------------------------------
	.byte	W96
@ 044   ----------------------------------------
	.byte	W96
@ 045   ----------------------------------------
	.byte	W96
@ 046   ----------------------------------------
	.byte	W96
@ 047   ----------------------------------------
	.byte	W96
@ 048   ----------------------------------------
	.byte	W96
@ 049   ----------------------------------------
	.byte	W96
@ 050   ----------------------------------------
	.byte	W96
@ 051   ----------------------------------------
	.byte	W96
@ 052   ----------------------------------------
	.byte	W96
@ 053   ----------------------------------------
	.byte	W96
@ 054   ----------------------------------------
	.byte	W96
@ 055   ----------------------------------------
	.byte	W96
@ 056   ----------------------------------------
	.byte	W96
@ 057   ----------------------------------------
	.byte	W96
@ 058   ----------------------------------------
	.byte	W96
@ 059   ----------------------------------------
	.byte	W96
@ 060   ----------------------------------------
	.byte	W96
@ 061   ----------------------------------------
	.byte	W96
@ 062   ----------------------------------------
	.byte	W96
@ 063   ----------------------------------------
	.byte	W96
@ 064   ----------------------------------------
	.byte	W96
@ 065   ----------------------------------------
	.byte	W96
@ 066   ----------------------------------------
	.byte	W96
@ 067   ----------------------------------------
	.byte	PATT
	 .word	I_May_Fall_0_2_025
@ 068   ----------------------------------------
	.byte	W96
@ 069   ----------------------------------------
	.byte	W96
@ 070   ----------------------------------------
	.byte	W96
@ 071   ----------------------------------------
	.byte	PATT
	 .word	I_May_Fall_0_2_029
@ 072   ----------------------------------------
	.byte	PATT
	 .word	I_May_Fall_0_2_030
@ 073   ----------------------------------------
	.byte	PATT
	 .word	I_May_Fall_0_2_031
@ 074   ----------------------------------------
	.byte	W92
	.byte	W03
	.byte		EOT   , An2 
	.byte		        En3 
	.byte		        An3 
	.byte		        Cn4 
	.byte	W01
@ 075   ----------------------------------------
	.byte	PATT
	 .word	I_May_Fall_0_2_025
@ 076   ----------------------------------------
	.byte	W96
@ 077   ----------------------------------------
	.byte	W96
@ 078   ----------------------------------------
	.byte	W96
@ 079   ----------------------------------------
	.byte	PATT
	 .word	I_May_Fall_0_2_029
@ 080   ----------------------------------------
	.byte	PATT
	 .word	I_May_Fall_0_2_030
@ 081   ----------------------------------------
	.byte	PATT
	 .word	I_May_Fall_0_2_031
@ 082   ----------------------------------------
	.byte	W92
	.byte	W03
	.byte		EOT   , An2 
	.byte		        En3 
	.byte		        An3 
	.byte		        Cn4 
	.byte	W01
@ 083   ----------------------------------------
	.byte	W96
@ 084   ----------------------------------------
	.byte	W96
@ 085   ----------------------------------------
	.byte	W96
@ 086   ----------------------------------------
	.byte	W96
@ 087   ----------------------------------------
	.byte	W96
@ 088   ----------------------------------------
	.byte	W96
@ 089   ----------------------------------------
	.byte	W96
@ 090   ----------------------------------------
	.byte	W96
@ 091   ----------------------------------------
	.byte	W96
@ 092   ----------------------------------------
	.byte	W96
@ 093   ----------------------------------------
	.byte	W96
@ 094   ----------------------------------------
	.byte	W96
@ 095   ----------------------------------------
	.byte	W96
@ 096   ----------------------------------------
	.byte	W96
@ 097   ----------------------------------------
	.byte	W48
I_May_Fall_0_2_B1:
	.byte	W48
@ 098   ----------------------------------------
	.byte	W96
@ 099   ----------------------------------------
	.byte	W96
@ 100   ----------------------------------------
	.byte	W96
@ 101   ----------------------------------------
	.byte	W96
@ 102   ----------------------------------------
	.byte	W96
@ 103   ----------------------------------------
	.byte	W96
@ 104   ----------------------------------------
	.byte	W96
@ 105   ----------------------------------------
	.byte	W96
@ 106   ----------------------------------------
	.byte	W96
@ 107   ----------------------------------------
	.byte	W96
@ 108   ----------------------------------------
	.byte	W96
@ 109   ----------------------------------------
	.byte	W96
@ 110   ----------------------------------------
	.byte	W96
@ 111   ----------------------------------------
	.byte	W96
@ 112   ----------------------------------------
	.byte	W96
@ 113   ----------------------------------------
	.byte	W96
@ 114   ----------------------------------------
	.byte	W96
@ 115   ----------------------------------------
	.byte	PATT
	 .word	I_May_Fall_0_2_025
@ 116   ----------------------------------------
	.byte	W96
@ 117   ----------------------------------------
	.byte	W96
@ 118   ----------------------------------------
	.byte	W96
@ 119   ----------------------------------------
	.byte	PATT
	 .word	I_May_Fall_0_2_029
@ 120   ----------------------------------------
	.byte	PATT
	 .word	I_May_Fall_0_2_030
@ 121   ----------------------------------------
	.byte	PATT
	 .word	I_May_Fall_0_2_031
@ 122   ----------------------------------------
	.byte	W92
	.byte	W03
	.byte		EOT   , An2 
	.byte		        En3 
	.byte		        An3 
	.byte		        Cn4 
	.byte	W01
@ 123   ----------------------------------------
	.byte	PATT
	 .word	I_May_Fall_0_2_025
@ 124   ----------------------------------------
	.byte	W96
@ 125   ----------------------------------------
	.byte	W96
@ 126   ----------------------------------------
	.byte	W96
@ 127   ----------------------------------------
	.byte	PATT
	 .word	I_May_Fall_0_2_029
@ 128   ----------------------------------------
I_May_Fall_0_2_128:
	.byte	W84
	.byte		N44   , Fs2 , v080
	.byte		N44   , An2 
	.byte		N44   , En3 
	.byte		N44   , An3 
	.byte	W12
	.byte	PEND
@ 129   ----------------------------------------
I_May_Fall_0_2_129:
	.byte	W36
	.byte		N23   , Gn2 , v080
	.byte		N23   , En3 
	.byte		N23   , Gn3 
	.byte	W24
	.byte		        Bn2 
	.byte		N23   , Dn3 
	.byte		N23   , Gn3 
	.byte		N23   , Bn3 
	.byte	W21
	.byte		N02   , An2 
	.byte	W03
	.byte		N92   , Gn2 
	.byte		N92   , Bn2 
	.byte		N92   , Dn3 
	.byte		N92   , Bn3 
	.byte	W12
	.byte	PEND
@ 130   ----------------------------------------
	.byte	PATT
	 .word	I_May_Fall_0_2_128
@ 131   ----------------------------------------
	.byte	PATT
	 .word	I_May_Fall_0_2_129
@ 132   ----------------------------------------
	.byte	PATT
	 .word	I_May_Fall_0_2_030
@ 133   ----------------------------------------
	.byte	PATT
	 .word	I_May_Fall_0_2_031
@ 134   ----------------------------------------
	.byte	W92
	.byte	W03
	.byte		EOT   , An2 
	.byte		        En3 
	.byte		        An3 
	.byte		        Cn4 
	.byte	W01
@ 135   ----------------------------------------
	.byte	W96
	.byte	GOTO
	 .word	I_May_Fall_0_2_B1
I_May_Fall_0_2_B2:
@ 136   ----------------------------------------
	.byte	FINE

@**************** Track 3 (Midi-Chn.3) ****************@

I_May_Fall_0_3:
	.byte	KEYSH , I_May_Fall_0_key+0
@ 000   ----------------------------------------
	.byte		VOICE , 29
	.byte		VOL   , 88*I_May_Fall_0_mvl/mxv
	.byte		PAN   , c_v+0
	.byte	W12
	.byte		TIE   , Fn2 , v064
	.byte		TIE   , An2 
	.byte		TIE   , Cn3 
	.byte		TIE   , En3 
	.byte		TIE   , An3 
	.byte	W84
@ 001   ----------------------------------------
	.byte	W56
	.byte	W03
	.byte		EOT   , Fn2 
	.byte		        An2 
	.byte		        Cn3 
	.byte		        En3 
	.byte		        An3 
	.byte	W24
	.byte	W01
	.byte		TIE   , An2 
	.byte		TIE   , Cn3 
	.byte		TIE   , En3 
	.byte		TIE   , An3 
	.byte	W12
@ 002   ----------------------------------------
	.byte	W92
	.byte	W03
	.byte		EOT   , An2 
	.byte		        Cn3 
	.byte		        En3 
	.byte		        An3 
	.byte	W01
@ 003   ----------------------------------------
	.byte	W96
@ 004   ----------------------------------------
	.byte		N80   , En3 
	.byte		N80   , Cn4 
	.byte	W84
	.byte		N56   , Dn3 
	.byte		N56   , Bn3 
	.byte	W12
@ 005   ----------------------------------------
	.byte	W96
@ 006   ----------------------------------------
	.byte		TIE   , As2 
	.byte		TIE   , Fn3 
	.byte		TIE   , An3 
	.byte		TIE   , Dn4 
	.byte	W96
@ 007   ----------------------------------------
	.byte	W92
	.byte	W03
	.byte		EOT   , As2 
	.byte		        Fn3 
	.byte		        An3 
	.byte		        Dn4 
	.byte	W01
@ 008   ----------------------------------------
	.byte	W96
@ 009   ----------------------------------------
	.byte	W96
@ 010   ----------------------------------------
	.byte	W96
@ 011   ----------------------------------------
	.byte	W96
@ 012   ----------------------------------------
	.byte	W96
@ 013   ----------------------------------------
	.byte	W96
@ 014   ----------------------------------------
	.byte	W96
@ 015   ----------------------------------------
	.byte	W96
@ 016   ----------------------------------------
	.byte	W96
@ 017   ----------------------------------------
	.byte	W96
@ 018   ----------------------------------------
	.byte	W96
@ 019   ----------------------------------------
	.byte	W96
@ 020   ----------------------------------------
	.byte	W96
@ 021   ----------------------------------------
	.byte	W96
@ 022   ----------------------------------------
	.byte	W96
@ 023   ----------------------------------------
	.byte	W96
@ 024   ----------------------------------------
	.byte	W96
@ 025   ----------------------------------------
	.byte	W96
@ 026   ----------------------------------------
	.byte	W96
@ 027   ----------------------------------------
	.byte	W96
@ 028   ----------------------------------------
	.byte	W96
@ 029   ----------------------------------------
	.byte	W96
@ 030   ----------------------------------------
	.byte	W96
@ 031   ----------------------------------------
	.byte	W96
@ 032   ----------------------------------------
	.byte	W96
@ 033   ----------------------------------------
	.byte	W96
@ 034   ----------------------------------------
	.byte	W96
@ 035   ----------------------------------------
	.byte	W96
@ 036   ----------------------------------------
	.byte	W96
@ 037   ----------------------------------------
	.byte	W96
@ 038   ----------------------------------------
	.byte	W96
@ 039   ----------------------------------------
	.byte	W96
@ 040   ----------------------------------------
	.byte	W96
@ 041   ----------------------------------------
	.byte	W84
	.byte		TIE   , Cn3 
	.byte		TIE   , En3 
	.byte	W12
@ 042   ----------------------------------------
	.byte	W96
@ 043   ----------------------------------------
	.byte	W11
	.byte		EOT   , Cn3 
	.byte		        En3 
	.byte	W01
	.byte		N11   , Gn2 
	.byte		N11   , Dn3 
	.byte	W84
@ 044   ----------------------------------------
	.byte	W24
	.byte		N23   , Cn3 
	.byte		N23   , En3 
	.byte	W72
@ 045   ----------------------------------------
	.byte	W36
	.byte		N56   , Dn4 
	.byte	W60
@ 046   ----------------------------------------
	.byte	W84
	.byte		N23   , Cn4 
	.byte		N23   , Gn4 
	.byte	W12
@ 047   ----------------------------------------
	.byte	W96
@ 048   ----------------------------------------
	.byte		N92   , Fn3 
	.byte		N92   , An3 
	.byte	W96
@ 049   ----------------------------------------
	.byte	W96
@ 050   ----------------------------------------
	.byte	W96
@ 051   ----------------------------------------
	.byte	W96
@ 052   ----------------------------------------
	.byte	W96
@ 053   ----------------------------------------
	.byte	W96
@ 054   ----------------------------------------
	.byte	W96
@ 055   ----------------------------------------
	.byte	W96
@ 056   ----------------------------------------
	.byte	W96
@ 057   ----------------------------------------
	.byte	W96
@ 058   ----------------------------------------
	.byte	W96
@ 059   ----------------------------------------
	.byte	W96
@ 060   ----------------------------------------
	.byte	W96
@ 061   ----------------------------------------
	.byte	W96
@ 062   ----------------------------------------
	.byte	W96
@ 063   ----------------------------------------
	.byte	W96
@ 064   ----------------------------------------
	.byte	W96
@ 065   ----------------------------------------
	.byte	W96
@ 066   ----------------------------------------
	.byte	W96
@ 067   ----------------------------------------
	.byte	W96
@ 068   ----------------------------------------
	.byte	W96
@ 069   ----------------------------------------
	.byte	W96
@ 070   ----------------------------------------
	.byte	W96
@ 071   ----------------------------------------
	.byte	W96
@ 072   ----------------------------------------
	.byte	W96
@ 073   ----------------------------------------
	.byte	W96
@ 074   ----------------------------------------
	.byte	W96
@ 075   ----------------------------------------
	.byte	W96
@ 076   ----------------------------------------
	.byte	W96
@ 077   ----------------------------------------
	.byte	W96
@ 078   ----------------------------------------
	.byte	W96
@ 079   ----------------------------------------
	.byte	W96
@ 080   ----------------------------------------
	.byte	W96
@ 081   ----------------------------------------
	.byte	W96
@ 082   ----------------------------------------
	.byte	W96
@ 083   ----------------------------------------
	.byte	W96
@ 084   ----------------------------------------
	.byte	W96
@ 085   ----------------------------------------
	.byte	W96
@ 086   ----------------------------------------
	.byte	W96
@ 087   ----------------------------------------
	.byte	W96
@ 088   ----------------------------------------
	.byte	W96
@ 089   ----------------------------------------
	.byte	W96
@ 090   ----------------------------------------
	.byte	W96
@ 091   ----------------------------------------
	.byte	W96
@ 092   ----------------------------------------
	.byte	W96
@ 093   ----------------------------------------
	.byte	W96
@ 094   ----------------------------------------
	.byte	W96
@ 095   ----------------------------------------
	.byte	W96
@ 096   ----------------------------------------
	.byte	W96
@ 097   ----------------------------------------
	.byte	W48
I_May_Fall_0_3_B1:
	.byte	W48
@ 098   ----------------------------------------
	.byte	W96
@ 099   ----------------------------------------
	.byte	W96
@ 100   ----------------------------------------
	.byte	W96
@ 101   ----------------------------------------
	.byte	W96
@ 102   ----------------------------------------
	.byte	W96
@ 103   ----------------------------------------
	.byte	W96
@ 104   ----------------------------------------
	.byte	W96
@ 105   ----------------------------------------
	.byte	W96
@ 106   ----------------------------------------
	.byte	W96
@ 107   ----------------------------------------
	.byte	W96
@ 108   ----------------------------------------
	.byte	W96
@ 109   ----------------------------------------
	.byte	W96
@ 110   ----------------------------------------
	.byte	W96
@ 111   ----------------------------------------
	.byte	W96
@ 112   ----------------------------------------
	.byte	W96
@ 113   ----------------------------------------
	.byte	W96
@ 114   ----------------------------------------
	.byte	W96
@ 115   ----------------------------------------
	.byte	W96
@ 116   ----------------------------------------
	.byte	W96
@ 117   ----------------------------------------
	.byte	W96
@ 118   ----------------------------------------
	.byte	W96
@ 119   ----------------------------------------
	.byte	W96
@ 120   ----------------------------------------
	.byte	W96
@ 121   ----------------------------------------
	.byte	W96
@ 122   ----------------------------------------
	.byte	W96
@ 123   ----------------------------------------
	.byte	W96
@ 124   ----------------------------------------
	.byte	W96
@ 125   ----------------------------------------
	.byte	W96
@ 126   ----------------------------------------
	.byte	W96
@ 127   ----------------------------------------
	.byte	W96
@ 128   ----------------------------------------
	.byte	W96
@ 129   ----------------------------------------
	.byte	W96
@ 130   ----------------------------------------
	.byte	W96
@ 131   ----------------------------------------
	.byte	W96
@ 132   ----------------------------------------
	.byte	W96
@ 133   ----------------------------------------
	.byte	W96
@ 134   ----------------------------------------
	.byte	W96
@ 135   ----------------------------------------
	.byte	W96
	.byte	GOTO
	 .word	I_May_Fall_0_3_B1
I_May_Fall_0_3_B2:
@ 136   ----------------------------------------
	.byte	FINE

@**************** Track 4 (Midi-Chn.4) ****************@

I_May_Fall_0_4:
	.byte	KEYSH , I_May_Fall_0_key+0
@ 000   ----------------------------------------
	.byte		VOICE , 30
	.byte		VOL   , 88*I_May_Fall_0_mvl/mxv
	.byte		PAN   , c_v+0
	.byte		N11   , Fn1 , v096
	.byte		N11   , Cn2 
	.byte	W12
	.byte		        Fn1 
	.byte		N11   , Cn2 
	.byte	W12
	.byte		        Fn1 
	.byte		N11   , Cn2 
	.byte	W12
	.byte		        Fn1 
	.byte		N11   , Cn2 
	.byte	W12
	.byte		        Fn1 
	.byte		N11   , Cn2 
	.byte	W12
	.byte		        Fn1 
	.byte		N11   , Cn2 
	.byte	W12
	.byte		        Fn1 
	.byte		N11   , Cn2 
	.byte	W12
	.byte		        Gn1 
	.byte		N11   , Dn2 
	.byte	W12
@ 001   ----------------------------------------
I_May_Fall_0_4_001:
	.byte		N11   , Gn1 , v096
	.byte		N11   , Dn2 
	.byte	W12
	.byte		        Gn1 
	.byte		N11   , Dn2 
	.byte	W12
	.byte		        Gn1 
	.byte		N11   , Dn2 
	.byte	W12
	.byte		        An1 
	.byte		N11   , En2 
	.byte	W12
	.byte		        An1 
	.byte		N11   , En2 
	.byte	W12
	.byte		        An1 
	.byte		N11   , En2 
	.byte	W12
	.byte		        An1 
	.byte		N11   , En2 
	.byte	W12
	.byte		        Fn1 
	.byte		N11   , Cn2 
	.byte	W12
	.byte	PEND
@ 002   ----------------------------------------
I_May_Fall_0_4_002:
	.byte		N11   , Fn1 , v096
	.byte		N11   , Cn2 
	.byte	W12
	.byte		        Fn1 
	.byte		N11   , Cn2 
	.byte	W12
	.byte		        Fn1 
	.byte		N11   , Cn2 
	.byte	W12
	.byte		        Fn1 
	.byte		N11   , Cn2 
	.byte	W12
	.byte		        Fn1 
	.byte		N11   , Cn2 
	.byte	W12
	.byte		        Fn1 
	.byte		N11   , Cn2 
	.byte	W12
	.byte		        Fn1 
	.byte		N11   , Cn2 
	.byte	W12
	.byte		        Gn1 
	.byte		N11   , Dn2 
	.byte	W12
	.byte	PEND
@ 003   ----------------------------------------
	.byte	PATT
	 .word	I_May_Fall_0_4_001
@ 004   ----------------------------------------
	.byte	PATT
	 .word	I_May_Fall_0_4_002
@ 005   ----------------------------------------
	.byte		N11   , Gn1 , v096
	.byte		N11   , Dn2 
	.byte	W12
	.byte		        Gn1 
	.byte		N11   , Dn2 
	.byte	W12
	.byte		        Gn1 
	.byte		N11   , Dn2 
	.byte	W12
	.byte		        An1 
	.byte		N11   , En2 
	.byte	W12
	.byte		        An1 
	.byte		N11   , En2 
	.byte	W12
	.byte		        An1 
	.byte		N11   , En2 
	.byte	W12
	.byte		        An1 
	.byte		N11   , En2 
	.byte	W12
	.byte		        An1 
	.byte		N11   , En2 
	.byte	W12
@ 006   ----------------------------------------
I_May_Fall_0_4_006:
	.byte		N11   , As1 , v096
	.byte		N11   , Fn2 
	.byte	W12
	.byte		        As1 
	.byte		N11   , Fn2 
	.byte	W12
	.byte		        As1 
	.byte		N11   , Fn2 
	.byte	W12
	.byte		        As1 
	.byte		N11   , Fn2 
	.byte	W12
	.byte		        As1 
	.byte		N11   , Fn2 
	.byte	W12
	.byte		        As1 
	.byte		N11   , Fn2 
	.byte	W12
	.byte		        As1 
	.byte		N11   , Fn2 
	.byte	W12
	.byte		        As1 
	.byte		N11   , Fn2 
	.byte	W12
	.byte	PEND
@ 007   ----------------------------------------
I_May_Fall_0_4_007:
	.byte		N11   , As1 , v096
	.byte		N11   , Fn2 
	.byte	W12
	.byte		        As1 
	.byte		N11   , Fn2 
	.byte	W12
	.byte		        As1 
	.byte		N11   , Fn2 
	.byte	W12
	.byte		        As1 
	.byte		N11   , Fn2 
	.byte	W12
	.byte		        As1 
	.byte		N11   , Fn2 
	.byte	W12
	.byte		        As1 
	.byte		N11   , Fn2 
	.byte	W12
	.byte		        As1 
	.byte		N11   , Fn2 
	.byte	W12
	.byte		N23   , Fn1 
	.byte		N23   , Cn2 
	.byte	W12
	.byte	PEND
@ 008   ----------------------------------------
I_May_Fall_0_4_008:
	.byte	W12
	.byte		N11   , Fn1 , v096
	.byte		N11   , Cn2 
	.byte	W12
	.byte		        Fn1 
	.byte		N11   , Cn2 
	.byte	W12
	.byte		        Fn1 
	.byte		N11   , Cn2 
	.byte	W12
	.byte		        Fn1 
	.byte		N11   , Cn2 
	.byte	W12
	.byte		        Fn1 
	.byte		N11   , Cn2 
	.byte	W12
	.byte		        Fn1 
	.byte		N11   , Cn2 
	.byte	W12
	.byte		N23   , Gn1 
	.byte		N23   , Dn2 
	.byte	W12
	.byte	PEND
@ 009   ----------------------------------------
I_May_Fall_0_4_009:
	.byte	W12
	.byte		N11   , Gn1 , v096
	.byte		N11   , Dn2 
	.byte	W12
	.byte		        Gn1 
	.byte		N11   , Dn2 
	.byte	W12
	.byte		N23   , An1 
	.byte		N23   , En2 
	.byte	W24
	.byte		N11   , An1 
	.byte		N11   , En2 
	.byte	W12
	.byte		        An1 
	.byte		N11   , En2 
	.byte	W12
	.byte		N23   , Fn1 
	.byte		N23   , Cn2 
	.byte	W12
	.byte	PEND
@ 010   ----------------------------------------
	.byte	PATT
	 .word	I_May_Fall_0_4_008
@ 011   ----------------------------------------
	.byte	PATT
	 .word	I_May_Fall_0_4_009
@ 012   ----------------------------------------
	.byte	PATT
	 .word	I_May_Fall_0_4_008
@ 013   ----------------------------------------
	.byte	W12
	.byte		N11   , Gn1 , v096
	.byte		N11   , Dn2 
	.byte	W12
	.byte		        Gn1 
	.byte		N11   , Dn2 
	.byte	W12
	.byte		N23   , An1 
	.byte		N23   , En2 
	.byte	W24
	.byte		N11   , An1 
	.byte		N11   , En2 
	.byte	W12
	.byte		        An1 
	.byte		N11   , En2 
	.byte	W12
	.byte		N23   , As1 
	.byte		N23   , Fn2 
	.byte	W12
@ 014   ----------------------------------------
	.byte	W12
	.byte		N11   , As1 
	.byte		N11   , Fn2 
	.byte	W12
	.byte		        As1 
	.byte		N11   , Fn2 
	.byte	W12
	.byte		        As1 
	.byte		N11   , Fn2 
	.byte	W12
	.byte		        As1 
	.byte		N11   , Fn2 
	.byte	W12
	.byte		        As1 
	.byte		N11   , Fn2 
	.byte	W12
	.byte		        As1 
	.byte		N11   , Fn2 
	.byte	W12
	.byte		N23   , As1 
	.byte		N23   , Fn2 
	.byte	W12
@ 015   ----------------------------------------
	.byte	W12
	.byte		N11   , As1 
	.byte		N11   , Fn2 
	.byte	W12
	.byte		        As1 
	.byte		N11   , Fn2 
	.byte	W12
	.byte		        As1 
	.byte		N11   , Fn2 
	.byte	W12
	.byte		        As1 
	.byte		N11   , Fn2 
	.byte	W12
	.byte		        As1 
	.byte		N11   , Fn2 
	.byte	W12
	.byte		        As1 
	.byte		N11   , Fn2 
	.byte	W12
	.byte		N23   , Fn1 
	.byte		N23   , Cn2 
	.byte	W12
@ 016   ----------------------------------------
I_May_Fall_0_4_016:
	.byte	W12
	.byte		N05   , Fn1 , v096
	.byte		N05   , Cn2 
	.byte	W06
	.byte		        Fn1 
	.byte		N05   , Cn2 
	.byte	W06
	.byte		N11   , Fn1 
	.byte		N11   , Cn2 
	.byte	W12
	.byte		N05   , Fn1 
	.byte		N05   , Cn2 
	.byte	W06
	.byte		        Fn1 
	.byte		N05   , Cn2 
	.byte	W06
	.byte		N11   , Fn1 
	.byte		N11   , Cn2 
	.byte	W12
	.byte		N05   , Fn1 
	.byte		N05   , Cn2 
	.byte	W06
	.byte		        Fn1 
	.byte		N05   , Cn2 
	.byte	W06
	.byte		N11   , Fn1 
	.byte		N11   , Cn2 
	.byte	W12
	.byte		N05   , Fn1 
	.byte		N05   , Cn2 
	.byte	W06
	.byte		        Fn1 
	.byte		N05   , Cn2 
	.byte	W06
	.byte	PEND
@ 017   ----------------------------------------
I_May_Fall_0_4_017:
	.byte		N11   , Fn1 , v096
	.byte		N11   , Cn2 
	.byte	W12
	.byte		N05   , Fn1 
	.byte		N05   , Cn2 
	.byte	W06
	.byte		        Fn1 
	.byte		N05   , Cn2 
	.byte	W06
	.byte		N11   , Fn1 
	.byte		N11   , Cn2 
	.byte	W12
	.byte		N05   , Fn1 
	.byte		N05   , Cn2 
	.byte	W06
	.byte		        Fn1 
	.byte		N05   , Cn2 
	.byte	W06
	.byte		N11   , Fn1 
	.byte		N11   , Cn2 
	.byte	W12
	.byte		N05   , Fn1 
	.byte		N05   , Cn2 
	.byte	W06
	.byte		        Fn1 
	.byte		N05   , Cn2 
	.byte	W06
	.byte		N11   , Fn1 
	.byte		N11   , Cn2 
	.byte	W12
	.byte		N05   , Fn1 
	.byte		N05   , Cn2 
	.byte	W06
	.byte		        Fn1 
	.byte		N05   , Cn2 
	.byte	W06
	.byte	PEND
@ 018   ----------------------------------------
	.byte	PATT
	 .word	I_May_Fall_0_4_017
@ 019   ----------------------------------------
I_May_Fall_0_4_019:
	.byte		N11   , Fn1 , v096
	.byte		N11   , Cn2 
	.byte	W12
	.byte		N05   , Fn1 
	.byte		N05   , Cn2 
	.byte	W06
	.byte		        Fn1 
	.byte		N05   , Cn2 
	.byte	W06
	.byte		N11   , Fn1 
	.byte		N11   , Cn2 
	.byte	W12
	.byte		N05   , Fn1 
	.byte		N05   , Cn2 
	.byte	W06
	.byte		        Fn1 
	.byte		N05   , Cn2 
	.byte	W06
	.byte		N11   , Fn1 
	.byte		N11   , Cn2 
	.byte	W12
	.byte		N05   , Fn1 
	.byte		N05   , Cn2 
	.byte	W06
	.byte		        Fn1 
	.byte		N05   , Cn2 
	.byte	W06
	.byte		N11   , Fn1 
	.byte		N11   , Cn2 
	.byte	W12
	.byte		N23   , En1 
	.byte		N23   , Bn1 
	.byte	W12
	.byte	PEND
@ 020   ----------------------------------------
I_May_Fall_0_4_020:
	.byte	W12
	.byte		N05   , En1 , v096
	.byte		N05   , Bn1 
	.byte	W06
	.byte		        En1 
	.byte		N05   , Bn1 
	.byte	W06
	.byte		N11   , En1 
	.byte		N11   , Bn1 
	.byte	W12
	.byte		N05   , En1 
	.byte		N05   , Bn1 
	.byte	W06
	.byte		        En1 
	.byte		N05   , Bn1 
	.byte	W06
	.byte		N11   , En1 
	.byte		N11   , Bn1 
	.byte	W12
	.byte		N05   , En1 
	.byte		N05   , Bn1 
	.byte	W06
	.byte		        En1 
	.byte		N05   , Bn1 
	.byte	W06
	.byte		N11   , En1 
	.byte		N11   , Bn1 
	.byte	W12
	.byte		N23   , Gn1 
	.byte		N23   , Dn2 
	.byte	W12
	.byte	PEND
@ 021   ----------------------------------------
I_May_Fall_0_4_021:
	.byte	W12
	.byte		N11   , An1 , v096
	.byte		N11   , En2 
	.byte	W12
	.byte		        An1 
	.byte		N11   , En2 
	.byte	W12
	.byte		N23   , An1 
	.byte		N23   , En2 
	.byte	W24
	.byte		N11   , An1 
	.byte		N11   , En2 
	.byte	W12
	.byte		        An1 
	.byte		N11   , En2 
	.byte	W12
	.byte		N23   , Cn2 
	.byte		N23   , Gn2 
	.byte	W12
	.byte	PEND
@ 022   ----------------------------------------
I_May_Fall_0_4_022:
	.byte	W12
	.byte		N11   , Cn2 , v096
	.byte		N11   , Gn2 
	.byte	W12
	.byte		        Cn2 
	.byte		N11   , Gn2 
	.byte	W12
	.byte		N23   , Dn2 
	.byte		N23   , An2 
	.byte	W24
	.byte		N11   , Dn2 
	.byte		N11   , An2 
	.byte	W12
	.byte		        Dn2 
	.byte		N11   , An2 
	.byte	W12
	.byte		N23   , En2 
	.byte		N23   , Bn2 
	.byte	W12
	.byte	PEND
@ 023   ----------------------------------------
I_May_Fall_0_4_023:
	.byte	W12
	.byte		N11   , En2 , v096
	.byte		N11   , Bn2 
	.byte	W12
	.byte		        En2 
	.byte		N11   , Bn2 
	.byte	W12
	.byte		N23   , Gn2 
	.byte		N23   , Dn3 
	.byte	W24
	.byte		N11   , Gn2 
	.byte		N11   , Dn3 
	.byte	W12
	.byte		        Gn2 
	.byte		N11   , Dn3 
	.byte	W12
	.byte		TIE   , En2 
	.byte		TIE   , Bn2 
	.byte	W12
	.byte	PEND
@ 024   ----------------------------------------
	.byte	W92
	.byte	W03
	.byte		EOT   , En2 
	.byte		        Bn2 
	.byte	W01
@ 025   ----------------------------------------
I_May_Fall_0_4_025:
	.byte		N32   , En2 , v096
	.byte		N32   , Bn2 
	.byte	W36
	.byte		        Dn2 
	.byte		N32   , An2 
	.byte	W36
	.byte		N92   , En2 
	.byte		N92   , Bn2 
	.byte	W24
	.byte	PEND
@ 026   ----------------------------------------
	.byte	W72
	.byte		N05   , Dn2 
	.byte		N05   , An2 
	.byte	W06
	.byte		        Dn2 
	.byte		N05   , An2 
	.byte	W06
	.byte		N92   , Dn2 
	.byte		N92   , An2 
	.byte	W12
@ 027   ----------------------------------------
I_May_Fall_0_4_027:
	.byte	W84
	.byte		N92   , Dn2 , v096
	.byte		N92   , An2 
	.byte	W12
	.byte	PEND
@ 028   ----------------------------------------
	.byte	W84
	.byte		N44   , Gn2 
	.byte		N44   , Dn3 
	.byte	W12
@ 029   ----------------------------------------
I_May_Fall_0_4_029:
	.byte	W36
	.byte		N23   , En2 , v096
	.byte		N23   , Bn2 
	.byte	W24
	.byte		        Dn2 
	.byte		N23   , An2 
	.byte	W24
	.byte		N92   , En2 
	.byte		N92   , Bn2 
	.byte	W12
	.byte	PEND
@ 030   ----------------------------------------
	.byte	PATT
	 .word	I_May_Fall_0_4_027
@ 031   ----------------------------------------
I_May_Fall_0_4_031:
	.byte	W84
	.byte		N11   , An2 , v096
	.byte		N11   , En3 
	.byte	W12
	.byte	PEND
@ 032   ----------------------------------------
I_May_Fall_0_4_032:
	.byte		N11   , An2 , v096
	.byte		N11   , En3 
	.byte	W12
	.byte		        An2 
	.byte		N11   , En3 
	.byte	W12
	.byte		        An2 
	.byte		N11   , En3 
	.byte	W12
	.byte		        An2 
	.byte		N11   , En3 
	.byte	W12
	.byte		        An2 
	.byte		N11   , En3 
	.byte	W12
	.byte		        An2 
	.byte		N11   , En3 
	.byte	W12
	.byte		        An2 
	.byte		N11   , En3 
	.byte	W12
	.byte		        An2 
	.byte		N11   , En3 
	.byte	W12
	.byte	PEND
@ 033   ----------------------------------------
	.byte	PATT
	 .word	I_May_Fall_0_4_025
@ 034   ----------------------------------------
	.byte	W72
	.byte		N92   , Dn2 , v096
	.byte		N92   , An2 
	.byte	W24
@ 035   ----------------------------------------
	.byte	W72
	.byte		N32   , Gn2 
	.byte		N32   , Dn3 
	.byte	W24
@ 036   ----------------------------------------
	.byte	W12
	.byte		N11   , Gn2 
	.byte		N11   , Dn3 
	.byte	W12
	.byte		        Gn2 
	.byte		N11   , Dn3 
	.byte	W12
	.byte		        Gn2 
	.byte		N11   , Dn3 
	.byte	W12
	.byte		        Gn2 
	.byte		N11   , Dn3 
	.byte	W12
	.byte		        Gn2 
	.byte		N11   , Dn3 
	.byte	W12
	.byte		        Gn2 
	.byte		N11   , Dn3 
	.byte	W12
	.byte		        Gn2 
	.byte		N11   , Dn3 
	.byte	W12
@ 037   ----------------------------------------
	.byte		        Gn2 
	.byte		N11   , Dn3 
	.byte	W12
	.byte		        Gn2 
	.byte		N11   , Dn3 
	.byte	W24
	.byte		N23   , En2 
	.byte		N23   , Bn2 
	.byte	W24
	.byte		        Dn2 
	.byte		N23   , An2 
	.byte	W24
	.byte		N92   , En2 
	.byte		N92   , Bn2 
	.byte	W12
@ 038   ----------------------------------------
	.byte	PATT
	 .word	I_May_Fall_0_4_027
@ 039   ----------------------------------------
	.byte	W84
	.byte		N23   , An2 , v096
	.byte		N23   , En3 
	.byte	W12
@ 040   ----------------------------------------
	.byte	W12
	.byte		N11   , An2 
	.byte		N11   , En3 
	.byte	W12
	.byte		        An2 
	.byte		N11   , En3 
	.byte	W12
	.byte		        An2 
	.byte		N11   , En3 
	.byte	W12
	.byte		        An2 
	.byte		N11   , En3 
	.byte	W12
	.byte		        An2 
	.byte		N11   , En3 
	.byte	W12
	.byte		        An2 
	.byte		N11   , En3 
	.byte	W12
	.byte		        An2 
	.byte		N11   , En3 
	.byte	W12
@ 041   ----------------------------------------
	.byte		        An2 
	.byte		N11   , En3 
	.byte	W12
	.byte		        An2 
	.byte		N11   , En3 
	.byte	W12
	.byte		        An2 
	.byte		N11   , En3 
	.byte	W12
	.byte		        An2 
	.byte		N11   , En3 
	.byte	W12
	.byte		        An2 
	.byte		N11   , En3 
	.byte	W12
	.byte		        An2 
	.byte		N11   , En3 
	.byte	W12
	.byte		        An2 
	.byte		N11   , En3 
	.byte	W24
@ 042   ----------------------------------------
	.byte	W96
@ 043   ----------------------------------------
	.byte	W96
@ 044   ----------------------------------------
	.byte	W96
@ 045   ----------------------------------------
	.byte	W96
@ 046   ----------------------------------------
	.byte	W96
@ 047   ----------------------------------------
	.byte	W96
@ 048   ----------------------------------------
	.byte	W96
@ 049   ----------------------------------------
	.byte	W84
	.byte		N23   , Fn1 
	.byte		N23   , Cn2 
	.byte	W12
@ 050   ----------------------------------------
I_May_Fall_0_4_050:
	.byte	W12
	.byte		N11   , Fn1 , v096
	.byte		N11   , Cn2 
	.byte	W12
	.byte		        Fn1 
	.byte		N11   , Cn2 
	.byte	W12
	.byte		        Fn1 
	.byte		N11   , Cn2 
	.byte	W12
	.byte		        Fn1 
	.byte		N11   , Cn2 
	.byte	W12
	.byte		        Fn1 
	.byte		N11   , Cn2 
	.byte	W12
	.byte		        Fn1 
	.byte		N11   , Cn2 
	.byte	W12
	.byte		        Gn1 
	.byte		N11   , Dn2 
	.byte	W12
	.byte	PEND
@ 051   ----------------------------------------
I_May_Fall_0_4_051:
	.byte		N11   , Gn1 , v096
	.byte		N11   , Dn2 
	.byte	W12
	.byte		        Gn1 
	.byte		N11   , Dn2 
	.byte	W12
	.byte		        Gn1 
	.byte		N11   , Dn2 
	.byte	W12
	.byte		N23   , An1 
	.byte		N23   , En2 
	.byte	W24
	.byte		N11   , An1 
	.byte		N11   , En2 
	.byte	W12
	.byte		        An1 
	.byte		N11   , En2 
	.byte	W12
	.byte		        Fn1 
	.byte		N11   , Cn2 
	.byte	W12
	.byte	PEND
@ 052   ----------------------------------------
	.byte	PATT
	 .word	I_May_Fall_0_4_002
@ 053   ----------------------------------------
	.byte	PATT
	 .word	I_May_Fall_0_4_051
@ 054   ----------------------------------------
	.byte	PATT
	 .word	I_May_Fall_0_4_002
@ 055   ----------------------------------------
	.byte		N11   , Gn1 , v096
	.byte		N11   , Dn2 
	.byte	W12
	.byte		        Gn1 
	.byte		N11   , Dn2 
	.byte	W12
	.byte		        Gn1 
	.byte		N11   , Dn2 
	.byte	W12
	.byte		N23   , An1 
	.byte		N23   , En2 
	.byte	W24
	.byte		N11   , An1 
	.byte		N11   , En2 
	.byte	W12
	.byte		        An1 
	.byte		N11   , En2 
	.byte	W12
	.byte		N23   , As1 
	.byte		N23   , Fn2 
	.byte	W12
@ 056   ----------------------------------------
	.byte	W12
	.byte		N11   , As1 
	.byte		N11   , Fn2 
	.byte	W12
	.byte		        As1 
	.byte		N11   , Fn2 
	.byte	W12
	.byte		        As1 
	.byte		N11   , Fn2 
	.byte	W12
	.byte		        As1 
	.byte		N11   , Fn2 
	.byte	W12
	.byte		        As1 
	.byte		N11   , Fn2 
	.byte	W12
	.byte		        As1 
	.byte		N11   , Fn2 
	.byte	W12
	.byte		        As1 
	.byte		N11   , Fn2 
	.byte	W12
@ 057   ----------------------------------------
	.byte	PATT
	 .word	I_May_Fall_0_4_007
@ 058   ----------------------------------------
	.byte	PATT
	 .word	I_May_Fall_0_4_016
@ 059   ----------------------------------------
	.byte	PATT
	 .word	I_May_Fall_0_4_017
@ 060   ----------------------------------------
	.byte	PATT
	 .word	I_May_Fall_0_4_017
@ 061   ----------------------------------------
	.byte	PATT
	 .word	I_May_Fall_0_4_019
@ 062   ----------------------------------------
	.byte	PATT
	 .word	I_May_Fall_0_4_020
@ 063   ----------------------------------------
	.byte	PATT
	 .word	I_May_Fall_0_4_021
@ 064   ----------------------------------------
	.byte	PATT
	 .word	I_May_Fall_0_4_022
@ 065   ----------------------------------------
	.byte	PATT
	 .word	I_May_Fall_0_4_023
@ 066   ----------------------------------------
	.byte	W92
	.byte	W03
	.byte		EOT   , En2 
	.byte		        Bn2 
	.byte	W01
@ 067   ----------------------------------------
I_May_Fall_0_4_067:
	.byte		N32   , En2 , v096
	.byte		N32   , Bn2 
	.byte	W36
	.byte		        Dn2 
	.byte		N32   , An2 
	.byte	W36
	.byte		TIE   , En2 
	.byte		TIE   , Bn2 
	.byte	W24
	.byte	PEND
@ 068   ----------------------------------------
	.byte	W80
	.byte	W03
	.byte		EOT   , En2 
	.byte		        Bn2 
	.byte	W01
	.byte		N92   , Dn2 
	.byte		N92   , An2 
	.byte	W12
@ 069   ----------------------------------------
I_May_Fall_0_4_069:
	.byte	W84
	.byte		N23   , Dn2 , v096
	.byte		N23   , An2 
	.byte	W12
	.byte	PEND
@ 070   ----------------------------------------
	.byte	W12
	.byte		N11   , Dn2 
	.byte		N11   , An2 
	.byte	W12
	.byte		        Dn2 
	.byte		N11   , An2 
	.byte	W12
	.byte		        Dn2 
	.byte		N11   , An2 
	.byte	W12
	.byte		        Dn2 
	.byte		N11   , An2 
	.byte	W12
	.byte		        Dn2 
	.byte		N11   , An2 
	.byte	W12
	.byte		        Dn2 
	.byte		N11   , An2 
	.byte	W12
	.byte		N23   , Gn2 
	.byte		N23   , Dn3 
	.byte	W12
@ 071   ----------------------------------------
I_May_Fall_0_4_071:
	.byte	W12
	.byte		N11   , Gn2 , v096
	.byte		N11   , Dn3 
	.byte	W12
	.byte		        Gn2 
	.byte		N11   , Dn3 
	.byte	W12
	.byte		N23   , Gn2 
	.byte		N23   , Dn3 
	.byte	W24
	.byte		        Dn2 
	.byte		N23   , An2 
	.byte	W24
	.byte		N92   , En2 
	.byte		N92   , Bn2 
	.byte	W12
	.byte	PEND
@ 072   ----------------------------------------
	.byte	PATT
	 .word	I_May_Fall_0_4_027
@ 073   ----------------------------------------
	.byte	PATT
	 .word	I_May_Fall_0_4_031
@ 074   ----------------------------------------
	.byte	PATT
	 .word	I_May_Fall_0_4_032
@ 075   ----------------------------------------
I_May_Fall_0_4_075:
	.byte		N11   , An2 , v096
	.byte		N11   , En3 
	.byte	W12
	.byte		        An2 
	.byte		N11   , En3 
	.byte	W12
	.byte		        An2 
	.byte		N11   , En3 
	.byte	W12
	.byte		N32   , Dn2 
	.byte		N32   , An2 
	.byte	W36
	.byte		N92   , En2 
	.byte		N92   , Bn2 
	.byte	W24
	.byte	PEND
@ 076   ----------------------------------------
I_May_Fall_0_4_076:
	.byte	W72
	.byte		TIE   , Dn2 , v096
	.byte		TIE   , An2 
	.byte	W24
	.byte	PEND
@ 077   ----------------------------------------
	.byte	W80
	.byte	W03
	.byte		EOT   , Dn2 
	.byte		        An2 
	.byte	W01
	.byte		N11   , Gn2 
	.byte		N11   , Dn3 
	.byte	W12
@ 078   ----------------------------------------
I_May_Fall_0_4_078:
	.byte		N11   , Gn2 , v096
	.byte		N11   , Dn3 
	.byte	W12
	.byte		        Gn2 
	.byte		N11   , Dn3 
	.byte	W12
	.byte		        Gn2 
	.byte		N11   , Dn3 
	.byte	W12
	.byte		        Gn2 
	.byte		N11   , Dn3 
	.byte	W12
	.byte		        Gn2 
	.byte		N11   , Dn3 
	.byte	W12
	.byte		        Gn2 
	.byte		N11   , Dn3 
	.byte	W12
	.byte		        Gn2 
	.byte		N11   , Dn3 
	.byte	W12
	.byte		        Gn2 
	.byte		N11   , Dn3 
	.byte	W12
	.byte	PEND
@ 079   ----------------------------------------
	.byte		        Gn2 
	.byte		N11   , Dn3 
	.byte	W12
	.byte		        Gn2 
	.byte		N11   , Dn3 
	.byte	W12
	.byte		        Gn2 
	.byte		N11   , Dn3 
	.byte	W12
	.byte		        Gn2 
	.byte		N11   , Dn3 
	.byte	W24
	.byte		N23   , Dn2 
	.byte		N23   , An2 
	.byte	W24
	.byte		N92   , En2 
	.byte		N92   , Bn2 
	.byte	W12
@ 080   ----------------------------------------
	.byte	PATT
	 .word	I_May_Fall_0_4_027
@ 081   ----------------------------------------
	.byte	W96
@ 082   ----------------------------------------
	.byte		N17   , Cn3 , v096
	.byte		N17   , Gn3 
	.byte	W18
	.byte		        Cn3 
	.byte		N17   , Gn3 
	.byte	W18
	.byte		N11   , Cn3 
	.byte		N11   , Gn3 
	.byte	W12
	.byte		N23   , Cn3 
	.byte		N23   , Gn3 
	.byte	W24
	.byte		N11   , Cn3 
	.byte		N11   , Gn3 
	.byte	W24
@ 083   ----------------------------------------
	.byte		N17   , Bn2 
	.byte		N17   , Gn3 
	.byte	W18
	.byte		        Bn2 
	.byte		N17   , Gn3 
	.byte	W18
	.byte		N11   , Cn3 
	.byte		N11   , Gn3 
	.byte	W12
	.byte		N23   , Cn3 
	.byte		N23   , Gn3 
	.byte	W24
	.byte		N11   , Cn3 
	.byte		N11   , Gn3 
	.byte	W24
@ 084   ----------------------------------------
	.byte		N17   , En3 
	.byte		N17   , Bn3 
	.byte	W18
	.byte		        En3 
	.byte		N17   , Bn3 
	.byte	W18
	.byte		N11   , Cn3 
	.byte		N11   , Gn3 
	.byte	W12
	.byte		N32   , Cn3 
	.byte		N32   , Gn3 
	.byte	W36
	.byte		N11   , Cn3 
	.byte		N11   , Gn3 
	.byte	W12
@ 085   ----------------------------------------
	.byte		N17   , Cn3 
	.byte		N17   , Gn3 
	.byte	W18
	.byte		        Cn3 
	.byte		N17   , Gn3 
	.byte	W18
	.byte		N11   , Bn2 
	.byte		N11   , Gn3 
	.byte	W12
	.byte		N23   , Bn2 
	.byte		N23   , Gn3 
	.byte	W24
	.byte		N11   , Cn3 
	.byte		N11   , Gn3 
	.byte	W12
	.byte		        Cn3 
	.byte		N11   , Gn3 
	.byte	W12
@ 086   ----------------------------------------
	.byte		N17   , Cn3 
	.byte		N17   , Gn3 
	.byte	W18
	.byte		        Cn3 
	.byte		N17   , Gn3 
	.byte	W18
	.byte		N11   , Bn2 
	.byte		N11   , Gn3 
	.byte	W12
	.byte		N23   , Bn2 
	.byte		N23   , Gn3 
	.byte	W24
	.byte		N11   , Bn2 
	.byte		N11   , Gn3 
	.byte	W12
	.byte		        Cn3 
	.byte		N11   , Gn3 
	.byte	W12
@ 087   ----------------------------------------
	.byte		N17   , Cn3 
	.byte		N17   , Gn3 
	.byte	W18
	.byte		        Bn2 
	.byte		N17   , Gn3 
	.byte	W18
	.byte		N11   , Cn3 
	.byte		N11   , Gn3 
	.byte	W12
	.byte		N17   , En3 
	.byte		N17   , Bn3 
	.byte	W18
	.byte		        En3 
	.byte		N17   , Bn3 
	.byte	W18
	.byte		N28   , En3 
	.byte		N28   , Bn3 
	.byte	W12
@ 088   ----------------------------------------
	.byte	W18
	.byte		N17   , Cn3 
	.byte		N17   , Gn3 
	.byte	W18
	.byte		N11   , Cn3 
	.byte		N11   , Gn3 
	.byte	W12
	.byte		N17   , Cn3 
	.byte		N17   , Gn3 
	.byte	W18
	.byte		        Bn2 
	.byte		N17   , Gn3 
	.byte	W18
	.byte		N11   , Bn2 
	.byte		N11   , Gn3 
	.byte	W12
@ 089   ----------------------------------------
	.byte		N17   , Cn3 
	.byte		N17   , Gn3 
	.byte	W18
	.byte		        Cn3 
	.byte		N17   , Gn3 
	.byte	W18
	.byte		N11   , Bn2 
	.byte		N11   , Gn3 
	.byte	W12
	.byte		        Cn3 
	.byte		N11   , Gn3 
	.byte	W12
	.byte		        Cn3 
	.byte		N11   , Gn3 
	.byte	W12
	.byte		        Bn2 
	.byte		N11   , Gn3 
	.byte	W24
@ 090   ----------------------------------------
	.byte	W96
@ 091   ----------------------------------------
	.byte	W96
@ 092   ----------------------------------------
	.byte	W96
@ 093   ----------------------------------------
	.byte	W96
@ 094   ----------------------------------------
	.byte	W96
@ 095   ----------------------------------------
	.byte	W96
@ 096   ----------------------------------------
	.byte	W96
@ 097   ----------------------------------------
	.byte	W48
I_May_Fall_0_4_B1:
	.byte	W36
	.byte		N23   , Fn1 , v096
	.byte		N23   , Cn2 
	.byte	W12
@ 098   ----------------------------------------
	.byte	PATT
	 .word	I_May_Fall_0_4_050
@ 099   ----------------------------------------
	.byte	PATT
	 .word	I_May_Fall_0_4_001
@ 100   ----------------------------------------
	.byte	PATT
	 .word	I_May_Fall_0_4_002
@ 101   ----------------------------------------
	.byte	PATT
	 .word	I_May_Fall_0_4_001
@ 102   ----------------------------------------
	.byte	PATT
	 .word	I_May_Fall_0_4_002
@ 103   ----------------------------------------
	.byte		N11   , Gn1 , v096
	.byte		N11   , Dn2 
	.byte	W12
	.byte		        Gn1 
	.byte		N11   , Dn2 
	.byte	W12
	.byte		        Gn1 
	.byte		N11   , Dn2 
	.byte	W12
	.byte		        An1 
	.byte		N11   , En2 
	.byte	W12
	.byte		        An1 
	.byte		N11   , En2 
	.byte	W12
	.byte		        An1 
	.byte		N11   , En2 
	.byte	W12
	.byte		        An1 
	.byte		N11   , En2 
	.byte	W12
	.byte		        As1 
	.byte		N11   , Fn2 
	.byte	W12
@ 104   ----------------------------------------
	.byte	PATT
	 .word	I_May_Fall_0_4_006
@ 105   ----------------------------------------
	.byte	PATT
	 .word	I_May_Fall_0_4_007
@ 106   ----------------------------------------
	.byte	PATT
	 .word	I_May_Fall_0_4_016
@ 107   ----------------------------------------
	.byte	PATT
	 .word	I_May_Fall_0_4_017
@ 108   ----------------------------------------
	.byte	PATT
	 .word	I_May_Fall_0_4_017
@ 109   ----------------------------------------
	.byte		N11   , Fn1 , v096
	.byte		N11   , Cn2 
	.byte	W12
	.byte		N05   , Fn1 
	.byte		N05   , Cn2 
	.byte	W06
	.byte		        Fn1 
	.byte		N05   , Cn2 
	.byte	W06
	.byte		N11   , Fn1 
	.byte		N11   , Cn2 
	.byte	W12
	.byte		N05   , Fn1 
	.byte		N05   , Cn2 
	.byte	W06
	.byte		        Fn1 
	.byte		N05   , Cn2 
	.byte	W06
	.byte		N11   , Fn1 
	.byte		N11   , Cn2 
	.byte	W12
	.byte		N05   , Fn1 
	.byte		N05   , Cn2 
	.byte	W06
	.byte		        Fn1 
	.byte		N05   , Cn2 
	.byte	W06
	.byte		N11   , Dn1 
	.byte		N11   , An1 
	.byte	W12
	.byte		N23   , En1 
	.byte		N23   , Bn1 
	.byte	W12
@ 110   ----------------------------------------
	.byte	PATT
	 .word	I_May_Fall_0_4_020
@ 111   ----------------------------------------
	.byte	W12
	.byte		N05   , An1 , v096
	.byte		N05   , En2 
	.byte	W06
	.byte		        An1 
	.byte		N05   , En2 
	.byte	W06
	.byte		N11   , An1 
	.byte		N11   , En2 
	.byte	W12
	.byte		N23   , An1 
	.byte		N23   , En2 
	.byte	W24
	.byte		N11   , An1 
	.byte		N11   , En2 
	.byte	W12
	.byte		        An1 
	.byte		N11   , En2 
	.byte	W12
	.byte		N23   , Cn2 
	.byte		N23   , Gn2 
	.byte	W12
@ 112   ----------------------------------------
	.byte	PATT
	 .word	I_May_Fall_0_4_022
@ 113   ----------------------------------------
	.byte	W12
	.byte		N11   , En2 , v096
	.byte		N11   , Bn2 
	.byte	W12
	.byte		        En2 
	.byte		N11   , Bn2 
	.byte	W12
	.byte		N23   , Gn2 
	.byte		N23   , Dn3 
	.byte	W24
	.byte		N11   , Gn2 
	.byte		N11   , Dn3 
	.byte	W12
	.byte		        Gn2 
	.byte		N11   , Dn3 
	.byte	W12
	.byte		N23   , En2 
	.byte		N23   , Bn2 
	.byte	W12
@ 114   ----------------------------------------
	.byte	W12
	.byte		N11   , En2 
	.byte		N11   , Bn2 
	.byte	W12
	.byte		        En2 
	.byte		N11   , Bn2 
	.byte	W12
	.byte		N23   , En2 
	.byte		N23   , Bn2 
	.byte	W24
	.byte		N11   , En2 
	.byte		N11   , Bn2 
	.byte	W12
	.byte		        En2 
	.byte		N11   , Bn2 
	.byte	W24
@ 115   ----------------------------------------
	.byte	PATT
	 .word	I_May_Fall_0_4_067
@ 116   ----------------------------------------
	.byte	W80
	.byte	W03
	.byte		EOT   , En2 
	.byte		        Bn2 
	.byte	W01
	.byte		N92   , Dn2 , v096
	.byte		N92   , An2 
	.byte	W12
@ 117   ----------------------------------------
	.byte	PATT
	 .word	I_May_Fall_0_4_069
@ 118   ----------------------------------------
	.byte	W12
	.byte		N11   , Dn2 , v096
	.byte		N11   , An2 
	.byte	W12
	.byte		N23   , Dn2 
	.byte		N23   , An2 
	.byte	W24
	.byte		N11   , Dn2 
	.byte		N11   , An2 
	.byte	W12
	.byte		        Dn2 
	.byte		N11   , An2 
	.byte	W12
	.byte		        Dn2 
	.byte		N11   , An2 
	.byte	W12
	.byte		N23   , Gn2 
	.byte		N23   , Dn3 
	.byte	W12
@ 119   ----------------------------------------
	.byte	PATT
	 .word	I_May_Fall_0_4_071
@ 120   ----------------------------------------
	.byte	PATT
	 .word	I_May_Fall_0_4_027
@ 121   ----------------------------------------
	.byte	PATT
	 .word	I_May_Fall_0_4_031
@ 122   ----------------------------------------
	.byte	PATT
	 .word	I_May_Fall_0_4_032
@ 123   ----------------------------------------
	.byte	PATT
	 .word	I_May_Fall_0_4_075
@ 124   ----------------------------------------
	.byte	PATT
	 .word	I_May_Fall_0_4_076
@ 125   ----------------------------------------
	.byte	W80
	.byte	W03
	.byte		EOT   , Dn2 
	.byte		        An2 
	.byte	W01
	.byte		N11   , Gn2 , v096
	.byte		N11   , Dn3 
	.byte	W12
@ 126   ----------------------------------------
	.byte	PATT
	 .word	I_May_Fall_0_4_078
@ 127   ----------------------------------------
	.byte		N11   , Gn2 , v096
	.byte		N11   , Dn3 
	.byte	W12
	.byte		        Gn2 
	.byte		N11   , Dn3 
	.byte	W12
	.byte		        Gn2 
	.byte		N11   , Dn3 
	.byte	W12
	.byte		N23   , En2 
	.byte		N23   , Bn2 
	.byte	W24
	.byte		        Dn2 
	.byte		N23   , An2 
	.byte	W24
	.byte		N92   , En2 
	.byte		N92   , Bn2 
	.byte	W12
@ 128   ----------------------------------------
	.byte	W84
	.byte		N44   , Dn2 
	.byte		N44   , An2 
	.byte	W12
@ 129   ----------------------------------------
	.byte	PATT
	 .word	I_May_Fall_0_4_029
@ 130   ----------------------------------------
	.byte	W84
	.byte		N44   , An2 , v096
	.byte		N44   , En3 
	.byte	W12
@ 131   ----------------------------------------
	.byte	PATT
	 .word	I_May_Fall_0_4_029
@ 132   ----------------------------------------
	.byte	PATT
	 .word	I_May_Fall_0_4_027
@ 133   ----------------------------------------
	.byte	W84
	.byte		TIE   , An2 , v096
	.byte		TIE   , En3 
	.byte	W12
@ 134   ----------------------------------------
	.byte	W92
	.byte	W03
	.byte		EOT   , An2 
	.byte		        En3 
	.byte	W01
@ 135   ----------------------------------------
	.byte	W96
	.byte	GOTO
	 .word	I_May_Fall_0_4_B1
I_May_Fall_0_4_B2:
@ 136   ----------------------------------------
	.byte	FINE

@**************** Track 5 (Midi-Chn.5) ****************@

I_May_Fall_0_5:
	.byte	KEYSH , I_May_Fall_0_key+0
@ 000   ----------------------------------------
	.byte		VOICE , 30
	.byte		VOL   , 88*I_May_Fall_0_mvl/mxv
	.byte		PAN   , c_v+0
	.byte		N11   , Fn1 , v096
	.byte		N11   , Cn2 
	.byte	W12
	.byte		        Fn1 
	.byte		N11   , Cn2 
	.byte	W12
	.byte		        Fn1 
	.byte		N11   , Cn2 
	.byte	W12
	.byte		        Fn1 
	.byte		N11   , Cn2 
	.byte	W12
	.byte		        Fn1 
	.byte		N11   , Cn2 
	.byte	W12
	.byte		        Fn1 
	.byte		N11   , Cn2 
	.byte	W12
	.byte		        Fn1 
	.byte		N11   , Cn2 
	.byte	W12
	.byte		        Gn1 
	.byte		N11   , Dn2 
	.byte	W12
@ 001   ----------------------------------------
I_May_Fall_0_5_001:
	.byte		N11   , Gn1 , v096
	.byte		N11   , Dn2 
	.byte	W12
	.byte		        Gn1 
	.byte		N11   , Dn2 
	.byte	W12
	.byte		        Gn1 
	.byte		N11   , Dn2 
	.byte	W12
	.byte		        An1 
	.byte		N11   , En2 
	.byte	W12
	.byte		        An1 
	.byte		N11   , En2 
	.byte	W12
	.byte		        An1 
	.byte		N11   , En2 
	.byte	W12
	.byte		        An1 
	.byte		N11   , En2 
	.byte	W12
	.byte		        Fn1 
	.byte		N11   , Cn2 
	.byte	W12
	.byte	PEND
@ 002   ----------------------------------------
I_May_Fall_0_5_002:
	.byte		N11   , Fn1 , v096
	.byte		N11   , Cn2 
	.byte	W12
	.byte		        Fn1 
	.byte		N11   , Cn2 
	.byte	W12
	.byte		        Fn1 
	.byte		N11   , Cn2 
	.byte	W12
	.byte		        Fn1 
	.byte		N11   , Cn2 
	.byte	W12
	.byte		        Fn1 
	.byte		N11   , Cn2 
	.byte	W12
	.byte		        Fn1 
	.byte		N11   , Cn2 
	.byte	W12
	.byte		        Fn1 
	.byte		N11   , Cn2 
	.byte	W12
	.byte		        Gn1 
	.byte		N11   , Dn2 
	.byte	W12
	.byte	PEND
@ 003   ----------------------------------------
	.byte	PATT
	 .word	I_May_Fall_0_5_001
@ 004   ----------------------------------------
	.byte	PATT
	 .word	I_May_Fall_0_5_002
@ 005   ----------------------------------------
	.byte		N11   , Gn1 , v096
	.byte		N11   , Dn2 
	.byte	W12
	.byte		        Gn1 
	.byte		N11   , Dn2 
	.byte	W12
	.byte		        Gn1 
	.byte		N11   , Dn2 
	.byte	W12
	.byte		        An1 
	.byte		N11   , En2 
	.byte	W12
	.byte		        An1 
	.byte		N11   , En2 
	.byte	W12
	.byte		        An1 
	.byte		N11   , En2 
	.byte	W12
	.byte		        An1 
	.byte		N11   , En2 
	.byte	W12
	.byte		        An1 
	.byte		N11   , En2 
	.byte	W12
@ 006   ----------------------------------------
	.byte		        As1 
	.byte		N11   , Fn2 
	.byte	W12
	.byte		        As1 
	.byte		N11   , Fn2 
	.byte	W12
	.byte		        As1 
	.byte		N11   , Fn2 
	.byte	W12
	.byte		        As1 
	.byte		N11   , Fn2 
	.byte	W12
	.byte		        As1 
	.byte		N11   , Fn2 
	.byte	W12
	.byte		        As1 
	.byte		N11   , Fn2 
	.byte	W12
	.byte		        As1 
	.byte		N11   , Fn2 
	.byte	W12
	.byte		        As1 
	.byte		N11   , Fn2 
	.byte	W12
@ 007   ----------------------------------------
	.byte		        As1 
	.byte		N11   , Fn2 
	.byte	W12
	.byte		        As1 
	.byte		N11   , Fn2 
	.byte	W12
	.byte		        As1 
	.byte		N11   , Fn2 
	.byte	W12
	.byte		        As1 
	.byte		N11   , Fn2 
	.byte	W12
	.byte		        As1 
	.byte		N11   , Fn2 
	.byte	W12
	.byte		        As1 
	.byte		N11   , Fn2 
	.byte	W12
	.byte		        As1 
	.byte		N11   , Fn2 
	.byte	W12
	.byte		N23   , En3 
	.byte		N23   , An3 
	.byte	W12
@ 008   ----------------------------------------
I_May_Fall_0_5_008:
	.byte	W12
	.byte		N11   , En3 , v096
	.byte		N11   , An3 
	.byte	W12
	.byte		        En3 
	.byte		N11   , An3 
	.byte	W12
	.byte		        En3 
	.byte		N11   , An3 
	.byte	W12
	.byte		        En3 
	.byte		N11   , An3 
	.byte	W12
	.byte		        En3 
	.byte		N11   , An3 
	.byte	W12
	.byte		        En3 
	.byte		N11   , An3 
	.byte	W12
	.byte		N23   , Dn3 
	.byte		N23   , Gn3 
	.byte	W12
	.byte	PEND
@ 009   ----------------------------------------
I_May_Fall_0_5_009:
	.byte	W12
	.byte		N11   , Dn3 , v096
	.byte		N11   , Gn3 
	.byte	W12
	.byte		        Dn3 
	.byte		N11   , Gn3 
	.byte	W12
	.byte		N23   , En3 
	.byte		N23   , An3 
	.byte	W24
	.byte		        Gn3 
	.byte		N23   , Cn4 
	.byte	W24
	.byte		        En3 
	.byte		N23   , An3 
	.byte	W12
	.byte	PEND
@ 010   ----------------------------------------
I_May_Fall_0_5_010:
	.byte	W12
	.byte		N11   , En3 , v096
	.byte		N11   , An3 
	.byte	W12
	.byte		        En3 
	.byte		N11   , An3 
	.byte	W12
	.byte		        En3 
	.byte		N11   , An3 
	.byte	W12
	.byte		        En3 
	.byte		N11   , An3 
	.byte	W12
	.byte		        En3 
	.byte		N11   , An3 
	.byte	W12
	.byte		        Dn3 
	.byte	W12
	.byte		N23   
	.byte		N23   , Gn3 
	.byte	W12
	.byte	PEND
@ 011   ----------------------------------------
I_May_Fall_0_5_011:
	.byte	W12
	.byte		N11   , Dn3 , v096
	.byte		N11   , Gn3 
	.byte	W12
	.byte		        En3 
	.byte	W12
	.byte		N23   
	.byte		N23   , An3 
	.byte	W24
	.byte		N11   , En3 
	.byte		N11   , An3 
	.byte	W24
	.byte		N23   , Cn3 
	.byte		N23   , Fn3 
	.byte	W12
	.byte	PEND
@ 012   ----------------------------------------
I_May_Fall_0_5_012:
	.byte	W12
	.byte		N11   , Cn3 , v096
	.byte		N11   , Fn3 
	.byte	W12
	.byte		        Cn3 
	.byte		N11   , Fn3 
	.byte	W12
	.byte		        Cn3 
	.byte		N11   , Fn3 
	.byte	W12
	.byte		        Cn3 
	.byte		N11   , Fn3 
	.byte	W36
	.byte		        Dn3 
	.byte		N11   , Gn3 
	.byte	W12
	.byte	PEND
@ 013   ----------------------------------------
I_May_Fall_0_5_013:
	.byte		N11   , An2 , v096
	.byte		N11   , Dn3 
	.byte	W12
	.byte		N23   , An2 
	.byte		N23   , Dn3 
	.byte	W24
	.byte		N56   , Gn2 
	.byte		N56   , Cn3 
	.byte	W60
	.byte	PEND
@ 014   ----------------------------------------
I_May_Fall_0_5_014:
	.byte		N23   , An2 , v096
	.byte		N23   , Dn3 
	.byte	W24
	.byte		N11   , An2 
	.byte		N11   , Dn3 
	.byte	W12
	.byte		N23   , An2 
	.byte		N23   , Dn3 
	.byte	W24
	.byte		N11   , An2 
	.byte		N11   , Dn3 
	.byte	W12
	.byte		        An2 
	.byte		N11   , Dn3 
	.byte	W12
	.byte		N23   , An2 
	.byte		N23   , Dn3 
	.byte	W12
	.byte	PEND
@ 015   ----------------------------------------
I_May_Fall_0_5_015:
	.byte	W12
	.byte		N11   , An2 , v096
	.byte		N11   , Dn3 
	.byte	W12
	.byte		        An2 
	.byte		N11   , Dn3 
	.byte	W12
	.byte		        An2 
	.byte		N11   , Dn3 
	.byte	W12
	.byte		        An2 
	.byte		N11   , Dn3 
	.byte	W12
	.byte		        An2 
	.byte		N11   , Dn3 
	.byte	W12
	.byte		        An2 
	.byte		N11   , Dn3 
	.byte	W12
	.byte		N23   , An2 
	.byte		N23   , En3 
	.byte	W12
	.byte	PEND
@ 016   ----------------------------------------
I_May_Fall_0_5_016:
	.byte	W12
	.byte		N11   , An2 , v096
	.byte		N11   , En3 
	.byte	W12
	.byte		        An2 
	.byte		N11   , En3 
	.byte	W12
	.byte		        An2 
	.byte		N11   , En3 
	.byte	W12
	.byte		        An2 
	.byte		N11   , En3 
	.byte	W12
	.byte		        An2 
	.byte		N11   , En3 
	.byte	W12
	.byte		        An2 
	.byte		N11   , En3 
	.byte	W12
	.byte		N23   , An2 
	.byte		N23   , En3 
	.byte	W12
	.byte	PEND
@ 017   ----------------------------------------
I_May_Fall_0_5_017:
	.byte	W12
	.byte		N11   , An2 , v096
	.byte		N11   , En3 
	.byte	W12
	.byte		        An2 
	.byte		N11   , En3 
	.byte	W12
	.byte		        An2 
	.byte		N11   , En3 
	.byte	W12
	.byte		        An2 
	.byte		N11   , En3 
	.byte	W12
	.byte		        An2 
	.byte		N11   , En3 
	.byte	W12
	.byte		        An2 
	.byte		N11   , En3 
	.byte	W12
	.byte		N23   , Gn2 
	.byte		N23   , Dn3 
	.byte	W12
	.byte	PEND
@ 018   ----------------------------------------
I_May_Fall_0_5_018:
	.byte	W12
	.byte		N11   , Gn2 , v096
	.byte		N11   , Dn3 
	.byte	W12
	.byte		        Gn2 
	.byte		N11   , Dn3 
	.byte	W12
	.byte		        Gn2 
	.byte		N11   , Dn3 
	.byte	W12
	.byte		        Gn2 
	.byte		N11   , Dn3 
	.byte	W12
	.byte		        Gn2 
	.byte		N11   , Dn3 
	.byte	W12
	.byte		        Gn2 
	.byte		N11   , Dn3 
	.byte	W12
	.byte		N23   , Gn2 
	.byte		N23   , Dn3 
	.byte	W12
	.byte	PEND
@ 019   ----------------------------------------
I_May_Fall_0_5_019:
	.byte	W12
	.byte		N11   , Gn2 , v096
	.byte		N11   , Dn3 
	.byte	W12
	.byte		        Gn2 
	.byte		N11   , Dn3 
	.byte	W12
	.byte		        Gn2 
	.byte		N11   , Dn3 
	.byte	W12
	.byte		        Gn2 
	.byte		N11   , Dn3 
	.byte	W12
	.byte		        Gn2 
	.byte		N11   , Dn3 
	.byte	W12
	.byte		        Gn2 
	.byte		N11   , Dn3 
	.byte	W12
	.byte		N23   , En2 
	.byte		N23   , Bn2 
	.byte	W12
	.byte	PEND
@ 020   ----------------------------------------
I_May_Fall_0_5_020:
	.byte	W12
	.byte		N11   , En2 , v096
	.byte		N11   , Bn2 
	.byte	W12
	.byte		        En2 
	.byte		N11   , Bn2 
	.byte	W12
	.byte		        En2 
	.byte		N11   , Bn2 
	.byte	W12
	.byte		        En2 
	.byte		N11   , Bn2 
	.byte	W12
	.byte		        En2 
	.byte		N11   , Bn2 
	.byte	W12
	.byte		        En2 
	.byte		N11   , Bn2 
	.byte	W12
	.byte		N23   , Gn2 
	.byte		N23   , Dn3 
	.byte	W12
	.byte	PEND
@ 021   ----------------------------------------
I_May_Fall_0_5_021:
	.byte	W12
	.byte		N11   , An2 , v096
	.byte		N11   , En3 
	.byte	W12
	.byte		        An2 
	.byte		N11   , En3 
	.byte	W12
	.byte		        An2 
	.byte		N11   , En3 
	.byte	W12
	.byte		        An2 
	.byte		N11   , En3 
	.byte	W12
	.byte		        An2 
	.byte		N11   , En3 
	.byte	W12
	.byte		        An2 
	.byte		N11   , En3 
	.byte	W12
	.byte		N23   , Cn2 
	.byte		N23   , Gn2 
	.byte	W12
	.byte	PEND
@ 022   ----------------------------------------
I_May_Fall_0_5_022:
	.byte	W12
	.byte		N11   , Cn2 , v096
	.byte		N11   , Gn2 
	.byte	W12
	.byte		        Cn2 
	.byte		N11   , Gn2 
	.byte	W12
	.byte		N23   , Dn2 
	.byte		N23   , An2 
	.byte	W24
	.byte		N11   , Dn2 
	.byte		N11   , An2 
	.byte	W12
	.byte		        Dn2 
	.byte		N11   , An2 
	.byte	W12
	.byte		N23   , En2 
	.byte		N23   , Bn2 
	.byte	W12
	.byte	PEND
@ 023   ----------------------------------------
I_May_Fall_0_5_023:
	.byte	W12
	.byte		N11   , En2 , v096
	.byte		N11   , Bn2 
	.byte	W12
	.byte		        En2 
	.byte		N11   , Bn2 
	.byte	W12
	.byte		N23   , Gn2 
	.byte		N23   , Dn3 
	.byte	W24
	.byte		N11   , Gn2 
	.byte		N11   , Dn3 
	.byte	W12
	.byte		        Gn2 
	.byte		N11   , Dn3 
	.byte	W12
	.byte		TIE   , En2 
	.byte		TIE   , Bn2 
	.byte	W12
	.byte	PEND
@ 024   ----------------------------------------
	.byte	W92
	.byte	W03
	.byte		EOT   , En2 
	.byte		        Bn2 
	.byte	W01
@ 025   ----------------------------------------
I_May_Fall_0_5_025:
	.byte		N32   , En2 , v096
	.byte		N32   , Bn2 
	.byte	W36
	.byte		        Dn2 
	.byte		N32   , An2 
	.byte	W36
	.byte		TIE   , Cn2 
	.byte		TIE   , Gn2 
	.byte	W24
	.byte	PEND
@ 026   ----------------------------------------
	.byte	W80
	.byte	W03
	.byte		EOT   , Cn2 
	.byte		        Gn2 
	.byte	W01
	.byte		N92   , Dn2 
	.byte		N92   , An2 
	.byte	W12
@ 027   ----------------------------------------
I_May_Fall_0_5_027:
	.byte	W84
	.byte		N23   , Bn1 , v096
	.byte		N23   , Fs2 
	.byte	W12
	.byte	PEND
@ 028   ----------------------------------------
I_May_Fall_0_5_028:
	.byte	W12
	.byte		N11   , Bn1 , v096
	.byte		N11   , Fs2 
	.byte	W12
	.byte		        Bn1 
	.byte		N11   , Fs2 
	.byte	W12
	.byte		        Bn1 
	.byte		N11   , Fs2 
	.byte	W12
	.byte		        Bn1 
	.byte		N11   , Fs2 
	.byte	W12
	.byte		        Bn1 
	.byte		N11   , Fs2 
	.byte	W12
	.byte		        Bn1 
	.byte		N11   , Fs2 
	.byte	W12
	.byte		        Bn1 
	.byte		N11   , Fs2 
	.byte	W12
	.byte	PEND
@ 029   ----------------------------------------
I_May_Fall_0_5_029:
	.byte		N11   , En1 , v096
	.byte		N11   , Bn1 
	.byte	W12
	.byte		        En1 
	.byte		N11   , Bn1 
	.byte	W12
	.byte		        En1 
	.byte		N11   , Bn1 
	.byte	W12
	.byte		N23   , En2 
	.byte		N23   , Bn2 
	.byte	W24
	.byte		        Dn2 
	.byte		N23   , An2 
	.byte	W24
	.byte		        Cn2 
	.byte		N23   , Gn2 
	.byte	W12
	.byte	PEND
@ 030   ----------------------------------------
I_May_Fall_0_5_030:
	.byte	W12
	.byte		N11   , Cn2 , v096
	.byte		N11   , Gn2 
	.byte	W12
	.byte		        Cn2 
	.byte		N11   , Gn2 
	.byte	W12
	.byte		        Cn2 
	.byte		N11   , Gn2 
	.byte	W12
	.byte		        Cn2 
	.byte		N11   , Gn2 
	.byte	W12
	.byte		        Cn2 
	.byte		N11   , Gn2 
	.byte	W12
	.byte		N05   , Dn2 
	.byte		N05   , An2 
	.byte	W06
	.byte		        Dn2 
	.byte		N05   , An2 
	.byte	W06
	.byte		N23   , Dn2 
	.byte		N23   , An2 
	.byte	W12
	.byte	PEND
@ 031   ----------------------------------------
I_May_Fall_0_5_031:
	.byte	W12
	.byte		N11   , Dn2 , v096
	.byte		N11   , An2 
	.byte	W12
	.byte		        Dn2 
	.byte		N11   , An2 
	.byte	W12
	.byte		        Dn2 
	.byte		N11   , An2 
	.byte	W12
	.byte		        Dn2 
	.byte		N11   , An2 
	.byte	W12
	.byte		        Dn2 
	.byte		N11   , An2 
	.byte	W12
	.byte		        Dn2 
	.byte		N11   , An2 
	.byte	W12
	.byte		        Fn1 
	.byte		N11   , Cn2 
	.byte	W12
	.byte	PEND
@ 032   ----------------------------------------
I_May_Fall_0_5_032:
	.byte		N11   , Fn1 , v096
	.byte		N11   , Cn2 
	.byte	W12
	.byte		        Fn1 
	.byte		N11   , Cn2 
	.byte	W12
	.byte		        Fn1 
	.byte		N11   , Cn2 
	.byte	W12
	.byte		        Fn1 
	.byte		N11   , Cn2 
	.byte	W12
	.byte		        Fn1 
	.byte		N11   , Cn2 
	.byte	W12
	.byte		        Fn1 
	.byte		N11   , Cn2 
	.byte	W12
	.byte		        Fn1 
	.byte		N11   , Cn2 
	.byte	W12
	.byte		        Fn1 
	.byte		N11   , Cn2 
	.byte	W12
	.byte	PEND
@ 033   ----------------------------------------
I_May_Fall_0_5_033:
	.byte		N32   , En2 , v096
	.byte		N32   , Bn2 
	.byte	W36
	.byte		        Dn2 
	.byte		N32   , An2 
	.byte	W36
	.byte		N92   , Cn2 
	.byte		N92   , Gn2 
	.byte	W24
	.byte	PEND
@ 034   ----------------------------------------
I_May_Fall_0_5_034:
	.byte	W72
	.byte		N05   , Dn2 , v096
	.byte		N05   , An2 
	.byte	W06
	.byte		        Dn2 
	.byte		N05   , An2 
	.byte	W06
	.byte		N92   , Dn2 
	.byte		N92   , An2 
	.byte	W12
	.byte	PEND
@ 035   ----------------------------------------
I_May_Fall_0_5_035:
	.byte	W84
	.byte		N11   , En1 , v096
	.byte		N11   , Bn1 
	.byte	W12
	.byte	PEND
@ 036   ----------------------------------------
I_May_Fall_0_5_036:
	.byte		N11   , En1 , v096
	.byte		N11   , Bn1 
	.byte	W12
	.byte		        En1 
	.byte		N11   , Bn1 
	.byte	W12
	.byte		        En1 
	.byte		N11   , Bn1 
	.byte	W12
	.byte		        En1 
	.byte		N11   , Bn1 
	.byte	W12
	.byte		        En1 
	.byte		N11   , Bn1 
	.byte	W12
	.byte		        En1 
	.byte		N11   , Bn1 
	.byte	W12
	.byte		        En1 
	.byte		N11   , Bn1 
	.byte	W12
	.byte		        En1 
	.byte		N11   , Bn1 
	.byte	W12
	.byte	PEND
@ 037   ----------------------------------------
I_May_Fall_0_5_037:
	.byte		N11   , En1 , v096
	.byte		N11   , Bn1 
	.byte	W12
	.byte		        En1 
	.byte		N11   , Bn1 
	.byte	W12
	.byte		        En1 
	.byte		N11   , Bn1 
	.byte	W12
	.byte		N23   , En2 
	.byte		N23   , Bn2 
	.byte	W24
	.byte		        Dn2 
	.byte		N23   , An2 
	.byte	W24
	.byte		N80   , Cn2 
	.byte		N80   , Gn2 
	.byte	W12
	.byte	PEND
@ 038   ----------------------------------------
	.byte	PATT
	 .word	I_May_Fall_0_5_034
@ 039   ----------------------------------------
	.byte	W84
	.byte		N23   , Fn1 , v096
	.byte		N23   , Cn2 
	.byte	W12
@ 040   ----------------------------------------
	.byte	W12
	.byte		N11   , Fn1 
	.byte		N11   , Cn2 
	.byte	W12
	.byte		        Fn1 
	.byte		N11   , Cn2 
	.byte	W12
	.byte		        Fn1 
	.byte		N11   , Cn2 
	.byte	W12
	.byte		        Fn1 
	.byte		N11   , Cn2 
	.byte	W12
	.byte		        Fn1 
	.byte		N11   , Cn2 
	.byte	W12
	.byte		        Fn1 
	.byte		N11   , Cn2 
	.byte	W12
	.byte		        Fn1 
	.byte		N11   , Cn2 
	.byte	W12
@ 041   ----------------------------------------
	.byte		        Fn1 
	.byte		N11   , Cn2 
	.byte	W12
	.byte		        Fn1 
	.byte		N11   , Cn2 
	.byte	W12
	.byte		        Fn1 
	.byte		N11   , Cn2 
	.byte	W12
	.byte		        Fn1 
	.byte		N11   , Cn2 
	.byte	W12
	.byte		        Fn1 
	.byte		N11   , Cn2 
	.byte	W12
	.byte		        Fn1 
	.byte		N11   , Cn2 
	.byte	W12
	.byte		        Fn1 
	.byte		N11   , Cn2 
	.byte	W24
@ 042   ----------------------------------------
	.byte	W96
@ 043   ----------------------------------------
	.byte	W96
@ 044   ----------------------------------------
	.byte	W96
@ 045   ----------------------------------------
	.byte	W96
@ 046   ----------------------------------------
	.byte	W96
@ 047   ----------------------------------------
	.byte	W96
@ 048   ----------------------------------------
	.byte	W96
@ 049   ----------------------------------------
	.byte	W84
	.byte		N23   , En3 
	.byte		N23   , An3 
	.byte	W12
@ 050   ----------------------------------------
	.byte	PATT
	 .word	I_May_Fall_0_5_008
@ 051   ----------------------------------------
	.byte	PATT
	 .word	I_May_Fall_0_5_009
@ 052   ----------------------------------------
	.byte	PATT
	 .word	I_May_Fall_0_5_010
@ 053   ----------------------------------------
	.byte	PATT
	 .word	I_May_Fall_0_5_011
@ 054   ----------------------------------------
	.byte	PATT
	 .word	I_May_Fall_0_5_012
@ 055   ----------------------------------------
	.byte	PATT
	 .word	I_May_Fall_0_5_013
@ 056   ----------------------------------------
	.byte	PATT
	 .word	I_May_Fall_0_5_014
@ 057   ----------------------------------------
	.byte	PATT
	 .word	I_May_Fall_0_5_015
@ 058   ----------------------------------------
	.byte	PATT
	 .word	I_May_Fall_0_5_016
@ 059   ----------------------------------------
	.byte	PATT
	 .word	I_May_Fall_0_5_017
@ 060   ----------------------------------------
	.byte	PATT
	 .word	I_May_Fall_0_5_018
@ 061   ----------------------------------------
	.byte	PATT
	 .word	I_May_Fall_0_5_019
@ 062   ----------------------------------------
	.byte	PATT
	 .word	I_May_Fall_0_5_020
@ 063   ----------------------------------------
	.byte	PATT
	 .word	I_May_Fall_0_5_021
@ 064   ----------------------------------------
	.byte	PATT
	 .word	I_May_Fall_0_5_022
@ 065   ----------------------------------------
	.byte	PATT
	 .word	I_May_Fall_0_5_023
@ 066   ----------------------------------------
	.byte	W92
	.byte	W03
	.byte		EOT   , En2 
	.byte		        Bn2 
	.byte	W01
@ 067   ----------------------------------------
	.byte	PATT
	 .word	I_May_Fall_0_5_025
@ 068   ----------------------------------------
	.byte	W80
	.byte	W03
	.byte		EOT   , Cn2 
	.byte		        Gn2 
	.byte	W01
	.byte		N92   , Dn2 , v096
	.byte		N92   , An2 
	.byte	W12
@ 069   ----------------------------------------
	.byte	PATT
	 .word	I_May_Fall_0_5_027
@ 070   ----------------------------------------
	.byte	PATT
	 .word	I_May_Fall_0_5_028
@ 071   ----------------------------------------
	.byte	PATT
	 .word	I_May_Fall_0_5_029
@ 072   ----------------------------------------
	.byte	PATT
	 .word	I_May_Fall_0_5_030
@ 073   ----------------------------------------
	.byte	PATT
	 .word	I_May_Fall_0_5_031
@ 074   ----------------------------------------
	.byte	PATT
	 .word	I_May_Fall_0_5_032
@ 075   ----------------------------------------
	.byte	PATT
	 .word	I_May_Fall_0_5_033
@ 076   ----------------------------------------
	.byte	PATT
	 .word	I_May_Fall_0_5_034
@ 077   ----------------------------------------
	.byte	PATT
	 .word	I_May_Fall_0_5_035
@ 078   ----------------------------------------
	.byte	PATT
	 .word	I_May_Fall_0_5_036
@ 079   ----------------------------------------
	.byte	PATT
	 .word	I_May_Fall_0_5_037
@ 080   ----------------------------------------
	.byte	W72
	.byte		N05   , Bn1 , v096
	.byte		N05   , Fs2 
	.byte	W06
	.byte		        Bn1 
	.byte		N05   , Fs2 
	.byte	W06
	.byte		N92   , Bn1 
	.byte		N92   , Fs2 
	.byte	W12
@ 081   ----------------------------------------
	.byte	W84
	.byte		N23   , Fs1 
	.byte		N23   , Cn2 
	.byte	W12
@ 082   ----------------------------------------
	.byte	W12
	.byte		N11   , Fs1 
	.byte		N11   , Cn2 
	.byte	W12
	.byte		        Fs1 
	.byte		N11   , Cn2 
	.byte	W12
	.byte		        Fs1 
	.byte		N11   , Cn2 
	.byte	W12
	.byte		        Fs1 
	.byte		N11   , Cn2 
	.byte	W12
	.byte		        Fs1 
	.byte		N11   , Cn2 
	.byte	W12
	.byte		        Fs1 
	.byte		N11   , Cn2 
	.byte	W12
	.byte		        Fs1 
	.byte		N11   , Cn2 
	.byte	W12
@ 083   ----------------------------------------
I_May_Fall_0_5_083:
	.byte		N11   , Fs1 , v096
	.byte		N11   , Cn2 
	.byte	W12
	.byte		        Fs1 
	.byte		N11   , Cn2 
	.byte	W12
	.byte		        Fs1 
	.byte		N11   , Cn2 
	.byte	W12
	.byte		        Fs1 
	.byte		N11   , Cn2 
	.byte	W12
	.byte		        Fs1 
	.byte		N11   , Cn2 
	.byte	W12
	.byte		        Fs1 
	.byte		N11   , Cn2 
	.byte	W12
	.byte		        Fs1 
	.byte		N11   , Cn2 
	.byte	W12
	.byte		        Fs1 
	.byte		N11   , Cn2 
	.byte	W12
	.byte	PEND
@ 084   ----------------------------------------
	.byte	PATT
	 .word	I_May_Fall_0_5_083
@ 085   ----------------------------------------
	.byte	PATT
	 .word	I_May_Fall_0_5_083
@ 086   ----------------------------------------
	.byte	PATT
	 .word	I_May_Fall_0_5_083
@ 087   ----------------------------------------
	.byte	PATT
	 .word	I_May_Fall_0_5_083
@ 088   ----------------------------------------
	.byte	PATT
	 .word	I_May_Fall_0_5_083
@ 089   ----------------------------------------
	.byte	PATT
	 .word	I_May_Fall_0_5_083
@ 090   ----------------------------------------
	.byte	W96
@ 091   ----------------------------------------
	.byte	W96
@ 092   ----------------------------------------
	.byte	W96
@ 093   ----------------------------------------
	.byte	W96
@ 094   ----------------------------------------
	.byte	W96
@ 095   ----------------------------------------
	.byte	W96
@ 096   ----------------------------------------
	.byte	W96
@ 097   ----------------------------------------
	.byte	W48
I_May_Fall_0_5_B1:
	.byte	W36
	.byte		N23   , En3 , v096
	.byte		N23   , An3 
	.byte	W12
@ 098   ----------------------------------------
	.byte	PATT
	 .word	I_May_Fall_0_5_008
@ 099   ----------------------------------------
	.byte	PATT
	 .word	I_May_Fall_0_5_009
@ 100   ----------------------------------------
	.byte	PATT
	 .word	I_May_Fall_0_5_010
@ 101   ----------------------------------------
	.byte	PATT
	 .word	I_May_Fall_0_5_011
@ 102   ----------------------------------------
	.byte	PATT
	 .word	I_May_Fall_0_5_012
@ 103   ----------------------------------------
	.byte	PATT
	 .word	I_May_Fall_0_5_013
@ 104   ----------------------------------------
	.byte	PATT
	 .word	I_May_Fall_0_5_014
@ 105   ----------------------------------------
	.byte	PATT
	 .word	I_May_Fall_0_5_015
@ 106   ----------------------------------------
	.byte	PATT
	 .word	I_May_Fall_0_5_016
@ 107   ----------------------------------------
	.byte	PATT
	 .word	I_May_Fall_0_5_017
@ 108   ----------------------------------------
	.byte	PATT
	 .word	I_May_Fall_0_5_018
@ 109   ----------------------------------------
	.byte	PATT
	 .word	I_May_Fall_0_5_019
@ 110   ----------------------------------------
	.byte	PATT
	 .word	I_May_Fall_0_5_020
@ 111   ----------------------------------------
	.byte	W12
	.byte		N11   , An2 , v096
	.byte		N11   , En3 
	.byte	W12
	.byte		        An2 
	.byte		N11   , En3 
	.byte	W12
	.byte		N23   , An2 
	.byte		N23   , En3 
	.byte	W24
	.byte		N11   , An2 
	.byte		N11   , En3 
	.byte	W12
	.byte		        An2 
	.byte		N11   , En3 
	.byte	W12
	.byte		N23   , Cn2 
	.byte		N23   , Gn2 
	.byte	W12
@ 112   ----------------------------------------
	.byte	PATT
	 .word	I_May_Fall_0_5_022
@ 113   ----------------------------------------
	.byte	W12
	.byte		N11   , En2 , v096
	.byte		N11   , Bn2 
	.byte	W12
	.byte		        En2 
	.byte		N11   , Bn2 
	.byte	W12
	.byte		N23   , Gn2 
	.byte		N23   , Dn3 
	.byte	W24
	.byte		N11   , Gn2 
	.byte		N11   , Dn3 
	.byte	W12
	.byte		        Gn2 
	.byte		N11   , Dn3 
	.byte	W12
	.byte		N23   , En2 
	.byte		N23   , Bn2 
	.byte	W12
@ 114   ----------------------------------------
	.byte	W12
	.byte		N11   , En2 
	.byte		N11   , Bn2 
	.byte	W12
	.byte		        En2 
	.byte		N11   , Bn2 
	.byte	W12
	.byte		        En2 
	.byte		N11   , Bn2 
	.byte	W12
	.byte		        En2 
	.byte		N11   , Bn2 
	.byte	W12
	.byte		        En2 
	.byte		N11   , Bn2 
	.byte	W12
	.byte		        En2 
	.byte		N11   , Bn2 
	.byte	W24
@ 115   ----------------------------------------
	.byte	PATT
	 .word	I_May_Fall_0_5_025
@ 116   ----------------------------------------
	.byte	W80
	.byte	W03
	.byte		EOT   , Cn2 
	.byte		        Gn2 
	.byte	W01
	.byte		N92   , Dn2 , v096
	.byte		N92   , An2 
	.byte	W12
@ 117   ----------------------------------------
	.byte	PATT
	 .word	I_May_Fall_0_5_027
@ 118   ----------------------------------------
	.byte	W12
	.byte		N11   , Bn1 , v096
	.byte		N11   , Fs2 
	.byte	W12
	.byte		        Bn1 
	.byte		N11   , Fs2 
	.byte	W12
	.byte		        Bn1 
	.byte		N11   , Fs2 
	.byte	W12
	.byte		        Bn1 
	.byte		N11   , Fs2 
	.byte	W12
	.byte		        Bn1 
	.byte		N11   , Fs2 
	.byte	W12
	.byte		        Bn1 
	.byte		N11   , Fs2 
	.byte	W12
	.byte		        En1 
	.byte		N11   , Bn1 
	.byte	W12
@ 119   ----------------------------------------
	.byte	PATT
	 .word	I_May_Fall_0_5_029
@ 120   ----------------------------------------
	.byte	W12
	.byte		N11   , Cn2 , v096
	.byte		N11   , Gn2 
	.byte	W12
	.byte		        Cn2 
	.byte		N11   , Gn2 
	.byte	W12
	.byte		        Cn2 
	.byte		N11   , Gn2 
	.byte	W12
	.byte		        Cn2 
	.byte		N11   , Gn2 
	.byte	W12
	.byte		        Cn2 
	.byte		N11   , Gn2 
	.byte	W24
	.byte		N23   , Dn2 
	.byte		N23   , An2 
	.byte	W12
@ 121   ----------------------------------------
	.byte	PATT
	 .word	I_May_Fall_0_5_031
@ 122   ----------------------------------------
	.byte	PATT
	 .word	I_May_Fall_0_5_032
@ 123   ----------------------------------------
	.byte	PATT
	 .word	I_May_Fall_0_5_033
@ 124   ----------------------------------------
	.byte	PATT
	 .word	I_May_Fall_0_5_034
@ 125   ----------------------------------------
	.byte	PATT
	 .word	I_May_Fall_0_5_035
@ 126   ----------------------------------------
	.byte	PATT
	 .word	I_May_Fall_0_5_036
@ 127   ----------------------------------------
	.byte		N11   , En1 , v096
	.byte		N11   , Bn1 
	.byte	W12
	.byte		        En1 
	.byte		N11   , Bn1 
	.byte	W12
	.byte		        En1 
	.byte		N11   , Bn1 
	.byte	W12
	.byte		N23   , En2 
	.byte		N23   , Bn2 
	.byte	W24
	.byte		        Dn2 
	.byte		N23   , An2 
	.byte	W24
	.byte		N92   , Cn2 
	.byte		N92   , Gn2 
	.byte	W12
@ 128   ----------------------------------------
	.byte	W84
	.byte		N44   , Bn1 
	.byte		N44   , Fs2 
	.byte	W12
@ 129   ----------------------------------------
	.byte	W36
	.byte		N23   , Cn2 
	.byte		N23   , Gn2 
	.byte	W24
	.byte		        Bn1 
	.byte		N23   , Fs2 
	.byte	W24
	.byte		N92   , Fs1 
	.byte		N92   , Cn2 
	.byte	W12
@ 130   ----------------------------------------
	.byte	W84
	.byte		N44   , En1 
	.byte		N44   , Bn1 
	.byte	W12
@ 131   ----------------------------------------
	.byte	W36
	.byte		N23   , Fs1 
	.byte		N23   , Cn2 
	.byte	W24
	.byte		        Bn1 
	.byte		N23   , Fs2 
	.byte	W24
	.byte		N92   , Cn2 
	.byte		N92   , Gn2 
	.byte	W12
@ 132   ----------------------------------------
	.byte	W84
	.byte		        Bn1 
	.byte		N92   , Fs2 
	.byte	W12
@ 133   ----------------------------------------
	.byte	W84
	.byte		TIE   , Fn1 
	.byte		TIE   , Cn2 
	.byte	W12
@ 134   ----------------------------------------
	.byte	W92
	.byte	W03
	.byte		EOT   , Fn1 
	.byte		        Cn2 
	.byte	W01
@ 135   ----------------------------------------
	.byte	W96
	.byte	GOTO
	 .word	I_May_Fall_0_5_B1
I_May_Fall_0_5_B2:
@ 136   ----------------------------------------
	.byte	FINE

@**************** Track 6 (Midi-Chn.6) ****************@

I_May_Fall_0_6:
	.byte	KEYSH , I_May_Fall_0_key+0
@ 000   ----------------------------------------
	.byte		VOICE , 30
	.byte		VOL   , 88*I_May_Fall_0_mvl/mxv
	.byte		PAN   , c_v+0
	.byte	W96
@ 001   ----------------------------------------
	.byte	W96
@ 002   ----------------------------------------
	.byte	W96
@ 003   ----------------------------------------
	.byte	W96
@ 004   ----------------------------------------
	.byte	W96
@ 005   ----------------------------------------
	.byte	W96
@ 006   ----------------------------------------
	.byte	W96
@ 007   ----------------------------------------
	.byte	W96
@ 008   ----------------------------------------
	.byte	W96
@ 009   ----------------------------------------
	.byte	W96
@ 010   ----------------------------------------
	.byte	W96
@ 011   ----------------------------------------
	.byte	W96
@ 012   ----------------------------------------
	.byte	W96
@ 013   ----------------------------------------
	.byte	W96
@ 014   ----------------------------------------
	.byte	W96
@ 015   ----------------------------------------
	.byte	W96
@ 016   ----------------------------------------
	.byte	W96
@ 017   ----------------------------------------
	.byte	W96
@ 018   ----------------------------------------
	.byte	W96
@ 019   ----------------------------------------
	.byte	W96
@ 020   ----------------------------------------
	.byte	W96
@ 021   ----------------------------------------
	.byte	W96
@ 022   ----------------------------------------
	.byte	W96
@ 023   ----------------------------------------
	.byte	W96
@ 024   ----------------------------------------
	.byte	W96
@ 025   ----------------------------------------
	.byte	W96
@ 026   ----------------------------------------
	.byte	W96
@ 027   ----------------------------------------
	.byte	W96
@ 028   ----------------------------------------
	.byte	W96
@ 029   ----------------------------------------
	.byte	W96
@ 030   ----------------------------------------
	.byte	W96
@ 031   ----------------------------------------
	.byte	W96
@ 032   ----------------------------------------
	.byte	W96
@ 033   ----------------------------------------
	.byte	W96
@ 034   ----------------------------------------
	.byte	W96
@ 035   ----------------------------------------
	.byte	W96
@ 036   ----------------------------------------
	.byte	W96
@ 037   ----------------------------------------
	.byte	W96
@ 038   ----------------------------------------
	.byte	W96
@ 039   ----------------------------------------
	.byte	W96
@ 040   ----------------------------------------
	.byte	W96
@ 041   ----------------------------------------
	.byte	W96
@ 042   ----------------------------------------
	.byte	W96
@ 043   ----------------------------------------
	.byte	W96
@ 044   ----------------------------------------
	.byte	W96
@ 045   ----------------------------------------
	.byte	W96
@ 046   ----------------------------------------
	.byte	W96
@ 047   ----------------------------------------
	.byte	W96
@ 048   ----------------------------------------
	.byte	W96
@ 049   ----------------------------------------
	.byte	W96
@ 050   ----------------------------------------
	.byte	W96
@ 051   ----------------------------------------
	.byte	W96
@ 052   ----------------------------------------
	.byte	W96
@ 053   ----------------------------------------
	.byte	W96
@ 054   ----------------------------------------
	.byte	W96
@ 055   ----------------------------------------
	.byte	W96
@ 056   ----------------------------------------
	.byte	W96
@ 057   ----------------------------------------
	.byte	W96
@ 058   ----------------------------------------
	.byte	W96
@ 059   ----------------------------------------
	.byte	W96
@ 060   ----------------------------------------
	.byte	W96
@ 061   ----------------------------------------
	.byte	W96
@ 062   ----------------------------------------
	.byte	W96
@ 063   ----------------------------------------
	.byte	W96
@ 064   ----------------------------------------
	.byte	W96
@ 065   ----------------------------------------
	.byte	W96
@ 066   ----------------------------------------
	.byte		N05   , En2 , v127
	.byte	W06
	.byte		        Fs2 
	.byte	W06
	.byte		        Gn2 
	.byte	W06
	.byte		        An2 
	.byte	W06
	.byte		        Gn2 
	.byte	W06
	.byte		        Fs2 
	.byte	W06
	.byte		        En2 
	.byte	W06
	.byte		        Fs2 
	.byte	W06
	.byte		        Gn2 
	.byte	W06
	.byte		        An2 
	.byte	W06
	.byte		        Bn2 
	.byte	W06
	.byte		        An2 
	.byte	W06
	.byte		        Gn2 
	.byte	W06
	.byte		        An2 
	.byte	W06
	.byte		        Bn2 
	.byte	W06
	.byte		        Dn3 
	.byte	W06
@ 067   ----------------------------------------
	.byte		N32   , Gn3 
	.byte	W36
	.byte		        Dn4 
	.byte	W36
	.byte		N80   , An3 
	.byte	W24
@ 068   ----------------------------------------
	.byte	W60
	.byte		N11   
	.byte	W12
	.byte		N11   
	.byte	W12
	.byte		N32   
	.byte	W12
@ 069   ----------------------------------------
	.byte	W24
	.byte		N11   
	.byte	W12
	.byte		N44   
	.byte	W48
	.byte		N11   , Dn4 
	.byte	W12
@ 070   ----------------------------------------
	.byte	W12
	.byte		N11   
	.byte	W12
	.byte		        En4 
	.byte	W12
	.byte		N05   , An3 
	.byte	W06
	.byte		        Bn3 
	.byte	W18
	.byte		N11   
	.byte	W12
	.byte		        An3 
	.byte	W12
	.byte		N44   , Bn3 
	.byte	W12
@ 071   ----------------------------------------
	.byte	W36
	.byte		N23   
	.byte	W24
	.byte		        Gn4 
	.byte	W24
	.byte		N92   , Dn4 
	.byte	W12
@ 072   ----------------------------------------
	.byte	W84
	.byte		N68   , An4 
	.byte	W12
@ 073   ----------------------------------------
	.byte	W60
	.byte		N07   , Fn4 
	.byte	W08
	.byte		        Gn4 
	.byte	W08
	.byte		        An4 
	.byte	W08
	.byte		        Gn4 
	.byte	W08
	.byte		N05   , An4 
	.byte	W04
@ 074   ----------------------------------------
	.byte	W01
	.byte		N01   , Gn4 
	.byte	W01
	.byte		N03   , Fn4 
	.byte	W04
	.byte		        En4 
	.byte	W04
	.byte		        Dn4 
	.byte	W04
	.byte		N06   , Cn4 
	.byte	W07
	.byte		N02   , Bn3 
	.byte	W03
	.byte		        Cn4 
	.byte	W03
	.byte		N05   , Dn4 
	.byte	W06
	.byte		N02   , Cn4 
	.byte	W03
	.byte		        Bn3 
	.byte	W03
	.byte		N05   , Cn4 
	.byte	W06
	.byte		        Bn3 
	.byte	W06
	.byte		        An3 
	.byte	W06
	.byte		        Gn3 
	.byte	W06
	.byte		N02   , Fn3 
	.byte	W03
	.byte		        Gn3 
	.byte	W03
	.byte		        An3 
	.byte	W03
	.byte		        Gn3 
	.byte	W03
	.byte		        Fn3 
	.byte	W03
	.byte		N05   , An3 
	.byte	W06
	.byte		N02   , Gn3 
	.byte	W03
	.byte		        Fn3 
	.byte	W03
	.byte		N05   , En3 
	.byte	W06
@ 075   ----------------------------------------
	.byte		N32   
	.byte	W36
	.byte		        Bn3 
	.byte	W36
	.byte		N56   , Gn3 
	.byte	W24
@ 076   ----------------------------------------
	.byte	W36
	.byte		N64   , Fs3 
	.byte	W60
@ 077   ----------------------------------------
	.byte	W06
	.byte		N05   
	.byte	W06
	.byte		        Gn3 
	.byte	W06
	.byte		        Dn3 
	.byte	W06
	.byte		        En3 
	.byte	W06
	.byte		        An2 
	.byte	W06
	.byte		        Bn2 
	.byte	W06
	.byte		        Cn3 
	.byte	W06
	.byte		N03   , Dn3 
	.byte	W04
	.byte		        Cn3 
	.byte	W04
	.byte		N06   , An2 
	.byte	W07
	.byte		N05   , Cn3 
	.byte	W06
	.byte		        An2 
	.byte	W06
	.byte		        Gn2 
	.byte	W06
	.byte		N24   , An2 
	.byte	W15
@ 078   ----------------------------------------
	.byte	W12
	.byte		N02   
	.byte	W03
	.byte		        Gn2 
	.byte	W03
	.byte		N01   , En2 
	.byte	W02
	.byte		        Gn2 
	.byte	W02
	.byte		        En2 
	.byte	W02
	.byte		N03   , Dn2 
	.byte	W04
	.byte		        En2 
	.byte	W04
	.byte		        Dn2 
	.byte	W04
	.byte		        En2 
	.byte	W04
	.byte		N07   , Dn2 
	.byte	W08
	.byte		N11   , An1 
	.byte	W12
	.byte		N23   , Gn1 
	.byte	W24
	.byte		N28   , En1 
	.byte	W12
@ 079   ----------------------------------------
	.byte	W48
	.byte		N11   , En3 
	.byte		N11   , Gn3 
	.byte	W12
	.byte		        Fn3 
	.byte		N11   , As3 
	.byte	W12
	.byte		N05   , En3 
	.byte		N05   , Gn3 
	.byte	W06
	.byte		        An3 
	.byte	W06
	.byte		N23   
	.byte	W12
@ 080   ----------------------------------------
	.byte	W12
	.byte		N05   , Bn3 
	.byte		N05   , En4 
	.byte	W06
	.byte		        Bn3 
	.byte		N05   , En4 
	.byte	W06
	.byte		N02   , Bn3 
	.byte	W03
	.byte		        Dn4 
	.byte	W03
	.byte		N05   , Bn3 
	.byte	W06
	.byte		        As3 
	.byte	W06
	.byte		        Bn3 
	.byte	W06
	.byte		N02   , An3 
	.byte	W03
	.byte		        As3 
	.byte	W03
	.byte		N05   , Bn3 
	.byte	W06
	.byte		N11   , Dn4 
	.byte	W12
	.byte		        Gn4 
	.byte	W12
	.byte		N56   , An4 
	.byte	W12
@ 081   ----------------------------------------
	.byte	W60
	.byte		N80   , Dn5 
	.byte	W36
@ 082   ----------------------------------------
	.byte	W48
	.byte		N07   , Cn5 
	.byte	W08
	.byte		        Dn5 
	.byte	W08
	.byte		        En5 
	.byte	W08
	.byte		        Cn5 
	.byte	W08
	.byte		        An4 
	.byte	W08
	.byte		N19   , Gn4 
	.byte	W08
@ 083   ----------------------------------------
	.byte	W12
	.byte		N07   , Cn5 
	.byte	W08
	.byte		        Gn4 
	.byte	W08
	.byte		N54   , Bn4 
	.byte	W56
	.byte		N11   , Fs4 
	.byte	W12
@ 084   ----------------------------------------
	.byte	W08
	.byte		N44   , Bn3 
	.byte	W44
	.byte	W02
	.byte		N11   , Gn3 
	.byte	W12
	.byte		        An3 
	.byte	W12
	.byte		N05   , En3 
	.byte	W06
	.byte		N07   , An3 
	.byte	W08
	.byte		N03   , En3 
	.byte	W04
@ 085   ----------------------------------------
	.byte		N11   , Gn3 
	.byte	W12
	.byte		N07   , Dn3 
	.byte	W08
	.byte		        En3 
	.byte	W08
	.byte		        Cn3 
	.byte	W08
	.byte		N05   , Dn3 
	.byte	W06
	.byte		N07   , Cn3 
	.byte	W08
	.byte		        An2 
	.byte	W08
	.byte		        Cn3 
	.byte	W08
	.byte		N28   , En2 
	.byte	W24
	.byte	W01
	.byte		N04   , Bn2 
	.byte	W05
@ 086   ----------------------------------------
	.byte		N17   , Cn3 
	.byte	W18
	.byte		        Bn2 
	.byte	W18
	.byte		N11   , Gn2 
	.byte	W12
	.byte		N17   , En2 
	.byte	W18
	.byte		N17   
	.byte	W18
	.byte		N11   , Dn2 
	.byte	W12
@ 087   ----------------------------------------
	.byte		N17   , En2 
	.byte	W18
	.byte		        Dn3 
	.byte	W18
	.byte		N56   , Bn2 
	.byte	W60
@ 088   ----------------------------------------
	.byte	W12
	.byte		N03   , An4 
	.byte	W04
	.byte		        Gn4 
	.byte	W08
	.byte		N01   , En4 
	.byte	W02
	.byte		N01   
	.byte	W02
	.byte		        Dn4 
	.byte	W02
	.byte		N01   
	.byte	W02
	.byte		        En4 
	.byte	W02
	.byte		N01   
	.byte	W02
	.byte		        Fs4 
	.byte	W02
	.byte		N03   
	.byte	W04
	.byte		N07   , Dn4 
	.byte	W08
	.byte		N03   , Cn4 
	.byte	W04
	.byte		        Dn4 
	.byte	W04
	.byte		        En4 
	.byte	W04
	.byte		        Cn4 
	.byte	W04
	.byte		        Bn3 
	.byte	W04
	.byte		        Cn4 
	.byte	W04
	.byte		N02   , Dn4 
	.byte	W03
	.byte		N01   
	.byte	W01
	.byte		N03   , Cn4 
	.byte	W04
	.byte		        Bn3 
	.byte	W04
	.byte		N01   , An3 
	.byte	W02
	.byte		N01   
	.byte	W02
	.byte		N04   , Gn3 
	.byte	W04
	.byte		N03   
	.byte	W02
@ 089   ----------------------------------------
	.byte	W02
	.byte		        Fs3 
	.byte	W04
	.byte		N01   , Gn3 
	.byte	W02
	.byte		N01   
	.byte	W02
	.byte		        An3 
	.byte	W02
	.byte		N03   
	.byte	W04
	.byte		N07   , Fs3 
	.byte	W16
	.byte		N03   , Dn3 
	.byte	W04
	.byte		        Cn3 
	.byte	W04
	.byte		        Bn2 
	.byte	W04
	.byte		        Cn3 
	.byte	W04
	.byte		        Dn3 
	.byte	W04
	.byte		        Cn3 
	.byte	W04
	.byte		        Bn2 
	.byte	W04
	.byte		N05   , Dn3 
	.byte	W06
	.byte		N28   , Gn2 
	.byte	W30
@ 090   ----------------------------------------
	.byte	W96
@ 091   ----------------------------------------
	.byte	W96
@ 092   ----------------------------------------
	.byte	W96
@ 093   ----------------------------------------
	.byte	W96
@ 094   ----------------------------------------
	.byte	W96
@ 095   ----------------------------------------
	.byte	W96
@ 096   ----------------------------------------
	.byte	W96
@ 097   ----------------------------------------
	.byte	W48
I_May_Fall_0_6_B1:
	.byte	W48
@ 098   ----------------------------------------
	.byte	W96
@ 099   ----------------------------------------
	.byte	W96
@ 100   ----------------------------------------
	.byte	W96
@ 101   ----------------------------------------
	.byte	W96
@ 102   ----------------------------------------
	.byte	W96
@ 103   ----------------------------------------
	.byte	W96
@ 104   ----------------------------------------
	.byte	W96
@ 105   ----------------------------------------
	.byte	W96
@ 106   ----------------------------------------
	.byte	W96
@ 107   ----------------------------------------
	.byte	W96
@ 108   ----------------------------------------
	.byte	W96
@ 109   ----------------------------------------
	.byte	W96
@ 110   ----------------------------------------
	.byte	W96
@ 111   ----------------------------------------
	.byte	W96
@ 112   ----------------------------------------
	.byte	W96
@ 113   ----------------------------------------
	.byte	W96
@ 114   ----------------------------------------
	.byte	W96
@ 115   ----------------------------------------
	.byte	W96
@ 116   ----------------------------------------
	.byte	W96
@ 117   ----------------------------------------
	.byte	W96
@ 118   ----------------------------------------
	.byte	W96
@ 119   ----------------------------------------
	.byte	W96
@ 120   ----------------------------------------
	.byte	W96
@ 121   ----------------------------------------
	.byte	W96
@ 122   ----------------------------------------
	.byte	W96
@ 123   ----------------------------------------
	.byte	W96
@ 124   ----------------------------------------
	.byte	W96
@ 125   ----------------------------------------
	.byte	W96
@ 126   ----------------------------------------
	.byte	W96
@ 127   ----------------------------------------
	.byte	W96
@ 128   ----------------------------------------
	.byte	W96
@ 129   ----------------------------------------
	.byte	W96
@ 130   ----------------------------------------
	.byte	W96
@ 131   ----------------------------------------
	.byte	W96
@ 132   ----------------------------------------
	.byte	W96
@ 133   ----------------------------------------
	.byte	W96
@ 134   ----------------------------------------
	.byte	W96
@ 135   ----------------------------------------
	.byte	W96
	.byte	GOTO
	 .word	I_May_Fall_0_6_B1
I_May_Fall_0_6_B2:
@ 136   ----------------------------------------
	.byte	FINE

@**************** Track 7 (Midi-Chn.7) ****************@

I_May_Fall_0_7:
	.byte	KEYSH , I_May_Fall_0_key+0
@ 000   ----------------------------------------
	.byte		VOICE , 34
	.byte		VOL   , 100*I_May_Fall_0_mvl/mxv
	.byte		PAN   , c_v+0
	.byte	W96
@ 001   ----------------------------------------
	.byte	W96
@ 002   ----------------------------------------
	.byte	W96
@ 003   ----------------------------------------
	.byte	W96
@ 004   ----------------------------------------
	.byte	W96
@ 005   ----------------------------------------
	.byte	W96
@ 006   ----------------------------------------
	.byte	W96
@ 007   ----------------------------------------
	.byte	W84
	.byte		N23   , Fn1 , v080
	.byte	W12
@ 008   ----------------------------------------
I_May_Fall_0_7_008:
	.byte	W12
	.byte		N11   , Fn1 , v080
	.byte	W12
	.byte		N11   
	.byte	W12
	.byte		N11   
	.byte	W12
	.byte		N11   
	.byte	W12
	.byte		N11   
	.byte	W12
	.byte		N11   
	.byte	W12
	.byte		N23   , Gn1 
	.byte	W12
	.byte	PEND
@ 009   ----------------------------------------
I_May_Fall_0_7_009:
	.byte	W12
	.byte		N11   , Gn1 , v080
	.byte	W12
	.byte		N11   
	.byte	W12
	.byte		N23   , An1 
	.byte	W24
	.byte		N11   
	.byte	W12
	.byte		N11   
	.byte	W12
	.byte		N23   , Fn1 
	.byte	W12
	.byte	PEND
@ 010   ----------------------------------------
	.byte	PATT
	 .word	I_May_Fall_0_7_008
@ 011   ----------------------------------------
I_May_Fall_0_7_011:
	.byte	W12
	.byte		N11   , Gn1 , v080
	.byte	W12
	.byte		N11   
	.byte	W12
	.byte		N23   , An1 
	.byte	W24
	.byte		N11   
	.byte	W12
	.byte		N11   
	.byte	W12
	.byte		N23   , Dn1 
	.byte	W12
	.byte	PEND
@ 012   ----------------------------------------
I_May_Fall_0_7_012:
	.byte	W12
	.byte		N11   , Dn1 , v080
	.byte	W12
	.byte		N11   
	.byte	W12
	.byte		N11   
	.byte	W12
	.byte		N11   
	.byte	W12
	.byte		N11   
	.byte	W12
	.byte		N11   
	.byte	W12
	.byte		N23   , En1 
	.byte	W12
	.byte	PEND
@ 013   ----------------------------------------
I_May_Fall_0_7_013:
	.byte	W12
	.byte		N11   , En1 , v080
	.byte	W12
	.byte		N11   
	.byte	W12
	.byte		N23   , An1 
	.byte	W24
	.byte		N11   
	.byte	W12
	.byte		N11   
	.byte	W12
	.byte		N23   , As1 
	.byte	W12
	.byte	PEND
@ 014   ----------------------------------------
I_May_Fall_0_7_014:
	.byte	W12
	.byte		N11   , As1 , v080
	.byte	W12
	.byte		N11   
	.byte	W12
	.byte		N11   
	.byte	W12
	.byte		N11   
	.byte	W12
	.byte		N11   
	.byte	W12
	.byte		N11   
	.byte	W12
	.byte		N23   
	.byte	W12
	.byte	PEND
@ 015   ----------------------------------------
I_May_Fall_0_7_015:
	.byte	W12
	.byte		N11   , As1 , v080
	.byte	W12
	.byte		N11   
	.byte	W12
	.byte		N11   
	.byte	W12
	.byte		N11   
	.byte	W12
	.byte		N11   
	.byte	W12
	.byte		N11   
	.byte	W12
	.byte		N23   , Fn1 
	.byte	W12
	.byte	PEND
@ 016   ----------------------------------------
	.byte	W12
	.byte		N11   
	.byte	W12
	.byte		N11   
	.byte	W12
	.byte		N11   
	.byte	W12
	.byte		N11   
	.byte	W12
	.byte		N05   
	.byte	W06
	.byte		N05   
	.byte	W06
	.byte		N11   
	.byte	W12
	.byte		N05   
	.byte	W06
	.byte		N05   
	.byte	W06
@ 017   ----------------------------------------
I_May_Fall_0_7_017:
	.byte		N11   , Fn1 , v080
	.byte	W12
	.byte		N05   
	.byte	W06
	.byte		N05   
	.byte	W06
	.byte		N11   
	.byte	W12
	.byte		N05   
	.byte	W06
	.byte		N05   
	.byte	W06
	.byte		N11   
	.byte	W12
	.byte		N05   
	.byte	W06
	.byte		N05   
	.byte	W06
	.byte		N11   
	.byte	W12
	.byte		N05   
	.byte	W06
	.byte		N05   
	.byte	W06
	.byte	PEND
@ 018   ----------------------------------------
	.byte	PATT
	 .word	I_May_Fall_0_7_017
@ 019   ----------------------------------------
	.byte		N11   , Fn1 , v080
	.byte	W12
	.byte		N05   
	.byte	W06
	.byte		N05   
	.byte	W06
	.byte		N11   
	.byte	W12
	.byte		N05   
	.byte	W06
	.byte		N05   
	.byte	W06
	.byte		N11   
	.byte	W12
	.byte		N05   
	.byte	W06
	.byte		N05   
	.byte	W06
	.byte		N11   
	.byte	W12
	.byte		N44   , En1 
	.byte	W12
@ 020   ----------------------------------------
	.byte	W36
	.byte		N23   
	.byte	W24
	.byte		N11   
	.byte	W12
	.byte		N11   
	.byte	W12
	.byte		N23   , Gn1 
	.byte	W12
@ 021   ----------------------------------------
	.byte	W12
	.byte		N11   , An1 
	.byte	W12
	.byte		N11   
	.byte	W12
	.byte		N44   
	.byte	W48
	.byte		        Cn2 
	.byte	W12
@ 022   ----------------------------------------
	.byte	W36
	.byte		        Dn2 
	.byte	W48
	.byte		        En2 
	.byte	W12
@ 023   ----------------------------------------
	.byte	W36
	.byte		N56   , Gn2 
	.byte	W60
@ 024   ----------------------------------------
	.byte		N05   , En2 , v127
	.byte	W06
	.byte		        Fs2 
	.byte	W06
	.byte		        Gn2 
	.byte	W06
	.byte		        An2 
	.byte	W06
	.byte		        Gn2 
	.byte	W06
	.byte		        Fs2 
	.byte	W06
	.byte		        En2 
	.byte	W06
	.byte		        Fs2 
	.byte	W06
	.byte		        Gn2 
	.byte	W06
	.byte		        An2 
	.byte	W06
	.byte		        Bn2 
	.byte	W06
	.byte		        An2 
	.byte	W06
	.byte		        Gn2 
	.byte	W06
	.byte		        An2 
	.byte	W06
	.byte		        Bn2 
	.byte	W06
	.byte		        Dn3 
	.byte	W06
@ 025   ----------------------------------------
I_May_Fall_0_7_025:
	.byte		N32   , En2 , v080
	.byte	W36
	.byte		        Dn2 
	.byte	W36
	.byte		N44   , Cn2 
	.byte	W24
	.byte	PEND
@ 026   ----------------------------------------
	.byte	W24
	.byte		N11   
	.byte	W12
	.byte		N05   
	.byte	W06
	.byte		N05   
	.byte	W06
	.byte		N11   
	.byte	W12
	.byte		N05   
	.byte	W06
	.byte		N05   
	.byte	W06
	.byte		N11   
	.byte	W12
	.byte		N23   
	.byte	W12
@ 027   ----------------------------------------
	.byte	W12
	.byte		        Dn2 
	.byte	W24
	.byte		N23   
	.byte	W24
	.byte		N23   
	.byte	W24
	.byte		N32   , Bn1 
	.byte	W12
@ 028   ----------------------------------------
	.byte	W24
	.byte		N23   
	.byte	W24
	.byte		N23   
	.byte	W24
	.byte		N56   , En1 
	.byte	W24
@ 029   ----------------------------------------
	.byte	W36
	.byte		N23   , En2 
	.byte	W24
	.byte		        Dn2 
	.byte	W24
	.byte		        Cn2 
	.byte	W12
@ 030   ----------------------------------------
	.byte	W12
	.byte		N23   
	.byte	W24
	.byte		N11   
	.byte	W12
	.byte		N11   
	.byte	W12
	.byte		N11   
	.byte	W12
	.byte		N05   
	.byte	W06
	.byte		N05   
	.byte	W06
	.byte		N23   , Dn2 
	.byte	W12
@ 031   ----------------------------------------
	.byte	W12
	.byte		N11   
	.byte	W12
	.byte		N11   
	.byte	W12
	.byte		N11   
	.byte	W12
	.byte		N11   
	.byte	W12
	.byte		N11   
	.byte	W12
	.byte		N05   
	.byte	W06
	.byte		N05   
	.byte	W06
	.byte		N23   , Fn1 
	.byte	W12
@ 032   ----------------------------------------
	.byte	W12
	.byte		N11   
	.byte	W12
	.byte		N11   
	.byte	W12
	.byte		        An1 
	.byte	W12
	.byte		N11   
	.byte	W12
	.byte		N11   
	.byte	W12
	.byte		N11   
	.byte	W12
	.byte		N11   
	.byte	W12
@ 033   ----------------------------------------
I_May_Fall_0_7_033:
	.byte		N32   , En2 , v080
	.byte	W36
	.byte		        Dn2 
	.byte	W36
	.byte		        Cn2 
	.byte	W24
	.byte	PEND
@ 034   ----------------------------------------
	.byte	W12
	.byte		N23   
	.byte	W24
	.byte		N11   
	.byte	W12
	.byte		N11   
	.byte	W12
	.byte		N11   
	.byte	W12
	.byte		N11   
	.byte	W12
	.byte		N23   , Dn2 
	.byte	W12
@ 035   ----------------------------------------
	.byte	W12
	.byte		N11   
	.byte	W12
	.byte		N11   
	.byte	W12
	.byte		N11   
	.byte	W12
	.byte		N11   
	.byte	W12
	.byte		N11   
	.byte	W12
	.byte		N11   
	.byte	W12
	.byte		N23   , En1 
	.byte	W12
@ 036   ----------------------------------------
I_May_Fall_0_7_036:
	.byte	W12
	.byte		N11   , En1 , v080
	.byte	W12
	.byte		N11   
	.byte	W12
	.byte		N11   
	.byte	W12
	.byte		N11   
	.byte	W12
	.byte		N11   
	.byte	W12
	.byte		N11   
	.byte	W12
	.byte		N11   
	.byte	W12
	.byte	PEND
@ 037   ----------------------------------------
	.byte		N11   
	.byte	W12
	.byte		N11   
	.byte	W12
	.byte		N11   
	.byte	W12
	.byte		N23   , En2 
	.byte	W24
	.byte		        Dn2 
	.byte	W24
	.byte		N32   , Cn2 
	.byte	W12
@ 038   ----------------------------------------
	.byte	W24
	.byte		N11   
	.byte	W12
	.byte		N05   
	.byte	W06
	.byte		N05   
	.byte	W06
	.byte		N11   
	.byte	W12
	.byte		N11   
	.byte	W12
	.byte		N11   
	.byte	W12
	.byte		N05   
	.byte	W06
	.byte		N05   
	.byte	W06
@ 039   ----------------------------------------
	.byte		N11   
	.byte	W12
	.byte		N05   
	.byte	W06
	.byte		N05   
	.byte	W06
	.byte		N11   
	.byte	W12
	.byte		N05   
	.byte	W06
	.byte		N05   
	.byte	W06
	.byte		N11   
	.byte	W12
	.byte		N05   
	.byte	W06
	.byte		N05   
	.byte	W06
	.byte		N11   
	.byte	W12
	.byte		N05   
	.byte	W06
	.byte		N05   
	.byte	W06
@ 040   ----------------------------------------
	.byte		N11   
	.byte	W12
	.byte		N05   
	.byte	W06
	.byte		N05   
	.byte	W06
	.byte		N11   
	.byte	W12
	.byte		N05   
	.byte	W06
	.byte		N05   
	.byte	W06
	.byte		N11   
	.byte	W12
	.byte		N05   
	.byte	W06
	.byte		N05   
	.byte	W06
	.byte		N11   
	.byte	W12
	.byte		N23   , Fn1 
	.byte	W12
@ 041   ----------------------------------------
	.byte	W12
	.byte		N11   
	.byte	W12
	.byte		N11   
	.byte	W12
	.byte		N11   
	.byte	W12
	.byte		N11   
	.byte	W12
	.byte		N11   
	.byte	W12
	.byte		N11   
	.byte	W12
	.byte		N11   
	.byte	W12
@ 042   ----------------------------------------
I_May_Fall_0_7_042:
	.byte		N11   , Fn1 , v080
	.byte	W12
	.byte		N11   
	.byte	W12
	.byte		N11   
	.byte	W12
	.byte		N11   
	.byte	W12
	.byte		N11   
	.byte	W12
	.byte		N11   
	.byte	W12
	.byte		N11   
	.byte	W12
	.byte		N23   , Gn1 
	.byte	W12
	.byte	PEND
@ 043   ----------------------------------------
	.byte	PATT
	 .word	I_May_Fall_0_7_009
@ 044   ----------------------------------------
	.byte	PATT
	 .word	I_May_Fall_0_7_008
@ 045   ----------------------------------------
	.byte	PATT
	 .word	I_May_Fall_0_7_011
@ 046   ----------------------------------------
	.byte	PATT
	 .word	I_May_Fall_0_7_012
@ 047   ----------------------------------------
	.byte	PATT
	 .word	I_May_Fall_0_7_013
@ 048   ----------------------------------------
	.byte	W12
	.byte		N11   , As1 , v080
	.byte	W12
	.byte		N11   
	.byte	W12
	.byte		N11   
	.byte	W12
	.byte		N11   
	.byte	W12
	.byte		N11   
	.byte	W12
	.byte		N11   
	.byte	W12
	.byte		N11   
	.byte	W12
@ 049   ----------------------------------------
I_May_Fall_0_7_049:
	.byte		N11   , As1 , v080
	.byte	W12
	.byte		N11   
	.byte	W12
	.byte		N11   
	.byte	W12
	.byte		N11   
	.byte	W12
	.byte		N11   
	.byte	W12
	.byte		N11   
	.byte	W12
	.byte		N11   
	.byte	W12
	.byte		N23   , Fn1 
	.byte	W12
	.byte	PEND
@ 050   ----------------------------------------
	.byte	PATT
	 .word	I_May_Fall_0_7_008
@ 051   ----------------------------------------
	.byte	W12
	.byte		N11   , Gn1 , v080
	.byte	W12
	.byte		N11   
	.byte	W12
	.byte		N23   , An1 
	.byte	W24
	.byte		N11   
	.byte	W12
	.byte		N11   
	.byte	W12
	.byte		        Fn1 
	.byte	W12
@ 052   ----------------------------------------
	.byte	PATT
	 .word	I_May_Fall_0_7_042
@ 053   ----------------------------------------
	.byte	W12
	.byte		N11   , Gn1 , v080
	.byte	W12
	.byte		N11   
	.byte	W12
	.byte		        An1 
	.byte	W12
	.byte		N11   
	.byte	W12
	.byte		N11   
	.byte	W12
	.byte		N11   
	.byte	W12
	.byte		N23   , Dn1 
	.byte	W12
@ 054   ----------------------------------------
	.byte	PATT
	 .word	I_May_Fall_0_7_012
@ 055   ----------------------------------------
	.byte	W12
	.byte		N11   , En1 , v080
	.byte	W12
	.byte		N11   
	.byte	W12
	.byte		N23   , An1 
	.byte	W24
	.byte		N11   
	.byte	W12
	.byte		N11   
	.byte	W12
	.byte		        As1 
	.byte	W12
@ 056   ----------------------------------------
	.byte		N11   
	.byte	W12
	.byte		N11   
	.byte	W12
	.byte		N11   
	.byte	W12
	.byte		N11   
	.byte	W12
	.byte		N11   
	.byte	W12
	.byte		N11   
	.byte	W12
	.byte		N11   
	.byte	W12
	.byte		N11   
	.byte	W12
@ 057   ----------------------------------------
	.byte	PATT
	 .word	I_May_Fall_0_7_049
@ 058   ----------------------------------------
	.byte	W12
	.byte		N11   , Fn1 , v080
	.byte	W12
	.byte		N11   
	.byte	W12
	.byte		N05   
	.byte	W06
	.byte		N05   
	.byte	W06
	.byte		N11   
	.byte	W12
	.byte		N05   
	.byte	W06
	.byte		N05   
	.byte	W06
	.byte		N11   
	.byte	W12
	.byte		N05   
	.byte	W06
	.byte		N05   
	.byte	W06
@ 059   ----------------------------------------
	.byte	PATT
	 .word	I_May_Fall_0_7_017
@ 060   ----------------------------------------
	.byte	PATT
	 .word	I_May_Fall_0_7_017
@ 061   ----------------------------------------
I_May_Fall_0_7_061:
	.byte		N11   , Fn1 , v080
	.byte	W12
	.byte		N05   
	.byte	W06
	.byte		N05   
	.byte	W06
	.byte		N11   
	.byte	W12
	.byte		N05   
	.byte	W06
	.byte		N05   
	.byte	W06
	.byte		N11   
	.byte	W12
	.byte		N05   
	.byte	W06
	.byte		N05   
	.byte	W06
	.byte		N11   
	.byte	W12
	.byte		N23   , En1 
	.byte	W12
	.byte	PEND
@ 062   ----------------------------------------
I_May_Fall_0_7_062:
	.byte	W12
	.byte		N05   , En1 , v080
	.byte	W06
	.byte		N05   
	.byte	W06
	.byte		N11   
	.byte	W12
	.byte		N05   
	.byte	W06
	.byte		N05   
	.byte	W06
	.byte		N11   
	.byte	W12
	.byte		N05   
	.byte	W06
	.byte		N05   
	.byte	W06
	.byte		N11   
	.byte	W12
	.byte		N23   , Gn1 
	.byte	W12
	.byte	PEND
@ 063   ----------------------------------------
	.byte	W12
	.byte		N11   , An1 
	.byte	W12
	.byte		N11   
	.byte	W12
	.byte		N23   
	.byte	W24
	.byte		N11   
	.byte	W12
	.byte		N11   
	.byte	W12
	.byte		N23   , Cn2 
	.byte	W12
@ 064   ----------------------------------------
	.byte	W12
	.byte		N11   
	.byte	W12
	.byte		N11   
	.byte	W12
	.byte		N23   , Dn2 
	.byte	W24
	.byte		N11   
	.byte	W12
	.byte		N11   
	.byte	W12
	.byte		N23   , En2 
	.byte	W12
@ 065   ----------------------------------------
I_May_Fall_0_7_065:
	.byte	W12
	.byte		N11   , En2 , v080
	.byte	W12
	.byte		N11   
	.byte	W12
	.byte		N56   , Gn2 
	.byte	W60
	.byte	PEND
@ 066   ----------------------------------------
	.byte		N05   , En2 
	.byte	W06
	.byte		        Fs2 
	.byte	W06
	.byte		        Gn2 
	.byte	W06
	.byte		        An2 
	.byte	W06
	.byte		        Gn2 
	.byte	W06
	.byte		        Fs2 
	.byte	W06
	.byte		        En2 
	.byte	W06
	.byte		        Fs2 
	.byte	W06
	.byte		        Gn2 
	.byte	W06
	.byte		        An2 
	.byte	W06
	.byte		        Bn2 
	.byte	W06
	.byte		        An2 
	.byte	W06
	.byte		        Gn2 
	.byte	W06
	.byte		        An2 
	.byte	W06
	.byte		        Bn2 
	.byte	W06
	.byte		        Dn3 
	.byte	W06
@ 067   ----------------------------------------
	.byte	PATT
	 .word	I_May_Fall_0_7_025
@ 068   ----------------------------------------
	.byte	W24
	.byte		N11   , Cn2 , v080
	.byte	W12
	.byte		N05   
	.byte	W06
	.byte		N05   
	.byte	W06
	.byte		N11   
	.byte	W12
	.byte		N05   
	.byte	W06
	.byte		N05   
	.byte	W06
	.byte		N11   
	.byte	W12
	.byte		N05   
	.byte	W06
	.byte		N05   
	.byte	W06
@ 069   ----------------------------------------
	.byte		N23   , Dn2 
	.byte	W24
	.byte		N23   
	.byte	W24
	.byte		N23   
	.byte	W24
	.byte		N23   
	.byte	W24
@ 070   ----------------------------------------
	.byte		        Bn1 
	.byte	W24
	.byte		N23   
	.byte	W24
	.byte		N11   
	.byte	W12
	.byte		N11   
	.byte	W12
	.byte		N11   
	.byte	W12
	.byte		N23   , En1 
	.byte	W12
@ 071   ----------------------------------------
	.byte	W12
	.byte		N11   
	.byte	W12
	.byte		        Gn1 
	.byte	W12
	.byte		N23   , En2 
	.byte	W24
	.byte		        Dn2 
	.byte	W24
	.byte		        Cn2 
	.byte	W12
@ 072   ----------------------------------------
	.byte	W12
	.byte		N23   
	.byte	W24
	.byte		N11   
	.byte	W12
	.byte		N11   
	.byte	W12
	.byte		N11   
	.byte	W12
	.byte		N11   
	.byte	W12
	.byte		N11   
	.byte	W12
@ 073   ----------------------------------------
	.byte		N23   , Dn2 
	.byte	W24
	.byte		N11   
	.byte	W12
	.byte		N11   
	.byte	W12
	.byte		N11   
	.byte	W12
	.byte		N11   
	.byte	W12
	.byte		N11   
	.byte	W12
	.byte		N11   
	.byte	W12
@ 074   ----------------------------------------
	.byte		N23   , Fn1 
	.byte	W24
	.byte		N11   
	.byte	W12
	.byte		N23   
	.byte	W24
	.byte		N11   
	.byte	W12
	.byte		N11   
	.byte	W12
	.byte		N11   
	.byte	W12
@ 075   ----------------------------------------
	.byte	PATT
	 .word	I_May_Fall_0_7_033
@ 076   ----------------------------------------
	.byte	W12
	.byte		N11   , Cn2 , v080
	.byte	W12
	.byte		N11   
	.byte	W12
	.byte		N11   
	.byte	W12
	.byte		N11   
	.byte	W12
	.byte		N11   
	.byte	W12
	.byte		N11   
	.byte	W12
	.byte		N23   , Dn2 
	.byte	W12
@ 077   ----------------------------------------
	.byte	W12
	.byte		N23   
	.byte	W24
	.byte		N11   
	.byte	W12
	.byte		N11   
	.byte	W12
	.byte		N11   
	.byte	W12
	.byte		N11   
	.byte	W12
	.byte		N23   , En1 
	.byte	W12
@ 078   ----------------------------------------
	.byte	PATT
	 .word	I_May_Fall_0_7_036
@ 079   ----------------------------------------
	.byte		N11   , En1 , v080
	.byte	W12
	.byte		N11   
	.byte	W12
	.byte		N11   
	.byte	W12
	.byte		N23   , En2 
	.byte	W24
	.byte		        Dn2 
	.byte	W24
	.byte		        Cn2 
	.byte	W12
@ 080   ----------------------------------------
	.byte	W12
	.byte		N23   
	.byte	W24
	.byte		N11   
	.byte	W12
	.byte		N11   
	.byte	W12
	.byte		N11   
	.byte	W12
	.byte		N11   
	.byte	W12
	.byte		        Bn1 
	.byte	W12
@ 081   ----------------------------------------
	.byte		N11   
	.byte	W12
	.byte		N11   
	.byte	W12
	.byte		N11   
	.byte	W12
	.byte		N11   
	.byte	W12
	.byte		N11   
	.byte	W12
	.byte		N11   
	.byte	W12
	.byte		N11   
	.byte	W12
	.byte		N17   , An1 
	.byte	W12
@ 082   ----------------------------------------
	.byte	W06
	.byte		N17   
	.byte	W18
	.byte		N11   
	.byte	W12
	.byte		N44   
	.byte	W48
	.byte		N44   
	.byte	W12
@ 083   ----------------------------------------
	.byte	W36
	.byte		N44   
	.byte	W48
	.byte		TIE   
	.byte	W12
@ 084   ----------------------------------------
	.byte	W92
	.byte	W03
	.byte		EOT   
	.byte	W01
@ 085   ----------------------------------------
	.byte		N17   
	.byte	W18
	.byte		N17   
	.byte	W18
	.byte		N11   
	.byte	W12
	.byte		N17   
	.byte	W18
	.byte		N17   
	.byte	W18
	.byte		N11   
	.byte	W12
@ 086   ----------------------------------------
	.byte		TIE   
	.byte	W96
@ 087   ----------------------------------------
	.byte	W92
	.byte	W03
	.byte		EOT   
	.byte	W01
@ 088   ----------------------------------------
	.byte		N17   
	.byte	W18
	.byte		N76   
	.byte	W78
@ 089   ----------------------------------------
	.byte	W96
@ 090   ----------------------------------------
	.byte	W96
@ 091   ----------------------------------------
	.byte	W96
@ 092   ----------------------------------------
	.byte	W96
@ 093   ----------------------------------------
	.byte	W96
@ 094   ----------------------------------------
	.byte	W96
@ 095   ----------------------------------------
	.byte	W96
@ 096   ----------------------------------------
	.byte	W96
@ 097   ----------------------------------------
	.byte	W48
I_May_Fall_0_7_B1:
	.byte	W36
	.byte		N23   , Fn1 , v080
	.byte	W12
@ 098   ----------------------------------------
	.byte	PATT
	 .word	I_May_Fall_0_7_008
@ 099   ----------------------------------------
	.byte	PATT
	 .word	I_May_Fall_0_7_009
@ 100   ----------------------------------------
	.byte	PATT
	 .word	I_May_Fall_0_7_008
@ 101   ----------------------------------------
	.byte	PATT
	 .word	I_May_Fall_0_7_011
@ 102   ----------------------------------------
	.byte	PATT
	 .word	I_May_Fall_0_7_012
@ 103   ----------------------------------------
	.byte	PATT
	 .word	I_May_Fall_0_7_013
@ 104   ----------------------------------------
	.byte	PATT
	 .word	I_May_Fall_0_7_014
@ 105   ----------------------------------------
	.byte	PATT
	 .word	I_May_Fall_0_7_015
@ 106   ----------------------------------------
	.byte	W12
	.byte		N05   , Fn1 , v080
	.byte	W06
	.byte		N05   
	.byte	W06
	.byte		N11   
	.byte	W12
	.byte		N05   
	.byte	W06
	.byte		N05   
	.byte	W06
	.byte		N11   
	.byte	W12
	.byte		N05   
	.byte	W06
	.byte		N05   
	.byte	W06
	.byte		N11   
	.byte	W12
	.byte		N05   
	.byte	W06
	.byte		N05   
	.byte	W06
@ 107   ----------------------------------------
	.byte	PATT
	 .word	I_May_Fall_0_7_017
@ 108   ----------------------------------------
	.byte	PATT
	 .word	I_May_Fall_0_7_017
@ 109   ----------------------------------------
	.byte	PATT
	 .word	I_May_Fall_0_7_061
@ 110   ----------------------------------------
	.byte	PATT
	 .word	I_May_Fall_0_7_062
@ 111   ----------------------------------------
	.byte	W12
	.byte		N11   , An1 , v080
	.byte	W12
	.byte		N11   
	.byte	W12
	.byte		N23   
	.byte	W24
	.byte		N23   
	.byte	W24
	.byte		N32   , Cn2 
	.byte	W12
@ 112   ----------------------------------------
	.byte	W24
	.byte		N11   
	.byte	W12
	.byte		N23   , Dn2 
	.byte	W24
	.byte		N11   
	.byte	W12
	.byte		N11   
	.byte	W12
	.byte		N23   , En2 
	.byte	W12
@ 113   ----------------------------------------
	.byte	PATT
	 .word	I_May_Fall_0_7_065
@ 114   ----------------------------------------
	.byte	W96
@ 115   ----------------------------------------
	.byte	PATT
	 .word	I_May_Fall_0_7_033
@ 116   ----------------------------------------
	.byte	W12
	.byte		N11   , Cn2 , v080
	.byte	W12
	.byte		N32   
	.byte	W36
	.byte		N11   
	.byte	W12
	.byte		N05   
	.byte	W06
	.byte		N05   
	.byte	W06
	.byte		N11   , Dn2 
	.byte	W12
@ 117   ----------------------------------------
	.byte		N05   
	.byte	W06
	.byte		N05   
	.byte	W06
	.byte		N11   
	.byte	W12
	.byte		N05   
	.byte	W06
	.byte		N05   
	.byte	W06
	.byte		N11   
	.byte	W12
	.byte		N05   
	.byte	W06
	.byte		N05   
	.byte	W06
	.byte		N11   
	.byte	W12
	.byte		N05   
	.byte	W06
	.byte		N05   
	.byte	W06
	.byte		N11   , Bn1 
	.byte	W12
@ 118   ----------------------------------------
	.byte		N05   
	.byte	W06
	.byte		N05   
	.byte	W06
	.byte		N11   
	.byte	W12
	.byte		N05   
	.byte	W06
	.byte		N05   
	.byte	W06
	.byte		N11   
	.byte	W12
	.byte		N11   
	.byte	W12
	.byte		N11   
	.byte	W12
	.byte		N11   
	.byte	W12
	.byte		        En1 
	.byte	W12
@ 119   ----------------------------------------
	.byte		N23   
	.byte	W24
	.byte		N11   , Gn1 
	.byte	W12
	.byte		N23   , En2 
	.byte	W24
	.byte		        Dn2 
	.byte	W24
	.byte		        Cn2 
	.byte	W12
@ 120   ----------------------------------------
	.byte	W12
	.byte		N23   
	.byte	W24
	.byte		N23   
	.byte	W24
	.byte		N11   
	.byte	W12
	.byte		N05   
	.byte	W06
	.byte		N05   
	.byte	W06
	.byte		N23   , Dn2 
	.byte	W12
@ 121   ----------------------------------------
	.byte	W12
	.byte		N11   
	.byte	W12
	.byte		N11   
	.byte	W12
	.byte		N11   
	.byte	W12
	.byte		N11   
	.byte	W12
	.byte		N11   
	.byte	W12
	.byte		N11   
	.byte	W12
	.byte		        Fn1 
	.byte	W12
@ 122   ----------------------------------------
	.byte		N11   
	.byte	W12
	.byte		N11   
	.byte	W12
	.byte		N11   
	.byte	W12
	.byte		N11   
	.byte	W12
	.byte		N11   
	.byte	W12
	.byte		N11   
	.byte	W12
	.byte		N11   
	.byte	W24
@ 123   ----------------------------------------
	.byte	PATT
	 .word	I_May_Fall_0_7_033
@ 124   ----------------------------------------
	.byte	W12
	.byte		N11   , Cn2 , v080
	.byte	W12
	.byte		N11   
	.byte	W12
	.byte		N11   
	.byte	W12
	.byte		N11   
	.byte	W12
	.byte		N11   
	.byte	W12
	.byte		N11   
	.byte	W12
	.byte		        Dn2 
	.byte	W12
@ 125   ----------------------------------------
	.byte		N11   
	.byte	W12
	.byte		N11   
	.byte	W12
	.byte		N11   
	.byte	W12
	.byte		N11   
	.byte	W12
	.byte		N11   
	.byte	W12
	.byte		N11   
	.byte	W12
	.byte		N11   
	.byte	W12
	.byte		        En1 
	.byte	W12
@ 126   ----------------------------------------
	.byte		N11   
	.byte	W12
	.byte		N11   
	.byte	W12
	.byte		N11   
	.byte	W12
	.byte		N11   
	.byte	W12
	.byte		N11   
	.byte	W12
	.byte		N11   
	.byte	W12
	.byte		N11   
	.byte	W12
	.byte		N11   
	.byte	W12
@ 127   ----------------------------------------
	.byte		N11   
	.byte	W12
	.byte		N11   
	.byte	W12
	.byte		N11   
	.byte	W12
	.byte		N23   , En2 
	.byte	W24
	.byte		        Dn2 
	.byte	W24
	.byte		N92   , Cn2 
	.byte	W12
@ 128   ----------------------------------------
	.byte	W84
	.byte		N44   , Bn1 
	.byte	W12
@ 129   ----------------------------------------
	.byte	W36
	.byte		N23   , Cn2 
	.byte	W24
	.byte		        Bn1 
	.byte	W24
	.byte		N92   , An1 
	.byte	W12
@ 130   ----------------------------------------
	.byte	W84
	.byte		N44   , En1 
	.byte	W12
@ 131   ----------------------------------------
	.byte	W36
	.byte		N23   , An1 
	.byte	W24
	.byte		        Bn1 
	.byte	W24
	.byte		N92   , Cn2 
	.byte	W12
@ 132   ----------------------------------------
	.byte	W84
	.byte		        Bn1 
	.byte	W12
@ 133   ----------------------------------------
	.byte	W84
	.byte		TIE   , Fn1 
	.byte	W12
@ 134   ----------------------------------------
	.byte	W96
@ 135   ----------------------------------------
	.byte	W92
	.byte	W03
	.byte		EOT   
	.byte	W01
	.byte	GOTO
	 .word	I_May_Fall_0_7_B1
I_May_Fall_0_7_B2:
@ 136   ----------------------------------------
	.byte	FINE

@**************** Track 8 (Midi-Chn.8) ****************@

I_May_Fall_0_8:
	.byte	KEYSH , I_May_Fall_0_key+0
@ 000   ----------------------------------------
	.byte		VOICE , 51
	.byte		VOL   , 115*I_May_Fall_0_mvl/mxv
	.byte		PAN   , c_v+0
	.byte	W96
@ 001   ----------------------------------------
	.byte	W96
@ 002   ----------------------------------------
	.byte	W96
@ 003   ----------------------------------------
	.byte	W96
@ 004   ----------------------------------------
	.byte	W96
@ 005   ----------------------------------------
	.byte	W96
@ 006   ----------------------------------------
	.byte	W96
@ 007   ----------------------------------------
	.byte	W96
@ 008   ----------------------------------------
	.byte	W96
@ 009   ----------------------------------------
	.byte	W96
@ 010   ----------------------------------------
	.byte	W96
@ 011   ----------------------------------------
	.byte	W96
@ 012   ----------------------------------------
	.byte	W96
@ 013   ----------------------------------------
	.byte	W96
@ 014   ----------------------------------------
	.byte	W96
@ 015   ----------------------------------------
	.byte	W96
@ 016   ----------------------------------------
	.byte	W96
@ 017   ----------------------------------------
	.byte	W96
@ 018   ----------------------------------------
	.byte	W96
@ 019   ----------------------------------------
	.byte	W96
@ 020   ----------------------------------------
	.byte	W96
@ 021   ----------------------------------------
	.byte	W96
@ 022   ----------------------------------------
	.byte	W96
@ 023   ----------------------------------------
	.byte	W96
@ 024   ----------------------------------------
	.byte		N05   , En3 , v127
	.byte		N05   , En4 
	.byte	W06
	.byte		        Fs3 
	.byte		N05   , Fs4 
	.byte	W06
	.byte		        Gn3 
	.byte		N05   , Gn4 
	.byte	W06
	.byte		        An3 
	.byte		N05   , An4 
	.byte	W06
	.byte		        Gn3 
	.byte		N05   , Gn4 
	.byte	W06
	.byte		        Fs3 
	.byte		N05   , Fs4 
	.byte	W06
	.byte		        En3 
	.byte		N05   , En4 
	.byte	W06
	.byte		        Fs3 
	.byte		N05   , Fs4 
	.byte	W06
	.byte		        Gn3 
	.byte		N05   , Gn4 
	.byte	W06
	.byte		        An3 
	.byte		N05   , An4 
	.byte	W06
	.byte		        Bn3 
	.byte		N05   , Bn4 
	.byte	W06
	.byte		        An3 
	.byte		N05   , An4 
	.byte	W06
	.byte		        Gn3 
	.byte		N05   , Gn4 
	.byte	W06
	.byte		        An3 
	.byte		N05   , An4 
	.byte	W06
	.byte		        Bn3 
	.byte		N05   , Bn4 
	.byte	W06
	.byte		        Dn4 
	.byte		N05   , Dn5 
	.byte	W06
@ 025   ----------------------------------------
I_May_Fall_0_8_025:
	.byte		N32   , En4 , v064
	.byte		N32   , En5 
	.byte	W36
	.byte		        Dn4 
	.byte		N32   , Dn5 
	.byte	W36
	.byte		N23   , Bn3 
	.byte		TIE   , Bn4 
	.byte	W24
	.byte	PEND
@ 026   ----------------------------------------
	.byte	W80
	.byte	W03
	.byte		EOT   
	.byte	W01
	.byte		TIE   , An4 
	.byte	W12
@ 027   ----------------------------------------
	.byte	W96
@ 028   ----------------------------------------
	.byte	W80
	.byte	W03
	.byte		EOT   
	.byte	W01
	.byte		N44   , Bn4 
	.byte	W12
@ 029   ----------------------------------------
I_May_Fall_0_8_029:
	.byte	W36
	.byte		N23   , En5 , v064
	.byte	W24
	.byte		        Dn5 
	.byte	W24
	.byte		N92   , Bn4 
	.byte	W12
	.byte	PEND
@ 030   ----------------------------------------
	.byte	W84
	.byte		        An4 
	.byte	W12
@ 031   ----------------------------------------
I_May_Fall_0_8_031:
	.byte	W84
	.byte		TIE   , Cn5 , v064
	.byte	W12
	.byte	PEND
@ 032   ----------------------------------------
	.byte	W92
	.byte	W03
	.byte		EOT   
	.byte	W01
@ 033   ----------------------------------------
I_May_Fall_0_8_033:
	.byte		N32   , En5 , v064
	.byte	W36
	.byte		        Dn5 
	.byte	W36
	.byte		TIE   , Bn4 
	.byte	W24
	.byte	PEND
@ 034   ----------------------------------------
	.byte	W80
	.byte	W03
	.byte		EOT   
	.byte	W01
	.byte		N92   , An4 
	.byte	W12
@ 035   ----------------------------------------
I_May_Fall_0_8_035:
	.byte	W84
	.byte		TIE   , Bn4 , v064
	.byte	W12
	.byte	PEND
@ 036   ----------------------------------------
	.byte	W96
@ 037   ----------------------------------------
	.byte	W32
	.byte	W03
	.byte		EOT   
	.byte	W01
	.byte		N23   , En5 
	.byte	W24
	.byte		        Dn5 
	.byte	W24
	.byte		N92   , Bn4 
	.byte	W12
@ 038   ----------------------------------------
	.byte	W84
	.byte		        An4 
	.byte	W12
@ 039   ----------------------------------------
I_May_Fall_0_8_039:
	.byte	W84
	.byte		TIE   , En5 , v064
	.byte	W12
	.byte	PEND
@ 040   ----------------------------------------
	.byte	W92
	.byte	W03
	.byte		EOT   
	.byte	W01
@ 041   ----------------------------------------
	.byte	W96
@ 042   ----------------------------------------
	.byte	W96
@ 043   ----------------------------------------
	.byte	W96
@ 044   ----------------------------------------
	.byte	W96
@ 045   ----------------------------------------
	.byte	W96
@ 046   ----------------------------------------
	.byte	W96
@ 047   ----------------------------------------
	.byte	W96
@ 048   ----------------------------------------
	.byte	W96
@ 049   ----------------------------------------
	.byte	W96
@ 050   ----------------------------------------
	.byte	W96
@ 051   ----------------------------------------
	.byte	W96
@ 052   ----------------------------------------
	.byte	W96
@ 053   ----------------------------------------
	.byte	W96
@ 054   ----------------------------------------
	.byte	W96
@ 055   ----------------------------------------
	.byte	W96
@ 056   ----------------------------------------
	.byte	W96
@ 057   ----------------------------------------
	.byte	W96
@ 058   ----------------------------------------
	.byte	W96
@ 059   ----------------------------------------
	.byte	W96
@ 060   ----------------------------------------
	.byte	W96
@ 061   ----------------------------------------
	.byte	W96
@ 062   ----------------------------------------
	.byte	W96
@ 063   ----------------------------------------
	.byte	W96
@ 064   ----------------------------------------
	.byte	W96
@ 065   ----------------------------------------
	.byte	W96
@ 066   ----------------------------------------
I_May_Fall_0_8_066:
	.byte		N05   , En3 , v064
	.byte		N05   , En4 
	.byte	W06
	.byte		        Fs3 
	.byte		N05   , Fs4 
	.byte	W06
	.byte		        Gn3 
	.byte		N05   , Gn4 
	.byte	W06
	.byte		        An3 
	.byte		N05   , An4 
	.byte	W06
	.byte		        Gn3 
	.byte		N05   , Gn4 
	.byte	W06
	.byte		        Fs3 
	.byte		N05   , Fs4 
	.byte	W06
	.byte		        En3 
	.byte		N05   , En4 
	.byte	W06
	.byte		        Fs3 
	.byte		N05   , Fs4 
	.byte	W06
	.byte		        Gn3 
	.byte		N05   , Gn4 
	.byte	W06
	.byte		        An3 
	.byte		N05   , An4 
	.byte	W06
	.byte		        Bn3 
	.byte		N05   , Bn4 
	.byte	W06
	.byte		        An3 
	.byte		N05   , An4 
	.byte	W06
	.byte		        Gn3 
	.byte		N05   , Gn4 
	.byte	W06
	.byte		        An3 
	.byte		N05   , An4 
	.byte	W06
	.byte		        Bn3 
	.byte		N05   , Bn4 
	.byte	W06
	.byte		        Dn4 
	.byte		N05   , Dn5 
	.byte	W06
	.byte	PEND
@ 067   ----------------------------------------
	.byte	PATT
	 .word	I_May_Fall_0_8_025
@ 068   ----------------------------------------
	.byte	W80
	.byte	W03
	.byte		EOT   , Bn4 
	.byte	W01
	.byte		TIE   , An4 , v064
	.byte	W12
@ 069   ----------------------------------------
	.byte	W96
@ 070   ----------------------------------------
	.byte	W80
	.byte	W03
	.byte		EOT   
	.byte	W01
	.byte		N44   , Bn4 
	.byte	W12
@ 071   ----------------------------------------
	.byte	PATT
	 .word	I_May_Fall_0_8_029
@ 072   ----------------------------------------
	.byte	W84
	.byte		N92   , An4 , v064
	.byte	W12
@ 073   ----------------------------------------
	.byte	PATT
	 .word	I_May_Fall_0_8_031
@ 074   ----------------------------------------
	.byte	W92
	.byte	W03
	.byte		EOT   , Cn5 
	.byte	W01
@ 075   ----------------------------------------
	.byte	PATT
	 .word	I_May_Fall_0_8_033
@ 076   ----------------------------------------
	.byte	W80
	.byte	W03
	.byte		EOT   , Bn4 
	.byte	W01
	.byte		N92   , An4 , v064
	.byte	W12
@ 077   ----------------------------------------
	.byte	PATT
	 .word	I_May_Fall_0_8_035
@ 078   ----------------------------------------
	.byte	W96
@ 079   ----------------------------------------
	.byte	W32
	.byte	W03
	.byte		EOT   , Bn4 
	.byte	W01
	.byte		N23   , En5 , v064
	.byte	W24
	.byte		        Dn5 
	.byte	W24
	.byte		N92   , Bn4 
	.byte	W12
@ 080   ----------------------------------------
	.byte	W84
	.byte		        An4 
	.byte	W12
@ 081   ----------------------------------------
	.byte	PATT
	 .word	I_May_Fall_0_8_039
@ 082   ----------------------------------------
	.byte	W92
	.byte	W03
	.byte		EOT   , En5 
	.byte	W01
@ 083   ----------------------------------------
	.byte	W96
@ 084   ----------------------------------------
	.byte	W96
@ 085   ----------------------------------------
	.byte	W96
@ 086   ----------------------------------------
	.byte	W96
@ 087   ----------------------------------------
	.byte	W96
@ 088   ----------------------------------------
	.byte	W96
@ 089   ----------------------------------------
	.byte	W96
@ 090   ----------------------------------------
	.byte	W96
@ 091   ----------------------------------------
	.byte	W96
@ 092   ----------------------------------------
	.byte	W96
@ 093   ----------------------------------------
	.byte	W96
@ 094   ----------------------------------------
	.byte	W96
@ 095   ----------------------------------------
	.byte	W96
@ 096   ----------------------------------------
	.byte	W96
@ 097   ----------------------------------------
	.byte	W48
I_May_Fall_0_8_B1:
	.byte	W48
@ 098   ----------------------------------------
	.byte	W96
@ 099   ----------------------------------------
	.byte	W96
@ 100   ----------------------------------------
	.byte	W96
@ 101   ----------------------------------------
	.byte	W96
@ 102   ----------------------------------------
	.byte	W96
@ 103   ----------------------------------------
	.byte	W96
@ 104   ----------------------------------------
	.byte	W96
@ 105   ----------------------------------------
	.byte	W96
@ 106   ----------------------------------------
	.byte	W96
@ 107   ----------------------------------------
	.byte	W96
@ 108   ----------------------------------------
	.byte	W96
@ 109   ----------------------------------------
	.byte	W96
@ 110   ----------------------------------------
	.byte	W96
@ 111   ----------------------------------------
	.byte	W96
@ 112   ----------------------------------------
	.byte	W96
@ 113   ----------------------------------------
	.byte	W96
@ 114   ----------------------------------------
	.byte	PATT
	 .word	I_May_Fall_0_8_066
@ 115   ----------------------------------------
	.byte	PATT
	 .word	I_May_Fall_0_8_025
@ 116   ----------------------------------------
	.byte	W80
	.byte	W03
	.byte		EOT   , Bn4 
	.byte	W01
	.byte		TIE   , An4 , v064
	.byte	W12
@ 117   ----------------------------------------
	.byte	W96
@ 118   ----------------------------------------
	.byte	W80
	.byte	W03
	.byte		EOT   
	.byte	W01
	.byte		N44   , Bn4 
	.byte	W12
@ 119   ----------------------------------------
	.byte	PATT
	 .word	I_May_Fall_0_8_029
@ 120   ----------------------------------------
	.byte	W84
	.byte		N92   , An4 , v064
	.byte	W12
@ 121   ----------------------------------------
	.byte	PATT
	 .word	I_May_Fall_0_8_031
@ 122   ----------------------------------------
	.byte	W92
	.byte	W03
	.byte		EOT   , Cn5 
	.byte	W01
@ 123   ----------------------------------------
	.byte	PATT
	 .word	I_May_Fall_0_8_033
@ 124   ----------------------------------------
	.byte	W80
	.byte	W03
	.byte		EOT   , Bn4 
	.byte	W01
	.byte		N92   , An4 , v064
	.byte	W12
@ 125   ----------------------------------------
	.byte	PATT
	 .word	I_May_Fall_0_8_035
@ 126   ----------------------------------------
	.byte	W96
@ 127   ----------------------------------------
	.byte	W32
	.byte	W03
	.byte		EOT   , Bn4 
	.byte	W01
	.byte		N23   , En5 , v064
	.byte	W24
	.byte		        Dn5 
	.byte	W24
	.byte		N92   , Bn4 
	.byte	W12
@ 128   ----------------------------------------
	.byte	W84
	.byte		        An4 
	.byte	W12
@ 129   ----------------------------------------
	.byte	PATT
	 .word	I_May_Fall_0_8_039
@ 130   ----------------------------------------
	.byte	W92
	.byte	W03
	.byte		EOT   , En5 
	.byte	W01
@ 131   ----------------------------------------
	.byte	W96
@ 132   ----------------------------------------
	.byte	W96
@ 133   ----------------------------------------
	.byte	W96
@ 134   ----------------------------------------
	.byte	W96
@ 135   ----------------------------------------
	.byte	W96
	.byte	GOTO
	 .word	I_May_Fall_0_8_B1
I_May_Fall_0_8_B2:
@ 136   ----------------------------------------
	.byte	FINE

@**************** Track 9 (Midi-Chn.10) ****************@

I_May_Fall_0_9:
	.byte	KEYSH , I_May_Fall_0_key+0
@ 000   ----------------------------------------
	.byte		VOICE , 127
	.byte		VOL   , 100*I_May_Fall_0_mvl/mxv
	.byte		PAN   , c_v+0
	.byte	W96
@ 001   ----------------------------------------
	.byte	W96
@ 002   ----------------------------------------
	.byte	W96
@ 003   ----------------------------------------
	.byte	W96
@ 004   ----------------------------------------
	.byte	W96
@ 005   ----------------------------------------
	.byte	W96
@ 006   ----------------------------------------
	.byte	W96
@ 007   ----------------------------------------
	.byte	W84
	.byte		N23   , Cn1 , v096
	.byte		N23   , En2 
	.byte	W12
@ 008   ----------------------------------------
I_May_Fall_0_9_008:
	.byte	W12
	.byte		N11   , Cn1 , v096
	.byte	W12
	.byte		N23   , En1 
	.byte		N23   , As1 
	.byte	W24
	.byte		N11   , Cn1 
	.byte		N11   , As1 
	.byte	W12
	.byte		        Cn1 
	.byte	W12
	.byte		        En1 
	.byte		N11   , As1 
	.byte	W12
	.byte		N23   , Cn1 
	.byte	W12
	.byte	PEND
@ 009   ----------------------------------------
I_May_Fall_0_9_009:
	.byte		N11   , As1 , v096
	.byte	W12
	.byte		        Cn1 
	.byte	W12
	.byte		N23   , En1 
	.byte		N23   , As1 
	.byte	W24
	.byte		N11   , Cn1 
	.byte		N11   , As1 
	.byte	W12
	.byte		        Cn1 
	.byte	W12
	.byte		        En1 
	.byte		N11   , As1 
	.byte	W12
	.byte		N23   , Cn1 
	.byte	W12
	.byte	PEND
@ 010   ----------------------------------------
	.byte	PATT
	 .word	I_May_Fall_0_9_009
@ 011   ----------------------------------------
I_May_Fall_0_9_011:
	.byte		N11   , As1 , v096
	.byte	W12
	.byte		        Cn1 
	.byte	W12
	.byte		N23   , En1 
	.byte		N23   , As1 
	.byte	W24
	.byte		N11   , Cn1 
	.byte		N11   , As1 
	.byte	W12
	.byte		        Cn1 
	.byte	W12
	.byte		        En1 
	.byte		N11   , As1 
	.byte	W12
	.byte		N23   , Cn1 
	.byte		N23   , En2 
	.byte	W12
	.byte	PEND
@ 012   ----------------------------------------
	.byte	PATT
	 .word	I_May_Fall_0_9_008
@ 013   ----------------------------------------
	.byte	PATT
	 .word	I_May_Fall_0_9_011
@ 014   ----------------------------------------
	.byte	W12
	.byte		N11   , Cn1 , v096
	.byte	W12
	.byte		N23   , En1 
	.byte		N23   , As1 
	.byte	W24
	.byte		N11   , Cn1 
	.byte		N11   , As1 
	.byte	W12
	.byte		        Cn1 
	.byte	W12
	.byte		        En1 
	.byte		N11   , As1 
	.byte	W12
	.byte		N23   , Cn1 
	.byte		N23   , En2 
	.byte	W12
@ 015   ----------------------------------------
	.byte	W12
	.byte		N05   , En1 
	.byte	W06
	.byte		N05   
	.byte	W06
	.byte		N05   
	.byte		N05   , Ds2 
	.byte	W06
	.byte		        En1 
	.byte	W06
	.byte		N05   
	.byte	W12
	.byte		N05   
	.byte		N05   , Ds2 
	.byte	W06
	.byte		        En1 
	.byte	W06
	.byte		N05   
	.byte	W06
	.byte		N05   
	.byte	W06
	.byte		N05   
	.byte		N05   , Ds2 
	.byte	W06
	.byte		        En1 
	.byte	W06
	.byte		N23   , Cn1 
	.byte		N23   , En1 
	.byte		N23   , En2 
	.byte	W12
@ 016   ----------------------------------------
I_May_Fall_0_9_016:
	.byte	W12
	.byte		N05   , Cn1 , v096
	.byte		N05   , Fs1 
	.byte	W06
	.byte		        Cn1 
	.byte	W06
	.byte		N11   , En1 
	.byte		N11   , En2 
	.byte	W12
	.byte		N05   , Cn1 
	.byte		N05   , Fs1 
	.byte	W06
	.byte		        Cn1 
	.byte	W06
	.byte		N11   , En1 
	.byte		N11   , En2 
	.byte	W12
	.byte		N05   , Cn1 
	.byte		N05   , Fs1 
	.byte	W06
	.byte		        Cn1 
	.byte	W06
	.byte		N11   , En1 
	.byte		N11   , En2 
	.byte	W12
	.byte		N05   , Cn1 
	.byte		N05   , Fs1 
	.byte	W06
	.byte		        Cn1 
	.byte	W06
	.byte	PEND
@ 017   ----------------------------------------
I_May_Fall_0_9_017:
	.byte		N11   , Cn1 , v096
	.byte		N11   , En1 
	.byte		N11   , En2 
	.byte	W12
	.byte		N05   , Cn1 
	.byte		N05   , Fs1 
	.byte	W06
	.byte		        Cn1 
	.byte	W06
	.byte		N11   , En1 
	.byte		N11   , En2 
	.byte	W12
	.byte		N05   , Cn1 
	.byte		N05   , Fs1 
	.byte	W06
	.byte		        Cn1 
	.byte	W06
	.byte		N11   , En1 
	.byte		N11   , En2 
	.byte	W12
	.byte		N05   , Cn1 
	.byte		N05   , Fs1 
	.byte	W06
	.byte		        Cn1 
	.byte	W06
	.byte		N11   , En1 
	.byte		N11   , En2 
	.byte	W12
	.byte		N05   , Cn1 
	.byte		N05   , Fs1 
	.byte	W06
	.byte		        Cn1 
	.byte	W06
	.byte	PEND
@ 018   ----------------------------------------
	.byte	PATT
	 .word	I_May_Fall_0_9_017
@ 019   ----------------------------------------
	.byte	PATT
	 .word	I_May_Fall_0_9_017
@ 020   ----------------------------------------
I_May_Fall_0_9_020:
	.byte		N11   , Cn1 , v096
	.byte		N11   , En1 
	.byte		N11   , En2 
	.byte	W12
	.byte		N05   , Cn1 
	.byte		N05   , Fs1 
	.byte	W06
	.byte		        Cn1 
	.byte	W06
	.byte		N11   , En1 
	.byte		N11   , En2 
	.byte	W12
	.byte		N05   , Cn1 
	.byte		N05   , Fs1 
	.byte	W06
	.byte		        Cn1 
	.byte	W06
	.byte		N11   , En1 
	.byte		N11   , En2 
	.byte	W12
	.byte		N05   , Cn1 
	.byte		N05   , Fs1 
	.byte	W06
	.byte		        Cn1 
	.byte	W06
	.byte		N11   , En1 
	.byte		N11   , En2 
	.byte	W12
	.byte		N05   , Cn1 
	.byte		N05   , Fs1 
	.byte		N05   , Cs2 
	.byte	W06
	.byte		        Cn1 
	.byte	W06
	.byte	PEND
@ 021   ----------------------------------------
I_May_Fall_0_9_021:
	.byte		N11   , Cn1 , v096
	.byte		N11   , En1 
	.byte		N11   , En2 
	.byte	W12
	.byte		N05   , Cn1 
	.byte		N05   , Fs1 
	.byte	W06
	.byte		        Cn1 
	.byte	W06
	.byte		N11   , En1 
	.byte		N11   , En2 
	.byte	W12
	.byte		N05   , Cn1 
	.byte		N05   , Fs1 
	.byte	W06
	.byte		        Cn1 
	.byte	W06
	.byte		N11   , En1 
	.byte		N11   , En2 
	.byte	W12
	.byte		N05   , Cn1 
	.byte		N05   , Fs1 
	.byte	W06
	.byte		        Cn1 
	.byte	W06
	.byte		N11   , En1 
	.byte		N11   , En2 
	.byte	W12
	.byte		N05   , Cn1 
	.byte		N05   , Cs2 
	.byte	W06
	.byte		        Cn1 
	.byte	W06
	.byte	PEND
@ 022   ----------------------------------------
	.byte	PATT
	 .word	I_May_Fall_0_9_017
@ 023   ----------------------------------------
I_May_Fall_0_9_023:
	.byte		N11   , Cn1 , v096
	.byte		N11   , En1 
	.byte		N11   , En2 
	.byte	W12
	.byte		N05   , Fs1 
	.byte	W06
	.byte		N05   
	.byte	W06
	.byte		N05   
	.byte	W06
	.byte		N05   
	.byte	W06
	.byte		N11   , Cn1 
	.byte		N11   , En1 
	.byte		N11   , En2 
	.byte	W12
	.byte		N05   , Fs1 
	.byte	W06
	.byte		N05   
	.byte	W06
	.byte		N05   
	.byte	W06
	.byte		N05   
	.byte	W06
	.byte		N11   , Cn1 
	.byte		N11   , En1 
	.byte		N11   , En2 
	.byte	W12
	.byte		N05   , Fs1 
	.byte	W06
	.byte		N05   
	.byte	W06
	.byte	PEND
@ 024   ----------------------------------------
I_May_Fall_0_9_024:
	.byte		N05   , En1 , v096
	.byte	W06
	.byte		N11   
	.byte	W12
	.byte		N05   
	.byte	W06
	.byte		N05   
	.byte	W06
	.byte		N05   
	.byte	W06
	.byte		N05   
	.byte	W06
	.byte		N05   
	.byte	W06
	.byte		N05   
	.byte	W06
	.byte		N05   
	.byte	W06
	.byte		N05   
	.byte	W06
	.byte		N05   
	.byte	W06
	.byte		N05   
	.byte	W06
	.byte		N05   
	.byte	W06
	.byte		N05   
	.byte	W06
	.byte		N05   
	.byte	W06
	.byte	PEND
@ 025   ----------------------------------------
I_May_Fall_0_9_025:
	.byte		N32   , Cn1 , v096
	.byte		N32   , En1 
	.byte		N32   , En2 
	.byte	W36
	.byte		        Cn1 
	.byte		N32   , En1 
	.byte		N32   , En2 
	.byte	W36
	.byte		N23   , Cn1 
	.byte		N23   , En1 
	.byte		N23   , En2 
	.byte	W24
	.byte	PEND
@ 026   ----------------------------------------
I_May_Fall_0_9_026:
	.byte		N05   , Cn1 , v096
	.byte		N05   , Ds2 
	.byte	W06
	.byte		        Cn1 
	.byte	W06
	.byte		N05   
	.byte	W06
	.byte		N05   
	.byte	W06
	.byte		N11   , En1 
	.byte		N11   , Ds2 
	.byte	W12
	.byte		N05   , Cn1 
	.byte	W06
	.byte		N05   
	.byte	W06
	.byte		N11   
	.byte		N11   , Ds2 
	.byte	W12
	.byte		N05   , Cn1 
	.byte	W06
	.byte		N05   
	.byte	W06
	.byte		N11   , En1 
	.byte		N11   , Ds2 
	.byte	W12
	.byte		N05   , Cn1 
	.byte	W06
	.byte		N05   
	.byte	W06
	.byte	PEND
@ 027   ----------------------------------------
I_May_Fall_0_9_027:
	.byte		N11   , Cn1 , v096
	.byte		N11   , Ds2 
	.byte	W12
	.byte		N05   , Cn1 
	.byte	W06
	.byte		N05   
	.byte	W06
	.byte		N11   , En1 
	.byte		N11   , Ds2 
	.byte	W12
	.byte		N05   , Cn1 
	.byte	W06
	.byte		N05   
	.byte	W06
	.byte		N11   
	.byte		N11   , Ds2 
	.byte	W12
	.byte		N05   , Cn1 
	.byte	W06
	.byte		N05   
	.byte	W06
	.byte		N11   , En1 
	.byte		N11   , Ds2 
	.byte	W12
	.byte		N05   , Cn1 
	.byte	W06
	.byte		N05   
	.byte	W06
	.byte	PEND
@ 028   ----------------------------------------
	.byte	PATT
	 .word	I_May_Fall_0_9_027
@ 029   ----------------------------------------
I_May_Fall_0_9_029:
	.byte		N11   , Cn1 , v096
	.byte		N11   , Ds2 
	.byte	W12
	.byte		        Fs1 
	.byte	W12
	.byte		        En1 
	.byte		N11   , Ds2 
	.byte	W12
	.byte		N23   , En2 
	.byte	W24
	.byte		N23   
	.byte	W24
	.byte		N23   
	.byte	W12
	.byte	PEND
@ 030   ----------------------------------------
I_May_Fall_0_9_030:
	.byte	W12
	.byte		N05   , Cn1 , v096
	.byte	W06
	.byte		N05   
	.byte	W06
	.byte		N11   , En1 
	.byte		N11   , Ds2 
	.byte	W12
	.byte		N05   , Cn1 
	.byte	W06
	.byte		N05   
	.byte	W06
	.byte		N11   
	.byte		N11   , Ds2 
	.byte	W12
	.byte		N05   , Cn1 
	.byte	W06
	.byte		N05   
	.byte	W06
	.byte		N11   , En1 
	.byte		N11   , Ds2 
	.byte	W12
	.byte		N05   , Cn1 
	.byte	W06
	.byte		N05   
	.byte	W06
	.byte	PEND
@ 031   ----------------------------------------
	.byte	PATT
	 .word	I_May_Fall_0_9_027
@ 032   ----------------------------------------
	.byte	PATT
	 .word	I_May_Fall_0_9_027
@ 033   ----------------------------------------
	.byte	PATT
	 .word	I_May_Fall_0_9_025
@ 034   ----------------------------------------
I_May_Fall_0_9_034:
	.byte		N05   , Cn1 , v096
	.byte	W06
	.byte		N05   
	.byte	W06
	.byte		N05   
	.byte	W06
	.byte		N05   
	.byte	W06
	.byte		N11   , En1 
	.byte		N11   , Ds2 
	.byte	W12
	.byte		N05   , Cn1 
	.byte	W06
	.byte		N05   
	.byte	W06
	.byte		N11   
	.byte		N11   , Ds2 
	.byte	W12
	.byte		N05   , Cn1 
	.byte	W06
	.byte		N05   
	.byte	W06
	.byte		N11   , En1 
	.byte		N11   , Ds2 
	.byte	W12
	.byte		N05   , Cn1 
	.byte	W06
	.byte		N05   
	.byte	W06
	.byte	PEND
@ 035   ----------------------------------------
	.byte	PATT
	 .word	I_May_Fall_0_9_027
@ 036   ----------------------------------------
	.byte	PATT
	 .word	I_May_Fall_0_9_027
@ 037   ----------------------------------------
	.byte	PATT
	 .word	I_May_Fall_0_9_029
@ 038   ----------------------------------------
	.byte	PATT
	 .word	I_May_Fall_0_9_030
@ 039   ----------------------------------------
	.byte	PATT
	 .word	I_May_Fall_0_9_027
@ 040   ----------------------------------------
	.byte	PATT
	 .word	I_May_Fall_0_9_027
@ 041   ----------------------------------------
	.byte		N11   , Cn1 , v096
	.byte		N11   , En2 
	.byte	W12
	.byte		N05   , En1 
	.byte	W06
	.byte		N11   
	.byte	W12
	.byte		N05   
	.byte	W06
	.byte		N05   
	.byte	W06
	.byte		N05   
	.byte	W06
	.byte		        An1 
	.byte	W06
	.byte		        En1 
	.byte	W06
	.byte		N05   
	.byte	W06
	.byte		        An1 
	.byte	W06
	.byte		        Gn1 
	.byte	W06
	.byte		        En1 
	.byte	W06
	.byte		        Gn1 
	.byte	W06
	.byte		        Fn1 
	.byte	W06
@ 042   ----------------------------------------
	.byte		N11   , En1 
	.byte		N11   , Fn1 
	.byte	W12
	.byte		N11   
	.byte	W12
	.byte		N11   
	.byte	W12
	.byte		        An1 
	.byte	W12
	.byte		        Fn1 
	.byte	W12
	.byte		N11   
	.byte	W12
	.byte		        Gn1 
	.byte	W12
	.byte		        Fn1 
	.byte	W12
@ 043   ----------------------------------------
	.byte		        Gn1 
	.byte	W12
	.byte		        Fn1 
	.byte	W12
	.byte		        Gn1 
	.byte	W12
	.byte		        An1 
	.byte	W12
	.byte		        Fn1 
	.byte	W12
	.byte		N11   
	.byte	W12
	.byte		        En1 
	.byte		N11   , Gn1 
	.byte	W12
	.byte		        Fn1 
	.byte	W12
@ 044   ----------------------------------------
	.byte		        Gn1 
	.byte	W12
	.byte		        Fn1 
	.byte	W12
	.byte		N11   
	.byte	W12
	.byte		        An1 
	.byte	W12
	.byte		        Gn1 
	.byte	W12
	.byte		        Fn1 
	.byte	W12
	.byte		        Gn1 
	.byte	W12
	.byte		        Fn1 
	.byte	W12
@ 045   ----------------------------------------
	.byte		        Gn1 
	.byte	W12
	.byte		        Cn1 
	.byte	W12
	.byte		N11   
	.byte	W12
	.byte		        An1 
	.byte	W12
	.byte		        Gn1 
	.byte	W12
	.byte		        En1 
	.byte		N11   , An1 
	.byte	W12
	.byte		        En1 
	.byte		N11   , Gn1 
	.byte	W12
	.byte		        Fn1 
	.byte	W12
@ 046   ----------------------------------------
	.byte		        En1 
	.byte	W12
	.byte		        Fn1 
	.byte	W12
	.byte		N11   
	.byte	W12
	.byte		        An1 
	.byte	W12
	.byte		        Fn1 
	.byte	W12
	.byte		N11   
	.byte	W12
	.byte		        Gn1 
	.byte	W12
	.byte		        Fn1 
	.byte	W12
@ 047   ----------------------------------------
	.byte		        An1 
	.byte	W12
	.byte		        Fn1 
	.byte	W12
	.byte		N11   
	.byte	W12
	.byte		        Gn1 
	.byte	W12
	.byte		        Fn1 
	.byte	W12
	.byte		N11   
	.byte	W12
	.byte		        Cn1 
	.byte	W12
	.byte		        Fn1 
	.byte	W12
@ 048   ----------------------------------------
	.byte		N23   , En1 
	.byte		N23   , En2 
	.byte	W24
	.byte		N11   , Fn1 
	.byte	W12
	.byte		        En1 
	.byte	W12
	.byte		        Fn1 
	.byte	W12
	.byte		N11   
	.byte	W12
	.byte		        En1 
	.byte	W12
	.byte		        Fn1 
	.byte	W12
@ 049   ----------------------------------------
	.byte		N05   , En1 
	.byte	W06
	.byte		N11   
	.byte	W12
	.byte		N05   
	.byte	W06
	.byte		N05   
	.byte	W06
	.byte		N05   
	.byte	W06
	.byte		N05   
	.byte	W06
	.byte		N05   
	.byte	W06
	.byte		N11   
	.byte	W12
	.byte		N05   
	.byte	W06
	.byte		N05   
	.byte	W06
	.byte		N05   
	.byte	W06
	.byte		N05   
	.byte	W06
	.byte		N23   , Cn1 
	.byte		N23   , En1 
	.byte		N23   , En2 
	.byte	W12
@ 050   ----------------------------------------
	.byte	W12
	.byte		N11   , Cn1 
	.byte	W12
	.byte		N23   , En1 
	.byte		N23   , As1 
	.byte	W24
	.byte		N11   , Cn1 
	.byte		N11   , As1 
	.byte	W12
	.byte		        Cn1 
	.byte	W12
	.byte		        En1 
	.byte		N11   , As1 
	.byte	W12
	.byte		        Cn1 
	.byte		N11   , As1 
	.byte	W12
@ 051   ----------------------------------------
	.byte	PATT
	 .word	I_May_Fall_0_9_009
@ 052   ----------------------------------------
	.byte	PATT
	 .word	I_May_Fall_0_9_009
@ 053   ----------------------------------------
	.byte		N11   , As1 , v096
	.byte	W12
	.byte		        Cn1 
	.byte	W12
	.byte		N23   , En1 
	.byte		N23   , As1 
	.byte	W24
	.byte		N11   , Cn1 
	.byte		N11   , As1 
	.byte	W12
	.byte		        Cn1 
	.byte	W12
	.byte		        En1 
	.byte		N11   , As1 
	.byte	W12
	.byte		N23   , Cn1 
	.byte		N23   , Cs2 
	.byte	W12
@ 054   ----------------------------------------
	.byte	PATT
	 .word	I_May_Fall_0_9_008
@ 055   ----------------------------------------
	.byte	PATT
	 .word	I_May_Fall_0_9_011
@ 056   ----------------------------------------
	.byte	W12
	.byte		N11   , Cn1 , v096
	.byte	W12
	.byte		        En1 
	.byte		N11   , Ds2 
	.byte	W24
	.byte		N23   , Cn1 
	.byte		N23   , Ds2 
	.byte	W24
	.byte		N11   , En1 
	.byte		N11   , Ds2 
	.byte	W12
	.byte		N23   , Cn1 
	.byte		N23   , En2 
	.byte	W12
@ 057   ----------------------------------------
	.byte	W12
	.byte		N05   , En1 
	.byte	W06
	.byte		N05   
	.byte	W06
	.byte		        An1 
	.byte	W06
	.byte		N05   
	.byte	W06
	.byte		        En1 
	.byte	W06
	.byte		        An1 
	.byte	W06
	.byte		        En1 
	.byte	W06
	.byte		N05   
	.byte	W06
	.byte		        An1 
	.byte	W06
	.byte		        En1 
	.byte	W06
	.byte		        An1 
	.byte	W06
	.byte		        Gn1 
	.byte	W06
	.byte		N23   , Cn1 
	.byte		N23   , En1 
	.byte		N23   , En2 
	.byte	W12
@ 058   ----------------------------------------
	.byte	W12
	.byte		N05   , Cn1 
	.byte		N05   , Fs1 
	.byte	W06
	.byte		        Cn1 
	.byte		N05   , Fs1 
	.byte	W06
	.byte		N11   , En1 
	.byte		N11   , En2 
	.byte	W12
	.byte		N05   , Fs1 
	.byte	W06
	.byte		N05   
	.byte	W06
	.byte		N11   , Cn1 
	.byte		N11   , En2 
	.byte	W12
	.byte		N05   , Cn1 
	.byte		N05   , Fs1 
	.byte	W06
	.byte		        Cn1 
	.byte		N05   , Fs1 
	.byte	W06
	.byte		N11   , En1 
	.byte		N11   , En2 
	.byte	W12
	.byte		N05   , Cn1 
	.byte		N05   , Fs1 
	.byte	W06
	.byte		        Cn1 
	.byte		N05   , Fs1 
	.byte	W06
@ 059   ----------------------------------------
	.byte		N11   , Cn1 
	.byte		N11   , En2 
	.byte	W12
	.byte		N05   , Cn1 
	.byte		N05   , Fs1 
	.byte	W06
	.byte		        Cn1 
	.byte		N05   , Fs1 
	.byte	W06
	.byte		N11   , En1 
	.byte		N11   , En2 
	.byte	W12
	.byte		N05   , Cn1 
	.byte		N05   , Fs1 
	.byte	W06
	.byte		        Cn1 
	.byte		N05   , Fs1 
	.byte	W06
	.byte		N11   , Cn1 
	.byte		N11   , En2 
	.byte	W12
	.byte		N05   , Cn1 
	.byte		N05   , Fs1 
	.byte	W06
	.byte		N05   
	.byte	W06
	.byte		N11   , En1 
	.byte		N11   , En2 
	.byte	W12
	.byte		N05   , Cn1 
	.byte		N05   , Fs1 
	.byte	W06
	.byte		        Cn1 
	.byte		N05   , Fs1 
	.byte	W06
@ 060   ----------------------------------------
	.byte		N11   , Cn1 
	.byte		N11   , En2 
	.byte	W12
	.byte		N05   , Cn1 
	.byte		N05   , Fs1 
	.byte	W06
	.byte		        Cn1 
	.byte		N05   , Fs1 
	.byte	W06
	.byte		N11   , En1 
	.byte		N11   , En2 
	.byte	W12
	.byte		N05   , Cn1 
	.byte		N05   , Fs1 
	.byte	W06
	.byte		        Cn1 
	.byte		N05   , Fs1 
	.byte	W06
	.byte		N11   , Cn1 
	.byte		N11   , En2 
	.byte	W12
	.byte		N05   , Cn1 
	.byte		N05   , Fs1 
	.byte	W06
	.byte		        Cn1 
	.byte		N05   , Fs1 
	.byte	W06
	.byte		N11   , En1 
	.byte		N11   , En2 
	.byte	W12
	.byte		N05   , Cn1 
	.byte		N05   , Fs1 
	.byte	W06
	.byte		        Cn1 
	.byte		N05   , Fs1 
	.byte	W06
@ 061   ----------------------------------------
	.byte		N11   , Cn1 
	.byte		N11   , En2 
	.byte	W12
	.byte		N05   , Cn1 
	.byte		N05   , Fs1 
	.byte	W06
	.byte		        Cn1 
	.byte		N05   , Fs1 
	.byte	W06
	.byte		N11   , En1 
	.byte		N11   , En2 
	.byte	W12
	.byte		N05   , Cn1 
	.byte		N05   , Fs1 
	.byte	W06
	.byte		        Cn1 
	.byte		N05   , Fs1 
	.byte	W06
	.byte		N11   , Cn1 
	.byte		N11   , En2 
	.byte	W12
	.byte		N05   , Cn1 
	.byte		N05   , Fs1 
	.byte	W06
	.byte		        Cn1 
	.byte		N05   , Fs1 
	.byte	W06
	.byte		        En1 
	.byte		N05   , Fs1 
	.byte	W06
	.byte		N05   
	.byte	W06
	.byte		        Cn1 
	.byte		N05   , En2 
	.byte	W06
	.byte		        Cn1 
	.byte		N05   , Fs1 
	.byte	W06
@ 062   ----------------------------------------
	.byte		N11   , Cn1 
	.byte		N11   , Fs1 
	.byte	W12
	.byte		N05   , Cn1 
	.byte		N05   , Fs1 
	.byte	W06
	.byte		        Cn1 
	.byte		N05   , Fs1 
	.byte	W06
	.byte		N11   , En1 
	.byte		N11   , En2 
	.byte	W12
	.byte		N05   , Cn1 
	.byte		N05   , Fs1 
	.byte	W06
	.byte		        Cn1 
	.byte		N05   , Fs1 
	.byte	W06
	.byte		N11   , Cn1 
	.byte		N11   , En2 
	.byte	W12
	.byte		N05   , Cn1 
	.byte		N05   , Fs1 
	.byte	W06
	.byte		        Cn1 
	.byte		N05   , Fs1 
	.byte	W06
	.byte		N11   , En1 
	.byte		N11   , En2 
	.byte	W12
	.byte		        Cn1 
	.byte		N11   , En2 
	.byte	W12
@ 063   ----------------------------------------
	.byte		        Cn1 
	.byte		N11   , En2 
	.byte	W12
	.byte		N05   , Cn1 
	.byte		N05   , Fs1 
	.byte	W06
	.byte		        Cn1 
	.byte		N05   , Fs1 
	.byte	W06
	.byte		N11   , En1 
	.byte		N11   , En2 
	.byte	W12
	.byte		N05   , Cn1 
	.byte		N05   , Fs1 
	.byte	W06
	.byte		        Cn1 
	.byte		N05   , Fs1 
	.byte	W06
	.byte		N11   , Cn1 
	.byte		N11   , En2 
	.byte	W12
	.byte		N05   , Cn1 
	.byte		N05   , Fs1 
	.byte	W06
	.byte		N05   
	.byte	W06
	.byte		N11   , En1 
	.byte		N11   , En2 
	.byte	W12
	.byte		N05   , Cn1 
	.byte		N05   , En2 
	.byte	W06
	.byte		        Cn1 
	.byte		N05   , Fs1 
	.byte	W06
@ 064   ----------------------------------------
	.byte		N11   , Cn1 
	.byte		N11   , Fs1 
	.byte	W12
	.byte		N05   , Cn1 
	.byte		N05   , Fs1 
	.byte	W06
	.byte		        Cn1 
	.byte		N05   , Fs1 
	.byte	W06
	.byte		N11   , En1 
	.byte		N11   , En2 
	.byte	W12
	.byte		N05   , Cn1 
	.byte		N05   , Fs1 
	.byte	W06
	.byte		        Cn1 
	.byte		N05   , Fs1 
	.byte	W06
	.byte		N11   , Cn1 
	.byte		N11   , En2 
	.byte	W12
	.byte		N05   , Cn1 
	.byte		N05   , Fs1 
	.byte	W06
	.byte		        Cn1 
	.byte		N05   , Fs1 
	.byte	W06
	.byte		N23   , En1 
	.byte		N23   , En2 
	.byte	W24
@ 065   ----------------------------------------
	.byte		N11   , Cn1 
	.byte		N11   , En2 
	.byte	W12
	.byte		N05   , Fs1 
	.byte	W06
	.byte		N05   
	.byte	W06
	.byte		N05   
	.byte		N05   , En2 
	.byte	W06
	.byte		        Fs1 
	.byte	W06
	.byte		N11   , Cn1 
	.byte		N11   , En1 
	.byte	W12
	.byte		N05   , Fs1 
	.byte	W06
	.byte		N05   
	.byte	W06
	.byte		N05   
	.byte	W06
	.byte		N05   
	.byte	W06
	.byte		N11   , Cn1 
	.byte		N11   , En1 
	.byte		N11   , En2 
	.byte	W12
	.byte		N05   , Fs1 
	.byte	W06
	.byte		N05   
	.byte	W06
@ 066   ----------------------------------------
	.byte		        En1 
	.byte	W06
	.byte		N05   
	.byte	W06
	.byte		N05   
	.byte	W06
	.byte		N05   
	.byte	W06
	.byte		N05   
	.byte	W06
	.byte		N05   
	.byte	W06
	.byte		N05   
	.byte	W06
	.byte		N05   
	.byte	W06
	.byte		N05   
	.byte	W06
	.byte		N05   
	.byte	W06
	.byte		N05   
	.byte	W06
	.byte		N05   
	.byte	W06
	.byte		N05   
	.byte	W06
	.byte		N05   
	.byte	W06
	.byte		N05   
	.byte	W06
	.byte		N05   
	.byte	W06
@ 067   ----------------------------------------
I_May_Fall_0_9_067:
	.byte		N32   , En1 , v096
	.byte		N32   , En2 
	.byte	W36
	.byte		        En1 
	.byte		N32   , En2 
	.byte	W36
	.byte		N23   , En1 
	.byte		N23   , En2 
	.byte	W24
	.byte	PEND
@ 068   ----------------------------------------
I_May_Fall_0_9_068:
	.byte		N05   , Cn1 , v096
	.byte		N05   , Ds2 
	.byte	W06
	.byte		        Cn1 
	.byte	W06
	.byte		N05   
	.byte		N05   , Ds2 
	.byte	W06
	.byte		        Cn1 
	.byte	W06
	.byte		N11   , En1 
	.byte		N11   , Ds2 
	.byte	W12
	.byte		N05   , Cn1 
	.byte		N05   , Ds2 
	.byte	W06
	.byte		        Cn1 
	.byte	W06
	.byte		N11   
	.byte		N11   , Ds2 
	.byte	W12
	.byte		N05   , Cn1 
	.byte		N05   , Ds2 
	.byte	W06
	.byte		        Cn1 
	.byte	W06
	.byte		N11   , En1 
	.byte		N11   , Ds2 
	.byte	W12
	.byte		N05   , Cn1 
	.byte		N05   , Ds2 
	.byte	W06
	.byte		        Cn1 
	.byte	W06
	.byte	PEND
@ 069   ----------------------------------------
I_May_Fall_0_9_069:
	.byte		N11   , Cn1 , v096
	.byte		N11   , Ds2 
	.byte	W12
	.byte		N05   , Cn1 
	.byte		N05   , Ds2 
	.byte	W06
	.byte		        Cn1 
	.byte	W06
	.byte		N11   , En1 
	.byte		N11   , Ds2 
	.byte	W12
	.byte		N05   , Cn1 
	.byte		N05   , Ds2 
	.byte	W06
	.byte		        Cn1 
	.byte	W06
	.byte		N11   
	.byte		N11   , Ds2 
	.byte	W12
	.byte		N05   , Cn1 
	.byte		N05   , Ds2 
	.byte	W06
	.byte		        Cn1 
	.byte	W06
	.byte		N11   , En1 
	.byte		N11   , Ds2 
	.byte	W12
	.byte		N05   , Cn1 
	.byte		N05   , Ds2 
	.byte	W06
	.byte		        Cn1 
	.byte	W06
	.byte	PEND
@ 070   ----------------------------------------
	.byte	PATT
	 .word	I_May_Fall_0_9_069
@ 071   ----------------------------------------
I_May_Fall_0_9_071:
	.byte		N11   , Cn1 , v096
	.byte		N11   , Ds2 
	.byte	W12
	.byte		N11   
	.byte	W12
	.byte		        En1 
	.byte	W12
	.byte		N23   
	.byte		N23   , Cs2 
	.byte	W24
	.byte		        En1 
	.byte		N23   , Cs2 
	.byte	W24
	.byte		        En1 
	.byte		N23   , Cs2 
	.byte	W12
	.byte	PEND
@ 072   ----------------------------------------
I_May_Fall_0_9_072:
	.byte	W12
	.byte		N05   , Cn1 , v096
	.byte		N05   , Ds2 
	.byte	W06
	.byte		        Cn1 
	.byte	W06
	.byte		N11   , En1 
	.byte		N11   , Ds2 
	.byte	W12
	.byte		N05   , Cn1 
	.byte		N05   , Ds2 
	.byte	W06
	.byte		        Cn1 
	.byte	W06
	.byte		N11   
	.byte		N11   , Ds2 
	.byte	W12
	.byte		N05   , Cn1 
	.byte		N05   , Ds2 
	.byte	W06
	.byte		        Cn1 
	.byte	W06
	.byte		N11   , En1 
	.byte		N11   , Ds2 
	.byte	W12
	.byte		N05   , Cn1 
	.byte		N05   , Ds2 
	.byte	W06
	.byte		        Cn1 
	.byte	W06
	.byte	PEND
@ 073   ----------------------------------------
	.byte	PATT
	 .word	I_May_Fall_0_9_069
@ 074   ----------------------------------------
	.byte	PATT
	 .word	I_May_Fall_0_9_069
@ 075   ----------------------------------------
	.byte	PATT
	 .word	I_May_Fall_0_9_067
@ 076   ----------------------------------------
	.byte	PATT
	 .word	I_May_Fall_0_9_068
@ 077   ----------------------------------------
	.byte	PATT
	 .word	I_May_Fall_0_9_069
@ 078   ----------------------------------------
	.byte	PATT
	 .word	I_May_Fall_0_9_069
@ 079   ----------------------------------------
	.byte	PATT
	 .word	I_May_Fall_0_9_071
@ 080   ----------------------------------------
	.byte	PATT
	 .word	I_May_Fall_0_9_072
@ 081   ----------------------------------------
	.byte	PATT
	 .word	I_May_Fall_0_9_069
@ 082   ----------------------------------------
I_May_Fall_0_9_082:
	.byte		N17   , Cn1 , v096
	.byte		N17   , En2 
	.byte	W18
	.byte		        Cn1 
	.byte	W18
	.byte		N11   
	.byte	W12
	.byte		N23   , En1 
	.byte	W48
	.byte	PEND
@ 083   ----------------------------------------
I_May_Fall_0_9_083:
	.byte		N17   , Cn1 , v096
	.byte	W18
	.byte		N17   
	.byte	W18
	.byte		N11   
	.byte	W12
	.byte		N23   , En1 
	.byte	W36
	.byte		N03   , Cn1 
	.byte	W04
	.byte		N03   
	.byte	W04
	.byte		N03   
	.byte	W04
	.byte	PEND
@ 084   ----------------------------------------
	.byte	PATT
	 .word	I_May_Fall_0_9_082
@ 085   ----------------------------------------
	.byte		N17   , Cn1 , v096
	.byte	W18
	.byte		N17   
	.byte	W18
	.byte		N05   
	.byte	W06
	.byte		N05   
	.byte	W06
	.byte		N23   , En1 
	.byte	W24
	.byte		N05   , Cn1 
	.byte	W06
	.byte		N05   
	.byte	W06
	.byte		N05   
	.byte	W12
@ 086   ----------------------------------------
	.byte		N17   
	.byte		N17   , Cs2 
	.byte	W18
	.byte		        Cn1 
	.byte	W18
	.byte		N11   
	.byte	W12
	.byte		N23   , En1 
	.byte	W48
@ 087   ----------------------------------------
	.byte	PATT
	 .word	I_May_Fall_0_9_083
@ 088   ----------------------------------------
	.byte		N17   , Cn1 , v096
	.byte	W18
	.byte		N17   
	.byte	W18
	.byte		N11   
	.byte	W12
	.byte		N23   , En1 
	.byte		N23   , En2 
	.byte	W48
@ 089   ----------------------------------------
	.byte		N17   , Cn1 
	.byte		N17   , En2 
	.byte	W18
	.byte		        Cn1 
	.byte	W18
	.byte		N05   
	.byte	W06
	.byte		N05   
	.byte	W06
	.byte		N11   , En1 
	.byte		N11   , En2 
	.byte	W12
	.byte		N05   , Cn1 
	.byte	W06
	.byte		N05   
	.byte	W06
	.byte		N23   , En1 
	.byte		N23   , En2 
	.byte	W24
@ 090   ----------------------------------------
	.byte	W96
@ 091   ----------------------------------------
	.byte	W96
@ 092   ----------------------------------------
	.byte	W96
@ 093   ----------------------------------------
	.byte	W96
@ 094   ----------------------------------------
	.byte	W96
@ 095   ----------------------------------------
	.byte	W96
@ 096   ----------------------------------------
	.byte	W96
@ 097   ----------------------------------------
	.byte	W48
I_May_Fall_0_9_B1:
	.byte	W36
	.byte		N23   , Cn1 , v096
	.byte		N23   , En2 
	.byte	W12
@ 098   ----------------------------------------
I_May_Fall_0_9_098:
	.byte	W12
	.byte		N11   , Cn1 , v096
	.byte	W12
	.byte		N23   , En1 
	.byte		N23   , Ds2 
	.byte	W24
	.byte		N11   , Cn1 
	.byte		N11   , Ds2 
	.byte	W12
	.byte		        Cn1 
	.byte	W12
	.byte		        En1 
	.byte		N11   , Ds2 
	.byte	W12
	.byte		N23   , Cn1 
	.byte	W12
	.byte	PEND
@ 099   ----------------------------------------
	.byte		N11   , Ds2 
	.byte	W12
	.byte		        Cn1 
	.byte	W12
	.byte		N23   , En1 
	.byte		N23   , Ds2 
	.byte	W24
	.byte		N11   , Cn1 
	.byte		N11   , Ds2 
	.byte	W12
	.byte		N05   , En1 
	.byte		N05   , En2 
	.byte	W06
	.byte		        En1 
	.byte	W06
	.byte		N05   
	.byte		N05   , En2 
	.byte	W06
	.byte		        En1 
	.byte	W06
	.byte		N23   , Cn1 
	.byte	W12
@ 100   ----------------------------------------
	.byte	PATT
	 .word	I_May_Fall_0_9_098
@ 101   ----------------------------------------
	.byte		N11   , Ds2 , v096
	.byte	W12
	.byte		        Cn1 
	.byte	W12
	.byte		N23   , En1 
	.byte		N23   , Ds2 
	.byte	W24
	.byte		N11   , Cn1 
	.byte		N11   , Ds2 
	.byte	W12
	.byte		N23   , En1 
	.byte	W24
	.byte		        Cn1 
	.byte		N23   , En2 
	.byte	W12
@ 102   ----------------------------------------
	.byte	PATT
	 .word	I_May_Fall_0_9_098
@ 103   ----------------------------------------
	.byte		N11   , Ds2 , v096
	.byte	W12
	.byte		        Cn1 
	.byte	W12
	.byte		N23   , En1 
	.byte		N23   , Ds2 
	.byte	W24
	.byte		N11   , Cn1 
	.byte		N11   , Ds2 
	.byte	W12
	.byte		        Cn1 
	.byte	W12
	.byte		        En1 
	.byte		N11   , Ds2 
	.byte	W12
	.byte		N23   , Cn1 
	.byte		N23   , En2 
	.byte	W12
@ 104   ----------------------------------------
	.byte	W12
	.byte		N11   , Cn1 
	.byte	W12
	.byte		N23   , En1 
	.byte		N23   , Ds2 
	.byte	W24
	.byte		N11   , Cn1 
	.byte		N11   , Ds2 
	.byte	W12
	.byte		        Cn1 
	.byte	W12
	.byte		        En1 
	.byte		N11   , Ds2 
	.byte	W12
	.byte		        Cn1 
	.byte		N11   , En2 
	.byte	W12
@ 105   ----------------------------------------
	.byte		N05   , En1 
	.byte	W06
	.byte		N05   
	.byte	W06
	.byte		N05   
	.byte	W06
	.byte		N05   
	.byte	W06
	.byte		N05   
	.byte	W06
	.byte		N05   
	.byte	W06
	.byte		N05   
	.byte	W06
	.byte		N05   
	.byte	W06
	.byte		N05   
	.byte	W06
	.byte		N05   
	.byte	W06
	.byte		        An1 
	.byte	W06
	.byte		N05   
	.byte	W06
	.byte		        Gn1 
	.byte	W06
	.byte		        Fn1 
	.byte	W06
	.byte		N23   , Cn1 
	.byte		N23   , En1 
	.byte		N23   , En2 
	.byte	W12
@ 106   ----------------------------------------
	.byte	PATT
	 .word	I_May_Fall_0_9_016
@ 107   ----------------------------------------
	.byte	PATT
	 .word	I_May_Fall_0_9_017
@ 108   ----------------------------------------
	.byte	PATT
	 .word	I_May_Fall_0_9_017
@ 109   ----------------------------------------
	.byte	PATT
	 .word	I_May_Fall_0_9_017
@ 110   ----------------------------------------
	.byte	PATT
	 .word	I_May_Fall_0_9_020
@ 111   ----------------------------------------
	.byte	PATT
	 .word	I_May_Fall_0_9_021
@ 112   ----------------------------------------
	.byte		N11   , Cn1 , v096
	.byte		N11   , En1 
	.byte	W12
	.byte		N05   , Cn1 
	.byte		N05   , Fs1 
	.byte	W06
	.byte		        Cn1 
	.byte	W06
	.byte		N11   , En1 
	.byte		N11   , En2 
	.byte	W12
	.byte		N05   , Cn1 
	.byte		N05   , Fs1 
	.byte	W06
	.byte		        Cn1 
	.byte	W06
	.byte		N11   , En1 
	.byte		N11   , En2 
	.byte	W12
	.byte		N05   , Cn1 
	.byte		N05   , Fs1 
	.byte	W06
	.byte		        Cn1 
	.byte	W06
	.byte		N11   , En1 
	.byte		N11   , En2 
	.byte	W12
	.byte		N05   , Cn1 
	.byte		N05   , Fs1 
	.byte	W06
	.byte		        Cn1 
	.byte	W06
@ 113   ----------------------------------------
	.byte	PATT
	 .word	I_May_Fall_0_9_023
@ 114   ----------------------------------------
	.byte	PATT
	 .word	I_May_Fall_0_9_024
@ 115   ----------------------------------------
	.byte	PATT
	 .word	I_May_Fall_0_9_025
@ 116   ----------------------------------------
	.byte	PATT
	 .word	I_May_Fall_0_9_026
@ 117   ----------------------------------------
	.byte	PATT
	 .word	I_May_Fall_0_9_027
@ 118   ----------------------------------------
	.byte	PATT
	 .word	I_May_Fall_0_9_027
@ 119   ----------------------------------------
	.byte	PATT
	 .word	I_May_Fall_0_9_029
@ 120   ----------------------------------------
	.byte	PATT
	 .word	I_May_Fall_0_9_030
@ 121   ----------------------------------------
	.byte	PATT
	 .word	I_May_Fall_0_9_027
@ 122   ----------------------------------------
	.byte	PATT
	 .word	I_May_Fall_0_9_027
@ 123   ----------------------------------------
	.byte	PATT
	 .word	I_May_Fall_0_9_025
@ 124   ----------------------------------------
	.byte	PATT
	 .word	I_May_Fall_0_9_034
@ 125   ----------------------------------------
	.byte	PATT
	 .word	I_May_Fall_0_9_027
@ 126   ----------------------------------------
	.byte	PATT
	 .word	I_May_Fall_0_9_027
@ 127   ----------------------------------------
	.byte	PATT
	 .word	I_May_Fall_0_9_029
@ 128   ----------------------------------------
	.byte	PATT
	 .word	I_May_Fall_0_9_030
@ 129   ----------------------------------------
	.byte	PATT
	 .word	I_May_Fall_0_9_029
@ 130   ----------------------------------------
	.byte	W12
	.byte		N11   , Cn1 , v096
	.byte	W12
	.byte		        En1 
	.byte		N11   , Ds2 
	.byte	W12
	.byte		N05   , Cn1 
	.byte	W06
	.byte		N05   
	.byte	W06
	.byte		N11   
	.byte		N11   , Ds2 
	.byte	W12
	.byte		N05   , Cn1 
	.byte	W06
	.byte		N05   
	.byte	W06
	.byte		N11   , En1 
	.byte		N11   , Ds2 
	.byte	W12
	.byte		N05   , Cn1 
	.byte	W06
	.byte		N05   
	.byte	W06
@ 131   ----------------------------------------
	.byte	PATT
	 .word	I_May_Fall_0_9_029
@ 132   ----------------------------------------
	.byte	W12
	.byte		N05   , Cn1 , v096
	.byte	W06
	.byte		N05   
	.byte	W06
	.byte		N11   , En1 
	.byte		N11   , Ds2 
	.byte	W12
	.byte		N05   , Cn1 
	.byte	W06
	.byte		N05   
	.byte	W06
	.byte		N11   
	.byte		N11   , Ds2 
	.byte	W12
	.byte		N05   , Cn1 
	.byte	W06
	.byte		N05   
	.byte	W06
	.byte		N11   , En1 
	.byte		N11   , Ds2 
	.byte	W12
	.byte		N23   , Cn1 
	.byte	W12
@ 133   ----------------------------------------
	.byte	W12
	.byte		N11   , En1 
	.byte	W12
	.byte		N05   
	.byte	W06
	.byte		N05   
	.byte	W06
	.byte		N05   
	.byte	W06
	.byte		N05   
	.byte	W06
	.byte		N05   
	.byte	W06
	.byte		N05   
	.byte	W06
	.byte		        An1 
	.byte	W06
	.byte		N05   
	.byte	W06
	.byte		        Gn1 
	.byte	W06
	.byte		N05   
	.byte	W06
	.byte		TIE   , Cn1 
	.byte		TIE   , En2 
	.byte	W12
@ 134   ----------------------------------------
	.byte	W92
	.byte	W03
	.byte		EOT   , Cn1 
	.byte		        En2 
	.byte	W01
@ 135   ----------------------------------------
	.byte	W96
	.byte	GOTO
	 .word	I_May_Fall_0_9_B1
I_May_Fall_0_9_B2:
@ 136   ----------------------------------------
	.byte	FINE

@******************************************************@
	.align	2

I_May_Fall_0:
	.byte	9	@ NumTrks
	.byte	0	@ NumBlks
	.byte	I_May_Fall_0_pri	@ Priority
	.byte	I_May_Fall_0_rev	@ Reverb.

	.word	I_May_Fall_0_grp

	.word	I_May_Fall_0_1
	.word	I_May_Fall_0_2
	.word	I_May_Fall_0_3
	.word	I_May_Fall_0_4
	.word	I_May_Fall_0_5
	.word	I_May_Fall_0_6
	.word	I_May_Fall_0_7
	.word	I_May_Fall_0_8
	.word	I_May_Fall_0_9

	.end
