//Event file generated from Sappy .s format.
	#include "MPlayDef.event"

	#define	RR20_grp  voicegroup000
	#define	RR20_pri  0
	#define	RR20_rev  0
	#define	RR20_mvl  67
	#define	RR20_key  0
	#define	RR20_tbs  1
	#define	RR20_exg  0
	#define	RR20_cmp  1

	// .rodata
	//	RR20
	ALIGN 4

//**************** Track 1 (Midi-Chn.1) ****************//

RR20_1:
	BYTE	KEYSH   RR20_key+0
// 000   ----------------------------------------
	BYTE	TEMPO   210*RR20_tbs/2
	BYTE		VOICE   73
	BYTE		VOL     127*RR20_mvl/mxv
	BYTE		PAN     c_v+0
	BYTE	W96
// 001   ----------------------------------------
	BYTE	W96
// 002   ----------------------------------------
	BYTE	W96
// 003   ----------------------------------------
	BYTE	W96
// 004   ----------------------------------------
	BYTE	W96
// 005   ----------------------------------------
	BYTE	W96
// 006   ----------------------------------------
	BYTE	W96
// 007   ----------------------------------------
	BYTE	W96
// 008   ----------------------------------------
	BYTE	W96
// 009   ----------------------------------------
	BYTE	W96
// 010   ----------------------------------------
	BYTE	W96
// 011   ----------------------------------------
	BYTE	W96
// 012   ----------------------------------------
	BYTE	W96
// 013   ----------------------------------------
	BYTE	W96
// 014   ----------------------------------------
	BYTE	W96
// 015   ----------------------------------------
	BYTE	W96
// 016   ----------------------------------------
	BYTE	W96
// 017   ----------------------------------------
	BYTE	W96
// 018   ----------------------------------------
	BYTE	W96
// 019   ----------------------------------------
	BYTE	W96
// 020   ----------------------------------------
	BYTE	W96
// 021   ----------------------------------------
	BYTE	W96
// 022   ----------------------------------------
	BYTE	W96
// 023   ----------------------------------------
	BYTE	W96
// 024   ----------------------------------------
	BYTE	W96
// 025   ----------------------------------------
	BYTE	W96
// 026   ----------------------------------------
	BYTE	W96
// 027   ----------------------------------------
	BYTE	W96
// 028   ----------------------------------------
	BYTE	W96
// 029   ----------------------------------------
	BYTE	W96
// 030   ----------------------------------------
	BYTE	W96
// 031   ----------------------------------------
	BYTE	W96
// 032   ----------------------------------------
	BYTE	W96
// 033   ----------------------------------------
	BYTE	W96
// 034   ----------------------------------------
	BYTE	W96
// 035   ----------------------------------------
	BYTE	W96
// 036   ----------------------------------------
	BYTE	W96
// 037   ----------------------------------------
	BYTE	W96
// 038   ----------------------------------------
	BYTE	W96
// 039   ----------------------------------------
	BYTE	W96
// 040   ----------------------------------------
	BYTE	W96
// 041   ----------------------------------------
	BYTE	W96
// 042   ----------------------------------------
	BYTE	W96
// 043   ----------------------------------------
	BYTE	W96
// 044   ----------------------------------------
	BYTE	W96
// 045   ----------------------------------------
	BYTE	W96
// 046   ----------------------------------------
	BYTE	W96
// 047   ----------------------------------------
	BYTE	W96
// 048   ----------------------------------------
	BYTE	W96
// 049   ----------------------------------------
	BYTE	W96
// 050   ----------------------------------------
	BYTE	W96
// 051   ----------------------------------------
	BYTE	W96
// 052   ----------------------------------------
	BYTE	W96
// 053   ----------------------------------------
	BYTE	W96
// 054   ----------------------------------------
	BYTE	W96
// 055   ----------------------------------------
	BYTE	W96
// 056   ----------------------------------------
	BYTE	W96
// 057   ----------------------------------------
	BYTE	W96
// 058   ----------------------------------------
	BYTE	W96
// 059   ----------------------------------------
	BYTE	W96
// 060   ----------------------------------------
	BYTE	W96
// 061   ----------------------------------------
	BYTE	W96
RR20_1_B1:
// 062   ----------------------------------------
	BYTE	W96
// 063   ----------------------------------------
	BYTE	W96
// 064   ----------------------------------------
	BYTE	W96
// 065   ----------------------------------------
	BYTE	W96
// 066   ----------------------------------------
	BYTE	W96
// 067   ----------------------------------------
	BYTE	W96
// 068   ----------------------------------------
	BYTE	W96
// 069   ----------------------------------------
	BYTE	W96
// 070   ----------------------------------------
	BYTE	W96
// 071   ----------------------------------------
	BYTE	W96
// 072   ----------------------------------------
	BYTE	W96
// 073   ----------------------------------------
	BYTE	W96
// 074   ----------------------------------------
	BYTE	W96
// 075   ----------------------------------------
	BYTE	W96
// 076   ----------------------------------------
	BYTE	W96
// 077   ----------------------------------------
	BYTE	W96
// 078   ----------------------------------------
	BYTE	W96
// 079   ----------------------------------------
	BYTE	W96
// 080   ----------------------------------------
RR20_1_080:
	BYTE	W12
	BYTE		N11     Bn2   v112
	BYTE	W12
	BYTE		N11   
	BYTE	W12
	BYTE		N11   
	BYTE	W12
	BYTE		N11   
	BYTE	W12
	BYTE		N11   
	BYTE	W12
	BYTE		N11   
	BYTE	W12
	BYTE		N11   
	BYTE	W12
	BYTE	PEND
// 081   ----------------------------------------
RR20_1_081:
	BYTE		N11     Bn2   v112
	BYTE	W12
	BYTE		N11   
	BYTE	W12
	BYTE		N11   
	BYTE	W12
	BYTE		N11   
	BYTE	W12
	BYTE		        Dn3 
	BYTE	W12
	BYTE		N32     Bn2 
	BYTE	W36
	BYTE	PEND
// 082   ----------------------------------------
	BYTE	W24
	BYTE		N11   
	BYTE	W12
	BYTE		N11   
	BYTE	W12
	BYTE		N11   
	BYTE	W12
	BYTE		N11   
	BYTE	W12
	BYTE		N11   
	BYTE	W12
	BYTE		N11   
	BYTE	W12
// 083   ----------------------------------------
	BYTE		N11   
	BYTE	W12
	BYTE		N11   
	BYTE	W12
	BYTE		N11   
	BYTE	W12
	BYTE		N11   
	BYTE	W12
	BYTE		        En3 
	BYTE	W12
	BYTE		N23     Dn3 
	BYTE	W36
// 084   ----------------------------------------
RR20_1_084:
	BYTE	W12
	BYTE		N11     Dn3   v112
	BYTE	W12
	BYTE		N11   
	BYTE	W12
	BYTE		N11   
	BYTE	W12
	BYTE		N11   
	BYTE	W12
	BYTE		N11   
	BYTE	W12
	BYTE		N11   
	BYTE	W12
	BYTE		N11   
	BYTE	W12
	BYTE	PEND
// 085   ----------------------------------------
	BYTE		N11   
	BYTE	W12
	BYTE		N11   
	BYTE	W12
	BYTE		N11   
	BYTE	W12
	BYTE		N11   
	BYTE	W12
	BYTE		N23   
	BYTE	W48
// 086   ----------------------------------------
	BYTE	W12
	BYTE		N11   
	BYTE	W12
	BYTE		        En3 
	BYTE	W12
	BYTE		        Dn3 
	BYTE	W12
	BYTE		        En3 
	BYTE	W12
	BYTE		        Dn3 
	BYTE	W12
	BYTE		        En3 
	BYTE	W12
	BYTE		        Dn3 
	BYTE	W12
// 087   ----------------------------------------
	BYTE		        En3 
	BYTE	W12
	BYTE		        Dn3 
	BYTE	W12
	BYTE		        En3 
	BYTE	W12
	BYTE		        Dn3 
	BYTE	W12
	BYTE		N23     Fs3 
	BYTE	W48
// 088   ----------------------------------------
	BYTE	PATT
	 POIN2	RR20_1_080
// 089   ----------------------------------------
	BYTE	PATT
	 POIN2	RR20_1_081
// 090   ----------------------------------------
	BYTE	PATT
	 POIN2	RR20_1_080
// 091   ----------------------------------------
	BYTE		N11     Bn2   v112
	BYTE	W12
	BYTE		N11   
	BYTE	W12
	BYTE		N11   
	BYTE	W12
	BYTE		N11   
	BYTE	W12
	BYTE		        En3 
	BYTE	W12
	BYTE		        Dn3 
	BYTE	W36
// 092   ----------------------------------------
	BYTE	PATT
	 POIN2	RR20_1_084
// 093   ----------------------------------------
	BYTE		N11     En3   v112
	BYTE	W12
	BYTE		        Dn3 
	BYTE	W12
	BYTE		        En3 
	BYTE	W12
	BYTE		        Dn3 
	BYTE	W12
	BYTE		        En3 
	BYTE	W12
	BYTE		        Dn3 
	BYTE	W36
// 094   ----------------------------------------
	BYTE	W12
	BYTE		        Fs3 
	BYTE	W12
	BYTE		N11   
	BYTE	W12
	BYTE		N11   
	BYTE	W12
	BYTE		        An3 
	BYTE	W12
	BYTE		        Fs3 
	BYTE	W12
	BYTE		        An3 
	BYTE	W12
	BYTE		        Fs3 
	BYTE	W12
// 095   ----------------------------------------
	BYTE		        An3 
	BYTE	W12
	BYTE		        Fs3 
	BYTE	W12
	BYTE		        An3 
	BYTE	W12
	BYTE		        Fs3 
	BYTE	W12
	BYTE		        An3 
	BYTE	W12
	BYTE		N23     Bn3 
	BYTE	W36
// 096   ----------------------------------------
RR20_1_096:
	BYTE	W12
	BYTE		N11     Fs3   v112
	BYTE	W12
	BYTE		N11   
	BYTE	W12
	BYTE		N11   
	BYTE	W12
	BYTE		N11   
	BYTE	W12
	BYTE		N11   
	BYTE	W12
	BYTE		N11   
	BYTE	W12
	BYTE		N11   
	BYTE	W12
	BYTE	PEND
// 097   ----------------------------------------
RR20_1_097:
	BYTE		N11     Fs3   v112
	BYTE	W12
	BYTE		N11   
	BYTE	W12
	BYTE		N11   
	BYTE	W12
	BYTE		N11   
	BYTE	W12
	BYTE		N23     An3 
	BYTE	W24
	BYTE		N11     Fs3 
	BYTE	W12
	BYTE		N11   
	BYTE	W12
	BYTE	PEND
// 098   ----------------------------------------
RR20_1_098:
	BYTE		N11     Fs3   v112
	BYTE	W12
	BYTE		N11   
	BYTE	W12
	BYTE		N11   
	BYTE	W12
	BYTE		N11   
	BYTE	W12
	BYTE		N11   
	BYTE	W12
	BYTE		N11   
	BYTE	W12
	BYTE		N11   
	BYTE	W12
	BYTE		N11   
	BYTE	W12
	BYTE	PEND
// 099   ----------------------------------------
	BYTE		N11   
	BYTE	W12
	BYTE		N11   
	BYTE	W12
	BYTE		N11   
	BYTE	W12
	BYTE		N32     An3 
	BYTE	W60
// 100   ----------------------------------------
	BYTE	PATT
	 POIN2	RR20_1_096
// 101   ----------------------------------------
	BYTE	PATT
	 POIN2	RR20_1_097
// 102   ----------------------------------------
	BYTE	PATT
	 POIN2	RR20_1_098
// 103   ----------------------------------------
	BYTE		N11     Fs3   v112
	BYTE	W12
	BYTE		N11   
	BYTE	W12
	BYTE		N11   
	BYTE	W12
	BYTE		N11   
	BYTE	W12
	BYTE		N44     Cn4 
	BYTE	W48
// 104   ----------------------------------------
	BYTE	PATT
	 POIN2	RR20_1_096
// 105   ----------------------------------------
	BYTE	PATT
	 POIN2	RR20_1_098
// 106   ----------------------------------------
	BYTE		N23     Fs3   v112
	BYTE	W24
	BYTE		N23   
	BYTE	W24
	BYTE		N23   
	BYTE	W24
	BYTE		N11   
	BYTE	W12
	BYTE		N11   
	BYTE	W12
// 107   ----------------------------------------
	BYTE		N23   
	BYTE	W24
	BYTE		N23   
	BYTE	W24
	BYTE		N11   
	BYTE	W12
	BYTE		N11   
	BYTE	W24
	BYTE		N11   
	BYTE	W12
// 108   ----------------------------------------
	BYTE		N11   
	BYTE	W12
	BYTE		N11   
	BYTE	W12
	BYTE		N11   
	BYTE	W12
	BYTE		N11   
	BYTE	W12
	BYTE		N23   
	BYTE	W24
	BYTE		N11   
	BYTE	W12
	BYTE		N11   
	BYTE	W12
// 109   ----------------------------------------
	BYTE		N11   
	BYTE	W12
	BYTE		N11   
	BYTE	W12
	BYTE		N23   
	BYTE	W24
	BYTE		N23   
	BYTE	W24
	BYTE		N11   
	BYTE	W12
	BYTE		N11   
	BYTE	W12
// 110   ----------------------------------------
	BYTE	PATT
	 POIN2	RR20_1_098
// 111   ----------------------------------------
	BYTE		N11     Fs3   v112
	BYTE	W12
	BYTE		N11   
	BYTE	W12
	BYTE		N11   
	BYTE	W12
	BYTE		N11   
	BYTE	W12
	BYTE		N32     Cn4 
	BYTE	W48
// 112   ----------------------------------------
	BYTE	W72
	BYTE		N23     Cs4 
	BYTE	W24
// 113   ----------------------------------------
	BYTE		        Dn4 
	BYTE	W24
	BYTE		        Cs4 
	BYTE	W24
	BYTE		N11     Bn3 
	BYTE	W12
	BYTE		N23     Cs4 
	BYTE	W24
	BYTE		N56     Bn3 
	BYTE	W12
// 114   ----------------------------------------
	BYTE	W48
	BYTE		TIE     Fs3 
	BYTE	W48
// 115   ----------------------------------------
	BYTE	W68
	BYTE	W03
	BYTE		EOT   
	BYTE	W24
	BYTE	W01
// 116   ----------------------------------------
	BYTE	W60
	BYTE		N23     Cs4 
	BYTE	W24
	BYTE		        Dn4 
	BYTE	W12
// 117   ----------------------------------------
	BYTE	W12
	BYTE		        Cs4 
	BYTE	W24
	BYTE		        Bn3 
	BYTE	W24
	BYTE		        Cs4 
	BYTE	W24
	BYTE		TIE     Bn3 
	BYTE	W12
// 118   ----------------------------------------
	BYTE	W92
	BYTE	W03
	BYTE		EOT   
	BYTE	W01
// 119   ----------------------------------------
	BYTE	W96
// 120   ----------------------------------------
	BYTE	W24
	BYTE		N23   
	BYTE	W24
	BYTE		N23   
	BYTE	W24
	BYTE		N11     Cs4 
	BYTE	W12
	BYTE		N32     Dn4 
	BYTE	W12
// 121   ----------------------------------------
	BYTE	W24
	BYTE		N11     Cs4 
	BYTE	W12
	BYTE		N23     Bn3 
	BYTE	W24
	BYTE		        Cs4 
	BYTE	W24
	BYTE		N44     Bn3 
	BYTE	W12
// 122   ----------------------------------------
	BYTE	W36
	BYTE		TIE     Fs3 
	BYTE	W60
// 123   ----------------------------------------
	BYTE	W44
	BYTE	W03
	BYTE		EOT   
	BYTE	W01
	BYTE		N11   
	BYTE	W12
	BYTE		N23   
	BYTE	W24
	BYTE		N11   
	BYTE	W12
// 124   ----------------------------------------
	BYTE		TIE     Gn3 
	BYTE	W96
// 125   ----------------------------------------
	BYTE	W92
	BYTE	W03
	BYTE		EOT   
	BYTE	W01
// 126   ----------------------------------------
	BYTE	W96
// 127   ----------------------------------------
	BYTE	W84
	BYTE		N44     En4 
	BYTE	W12
// 128   ----------------------------------------
	BYTE	W36
	BYTE		        Ds4 
	BYTE	W48
	BYTE		        Bn3 
	BYTE	W12
// 129   ----------------------------------------
	BYTE	W36
	BYTE		        Gn3 
	BYTE	W48
	BYTE		TIE     Fs3 
	BYTE	W12
// 130   ----------------------------------------
	BYTE	W96
// 131   ----------------------------------------
	BYTE	W96
// 132   ----------------------------------------
	BYTE	W92
	BYTE	W03
	BYTE		EOT   
	BYTE	W01
// 133   ----------------------------------------
	BYTE	W96
// 134   ----------------------------------------
	BYTE	W96
// 135   ----------------------------------------
	BYTE	W84
	BYTE		N92   
	BYTE	W12
// 136   ----------------------------------------
	BYTE	W84
	BYTE		        En3 
	BYTE	W12
// 137   ----------------------------------------
	BYTE	W84
	BYTE		        Bn3 
	BYTE	W12
// 138   ----------------------------------------
	BYTE	W84
	BYTE		N56     Fs3 
	BYTE	W12
// 139   ----------------------------------------
	BYTE	W48
	BYTE		N11     Bn3 
	BYTE	W12
	BYTE		N23     Cs4 
	BYTE	W24
	BYTE		N68     Dn4 
	BYTE	W12
// 140   ----------------------------------------
	BYTE	W60
	BYTE		N23     Cs4 
	BYTE	W24
	BYTE		N44     Bn3 
	BYTE	W12
// 141   ----------------------------------------
	BYTE	W48
	BYTE		N32     Dn4 
	BYTE	W36
	BYTE		N92     Cs4 
	BYTE	W12
// 142   ----------------------------------------
	BYTE	W84
	BYTE		        An3 
	BYTE	W12
// 143   ----------------------------------------
	BYTE	W84
	BYTE		        Fs3 
	BYTE	W12
// 144   ----------------------------------------
	BYTE	W84
	BYTE		        An3 
	BYTE	W12
// 145   ----------------------------------------
	BYTE	W84
	BYTE		        Bn3 
	BYTE	W12
// 146   ----------------------------------------
	BYTE	W84
	BYTE		N56     Cs4 
	BYTE	W12
// 147   ----------------------------------------
	BYTE	W48
	BYTE		N11     Bn3 
	BYTE	W12
	BYTE		N23     Cs4 
	BYTE	W24
	BYTE		        Dn4 
	BYTE	W12
// 148   ----------------------------------------
	BYTE	W12
	BYTE		        Cs4 
	BYTE	W24
	BYTE		N23   
	BYTE	W24
	BYTE		        Bn3 
	BYTE	W24
	BYTE		N23   
	BYTE	W12
// 149   ----------------------------------------
	BYTE	W12
	BYTE		        Fs3 
	BYTE	W24
	BYTE		        Bn3 
	BYTE	W24
	BYTE		        Cs4 
	BYTE	W24
	BYTE		        Dn4 
	BYTE	W12
// 150   ----------------------------------------
	BYTE	W12
	BYTE		        Cs4 
	BYTE	W24
	BYTE		        Bn3 
	BYTE	W24
	BYTE		N21     An3 
	BYTE	W21
	BYTE		N02   
	BYTE	W03
	BYTE		N56     Cs4 
	BYTE	W12
// 151   ----------------------------------------
	BYTE	W48
	BYTE		N32   
	BYTE	W36
	BYTE		N56     Bn3 
	BYTE	W12
	BYTE	GoTo
	 POIN2	RR20_1_B1
RR20_1_B2:
// 152   ----------------------------------------
	BYTE	W44
	BYTE	W03
	BYTE	FINE

//**************** Track 2 (Midi-Chn.2) ****************//

RR20_2:
	BYTE	KEYSH   RR20_key+0
// 000   ----------------------------------------
	BYTE		VOICE   73
	BYTE		VOL     100*RR20_mvl/mxv
	BYTE		PAN     c_v+0
	BYTE	W96
// 001   ----------------------------------------
	BYTE	W96
// 002   ----------------------------------------
	BYTE	W96
// 003   ----------------------------------------
	BYTE	W96
// 004   ----------------------------------------
	BYTE	W96
// 005   ----------------------------------------
	BYTE	W96
// 006   ----------------------------------------
	BYTE	W96
// 007   ----------------------------------------
	BYTE	W96
// 008   ----------------------------------------
	BYTE	W96
// 009   ----------------------------------------
	BYTE	W96
// 010   ----------------------------------------
	BYTE	W96
// 011   ----------------------------------------
	BYTE	W96
// 012   ----------------------------------------
	BYTE	W96
// 013   ----------------------------------------
	BYTE	W96
// 014   ----------------------------------------
	BYTE	W96
// 015   ----------------------------------------
	BYTE	W96
// 016   ----------------------------------------
	BYTE	W96
// 017   ----------------------------------------
	BYTE	W96
// 018   ----------------------------------------
	BYTE	W96
// 019   ----------------------------------------
	BYTE	W96
// 020   ----------------------------------------
	BYTE	W96
// 021   ----------------------------------------
	BYTE	W96
// 022   ----------------------------------------
	BYTE	W96
// 023   ----------------------------------------
	BYTE	W96
// 024   ----------------------------------------
	BYTE	W96
// 025   ----------------------------------------
	BYTE	W96
// 026   ----------------------------------------
	BYTE	W96
// 027   ----------------------------------------
	BYTE	W96
// 028   ----------------------------------------
	BYTE	W96
// 029   ----------------------------------------
	BYTE	W96
// 030   ----------------------------------------
	BYTE	W96
// 031   ----------------------------------------
	BYTE	W96
// 032   ----------------------------------------
	BYTE	W96
// 033   ----------------------------------------
	BYTE	W96
// 034   ----------------------------------------
	BYTE	W96
// 035   ----------------------------------------
	BYTE	W96
// 036   ----------------------------------------
	BYTE	W96
// 037   ----------------------------------------
	BYTE	W96
// 038   ----------------------------------------
	BYTE	W96
// 039   ----------------------------------------
	BYTE	W96
// 040   ----------------------------------------
	BYTE	W96
// 041   ----------------------------------------
	BYTE	W96
// 042   ----------------------------------------
	BYTE	W96
// 043   ----------------------------------------
	BYTE	W96
// 044   ----------------------------------------
	BYTE	W96
// 045   ----------------------------------------
	BYTE	W96
// 046   ----------------------------------------
	BYTE	W96
// 047   ----------------------------------------
	BYTE	W96
// 048   ----------------------------------------
	BYTE	W96
// 049   ----------------------------------------
	BYTE	W96
// 050   ----------------------------------------
	BYTE	W96
// 051   ----------------------------------------
	BYTE	W96
// 052   ----------------------------------------
	BYTE	W96
// 053   ----------------------------------------
	BYTE	W96
// 054   ----------------------------------------
	BYTE	W96
// 055   ----------------------------------------
	BYTE	W96
// 056   ----------------------------------------
	BYTE	W96
// 057   ----------------------------------------
	BYTE	W96
// 058   ----------------------------------------
	BYTE	W96
// 059   ----------------------------------------
	BYTE	W96
// 060   ----------------------------------------
	BYTE	W96
// 061   ----------------------------------------
	BYTE	W96
RR20_2_B1:
// 062   ----------------------------------------
	BYTE	W96
// 063   ----------------------------------------
	BYTE	W96
// 064   ----------------------------------------
	BYTE	W96
// 065   ----------------------------------------
	BYTE	W96
// 066   ----------------------------------------
	BYTE	W96
// 067   ----------------------------------------
	BYTE	W96
// 068   ----------------------------------------
	BYTE	W96
// 069   ----------------------------------------
	BYTE	W96
// 070   ----------------------------------------
	BYTE	W96
// 071   ----------------------------------------
	BYTE	W96
// 072   ----------------------------------------
	BYTE	W96
// 073   ----------------------------------------
	BYTE	W96
// 074   ----------------------------------------
	BYTE	W96
// 075   ----------------------------------------
	BYTE	W96
// 076   ----------------------------------------
	BYTE	W96
// 077   ----------------------------------------
	BYTE	W96
// 078   ----------------------------------------
	BYTE	W96
// 079   ----------------------------------------
	BYTE	W96
// 080   ----------------------------------------
	BYTE	W96
// 081   ----------------------------------------
	BYTE	W96
// 082   ----------------------------------------
	BYTE	W96
// 083   ----------------------------------------
	BYTE	W96
// 084   ----------------------------------------
	BYTE	W96
// 085   ----------------------------------------
	BYTE	W96
// 086   ----------------------------------------
	BYTE	W96
// 087   ----------------------------------------
	BYTE	W96
// 088   ----------------------------------------
	BYTE	W96
// 089   ----------------------------------------
	BYTE	W96
// 090   ----------------------------------------
	BYTE	W96
// 091   ----------------------------------------
	BYTE	W96
// 092   ----------------------------------------
	BYTE	W96
// 093   ----------------------------------------
	BYTE	W96
// 094   ----------------------------------------
	BYTE	W96
// 095   ----------------------------------------
	BYTE	W96
// 096   ----------------------------------------
	BYTE	W96
// 097   ----------------------------------------
	BYTE	W96
// 098   ----------------------------------------
	BYTE	W96
// 099   ----------------------------------------
	BYTE	W96
// 100   ----------------------------------------
	BYTE	W96
// 101   ----------------------------------------
	BYTE	W96
// 102   ----------------------------------------
	BYTE	W96
// 103   ----------------------------------------
	BYTE	W96
// 104   ----------------------------------------
	BYTE	W96
// 105   ----------------------------------------
	BYTE	W96
// 106   ----------------------------------------
	BYTE	W96
// 107   ----------------------------------------
	BYTE	W96
// 108   ----------------------------------------
	BYTE	W96
// 109   ----------------------------------------
	BYTE	W96
// 110   ----------------------------------------
	BYTE	W96
// 111   ----------------------------------------
	BYTE	W96
// 112   ----------------------------------------
RR20_2_112:
	BYTE		TIE     En4   v064
	BYTE		TIE     Gn4 
	BYTE	W96
	BYTE	PEND
// 113   ----------------------------------------
	BYTE	W92
	BYTE	W03
	BYTE		EOT     En4 
	BYTE		        Gn4 
	BYTE	W01
// 114   ----------------------------------------
RR20_2_114:
	BYTE		TIE     Dn4   v064
	BYTE		TIE     Fs4 
	BYTE	W96
	BYTE	PEND
// 115   ----------------------------------------
	BYTE	W92
	BYTE	W03
	BYTE		EOT     Dn4 
	BYTE		        Fs4 
	BYTE	W01
// 116   ----------------------------------------
	BYTE	PATT
	 POIN2	RR20_2_112
// 117   ----------------------------------------
	BYTE	W92
	BYTE	W03
	BYTE		EOT     En4 
	BYTE		        Gn4 
	BYTE	W01
// 118   ----------------------------------------
	BYTE		N23     Dn4   v064
	BYTE		N23     Fs4 
	BYTE	W96
// 119   ----------------------------------------
	BYTE	W96
// 120   ----------------------------------------
	BYTE	PATT
	 POIN2	RR20_2_112
// 121   ----------------------------------------
	BYTE	W92
	BYTE	W03
	BYTE		EOT     En4 
	BYTE		        Gn4 
	BYTE	W01
// 122   ----------------------------------------
	BYTE	PATT
	 POIN2	RR20_2_114
// 123   ----------------------------------------
	BYTE	W92
	BYTE	W03
	BYTE		EOT     Dn4 
	BYTE		        Fs4 
	BYTE	W01
// 124   ----------------------------------------
	BYTE	W48
	BYTE		N11     Bn4   v096
	BYTE	W12
	BYTE		N23   
	BYTE	W24
	BYTE		N11   
	BYTE	W12
// 125   ----------------------------------------
	BYTE		TIE   
	BYTE	W48
	BYTE		N11     En5 
	BYTE	W12
	BYTE		N23   
	BYTE	W24
	BYTE		TIE     Ds5 
	BYTE	W12
// 126   ----------------------------------------
	BYTE	W96
// 127   ----------------------------------------
	BYTE	W92
	BYTE	W03
	BYTE		EOT     Bn4 
	BYTE		        Ds5 
	BYTE	W01
// 128   ----------------------------------------
	BYTE	W96
// 129   ----------------------------------------
	BYTE	W96
// 130   ----------------------------------------
	BYTE	W96
// 131   ----------------------------------------
	BYTE	W96
// 132   ----------------------------------------
	BYTE	W96
// 133   ----------------------------------------
	BYTE	W96
// 134   ----------------------------------------
	BYTE	W96
// 135   ----------------------------------------
	BYTE	W84
	BYTE		N92     Dn4   v064
	BYTE	W12
// 136   ----------------------------------------
	BYTE	W84
	BYTE		        Cs4 
	BYTE	W12
// 137   ----------------------------------------
	BYTE	W84
	BYTE		        Fs4 
	BYTE	W12
// 138   ----------------------------------------
	BYTE	W84
	BYTE		N56     Dn4 
	BYTE	W12
// 139   ----------------------------------------
	BYTE	W84
	BYTE		N68     Bn4 
	BYTE	W12
// 140   ----------------------------------------
	BYTE	W60
	BYTE		N23     An4 
	BYTE	W24
	BYTE		N44     Gn4 
	BYTE	W12
// 141   ----------------------------------------
	BYTE	W48
	BYTE		N32     Bn4 
	BYTE	W36
	BYTE		N92     An4 
	BYTE	W12
// 142   ----------------------------------------
	BYTE	W84
	BYTE		        Fs4 
	BYTE	W12
// 143   ----------------------------------------
	BYTE	W84
	BYTE		N92   
	BYTE	W12
// 144   ----------------------------------------
	BYTE	W84
	BYTE		        Dn4 
	BYTE	W12
// 145   ----------------------------------------
	BYTE	W84
	BYTE		N92   
	BYTE	W12
// 146   ----------------------------------------
	BYTE	W84
	BYTE		N56     An4 
	BYTE	W12
// 147   ----------------------------------------
	BYTE	W48
	BYTE		N11     Dn4 
	BYTE	W12
	BYTE		N23     En4 
	BYTE	W24
	BYTE		        Fs4 
	BYTE	W12
// 148   ----------------------------------------
	BYTE	W12
	BYTE		        En4 
	BYTE	W24
	BYTE		N23   
	BYTE	W24
	BYTE		        Dn4 
	BYTE	W24
	BYTE		N23   
	BYTE	W12
// 149   ----------------------------------------
	BYTE	W12
	BYTE		        Bn3 
	BYTE	W24
	BYTE		        Dn4 
	BYTE	W24
	BYTE		        En4 
	BYTE	W24
	BYTE		        Fs4 
	BYTE	W12
// 150   ----------------------------------------
	BYTE	W12
	BYTE		        En4 
	BYTE	W24
	BYTE		N23   
	BYTE	W24
	BYTE		N23   
	BYTE	W21
	BYTE		N02     Dn4 
	BYTE	W03
	BYTE		N56     En4 
	BYTE	W12
// 151   ----------------------------------------
	BYTE	W48
	BYTE		N32   
	BYTE	W36
	BYTE		N56     Dn4 
	BYTE	W12
	BYTE	GoTo
	 POIN2	RR20_2_B1
RR20_2_B2:
// 152   ----------------------------------------
	BYTE	W44
	BYTE	W03
	BYTE	FINE

//**************** Track 3 (Midi-Chn.3) ****************//

RR20_3:
	BYTE	KEYSH   RR20_key+0
// 000   ----------------------------------------
	BYTE		VOICE   40
	BYTE		VOL     127*RR20_mvl/mxv
	BYTE		PAN     c_v+0
	BYTE	W96
// 001   ----------------------------------------
	BYTE	W96
// 002   ----------------------------------------
	BYTE	W96
// 003   ----------------------------------------
	BYTE	W96
// 004   ----------------------------------------
	BYTE		N11     Bn3   v080
	BYTE	W12
	BYTE		N11   
	BYTE	W12
	BYTE		N11   
	BYTE	W12
	BYTE		N11   
	BYTE	W12
	BYTE		N11   
	BYTE	W12
	BYTE		N11   
	BYTE	W12
	BYTE		N11   
	BYTE	W12
	BYTE		        Bn3   v112
	BYTE	W12
// 005   ----------------------------------------
	BYTE		        Bn3   v080
	BYTE	W12
	BYTE		N11   
	BYTE	W12
	BYTE		N11   
	BYTE	W12
	BYTE		N11   
	BYTE	W12
	BYTE		N11   
	BYTE	W12
	BYTE		N11   
	BYTE	W12
	BYTE		N11   
	BYTE	W12
	BYTE		N11   
	BYTE	W12
// 006   ----------------------------------------
	BYTE		        Bn4 
	BYTE	W12
	BYTE		N11   
	BYTE	W12
	BYTE		N11   
	BYTE	W12
	BYTE		N11   
	BYTE	W12
	BYTE		N11   
	BYTE	W12
	BYTE		N11   
	BYTE	W12
	BYTE		N11   
	BYTE	W12
	BYTE		N11   
	BYTE	W12
// 007   ----------------------------------------
	BYTE		N11   
	BYTE	W12
	BYTE		N11   
	BYTE	W12
	BYTE		N11   
	BYTE	W12
	BYTE		N11   
	BYTE	W12
	BYTE		N11   
	BYTE	W12
	BYTE		N11   
	BYTE	W12
	BYTE		N11   
	BYTE	W12
	BYTE		        Dn3   v112
	BYTE		N11     Bn3 
	BYTE		N11     Bn4 
	BYTE	W12
// 008   ----------------------------------------
	BYTE		        En4   v080
	BYTE	W12
	BYTE		        Cs4 
	BYTE	W12
	BYTE		        En3 
	BYTE	W12
	BYTE		        Dn4 
	BYTE	W12
	BYTE		        An3 
	BYTE	W12
	BYTE		        En3 
	BYTE	W12
	BYTE		        Cs4 
	BYTE	W24
// 009   ----------------------------------------
	BYTE		N11   
	BYTE	W12
	BYTE		        An3 
	BYTE	W12
	BYTE		        En3 
	BYTE	W12
	BYTE		        Fs3 
	BYTE	W12
	BYTE		        En3 
	BYTE	W12
	BYTE		        Bn3 
	BYTE	W12
	BYTE		        An3 
	BYTE	W24
// 010   ----------------------------------------
	BYTE		        En4 
	BYTE	W12
	BYTE		        Cs4 
	BYTE	W12
	BYTE		        En3 
	BYTE	W12
	BYTE		        Dn4 
	BYTE	W12
	BYTE		        An3 
	BYTE	W12
	BYTE		        En3 
	BYTE	W12
	BYTE		        Fs3 
	BYTE	W24
// 011   ----------------------------------------
	BYTE		        Gn3 
	BYTE	W12
	BYTE		        Bn3 
	BYTE	W12
	BYTE		        Dn4 
	BYTE	W12
	BYTE		        Cs4 
	BYTE	W12
	BYTE		        An3 
	BYTE	W12
	BYTE		        En3 
	BYTE	W12
	BYTE		        Fs3 
	BYTE	W24
// 012   ----------------------------------------
	BYTE		        En3 
	BYTE	W12
	BYTE		        An3 
	BYTE	W12
	BYTE		        Cs4 
	BYTE	W12
	BYTE		        An3 
	BYTE	W12
	BYTE		        En3 
	BYTE	W12
	BYTE		        An3 
	BYTE	W12
	BYTE		        Fs4 
	BYTE	W24
// 013   ----------------------------------------
	BYTE		        En4 
	BYTE	W12
	BYTE		        Dn4 
	BYTE	W12
	BYTE		        Bn3 
	BYTE	W12
	BYTE		        Fs3 
	BYTE	W12
	BYTE		        Cs4 
	BYTE	W12
	BYTE		        Dn4 
	BYTE	W12
	BYTE		        Dn3 
	BYTE	W24
// 014   ----------------------------------------
	BYTE		        Cs3 
	BYTE	W12
	BYTE		        Dn3 
	BYTE	W12
	BYTE		        En3 
	BYTE	W12
	BYTE		        Gn3 
	BYTE	W12
	BYTE		        Dn3 
	BYTE	W12
	BYTE		        En3 
	BYTE	W12
	BYTE		        Fs3 
	BYTE	W12
	BYTE		        Gn3 
	BYTE	W12
// 015   ----------------------------------------
	BYTE		        An3 
	BYTE	W12
	BYTE		        Bn3 
	BYTE	W12
	BYTE		        Gn3 
	BYTE	W12
	BYTE		        Fs3 
	BYTE	W12
	BYTE		        En3 
	BYTE	W12
	BYTE		        An3 
	BYTE	W36
// 016   ----------------------------------------
	BYTE		        Gn4 
	BYTE	W12
	BYTE		        En4 
	BYTE	W12
	BYTE		        Gn3 
	BYTE	W12
	BYTE		        Fs4 
	BYTE	W12
	BYTE		        Cs4 
	BYTE	W12
	BYTE		        Gn3 
	BYTE	W12
	BYTE		        Cs4 
	BYTE	W24
// 017   ----------------------------------------
	BYTE		        En4 
	BYTE	W12
	BYTE		        Cs4 
	BYTE	W12
	BYTE		        Gn3 
	BYTE	W12
	BYTE		        An3 
	BYTE	W12
	BYTE		        Gn3 
	BYTE	W12
	BYTE		        Dn4 
	BYTE	W12
	BYTE		        Cs4 
	BYTE	W24
// 018   ----------------------------------------
	BYTE		        Gn4 
	BYTE	W12
	BYTE		        En4 
	BYTE	W12
	BYTE		        Gn3 
	BYTE	W12
	BYTE		        Fs4 
	BYTE	W12
	BYTE		        Cs4 
	BYTE	W12
	BYTE		        Gn3 
	BYTE	W12
	BYTE		        An3 
	BYTE	W24
// 019   ----------------------------------------
	BYTE		        Bn3 
	BYTE	W12
	BYTE		        Dn4 
	BYTE	W12
	BYTE		        Fs4 
	BYTE	W12
	BYTE		        En4 
	BYTE	W12
	BYTE		        Cs4 
	BYTE	W12
	BYTE		        Gn3 
	BYTE	W12
	BYTE		        An3 
	BYTE	W24
// 020   ----------------------------------------
	BYTE		        Gn3 
	BYTE	W12
	BYTE		        Cs4 
	BYTE	W12
	BYTE		        En4 
	BYTE	W12
	BYTE		        Cs4 
	BYTE	W12
	BYTE		        Gn3 
	BYTE	W12
	BYTE		        An3 
	BYTE	W12
	BYTE		        An4 
	BYTE	W24
// 021   ----------------------------------------
	BYTE		        Gn4 
	BYTE	W12
	BYTE		        Fs4 
	BYTE	W12
	BYTE		        Dn4 
	BYTE	W12
	BYTE		        An3 
	BYTE	W12
	BYTE		        En4 
	BYTE	W12
	BYTE		        Fs4 
	BYTE	W12
	BYTE		        An3 
	BYTE	W24
// 022   ----------------------------------------
	BYTE		        En3 
	BYTE	W12
	BYTE		        Fs3 
	BYTE	W12
	BYTE		        Gn3 
	BYTE	W12
	BYTE		        Bn3 
	BYTE	W12
	BYTE		        Fs3 
	BYTE	W12
	BYTE		        Gn3 
	BYTE	W12
	BYTE		        An3 
	BYTE	W12
	BYTE		        Bn3 
	BYTE	W12
// 023   ----------------------------------------
	BYTE		        Cs4 
	BYTE	W12
	BYTE		        Dn4 
	BYTE	W12
	BYTE		        Bn3 
	BYTE	W12
	BYTE		        An3 
	BYTE	W12
	BYTE		        Gn3 
	BYTE	W12
	BYTE		        Cs4 
	BYTE	W36
// 024   ----------------------------------------
	BYTE	W96
// 025   ----------------------------------------
	BYTE	W96
// 026   ----------------------------------------
	BYTE	W96
// 027   ----------------------------------------
	BYTE	W96
// 028   ----------------------------------------
	BYTE	W96
// 029   ----------------------------------------
	BYTE	W96
// 030   ----------------------------------------
	BYTE	W96
// 031   ----------------------------------------
	BYTE	W96
// 032   ----------------------------------------
	BYTE	W12
	BYTE		        Fs4   v112
	BYTE	W12
	BYTE		N11   
	BYTE	W12
	BYTE		N11   
	BYTE	W12
	BYTE		N11   
	BYTE	W12
	BYTE		N11   
	BYTE	W12
	BYTE		N11   
	BYTE	W12
	BYTE		N11   
	BYTE	W12
// 033   ----------------------------------------
	BYTE		N11   
	BYTE	W12
	BYTE		N11   
	BYTE	W12
	BYTE		N11   
	BYTE	W12
	BYTE		N11   
	BYTE	W12
	BYTE		N11   
	BYTE	W12
	BYTE		N11   
	BYTE	W12
	BYTE		N11   
	BYTE	W12
	BYTE		N11   
	BYTE	W12
// 034   ----------------------------------------
	BYTE		N23   
	BYTE	W24
	BYTE		N23   
	BYTE	W24
	BYTE		N23   
	BYTE	W24
	BYTE		N11   
	BYTE	W12
	BYTE		N11   
	BYTE	W12
// 035   ----------------------------------------
	BYTE		N11   
	BYTE	W12
	BYTE		N11   
	BYTE	W12
	BYTE		N23   
	BYTE	W24
	BYTE		N32   
	BYTE	W36
	BYTE		N11   
	BYTE	W12
// 036   ----------------------------------------
	BYTE		N11   
	BYTE	W12
	BYTE		N11   
	BYTE	W12
	BYTE		N11   
	BYTE	W12
	BYTE		N11   
	BYTE	W12
	BYTE		N23   
	BYTE	W24
	BYTE		N11   
	BYTE	W12
	BYTE		N11   
	BYTE	W12
// 037   ----------------------------------------
	BYTE		N11   
	BYTE	W12
	BYTE		N11   
	BYTE	W12
	BYTE		N23   
	BYTE	W24
	BYTE		N23   
	BYTE	W24
	BYTE		N11   
	BYTE	W12
	BYTE		N11   
	BYTE	W12
// 038   ----------------------------------------
	BYTE		        Gn4 
	BYTE	W12
	BYTE		        Fs4 
	BYTE	W12
	BYTE		        Fn4 
	BYTE	W12
	BYTE		        En4 
	BYTE	W12
	BYTE		        Dn4 
	BYTE	W12
	BYTE		        Cs4 
	BYTE	W12
	BYTE		        Cn4 
	BYTE	W12
	BYTE		        Bn3 
	BYTE	W12
// 039   ----------------------------------------
	BYTE		        Cn4 
	BYTE	W12
	BYTE		        Cs4 
	BYTE	W12
	BYTE		        Dn4 
	BYTE	W12
	BYTE		        Cs4 
	BYTE	W12
	BYTE		        Cn4 
	BYTE	W12
	BYTE		        Bn3 
	BYTE	W12
	BYTE		        Fn3 
	BYTE	W12
	BYTE		N56     En3 
	BYTE	W12
// 040   ----------------------------------------
	BYTE	W96
// 041   ----------------------------------------
	BYTE	W96
// 042   ----------------------------------------
	BYTE	W96
// 043   ----------------------------------------
	BYTE	W96
// 044   ----------------------------------------
	BYTE	W96
// 045   ----------------------------------------
	BYTE	W84
	BYTE		N23     Dn3 
	BYTE		N23     An3 
	BYTE	W12
// 046   ----------------------------------------
	BYTE	W36
	BYTE		        Fs3 
	BYTE		N23     Cs4 
	BYTE	W48
	BYTE		        Gn3 
	BYTE		N23     Dn4 
	BYTE	W12
// 047   ----------------------------------------
	BYTE	W36
	BYTE		        An3 
	BYTE		N23     En4 
	BYTE	W48
	BYTE		TIE     Bn3 
	BYTE		TIE     Bn4 
	BYTE	W12
// 048   ----------------------------------------
	BYTE	W92
	BYTE	W03
	BYTE		EOT     Bn3 
	BYTE		        Bn4 
	BYTE	W01
// 049   ----------------------------------------
	BYTE	W96
// 050   ----------------------------------------
	BYTE	W96
// 051   ----------------------------------------
	BYTE	W96
// 052   ----------------------------------------
	BYTE		N44     Gn3 
	BYTE	W48
	BYTE		N23     Bn3 
	BYTE	W24
	BYTE		N11   
	BYTE	W12
	BYTE		TIE   
	BYTE	W12
// 053   ----------------------------------------
	BYTE	W48
	BYTE		N23     En4 
	BYTE	W24
	BYTE		N11   
	BYTE	W12
	BYTE		N23     Cn2 
	BYTE		N23     Cn3 
	BYTE		TIE     Ds4 
	BYTE	W12
// 054   ----------------------------------------
	BYTE	W12
	BYTE		N11     Cn2 
	BYTE		N11     Cn3 
	BYTE	W12
	BYTE		        Cn2 
	BYTE		N11     Cn3 
	BYTE	W12
	BYTE		N23     Ds2 
	BYTE		N23     Ds3 
	BYTE	W23
	BYTE		EOT     Bn3 
	BYTE	W01
	BYTE		N11     Ds2 
	BYTE		N11     Ds3 
	BYTE	W12
	BYTE		        Ds2 
	BYTE		N11     Ds3 
	BYTE	W12
	BYTE		N23     Gn2 
	BYTE		N23     Gn3 
	BYTE	W12
// 055   ----------------------------------------
	BYTE	W12
	BYTE		N11     Gn2 
	BYTE		N11     Gn3 
	BYTE	W12
	BYTE		        Gn2 
	BYTE		N11     Gn3 
	BYTE	W12
	BYTE		N23     Fs2 
	BYTE		N23     Fs3 
	BYTE	W11
	BYTE		EOT     Ds4 
	BYTE	W13
	BYTE		N11     Fs2 
	BYTE		N11     Fs3 
	BYTE	W12
	BYTE		        Fs2 
	BYTE		N11     Fs3 
	BYTE	W12
	BYTE		        Cn2 
	BYTE		N11     Cn3 
	BYTE	W12
// 056   ----------------------------------------
	BYTE		        Cn2 
	BYTE		N11     Cn3 
	BYTE	W12
	BYTE		        Cn2 
	BYTE		N11     Cn3 
	BYTE	W12
	BYTE		        Cn2 
	BYTE		N11     Cn3 
	BYTE	W12
	BYTE		N23     Ds2 
	BYTE		N23     Ds3 
	BYTE	W24
	BYTE		N11     Ds2 
	BYTE		N11     Ds3 
	BYTE	W12
	BYTE		        Ds2 
	BYTE		N11     Ds3 
	BYTE	W12
	BYTE		N23     Gn2 
	BYTE		N23     Gn3 
	BYTE	W12
// 057   ----------------------------------------
	BYTE	W12
	BYTE		N11     Gn2 
	BYTE		N11     Gn3 
	BYTE	W12
	BYTE		        Gn2 
	BYTE		N11     Gn3 
	BYTE	W12
	BYTE		N23     Fs2 
	BYTE		N23     Fs3 
	BYTE	W24
	BYTE		N11     Fs2 
	BYTE		N11     Fs3 
	BYTE	W12
	BYTE		        Fs2 
	BYTE		N11     Fs3 
	BYTE	W12
	BYTE		        Cn2 
	BYTE		N11     Cn3 
	BYTE	W12
// 058   ----------------------------------------
RR20_3_058:
	BYTE		N11     Fs2   v112
	BYTE		N11     Fs3 
	BYTE	W12
	BYTE		        Gn2 
	BYTE		N11     Gn3 
	BYTE	W12
	BYTE		        Fs2 
	BYTE		N11     Fs3 
	BYTE	W12
	BYTE		        Gn2 
	BYTE		N11     Gn3 
	BYTE	W12
	BYTE		        Fs2 
	BYTE		N11     Fs3 
	BYTE	W12
	BYTE		        Gn2 
	BYTE		N11     Gn3 
	BYTE	W12
	BYTE		        Fs2 
	BYTE		N11     Fs3 
	BYTE	W12
	BYTE		        Gn2 
	BYTE		N11     Gn3 
	BYTE	W12
	BYTE	PEND
// 059   ----------------------------------------
	BYTE	PATT
	 POIN2	RR20_3_058
// 060   ----------------------------------------
	BYTE	PATT
	 POIN2	RR20_3_058
// 061   ----------------------------------------
	BYTE		N11     Fs2   v112
	BYTE		N11     Fs3 
	BYTE	W12
	BYTE		        Gn2 
	BYTE		N11     Gn3 
	BYTE	W12
	BYTE		        Fs2 
	BYTE		N11     Fs3 
	BYTE	W12
	BYTE		        Gn2 
	BYTE		N11     Gn3 
	BYTE	W12
	BYTE		N23     Fs2 
	BYTE		N23     Fs3 
	BYTE	W48
RR20_3_B1:
// 062   ----------------------------------------
	BYTE	W96
// 063   ----------------------------------------
	BYTE	W96
// 064   ----------------------------------------
	BYTE	W96
// 065   ----------------------------------------
	BYTE	W96
// 066   ----------------------------------------
	BYTE	W96
// 067   ----------------------------------------
	BYTE	W96
// 068   ----------------------------------------
	BYTE	W96
// 069   ----------------------------------------
	BYTE	W96
// 070   ----------------------------------------
	BYTE	W96
// 071   ----------------------------------------
	BYTE	W96
// 072   ----------------------------------------
	BYTE	W96
// 073   ----------------------------------------
	BYTE	W96
// 074   ----------------------------------------
	BYTE	W96
// 075   ----------------------------------------
	BYTE	W96
// 076   ----------------------------------------
	BYTE	W96
// 077   ----------------------------------------
	BYTE	W96
// 078   ----------------------------------------
	BYTE	W96
// 079   ----------------------------------------
	BYTE	W96
// 080   ----------------------------------------
	BYTE	W96
// 081   ----------------------------------------
	BYTE	W96
// 082   ----------------------------------------
	BYTE	W96
// 083   ----------------------------------------
	BYTE	W96
// 084   ----------------------------------------
	BYTE	W96
// 085   ----------------------------------------
	BYTE	W96
// 086   ----------------------------------------
	BYTE	W96
// 087   ----------------------------------------
	BYTE	W96
// 088   ----------------------------------------
	BYTE	W96
// 089   ----------------------------------------
	BYTE	W96
// 090   ----------------------------------------
	BYTE	W96
// 091   ----------------------------------------
	BYTE	W96
// 092   ----------------------------------------
	BYTE	W96
// 093   ----------------------------------------
	BYTE	W96
// 094   ----------------------------------------
	BYTE	W96
// 095   ----------------------------------------
	BYTE	W96
// 096   ----------------------------------------
	BYTE	W96
// 097   ----------------------------------------
	BYTE	W96
// 098   ----------------------------------------
	BYTE	W96
// 099   ----------------------------------------
	BYTE	W96
// 100   ----------------------------------------
	BYTE	W96
// 101   ----------------------------------------
	BYTE	W96
// 102   ----------------------------------------
	BYTE	W96
// 103   ----------------------------------------
	BYTE	W96
// 104   ----------------------------------------
	BYTE	W96
// 105   ----------------------------------------
	BYTE	W96
// 106   ----------------------------------------
	BYTE	W96
// 107   ----------------------------------------
	BYTE	W96
// 108   ----------------------------------------
	BYTE	W96
// 109   ----------------------------------------
	BYTE	W96
// 110   ----------------------------------------
	BYTE	W96
// 111   ----------------------------------------
	BYTE	W96
// 112   ----------------------------------------
	BYTE	W96
// 113   ----------------------------------------
	BYTE	W96
// 114   ----------------------------------------
	BYTE	W96
// 115   ----------------------------------------
	BYTE	W96
// 116   ----------------------------------------
	BYTE	W96
// 117   ----------------------------------------
	BYTE	W96
// 118   ----------------------------------------
	BYTE	W96
// 119   ----------------------------------------
	BYTE	W96
// 120   ----------------------------------------
	BYTE	W96
// 121   ----------------------------------------
	BYTE	W96
// 122   ----------------------------------------
	BYTE	W96
// 123   ----------------------------------------
	BYTE	W96
// 124   ----------------------------------------
	BYTE	W96
// 125   ----------------------------------------
	BYTE	W96
// 126   ----------------------------------------
	BYTE	W96
// 127   ----------------------------------------
	BYTE	W96
// 128   ----------------------------------------
	BYTE	W96
// 129   ----------------------------------------
	BYTE	W96
// 130   ----------------------------------------
	BYTE	W96
// 131   ----------------------------------------
	BYTE	W96
// 132   ----------------------------------------
	BYTE	W96
// 133   ----------------------------------------
	BYTE	W96
// 134   ----------------------------------------
	BYTE	W96
// 135   ----------------------------------------
	BYTE	W96
// 136   ----------------------------------------
	BYTE	W96
// 137   ----------------------------------------
	BYTE	W96
// 138   ----------------------------------------
	BYTE	W96
// 139   ----------------------------------------
	BYTE	W96
// 140   ----------------------------------------
	BYTE	W96
// 141   ----------------------------------------
	BYTE	W96
// 142   ----------------------------------------
	BYTE	W96
// 143   ----------------------------------------
	BYTE	W96
// 144   ----------------------------------------
	BYTE	W96
// 145   ----------------------------------------
	BYTE	W96
// 146   ----------------------------------------
	BYTE	W96
// 147   ----------------------------------------
	BYTE	W96
// 148   ----------------------------------------
	BYTE	W96
// 149   ----------------------------------------
	BYTE	W96
// 150   ----------------------------------------
	BYTE	W96
// 151   ----------------------------------------
	BYTE	W96
	BYTE	GoTo
	 POIN2	RR20_3_B1
RR20_3_B2:
// 152   ----------------------------------------
	BYTE	W44
	BYTE	W03
	BYTE	FINE

//**************** Track 4 (Midi-Chn.4) ****************//

RR20_4:
	BYTE	KEYSH   RR20_key+0
// 000   ----------------------------------------
	BYTE		VOICE   30
	BYTE		VOL     127*RR20_mvl/mxv
	BYTE		PAN     c_v+0
	BYTE	W96
// 001   ----------------------------------------
	BYTE	W96
// 002   ----------------------------------------
	BYTE	W96
// 003   ----------------------------------------
	BYTE	W96
// 004   ----------------------------------------
	BYTE	W96
// 005   ----------------------------------------
	BYTE	W96
// 006   ----------------------------------------
	BYTE	W96
// 007   ----------------------------------------
	BYTE	W96
// 008   ----------------------------------------
	BYTE	W96
// 009   ----------------------------------------
	BYTE	W96
// 010   ----------------------------------------
	BYTE	W96
// 011   ----------------------------------------
	BYTE	W96
// 012   ----------------------------------------
	BYTE	W96
// 013   ----------------------------------------
	BYTE	W96
// 014   ----------------------------------------
	BYTE	W96
// 015   ----------------------------------------
	BYTE	W96
// 016   ----------------------------------------
RR20_4_016:
	BYTE		N11     Gn3   v096
	BYTE	W12
	BYTE		        En3 
	BYTE	W12
	BYTE		        Gn2 
	BYTE	W12
	BYTE		        Fs3 
	BYTE	W12
	BYTE		        Cs3 
	BYTE	W12
	BYTE		        Gn2 
	BYTE	W12
	BYTE		        An2 
	BYTE	W24
	BYTE	PEND
// 017   ----------------------------------------
	BYTE		        En3 
	BYTE	W12
	BYTE		        Cs3 
	BYTE	W12
	BYTE		        Gn2 
	BYTE	W12
	BYTE		        An2 
	BYTE	W12
	BYTE		        Gn2 
	BYTE	W12
	BYTE		        Dn3 
	BYTE	W12
	BYTE		        Cs3 
	BYTE	W24
// 018   ----------------------------------------
	BYTE	PATT
	 POIN2	RR20_4_016
// 019   ----------------------------------------
	BYTE		N11     Bn2   v096
	BYTE	W12
	BYTE		        Dn3 
	BYTE	W12
	BYTE		        Fs3 
	BYTE	W12
	BYTE		        En3 
	BYTE	W12
	BYTE		        Cs3 
	BYTE	W12
	BYTE		        Gn2 
	BYTE	W12
	BYTE		        An2 
	BYTE	W24
// 020   ----------------------------------------
	BYTE		        Gn2 
	BYTE	W12
	BYTE		        Cs3 
	BYTE	W12
	BYTE		        En3 
	BYTE	W12
	BYTE		        Cs3 
	BYTE	W12
	BYTE		        Gn2 
	BYTE	W12
	BYTE		        An2 
	BYTE	W12
	BYTE		        An3 
	BYTE	W24
// 021   ----------------------------------------
	BYTE		        Gn3 
	BYTE	W12
	BYTE		        Fs3 
	BYTE	W12
	BYTE		        Dn3 
	BYTE	W12
	BYTE		        An2 
	BYTE	W12
	BYTE		        En3 
	BYTE	W12
	BYTE		        Fs3 
	BYTE	W12
	BYTE		        An2 
	BYTE	W24
// 022   ----------------------------------------
	BYTE		        En2 
	BYTE	W12
	BYTE		        Fs2 
	BYTE	W12
	BYTE		        Gn2 
	BYTE	W12
	BYTE		        Bn2 
	BYTE	W12
	BYTE		        Fs2 
	BYTE	W12
	BYTE		        Gn2 
	BYTE	W12
	BYTE		        An2 
	BYTE	W12
	BYTE		        Bn2 
	BYTE	W12
// 023   ----------------------------------------
	BYTE		        Cs3 
	BYTE	W12
	BYTE		        Dn3 
	BYTE	W12
	BYTE		        Bn2 
	BYTE	W12
	BYTE		        An2 
	BYTE	W12
	BYTE		        Gn2 
	BYTE	W12
	BYTE		        Cs3 
	BYTE	W36
// 024   ----------------------------------------
	BYTE		N23     Fs3 
	BYTE	W24
	BYTE		N11   
	BYTE	W12
	BYTE		N11   
	BYTE	W12
	BYTE		N11   
	BYTE	W12
	BYTE		N11   
	BYTE	W12
	BYTE		N11   
	BYTE	W12
	BYTE		N11   
	BYTE	W12
// 025   ----------------------------------------
	BYTE		N11   
	BYTE	W12
	BYTE		N11   
	BYTE	W12
	BYTE		N11   
	BYTE	W12
	BYTE		N11   
	BYTE	W12
	BYTE		N56     An3 
	BYTE	W48
// 026   ----------------------------------------
RR20_4_026:
	BYTE	W12
	BYTE		N11     Fs3   v096
	BYTE	W12
	BYTE		N11   
	BYTE	W12
	BYTE		N11   
	BYTE	W12
	BYTE		N11   
	BYTE	W12
	BYTE		N11   
	BYTE	W12
	BYTE		N11   
	BYTE	W12
	BYTE		N11   
	BYTE	W12
	BYTE	PEND
// 027   ----------------------------------------
	BYTE		N11   
	BYTE	W12
	BYTE		N11   
	BYTE	W12
	BYTE		N11   
	BYTE	W12
	BYTE		N68     An3 
	BYTE	W60
// 028   ----------------------------------------
	BYTE	PATT
	 POIN2	RR20_4_026
// 029   ----------------------------------------
	BYTE		N11     Fs3   v096
	BYTE	W12
	BYTE		N11   
	BYTE	W12
	BYTE		N11   
	BYTE	W12
	BYTE		N11   
	BYTE	W12
	BYTE		N23     An3 
	BYTE	W24
	BYTE		N11     Fs3 
	BYTE	W12
	BYTE		N11   
	BYTE	W12
// 030   ----------------------------------------
RR20_4_030:
	BYTE		N11     Fs3   v096
	BYTE	W12
	BYTE		N11   
	BYTE	W12
	BYTE		N11   
	BYTE	W12
	BYTE		N11   
	BYTE	W12
	BYTE		N11   
	BYTE	W12
	BYTE		N11   
	BYTE	W12
	BYTE		N11   
	BYTE	W12
	BYTE		N11   
	BYTE	W12
	BYTE	PEND
// 031   ----------------------------------------
	BYTE		N11   
	BYTE	W12
	BYTE		N11   
	BYTE	W12
	BYTE		N11   
	BYTE	W12
	BYTE		N11   
	BYTE	W12
	BYTE		N44     Cn4 
	BYTE	W48
// 032   ----------------------------------------
	BYTE	PATT
	 POIN2	RR20_4_026
// 033   ----------------------------------------
	BYTE	PATT
	 POIN2	RR20_4_030
// 034   ----------------------------------------
	BYTE		N23     Fs3   v096
	BYTE	W24
	BYTE		N23   
	BYTE	W24
	BYTE		N23   
	BYTE	W24
	BYTE		N11   
	BYTE	W12
	BYTE		N11   
	BYTE	W12
// 035   ----------------------------------------
	BYTE		N11   
	BYTE	W12
	BYTE		N11   
	BYTE	W12
	BYTE		N23   
	BYTE	W24
	BYTE		N32   
	BYTE	W36
	BYTE		N11   
	BYTE	W12
// 036   ----------------------------------------
	BYTE		N11   
	BYTE	W12
	BYTE		N11   
	BYTE	W12
	BYTE		N11   
	BYTE	W12
	BYTE		N11   
	BYTE	W12
	BYTE		N23   
	BYTE	W24
	BYTE		N11   
	BYTE	W12
	BYTE		N11   
	BYTE	W12
// 037   ----------------------------------------
	BYTE		N11   
	BYTE	W12
	BYTE		N11   
	BYTE	W12
	BYTE		N23   
	BYTE	W24
	BYTE		N23   
	BYTE	W24
	BYTE		N11   
	BYTE	W12
	BYTE		N11   
	BYTE	W12
// 038   ----------------------------------------
	BYTE		        Gn3 
	BYTE	W12
	BYTE		        Fs3 
	BYTE	W12
	BYTE		        Fn3 
	BYTE	W12
	BYTE		        En3 
	BYTE	W12
	BYTE		        Dn3 
	BYTE	W12
	BYTE		        Cs3 
	BYTE	W12
	BYTE		        Cn3 
	BYTE	W12
	BYTE		        Bn2 
	BYTE	W12
// 039   ----------------------------------------
	BYTE		        Cn3 
	BYTE	W12
	BYTE		        Cs3 
	BYTE	W12
	BYTE		        Dn3 
	BYTE	W12
	BYTE		        Cs3 
	BYTE	W12
	BYTE		        Cn3 
	BYTE	W12
	BYTE		        Bn2 
	BYTE	W12
	BYTE		        Fn2 
	BYTE	W12
	BYTE		N56     En2 
	BYTE	W12
// 040   ----------------------------------------
	BYTE	W72
	BYTE		N11     Bn3 
	BYTE	W12
	BYTE		        Cs4 
	BYTE	W12
// 041   ----------------------------------------
	BYTE		N23     Dn4 
	BYTE	W24
	BYTE		        Cs4 
	BYTE	W24
	BYTE		N11     Bn3 
	BYTE	W12
	BYTE		N23     Cs4 
	BYTE	W24
	BYTE		N44     Bn3 
	BYTE	W12
// 042   ----------------------------------------
	BYTE	W36
	BYTE		TIE     Fs3 
	BYTE	W60
// 043   ----------------------------------------
	BYTE	W68
	BYTE	W03
	BYTE		EOT   
	BYTE	W24
	BYTE	W01
// 044   ----------------------------------------
	BYTE	W72
	BYTE		N11     Cs4 
	BYTE	W24
// 045   ----------------------------------------
	BYTE		N23     Dn4 
	BYTE	W36
	BYTE		        Bn3 
	BYTE	W24
	BYTE		        Cs4 
	BYTE	W24
	BYTE		TIE     Bn3 
	BYTE	W12
// 046   ----------------------------------------
	BYTE	W92
	BYTE	W03
	BYTE		EOT   
	BYTE	W01
// 047   ----------------------------------------
	BYTE	W96
// 048   ----------------------------------------
	BYTE	W24
	BYTE		N23   
	BYTE	W24
	BYTE		N11   
	BYTE	W12
	BYTE		N23     Cs4 
	BYTE	W24
	BYTE		        Dn4 
	BYTE	W12
// 049   ----------------------------------------
	BYTE	W12
	BYTE		        Cs4 
	BYTE	W24
	BYTE		        Bn3 
	BYTE	W24
	BYTE		        Cs4 
	BYTE	W24
	BYTE		N56     Bn3 
	BYTE	W12
// 050   ----------------------------------------
	BYTE	W48
	BYTE		N80     Fs3 
	BYTE	W48
// 051   ----------------------------------------
	BYTE	W36
	BYTE		N11   
	BYTE	W12
	BYTE		N23   
	BYTE	W24
	BYTE		N11   
	BYTE	W12
	BYTE		TIE     Gn3 
	BYTE	W12
// 052   ----------------------------------------
	BYTE	W96
// 053   ----------------------------------------
	BYTE	W44
	BYTE	W03
	BYTE		EOT   
	BYTE	W48
	BYTE	W01
// 054   ----------------------------------------
	BYTE	W96
// 055   ----------------------------------------
	BYTE	W84
	BYTE		N44     En4 
	BYTE	W12
// 056   ----------------------------------------
	BYTE	W36
	BYTE		        Ds4 
	BYTE	W48
	BYTE		        Bn3 
	BYTE	W12
// 057   ----------------------------------------
	BYTE	W36
	BYTE		        Gn3 
	BYTE	W60
// 058   ----------------------------------------
RR20_4_058:
	BYTE		N11     Fs3   v096
	BYTE	W12
	BYTE		        Gn3 
	BYTE	W12
	BYTE		        Fs3 
	BYTE	W12
	BYTE		        Gn3 
	BYTE	W12
	BYTE		        Fs3 
	BYTE	W12
	BYTE		        Gn3 
	BYTE	W12
	BYTE		        Fs3 
	BYTE	W12
	BYTE		        Gn3 
	BYTE	W12
	BYTE	PEND
// 059   ----------------------------------------
	BYTE	PATT
	 POIN2	RR20_4_058
// 060   ----------------------------------------
	BYTE	PATT
	 POIN2	RR20_4_058
// 061   ----------------------------------------
	BYTE		N11     Fs3   v096
	BYTE	W12
	BYTE		        Gn3 
	BYTE	W12
	BYTE		        Fs3 
	BYTE	W12
	BYTE		N11   
	BYTE		N11     Gn3 
	BYTE	W12
	BYTE		N44     Fs3 
	BYTE	W48
RR20_4_B1:
// 062   ----------------------------------------
	BYTE	W96
// 063   ----------------------------------------
	BYTE	W84
	BYTE		N92     Fs3   v096
	BYTE	W12
// 064   ----------------------------------------
	BYTE	W84
	BYTE		        En3 
	BYTE	W12
// 065   ----------------------------------------
	BYTE	W84
	BYTE		        Bn3 
	BYTE	W12
// 066   ----------------------------------------
	BYTE	W84
	BYTE		N56     Fs3 
	BYTE	W12
// 067   ----------------------------------------
	BYTE	W48
	BYTE		N11     Bn3 
	BYTE	W12
	BYTE		N23     Cs4 
	BYTE	W24
	BYTE		N68     Dn4 
	BYTE	W12
// 068   ----------------------------------------
	BYTE	W60
	BYTE		N11     Cs4 
	BYTE	W24
	BYTE		N44     Bn3 
	BYTE	W12
// 069   ----------------------------------------
	BYTE	W48
	BYTE		N11     Cs4 
	BYTE	W12
	BYTE		N23     Dn4 
	BYTE	W21
	BYTE		N02     Bn3 
	BYTE	W03
	BYTE		N92     Cs4 
	BYTE	W12
// 070   ----------------------------------------
	BYTE	W84
	BYTE		        An3 
	BYTE	W12
// 071   ----------------------------------------
	BYTE	W84
	BYTE		        Fs3 
	BYTE	W12
// 072   ----------------------------------------
	BYTE	W84
	BYTE		        An3 
	BYTE	W12
// 073   ----------------------------------------
	BYTE	W84
	BYTE		        Bn3 
	BYTE	W12
// 074   ----------------------------------------
	BYTE	W84
	BYTE		N56     Cs4 
	BYTE	W12
// 075   ----------------------------------------
	BYTE	W48
	BYTE		N11     Bn3 
	BYTE	W12
	BYTE		N23     Cs4 
	BYTE	W24
	BYTE		        Dn4 
	BYTE	W12
// 076   ----------------------------------------
	BYTE	W12
	BYTE		        Cs4 
	BYTE	W24
	BYTE		N23   
	BYTE	W24
	BYTE		        Bn3 
	BYTE	W24
	BYTE		N23   
	BYTE	W12
// 077   ----------------------------------------
	BYTE	W12
	BYTE		        Fs3 
	BYTE	W24
	BYTE		        Bn3 
	BYTE	W24
	BYTE		        Cs4 
	BYTE	W24
	BYTE		        Dn4 
	BYTE	W12
// 078   ----------------------------------------
	BYTE	W12
	BYTE		        Cs4 
	BYTE	W24
	BYTE		        Bn3 
	BYTE	W24
	BYTE		        An3 
	BYTE	W24
	BYTE		N44     Cs4 
	BYTE	W12
// 079   ----------------------------------------
	BYTE	W36
	BYTE		N32   
	BYTE	W36
	BYTE		N11     Bn3 
	BYTE	W12
	BYTE		N32     Bn1 
	BYTE		N32     Fs2 
	BYTE	W12
// 080   ----------------------------------------
	BYTE	W96
// 081   ----------------------------------------
RR20_4_081:
	BYTE	W84
	BYTE		N32     Bn1   v096
	BYTE		N32     Fs2 
	BYTE	W12
	BYTE	PEND
// 082   ----------------------------------------
	BYTE	W96
// 083   ----------------------------------------
	BYTE	PATT
	 POIN2	RR20_4_081
// 084   ----------------------------------------
	BYTE	W96
// 085   ----------------------------------------
	BYTE	PATT
	 POIN2	RR20_4_081
// 086   ----------------------------------------
RR20_4_086:
	BYTE	W84
	BYTE		N32     Fs1   v096
	BYTE		N32     Cs2 
	BYTE	W12
	BYTE	PEND
// 087   ----------------------------------------
	BYTE	W36
	BYTE		N23     Gn1 
	BYTE		N23     Dn2 
	BYTE	W48
	BYTE		N32     Bn1 
	BYTE		N32     Fs2 
	BYTE	W12
// 088   ----------------------------------------
	BYTE	W96
// 089   ----------------------------------------
	BYTE	PATT
	 POIN2	RR20_4_081
// 090   ----------------------------------------
	BYTE	W96
// 091   ----------------------------------------
	BYTE	W84
	BYTE		N32     Gn1   v096
	BYTE		N32     Dn2 
	BYTE	W12
// 092   ----------------------------------------
	BYTE	W96
// 093   ----------------------------------------
	BYTE	W84
	BYTE		        En1 
	BYTE		N32     Bn1 
	BYTE	W12
// 094   ----------------------------------------
	BYTE	PATT
	 POIN2	RR20_4_086
// 095   ----------------------------------------
	BYTE	W36
	BYTE		N44     Gn1   v096
	BYTE		N44     Dn2 
	BYTE	W48
	BYTE		N23     Bn1 
	BYTE		N23     Fs2 
	BYTE	W12
// 096   ----------------------------------------
RR20_4_096:
	BYTE	W12
	BYTE		N11     Bn1   v096
	BYTE	W12
	BYTE		N11   
	BYTE	W12
	BYTE		N11   
	BYTE	W12
	BYTE		N11   
	BYTE	W12
	BYTE		N11   
	BYTE	W12
	BYTE		N11   
	BYTE	W12
	BYTE		N11   
	BYTE	W12
	BYTE	PEND
// 097   ----------------------------------------
	BYTE		N11   
	BYTE	W12
	BYTE		N11   
	BYTE	W12
	BYTE		N11   
	BYTE	W12
	BYTE		N11   
	BYTE	W12
	BYTE		N11   
	BYTE	W12
	BYTE		N11   
	BYTE	W12
	BYTE		N11   
	BYTE	W12
	BYTE		N23   
	BYTE		N23     Fs2 
	BYTE	W12
// 098   ----------------------------------------
	BYTE	PATT
	 POIN2	RR20_4_096
// 099   ----------------------------------------
	BYTE		N11     Bn1   v096
	BYTE	W12
	BYTE		N11   
	BYTE	W12
	BYTE		N11   
	BYTE	W12
	BYTE		N11   
	BYTE	W12
	BYTE		N11   
	BYTE	W12
	BYTE		N11   
	BYTE	W12
	BYTE		N11   
	BYTE	W12
	BYTE		N23     Gn1 
	BYTE		N23     Dn2 
	BYTE	W12
// 100   ----------------------------------------
RR20_4_100:
	BYTE	W12
	BYTE		N11     Gn1   v096
	BYTE	W12
	BYTE		N11   
	BYTE	W12
	BYTE		N11   
	BYTE	W12
	BYTE		N11   
	BYTE	W12
	BYTE		N11   
	BYTE	W12
	BYTE		N11   
	BYTE	W12
	BYTE		N11   
	BYTE	W12
	BYTE	PEND
// 101   ----------------------------------------
	BYTE		N11   
	BYTE	W12
	BYTE		N11   
	BYTE	W12
	BYTE		N11   
	BYTE	W12
	BYTE		N11   
	BYTE	W12
	BYTE		N11   
	BYTE	W12
	BYTE		N11   
	BYTE	W12
	BYTE		N11   
	BYTE	W12
	BYTE		N23     En1 
	BYTE		N23     Bn1 
	BYTE	W12
// 102   ----------------------------------------
	BYTE	W12
	BYTE		N11     En1 
	BYTE	W12
	BYTE		N11   
	BYTE	W12
	BYTE		N23     Fs1 
	BYTE		N23     Cs2 
	BYTE	W24
	BYTE		N11     Fs1 
	BYTE	W12
	BYTE		N11   
	BYTE	W12
	BYTE		N23     Gn1 
	BYTE		N23     Dn2 
	BYTE	W12
// 103   ----------------------------------------
	BYTE	W12
	BYTE		N11   
	BYTE	W24
	BYTE		N23     Cn2 
	BYTE	W24
	BYTE		N11     Bn1 
	BYTE	W12
	BYTE		        An1 
	BYTE	W12
	BYTE		N23     Bn1 
	BYTE		N23     Fs2 
	BYTE	W12
// 104   ----------------------------------------
	BYTE	PATT
	 POIN2	RR20_4_096
// 105   ----------------------------------------
	BYTE		N11     Bn1   v096
	BYTE	W12
	BYTE		N11   
	BYTE	W12
	BYTE		N11   
	BYTE	W12
	BYTE		N11   
	BYTE	W12
	BYTE		N11   
	BYTE	W12
	BYTE		N11   
	BYTE	W12
	BYTE		        An1 
	BYTE		N11     En2 
	BYTE	W12
	BYTE		N23     Bn1 
	BYTE		N23     Fs2 
	BYTE	W12
// 106   ----------------------------------------
	BYTE	PATT
	 POIN2	RR20_4_096
// 107   ----------------------------------------
	BYTE		N11     Bn1   v096
	BYTE	W12
	BYTE		N11   
	BYTE	W12
	BYTE		N11   
	BYTE	W12
	BYTE		N11   
	BYTE	W12
	BYTE		N11   
	BYTE	W12
	BYTE		N11   
	BYTE	W12
	BYTE		        An1 
	BYTE	W12
	BYTE		N23     Gn1 
	BYTE		N23     Dn2 
	BYTE	W12
// 108   ----------------------------------------
	BYTE	PATT
	 POIN2	RR20_4_100
// 109   ----------------------------------------
	BYTE		N11     Gn1   v096
	BYTE	W12
	BYTE		N11   
	BYTE	W12
	BYTE		N11   
	BYTE	W12
	BYTE		N11   
	BYTE	W12
	BYTE		N11   
	BYTE	W12
	BYTE		N11   
	BYTE	W12
	BYTE		N11   
	BYTE	W24
// 110   ----------------------------------------
	BYTE		        Gn2 
	BYTE	W12
	BYTE		        Fs2 
	BYTE	W12
	BYTE		        Fn2 
	BYTE	W12
	BYTE		        En2 
	BYTE	W12
	BYTE		        Dn2 
	BYTE	W12
	BYTE		        Cs2 
	BYTE	W12
	BYTE		        Cn2 
	BYTE	W12
	BYTE		        Bn1 
	BYTE	W12
// 111   ----------------------------------------
	BYTE		        Cn2 
	BYTE	W12
	BYTE		        Cs2 
	BYTE	W12
	BYTE		        Dn2 
	BYTE	W12
	BYTE		        Cs2 
	BYTE	W12
	BYTE		        Cn2 
	BYTE	W12
	BYTE		        Bn1 
	BYTE	W12
	BYTE		        Fn1 
	BYTE	W12
	BYTE		N32     En1 
	BYTE	W12
// 112   ----------------------------------------
	BYTE	W24
	BYTE		N11   
	BYTE	W12
	BYTE		N11   
	BYTE	W12
	BYTE		N11   
	BYTE	W12
	BYTE		N11   
	BYTE	W12
	BYTE		N11   
	BYTE	W12
	BYTE		N11   
	BYTE	W12
// 113   ----------------------------------------
	BYTE		        Gn1 
	BYTE		N11     Dn2 
	BYTE	W12
	BYTE		        Gn1 
	BYTE		N11     Dn2 
	BYTE	W12
	BYTE		        Gn1 
	BYTE		N11     Dn2 
	BYTE	W12
	BYTE		        Gn1 
	BYTE		N11     Dn2 
	BYTE	W12
	BYTE		        Fs1 
	BYTE		N11     Cn2 
	BYTE	W12
	BYTE		        Fs1 
	BYTE		N11     Cn2 
	BYTE	W12
	BYTE		        Fs1 
	BYTE		N11     Cn2 
	BYTE	W12
	BYTE		N23     Bn1 
	BYTE		N23     Fs2 
	BYTE	W12
// 114   ----------------------------------------
RR20_4_114:
	BYTE	W12
	BYTE		N11     Bn1   v096
	BYTE		N11     Fs2 
	BYTE	W12
	BYTE		        Bn1 
	BYTE		N11     Fs2 
	BYTE	W12
	BYTE		        Bn1 
	BYTE		N11     Fs2 
	BYTE	W12
	BYTE		        Bn1 
	BYTE		N11     Fs2 
	BYTE	W12
	BYTE		        Bn1 
	BYTE		N11     Fs2 
	BYTE	W12
	BYTE		        Bn1 
	BYTE		N11     Fs2 
	BYTE	W12
	BYTE		        Bn1 
	BYTE		N11     Fs2 
	BYTE	W12
	BYTE	PEND
// 115   ----------------------------------------
	BYTE		        Bn1 
	BYTE		N11     Fs2 
	BYTE	W12
	BYTE		        Bn1 
	BYTE		N11     Fs2 
	BYTE	W12
	BYTE		        Bn1 
	BYTE		N11     Fs2 
	BYTE	W12
	BYTE		        Bn1 
	BYTE		N11     Fs2 
	BYTE	W12
	BYTE		        Dn2 
	BYTE		N11     An2 
	BYTE	W12
	BYTE		        Dn2 
	BYTE		N11     An2 
	BYTE	W12
	BYTE		        Dn2 
	BYTE		N11     An2 
	BYTE	W12
	BYTE		N23     En1 
	BYTE		N23     Bn1 
	BYTE	W12
// 116   ----------------------------------------
	BYTE	W12
	BYTE		N11     En1 
	BYTE		N11     Bn1 
	BYTE	W12
	BYTE		        En1 
	BYTE		N11     Bn1 
	BYTE	W12
	BYTE		        En1 
	BYTE		N11     Bn1 
	BYTE	W12
	BYTE		        En1 
	BYTE		N11     Bn1 
	BYTE	W12
	BYTE		        En1 
	BYTE		N11     Bn1 
	BYTE	W12
	BYTE		        Gn1 
	BYTE		N11     Dn2 
	BYTE	W12
	BYTE		        Gn1 
	BYTE		N11     Dn2 
	BYTE	W12
// 117   ----------------------------------------
RR20_4_117:
	BYTE		N11     Gn1   v096
	BYTE		N11     Dn2 
	BYTE	W12
	BYTE		        Gn1 
	BYTE		N11     Dn2 
	BYTE	W12
	BYTE		        Gn1 
	BYTE		N11     Dn2 
	BYTE	W12
	BYTE		        Fs1 
	BYTE		N11     Cs2 
	BYTE	W12
	BYTE		        Fs1 
	BYTE		N11     Cs2 
	BYTE	W12
	BYTE		        Fs1 
	BYTE		N11     Cs2 
	BYTE	W12
	BYTE		        Fs1 
	BYTE		N11     Cs2 
	BYTE	W12
	BYTE		N23     Bn1 
	BYTE		N23     Fs2 
	BYTE	W12
	BYTE	PEND
// 118   ----------------------------------------
	BYTE	W12
	BYTE		N11     Dn2 
	BYTE		N11     An2 
	BYTE	W12
	BYTE		        Dn2 
	BYTE		N11     An2 
	BYTE	W12
	BYTE		N23     Bn1 
	BYTE		N23     Fs2 
	BYTE	W24
	BYTE		N11     Dn2 
	BYTE		N11     An2 
	BYTE	W12
	BYTE		        Dn2 
	BYTE		N11     An2 
	BYTE	W12
	BYTE		N23     Bn1 
	BYTE		N23     Fs2 
	BYTE	W12
// 119   ----------------------------------------
	BYTE	W12
	BYTE		N11     Dn2 
	BYTE		N11     An2 
	BYTE	W12
	BYTE		        Dn2 
	BYTE		N11     An2 
	BYTE	W12
	BYTE		N23     Bn1 
	BYTE		N23     Fs2 
	BYTE	W24
	BYTE		N11     Dn2 
	BYTE		N11     An2 
	BYTE	W12
	BYTE		        Dn2 
	BYTE		N11     An2 
	BYTE	W12
	BYTE		N23     En1 
	BYTE		N23     Bn1 
	BYTE	W12
// 120   ----------------------------------------
	BYTE	W12
	BYTE		N11     En1 
	BYTE		N11     Bn1 
	BYTE	W12
	BYTE		        En1 
	BYTE		N11     Bn1 
	BYTE	W12
	BYTE		        En1 
	BYTE		N11     Bn1 
	BYTE	W12
	BYTE		        En1 
	BYTE		N11     Bn1 
	BYTE	W12
	BYTE		        En1 
	BYTE		N11     Bn1 
	BYTE	W12
	BYTE		        En1 
	BYTE		N11     Bn1 
	BYTE	W12
	BYTE		        Gn1 
	BYTE		N11     Dn2 
	BYTE	W12
// 121   ----------------------------------------
	BYTE	PATT
	 POIN2	RR20_4_117
// 122   ----------------------------------------
	BYTE	PATT
	 POIN2	RR20_4_114
// 123   ----------------------------------------
	BYTE		N11     Bn1   v096
	BYTE		N11     Fs2 
	BYTE	W12
	BYTE		        Bn1 
	BYTE		N11     Fs2 
	BYTE	W12
	BYTE		        Bn1 
	BYTE		N11     Fs2 
	BYTE	W12
	BYTE		        Bn1 
	BYTE		N11     Fs2 
	BYTE	W12
	BYTE		        Bn1 
	BYTE		N11     Fs2 
	BYTE	W12
	BYTE		        An1 
	BYTE		N11     En2 
	BYTE	W12
	BYTE		        Bn1 
	BYTE		N11     Fs2 
	BYTE	W12
	BYTE		N23     Cn2 
	BYTE		N23     Gn2 
	BYTE	W12
// 124   ----------------------------------------
	BYTE	W12
	BYTE		N11     Cn2 
	BYTE		N11     Gn2 
	BYTE	W12
	BYTE		        Cn2 
	BYTE		N11     Gn2 
	BYTE	W12
	BYTE		        Cn2 
	BYTE		N11     Gn2 
	BYTE	W12
	BYTE		        Cn2 
	BYTE		N11     Gn2 
	BYTE	W12
	BYTE		        Cn2 
	BYTE		N11     Gn2 
	BYTE	W12
	BYTE		        Cn2 
	BYTE		N11     Gn2 
	BYTE	W12
	BYTE		        Cn2 
	BYTE		N11     Gn2 
	BYTE	W12
// 125   ----------------------------------------
	BYTE		        Cn2 
	BYTE		N11     Gn2 
	BYTE	W12
	BYTE		        Cn2 
	BYTE		N11     Gn2 
	BYTE	W12
	BYTE		        Cn2 
	BYTE		N11     Gn2 
	BYTE	W12
	BYTE		        Cn2 
	BYTE		N11     Gn2 
	BYTE	W12
	BYTE		        Cn2 
	BYTE		N11     Gn2 
	BYTE	W12
	BYTE		        Cn2 
	BYTE		N11     Gn2 
	BYTE	W12
	BYTE		        Cn2 
	BYTE		N11     Gn2 
	BYTE	W12
	BYTE		N23     Cn2 
	BYTE		N23     Cn3 
	BYTE	W12
// 126   ----------------------------------------
	BYTE	W12
	BYTE		N11     Cn2 
	BYTE		N11     Cn3 
	BYTE	W12
	BYTE		        Ds2 
	BYTE		N11     Ds3 
	BYTE	W12
	BYTE		        Ds2 
	BYTE		N11     Ds3 
	BYTE	W12
	BYTE		        Ds2 
	BYTE		N11     Ds3 
	BYTE	W12
	BYTE		        Ds2 
	BYTE		N11     Ds3 
	BYTE	W12
	BYTE		        Ds2 
	BYTE		N11     Ds3 
	BYTE	W12
	BYTE		        Gn2 
	BYTE		N11     Gn3 
	BYTE	W12
// 127   ----------------------------------------
	BYTE		        Gn2 
	BYTE		N11     Gn3 
	BYTE	W12
	BYTE		        Gn2 
	BYTE		N11     Gn3 
	BYTE	W12
	BYTE		        Gn2 
	BYTE		N11     Gn3 
	BYTE	W12
	BYTE		        Fs2 
	BYTE		N11     Gn3 
	BYTE	W12
	BYTE		        Fs2 
	BYTE		N11     Fs3 
	BYTE	W12
	BYTE		        Fs2 
	BYTE		N11     Fs3 
	BYTE	W12
	BYTE		        Fs2 
	BYTE		N11     Fs3 
	BYTE	W12
	BYTE		N23     Cn2 
	BYTE		N23     Cn3 
	BYTE	W12
// 128   ----------------------------------------
	BYTE	W12
	BYTE		N11     Cn2 
	BYTE		N11     Cn3 
	BYTE	W12
	BYTE		        Cn2 
	BYTE		N11     Cn3 
	BYTE	W12
	BYTE		        Ds2 
	BYTE		N11     Ds3 
	BYTE	W12
	BYTE		        Ds2 
	BYTE		N11     Ds3 
	BYTE	W12
	BYTE		        Ds2 
	BYTE		N11     Ds3 
	BYTE	W12
	BYTE		        Ds2 
	BYTE		N11     Ds3 
	BYTE	W12
	BYTE		        Gn2 
	BYTE		N11     Gn3 
	BYTE	W12
// 129   ----------------------------------------
	BYTE		        Gn2 
	BYTE		N11     Gn3 
	BYTE	W12
	BYTE		        Gn2 
	BYTE		N11     Gn3 
	BYTE	W12
	BYTE		        Fs2 
	BYTE		N11     Fs3 
	BYTE	W12
	BYTE		        Fs2 
	BYTE		N11     Fs3 
	BYTE	W12
	BYTE		        Fs2 
	BYTE		N11     Fs3 
	BYTE	W12
	BYTE		        Fs2 
	BYTE		N11     Fs3 
	BYTE	W12
	BYTE		        Fs2 
	BYTE		N11     Fs3 
	BYTE	W24
// 130   ----------------------------------------
RR20_4_130:
	BYTE		N11     Fs2   v096
	BYTE		N11     Fs3 
	BYTE	W12
	BYTE		        Gn2 
	BYTE		N11     Gn3 
	BYTE	W12
	BYTE		        Fs2 
	BYTE		N11     Fs3 
	BYTE	W12
	BYTE		        Gn2 
	BYTE		N11     Gn3 
	BYTE	W12
	BYTE		        Fs2 
	BYTE		N11     Fs3 
	BYTE	W12
	BYTE		        Gn2 
	BYTE		N11     Gn3 
	BYTE	W12
	BYTE		        Fs2 
	BYTE		N11     Fs3 
	BYTE	W12
	BYTE		        Gn2 
	BYTE		N11     Gn3 
	BYTE	W12
	BYTE	PEND
// 131   ----------------------------------------
	BYTE	PATT
	 POIN2	RR20_4_130
// 132   ----------------------------------------
	BYTE	PATT
	 POIN2	RR20_4_130
// 133   ----------------------------------------
	BYTE		N11     Fs2   v096
	BYTE		N11     Fs3 
	BYTE	W12
	BYTE		        Gn2 
	BYTE		N11     Gn3 
	BYTE	W12
	BYTE		        Fs2 
	BYTE		N11     Fs3 
	BYTE	W12
	BYTE		        Gn2 
	BYTE		N11     Gn3 
	BYTE	W12
	BYTE		N23     Fs2 
	BYTE		N23     Fs3 
	BYTE	W48
// 134   ----------------------------------------
	BYTE	W96
// 135   ----------------------------------------
	BYTE	W84
	BYTE		        Bn1 
	BYTE		N23     Fs2 
	BYTE	W12
// 136   ----------------------------------------
	BYTE	PATT
	 POIN2	RR20_4_114
// 137   ----------------------------------------
RR20_4_137:
	BYTE		N11     Bn1   v096
	BYTE		N11     Fs2 
	BYTE	W12
	BYTE		        Bn1 
	BYTE		N11     Fs2 
	BYTE	W12
	BYTE		        Bn1 
	BYTE		N11     Fs2 
	BYTE	W12
	BYTE		        Bn1 
	BYTE		N11     Fs2 
	BYTE	W12
	BYTE		        Bn1 
	BYTE		N11     Fs2 
	BYTE	W12
	BYTE		        Bn1 
	BYTE		N11     Fs2 
	BYTE	W12
	BYTE		        Bn1 
	BYTE		N11     Fs2 
	BYTE	W12
	BYTE		N23     Gn1 
	BYTE		N23     Dn2 
	BYTE	W12
	BYTE	PEND
// 138   ----------------------------------------
RR20_4_138:
	BYTE	W12
	BYTE		N11     Gn1   v096
	BYTE		N11     Dn2 
	BYTE	W12
	BYTE		        Gn1 
	BYTE		N11     Dn2 
	BYTE	W12
	BYTE		        Gn1 
	BYTE		N11     Dn2 
	BYTE	W12
	BYTE		        Gn1 
	BYTE		N11     Dn2 
	BYTE	W12
	BYTE		        Gn1 
	BYTE		N11     Dn2 
	BYTE	W12
	BYTE		        Gn1 
	BYTE		N11     Dn2 
	BYTE	W12
	BYTE		        Gn1 
	BYTE		N11     Dn2 
	BYTE	W12
	BYTE	PEND
// 139   ----------------------------------------
RR20_4_139:
	BYTE		N11     Gn1   v096
	BYTE		N11     Dn2 
	BYTE	W12
	BYTE		        Gn1 
	BYTE		N11     Dn2 
	BYTE	W12
	BYTE		        Gn1 
	BYTE		N11     Dn2 
	BYTE	W12
	BYTE		        Gn1 
	BYTE		N11     Dn2 
	BYTE	W12
	BYTE		        Gn1 
	BYTE		N11     Dn2 
	BYTE	W12
	BYTE		        Gn1 
	BYTE		N11     Dn2 
	BYTE	W12
	BYTE		        Gn1 
	BYTE		N11     Dn2 
	BYTE	W12
	BYTE		N23     En1 
	BYTE		N23     Bn1 
	BYTE	W12
	BYTE	PEND
// 140   ----------------------------------------
RR20_4_140:
	BYTE	W12
	BYTE		N11     En1   v096
	BYTE		N11     Bn1 
	BYTE	W12
	BYTE		        En1 
	BYTE		N11     Bn1 
	BYTE	W12
	BYTE		        En1 
	BYTE		N11     Bn1 
	BYTE	W12
	BYTE		        En1 
	BYTE		N11     Bn1 
	BYTE	W12
	BYTE		        En1 
	BYTE		N11     Bn1 
	BYTE	W12
	BYTE		        En1 
	BYTE		N11     Bn1 
	BYTE	W12
	BYTE		        En1 
	BYTE		N11     Bn1 
	BYTE	W12
	BYTE	PEND
// 141   ----------------------------------------
RR20_4_141:
	BYTE		N11     En1   v096
	BYTE		N11     Bn1 
	BYTE	W12
	BYTE		        En1 
	BYTE		N11     Bn1 
	BYTE	W12
	BYTE		        En1 
	BYTE		N11     Bn1 
	BYTE	W12
	BYTE		        En1 
	BYTE		N11     Bn1 
	BYTE	W12
	BYTE		        En1 
	BYTE		N11     Bn1 
	BYTE	W12
	BYTE		        En1 
	BYTE		N11     Bn1 
	BYTE	W12
	BYTE		        En1 
	BYTE		N11     Bn1 
	BYTE	W12
	BYTE		N23     Fs1 
	BYTE		N23     Cs2 
	BYTE	W12
	BYTE	PEND
// 142   ----------------------------------------
RR20_4_142:
	BYTE	W12
	BYTE		N11     Fs1   v096
	BYTE		N11     Cs2 
	BYTE	W12
	BYTE		        Fs1 
	BYTE		N11     Cs2 
	BYTE	W12
	BYTE		        Fs1 
	BYTE		N11     Cs2 
	BYTE	W12
	BYTE		        Fs1 
	BYTE		N11     Cs2 
	BYTE	W12
	BYTE		        Fs1 
	BYTE		N11     Cs2 
	BYTE	W12
	BYTE		        Fs1 
	BYTE		N11     Cs2 
	BYTE	W12
	BYTE		        Fs1 
	BYTE		N11     Cs2 
	BYTE	W12
	BYTE	PEND
// 143   ----------------------------------------
RR20_4_143:
	BYTE		N11     Gn1   v096
	BYTE		N11     Dn2 
	BYTE	W12
	BYTE		        Gn1 
	BYTE		N11     Dn2 
	BYTE	W12
	BYTE		        Gn1 
	BYTE		N11     Dn2 
	BYTE	W12
	BYTE		        An1 
	BYTE		N11     En2 
	BYTE	W12
	BYTE		        An1 
	BYTE		N11     En2 
	BYTE	W12
	BYTE		        An1 
	BYTE		N11     En2 
	BYTE	W12
	BYTE		        An1 
	BYTE		N11     En2 
	BYTE	W12
	BYTE		N23     Bn1 
	BYTE		N23     Fs2 
	BYTE	W12
	BYTE	PEND
// 144   ----------------------------------------
	BYTE	PATT
	 POIN2	RR20_4_114
// 145   ----------------------------------------
	BYTE	PATT
	 POIN2	RR20_4_137
// 146   ----------------------------------------
	BYTE	PATT
	 POIN2	RR20_4_138
// 147   ----------------------------------------
	BYTE	PATT
	 POIN2	RR20_4_139
// 148   ----------------------------------------
	BYTE	PATT
	 POIN2	RR20_4_140
// 149   ----------------------------------------
	BYTE	PATT
	 POIN2	RR20_4_141
// 150   ----------------------------------------
	BYTE	PATT
	 POIN2	RR20_4_142
// 151   ----------------------------------------
	BYTE	PATT
	 POIN2	RR20_4_143
	BYTE	GoTo
	 POIN2	RR20_4_B1
RR20_4_B2:
// 152   ----------------------------------------
	BYTE	W44
	BYTE	W03
	BYTE	FINE

//**************** Track 5 (Midi-Chn.5) ****************//

RR20_5:
	BYTE	KEYSH   RR20_key+0
// 000   ----------------------------------------
	BYTE		VOICE   30
	BYTE		VOL     127*RR20_mvl/mxv
	BYTE		PAN     c_v+0
	BYTE	W96
// 001   ----------------------------------------
	BYTE	W96
// 002   ----------------------------------------
	BYTE	W96
// 003   ----------------------------------------
	BYTE	W96
// 004   ----------------------------------------
	BYTE	W96
// 005   ----------------------------------------
	BYTE	W96
// 006   ----------------------------------------
	BYTE	W96
// 007   ----------------------------------------
	BYTE	W96
// 008   ----------------------------------------
RR20_5_008:
	BYTE		N11     En3   v096
	BYTE	W12
	BYTE		        Cs3 
	BYTE	W12
	BYTE		        En2 
	BYTE	W12
	BYTE		        Dn3 
	BYTE	W12
	BYTE		        An2 
	BYTE	W12
	BYTE		        En2 
	BYTE	W12
	BYTE		        Cs3 
	BYTE	W24
	BYTE	PEND
// 009   ----------------------------------------
RR20_5_009:
	BYTE		N11     Cs3   v096
	BYTE	W12
	BYTE		        An2 
	BYTE	W12
	BYTE		        En2 
	BYTE	W12
	BYTE		        Fs2 
	BYTE	W12
	BYTE		        En2 
	BYTE	W12
	BYTE		        Bn2 
	BYTE	W12
	BYTE		        An2 
	BYTE	W24
	BYTE	PEND
// 010   ----------------------------------------
	BYTE	PATT
	 POIN2	RR20_5_008
// 011   ----------------------------------------
RR20_5_011:
	BYTE		N11     Gn2   v096
	BYTE	W12
	BYTE		        Bn2 
	BYTE	W12
	BYTE		        Dn3 
	BYTE	W12
	BYTE		        Cs3 
	BYTE	W12
	BYTE		        An2 
	BYTE	W12
	BYTE		        En2 
	BYTE	W12
	BYTE		        Fs2 
	BYTE	W24
	BYTE	PEND
// 012   ----------------------------------------
RR20_5_012:
	BYTE		N11     En2   v096
	BYTE	W12
	BYTE		        An2 
	BYTE	W12
	BYTE		        Cs3 
	BYTE	W12
	BYTE		        An2 
	BYTE	W12
	BYTE		        En2 
	BYTE	W12
	BYTE		        An2 
	BYTE	W12
	BYTE		        Fs3 
	BYTE	W24
	BYTE	PEND
// 013   ----------------------------------------
RR20_5_013:
	BYTE		N11     En3   v096
	BYTE	W12
	BYTE		        Dn3 
	BYTE	W12
	BYTE		        Bn2 
	BYTE	W12
	BYTE		        Fs2 
	BYTE	W12
	BYTE		        Cs3 
	BYTE	W12
	BYTE		        Dn3 
	BYTE	W12
	BYTE		        Dn2 
	BYTE	W24
	BYTE	PEND
// 014   ----------------------------------------
RR20_5_014:
	BYTE		N11     Cs2   v096
	BYTE	W12
	BYTE		        Dn2 
	BYTE	W12
	BYTE		        En2 
	BYTE	W12
	BYTE		        Gn2 
	BYTE	W12
	BYTE		        Dn2 
	BYTE	W12
	BYTE		        En2 
	BYTE	W12
	BYTE		        Fs2 
	BYTE	W12
	BYTE		        Gn2 
	BYTE	W12
	BYTE	PEND
// 015   ----------------------------------------
RR20_5_015:
	BYTE		N11     An2   v096
	BYTE	W12
	BYTE		        Bn2 
	BYTE	W12
	BYTE		        Gn2 
	BYTE	W12
	BYTE		        Fs2 
	BYTE	W12
	BYTE		        En2 
	BYTE	W12
	BYTE		        An2 
	BYTE	W36
	BYTE	PEND
// 016   ----------------------------------------
	BYTE	PATT
	 POIN2	RR20_5_008
// 017   ----------------------------------------
	BYTE	PATT
	 POIN2	RR20_5_009
// 018   ----------------------------------------
	BYTE	PATT
	 POIN2	RR20_5_008
// 019   ----------------------------------------
	BYTE	PATT
	 POIN2	RR20_5_011
// 020   ----------------------------------------
	BYTE	PATT
	 POIN2	RR20_5_012
// 021   ----------------------------------------
	BYTE	PATT
	 POIN2	RR20_5_013
// 022   ----------------------------------------
	BYTE	PATT
	 POIN2	RR20_5_014
// 023   ----------------------------------------
	BYTE	PATT
	 POIN2	RR20_5_015
// 024   ----------------------------------------
	BYTE		N23     Fs3   v096
	BYTE	W24
	BYTE		N11   
	BYTE	W12
	BYTE		N11   
	BYTE	W12
	BYTE		N11   
	BYTE	W12
	BYTE		N11   
	BYTE	W12
	BYTE		N11   
	BYTE	W12
	BYTE		N11   
	BYTE	W12
// 025   ----------------------------------------
	BYTE		N11   
	BYTE	W12
	BYTE		N11   
	BYTE	W12
	BYTE		N11   
	BYTE	W12
	BYTE		N11   
	BYTE	W12
	BYTE		N56     An3 
	BYTE	W48
// 026   ----------------------------------------
RR20_5_026:
	BYTE	W12
	BYTE		N11     Fs3   v096
	BYTE	W12
	BYTE		N11   
	BYTE	W12
	BYTE		N11   
	BYTE	W12
	BYTE		N11   
	BYTE	W12
	BYTE		N11   
	BYTE	W12
	BYTE		N11   
	BYTE	W12
	BYTE		N11   
	BYTE	W12
	BYTE	PEND
// 027   ----------------------------------------
	BYTE		N11   
	BYTE	W12
	BYTE		N11   
	BYTE	W12
	BYTE		N11   
	BYTE	W12
	BYTE		N68     An3 
	BYTE	W60
// 028   ----------------------------------------
	BYTE	PATT
	 POIN2	RR20_5_026
// 029   ----------------------------------------
	BYTE		N11     Fs3   v096
	BYTE	W12
	BYTE		N11   
	BYTE	W12
	BYTE		N11   
	BYTE	W12
	BYTE		N11   
	BYTE	W12
	BYTE		N23     An3 
	BYTE	W24
	BYTE		N11     Fs3 
	BYTE	W12
	BYTE		N11   
	BYTE	W12
// 030   ----------------------------------------
RR20_5_030:
	BYTE		N11     Fs3   v096
	BYTE	W12
	BYTE		N11   
	BYTE	W12
	BYTE		N11   
	BYTE	W12
	BYTE		N11   
	BYTE	W12
	BYTE		N11   
	BYTE	W12
	BYTE		N11   
	BYTE	W12
	BYTE		N11   
	BYTE	W12
	BYTE		N11   
	BYTE	W12
	BYTE	PEND
// 031   ----------------------------------------
	BYTE		N11   
	BYTE	W12
	BYTE		N11   
	BYTE	W12
	BYTE		N11   
	BYTE	W12
	BYTE		N11   
	BYTE	W12
	BYTE		N44     Cn4 
	BYTE	W48
// 032   ----------------------------------------
	BYTE	PATT
	 POIN2	RR20_5_026
// 033   ----------------------------------------
	BYTE	PATT
	 POIN2	RR20_5_030
// 034   ----------------------------------------
	BYTE		N23     Fs3   v096
	BYTE	W24
	BYTE		N23   
	BYTE	W24
	BYTE		N23   
	BYTE	W24
	BYTE		N11   
	BYTE	W12
	BYTE		N11   
	BYTE	W12
// 035   ----------------------------------------
	BYTE		N11   
	BYTE	W12
	BYTE		N11   
	BYTE	W12
	BYTE		N23   
	BYTE	W24
	BYTE		N32   
	BYTE	W36
	BYTE		N11   
	BYTE	W12
// 036   ----------------------------------------
	BYTE		N11   
	BYTE	W12
	BYTE		N11   
	BYTE	W12
	BYTE		N11   
	BYTE	W12
	BYTE		N11   
	BYTE	W12
	BYTE		N23   
	BYTE	W24
	BYTE		N11   
	BYTE	W12
	BYTE		N11   
	BYTE	W12
// 037   ----------------------------------------
	BYTE		N11   
	BYTE	W12
	BYTE		N11   
	BYTE	W12
	BYTE		N23   
	BYTE	W24
	BYTE		N23   
	BYTE	W24
	BYTE		N11   
	BYTE	W12
	BYTE		N11   
	BYTE	W12
// 038   ----------------------------------------
RR20_5_038:
	BYTE		N11     Gn3   v096
	BYTE	W12
	BYTE		        Fs3 
	BYTE	W12
	BYTE		        Fn3 
	BYTE	W12
	BYTE		        En3 
	BYTE	W12
	BYTE		        Dn3 
	BYTE	W12
	BYTE		        Cs3 
	BYTE	W12
	BYTE		        Cn3 
	BYTE	W12
	BYTE		        Bn2 
	BYTE	W12
	BYTE	PEND
// 039   ----------------------------------------
	BYTE		        Cn3 
	BYTE	W12
	BYTE		        Cs3 
	BYTE	W12
	BYTE		        Dn3 
	BYTE	W12
	BYTE		        Cs3 
	BYTE	W12
	BYTE		        Cn3 
	BYTE	W12
	BYTE		        Bn2 
	BYTE	W12
	BYTE		        Fn2 
	BYTE	W12
	BYTE		N56     En2 
	BYTE	W12
// 040   ----------------------------------------
	BYTE	W72
	BYTE		N11     Bn3 
	BYTE	W12
	BYTE		        Cs4 
	BYTE	W12
// 041   ----------------------------------------
	BYTE		N23     Dn4 
	BYTE	W24
	BYTE		        Cs4 
	BYTE	W24
	BYTE		N11     Bn3 
	BYTE	W12
	BYTE		N23     Cs4 
	BYTE	W24
	BYTE		N44     Bn3 
	BYTE	W12
// 042   ----------------------------------------
	BYTE	W36
	BYTE		TIE     Fs3 
	BYTE	W60
// 043   ----------------------------------------
	BYTE	W68
	BYTE	W03
	BYTE		EOT   
	BYTE	W24
	BYTE	W01
// 044   ----------------------------------------
	BYTE	W72
	BYTE		N11     Cs4 
	BYTE	W24
// 045   ----------------------------------------
	BYTE		N23     Dn4 
	BYTE	W36
	BYTE		        Bn3 
	BYTE	W24
	BYTE		        Cs4 
	BYTE	W24
	BYTE		TIE     Bn3 
	BYTE	W12
// 046   ----------------------------------------
	BYTE	W92
	BYTE	W03
	BYTE		EOT   
	BYTE	W01
// 047   ----------------------------------------
	BYTE	W96
// 048   ----------------------------------------
	BYTE	W24
	BYTE		N23   
	BYTE	W24
	BYTE		N11   
	BYTE	W12
	BYTE		N23     Cs4 
	BYTE	W24
	BYTE		        Dn4 
	BYTE	W12
// 049   ----------------------------------------
	BYTE	W12
	BYTE		        Cs4 
	BYTE	W24
	BYTE		        Bn3 
	BYTE	W24
	BYTE		        Cs4 
	BYTE	W24
	BYTE		N56     Bn3 
	BYTE	W12
// 050   ----------------------------------------
	BYTE	W48
	BYTE		N80     Fs3 
	BYTE	W48
// 051   ----------------------------------------
	BYTE	W36
	BYTE		N11   
	BYTE	W12
	BYTE		N23   
	BYTE	W24
	BYTE		N11   
	BYTE	W12
	BYTE		TIE     Gn3 
	BYTE	W12
// 052   ----------------------------------------
	BYTE	W96
// 053   ----------------------------------------
	BYTE	W44
	BYTE	W03
	BYTE		EOT   
	BYTE	W48
	BYTE	W01
// 054   ----------------------------------------
	BYTE	W96
// 055   ----------------------------------------
	BYTE	W84
	BYTE		N44     En4 
	BYTE	W12
// 056   ----------------------------------------
	BYTE	W36
	BYTE		        Ds4 
	BYTE	W48
	BYTE		        Bn3 
	BYTE	W12
// 057   ----------------------------------------
	BYTE	W36
	BYTE		        Gn3 
	BYTE	W60
// 058   ----------------------------------------
RR20_5_058:
	BYTE		N11     Fs3   v096
	BYTE	W12
	BYTE		        Gn3 
	BYTE	W12
	BYTE		        Fs3 
	BYTE	W12
	BYTE		        Gn3 
	BYTE	W12
	BYTE		        Fs3 
	BYTE	W12
	BYTE		        Gn3 
	BYTE	W12
	BYTE		        Fs3 
	BYTE	W12
	BYTE		        Gn3 
	BYTE	W12
	BYTE	PEND
// 059   ----------------------------------------
	BYTE	PATT
	 POIN2	RR20_5_058
// 060   ----------------------------------------
	BYTE	PATT
	 POIN2	RR20_5_058
// 061   ----------------------------------------
	BYTE		N11     Fs3   v096
	BYTE	W12
	BYTE		        Gn3 
	BYTE	W12
	BYTE		        Fs3 
	BYTE	W12
	BYTE		N11   
	BYTE		N11     Gn3 
	BYTE	W12
	BYTE		N44     Fs3 
	BYTE	W48
RR20_5_B1:
// 062   ----------------------------------------
	BYTE	W96
// 063   ----------------------------------------
	BYTE	W84
	BYTE		N92     Fs3   v096
	BYTE	W12
// 064   ----------------------------------------
	BYTE	W84
	BYTE		        En3 
	BYTE	W12
// 065   ----------------------------------------
	BYTE	W84
	BYTE		        Bn3 
	BYTE	W12
// 066   ----------------------------------------
	BYTE	W84
	BYTE		N56     Fs3 
	BYTE	W12
// 067   ----------------------------------------
	BYTE	W48
	BYTE		N11     Bn3 
	BYTE	W12
	BYTE		N23     Cs4 
	BYTE	W24
	BYTE		N68     Dn4 
	BYTE	W12
// 068   ----------------------------------------
	BYTE	W60
	BYTE		N11     Cs4 
	BYTE	W24
	BYTE		N44     Bn3 
	BYTE	W12
// 069   ----------------------------------------
	BYTE	W48
	BYTE		N11     Cs4 
	BYTE	W12
	BYTE		N23     Dn4 
	BYTE	W21
	BYTE		N02     Bn3 
	BYTE	W03
	BYTE		N92     Cs4 
	BYTE	W12
// 070   ----------------------------------------
	BYTE	W84
	BYTE		        An3 
	BYTE	W12
// 071   ----------------------------------------
	BYTE	W84
	BYTE		        Fs3 
	BYTE	W12
// 072   ----------------------------------------
	BYTE	W84
	BYTE		        An3 
	BYTE	W12
// 073   ----------------------------------------
	BYTE	W84
	BYTE		        Bn3 
	BYTE	W12
// 074   ----------------------------------------
	BYTE	W84
	BYTE		N56     Cs4 
	BYTE	W12
// 075   ----------------------------------------
	BYTE	W48
	BYTE		N11     Bn3 
	BYTE	W12
	BYTE		N23     Cs4 
	BYTE	W24
	BYTE		        Dn4 
	BYTE	W12
// 076   ----------------------------------------
	BYTE	W12
	BYTE		        Cs4 
	BYTE	W24
	BYTE		N23   
	BYTE	W24
	BYTE		        Bn3 
	BYTE	W24
	BYTE		N23   
	BYTE	W12
// 077   ----------------------------------------
	BYTE	W12
	BYTE		        Fs3 
	BYTE	W24
	BYTE		        Bn3 
	BYTE	W24
	BYTE		        Cs4 
	BYTE	W24
	BYTE		        Dn4 
	BYTE	W12
// 078   ----------------------------------------
	BYTE	W12
	BYTE		        Cs4 
	BYTE	W24
	BYTE		        Bn3 
	BYTE	W24
	BYTE		        An3 
	BYTE	W24
	BYTE		N44     Cs4 
	BYTE	W12
// 079   ----------------------------------------
	BYTE	W36
	BYTE		N32   
	BYTE	W36
	BYTE		N11     Bn3 
	BYTE	W12
	BYTE		N32     Bn2 
	BYTE		N32     Fs3 
	BYTE	W12
// 080   ----------------------------------------
	BYTE	W96
// 081   ----------------------------------------
RR20_5_081:
	BYTE	W84
	BYTE		N32     Bn2   v096
	BYTE		N32     Fs3 
	BYTE		N32     Bn3 
	BYTE	W12
	BYTE	PEND
// 082   ----------------------------------------
	BYTE	W96
// 083   ----------------------------------------
	BYTE	PATT
	 POIN2	RR20_5_081
// 084   ----------------------------------------
	BYTE	W96
// 085   ----------------------------------------
RR20_5_085:
	BYTE	W84
	BYTE		N32     Bn2   v096
	BYTE		N32     En3 
	BYTE		N32     Gn3 
	BYTE	W12
	BYTE	PEND
// 086   ----------------------------------------
RR20_5_086:
	BYTE	W84
	BYTE		N11     Bn2   v096
	BYTE		N32     Fs3 
	BYTE	W12
	BYTE	PEND
// 087   ----------------------------------------
	BYTE	W36
	BYTE		N23     Cn3 
	BYTE		N23     Gn3 
	BYTE	W48
	BYTE		N32     Fs3 
	BYTE		N32     Bn3 
	BYTE	W12
// 088   ----------------------------------------
	BYTE	W96
// 089   ----------------------------------------
	BYTE	PATT
	 POIN2	RR20_5_081
// 090   ----------------------------------------
	BYTE	W96
// 091   ----------------------------------------
	BYTE	W84
	BYTE		N32     Fs3   v096
	BYTE		N32     Bn3 
	BYTE	W12
// 092   ----------------------------------------
	BYTE	W96
// 093   ----------------------------------------
	BYTE	PATT
	 POIN2	RR20_5_085
// 094   ----------------------------------------
	BYTE	PATT
	 POIN2	RR20_5_086
// 095   ----------------------------------------
	BYTE	W36
	BYTE		N23     Gn2   v096
	BYTE		N23     Cn3 
	BYTE		N23     Gn3 
	BYTE	W48
	BYTE		        Bn2 
	BYTE		N23     Fs3 
	BYTE	W12
// 096   ----------------------------------------
RR20_5_096:
	BYTE	W12
	BYTE		N11     Bn2   v096
	BYTE		N11     Fs3 
	BYTE	W12
	BYTE		        Bn2 
	BYTE		N11     Fs3 
	BYTE	W12
	BYTE		        Bn2 
	BYTE		N11     Fs3 
	BYTE	W12
	BYTE		        Bn2 
	BYTE		N11     Fs3 
	BYTE	W12
	BYTE		        Bn2 
	BYTE		N11     Fs3 
	BYTE	W12
	BYTE		        Bn2 
	BYTE		N11     Fs3 
	BYTE	W12
	BYTE		        Bn2 
	BYTE		N11     Fs3 
	BYTE	W12
	BYTE	PEND
// 097   ----------------------------------------
RR20_5_097:
	BYTE		N11     Bn2   v096
	BYTE		N11     Fs3 
	BYTE	W12
	BYTE		        Bn2 
	BYTE		N11     Fs3 
	BYTE	W12
	BYTE		        Bn2 
	BYTE		N11     Fs3 
	BYTE	W12
	BYTE		        Bn2 
	BYTE		N11     Fs3 
	BYTE	W12
	BYTE		        Bn2 
	BYTE		N11     Fs3 
	BYTE	W12
	BYTE		        Bn2 
	BYTE		N11     Fs3 
	BYTE	W12
	BYTE		        Bn2 
	BYTE		N11     Fs3 
	BYTE	W12
	BYTE		N23     Bn2 
	BYTE		N23     Fs3 
	BYTE	W12
	BYTE	PEND
// 098   ----------------------------------------
	BYTE	PATT
	 POIN2	RR20_5_096
// 099   ----------------------------------------
	BYTE	PATT
	 POIN2	RR20_5_097
// 100   ----------------------------------------
	BYTE	PATT
	 POIN2	RR20_5_096
// 101   ----------------------------------------
	BYTE		N11     Bn2   v096
	BYTE		N11     Fs3 
	BYTE	W12
	BYTE		        Bn2 
	BYTE		N11     Fs3 
	BYTE	W12
	BYTE		        Bn2 
	BYTE		N11     Fs3 
	BYTE	W12
	BYTE		        Bn2 
	BYTE		N11     Fs3 
	BYTE	W12
	BYTE		        Bn2 
	BYTE		N11     Fs3 
	BYTE	W12
	BYTE		        Bn2 
	BYTE		N11     Fs3 
	BYTE	W12
	BYTE		        An2 
	BYTE		N11     En3 
	BYTE	W12
	BYTE		N23     Gn2 
	BYTE		N23     Bn2 
	BYTE	W12
// 102   ----------------------------------------
	BYTE	W36
	BYTE		        An2 
	BYTE		N23     Cs3 
	BYTE	W36
	BYTE		N11     Bn3 
	BYTE	W12
	BYTE		        Dn3 
	BYTE		N23     Bn3 
	BYTE	W12
// 103   ----------------------------------------
	BYTE	W12
	BYTE		N11     Dn4 
	BYTE	W12
	BYTE		        Cn4 
	BYTE	W12
	BYTE		N23     En3 
	BYTE		N23     Cn4 
	BYTE	W48
	BYTE		N11     Bn2 
	BYTE		N23     Bn3 
	BYTE	W12
// 104   ----------------------------------------
	BYTE	PATT
	 POIN2	RR20_5_096
// 105   ----------------------------------------
	BYTE	PATT
	 POIN2	RR20_5_097
// 106   ----------------------------------------
	BYTE	PATT
	 POIN2	RR20_5_096
// 107   ----------------------------------------
	BYTE	PATT
	 POIN2	RR20_5_097
// 108   ----------------------------------------
	BYTE	PATT
	 POIN2	RR20_5_096
// 109   ----------------------------------------
	BYTE		N11     Bn2   v096
	BYTE		N11     Fs3 
	BYTE	W12
	BYTE		        Bn2 
	BYTE		N11     Fs3 
	BYTE	W12
	BYTE		        Bn2 
	BYTE		N11     Fs3 
	BYTE	W12
	BYTE		        Bn2 
	BYTE		N11     Fs3 
	BYTE	W12
	BYTE		        Bn2 
	BYTE		N11     Fs3 
	BYTE	W12
	BYTE		        Bn2 
	BYTE		N11     Fs3 
	BYTE	W12
	BYTE		        Bn2 
	BYTE		N11     Fs3 
	BYTE	W12
	BYTE		        Bn2 
	BYTE		N11     Fs3 
	BYTE	W12
// 110   ----------------------------------------
	BYTE	PATT
	 POIN2	RR20_5_038
// 111   ----------------------------------------
	BYTE		N11     Cn3   v096
	BYTE	W12
	BYTE		        Cs3 
	BYTE	W12
	BYTE		        Dn3 
	BYTE	W12
	BYTE		        Cs3 
	BYTE	W12
	BYTE		        Cn3 
	BYTE	W12
	BYTE		        Bn2 
	BYTE	W12
	BYTE		        Fn2 
	BYTE	W12
	BYTE		N80     En2 
	BYTE	W12
// 112   ----------------------------------------
	BYTE	W72
	BYTE		N11     An2 
	BYTE		N11     An3 
	BYTE	W12
	BYTE		        An2 
	BYTE		N11     An3 
	BYTE	W12
// 113   ----------------------------------------
	BYTE		        Bn2 
	BYTE		N11     Bn3 
	BYTE	W12
	BYTE		        Bn2 
	BYTE		N11     Bn3 
	BYTE	W12
	BYTE		        Bn2 
	BYTE		N11     Bn3 
	BYTE	W24
	BYTE		        Bn2 
	BYTE		N11     Bn3 
	BYTE	W12
	BYTE		        Bn2 
	BYTE		N11     Bn3 
	BYTE	W24
	BYTE		N23     Dn3 
	BYTE		N23     Fs3 
	BYTE	W12
// 114   ----------------------------------------
	BYTE	W12
	BYTE		N11     Dn3 
	BYTE		N11     Fs3 
	BYTE	W12
	BYTE		        Dn3 
	BYTE		N11     Fs3 
	BYTE	W12
	BYTE		        Dn3 
	BYTE		N11     Fs3 
	BYTE		N11     Dn4 
	BYTE	W12
	BYTE		        Dn3 
	BYTE		N11     Fs3 
	BYTE	W12
	BYTE		        Dn3 
	BYTE		N11     Fs3 
	BYTE		N11     Dn4 
	BYTE	W12
	BYTE		        Dn3 
	BYTE		N11     Fs3 
	BYTE	W12
	BYTE		        Dn3 
	BYTE		N11     Fs3 
	BYTE		N11     Dn4 
	BYTE	W12
// 115   ----------------------------------------
	BYTE		        Dn3 
	BYTE		N11     Fs3 
	BYTE	W12
	BYTE		        Dn3 
	BYTE		N11     Fs3 
	BYTE		N11     Dn4 
	BYTE	W12
	BYTE		        Dn3 
	BYTE		N11     Fs3 
	BYTE	W12
	BYTE		        Dn3 
	BYTE		N11     Fs3 
	BYTE		N11     Dn4 
	BYTE	W12
	BYTE		        Bn2 
	BYTE		N11     Dn3 
	BYTE	W12
	BYTE		        Bn2 
	BYTE		N11     Dn3 
	BYTE	W12
	BYTE		        Bn2 
	BYTE		N11     Dn3 
	BYTE	W12
	BYTE		N23     Bn2 
	BYTE		N23     Dn3 
	BYTE	W12
// 116   ----------------------------------------
	BYTE	W12
	BYTE		N11     Bn2 
	BYTE		N11     En3 
	BYTE		N11     Gn3 
	BYTE	W12
	BYTE		        Bn2 
	BYTE		N11     En3 
	BYTE		N11     Gn3 
	BYTE	W12
	BYTE		        Bn3 
	BYTE	W12
	BYTE		N23     Bn2 
	BYTE		N23     En3 
	BYTE		N23     Gn3 
	BYTE	W24
	BYTE		        Bn2 
	BYTE		N23     En3 
	BYTE		N23     Gn3 
	BYTE	W24
// 117   ----------------------------------------
	BYTE		N11     Dn3 
	BYTE	W12
	BYTE		N11   
	BYTE	W12
	BYTE		N11   
	BYTE	W12
	BYTE		        Cs3 
	BYTE	W12
	BYTE		N11   
	BYTE	W36
	BYTE		N23     Dn3 
	BYTE		N23     Fs3 
	BYTE	W12
// 118   ----------------------------------------
	BYTE	W36
	BYTE		        Dn3 
	BYTE		N23     Fs3 
	BYTE	W48
	BYTE		N11     Dn3 
	BYTE		N23     Fs3 
	BYTE	W12
// 119   ----------------------------------------
	BYTE	W36
	BYTE		        Dn3 
	BYTE		N23     Fs3 
	BYTE	W44
	BYTE	W01
	BYTE		N02     An2 
	BYTE	W03
	BYTE		N32     Bn2 
	BYTE	W12
// 120   ----------------------------------------
	BYTE	W12
	BYTE		N11     Gn3 
	BYTE	W12
	BYTE		        En3 
	BYTE		N11     Gn3 
	BYTE	W12
	BYTE		        En3 
	BYTE		N11     Gn3 
	BYTE	W12
	BYTE		        En3 
	BYTE		N11     Gn3 
	BYTE	W36
	BYTE		N23     En3 
	BYTE		N23     Gn3 
	BYTE	W12
// 121   ----------------------------------------
	BYTE	W12
	BYTE		N11     En3 
	BYTE		N11     Gn3 
	BYTE	W12
	BYTE		        Gn2 
	BYTE		N11     Gn3 
	BYTE	W12
	BYTE		        Gn2 
	BYTE		N11     Gn3 
	BYTE	W12
	BYTE		        Gn2 
	BYTE		N11     Gn3 
	BYTE	W12
	BYTE		        Fs2 
	BYTE		N11     Fs3 
	BYTE	W24
	BYTE		N23     Dn3 
	BYTE		N23     Fs3 
	BYTE		N23     Bn3 
	BYTE	W12
// 122   ----------------------------------------
	BYTE	W12
	BYTE		N11     Dn3 
	BYTE		N11     Fs3 
	BYTE		N11     Bn3 
	BYTE	W12
	BYTE		        Dn3 
	BYTE		N11     Fs3 
	BYTE		N11     Bn3 
	BYTE	W24
	BYTE		        Dn3 
	BYTE		N11     Fs3 
	BYTE		N11     Bn3 
	BYTE	W12
	BYTE		        Dn3 
	BYTE		N11     Fs3 
	BYTE		N11     Bn3 
	BYTE	W24
	BYTE		        Dn3 
	BYTE		N11     Fs3 
	BYTE		N11     Bn3 
	BYTE	W12
// 123   ----------------------------------------
	BYTE		        Dn3 
	BYTE		N11     Fs3 
	BYTE		N11     Bn3 
	BYTE	W24
	BYTE		        Bn2 
	BYTE		N11     Fs3 
	BYTE		N11     Bn3 
	BYTE	W12
	BYTE		        Bn2 
	BYTE		N11     Fs3 
	BYTE		N11     Bn3 
	BYTE	W48
	BYTE		        En3 
	BYTE		N23     Bn3 
	BYTE	W12
// 124   ----------------------------------------
	BYTE	W12
	BYTE		N11     En3 
	BYTE		N11     Bn3 
	BYTE	W12
	BYTE		        En3 
	BYTE		N11     Bn3 
	BYTE	W12
	BYTE		        En3 
	BYTE		N11     Bn3 
	BYTE	W12
	BYTE		        En3 
	BYTE		N11     Bn3 
	BYTE	W12
	BYTE		        En3 
	BYTE		N11     Bn3 
	BYTE	W12
	BYTE		        En3 
	BYTE		N11     Bn3 
	BYTE	W12
	BYTE		        En3 
	BYTE		N11     Bn3 
	BYTE	W12
// 125   ----------------------------------------
	BYTE		        En3 
	BYTE		N11     Bn3 
	BYTE	W12
	BYTE		        En3 
	BYTE		N11     Bn3 
	BYTE	W12
	BYTE		        En3 
	BYTE		N11     Bn3 
	BYTE	W12
	BYTE		        En3 
	BYTE		N11     Bn3 
	BYTE	W12
	BYTE		        En3 
	BYTE		N11     Bn3 
	BYTE	W12
	BYTE		        En3 
	BYTE		N11     Bn3 
	BYTE	W12
	BYTE		        En3 
	BYTE		N11     Bn3 
	BYTE	W12
	BYTE		N23     Cn2 
	BYTE		N23     Cn3 
	BYTE	W12
// 126   ----------------------------------------
	BYTE	W12
	BYTE		N11     Cn2 
	BYTE		N11     Cn3 
	BYTE	W12
	BYTE		        Ds2 
	BYTE		N11     Ds3 
	BYTE	W12
	BYTE		        Ds2 
	BYTE		N11     Ds3 
	BYTE	W12
	BYTE		        Ds2 
	BYTE		N11     Ds3 
	BYTE	W36
	BYTE		        Gn2 
	BYTE		N11     Gn3 
	BYTE	W12
// 127   ----------------------------------------
	BYTE		        Gn2 
	BYTE		N11     Gn3 
	BYTE	W12
	BYTE		        Gn2 
	BYTE		N11     Gn3 
	BYTE	W12
	BYTE		        Gn2 
	BYTE		N11     Gn3 
	BYTE	W12
	BYTE		        Fs2 
	BYTE		N11     Fs3 
	BYTE	W12
	BYTE		        Fs2 
	BYTE		N11     Fs3 
	BYTE	W12
	BYTE		        Fs2 
	BYTE		N11     Fs3 
	BYTE	W12
	BYTE		        Fs2 
	BYTE		N11     Fs3 
	BYTE	W12
	BYTE		N23     Cn2 
	BYTE		N23     Cn3 
	BYTE	W12
// 128   ----------------------------------------
	BYTE	W12
	BYTE		N11     Cn2 
	BYTE		N11     Cn3 
	BYTE	W12
	BYTE		        Cn2 
	BYTE		N11     Cn3 
	BYTE	W12
	BYTE		        Ds2 
	BYTE		N11     Ds3 
	BYTE	W12
	BYTE		        Ds2 
	BYTE		N11     Ds3 
	BYTE	W12
	BYTE		        Ds2 
	BYTE		N11     Ds3 
	BYTE	W12
	BYTE		        Ds2 
	BYTE		N11     Ds3 
	BYTE	W12
	BYTE		        Gn2 
	BYTE		N11     Gn3 
	BYTE	W12
// 129   ----------------------------------------
	BYTE		        Gn2 
	BYTE		N11     Gn3 
	BYTE	W12
	BYTE		        Gn2 
	BYTE		N11     Gn3 
	BYTE	W12
	BYTE		        Fs2 
	BYTE		N11     Fs3 
	BYTE	W12
	BYTE		        Fs2 
	BYTE		N11     Fs3 
	BYTE	W12
	BYTE		        Fs2 
	BYTE		N11     Fs3 
	BYTE	W12
	BYTE		        Fs2 
	BYTE		N11     Fs3 
	BYTE	W12
	BYTE		        Fs2 
	BYTE		N11     Fs3 
	BYTE	W24
// 130   ----------------------------------------
RR20_5_130:
	BYTE		N11     Fs2   v096
	BYTE		N11     Fs3 
	BYTE	W12
	BYTE		        Gn2 
	BYTE		N11     Gn3 
	BYTE	W12
	BYTE		        Fs2 
	BYTE		N11     Fs3 
	BYTE	W12
	BYTE		        Gn2 
	BYTE		N11     Gn3 
	BYTE	W12
	BYTE		        Fs2 
	BYTE		N11     Fs3 
	BYTE	W12
	BYTE		        Gn2 
	BYTE		N11     Gn3 
	BYTE	W12
	BYTE		        Fs2 
	BYTE		N11     Fs3 
	BYTE	W12
	BYTE		        Gn2 
	BYTE		N11     Gn3 
	BYTE	W12
	BYTE	PEND
// 131   ----------------------------------------
	BYTE	PATT
	 POIN2	RR20_5_130
// 132   ----------------------------------------
	BYTE	PATT
	 POIN2	RR20_5_130
// 133   ----------------------------------------
	BYTE		N11     Fs2   v096
	BYTE		N11     Fs3 
	BYTE	W12
	BYTE		        Gn2 
	BYTE		N11     Gn3 
	BYTE	W12
	BYTE		        Fs2 
	BYTE		N11     Fs3 
	BYTE	W12
	BYTE		        Gn2 
	BYTE		N11     Gn3 
	BYTE	W12
	BYTE		N23     Fs2 
	BYTE		N23     Fs3 
	BYTE	W48
// 134   ----------------------------------------
	BYTE	W96
// 135   ----------------------------------------
	BYTE	W84
	BYTE		        Bn1 
	BYTE		N23     Fs2 
	BYTE	W12
// 136   ----------------------------------------
	BYTE	W12
	BYTE		N11     Bn1 
	BYTE		N11     Fs2 
	BYTE	W12
	BYTE		        Bn1 
	BYTE		N11     Fs2 
	BYTE	W12
	BYTE		        Bn1 
	BYTE		N11     Fs2 
	BYTE	W12
	BYTE		        Bn1 
	BYTE		N11     Fs2 
	BYTE	W12
	BYTE		        Bn1 
	BYTE		N11     Fs2 
	BYTE	W12
	BYTE		        Bn1 
	BYTE		N11     Fs2 
	BYTE	W12
	BYTE		        Bn1 
	BYTE		N11     Fs2 
	BYTE	W12
// 137   ----------------------------------------
	BYTE		        Bn1 
	BYTE		N11     Fs2 
	BYTE	W12
	BYTE		        Bn1 
	BYTE		N11     Fs2 
	BYTE	W12
	BYTE		        Bn1 
	BYTE		N11     Fs2 
	BYTE	W12
	BYTE		        Bn1 
	BYTE		N11     Fs2 
	BYTE	W12
	BYTE		        Bn1 
	BYTE		N11     Fs2 
	BYTE	W12
	BYTE		        Bn1 
	BYTE		N11     Fs2 
	BYTE	W12
	BYTE		        Bn1 
	BYTE		N11     Fs2 
	BYTE	W12
	BYTE		N23   
	BYTE		N23     Bn2 
	BYTE	W12
// 138   ----------------------------------------
	BYTE	W12
	BYTE		N11     Fs2 
	BYTE		N11     Bn2 
	BYTE	W12
	BYTE		        Fs2 
	BYTE		N11     Bn2 
	BYTE	W12
	BYTE		        Fs2 
	BYTE		N11     Bn2 
	BYTE	W12
	BYTE		        Fs2 
	BYTE		N11     Bn2 
	BYTE	W12
	BYTE		        Fs2 
	BYTE		N11     Bn2 
	BYTE	W12
	BYTE		        Fs2 
	BYTE		N11     Bn2 
	BYTE	W12
	BYTE		        Fs2 
	BYTE		N11     Bn2 
	BYTE	W12
// 139   ----------------------------------------
	BYTE		        Fs2 
	BYTE		N11     Bn2 
	BYTE	W12
	BYTE		        Fs2 
	BYTE		N11     Bn2 
	BYTE	W12
	BYTE		        Fs2 
	BYTE		N11     Bn2 
	BYTE	W12
	BYTE		        Fs2 
	BYTE		N11     Bn2 
	BYTE	W12
	BYTE		        Fs2 
	BYTE		N11     Bn2 
	BYTE	W12
	BYTE		        Fs2 
	BYTE		N11     Bn2 
	BYTE	W12
	BYTE		        Dn2 
	BYTE		N11     Dn3 
	BYTE	W12
	BYTE		N23     Dn2 
	BYTE		N23     Dn3 
	BYTE	W12
// 140   ----------------------------------------
	BYTE	W12
	BYTE		N11     Dn2 
	BYTE		N11     Dn3 
	BYTE	W12
	BYTE		        Dn2 
	BYTE		N11     Dn3 
	BYTE	W36
	BYTE		        Dn2 
	BYTE		N11     Dn3 
	BYTE	W36
// 141   ----------------------------------------
	BYTE		        Dn2 
	BYTE		N11     Dn3 
	BYTE	W24
	BYTE		        Dn2 
	BYTE		N11     Dn3 
	BYTE	W12
	BYTE		        Dn2 
	BYTE		N11     Dn3 
	BYTE	W12
	BYTE		        Dn2 
	BYTE		N11     Dn3 
	BYTE	W12
	BYTE		        Dn2 
	BYTE		N11     Dn3 
	BYTE	W12
	BYTE		        Dn2 
	BYTE		N11     Dn3 
	BYTE	W12
	BYTE		        Dn2 
	BYTE		N11     Dn3 
	BYTE	W12
// 142   ----------------------------------------
	BYTE		        En2 
	BYTE		N11     En3 
	BYTE	W12
	BYTE		        En2 
	BYTE		N11     En3 
	BYTE	W12
	BYTE		        En2 
	BYTE		N11     En3 
	BYTE	W12
	BYTE		        En2 
	BYTE		N11     En3 
	BYTE	W12
	BYTE		        En2 
	BYTE		N11     En3 
	BYTE	W12
	BYTE		        En2 
	BYTE		N11     En3 
	BYTE	W12
	BYTE		        En2 
	BYTE		N11     En3 
	BYTE	W12
	BYTE		N23     Dn2 
	BYTE		N23     Dn3 
	BYTE	W12
// 143   ----------------------------------------
	BYTE	W12
	BYTE		N11     Dn2 
	BYTE		N11     Dn3 
	BYTE	W12
	BYTE		        Dn2 
	BYTE		N11     Dn3 
	BYTE	W12
	BYTE		N23     En2 
	BYTE		N23     En3 
	BYTE	W24
	BYTE		N11     En2 
	BYTE		N11     En3 
	BYTE	W12
	BYTE		        En2 
	BYTE		N11     En3 
	BYTE	W12
	BYTE		N23     Fs2 
	BYTE		N23     Fs3 
	BYTE	W12
// 144   ----------------------------------------
	BYTE	W12
	BYTE		N11     Fs2 
	BYTE		N11     Fs3 
	BYTE	W12
	BYTE		        Fs2 
	BYTE		N11     Fs3 
	BYTE	W12
	BYTE		        Fs2 
	BYTE		N11     Fs3 
	BYTE	W12
	BYTE		        Fs2 
	BYTE		N11     Fs3 
	BYTE	W12
	BYTE		        Fs2 
	BYTE		N11     Fs3 
	BYTE	W12
	BYTE		        Fs2 
	BYTE		N11     Fs3 
	BYTE	W24
// 145   ----------------------------------------
	BYTE		        Fs2 
	BYTE		N11     Fs3 
	BYTE	W12
	BYTE		        En3 
	BYTE	W12
	BYTE		        Fs2 
	BYTE		N11     Fs3 
	BYTE	W12
	BYTE		        En3 
	BYTE	W12
	BYTE		        Fs2 
	BYTE		N11     Fs3 
	BYTE	W12
	BYTE		        Fs2 
	BYTE		N11     Fs3 
	BYTE	W12
	BYTE		        En3 
	BYTE	W12
	BYTE		N23     Fs2 
	BYTE		N23     Fs3 
	BYTE	W12
// 146   ----------------------------------------
	BYTE	W12
	BYTE		N11     Fs2 
	BYTE		N11     Fs3 
	BYTE	W12
	BYTE		        Fs2 
	BYTE		N11     Fs3 
	BYTE	W12
	BYTE		        Fs2 
	BYTE		N11     Fs3 
	BYTE	W12
	BYTE		        En3 
	BYTE	W12
	BYTE		        Fs2 
	BYTE		N11     Fs3 
	BYTE	W12
	BYTE		        Fs2 
	BYTE		N11     Fs3 
	BYTE	W12
	BYTE		        En3 
	BYTE	W12
// 147   ----------------------------------------
	BYTE		        Fs2 
	BYTE		N11     Fs3 
	BYTE	W12
	BYTE		        Fs2 
	BYTE		N11     Fs3 
	BYTE	W12
	BYTE		        Fs2 
	BYTE		N11     Fs3 
	BYTE	W12
	BYTE		        Fs2 
	BYTE		N11     Fs3 
	BYTE	W12
	BYTE		        Fs2 
	BYTE		N11     Fs3 
	BYTE	W12
	BYTE		        Fs2 
	BYTE		N11     Fs3 
	BYTE	W12
	BYTE		        Fs2 
	BYTE		N11     Fs3 
	BYTE	W12
	BYTE		N23     Dn3 
	BYTE		N23     Bn3 
	BYTE	W12
// 148   ----------------------------------------
	BYTE	W12
	BYTE		N11     Dn3 
	BYTE		N11     Bn3 
	BYTE	W12
	BYTE		        Dn3 
	BYTE		N11     Bn3 
	BYTE	W12
	BYTE		        Dn3 
	BYTE		N11     Bn3 
	BYTE	W12
	BYTE		        Dn3 
	BYTE		N11     Bn3 
	BYTE	W12
	BYTE		        Dn3 
	BYTE		N11     Bn3 
	BYTE	W12
	BYTE		        Dn3 
	BYTE		N11     Bn3 
	BYTE	W12
	BYTE		N23     Dn3 
	BYTE		N23     Bn3 
	BYTE	W12
// 149   ----------------------------------------
	BYTE	W12
	BYTE		N11     Dn3 
	BYTE		N11     Bn3 
	BYTE	W12
	BYTE		        Dn3 
	BYTE		N11     Bn3 
	BYTE	W12
	BYTE		        Dn3 
	BYTE		N11     Bn3 
	BYTE	W12
	BYTE		        Dn3 
	BYTE		N11     Bn3 
	BYTE	W12
	BYTE		        Dn3 
	BYTE		N11     Bn3 
	BYTE	W12
	BYTE		        Dn3 
	BYTE		N11     Bn3 
	BYTE	W12
	BYTE		N23     En3 
	BYTE		N23     Cs4 
	BYTE	W12
// 150   ----------------------------------------
	BYTE	W12
	BYTE		N11     En3 
	BYTE		N11     Cs4 
	BYTE	W12
	BYTE		        En3 
	BYTE		N11     Cs4 
	BYTE	W12
	BYTE		        En3 
	BYTE		N11     Cs4 
	BYTE	W12
	BYTE		        En3 
	BYTE		N11     Cs4 
	BYTE	W12
	BYTE		        En3 
	BYTE		N11     Cs4 
	BYTE	W12
	BYTE		        Dn3 
	BYTE		N11     Bn3 
	BYTE	W12
	BYTE		        En3 
	BYTE		N11     Cs4 
	BYTE	W12
// 151   ----------------------------------------
	BYTE		        En3 
	BYTE		N11     Cs4 
	BYTE	W12
	BYTE		        En3 
	BYTE		N11     Cs4 
	BYTE	W12
	BYTE		        En3 
	BYTE		N11     Cs4 
	BYTE	W12
	BYTE		        En3 
	BYTE		N11     Cs4 
	BYTE	W12
	BYTE		        En3 
	BYTE		N11     Cs4 
	BYTE	W12
	BYTE		        En3 
	BYTE		N11     Cs4 
	BYTE	W12
	BYTE		        En3 
	BYTE		N11     Cs4 
	BYTE	W12
	BYTE		N56     Bn2 
	BYTE		N56     Dn3 
	BYTE	W12
	BYTE	GoTo
	 POIN2	RR20_5_B1
RR20_5_B2:
// 152   ----------------------------------------
	BYTE	W44
	BYTE	W03
	BYTE	FINE

//**************** Track 6 (Midi-Chn.6) ****************//

RR20_6:
	BYTE	KEYSH   RR20_key+0
// 000   ----------------------------------------
	BYTE		VOICE   33
	BYTE		VOL     100*RR20_mvl/mxv
	BYTE		PAN     c_v+0
	BYTE	W96
// 001   ----------------------------------------
	BYTE	W96
// 002   ----------------------------------------
	BYTE	W96
// 003   ----------------------------------------
	BYTE	W96
// 004   ----------------------------------------
	BYTE		TIE     Fs4   v080
	BYTE	W96
// 005   ----------------------------------------
	BYTE	W96
// 006   ----------------------------------------
	BYTE	W96
// 007   ----------------------------------------
	BYTE	W44
	BYTE	W03
	BYTE		EOT   
	BYTE	W36
	BYTE	W01
	BYTE		N32     Bn1   v096
	BYTE	W12
// 008   ----------------------------------------
	BYTE	W96
// 009   ----------------------------------------
	BYTE	W84
	BYTE		N32   
	BYTE	W12
// 010   ----------------------------------------
	BYTE	W96
// 011   ----------------------------------------
	BYTE	W84
	BYTE		        Gn1 
	BYTE	W12
// 012   ----------------------------------------
	BYTE	W96
// 013   ----------------------------------------
	BYTE	W84
	BYTE		        En1 
	BYTE	W12
// 014   ----------------------------------------
	BYTE	W88
	BYTE		N30     Fs1 
	BYTE	W08
// 015   ----------------------------------------
RR20_6_015:
	BYTE	W36
	BYTE		N23     Gn1   v096
	BYTE	W48
	BYTE		N32     Bn1 
	BYTE	W12
	BYTE	PEND
// 016   ----------------------------------------
	BYTE		N11     En4   v052
	BYTE	W12
	BYTE		        Cs4 
	BYTE	W12
	BYTE		        En3 
	BYTE	W12
	BYTE		        Dn4 
	BYTE	W12
	BYTE		        An3 
	BYTE	W12
	BYTE		        En3 
	BYTE	W12
	BYTE		        An3 
	BYTE	W24
// 017   ----------------------------------------
	BYTE		        Cs4 
	BYTE	W12
	BYTE		        An3 
	BYTE	W12
	BYTE		        En3 
	BYTE	W12
	BYTE		        Fs3 
	BYTE	W12
	BYTE		        En3 
	BYTE	W12
	BYTE		        Bn3 
	BYTE	W12
	BYTE		        An3 
	BYTE	W12
	BYTE		N32     Bn1   v096
	BYTE	W12
// 018   ----------------------------------------
	BYTE		N11     En4   v052
	BYTE	W12
	BYTE		        Cs4 
	BYTE	W12
	BYTE		        En3 
	BYTE	W12
	BYTE		        Dn4 
	BYTE	W12
	BYTE		        An3 
	BYTE	W12
	BYTE		        En3 
	BYTE	W12
	BYTE		        Fs3 
	BYTE	W24
// 019   ----------------------------------------
	BYTE		        Gn3 
	BYTE	W12
	BYTE		        Bn3 
	BYTE	W12
	BYTE		        Dn4 
	BYTE	W12
	BYTE		        Cs4 
	BYTE	W12
	BYTE		        An3 
	BYTE	W12
	BYTE		        En3 
	BYTE	W12
	BYTE		        Fs3 
	BYTE	W12
	BYTE		N32     Gn1   v096
	BYTE	W12
// 020   ----------------------------------------
	BYTE		N11     En3   v052
	BYTE	W12
	BYTE		        An3 
	BYTE	W12
	BYTE		        Cs4 
	BYTE	W12
	BYTE		        An3 
	BYTE	W12
	BYTE		        En3 
	BYTE	W12
	BYTE		        An3 
	BYTE	W12
	BYTE		        Fs4 
	BYTE	W24
// 021   ----------------------------------------
	BYTE		        En4 
	BYTE	W12
	BYTE		        Dn4 
	BYTE	W12
	BYTE		        Bn3 
	BYTE	W12
	BYTE		        Fs3 
	BYTE	W12
	BYTE		        Cs4 
	BYTE	W12
	BYTE		        Dn4 
	BYTE	W12
	BYTE		        Dn3 
	BYTE	W12
	BYTE		N32     En1   v096
	BYTE	W12
// 022   ----------------------------------------
	BYTE		N11     Cs3   v052
	BYTE	W12
	BYTE		        Dn3 
	BYTE	W12
	BYTE		        En3 
	BYTE	W12
	BYTE		        Gn3 
	BYTE	W12
	BYTE		        Dn3 
	BYTE	W12
	BYTE		        En3 
	BYTE	W12
	BYTE		        Fs3 
	BYTE	W12
	BYTE		        Gn3 
	BYTE	W04
	BYTE		N30     Fs1   v096
	BYTE	W08
// 023   ----------------------------------------
	BYTE		N11     An3   v052
	BYTE	W12
	BYTE		        Bn3 
	BYTE	W12
	BYTE		        Gn3 
	BYTE	W12
	BYTE		N23     Gn1   v096
	BYTE		N11     Fs3   v052
	BYTE	W12
	BYTE		        En3 
	BYTE	W12
	BYTE		        An3 
	BYTE	W24
	BYTE		N23     Bn1   v096
	BYTE	W12
// 024   ----------------------------------------
RR20_6_024:
	BYTE	W12
	BYTE		N11     Bn1   v096
	BYTE	W12
	BYTE		N11   
	BYTE	W12
	BYTE		N11   
	BYTE	W12
	BYTE		N11   
	BYTE	W12
	BYTE		N11   
	BYTE	W12
	BYTE		N11   
	BYTE	W12
	BYTE		N11   
	BYTE	W12
	BYTE	PEND
// 025   ----------------------------------------
RR20_6_025:
	BYTE		N11     Bn1   v096
	BYTE	W12
	BYTE		N11   
	BYTE	W12
	BYTE		N11   
	BYTE	W12
	BYTE		N11   
	BYTE	W12
	BYTE		N11   
	BYTE	W12
	BYTE		N11   
	BYTE	W12
	BYTE		N11   
	BYTE	W12
	BYTE		N23   
	BYTE	W12
	BYTE	PEND
// 026   ----------------------------------------
	BYTE	PATT
	 POIN2	RR20_6_024
// 027   ----------------------------------------
RR20_6_027:
	BYTE		N11     Bn1   v096
	BYTE	W12
	BYTE		N11   
	BYTE	W12
	BYTE		N11   
	BYTE	W12
	BYTE		N11   
	BYTE	W12
	BYTE		N11   
	BYTE	W12
	BYTE		N11   
	BYTE	W12
	BYTE		N11   
	BYTE	W12
	BYTE		N23     Gn1 
	BYTE	W12
	BYTE	PEND
// 028   ----------------------------------------
RR20_6_028:
	BYTE	W12
	BYTE		N11     Gn1   v096
	BYTE	W12
	BYTE		N11   
	BYTE	W12
	BYTE		N11   
	BYTE	W12
	BYTE		N11   
	BYTE	W12
	BYTE		N11   
	BYTE	W12
	BYTE		N11   
	BYTE	W12
	BYTE		N11   
	BYTE	W12
	BYTE	PEND
// 029   ----------------------------------------
RR20_6_029:
	BYTE		N11     Gn1   v096
	BYTE	W12
	BYTE		N11   
	BYTE	W12
	BYTE		N11   
	BYTE	W12
	BYTE		N11   
	BYTE	W12
	BYTE		N11   
	BYTE	W12
	BYTE		N11   
	BYTE	W12
	BYTE		N11   
	BYTE	W12
	BYTE		N23     En1 
	BYTE	W12
	BYTE	PEND
// 030   ----------------------------------------
RR20_6_030:
	BYTE	W12
	BYTE		N11     En1   v096
	BYTE	W12
	BYTE		N11   
	BYTE	W12
	BYTE		N23     Fs1 
	BYTE	W24
	BYTE		N11   
	BYTE	W12
	BYTE		N11   
	BYTE	W12
	BYTE		N23     Gn1 
	BYTE	W12
	BYTE	PEND
// 031   ----------------------------------------
RR20_6_031:
	BYTE	W12
	BYTE		N11     Gn1   v096
	BYTE	W12
	BYTE		N11   
	BYTE	W12
	BYTE		N23     Cn2 
	BYTE	W24
	BYTE		N11     Bn1 
	BYTE	W12
	BYTE		        An1 
	BYTE	W12
	BYTE		N23     Bn1 
	BYTE	W12
	BYTE	PEND
// 032   ----------------------------------------
	BYTE	PATT
	 POIN2	RR20_6_024
// 033   ----------------------------------------
RR20_6_033:
	BYTE		N11     Bn1   v096
	BYTE	W12
	BYTE		N11   
	BYTE	W12
	BYTE		N11   
	BYTE	W12
	BYTE		N11   
	BYTE	W12
	BYTE		N11   
	BYTE	W12
	BYTE		N11   
	BYTE	W24
	BYTE		N23   
	BYTE	W12
	BYTE	PEND
// 034   ----------------------------------------
	BYTE	PATT
	 POIN2	RR20_6_024
// 035   ----------------------------------------
RR20_6_035:
	BYTE		N11     Bn1   v096
	BYTE	W12
	BYTE		N11   
	BYTE	W12
	BYTE		N11   
	BYTE	W12
	BYTE		N11   
	BYTE	W12
	BYTE		N11   
	BYTE	W12
	BYTE		N11   
	BYTE	W24
	BYTE		N23     Gn1 
	BYTE	W12
	BYTE	PEND
// 036   ----------------------------------------
	BYTE	PATT
	 POIN2	RR20_6_028
// 037   ----------------------------------------
RR20_6_037:
	BYTE		N11     Gn1   v096
	BYTE	W12
	BYTE		N11   
	BYTE	W12
	BYTE		N11   
	BYTE	W12
	BYTE		N11   
	BYTE	W12
	BYTE		N11   
	BYTE	W12
	BYTE		N11   
	BYTE	W12
	BYTE		N11   
	BYTE	W12
	BYTE		N11   
	BYTE	W12
	BYTE	PEND
// 038   ----------------------------------------
RR20_6_038:
	BYTE		N11     Gn2   v096
	BYTE	W12
	BYTE		        Fs2 
	BYTE	W12
	BYTE		        Fn2 
	BYTE	W12
	BYTE		        En2 
	BYTE	W12
	BYTE		        Dn2 
	BYTE	W12
	BYTE		        Cs2 
	BYTE	W12
	BYTE		        Cn2 
	BYTE	W12
	BYTE		        Bn1 
	BYTE	W12
	BYTE	PEND
// 039   ----------------------------------------
RR20_6_039:
	BYTE	W24
	BYTE		N11     Dn2   v096
	BYTE	W12
	BYTE		        Cs2 
	BYTE	W12
	BYTE		        Cn2 
	BYTE	W12
	BYTE		        Bn1 
	BYTE	W12
	BYTE		        Fn1 
	BYTE	W12
	BYTE		N32     En1 
	BYTE	W12
	BYTE	PEND
// 040   ----------------------------------------
RR20_6_040:
	BYTE	W24
	BYTE		N11     En1   v096
	BYTE	W12
	BYTE		N11   
	BYTE	W12
	BYTE		N11   
	BYTE	W12
	BYTE		N11   
	BYTE	W12
	BYTE		N11   
	BYTE	W12
	BYTE		N11   
	BYTE	W12
	BYTE	PEND
// 041   ----------------------------------------
RR20_6_041:
	BYTE	W12
	BYTE		N11     En1   v096
	BYTE	W12
	BYTE		N11   
	BYTE	W12
	BYTE		N11   
	BYTE	W12
	BYTE		N11   
	BYTE	W12
	BYTE		N11   
	BYTE	W12
	BYTE		N11   
	BYTE	W12
	BYTE		N23     Bn1 
	BYTE	W12
	BYTE	PEND
// 042   ----------------------------------------
	BYTE	PATT
	 POIN2	RR20_6_024
// 043   ----------------------------------------
RR20_6_043:
	BYTE		N11     Bn1   v096
	BYTE	W12
	BYTE		N11   
	BYTE	W12
	BYTE		N11   
	BYTE	W12
	BYTE		N11   
	BYTE	W12
	BYTE		N11   
	BYTE	W12
	BYTE		N11   
	BYTE	W12
	BYTE		N11   
	BYTE	W12
	BYTE		N23     En1 
	BYTE	W12
	BYTE	PEND
// 044   ----------------------------------------
RR20_6_044:
	BYTE	W12
	BYTE		N11     En1   v096
	BYTE	W12
	BYTE		N11   
	BYTE	W12
	BYTE		N11   
	BYTE	W12
	BYTE		N11   
	BYTE	W12
	BYTE		N11   
	BYTE	W12
	BYTE		N11   
	BYTE	W12
	BYTE		N11   
	BYTE	W12
	BYTE	PEND
// 045   ----------------------------------------
RR20_6_045:
	BYTE		N11     En1   v096
	BYTE	W12
	BYTE		N11   
	BYTE	W12
	BYTE		N11   
	BYTE	W12
	BYTE		N11   
	BYTE	W12
	BYTE		N11   
	BYTE	W12
	BYTE		N11   
	BYTE	W12
	BYTE		N11   
	BYTE	W12
	BYTE		        Bn1 
	BYTE	W12
	BYTE	PEND
// 046   ----------------------------------------
RR20_6_046:
	BYTE	W36
	BYTE		N11     Bn1   v096
	BYTE	W48
	BYTE		N11   
	BYTE	W12
	BYTE	PEND
// 047   ----------------------------------------
RR20_6_047:
	BYTE	W36
	BYTE		N11     Bn1   v096
	BYTE	W48
	BYTE		N23     En1 
	BYTE	W12
	BYTE	PEND
// 048   ----------------------------------------
	BYTE	PATT
	 POIN2	RR20_6_044
// 049   ----------------------------------------
RR20_6_049:
	BYTE		N11     Gn1   v096
	BYTE	W12
	BYTE		N11   
	BYTE	W12
	BYTE		N11   
	BYTE	W12
	BYTE		        Fs1 
	BYTE	W12
	BYTE		N11   
	BYTE	W12
	BYTE		N11   
	BYTE	W12
	BYTE		N11   
	BYTE	W12
	BYTE		N23     Bn1 
	BYTE	W12
	BYTE	PEND
// 050   ----------------------------------------
	BYTE	PATT
	 POIN2	RR20_6_024
// 051   ----------------------------------------
RR20_6_051:
	BYTE		N11     Bn1   v096
	BYTE	W12
	BYTE		N11   
	BYTE	W12
	BYTE		N11   
	BYTE	W12
	BYTE		N11   
	BYTE	W12
	BYTE		N11   
	BYTE	W12
	BYTE		N11   
	BYTE	W12
	BYTE		N11   
	BYTE	W12
	BYTE		N23     Cn2 
	BYTE	W12
	BYTE	PEND
// 052   ----------------------------------------
RR20_6_052:
	BYTE	W12
	BYTE		N11     Cn2   v096
	BYTE	W12
	BYTE		N11   
	BYTE	W12
	BYTE		N11   
	BYTE	W12
	BYTE		N11   
	BYTE	W12
	BYTE		N11   
	BYTE	W12
	BYTE		N11   
	BYTE	W12
	BYTE		N11   
	BYTE	W12
	BYTE	PEND
// 053   ----------------------------------------
RR20_6_053:
	BYTE		N11     Cn2   v096
	BYTE	W12
	BYTE		N11   
	BYTE	W12
	BYTE		N11   
	BYTE	W12
	BYTE		N11   
	BYTE	W12
	BYTE		N11   
	BYTE	W12
	BYTE		N11   
	BYTE	W12
	BYTE		N11   
	BYTE	W12
	BYTE		N23   
	BYTE	W12
	BYTE	PEND
// 054   ----------------------------------------
RR20_6_054:
	BYTE	W12
	BYTE		N11     Cn2   v096
	BYTE	W12
	BYTE		        Ds2 
	BYTE	W12
	BYTE		N11   
	BYTE	W12
	BYTE		N11   
	BYTE	W12
	BYTE		N11   
	BYTE	W12
	BYTE		N11   
	BYTE	W12
	BYTE		        Gn2 
	BYTE	W12
	BYTE	PEND
// 055   ----------------------------------------
RR20_6_055:
	BYTE		N11     Gn2   v096
	BYTE	W12
	BYTE		N11   
	BYTE	W12
	BYTE		N11   
	BYTE	W12
	BYTE		        Fs2 
	BYTE	W12
	BYTE		N11   
	BYTE	W12
	BYTE		N11   
	BYTE	W12
	BYTE		N11   
	BYTE	W12
	BYTE		N23     Cn2 
	BYTE	W12
	BYTE	PEND
// 056   ----------------------------------------
RR20_6_056:
	BYTE	W12
	BYTE		N11     Cn2   v096
	BYTE	W12
	BYTE		N11   
	BYTE	W12
	BYTE		        Ds2 
	BYTE	W12
	BYTE		N11   
	BYTE	W12
	BYTE		N11   
	BYTE	W12
	BYTE		N11   
	BYTE	W12
	BYTE		        Gn2 
	BYTE	W12
	BYTE	PEND
// 057   ----------------------------------------
RR20_6_057:
	BYTE		N11     Gn2   v096
	BYTE	W12
	BYTE		N11   
	BYTE	W12
	BYTE		        Fs2 
	BYTE	W12
	BYTE		N11   
	BYTE	W12
	BYTE		N11   
	BYTE	W12
	BYTE		N11   
	BYTE	W12
	BYTE		N11   
	BYTE	W24
	BYTE	PEND
// 058   ----------------------------------------
RR20_6_058:
	BYTE		N11     Fs2   v096
	BYTE	W12
	BYTE		        Gn2 
	BYTE	W12
	BYTE		        Fs2 
	BYTE	W12
	BYTE		        Gn2 
	BYTE	W12
	BYTE		        Fs2 
	BYTE	W12
	BYTE		        Gn2 
	BYTE	W12
	BYTE		        Fs2 
	BYTE	W12
	BYTE		        Gn2 
	BYTE	W12
	BYTE	PEND
// 059   ----------------------------------------
	BYTE	PATT
	 POIN2	RR20_6_058
// 060   ----------------------------------------
	BYTE	PATT
	 POIN2	RR20_6_058
// 061   ----------------------------------------
RR20_6_061:
	BYTE		N11     Fs2   v096
	BYTE	W12
	BYTE		        Gn2 
	BYTE	W12
	BYTE		        Fs2 
	BYTE	W12
	BYTE		        Gn2 
	BYTE	W12
	BYTE		N23     Fs2 
	BYTE	W48
	BYTE	PEND
RR20_6_B1:
// 062   ----------------------------------------
	BYTE	W96
// 063   ----------------------------------------
	BYTE	W84
	BYTE		N23     Bn1   v096
	BYTE	W12
// 064   ----------------------------------------
	BYTE	PATT
	 POIN2	RR20_6_024
// 065   ----------------------------------------
	BYTE	PATT
	 POIN2	RR20_6_027
// 066   ----------------------------------------
	BYTE	PATT
	 POIN2	RR20_6_028
// 067   ----------------------------------------
	BYTE	PATT
	 POIN2	RR20_6_029
// 068   ----------------------------------------
	BYTE	PATT
	 POIN2	RR20_6_044
// 069   ----------------------------------------
RR20_6_069:
	BYTE		N11     En1   v096
	BYTE	W12
	BYTE		N11   
	BYTE	W12
	BYTE		N11   
	BYTE	W12
	BYTE		N11   
	BYTE	W12
	BYTE		N11   
	BYTE	W12
	BYTE		N11   
	BYTE	W12
	BYTE		N11   
	BYTE	W12
	BYTE		N23     Fs1 
	BYTE	W12
	BYTE	PEND
// 070   ----------------------------------------
RR20_6_070:
	BYTE	W12
	BYTE		N11     Fs1   v096
	BYTE	W12
	BYTE		N11   
	BYTE	W12
	BYTE		N11   
	BYTE	W12
	BYTE		N11   
	BYTE	W12
	BYTE		N11   
	BYTE	W12
	BYTE		N11   
	BYTE	W12
	BYTE		N11   
	BYTE	W12
	BYTE	PEND
// 071   ----------------------------------------
	BYTE		        Gn1 
	BYTE	W12
	BYTE		N11   
	BYTE	W12
	BYTE		N11   
	BYTE	W12
	BYTE		        An1 
	BYTE	W12
	BYTE		N11   
	BYTE	W12
	BYTE		N11   
	BYTE	W12
	BYTE		N11   
	BYTE	W12
	BYTE		        Bn1 
	BYTE	W12
// 072   ----------------------------------------
	BYTE		N11   
	BYTE	W12
	BYTE		N11   
	BYTE	W12
	BYTE		N11   
	BYTE	W12
	BYTE		N11   
	BYTE	W12
	BYTE		N11   
	BYTE	W12
	BYTE		N11   
	BYTE	W12
	BYTE		N11   
	BYTE	W12
	BYTE		N11   
	BYTE	W12
// 073   ----------------------------------------
	BYTE	PATT
	 POIN2	RR20_6_027
// 074   ----------------------------------------
	BYTE	PATT
	 POIN2	RR20_6_028
// 075   ----------------------------------------
	BYTE	PATT
	 POIN2	RR20_6_029
// 076   ----------------------------------------
	BYTE	PATT
	 POIN2	RR20_6_044
// 077   ----------------------------------------
	BYTE	PATT
	 POIN2	RR20_6_069
// 078   ----------------------------------------
	BYTE	W12
	BYTE		N11     Fs1   v096
	BYTE	W12
	BYTE		N11   
	BYTE	W12
	BYTE		N11   
	BYTE	W12
	BYTE		N11   
	BYTE	W12
	BYTE		N11   
	BYTE	W12
	BYTE		N11   
	BYTE	W12
	BYTE		N23     Gn1 
	BYTE	W12
// 079   ----------------------------------------
	BYTE	W12
	BYTE		N11   
	BYTE	W12
	BYTE		N11   
	BYTE	W12
	BYTE		N11   
	BYTE	W12
	BYTE		        An1 
	BYTE	W12
	BYTE		N11   
	BYTE	W12
	BYTE		N11   
	BYTE	W12
	BYTE		N32     Bn1 
	BYTE	W12
// 080   ----------------------------------------
	BYTE	W96
// 081   ----------------------------------------
	BYTE	W84
	BYTE		N32   
	BYTE	W12
// 082   ----------------------------------------
	BYTE	W96
// 083   ----------------------------------------
	BYTE	W84
	BYTE		        Gn1 
	BYTE	W12
// 084   ----------------------------------------
	BYTE	W96
// 085   ----------------------------------------
	BYTE	W84
	BYTE		        En1 
	BYTE	W12
// 086   ----------------------------------------
	BYTE	W84
	BYTE		        Fs1 
	BYTE	W12
// 087   ----------------------------------------
	BYTE	PATT
	 POIN2	RR20_6_015
// 088   ----------------------------------------
	BYTE	W96
// 089   ----------------------------------------
	BYTE	W84
	BYTE		N32     Bn1   v096
	BYTE	W12
// 090   ----------------------------------------
	BYTE	W96
// 091   ----------------------------------------
	BYTE	W84
	BYTE		        Gn1 
	BYTE	W12
// 092   ----------------------------------------
	BYTE	W96
// 093   ----------------------------------------
	BYTE	W84
	BYTE		        En1 
	BYTE	W12
// 094   ----------------------------------------
	BYTE	W84
	BYTE		        Fs1 
	BYTE	W12
// 095   ----------------------------------------
	BYTE	W36
	BYTE		N23     Gn1 
	BYTE	W48
	BYTE		        Bn1 
	BYTE	W12
// 096   ----------------------------------------
	BYTE	PATT
	 POIN2	RR20_6_024
// 097   ----------------------------------------
	BYTE	PATT
	 POIN2	RR20_6_025
// 098   ----------------------------------------
	BYTE	PATT
	 POIN2	RR20_6_024
// 099   ----------------------------------------
	BYTE	PATT
	 POIN2	RR20_6_027
// 100   ----------------------------------------
	BYTE	PATT
	 POIN2	RR20_6_028
// 101   ----------------------------------------
	BYTE	PATT
	 POIN2	RR20_6_029
// 102   ----------------------------------------
	BYTE	PATT
	 POIN2	RR20_6_030
// 103   ----------------------------------------
	BYTE	PATT
	 POIN2	RR20_6_031
// 104   ----------------------------------------
	BYTE	PATT
	 POIN2	RR20_6_024
// 105   ----------------------------------------
	BYTE	PATT
	 POIN2	RR20_6_033
// 106   ----------------------------------------
	BYTE	PATT
	 POIN2	RR20_6_024
// 107   ----------------------------------------
	BYTE	PATT
	 POIN2	RR20_6_035
// 108   ----------------------------------------
	BYTE	PATT
	 POIN2	RR20_6_028
// 109   ----------------------------------------
	BYTE	PATT
	 POIN2	RR20_6_037
// 110   ----------------------------------------
	BYTE	PATT
	 POIN2	RR20_6_038
// 111   ----------------------------------------
	BYTE	PATT
	 POIN2	RR20_6_039
// 112   ----------------------------------------
	BYTE	PATT
	 POIN2	RR20_6_040
// 113   ----------------------------------------
	BYTE	PATT
	 POIN2	RR20_6_041
// 114   ----------------------------------------
	BYTE	PATT
	 POIN2	RR20_6_024
// 115   ----------------------------------------
	BYTE	PATT
	 POIN2	RR20_6_043
// 116   ----------------------------------------
	BYTE	PATT
	 POIN2	RR20_6_044
// 117   ----------------------------------------
	BYTE	PATT
	 POIN2	RR20_6_045
// 118   ----------------------------------------
	BYTE	PATT
	 POIN2	RR20_6_046
// 119   ----------------------------------------
	BYTE	PATT
	 POIN2	RR20_6_047
// 120   ----------------------------------------
	BYTE	PATT
	 POIN2	RR20_6_044
// 121   ----------------------------------------
	BYTE	PATT
	 POIN2	RR20_6_049
// 122   ----------------------------------------
	BYTE	PATT
	 POIN2	RR20_6_024
// 123   ----------------------------------------
	BYTE	PATT
	 POIN2	RR20_6_051
// 124   ----------------------------------------
	BYTE	PATT
	 POIN2	RR20_6_052
// 125   ----------------------------------------
	BYTE	PATT
	 POIN2	RR20_6_053
// 126   ----------------------------------------
	BYTE	PATT
	 POIN2	RR20_6_054
// 127   ----------------------------------------
	BYTE	PATT
	 POIN2	RR20_6_055
// 128   ----------------------------------------
	BYTE	PATT
	 POIN2	RR20_6_056
// 129   ----------------------------------------
	BYTE	PATT
	 POIN2	RR20_6_057
// 130   ----------------------------------------
	BYTE	PATT
	 POIN2	RR20_6_058
// 131   ----------------------------------------
	BYTE	PATT
	 POIN2	RR20_6_058
// 132   ----------------------------------------
	BYTE	PATT
	 POIN2	RR20_6_058
// 133   ----------------------------------------
	BYTE	PATT
	 POIN2	RR20_6_061
// 134   ----------------------------------------
	BYTE	W96
// 135   ----------------------------------------
	BYTE	W84
	BYTE		N23     Bn1   v096
	BYTE	W12
// 136   ----------------------------------------
	BYTE	PATT
	 POIN2	RR20_6_024
// 137   ----------------------------------------
	BYTE	PATT
	 POIN2	RR20_6_027
// 138   ----------------------------------------
	BYTE	PATT
	 POIN2	RR20_6_028
// 139   ----------------------------------------
	BYTE	PATT
	 POIN2	RR20_6_029
// 140   ----------------------------------------
	BYTE	PATT
	 POIN2	RR20_6_044
// 141   ----------------------------------------
	BYTE	PATT
	 POIN2	RR20_6_069
// 142   ----------------------------------------
	BYTE	PATT
	 POIN2	RR20_6_070
// 143   ----------------------------------------
	BYTE		N11     Gn1   v096
	BYTE	W12
	BYTE		N11   
	BYTE	W12
	BYTE		N11   
	BYTE	W12
	BYTE		        An1 
	BYTE	W12
	BYTE		N11   
	BYTE	W12
	BYTE		N11   
	BYTE	W12
	BYTE		N11   
	BYTE	W12
	BYTE		N23     Bn1 
	BYTE	W12
// 144   ----------------------------------------
	BYTE	PATT
	 POIN2	RR20_6_024
// 145   ----------------------------------------
	BYTE	PATT
	 POIN2	RR20_6_027
// 146   ----------------------------------------
	BYTE	PATT
	 POIN2	RR20_6_028
// 147   ----------------------------------------
	BYTE	PATT
	 POIN2	RR20_6_029
// 148   ----------------------------------------
	BYTE	PATT
	 POIN2	RR20_6_044
// 149   ----------------------------------------
	BYTE	PATT
	 POIN2	RR20_6_069
// 150   ----------------------------------------
	BYTE	PATT
	 POIN2	RR20_6_070
// 151   ----------------------------------------
	BYTE		N11     Gn1   v096
	BYTE	W12
	BYTE		N11   
	BYTE	W12
	BYTE		N11   
	BYTE	W12
	BYTE		        An1 
	BYTE	W12
	BYTE		N11   
	BYTE	W12
	BYTE		N11   
	BYTE	W12
	BYTE		N11   
	BYTE	W12
	BYTE		N56     Gn1 
	BYTE	W12
	BYTE	GoTo
	 POIN2	RR20_6_B1
RR20_6_B2:
// 152   ----------------------------------------
	BYTE	W44
	BYTE	W03
	BYTE	FINE

//**************** Track 7 (Midi-Chn.9) ****************//

RR20_7:
	BYTE	KEYSH   RR20_key+0
// 000   ----------------------------------------
	BYTE		VOICE   41
	BYTE		VOL     127*RR20_mvl/mxv
	BYTE		PAN     c_v+0
	BYTE	W96
// 001   ----------------------------------------
	BYTE	W96
// 002   ----------------------------------------
	BYTE		TIE     Bn2   v080
	BYTE	W96
// 003   ----------------------------------------
	BYTE	W92
	BYTE	W03
	BYTE		EOT   
	BYTE	W01
// 004   ----------------------------------------
	BYTE	W96
// 005   ----------------------------------------
	BYTE	W96
// 006   ----------------------------------------
	BYTE	W96
// 007   ----------------------------------------
	BYTE	W96
// 008   ----------------------------------------
	BYTE	W96
// 009   ----------------------------------------
	BYTE	W96
// 010   ----------------------------------------
	BYTE	W96
// 011   ----------------------------------------
	BYTE	W96
// 012   ----------------------------------------
	BYTE	W96
// 013   ----------------------------------------
	BYTE	W96
// 014   ----------------------------------------
	BYTE	W96
// 015   ----------------------------------------
	BYTE	W96
// 016   ----------------------------------------
	BYTE	W96
// 017   ----------------------------------------
	BYTE	W96
// 018   ----------------------------------------
	BYTE	W96
// 019   ----------------------------------------
	BYTE	W96
// 020   ----------------------------------------
	BYTE	W96
// 021   ----------------------------------------
	BYTE	W96
// 022   ----------------------------------------
	BYTE	W96
// 023   ----------------------------------------
	BYTE	W96
// 024   ----------------------------------------
	BYTE	W96
// 025   ----------------------------------------
	BYTE	W96
// 026   ----------------------------------------
	BYTE	W96
// 027   ----------------------------------------
	BYTE	W96
// 028   ----------------------------------------
	BYTE	W96
// 029   ----------------------------------------
	BYTE	W96
// 030   ----------------------------------------
	BYTE	W96
// 031   ----------------------------------------
	BYTE	W96
// 032   ----------------------------------------
	BYTE	W96
// 033   ----------------------------------------
	BYTE	W96
// 034   ----------------------------------------
	BYTE	W96
// 035   ----------------------------------------
	BYTE	W96
// 036   ----------------------------------------
	BYTE	W96
// 037   ----------------------------------------
	BYTE	W96
// 038   ----------------------------------------
	BYTE	W96
// 039   ----------------------------------------
	BYTE	W96
// 040   ----------------------------------------
	BYTE	W96
// 041   ----------------------------------------
	BYTE	W96
// 042   ----------------------------------------
	BYTE	W96
// 043   ----------------------------------------
	BYTE	W96
// 044   ----------------------------------------
	BYTE	W96
// 045   ----------------------------------------
	BYTE	W96
// 046   ----------------------------------------
	BYTE	W96
// 047   ----------------------------------------
	BYTE	W96
// 048   ----------------------------------------
	BYTE	W96
// 049   ----------------------------------------
	BYTE	W96
// 050   ----------------------------------------
	BYTE	W96
// 051   ----------------------------------------
	BYTE	W96
// 052   ----------------------------------------
	BYTE	W96
// 053   ----------------------------------------
	BYTE	W96
// 054   ----------------------------------------
	BYTE	W96
// 055   ----------------------------------------
	BYTE	W96
// 056   ----------------------------------------
	BYTE	W96
// 057   ----------------------------------------
	BYTE	W96
// 058   ----------------------------------------
	BYTE	W96
// 059   ----------------------------------------
	BYTE	W96
// 060   ----------------------------------------
	BYTE	W96
// 061   ----------------------------------------
	BYTE	W96
RR20_7_B1:
// 062   ----------------------------------------
	BYTE	W96
// 063   ----------------------------------------
	BYTE	W96
// 064   ----------------------------------------
	BYTE	W96
// 065   ----------------------------------------
	BYTE	W96
// 066   ----------------------------------------
	BYTE	W96
// 067   ----------------------------------------
	BYTE	W96
// 068   ----------------------------------------
	BYTE	W96
// 069   ----------------------------------------
	BYTE	W96
// 070   ----------------------------------------
	BYTE	W96
// 071   ----------------------------------------
	BYTE	W96
// 072   ----------------------------------------
	BYTE	W96
// 073   ----------------------------------------
	BYTE	W96
// 074   ----------------------------------------
	BYTE	W96
// 075   ----------------------------------------
	BYTE	W96
// 076   ----------------------------------------
	BYTE	W96
// 077   ----------------------------------------
	BYTE	W96
// 078   ----------------------------------------
	BYTE	W96
// 079   ----------------------------------------
	BYTE	W96
// 080   ----------------------------------------
	BYTE	W96
// 081   ----------------------------------------
	BYTE	W96
// 082   ----------------------------------------
	BYTE	W96
// 083   ----------------------------------------
	BYTE	W96
// 084   ----------------------------------------
	BYTE	W96
// 085   ----------------------------------------
	BYTE	W96
// 086   ----------------------------------------
	BYTE	W96
// 087   ----------------------------------------
	BYTE	W96
// 088   ----------------------------------------
	BYTE	W96
// 089   ----------------------------------------
	BYTE	W96
// 090   ----------------------------------------
	BYTE	W96
// 091   ----------------------------------------
	BYTE	W96
// 092   ----------------------------------------
	BYTE	W96
// 093   ----------------------------------------
	BYTE	W96
// 094   ----------------------------------------
	BYTE	W96
// 095   ----------------------------------------
	BYTE	W96
// 096   ----------------------------------------
	BYTE	W96
// 097   ----------------------------------------
	BYTE	W96
// 098   ----------------------------------------
	BYTE	W96
// 099   ----------------------------------------
	BYTE	W96
// 100   ----------------------------------------
	BYTE	W96
// 101   ----------------------------------------
	BYTE	W96
// 102   ----------------------------------------
	BYTE	W96
// 103   ----------------------------------------
	BYTE	W96
// 104   ----------------------------------------
	BYTE	W96
// 105   ----------------------------------------
	BYTE	W96
// 106   ----------------------------------------
	BYTE	W96
// 107   ----------------------------------------
	BYTE	W96
// 108   ----------------------------------------
	BYTE	W96
// 109   ----------------------------------------
	BYTE	W96
// 110   ----------------------------------------
	BYTE	W96
// 111   ----------------------------------------
	BYTE	W96
// 112   ----------------------------------------
	BYTE	W96
// 113   ----------------------------------------
	BYTE	W96
// 114   ----------------------------------------
	BYTE	W96
// 115   ----------------------------------------
	BYTE	W96
// 116   ----------------------------------------
	BYTE	W96
// 117   ----------------------------------------
	BYTE	W96
// 118   ----------------------------------------
	BYTE	W96
// 119   ----------------------------------------
	BYTE	W96
// 120   ----------------------------------------
	BYTE	W96
// 121   ----------------------------------------
	BYTE	W96
// 122   ----------------------------------------
	BYTE	W96
// 123   ----------------------------------------
	BYTE	W96
// 124   ----------------------------------------
	BYTE	W96
// 125   ----------------------------------------
	BYTE	W96
// 126   ----------------------------------------
	BYTE	W96
// 127   ----------------------------------------
	BYTE	W96
// 128   ----------------------------------------
	BYTE	W96
// 129   ----------------------------------------
	BYTE	W96
// 130   ----------------------------------------
	BYTE	W96
// 131   ----------------------------------------
	BYTE	W96
// 132   ----------------------------------------
	BYTE	W96
// 133   ----------------------------------------
	BYTE	W96
// 134   ----------------------------------------
	BYTE	W96
// 135   ----------------------------------------
	BYTE	W96
// 136   ----------------------------------------
	BYTE	W96
// 137   ----------------------------------------
	BYTE	W96
// 138   ----------------------------------------
	BYTE	W96
// 139   ----------------------------------------
	BYTE	W96
// 140   ----------------------------------------
	BYTE	W96
// 141   ----------------------------------------
	BYTE	W96
// 142   ----------------------------------------
	BYTE	W96
// 143   ----------------------------------------
	BYTE	W96
// 144   ----------------------------------------
	BYTE	W96
// 145   ----------------------------------------
	BYTE	W96
// 146   ----------------------------------------
	BYTE	W96
// 147   ----------------------------------------
	BYTE	W96
// 148   ----------------------------------------
	BYTE	W96
// 149   ----------------------------------------
	BYTE	W96
// 150   ----------------------------------------
	BYTE	W96
// 151   ----------------------------------------
	BYTE	W96
	BYTE	GoTo
	 POIN2	RR20_7_B1
RR20_7_B2:
// 152   ----------------------------------------
	BYTE	W44
	BYTE	W03
	BYTE	FINE

//**************** Track 8 (Midi-Chn.10) ****************//

RR20_8:
	BYTE	KEYSH   RR20_key+0
// 000   ----------------------------------------
	BYTE		VOICE   122
	BYTE		VOL     100*RR20_mvl/mxv
	BYTE		PAN     c_v+0
	BYTE	W96
// 001   ----------------------------------------
	BYTE	W96
// 002   ----------------------------------------
	BYTE	W96
// 003   ----------------------------------------
	BYTE	W96
// 004   ----------------------------------------
	BYTE	W96
// 005   ----------------------------------------
	BYTE	W96
// 006   ----------------------------------------
	BYTE	W96
// 007   ----------------------------------------
RR20_8_007:
	BYTE	W84
	BYTE		N32     Cn1   v096
	BYTE		N32     En1 
	BYTE		N32     Cs2 
	BYTE	W12
	BYTE	PEND
// 008   ----------------------------------------
	BYTE	W96
// 009   ----------------------------------------
	BYTE	PATT
	 POIN2	RR20_8_007
// 010   ----------------------------------------
	BYTE	W96
// 011   ----------------------------------------
	BYTE	PATT
	 POIN2	RR20_8_007
// 012   ----------------------------------------
	BYTE	W96
// 013   ----------------------------------------
	BYTE	PATT
	 POIN2	RR20_8_007
// 014   ----------------------------------------
RR20_8_014:
	BYTE	W88
	BYTE		N30     Cn1   v096
	BYTE		N30     En1 
	BYTE		N30     Cs2 
	BYTE	W08
	BYTE	PEND
// 015   ----------------------------------------
RR20_8_015:
	BYTE	W36
	BYTE		N23     Cn1   v096
	BYTE		N23     En1 
	BYTE		N23     Cs2 
	BYTE	W48
	BYTE		N32     Cn1 
	BYTE		N32     En1 
	BYTE		N32     Cs2 
	BYTE	W12
	BYTE	PEND
// 016   ----------------------------------------
	BYTE	W96
// 017   ----------------------------------------
	BYTE	PATT
	 POIN2	RR20_8_007
// 018   ----------------------------------------
	BYTE	W96
// 019   ----------------------------------------
	BYTE	PATT
	 POIN2	RR20_8_007
// 020   ----------------------------------------
	BYTE	W96
// 021   ----------------------------------------
	BYTE	PATT
	 POIN2	RR20_8_007
// 022   ----------------------------------------
	BYTE	PATT
	 POIN2	RR20_8_014
// 023   ----------------------------------------
RR20_8_023:
	BYTE	W36
	BYTE		N44     Cn1   v096
	BYTE		N44     En1 
	BYTE		N44     Cs2 
	BYTE	W48
	BYTE		N23     Cn1 
	BYTE		N23     En1 
	BYTE		N23     Cs2 
	BYTE	W12
	BYTE	PEND
// 024   ----------------------------------------
RR20_8_024:
	BYTE	W12
	BYTE		N11     Cn1   v096
	BYTE	W12
	BYTE		        En1 
	BYTE		N11     Ds2 
	BYTE	W12
	BYTE		        Cn1 
	BYTE	W12
	BYTE		        Ds2 
	BYTE	W12
	BYTE		        Cn1 
	BYTE	W12
	BYTE		        En1 
	BYTE		N11     Ds2 
	BYTE	W12
	BYTE		        Cn1 
	BYTE	W12
	BYTE	PEND
// 025   ----------------------------------------
RR20_8_025:
	BYTE		N11     Cn1   v096
	BYTE		N11     Ds2 
	BYTE	W12
	BYTE		        Cn1 
	BYTE	W12
	BYTE		        En1 
	BYTE		N11     Ds2 
	BYTE	W12
	BYTE		        Cn1 
	BYTE	W12
	BYTE		N11   
	BYTE		N11     Ds2 
	BYTE	W12
	BYTE		        Cn1 
	BYTE	W12
	BYTE		        En1 
	BYTE		N11     Ds2 
	BYTE	W12
	BYTE		N23     Cn1 
	BYTE		N23     En1 
	BYTE		N23     Cs2 
	BYTE	W12
	BYTE	PEND
// 026   ----------------------------------------
	BYTE	PATT
	 POIN2	RR20_8_024
// 027   ----------------------------------------
	BYTE	PATT
	 POIN2	RR20_8_025
// 028   ----------------------------------------
	BYTE	PATT
	 POIN2	RR20_8_024
// 029   ----------------------------------------
	BYTE	PATT
	 POIN2	RR20_8_025
// 030   ----------------------------------------
RR20_8_030:
	BYTE	W12
	BYTE		N11     Cn1   v096
	BYTE	W12
	BYTE		        En1 
	BYTE		N11     Ds2 
	BYTE	W12
	BYTE		N23     Cn1 
	BYTE		N23     En1 
	BYTE		N23     Cs2 
	BYTE	W24
	BYTE		N11     Cn1 
	BYTE	W12
	BYTE		        En1 
	BYTE		N11     Ds2 
	BYTE	W12
	BYTE		N23     Cn1 
	BYTE		N23     En1 
	BYTE		N23     Cs2 
	BYTE	W12
	BYTE	PEND
// 031   ----------------------------------------
RR20_8_031:
	BYTE	W12
	BYTE		N11     Cn1   v096
	BYTE	W12
	BYTE		        En1 
	BYTE		N11     Ds2 
	BYTE	W12
	BYTE		        Cn1 
	BYTE		N11     En1 
	BYTE		N11     Cs2 
	BYTE	W12
	BYTE		        Cn1 
	BYTE	W12
	BYTE		N11   
	BYTE	W12
	BYTE		        En1 
	BYTE		N11     Ds2 
	BYTE	W12
	BYTE		N23     Cn1 
	BYTE		N23     En1 
	BYTE		N23     Cs2 
	BYTE	W12
	BYTE	PEND
// 032   ----------------------------------------
RR20_8_032:
	BYTE	W12
	BYTE		N11     Cn1   v096
	BYTE	W12
	BYTE		        En1 
	BYTE		N11     Ds2 
	BYTE	W12
	BYTE		        Cn1 
	BYTE	W12
	BYTE		N11   
	BYTE		N11     Ds2 
	BYTE	W12
	BYTE		        Cn1 
	BYTE	W12
	BYTE		        En1 
	BYTE		N11     Ds2 
	BYTE	W12
	BYTE		        Cn1 
	BYTE	W12
	BYTE	PEND
// 033   ----------------------------------------
RR20_8_033:
	BYTE		N11     Cn1   v096
	BYTE		N11     Ds2 
	BYTE	W12
	BYTE		        Cn1 
	BYTE	W12
	BYTE		        En1 
	BYTE		N11     Ds2 
	BYTE	W12
	BYTE		        Cn1 
	BYTE	W12
	BYTE		N11   
	BYTE		N11     Ds2 
	BYTE	W12
	BYTE		        Cn1 
	BYTE	W12
	BYTE		        En1 
	BYTE		N11     Ds2 
	BYTE	W12
	BYTE		        Cn1 
	BYTE		N11     En1 
	BYTE		N11     Cs2 
	BYTE	W12
	BYTE	PEND
// 034   ----------------------------------------
	BYTE		        Cn1 
	BYTE		N11     En1 
	BYTE		N11     Cs2 
	BYTE	W12
	BYTE		        Cn1 
	BYTE	W12
	BYTE		        En1 
	BYTE		N11     Ds2 
	BYTE	W12
	BYTE		        Cn1 
	BYTE	W12
	BYTE		N11   
	BYTE		N11     Ds2 
	BYTE	W12
	BYTE		        Cn1 
	BYTE	W12
	BYTE		        En1 
	BYTE		N11     Ds2 
	BYTE	W12
	BYTE		        Cn1 
	BYTE	W12
// 035   ----------------------------------------
	BYTE	PATT
	 POIN2	RR20_8_025
// 036   ----------------------------------------
	BYTE	PATT
	 POIN2	RR20_8_032
// 037   ----------------------------------------
	BYTE	PATT
	 POIN2	RR20_8_033
// 038   ----------------------------------------
RR20_8_038:
	BYTE		N11     En1   v096
	BYTE	W12
	BYTE		N11   
	BYTE	W12
	BYTE		N11   
	BYTE	W12
	BYTE		N11   
	BYTE	W12
	BYTE		N11   
	BYTE	W12
	BYTE		N11   
	BYTE	W12
	BYTE		N11   
	BYTE	W12
	BYTE		N11   
	BYTE	W12
	BYTE	PEND
// 039   ----------------------------------------
RR20_8_039:
	BYTE		N11     En1   v096
	BYTE	W12
	BYTE		N11   
	BYTE	W12
	BYTE		N11   
	BYTE	W12
	BYTE		N11   
	BYTE	W12
	BYTE		N11   
	BYTE	W12
	BYTE		N11   
	BYTE	W12
	BYTE		N11   
	BYTE	W12
	BYTE		N32     Cn1 
	BYTE		N32     En1 
	BYTE		N32     Cs2 
	BYTE	W12
	BYTE	PEND
// 040   ----------------------------------------
RR20_8_040:
	BYTE	W24
	BYTE		N11     En1   v096
	BYTE		N11     Cs2 
	BYTE	W12
	BYTE		        Cn1 
	BYTE	W12
	BYTE		N11   
	BYTE		N11     Cs2 
	BYTE	W12
	BYTE		        Cn1 
	BYTE	W12
	BYTE		N23     En1 
	BYTE		N23     Cs2 
	BYTE	W24
	BYTE	PEND
// 041   ----------------------------------------
RR20_8_041:
	BYTE		N11     Cs2   v096
	BYTE	W12
	BYTE		        Cn1 
	BYTE	W12
	BYTE		        En1 
	BYTE		N11     Cs2 
	BYTE	W12
	BYTE		        Cn1 
	BYTE	W12
	BYTE		N11   
	BYTE		N11     Cs2 
	BYTE	W12
	BYTE		        Cn1 
	BYTE	W12
	BYTE		        En1 
	BYTE		N11     Cs2 
	BYTE	W12
	BYTE		N23     Cn1 
	BYTE		N23     En1 
	BYTE		N23     Cs2 
	BYTE	W12
	BYTE	PEND
// 042   ----------------------------------------
RR20_8_042:
	BYTE	W12
	BYTE		N11     Cn1   v096
	BYTE	W12
	BYTE		        En1 
	BYTE		N11     Cs2 
	BYTE	W12
	BYTE		        Cn1 
	BYTE	W12
	BYTE		N11   
	BYTE		N11     Cs2 
	BYTE	W12
	BYTE		        Cn1 
	BYTE	W12
	BYTE		N23     En1 
	BYTE		N23     Cs2 
	BYTE	W24
	BYTE	PEND
// 043   ----------------------------------------
	BYTE	PATT
	 POIN2	RR20_8_041
// 044   ----------------------------------------
RR20_8_044:
	BYTE	W12
	BYTE		N11     Cn1   v096
	BYTE	W12
	BYTE		        En1 
	BYTE		N11     Cs2 
	BYTE	W12
	BYTE		        Cn1 
	BYTE	W12
	BYTE		N11   
	BYTE		N11     Cs2 
	BYTE	W12
	BYTE		        Cn1 
	BYTE	W12
	BYTE		        En1 
	BYTE		N11     Cs2 
	BYTE	W12
	BYTE		        Cn1 
	BYTE	W12
	BYTE	PEND
// 045   ----------------------------------------
RR20_8_045:
	BYTE		N23     Cs2   v096
	BYTE	W24
	BYTE		N11     En1 
	BYTE		N11     Cs2 
	BYTE	W12
	BYTE		        Cn1 
	BYTE	W12
	BYTE		N11   
	BYTE		N11     Cs2 
	BYTE	W12
	BYTE		        Cn1 
	BYTE	W12
	BYTE		        En1 
	BYTE		N11     Cs2 
	BYTE	W12
	BYTE		N23     Cn1 
	BYTE		N23     En1 
	BYTE		N23     Cs2 
	BYTE	W12
	BYTE	PEND
// 046   ----------------------------------------
RR20_8_046:
	BYTE	W12
	BYTE		N11     En1   v096
	BYTE	W12
	BYTE		N11   
	BYTE	W12
	BYTE		N23     Cn1 
	BYTE		N23     En1 
	BYTE		N23     Cs2 
	BYTE	W24
	BYTE		N11     En1 
	BYTE	W12
	BYTE		N11   
	BYTE	W12
	BYTE		N23     Cn1 
	BYTE		N23     En1 
	BYTE		N23     Cs2 
	BYTE	W12
	BYTE	PEND
// 047   ----------------------------------------
RR20_8_047:
	BYTE	W12
	BYTE		N11     En1   v096
	BYTE	W12
	BYTE		N11   
	BYTE	W12
	BYTE		        Cn1 
	BYTE		N11     En1 
	BYTE		N11     Cs2 
	BYTE	W12
	BYTE		N05     En1 
	BYTE	W06
	BYTE		N05   
	BYTE	W06
	BYTE		        Dn1 
	BYTE	W06
	BYTE		N05   
	BYTE	W06
	BYTE		        Cn1 
	BYTE	W06
	BYTE		N05   
	BYTE	W06
	BYTE		N23   
	BYTE		N23     En1 
	BYTE		N23     Cs2 
	BYTE	W12
	BYTE	PEND
// 048   ----------------------------------------
	BYTE	PATT
	 POIN2	RR20_8_044
// 049   ----------------------------------------
	BYTE	PATT
	 POIN2	RR20_8_041
// 050   ----------------------------------------
RR20_8_050:
	BYTE	W12
	BYTE		N11     Cn1   v096
	BYTE	W12
	BYTE		N23     En1 
	BYTE		N23     Cs2 
	BYTE	W24
	BYTE		N11     Cn1 
	BYTE		N11     Cs2 
	BYTE	W12
	BYTE		        Cn1 
	BYTE	W12
	BYTE		        En1 
	BYTE		N11     Cs2 
	BYTE	W12
	BYTE		        Cn1 
	BYTE	W12
	BYTE	PEND
// 051   ----------------------------------------
RR20_8_051:
	BYTE		N11     Cn1   v096
	BYTE		N11     Cs2 
	BYTE	W12
	BYTE		        Cn1 
	BYTE	W12
	BYTE		        En1 
	BYTE		N11     Cs2 
	BYTE	W12
	BYTE		        Cn1 
	BYTE	W12
	BYTE		N11   
	BYTE		N11     Cs2 
	BYTE	W12
	BYTE		        Cn1 
	BYTE	W12
	BYTE		        En1 
	BYTE		N11     Cs2 
	BYTE	W12
	BYTE		N23     Cn1 
	BYTE		N23     En1 
	BYTE		N23     Cs2 
	BYTE	W12
	BYTE	PEND
// 052   ----------------------------------------
	BYTE	PATT
	 POIN2	RR20_8_044
// 053   ----------------------------------------
	BYTE	PATT
	 POIN2	RR20_8_051
// 054   ----------------------------------------
	BYTE	PATT
	 POIN2	RR20_8_044
// 055   ----------------------------------------
RR20_8_055:
	BYTE		N11     Cs2   v096
	BYTE	W12
	BYTE		        Cn1 
	BYTE	W12
	BYTE		N23     En1 
	BYTE		N23     Cs2 
	BYTE	W24
	BYTE		N11     Cn1 
	BYTE		N11     Cs2 
	BYTE	W12
	BYTE		        Cn1 
	BYTE	W12
	BYTE		        En1 
	BYTE		N11     Cs2 
	BYTE	W12
	BYTE		N23     Cn1 
	BYTE		N23     En1 
	BYTE		N23     Cs2 
	BYTE	W12
	BYTE	PEND
// 056   ----------------------------------------
	BYTE	PATT
	 POIN2	RR20_8_050
// 057   ----------------------------------------
	BYTE	PATT
	 POIN2	RR20_8_041
// 058   ----------------------------------------
	BYTE	PATT
	 POIN2	RR20_8_050
// 059   ----------------------------------------
RR20_8_059:
	BYTE		N11     Cs2   v096
	BYTE	W12
	BYTE		        Cn1 
	BYTE	W12
	BYTE		        En1 
	BYTE		N11     Cs2 
	BYTE	W12
	BYTE		        Cn1 
	BYTE	W12
	BYTE		N11   
	BYTE		N11     Cs2 
	BYTE	W12
	BYTE		        Cn1 
	BYTE	W12
	BYTE		        En1 
	BYTE		N11     Cs2 
	BYTE	W12
	BYTE		        Cn1 
	BYTE		N11     En1 
	BYTE		N11     Cs2 
	BYTE	W12
	BYTE	PEND
// 060   ----------------------------------------
RR20_8_060:
	BYTE		N05     En1   v096
	BYTE	W06
	BYTE		        Cn1 
	BYTE	W06
	BYTE		        En1 
	BYTE	W06
	BYTE		        Cn1 
	BYTE	W06
	BYTE		        En1 
	BYTE		N05     Cs2 
	BYTE	W06
	BYTE		        Cn1 
	BYTE	W06
	BYTE		        En1 
	BYTE	W06
	BYTE		        Cn1 
	BYTE	W06
	BYTE		        En1 
	BYTE		N05     Cs2 
	BYTE	W06
	BYTE		        Cn1 
	BYTE	W06
	BYTE		        En1 
	BYTE	W06
	BYTE		        Cn1 
	BYTE	W06
	BYTE		        En1 
	BYTE		N05     Cs2 
	BYTE	W06
	BYTE		        Cn1 
	BYTE	W06
	BYTE		        En1 
	BYTE	W06
	BYTE		        Cn1 
	BYTE	W06
	BYTE	PEND
// 061   ----------------------------------------
	BYTE		        En1 
	BYTE		N05     Cs2 
	BYTE	W06
	BYTE		        Cn1 
	BYTE	W06
	BYTE		        En1 
	BYTE	W06
	BYTE		        Cn1 
	BYTE	W06
	BYTE		        En1 
	BYTE		N05     Cs2 
	BYTE	W06
	BYTE		        Cn1 
	BYTE	W06
	BYTE		        En1 
	BYTE	W06
	BYTE		        Cn1 
	BYTE	W06
	BYTE		N44   
	BYTE		N44     En1 
	BYTE		N44     En2 
	BYTE	W48
RR20_8_B1:
// 062   ----------------------------------------
	BYTE	W96
// 063   ----------------------------------------
RR20_8_063:
	BYTE	W84
	BYTE		N23     Cn1   v096
	BYTE		N23     En1 
	BYTE		N23     Cs2 
	BYTE	W12
	BYTE	PEND
// 064   ----------------------------------------
RR20_8_064:
	BYTE	W12
	BYTE		N11     Cn1   v096
	BYTE	W12
	BYTE		        En1 
	BYTE		N11     Cs2 
	BYTE	W12
	BYTE		        Cn1 
	BYTE	W12
	BYTE		N11   
	BYTE	W12
	BYTE		N11   
	BYTE	W12
	BYTE		        En1 
	BYTE		N11     Cs2 
	BYTE	W12
	BYTE		        Cn1 
	BYTE	W12
	BYTE	PEND
// 065   ----------------------------------------
RR20_8_065:
	BYTE		N11     Cn1   v096
	BYTE	W12
	BYTE		N11   
	BYTE	W12
	BYTE		        En1 
	BYTE		N11     Cs2 
	BYTE	W12
	BYTE		        Cn1 
	BYTE	W12
	BYTE		N11   
	BYTE	W12
	BYTE		N11   
	BYTE	W12
	BYTE		        En1 
	BYTE	W12
	BYTE		N23     Cn1 
	BYTE		N23     En1 
	BYTE		N23     Cs2 
	BYTE	W12
	BYTE	PEND
// 066   ----------------------------------------
	BYTE	PATT
	 POIN2	RR20_8_064
// 067   ----------------------------------------
RR20_8_067:
	BYTE		N11     Cn1   v096
	BYTE	W12
	BYTE		N11   
	BYTE	W12
	BYTE		        En1 
	BYTE		N11     Cs2 
	BYTE	W12
	BYTE		        Cn1 
	BYTE	W12
	BYTE		N11   
	BYTE		N11     Cs2 
	BYTE	W12
	BYTE		        Cn1 
	BYTE	W12
	BYTE		        En1 
	BYTE		N11     Cs2 
	BYTE	W12
	BYTE		N23     Cn1 
	BYTE		N23     En1 
	BYTE		N23     Cs2 
	BYTE	W12
	BYTE	PEND
// 068   ----------------------------------------
	BYTE	PATT
	 POIN2	RR20_8_064
// 069   ----------------------------------------
	BYTE	PATT
	 POIN2	RR20_8_067
// 070   ----------------------------------------
	BYTE	PATT
	 POIN2	RR20_8_064
// 071   ----------------------------------------
RR20_8_071:
	BYTE		N11     Cn1   v096
	BYTE		N11     Cs2 
	BYTE	W12
	BYTE		        Cn1 
	BYTE	W12
	BYTE		        En1 
	BYTE		N11     Cs2 
	BYTE	W12
	BYTE		        Cn1 
	BYTE	W12
	BYTE		N11   
	BYTE		N11     Cs2 
	BYTE	W12
	BYTE		        Cn1 
	BYTE	W12
	BYTE		        En1 
	BYTE	W12
	BYTE		N23     Cn1 
	BYTE		N23     En1 
	BYTE		N23     Cs2 
	BYTE	W12
	BYTE	PEND
// 072   ----------------------------------------
	BYTE	PATT
	 POIN2	RR20_8_064
// 073   ----------------------------------------
	BYTE	PATT
	 POIN2	RR20_8_065
// 074   ----------------------------------------
	BYTE	PATT
	 POIN2	RR20_8_064
// 075   ----------------------------------------
	BYTE	PATT
	 POIN2	RR20_8_067
// 076   ----------------------------------------
	BYTE	PATT
	 POIN2	RR20_8_064
// 077   ----------------------------------------
	BYTE	PATT
	 POIN2	RR20_8_067
// 078   ----------------------------------------
	BYTE	W12
	BYTE		N11     Cn1   v096
	BYTE	W12
	BYTE		        En1 
	BYTE		N11     Cs2 
	BYTE	W12
	BYTE		        Cn1 
	BYTE	W12
	BYTE		N11   
	BYTE		N11     Cs2 
	BYTE	W12
	BYTE		        Cn1 
	BYTE	W12
	BYTE		        En1 
	BYTE		N11     Cs2 
	BYTE	W24
// 079   ----------------------------------------
	BYTE		        Cn1 
	BYTE		N11     Cs2 
	BYTE	W12
	BYTE		        Cn1 
	BYTE	W12
	BYTE		        En1 
	BYTE		N11     Cs2 
	BYTE	W12
	BYTE		        Cn1 
	BYTE	W12
	BYTE		N11   
	BYTE		N11     Cs2 
	BYTE	W12
	BYTE		        Cn1 
	BYTE	W12
	BYTE		        En1 
	BYTE		N11     Cs2 
	BYTE	W12
	BYTE		N32     Cn1 
	BYTE		N32     En1 
	BYTE		N32     Cs2 
	BYTE	W12
// 080   ----------------------------------------
	BYTE	W96
// 081   ----------------------------------------
	BYTE	PATT
	 POIN2	RR20_8_007
// 082   ----------------------------------------
	BYTE	W96
// 083   ----------------------------------------
	BYTE	PATT
	 POIN2	RR20_8_007
// 084   ----------------------------------------
	BYTE	W96
// 085   ----------------------------------------
	BYTE	PATT
	 POIN2	RR20_8_007
// 086   ----------------------------------------
	BYTE	PATT
	 POIN2	RR20_8_007
// 087   ----------------------------------------
	BYTE	PATT
	 POIN2	RR20_8_015
// 088   ----------------------------------------
	BYTE	W96
// 089   ----------------------------------------
	BYTE	PATT
	 POIN2	RR20_8_007
// 090   ----------------------------------------
	BYTE	W96
// 091   ----------------------------------------
	BYTE	PATT
	 POIN2	RR20_8_007
// 092   ----------------------------------------
	BYTE	W96
// 093   ----------------------------------------
	BYTE	PATT
	 POIN2	RR20_8_007
// 094   ----------------------------------------
	BYTE	PATT
	 POIN2	RR20_8_007
// 095   ----------------------------------------
	BYTE	PATT
	 POIN2	RR20_8_023
// 096   ----------------------------------------
	BYTE	PATT
	 POIN2	RR20_8_024
// 097   ----------------------------------------
	BYTE	PATT
	 POIN2	RR20_8_025
// 098   ----------------------------------------
	BYTE	PATT
	 POIN2	RR20_8_024
// 099   ----------------------------------------
	BYTE	PATT
	 POIN2	RR20_8_025
// 100   ----------------------------------------
	BYTE	PATT
	 POIN2	RR20_8_032
// 101   ----------------------------------------
	BYTE	PATT
	 POIN2	RR20_8_025
// 102   ----------------------------------------
	BYTE	PATT
	 POIN2	RR20_8_030
// 103   ----------------------------------------
	BYTE	PATT
	 POIN2	RR20_8_031
// 104   ----------------------------------------
	BYTE	PATT
	 POIN2	RR20_8_032
// 105   ----------------------------------------
	BYTE	PATT
	 POIN2	RR20_8_025
// 106   ----------------------------------------
	BYTE	PATT
	 POIN2	RR20_8_032
// 107   ----------------------------------------
	BYTE	PATT
	 POIN2	RR20_8_025
// 108   ----------------------------------------
	BYTE	PATT
	 POIN2	RR20_8_032
// 109   ----------------------------------------
	BYTE	PATT
	 POIN2	RR20_8_033
// 110   ----------------------------------------
	BYTE	PATT
	 POIN2	RR20_8_038
// 111   ----------------------------------------
	BYTE	PATT
	 POIN2	RR20_8_039
// 112   ----------------------------------------
	BYTE	PATT
	 POIN2	RR20_8_040
// 113   ----------------------------------------
	BYTE	PATT
	 POIN2	RR20_8_041
// 114   ----------------------------------------
	BYTE	PATT
	 POIN2	RR20_8_042
// 115   ----------------------------------------
	BYTE	PATT
	 POIN2	RR20_8_041
// 116   ----------------------------------------
	BYTE	PATT
	 POIN2	RR20_8_044
// 117   ----------------------------------------
	BYTE	PATT
	 POIN2	RR20_8_045
// 118   ----------------------------------------
	BYTE	PATT
	 POIN2	RR20_8_046
// 119   ----------------------------------------
	BYTE	PATT
	 POIN2	RR20_8_047
// 120   ----------------------------------------
	BYTE	PATT
	 POIN2	RR20_8_044
// 121   ----------------------------------------
	BYTE	PATT
	 POIN2	RR20_8_041
// 122   ----------------------------------------
	BYTE	PATT
	 POIN2	RR20_8_050
// 123   ----------------------------------------
	BYTE	PATT
	 POIN2	RR20_8_051
// 124   ----------------------------------------
	BYTE	PATT
	 POIN2	RR20_8_044
// 125   ----------------------------------------
	BYTE	PATT
	 POIN2	RR20_8_051
// 126   ----------------------------------------
	BYTE	PATT
	 POIN2	RR20_8_044
// 127   ----------------------------------------
	BYTE	PATT
	 POIN2	RR20_8_055
// 128   ----------------------------------------
	BYTE	PATT
	 POIN2	RR20_8_050
// 129   ----------------------------------------
	BYTE	PATT
	 POIN2	RR20_8_041
// 130   ----------------------------------------
	BYTE	PATT
	 POIN2	RR20_8_050
// 131   ----------------------------------------
	BYTE	PATT
	 POIN2	RR20_8_059
// 132   ----------------------------------------
	BYTE	PATT
	 POIN2	RR20_8_060
// 133   ----------------------------------------
	BYTE		N05     En1   v096
	BYTE		N05     Cs2 
	BYTE	W06
	BYTE		        Cn1 
	BYTE	W06
	BYTE		        En1 
	BYTE	W06
	BYTE		        Cn1 
	BYTE	W06
	BYTE		        En1 
	BYTE		N05     Cs2 
	BYTE	W06
	BYTE		        Cn1 
	BYTE	W06
	BYTE		        En1 
	BYTE	W06
	BYTE		        Cn1 
	BYTE	W06
	BYTE		N44   
	BYTE		N44     En1 
	BYTE		N44     Cs2 
	BYTE	W48
// 134   ----------------------------------------
	BYTE	W96
// 135   ----------------------------------------
	BYTE	PATT
	 POIN2	RR20_8_063
// 136   ----------------------------------------
	BYTE	PATT
	 POIN2	RR20_8_064
// 137   ----------------------------------------
	BYTE	PATT
	 POIN2	RR20_8_065
// 138   ----------------------------------------
	BYTE	PATT
	 POIN2	RR20_8_064
// 139   ----------------------------------------
	BYTE	PATT
	 POIN2	RR20_8_067
// 140   ----------------------------------------
	BYTE	PATT
	 POIN2	RR20_8_064
// 141   ----------------------------------------
	BYTE	PATT
	 POIN2	RR20_8_067
// 142   ----------------------------------------
	BYTE	PATT
	 POIN2	RR20_8_064
// 143   ----------------------------------------
	BYTE	PATT
	 POIN2	RR20_8_071
// 144   ----------------------------------------
	BYTE	PATT
	 POIN2	RR20_8_064
// 145   ----------------------------------------
	BYTE	PATT
	 POIN2	RR20_8_065
// 146   ----------------------------------------
	BYTE	PATT
	 POIN2	RR20_8_064
// 147   ----------------------------------------
	BYTE	PATT
	 POIN2	RR20_8_067
// 148   ----------------------------------------
	BYTE	PATT
	 POIN2	RR20_8_064
// 149   ----------------------------------------
	BYTE	PATT
	 POIN2	RR20_8_067
// 150   ----------------------------------------
	BYTE	PATT
	 POIN2	RR20_8_064
// 151   ----------------------------------------
	BYTE		N11     Cn1   v096
	BYTE		N11     Cs2 
	BYTE	W12
	BYTE		        Cn1 
	BYTE	W12
	BYTE		        En1 
	BYTE		N11     Cs2 
	BYTE	W12
	BYTE		        Cn1 
	BYTE	W12
	BYTE		N11   
	BYTE		N11     Cs2 
	BYTE	W12
	BYTE		        Cn1 
	BYTE	W12
	BYTE		        En1 
	BYTE	W12
	BYTE		N56     Cn1 
	BYTE		N56     En1 
	BYTE		N56     Cs2 
	BYTE	W12
	BYTE	GoTo
	 POIN2	RR20_8_B1
RR20_8_B2:
// 152   ----------------------------------------
	BYTE	W44
	BYTE	W03
	BYTE	FINE

//**************** Track 9 (Midi-Chn.13) ****************//

RR20_9:
	BYTE	KEYSH   RR20_key+0
// 000   ----------------------------------------
	BYTE		VOICE   42
	BYTE		VOL     127*RR20_mvl/mxv
	BYTE		PAN     c_v+0
	BYTE		N11     Bn1   v080
	BYTE	W12
	BYTE		N11   
	BYTE	W12
	BYTE		N11   
	BYTE	W12
	BYTE		N11   
	BYTE	W12
	BYTE		N11   
	BYTE	W12
	BYTE		N11   
	BYTE	W12
	BYTE		N11   
	BYTE	W12
	BYTE		        Bn1   v112
	BYTE	W12
// 001   ----------------------------------------
RR20_9_001:
	BYTE		N11     Bn1   v080
	BYTE	W12
	BYTE		N11   
	BYTE	W12
	BYTE		N11   
	BYTE	W12
	BYTE		N11   
	BYTE	W12
	BYTE		N11   
	BYTE	W12
	BYTE		N11   
	BYTE	W12
	BYTE		N11   
	BYTE	W12
	BYTE		N11   
	BYTE	W12
	BYTE	PEND
// 002   ----------------------------------------
	BYTE	PATT
	 POIN2	RR20_9_001
// 003   ----------------------------------------
	BYTE	PATT
	 POIN2	RR20_9_001
// 004   ----------------------------------------
	BYTE	PATT
	 POIN2	RR20_9_001
// 005   ----------------------------------------
	BYTE	PATT
	 POIN2	RR20_9_001
// 006   ----------------------------------------
	BYTE	PATT
	 POIN2	RR20_9_001
// 007   ----------------------------------------
	BYTE	PATT
	 POIN2	RR20_9_001
// 008   ----------------------------------------
	BYTE	W96
// 009   ----------------------------------------
	BYTE	W96
// 010   ----------------------------------------
	BYTE	W96
// 011   ----------------------------------------
	BYTE	W96
// 012   ----------------------------------------
	BYTE	W96
// 013   ----------------------------------------
	BYTE	W96
// 014   ----------------------------------------
	BYTE	W96
// 015   ----------------------------------------
	BYTE	W96
// 016   ----------------------------------------
	BYTE	W96
// 017   ----------------------------------------
	BYTE	W96
// 018   ----------------------------------------
	BYTE	W96
// 019   ----------------------------------------
	BYTE	W96
// 020   ----------------------------------------
	BYTE	W96
// 021   ----------------------------------------
	BYTE	W96
// 022   ----------------------------------------
	BYTE	W96
// 023   ----------------------------------------
	BYTE	W96
// 024   ----------------------------------------
	BYTE	W96
// 025   ----------------------------------------
	BYTE	W96
// 026   ----------------------------------------
	BYTE	W96
// 027   ----------------------------------------
	BYTE	W96
// 028   ----------------------------------------
	BYTE	W96
// 029   ----------------------------------------
	BYTE	W96
// 030   ----------------------------------------
	BYTE	W96
// 031   ----------------------------------------
	BYTE	W96
// 032   ----------------------------------------
	BYTE	W96
// 033   ----------------------------------------
	BYTE	W96
// 034   ----------------------------------------
	BYTE	W96
// 035   ----------------------------------------
	BYTE	W96
// 036   ----------------------------------------
	BYTE	W96
// 037   ----------------------------------------
	BYTE	W96
// 038   ----------------------------------------
	BYTE	W96
// 039   ----------------------------------------
	BYTE	W96
// 040   ----------------------------------------
	BYTE	W96
// 041   ----------------------------------------
	BYTE	W96
// 042   ----------------------------------------
	BYTE	W96
// 043   ----------------------------------------
	BYTE	W96
// 044   ----------------------------------------
	BYTE	W96
// 045   ----------------------------------------
	BYTE	W96
// 046   ----------------------------------------
	BYTE	W96
// 047   ----------------------------------------
	BYTE	W96
// 048   ----------------------------------------
	BYTE	W96
// 049   ----------------------------------------
	BYTE	W96
// 050   ----------------------------------------
	BYTE	W96
// 051   ----------------------------------------
	BYTE	W96
// 052   ----------------------------------------
	BYTE	W96
// 053   ----------------------------------------
	BYTE	W96
// 054   ----------------------------------------
	BYTE	W96
// 055   ----------------------------------------
	BYTE	W96
// 056   ----------------------------------------
	BYTE	W96
// 057   ----------------------------------------
	BYTE	W96
// 058   ----------------------------------------
	BYTE	W96
// 059   ----------------------------------------
	BYTE	W96
// 060   ----------------------------------------
	BYTE	W96
// 061   ----------------------------------------
	BYTE	W96
RR20_9_B1:
// 062   ----------------------------------------
	BYTE	W96
// 063   ----------------------------------------
	BYTE	W96
// 064   ----------------------------------------
	BYTE	W96
// 065   ----------------------------------------
	BYTE	W96
// 066   ----------------------------------------
	BYTE	W96
// 067   ----------------------------------------
	BYTE	W96
// 068   ----------------------------------------
	BYTE	W96
// 069   ----------------------------------------
	BYTE	W96
// 070   ----------------------------------------
	BYTE	W96
// 071   ----------------------------------------
	BYTE	W96
// 072   ----------------------------------------
	BYTE	W96
// 073   ----------------------------------------
	BYTE	W96
// 074   ----------------------------------------
	BYTE	W96
// 075   ----------------------------------------
	BYTE	W96
// 076   ----------------------------------------
	BYTE	W96
// 077   ----------------------------------------
	BYTE	W96
// 078   ----------------------------------------
	BYTE	W96
// 079   ----------------------------------------
	BYTE	W96
// 080   ----------------------------------------
	BYTE	W96
// 081   ----------------------------------------
	BYTE	W96
// 082   ----------------------------------------
	BYTE	W96
// 083   ----------------------------------------
	BYTE	W96
// 084   ----------------------------------------
	BYTE	W96
// 085   ----------------------------------------
	BYTE	W96
// 086   ----------------------------------------
	BYTE	W96
// 087   ----------------------------------------
	BYTE	W96
// 088   ----------------------------------------
	BYTE	W96
// 089   ----------------------------------------
	BYTE	W96
// 090   ----------------------------------------
	BYTE	W96
// 091   ----------------------------------------
	BYTE	W96
// 092   ----------------------------------------
	BYTE	W96
// 093   ----------------------------------------
	BYTE	W96
// 094   ----------------------------------------
	BYTE	W96
// 095   ----------------------------------------
	BYTE	W96
// 096   ----------------------------------------
	BYTE	W96
// 097   ----------------------------------------
	BYTE	W96
// 098   ----------------------------------------
	BYTE	W96
// 099   ----------------------------------------
	BYTE	W96
// 100   ----------------------------------------
	BYTE	W96
// 101   ----------------------------------------
	BYTE	W96
// 102   ----------------------------------------
	BYTE	W96
// 103   ----------------------------------------
	BYTE	W96
// 104   ----------------------------------------
	BYTE	W96
// 105   ----------------------------------------
	BYTE	W96
// 106   ----------------------------------------
	BYTE	W96
// 107   ----------------------------------------
	BYTE	W96
// 108   ----------------------------------------
	BYTE	W96
// 109   ----------------------------------------
	BYTE	W96
// 110   ----------------------------------------
	BYTE	W96
// 111   ----------------------------------------
	BYTE	W96
// 112   ----------------------------------------
	BYTE	W96
// 113   ----------------------------------------
	BYTE	W96
// 114   ----------------------------------------
	BYTE	W96
// 115   ----------------------------------------
	BYTE	W96
// 116   ----------------------------------------
	BYTE	W96
// 117   ----------------------------------------
	BYTE	W96
// 118   ----------------------------------------
	BYTE	W96
// 119   ----------------------------------------
	BYTE	W96
// 120   ----------------------------------------
	BYTE	W96
// 121   ----------------------------------------
	BYTE	W96
// 122   ----------------------------------------
	BYTE	W96
// 123   ----------------------------------------
	BYTE	W96
// 124   ----------------------------------------
	BYTE	W96
// 125   ----------------------------------------
	BYTE	W96
// 126   ----------------------------------------
	BYTE	W96
// 127   ----------------------------------------
	BYTE	W96
// 128   ----------------------------------------
	BYTE	W96
// 129   ----------------------------------------
	BYTE	W96
// 130   ----------------------------------------
	BYTE	W96
// 131   ----------------------------------------
	BYTE	W96
// 132   ----------------------------------------
	BYTE	W96
// 133   ----------------------------------------
	BYTE	W96
// 134   ----------------------------------------
	BYTE	W96
// 135   ----------------------------------------
	BYTE	W96
// 136   ----------------------------------------
	BYTE	W96
// 137   ----------------------------------------
	BYTE	W96
// 138   ----------------------------------------
	BYTE	W96
// 139   ----------------------------------------
	BYTE	W96
// 140   ----------------------------------------
	BYTE	W96
// 141   ----------------------------------------
	BYTE	W96
// 142   ----------------------------------------
	BYTE	W96
// 143   ----------------------------------------
	BYTE	W96
// 144   ----------------------------------------
	BYTE	W96
// 145   ----------------------------------------
	BYTE	W96
// 146   ----------------------------------------
	BYTE	W96
// 147   ----------------------------------------
	BYTE	W96
// 148   ----------------------------------------
	BYTE	W96
// 149   ----------------------------------------
	BYTE	W96
// 150   ----------------------------------------
	BYTE	W96
// 151   ----------------------------------------
	BYTE	W96
	BYTE	GoTo
	 POIN2	RR20_9_B1
RR20_9_B2:
// 152   ----------------------------------------
	BYTE	W44
	BYTE	W03
	BYTE	FINE

//**************** Track 10 (Midi-Chn.16) ****************//

RR20_10:
	BYTE	KEYSH   RR20_key+0
// 000   ----------------------------------------
	BYTE		VOICE   42
	BYTE		VOL     127*RR20_mvl/mxv
	BYTE		PAN     c_v+0
	BYTE		TIE     Bn0   v080
	BYTE	W96
// 001   ----------------------------------------
	BYTE	W96
// 002   ----------------------------------------
	BYTE	W96
// 003   ----------------------------------------
	BYTE	W96
// 004   ----------------------------------------
	BYTE	W96
// 005   ----------------------------------------
	BYTE	W96
// 006   ----------------------------------------
	BYTE	W96
// 007   ----------------------------------------
	BYTE	W92
	BYTE	W03
	BYTE		EOT   
	BYTE	W01
// 008   ----------------------------------------
	BYTE	W96
// 009   ----------------------------------------
	BYTE	W96
// 010   ----------------------------------------
	BYTE	W96
// 011   ----------------------------------------
	BYTE	W96
// 012   ----------------------------------------
	BYTE	W96
// 013   ----------------------------------------
	BYTE	W96
// 014   ----------------------------------------
	BYTE	W96
// 015   ----------------------------------------
	BYTE	W96
// 016   ----------------------------------------
	BYTE	W96
// 017   ----------------------------------------
	BYTE	W96
// 018   ----------------------------------------
	BYTE	W96
// 019   ----------------------------------------
	BYTE	W96
// 020   ----------------------------------------
	BYTE	W96
// 021   ----------------------------------------
	BYTE	W96
// 022   ----------------------------------------
	BYTE	W96
// 023   ----------------------------------------
	BYTE	W96
// 024   ----------------------------------------
	BYTE	W96
// 025   ----------------------------------------
	BYTE	W96
// 026   ----------------------------------------
	BYTE	W96
// 027   ----------------------------------------
	BYTE	W96
// 028   ----------------------------------------
	BYTE	W96
// 029   ----------------------------------------
	BYTE	W96
// 030   ----------------------------------------
	BYTE	W96
// 031   ----------------------------------------
	BYTE	W96
// 032   ----------------------------------------
	BYTE	W96
// 033   ----------------------------------------
	BYTE	W96
// 034   ----------------------------------------
	BYTE	W96
// 035   ----------------------------------------
	BYTE	W96
// 036   ----------------------------------------
	BYTE	W96
// 037   ----------------------------------------
	BYTE	W96
// 038   ----------------------------------------
	BYTE	W96
// 039   ----------------------------------------
	BYTE	W96
// 040   ----------------------------------------
	BYTE	W96
// 041   ----------------------------------------
	BYTE	W96
// 042   ----------------------------------------
	BYTE	W96
// 043   ----------------------------------------
	BYTE	W96
// 044   ----------------------------------------
	BYTE	W96
// 045   ----------------------------------------
	BYTE	W96
// 046   ----------------------------------------
	BYTE	W96
// 047   ----------------------------------------
	BYTE	W96
// 048   ----------------------------------------
	BYTE	W96
// 049   ----------------------------------------
	BYTE	W96
// 050   ----------------------------------------
	BYTE	W96
// 051   ----------------------------------------
	BYTE	W96
// 052   ----------------------------------------
	BYTE	W96
// 053   ----------------------------------------
	BYTE	W96
// 054   ----------------------------------------
	BYTE	W96
// 055   ----------------------------------------
	BYTE	W96
// 056   ----------------------------------------
	BYTE	W96
// 057   ----------------------------------------
	BYTE	W96
// 058   ----------------------------------------
	BYTE	W96
// 059   ----------------------------------------
	BYTE	W96
// 060   ----------------------------------------
	BYTE	W96
// 061   ----------------------------------------
	BYTE	W96
RR20_10_B1:
// 062   ----------------------------------------
	BYTE	W96
// 063   ----------------------------------------
	BYTE	W96
// 064   ----------------------------------------
	BYTE	W96
// 065   ----------------------------------------
	BYTE	W96
// 066   ----------------------------------------
	BYTE	W96
// 067   ----------------------------------------
	BYTE	W96
// 068   ----------------------------------------
	BYTE	W96
// 069   ----------------------------------------
	BYTE	W96
// 070   ----------------------------------------
	BYTE	W96
// 071   ----------------------------------------
	BYTE	W96
// 072   ----------------------------------------
	BYTE	W96
// 073   ----------------------------------------
	BYTE	W96
// 074   ----------------------------------------
	BYTE	W96
// 075   ----------------------------------------
	BYTE	W96
// 076   ----------------------------------------
	BYTE	W96
// 077   ----------------------------------------
	BYTE	W96
// 078   ----------------------------------------
	BYTE	W96
// 079   ----------------------------------------
	BYTE	W96
// 080   ----------------------------------------
	BYTE	W96
// 081   ----------------------------------------
	BYTE	W96
// 082   ----------------------------------------
	BYTE	W96
// 083   ----------------------------------------
	BYTE	W96
// 084   ----------------------------------------
	BYTE	W96
// 085   ----------------------------------------
	BYTE	W96
// 086   ----------------------------------------
	BYTE	W96
// 087   ----------------------------------------
	BYTE	W96
// 088   ----------------------------------------
	BYTE	W96
// 089   ----------------------------------------
	BYTE	W96
// 090   ----------------------------------------
	BYTE	W96
// 091   ----------------------------------------
	BYTE	W96
// 092   ----------------------------------------
	BYTE	W96
// 093   ----------------------------------------
	BYTE	W96
// 094   ----------------------------------------
	BYTE	W96
// 095   ----------------------------------------
	BYTE	W96
// 096   ----------------------------------------
	BYTE	W96
// 097   ----------------------------------------
	BYTE	W96
// 098   ----------------------------------------
	BYTE	W96
// 099   ----------------------------------------
	BYTE	W96
// 100   ----------------------------------------
	BYTE	W96
// 101   ----------------------------------------
	BYTE	W96
// 102   ----------------------------------------
	BYTE	W96
// 103   ----------------------------------------
	BYTE	W96
// 104   ----------------------------------------
	BYTE	W96
// 105   ----------------------------------------
	BYTE	W96
// 106   ----------------------------------------
	BYTE	W96
// 107   ----------------------------------------
	BYTE	W96
// 108   ----------------------------------------
	BYTE	W96
// 109   ----------------------------------------
	BYTE	W96
// 110   ----------------------------------------
	BYTE	W96
// 111   ----------------------------------------
	BYTE	W96
// 112   ----------------------------------------
	BYTE	W96
// 113   ----------------------------------------
	BYTE	W96
// 114   ----------------------------------------
	BYTE	W96
// 115   ----------------------------------------
	BYTE	W96
// 116   ----------------------------------------
	BYTE	W96
// 117   ----------------------------------------
	BYTE	W96
// 118   ----------------------------------------
	BYTE	W96
// 119   ----------------------------------------
	BYTE	W96
// 120   ----------------------------------------
	BYTE	W96
// 121   ----------------------------------------
	BYTE	W96
// 122   ----------------------------------------
	BYTE	W96
// 123   ----------------------------------------
	BYTE	W96
// 124   ----------------------------------------
	BYTE	W96
// 125   ----------------------------------------
	BYTE	W96
// 126   ----------------------------------------
	BYTE	W96
// 127   ----------------------------------------
	BYTE	W96
// 128   ----------------------------------------
	BYTE	W96
// 129   ----------------------------------------
	BYTE	W96
// 130   ----------------------------------------
	BYTE	W96
// 131   ----------------------------------------
	BYTE	W96
// 132   ----------------------------------------
	BYTE	W96
// 133   ----------------------------------------
	BYTE	W96
// 134   ----------------------------------------
	BYTE	W96
// 135   ----------------------------------------
	BYTE	W96
// 136   ----------------------------------------
	BYTE	W96
// 137   ----------------------------------------
	BYTE	W96
// 138   ----------------------------------------
	BYTE	W96
// 139   ----------------------------------------
	BYTE	W96
// 140   ----------------------------------------
	BYTE	W96
// 141   ----------------------------------------
	BYTE	W96
// 142   ----------------------------------------
	BYTE	W96
// 143   ----------------------------------------
	BYTE	W96
// 144   ----------------------------------------
	BYTE	W96
// 145   ----------------------------------------
	BYTE	W96
// 146   ----------------------------------------
	BYTE	W96
// 147   ----------------------------------------
	BYTE	W96
// 148   ----------------------------------------
	BYTE	W96
// 149   ----------------------------------------
	BYTE	W96
// 150   ----------------------------------------
	BYTE	W96
// 151   ----------------------------------------
	BYTE	W96
	BYTE	GoTo
	 POIN2	RR20_10_B1
RR20_10_B2:
// 152   ----------------------------------------
	BYTE	W44
	BYTE	W03
	BYTE	FINE

//******************************************************//
	ALIGN 4

RR20:
	BYTE	10	// NumTrks
	BYTE	0	// NumBlks
	BYTE	RR20_pri	// Priority
	BYTE	RR20_rev	// Reverb.

	POIN2	RR20_grp

	POIN2	RR20_1
	POIN2	RR20_2
	POIN2	RR20_3
	POIN2	RR20_4
	POIN2	RR20_5
	POIN2	RR20_6
	POIN2	RR20_7
	POIN2	RR20_8
	POIN2	RR20_9
	POIN2	RR20_10

	
