//Event file generated from Sappy .s format.
	#include "MPlayDef.event"

	#define	Saga_grp  voicegroup000
	#define	Saga_pri  0
	#define	Saga_rev  0
	#define	Saga_mvl  67
	#define	Saga_key  0
	#define	Saga_tbs  1
	#define	Saga_exg  0
	#define	Saga_cmp  1

	// .rodata
	//	Saga
	ALIGN 4

//**************** Track 1 (Midi-Chn.1) ****************//

Saga_1:
	BYTE	KEYSH   Saga_key+0
// 000   ----------------------------------------
	BYTE	TEMPO   105*Saga_tbs/2
	BYTE		VOICE   46
	BYTE	W96
Saga_1_B1:
// 001   ----------------------------------------
	BYTE		VOL     105*Saga_mvl/mxv
	BYTE		PAN     c_v-8
	BYTE		N88     Dn2   v104
	BYTE		N88     An2   v112
	BYTE		N24     Cn4   v064
	BYTE	W96
// 002   ----------------------------------------
Saga_1_002:
	BYTE		N80     Dn2   v104
	BYTE		N84     An2   v116
	BYTE	W96
	BYTE	PEND
// 003   ----------------------------------------
Saga_1_003:
	BYTE		N42     Fn2   v104
	BYTE		N44     Cn3   v108
	BYTE	W48
	BYTE		N19     En2   v104
	BYTE		N21     Bn2   v100
	BYTE	W24
	BYTE		N18     Cn2   v108
	BYTE		N20     Gn2   v096
	BYTE	W24
	BYTE	PEND
// 004   ----------------------------------------
Saga_1_004:
	BYTE		N84     Dn2   v104
	BYTE		N84     An2   v112
	BYTE	W96
	BYTE	PEND
// 005   ----------------------------------------
Saga_1_005:
	BYTE		N84     Dn2   v104
	BYTE		N84     An2   v108
	BYTE	W96
	BYTE	PEND
// 006   ----------------------------------------
Saga_1_006:
	BYTE		N78     Dn2   v108
	BYTE		N80     An2   v104
	BYTE	W96
	BYTE	PEND
// 007   ----------------------------------------
Saga_1_007:
	BYTE		N42     Fn2   v100
	BYTE		N44     Cn3   v112
	BYTE	W48
	BYTE		N19     En2   v100
	BYTE		N20     Bn2   v108
	BYTE	W24
	BYTE		N17     Cn2   v104
	BYTE		N19     Gn2   v100
	BYTE	W24
	BYTE	PEND
// 008   ----------------------------------------
Saga_1_008:
	BYTE		N76     Dn2   v104
	BYTE		N78     An2   v116
	BYTE	W96
	BYTE	PEND
// 009   ----------------------------------------
	BYTE		PAN     c_v-6
	BYTE		N88     Dn2   v104
	BYTE		N88     An2   v112
	BYTE	W96
// 010   ----------------------------------------
	BYTE	PATT
	 POIN2	Saga_1_002
// 011   ----------------------------------------
	BYTE	PATT
	 POIN2	Saga_1_003
// 012   ----------------------------------------
	BYTE	PATT
	 POIN2	Saga_1_004
// 013   ----------------------------------------
	BYTE	PATT
	 POIN2	Saga_1_005
// 014   ----------------------------------------
	BYTE	PATT
	 POIN2	Saga_1_006
// 015   ----------------------------------------
	BYTE	PATT
	 POIN2	Saga_1_007
// 016   ----------------------------------------
	BYTE	PATT
	 POIN2	Saga_1_008
// 017   ----------------------------------------
Saga_1_017:
	BYTE		N88     Dn2   v104
	BYTE		N88     An2   v112
	BYTE	W96
	BYTE	PEND
// 018   ----------------------------------------
	BYTE	PATT
	 POIN2	Saga_1_002
// 019   ----------------------------------------
	BYTE	PATT
	 POIN2	Saga_1_003
// 020   ----------------------------------------
	BYTE	PATT
	 POIN2	Saga_1_004
// 021   ----------------------------------------
	BYTE	PATT
	 POIN2	Saga_1_005
// 022   ----------------------------------------
	BYTE	PATT
	 POIN2	Saga_1_006
// 023   ----------------------------------------
	BYTE	PATT
	 POIN2	Saga_1_007
// 024   ----------------------------------------
	BYTE	PATT
	 POIN2	Saga_1_008
// 025   ----------------------------------------
Saga_1_025:
	BYTE		N88     An1   v104
	BYTE		N88     En2   v112
	BYTE	W96
	BYTE	PEND
// 026   ----------------------------------------
Saga_1_026:
	BYTE		N80     An1   v104
	BYTE		N84     En2   v116
	BYTE	W96
	BYTE	PEND
// 027   ----------------------------------------
Saga_1_027:
	BYTE		N42     Cn2   v104
	BYTE		N44     Gn2   v108
	BYTE	W48
	BYTE		N19     Bn1   v104
	BYTE		N21     Fs2   v100
	BYTE	W24
	BYTE		N18     Gn1   v108
	BYTE		N20     Dn2   v096
	BYTE	W24
	BYTE	PEND
// 028   ----------------------------------------
Saga_1_028:
	BYTE		N84     An1   v104
	BYTE		N84     En2   v112
	BYTE	W96
	BYTE	PEND
// 029   ----------------------------------------
Saga_1_029:
	BYTE		N84     An1   v104
	BYTE		N84     En2   v108
	BYTE	W96
	BYTE	PEND
// 030   ----------------------------------------
Saga_1_030:
	BYTE		N78     An1   v108
	BYTE		N80     En2   v104
	BYTE	W96
	BYTE	PEND
// 031   ----------------------------------------
Saga_1_031:
	BYTE		N42     Cn2   v100
	BYTE		N44     Gn2   v112
	BYTE	W48
	BYTE		N19     Bn1   v100
	BYTE		N20     Fs2   v108
	BYTE	W24
	BYTE		N17     Gn1   v104
	BYTE		N19     Dn2   v100
	BYTE	W24
	BYTE	PEND
// 032   ----------------------------------------
Saga_1_032:
	BYTE		N76     An1   v104
	BYTE		N78     En2   v116
	BYTE	W96
	BYTE	PEND
// 033   ----------------------------------------
	BYTE	PATT
	 POIN2	Saga_1_017
// 034   ----------------------------------------
	BYTE	PATT
	 POIN2	Saga_1_002
// 035   ----------------------------------------
	BYTE	PATT
	 POIN2	Saga_1_003
// 036   ----------------------------------------
	BYTE	PATT
	 POIN2	Saga_1_004
// 037   ----------------------------------------
	BYTE	PATT
	 POIN2	Saga_1_005
// 038   ----------------------------------------
	BYTE	PATT
	 POIN2	Saga_1_006
// 039   ----------------------------------------
	BYTE	PATT
	 POIN2	Saga_1_007
// 040   ----------------------------------------
	BYTE	PATT
	 POIN2	Saga_1_008
// 041   ----------------------------------------
	BYTE	W96
// 042   ----------------------------------------
	BYTE	W96
// 043   ----------------------------------------
	BYTE	W96
// 044   ----------------------------------------
	BYTE	W96
// 045   ----------------------------------------
	BYTE	W96
// 046   ----------------------------------------
	BYTE	W96
// 047   ----------------------------------------
	BYTE	W96
// 048   ----------------------------------------
	BYTE	W96
// 049   ----------------------------------------
Saga_1_049:
	BYTE		N02     Gn4   v072
	BYTE		N02     As4   v100
	BYTE	W24
	BYTE		        Gn4   v076
	BYTE		N03     As4   v100
	BYTE	W12
	BYTE		N04     Dn4   v080
	BYTE		N03     Gn4   v060
	BYTE	W12
	BYTE		N02     As3   v096
	BYTE		N01     Dn4   v040
	BYTE	W24
	BYTE		N02     Gn3   v080
	BYTE		N03     As3   v092
	BYTE	W12
	BYTE		N02     As3   v076
	BYTE		N02     Dn4   v068
	BYTE	W12
	BYTE	PEND
// 050   ----------------------------------------
Saga_1_050:
	BYTE		N03     Dn4   v084
	BYTE		N02     Gn4   v092
	BYTE	W24
	BYTE		N03     Gn3   v068
	BYTE		N03     As3   v084
	BYTE	W12
	BYTE		        As3   v092
	BYTE		N03     Dn4   v076
	BYTE	W12
	BYTE		        Dn4   v072
	BYTE		N03     Gn4   v084
	BYTE	W12
	BYTE		N02     As4   v100
	BYTE	W12
	BYTE		N03     Gn4   v080
	BYTE	W12
	BYTE		N02     As3   v096
	BYTE		N02     Dn4   v060
	BYTE	W12
	BYTE	PEND
// 051   ----------------------------------------
Saga_1_051:
	BYTE		N02     As3   v096
	BYTE		N03     Ds4   v088
	BYTE	W24
	BYTE		N02     Gn3   v068
	BYTE		N03     As3   v096
	BYTE	W12
	BYTE		N02     As3   v084
	BYTE		N03     Ds4   v100
	BYTE	W12
	BYTE		        As3   v040
	BYTE		N04     Ds4   v080
	BYTE		N04     Gn4   v068
	BYTE	W24
	BYTE		N03     As3   v076
	BYTE		N02     Ds4   v080
	BYTE	W12
	BYTE		N03     Ds4   v076
	BYTE		N03     Gn4   v068
	BYTE	W12
	BYTE	PEND
// 052   ----------------------------------------
Saga_1_052:
	BYTE		N03     Ds4   v076
	BYTE		N04     Fn4   v092
	BYTE	W24
	BYTE		N02     Ds4   v072
	BYTE		N03     Gn4   v080
	BYTE	W12
	BYTE		        Gn4   v072
	BYTE		N02     As4   v088
	BYTE	W12
	BYTE		N03     Ds4   v084
	BYTE		N03     Gn4   v080
	BYTE	W12
	BYTE		N02     As3   v096
	BYTE		N02     Ds4   v076
	BYTE	W12
	BYTE		N03     Gn3 
	BYTE		N02     As3   v096
	BYTE	W24
	BYTE	PEND
// 053   ----------------------------------------
	BYTE	PATT
	 POIN2	Saga_1_049
// 054   ----------------------------------------
	BYTE	PATT
	 POIN2	Saga_1_050
// 055   ----------------------------------------
	BYTE	PATT
	 POIN2	Saga_1_051
// 056   ----------------------------------------
	BYTE	PATT
	 POIN2	Saga_1_052
// 057   ----------------------------------------
Saga_1_057:
	BYTE		TIE     An2   v104
	BYTE		TIE     En3   v112
	BYTE	W96
	BYTE	PEND
// 058   ----------------------------------------
	BYTE	W48
	BYTE		EOT     An2 
	BYTE		        En3 
	BYTE		N48     As2   v104
	BYTE		N48     Fn3   v112
	BYTE	W48
// 059   ----------------------------------------
Saga_1_059:
	BYTE		TIE     Gn2   v104
	BYTE		TIE     Dn3   v112
	BYTE	W96
	BYTE	PEND
// 060   ----------------------------------------
	BYTE	W92
	BYTE	W02
	BYTE		EOT     Gn2 
	BYTE		        Dn3 
	BYTE	W02
// 061   ----------------------------------------
	BYTE	PATT
	 POIN2	Saga_1_057
// 062   ----------------------------------------
	BYTE	W48
	BYTE		EOT     An2 
	BYTE		        En3 
	BYTE		N48     As2   v104
	BYTE		N48     Fn3   v112
	BYTE	W48
// 063   ----------------------------------------
	BYTE	PATT
	 POIN2	Saga_1_059
// 064   ----------------------------------------
	BYTE	W92
	BYTE	W02
	BYTE		EOT     Gn2 
	BYTE		        Dn3 
	BYTE	W02
// 065   ----------------------------------------
	BYTE	PATT
	 POIN2	Saga_1_017
// 066   ----------------------------------------
	BYTE	PATT
	 POIN2	Saga_1_002
// 067   ----------------------------------------
	BYTE	PATT
	 POIN2	Saga_1_003
// 068   ----------------------------------------
	BYTE	PATT
	 POIN2	Saga_1_004
// 069   ----------------------------------------
	BYTE	PATT
	 POIN2	Saga_1_005
// 070   ----------------------------------------
	BYTE	PATT
	 POIN2	Saga_1_006
// 071   ----------------------------------------
	BYTE	PATT
	 POIN2	Saga_1_007
// 072   ----------------------------------------
	BYTE	PATT
	 POIN2	Saga_1_008
// 073   ----------------------------------------
Saga_1_073:
	BYTE		N42     Dn2   v104
	BYTE	W06
	BYTE		N36     Fn2   v088
	BYTE	W06
	BYTE		N06     Gn2   v076
	BYTE	W06
	BYTE		N07     An2   v068
	BYTE	W06
	BYTE		N08     Dn3   v072
	BYTE	W06
	BYTE		N07     Cn3   v096
	BYTE	W06
	BYTE		N05     An2   v084
	BYTE	W06
	BYTE		N04     Gn2   v076
	BYTE	W06
	BYTE		N36     Dn2   v092
	BYTE	W06
	BYTE		N30     Fn2   v108
	BYTE	W06
	BYTE		N06     Gn2   v060
	BYTE	W06
	BYTE		        An2   v084
	BYTE	W06
	BYTE		N07     Dn3   v080
	BYTE	W06
	BYTE		N06     Cn3   v092
	BYTE	W06
	BYTE		        An2   v084
	BYTE	W06
	BYTE		N04     Gn2   v080
	BYTE	W06
	BYTE	PEND
// 074   ----------------------------------------
	BYTE	PATT
	 POIN2	Saga_1_073
// 075   ----------------------------------------
	BYTE	PATT
	 POIN2	Saga_1_073
// 076   ----------------------------------------
	BYTE	PATT
	 POIN2	Saga_1_073
// 077   ----------------------------------------
	BYTE	PATT
	 POIN2	Saga_1_073
// 078   ----------------------------------------
	BYTE	PATT
	 POIN2	Saga_1_073
// 079   ----------------------------------------
	BYTE	PATT
	 POIN2	Saga_1_073
// 080   ----------------------------------------
	BYTE	PATT
	 POIN2	Saga_1_073
// 081   ----------------------------------------
	BYTE	PATT
	 POIN2	Saga_1_073
// 082   ----------------------------------------
	BYTE	PATT
	 POIN2	Saga_1_073
// 083   ----------------------------------------
	BYTE	PATT
	 POIN2	Saga_1_073
// 084   ----------------------------------------
	BYTE	PATT
	 POIN2	Saga_1_073
// 085   ----------------------------------------
	BYTE	PATT
	 POIN2	Saga_1_073
// 086   ----------------------------------------
	BYTE	PATT
	 POIN2	Saga_1_073
// 087   ----------------------------------------
	BYTE	PATT
	 POIN2	Saga_1_073
// 088   ----------------------------------------
	BYTE	PATT
	 POIN2	Saga_1_073
// 089   ----------------------------------------
	BYTE	PATT
	 POIN2	Saga_1_017
// 090   ----------------------------------------
	BYTE	PATT
	 POIN2	Saga_1_002
// 091   ----------------------------------------
	BYTE	PATT
	 POIN2	Saga_1_003
// 092   ----------------------------------------
	BYTE	PATT
	 POIN2	Saga_1_004
// 093   ----------------------------------------
	BYTE	PATT
	 POIN2	Saga_1_005
// 094   ----------------------------------------
	BYTE	PATT
	 POIN2	Saga_1_006
// 095   ----------------------------------------
	BYTE	PATT
	 POIN2	Saga_1_007
// 096   ----------------------------------------
	BYTE	PATT
	 POIN2	Saga_1_008
// 097   ----------------------------------------
	BYTE	PATT
	 POIN2	Saga_1_025
// 098   ----------------------------------------
	BYTE	PATT
	 POIN2	Saga_1_026
// 099   ----------------------------------------
	BYTE	PATT
	 POIN2	Saga_1_027
// 100   ----------------------------------------
	BYTE	PATT
	 POIN2	Saga_1_028
// 101   ----------------------------------------
	BYTE	PATT
	 POIN2	Saga_1_029
// 102   ----------------------------------------
	BYTE	PATT
	 POIN2	Saga_1_030
// 103   ----------------------------------------
	BYTE	PATT
	 POIN2	Saga_1_031
// 104   ----------------------------------------
	BYTE	PATT
	 POIN2	Saga_1_032
// 105   ----------------------------------------
	BYTE	PATT
	 POIN2	Saga_1_057
// 106   ----------------------------------------
	BYTE	W48
	BYTE		EOT     An2 
	BYTE		        En3 
	BYTE		N48     As2   v104
	BYTE		N48     Fn3   v112
	BYTE	W48
// 107   ----------------------------------------
	BYTE	PATT
	 POIN2	Saga_1_059
// 108   ----------------------------------------
	BYTE	W92
	BYTE	W02
	BYTE		EOT     Gn2 
	BYTE		        Dn3 
	BYTE	W02
// 109   ----------------------------------------
	BYTE	PATT
	 POIN2	Saga_1_057
// 110   ----------------------------------------
	BYTE	W48
	BYTE		EOT     An2 
	BYTE		        En3 
	BYTE		N48     As2   v104
	BYTE		N48     Fn3   v112
	BYTE	W48
// 111   ----------------------------------------
	BYTE	PATT
	 POIN2	Saga_1_059
// 112   ----------------------------------------
	BYTE	W92
	BYTE	W02
	BYTE		EOT     Gn2 
	BYTE		        Dn3 
	BYTE	W02
// 113   ----------------------------------------
	BYTE	PATT
	 POIN2	Saga_1_017
// 114   ----------------------------------------
	BYTE	PATT
	 POIN2	Saga_1_002
// 115   ----------------------------------------
	BYTE	PATT
	 POIN2	Saga_1_003
// 116   ----------------------------------------
	BYTE	PATT
	 POIN2	Saga_1_004
// 117   ----------------------------------------
	BYTE	PATT
	 POIN2	Saga_1_005
// 118   ----------------------------------------
	BYTE	PATT
	 POIN2	Saga_1_006
// 119   ----------------------------------------
	BYTE	PATT
	 POIN2	Saga_1_007
// 120   ----------------------------------------
	BYTE	PATT
	 POIN2	Saga_1_008
// 121   ----------------------------------------
	BYTE	PATT
	 POIN2	Saga_1_017
// 122   ----------------------------------------
	BYTE	PATT
	 POIN2	Saga_1_002
// 123   ----------------------------------------
	BYTE	PATT
	 POIN2	Saga_1_003
// 124   ----------------------------------------
	BYTE	PATT
	 POIN2	Saga_1_004
// 125   ----------------------------------------
	BYTE	PATT
	 POIN2	Saga_1_005
// 126   ----------------------------------------
	BYTE	PATT
	 POIN2	Saga_1_006
// 127   ----------------------------------------
	BYTE	PATT
	 POIN2	Saga_1_007
// 128   ----------------------------------------
	BYTE	PATT
	 POIN2	Saga_1_008
// 129   ----------------------------------------
	BYTE	W96
// 130   ----------------------------------------
	BYTE	W96
// 131   ----------------------------------------
	BYTE	W96
// 132   ----------------------------------------
	BYTE	W96
// 133   ----------------------------------------
	BYTE	W06
	BYTE	GoTo
	 POIN2	Saga_1_B1
Saga_1_B2:
	BYTE	W90
// 134   ----------------------------------------
	BYTE	W96
// 135   ----------------------------------------
	BYTE	W96
// 136   ----------------------------------------
	BYTE	W14
	BYTE	FINE

//**************** Track 2 (Midi-Chn.2) ****************//

Saga_2:
	BYTE	KEYSH   Saga_key+0
// 000   ----------------------------------------
	BYTE		VOICE   52
	BYTE	W96
Saga_2_B1:
// 001   ----------------------------------------
	BYTE		VOL     107*Saga_mvl/mxv
	BYTE		PAN     c_v-22
	BYTE		N90     Dn1   v084
	BYTE		N92     An1   v112
	BYTE	W96
// 002   ----------------------------------------
Saga_2_002:
	BYTE		N92     Dn1   v096
	BYTE		TIE     An1   v104
	BYTE	W96
	BYTE	PEND
// 003   ----------------------------------------
Saga_2_003:
	BYTE		N44     Fn1   v100
	BYTE		N48     Cn2   v104
	BYTE	W01
	BYTE	PEND
	BYTE		EOT     An1 
	BYTE	W44
	BYTE	W03
	BYTE		N23     En1   v092
	BYTE		N24     Bn1   v104
	BYTE	W24
	BYTE		        Cn1   v092
	BYTE		N23     Gn1   v104
	BYTE	W24
// 004   ----------------------------------------
Saga_2_004:
	BYTE		N92     Dn1   v124
	BYTE		N92     An1   v100
	BYTE	W96
	BYTE	PEND
// 005   ----------------------------------------
Saga_2_005:
	BYTE		N90     Dn1   v084
	BYTE		N92     An1   v112
	BYTE	W96
	BYTE	PEND
// 006   ----------------------------------------
	BYTE	PATT
	 POIN2	Saga_2_002
// 007   ----------------------------------------
	BYTE	PATT
	 POIN2	Saga_2_003
	BYTE		EOT     An1 
	BYTE	W44
	BYTE	W03
	BYTE		N23     En1   v092
	BYTE		N24     Bn1   v104
	BYTE	W24
	BYTE		        Cn1   v092
	BYTE		N23     Gn1   v104
	BYTE	W24
// 008   ----------------------------------------
	BYTE	PATT
	 POIN2	Saga_2_004
// 009   ----------------------------------------
	BYTE		VOL     109*Saga_mvl/mxv
	BYTE		N90     Dn1   v084
	BYTE		N92     An1   v112
	BYTE	W96
// 010   ----------------------------------------
	BYTE	PATT
	 POIN2	Saga_2_002
// 011   ----------------------------------------
	BYTE	PATT
	 POIN2	Saga_2_003
	BYTE		EOT     An1 
	BYTE	W44
	BYTE	W03
	BYTE		N23     En1   v092
	BYTE		N24     Bn1   v104
	BYTE	W24
	BYTE		        Cn1   v092
	BYTE		N23     Gn1   v104
	BYTE	W24
// 012   ----------------------------------------
	BYTE	PATT
	 POIN2	Saga_2_004
// 013   ----------------------------------------
	BYTE	PATT
	 POIN2	Saga_2_005
// 014   ----------------------------------------
	BYTE	PATT
	 POIN2	Saga_2_002
// 015   ----------------------------------------
	BYTE	PATT
	 POIN2	Saga_2_003
	BYTE		EOT     An1 
	BYTE	W44
	BYTE	W03
	BYTE		N23     En1   v092
	BYTE		N24     Bn1   v104
	BYTE	W24
	BYTE		        Cn1   v092
	BYTE		N23     Gn1   v104
	BYTE	W24
// 016   ----------------------------------------
	BYTE	PATT
	 POIN2	Saga_2_004
// 017   ----------------------------------------
	BYTE	PATT
	 POIN2	Saga_2_005
// 018   ----------------------------------------
	BYTE	PATT
	 POIN2	Saga_2_002
// 019   ----------------------------------------
	BYTE	PATT
	 POIN2	Saga_2_003
	BYTE		EOT     An1 
	BYTE	W44
	BYTE	W03
	BYTE		N23     En1   v092
	BYTE		N24     Bn1   v104
	BYTE	W24
	BYTE		        Cn1   v092
	BYTE		N23     Gn1   v104
	BYTE	W24
// 020   ----------------------------------------
	BYTE	PATT
	 POIN2	Saga_2_004
// 021   ----------------------------------------
	BYTE	PATT
	 POIN2	Saga_2_005
// 022   ----------------------------------------
	BYTE	PATT
	 POIN2	Saga_2_002
// 023   ----------------------------------------
	BYTE	PATT
	 POIN2	Saga_2_003
	BYTE		EOT     An1 
	BYTE	W44
	BYTE	W03
	BYTE		N23     En1   v092
	BYTE		N24     Bn1   v104
	BYTE	W24
	BYTE		        Cn1   v092
	BYTE		N23     Gn1   v104
	BYTE	W24
// 024   ----------------------------------------
	BYTE	PATT
	 POIN2	Saga_2_004
// 025   ----------------------------------------
Saga_2_025:
	BYTE		N90     An0   v084
	BYTE		N92     En1   v112
	BYTE	W96
	BYTE	PEND
// 026   ----------------------------------------
Saga_2_026:
	BYTE		N92     An0   v096
	BYTE		TIE     En1   v104
	BYTE	W96
	BYTE	PEND
// 027   ----------------------------------------
Saga_2_027:
	BYTE		N44     Cn1   v100
	BYTE		N48     Gn1   v104
	BYTE	W01
	BYTE	PEND
	BYTE		EOT     En1 
	BYTE	W44
	BYTE	W03
	BYTE		N23     Bn0   v092
	BYTE		N24     Fs1   v104
	BYTE	W24
	BYTE		        Gn0   v092
	BYTE		N23     Dn1   v104
	BYTE	W24
// 028   ----------------------------------------
Saga_2_028:
	BYTE		N92     An0   v124
	BYTE		N92     En1   v100
	BYTE	W96
	BYTE	PEND
// 029   ----------------------------------------
	BYTE	PATT
	 POIN2	Saga_2_025
// 030   ----------------------------------------
	BYTE	PATT
	 POIN2	Saga_2_026
// 031   ----------------------------------------
	BYTE	PATT
	 POIN2	Saga_2_027
	BYTE		EOT     En1 
	BYTE	W44
	BYTE	W03
	BYTE		N23     Bn0   v092
	BYTE		N24     Fs1   v104
	BYTE	W24
	BYTE		        Gn0   v092
	BYTE		N23     Dn1   v104
	BYTE	W24
// 032   ----------------------------------------
	BYTE	PATT
	 POIN2	Saga_2_028
// 033   ----------------------------------------
	BYTE	PATT
	 POIN2	Saga_2_005
// 034   ----------------------------------------
	BYTE	PATT
	 POIN2	Saga_2_002
// 035   ----------------------------------------
	BYTE	PATT
	 POIN2	Saga_2_003
	BYTE		EOT     An1 
	BYTE	W44
	BYTE	W03
	BYTE		N23     En1   v092
	BYTE		N24     Bn1   v104
	BYTE	W24
	BYTE		        Cn1   v092
	BYTE		N23     Gn1   v104
	BYTE	W24
// 036   ----------------------------------------
	BYTE	PATT
	 POIN2	Saga_2_004
// 037   ----------------------------------------
	BYTE	PATT
	 POIN2	Saga_2_005
// 038   ----------------------------------------
	BYTE	PATT
	 POIN2	Saga_2_002
// 039   ----------------------------------------
	BYTE	PATT
	 POIN2	Saga_2_003
	BYTE		EOT     An1 
	BYTE	W44
	BYTE	W03
	BYTE		N23     En1   v092
	BYTE		N24     Bn1   v104
	BYTE	W24
	BYTE		        Cn1   v092
	BYTE		N23     Gn1   v104
	BYTE	W24
// 040   ----------------------------------------
	BYTE	PATT
	 POIN2	Saga_2_004
// 041   ----------------------------------------
	BYTE		TIE     Gn1   v088
	BYTE	W96
// 042   ----------------------------------------
	BYTE	W96
// 043   ----------------------------------------
	BYTE		        Ds1 
	BYTE	W04
	BYTE		EOT     Gn1 
	BYTE	W92
// 044   ----------------------------------------
	BYTE	W92
	BYTE	W03
	BYTE		        Ds1 
	BYTE	W01
// 045   ----------------------------------------
	BYTE		TIE     Gn1   v096
	BYTE	W96
// 046   ----------------------------------------
	BYTE	W92
	BYTE	W03
	BYTE		EOT   
	BYTE	W01
// 047   ----------------------------------------
	BYTE		TIE     Ds1   v104
	BYTE	W96
// 048   ----------------------------------------
	BYTE	W96
	BYTE		EOT   
// 049   ----------------------------------------
	BYTE		TIE     Gn1   v088
	BYTE	W96
// 050   ----------------------------------------
	BYTE	W96
// 051   ----------------------------------------
	BYTE		        Ds1 
	BYTE	W04
	BYTE		EOT     Gn1 
	BYTE	W92
// 052   ----------------------------------------
	BYTE	W92
	BYTE	W03
	BYTE		        Ds1 
	BYTE	W01
// 053   ----------------------------------------
	BYTE		TIE     Gn1   v096
	BYTE	W96
// 054   ----------------------------------------
	BYTE	W92
	BYTE	W03
	BYTE		EOT   
	BYTE	W01
// 055   ----------------------------------------
	BYTE		TIE     Ds1   v104
	BYTE	W96
// 056   ----------------------------------------
	BYTE	W96
// 057   ----------------------------------------
	BYTE		        An1   v084
	BYTE		TIE     En2   v112
	BYTE	W01
	BYTE		EOT     Ds1 
	BYTE	W92
	BYTE	W03
// 058   ----------------------------------------
	BYTE	W48
	BYTE		        An1 
	BYTE		        En2 
	BYTE		N48     As1   v084
	BYTE		N48     Fn2   v112
	BYTE	W48
// 059   ----------------------------------------
Saga_2_059:
	BYTE		TIE     Gn1   v084
	BYTE		TIE     Dn2   v112
	BYTE	W96
	BYTE	PEND
// 060   ----------------------------------------
	BYTE	W92
	BYTE	W02
	BYTE		EOT     Gn1 
	BYTE		        Dn2 
	BYTE	W02
// 061   ----------------------------------------
Saga_2_061:
	BYTE		TIE     An1   v084
	BYTE		TIE     En2   v112
	BYTE	W96
	BYTE	PEND
// 062   ----------------------------------------
	BYTE	W48
	BYTE		EOT     An1 
	BYTE		        En2 
	BYTE		N48     As1   v084
	BYTE		N48     Fn2   v112
	BYTE	W48
// 063   ----------------------------------------
	BYTE	PATT
	 POIN2	Saga_2_059
// 064   ----------------------------------------
	BYTE	W92
	BYTE	W02
	BYTE		EOT     Gn1 
	BYTE		        Dn2 
	BYTE	W02
// 065   ----------------------------------------
	BYTE	PATT
	 POIN2	Saga_2_005
// 066   ----------------------------------------
	BYTE	PATT
	 POIN2	Saga_2_002
// 067   ----------------------------------------
	BYTE	PATT
	 POIN2	Saga_2_003
	BYTE		EOT     An1 
	BYTE	W44
	BYTE	W03
	BYTE		N23     En1   v092
	BYTE		N24     Bn1   v104
	BYTE	W24
	BYTE		        Cn1   v092
	BYTE		N23     Gn1   v104
	BYTE	W24
// 068   ----------------------------------------
	BYTE	PATT
	 POIN2	Saga_2_004
// 069   ----------------------------------------
	BYTE	PATT
	 POIN2	Saga_2_005
// 070   ----------------------------------------
	BYTE	PATT
	 POIN2	Saga_2_002
// 071   ----------------------------------------
	BYTE	PATT
	 POIN2	Saga_2_003
	BYTE		EOT     An1 
	BYTE	W44
	BYTE	W03
	BYTE		N23     En1   v092
	BYTE		N24     Bn1   v104
	BYTE	W24
	BYTE		        Cn1   v092
	BYTE		N23     Gn1   v104
	BYTE	W24
// 072   ----------------------------------------
	BYTE	PATT
	 POIN2	Saga_2_004
// 073   ----------------------------------------
Saga_2_073:
	BYTE		N44     Gn2   v084
	BYTE		N44     As2   v104
	BYTE	W48
	BYTE		N42     Fn2   v096
	BYTE		N44     An2   v084
	BYTE	W48
	BYTE	PEND
// 074   ----------------------------------------
Saga_2_074:
	BYTE		N44     Dn2   v080
	BYTE		N44     Fn2   v084
	BYTE	W48
	BYTE		N44   
	BYTE		N44     An2   v112
	BYTE	W48
	BYTE	PEND
// 075   ----------------------------------------
Saga_2_075:
	BYTE		N44     Gn2   v080
	BYTE		N44     As2   v104
	BYTE	W48
	BYTE		        Fn2   v092
	BYTE		N44     An2   v084
	BYTE	W48
	BYTE	PEND
// 076   ----------------------------------------
Saga_2_076:
	BYTE		N44     As2   v084
	BYTE		N44     Dn3   v088
	BYTE	W48
	BYTE		N40     Fn2   v092
	BYTE		N40     An2   v088
	BYTE	W48
	BYTE	PEND
// 077   ----------------------------------------
	BYTE	PATT
	 POIN2	Saga_2_073
// 078   ----------------------------------------
	BYTE	PATT
	 POIN2	Saga_2_074
// 079   ----------------------------------------
	BYTE	PATT
	 POIN2	Saga_2_075
// 080   ----------------------------------------
	BYTE	PATT
	 POIN2	Saga_2_076
// 081   ----------------------------------------
	BYTE	PATT
	 POIN2	Saga_2_073
// 082   ----------------------------------------
	BYTE	PATT
	 POIN2	Saga_2_074
// 083   ----------------------------------------
	BYTE	PATT
	 POIN2	Saga_2_075
// 084   ----------------------------------------
	BYTE	PATT
	 POIN2	Saga_2_076
// 085   ----------------------------------------
	BYTE	PATT
	 POIN2	Saga_2_073
// 086   ----------------------------------------
	BYTE	PATT
	 POIN2	Saga_2_074
// 087   ----------------------------------------
	BYTE	PATT
	 POIN2	Saga_2_075
// 088   ----------------------------------------
	BYTE	PATT
	 POIN2	Saga_2_076
// 089   ----------------------------------------
	BYTE	PATT
	 POIN2	Saga_2_005
// 090   ----------------------------------------
	BYTE	PATT
	 POIN2	Saga_2_002
// 091   ----------------------------------------
	BYTE	PATT
	 POIN2	Saga_2_003
	BYTE		EOT     An1 
	BYTE	W44
	BYTE	W03
	BYTE		N23     En1   v092
	BYTE		N24     Bn1   v104
	BYTE	W24
	BYTE		        Cn1   v092
	BYTE		N23     Gn1   v104
	BYTE	W24
// 092   ----------------------------------------
	BYTE	PATT
	 POIN2	Saga_2_004
// 093   ----------------------------------------
	BYTE	PATT
	 POIN2	Saga_2_005
// 094   ----------------------------------------
	BYTE	PATT
	 POIN2	Saga_2_002
// 095   ----------------------------------------
	BYTE	PATT
	 POIN2	Saga_2_003
	BYTE		EOT     An1 
	BYTE	W44
	BYTE	W03
	BYTE		N23     En1   v092
	BYTE		N24     Bn1   v104
	BYTE	W24
	BYTE		        Cn1   v092
	BYTE		N23     Gn1   v104
	BYTE	W24
// 096   ----------------------------------------
	BYTE	PATT
	 POIN2	Saga_2_004
// 097   ----------------------------------------
	BYTE	PATT
	 POIN2	Saga_2_025
// 098   ----------------------------------------
	BYTE	PATT
	 POIN2	Saga_2_026
// 099   ----------------------------------------
	BYTE	PATT
	 POIN2	Saga_2_027
	BYTE		EOT     En1 
	BYTE	W44
	BYTE	W03
	BYTE		N23     Bn0   v092
	BYTE		N24     Fs1   v104
	BYTE	W24
	BYTE		        Gn0   v092
	BYTE		N23     Dn1   v104
	BYTE	W24
// 100   ----------------------------------------
	BYTE	PATT
	 POIN2	Saga_2_028
// 101   ----------------------------------------
	BYTE	PATT
	 POIN2	Saga_2_025
// 102   ----------------------------------------
	BYTE	PATT
	 POIN2	Saga_2_026
// 103   ----------------------------------------
	BYTE	PATT
	 POIN2	Saga_2_027
	BYTE		EOT     En1 
	BYTE	W44
	BYTE	W03
	BYTE		N23     Bn0   v092
	BYTE		N24     Fs1   v104
	BYTE	W24
	BYTE		        Gn0   v092
	BYTE		N23     Dn1   v104
	BYTE	W24
// 104   ----------------------------------------
	BYTE	PATT
	 POIN2	Saga_2_028
// 105   ----------------------------------------
	BYTE	PATT
	 POIN2	Saga_2_061
// 106   ----------------------------------------
	BYTE	W48
	BYTE		EOT     An1 
	BYTE		        En2 
	BYTE		N48     As1   v084
	BYTE		N48     Fn2   v112
	BYTE	W48
// 107   ----------------------------------------
	BYTE	PATT
	 POIN2	Saga_2_059
// 108   ----------------------------------------
	BYTE	W92
	BYTE	W02
	BYTE		EOT     Gn1 
	BYTE		        Dn2 
	BYTE	W02
// 109   ----------------------------------------
	BYTE	PATT
	 POIN2	Saga_2_061
// 110   ----------------------------------------
	BYTE	W48
	BYTE		EOT     An1 
	BYTE		        En2 
	BYTE		N48     As1   v084
	BYTE		N48     Fn2   v112
	BYTE	W48
// 111   ----------------------------------------
	BYTE	PATT
	 POIN2	Saga_2_059
// 112   ----------------------------------------
	BYTE	W92
	BYTE	W02
	BYTE		EOT     Gn1 
	BYTE		        Dn2 
	BYTE	W02
// 113   ----------------------------------------
	BYTE	PATT
	 POIN2	Saga_2_005
// 114   ----------------------------------------
	BYTE	PATT
	 POIN2	Saga_2_002
// 115   ----------------------------------------
	BYTE	PATT
	 POIN2	Saga_2_003
	BYTE		EOT     An1 
	BYTE	W44
	BYTE	W03
	BYTE		N23     En1   v092
	BYTE		N24     Bn1   v104
	BYTE	W24
	BYTE		        Cn1   v092
	BYTE		N23     Gn1   v104
	BYTE	W24
// 116   ----------------------------------------
	BYTE	PATT
	 POIN2	Saga_2_004
// 117   ----------------------------------------
	BYTE	PATT
	 POIN2	Saga_2_005
// 118   ----------------------------------------
	BYTE	PATT
	 POIN2	Saga_2_002
// 119   ----------------------------------------
	BYTE	PATT
	 POIN2	Saga_2_003
	BYTE		EOT     An1 
	BYTE	W44
	BYTE	W03
	BYTE		N23     En1   v092
	BYTE		N24     Bn1   v104
	BYTE	W24
	BYTE		        Cn1   v092
	BYTE		N23     Gn1   v104
	BYTE	W24
// 120   ----------------------------------------
	BYTE	PATT
	 POIN2	Saga_2_004
// 121   ----------------------------------------
	BYTE	PATT
	 POIN2	Saga_2_005
// 122   ----------------------------------------
	BYTE	PATT
	 POIN2	Saga_2_002
// 123   ----------------------------------------
	BYTE	PATT
	 POIN2	Saga_2_003
	BYTE		EOT     An1 
	BYTE	W44
	BYTE	W03
	BYTE		N23     En1   v092
	BYTE		N24     Bn1   v104
	BYTE	W24
	BYTE		        Cn1   v092
	BYTE		N23     Gn1   v104
	BYTE	W24
// 124   ----------------------------------------
	BYTE	PATT
	 POIN2	Saga_2_004
// 125   ----------------------------------------
	BYTE	PATT
	 POIN2	Saga_2_005
// 126   ----------------------------------------
	BYTE	PATT
	 POIN2	Saga_2_002
// 127   ----------------------------------------
	BYTE	PATT
	 POIN2	Saga_2_003
	BYTE		EOT     An1 
	BYTE	W44
	BYTE	W03
	BYTE		N23     En1   v092
	BYTE		N24     Bn1   v104
	BYTE	W24
	BYTE		        Cn1   v092
	BYTE		N23     Gn1   v104
	BYTE	W24
// 128   ----------------------------------------
	BYTE	PATT
	 POIN2	Saga_2_004
// 129   ----------------------------------------
	BYTE	W96
// 130   ----------------------------------------
	BYTE	W96
// 131   ----------------------------------------
	BYTE	W96
// 132   ----------------------------------------
	BYTE	W96
// 133   ----------------------------------------
	BYTE	W06
	BYTE	GoTo
	 POIN2	Saga_2_B1
Saga_2_B2:
	BYTE	W90
// 134   ----------------------------------------
	BYTE	W96
// 135   ----------------------------------------
	BYTE	W96
// 136   ----------------------------------------
	BYTE	W14
	BYTE	FINE

//**************** Track 3 (Midi-Chn.3) ****************//

Saga_3:
	BYTE	KEYSH   Saga_key+0
// 000   ----------------------------------------
	BYTE		VOICE   116
	BYTE		VOL     97*Saga_mvl/mxv
	BYTE		PAN     c_v+21
	BYTE	W80
	BYTE	W01
	BYTE		N02     Fn1   v060
	BYTE	W03
	BYTE		N01     Fn1   v068
	BYTE	W03
	BYTE		N02     Fn1   v080
	BYTE	W03
	BYTE		        Fn1   v088
	BYTE	W03
	BYTE		        Fn1   v104
	BYTE	W03
Saga_3_B1:
// 001   ----------------------------------------
Saga_3_001:
	BYTE		N04     Fn0   v112
	BYTE		N04     Fn1   v100
	BYTE	W12
	BYTE		        Fn0   v108
	BYTE	W84
	BYTE	PEND
// 002   ----------------------------------------
Saga_3_002:
	BYTE		N04     Fn0   v116
	BYTE		N04     Fn1 
	BYTE	W12
	BYTE		N05     Fn0   v108
	BYTE	W84
	BYTE	PEND
// 003   ----------------------------------------
Saga_3_003:
	BYTE		N04     Fn0   v112
	BYTE		N04     Fn1   v116
	BYTE	W12
	BYTE		        Fn1   v104
	BYTE	W36
	BYTE		        Fn0   v116
	BYTE		N04     Fn1 
	BYTE	W12
	BYTE		N03     Fn1   v104
	BYTE	W12
	BYTE		N02     Fn1   v108
	BYTE	W06
	BYTE		N03     Fn1   v100
	BYTE	W06
	BYTE		        Fn1   v080
	BYTE	W06
	BYTE		N02     Fn1   v084
	BYTE	W06
	BYTE	PEND
// 004   ----------------------------------------
Saga_3_004:
	BYTE		N03     Fn0   v120
	BYTE		N03     Fn1   v112
	BYTE	W12
	BYTE		N02     Fn1   v100
	BYTE	W68
	BYTE	W01
	BYTE		        Fn1   v060
	BYTE	W03
	BYTE		N01     Fn1   v068
	BYTE	W03
	BYTE		N02     Fn1   v080
	BYTE	W03
	BYTE		        Fn1   v088
	BYTE	W03
	BYTE		        Fn1   v104
	BYTE	W03
	BYTE	PEND
// 005   ----------------------------------------
	BYTE	PATT
	 POIN2	Saga_3_001
// 006   ----------------------------------------
	BYTE	PATT
	 POIN2	Saga_3_002
// 007   ----------------------------------------
	BYTE	PATT
	 POIN2	Saga_3_003
// 008   ----------------------------------------
Saga_3_008:
	BYTE		N03     Fn0   v120
	BYTE		N03     Fn1   v112
	BYTE	W12
	BYTE		N02     Fn1   v100
	BYTE	W84
	BYTE	PEND
// 009   ----------------------------------------
	BYTE		VOL     105*Saga_mvl/mxv
	BYTE		PAN     c_v-14
	BYTE		N04     Fn0   v112
	BYTE		N04     Fn1   v100
	BYTE	W12
	BYTE		        Fn0   v108
	BYTE	W84
// 010   ----------------------------------------
	BYTE	PATT
	 POIN2	Saga_3_002
// 011   ----------------------------------------
	BYTE	PATT
	 POIN2	Saga_3_003
// 012   ----------------------------------------
	BYTE	PATT
	 POIN2	Saga_3_008
// 013   ----------------------------------------
	BYTE	PATT
	 POIN2	Saga_3_001
// 014   ----------------------------------------
	BYTE	PATT
	 POIN2	Saga_3_002
// 015   ----------------------------------------
	BYTE	PATT
	 POIN2	Saga_3_003
// 016   ----------------------------------------
	BYTE	PATT
	 POIN2	Saga_3_008
// 017   ----------------------------------------
	BYTE	PATT
	 POIN2	Saga_3_001
// 018   ----------------------------------------
	BYTE	PATT
	 POIN2	Saga_3_002
// 019   ----------------------------------------
	BYTE	PATT
	 POIN2	Saga_3_003
// 020   ----------------------------------------
	BYTE	PATT
	 POIN2	Saga_3_008
// 021   ----------------------------------------
	BYTE	PATT
	 POIN2	Saga_3_001
// 022   ----------------------------------------
	BYTE	PATT
	 POIN2	Saga_3_002
// 023   ----------------------------------------
	BYTE	PATT
	 POIN2	Saga_3_003
// 024   ----------------------------------------
	BYTE	PATT
	 POIN2	Saga_3_008
// 025   ----------------------------------------
	BYTE	PATT
	 POIN2	Saga_3_001
// 026   ----------------------------------------
	BYTE	PATT
	 POIN2	Saga_3_002
// 027   ----------------------------------------
	BYTE	PATT
	 POIN2	Saga_3_003
// 028   ----------------------------------------
	BYTE	PATT
	 POIN2	Saga_3_008
// 029   ----------------------------------------
Saga_3_029:
	BYTE		N04     Fs0   v112
	BYTE		N04     Fs1   v100
	BYTE	W12
	BYTE		        Fs0   v108
	BYTE	W84
	BYTE	PEND
// 030   ----------------------------------------
Saga_3_030:
	BYTE		N04     Fs0   v116
	BYTE		N04     Fs1 
	BYTE	W12
	BYTE		N05     Fs0   v108
	BYTE	W84
	BYTE	PEND
// 031   ----------------------------------------
Saga_3_031:
	BYTE		N04     Fs0   v112
	BYTE		N04     Fs1   v116
	BYTE	W12
	BYTE		        Fs1   v104
	BYTE	W36
	BYTE		        Fs0   v116
	BYTE		N04     Fs1 
	BYTE	W12
	BYTE		N03     Fs1   v104
	BYTE	W12
	BYTE		N02     Fs1   v108
	BYTE	W06
	BYTE		N03     Fs1   v100
	BYTE	W06
	BYTE		        Fs1   v080
	BYTE	W06
	BYTE		N02     Fs1   v084
	BYTE	W06
	BYTE	PEND
// 032   ----------------------------------------
Saga_3_032:
	BYTE		N03     Fs0   v120
	BYTE		N03     Fs1   v112
	BYTE	W12
	BYTE		N02     Fs1   v100
	BYTE	W84
	BYTE	PEND
// 033   ----------------------------------------
	BYTE	PATT
	 POIN2	Saga_3_001
// 034   ----------------------------------------
	BYTE	PATT
	 POIN2	Saga_3_002
// 035   ----------------------------------------
	BYTE	PATT
	 POIN2	Saga_3_003
// 036   ----------------------------------------
	BYTE	PATT
	 POIN2	Saga_3_008
// 037   ----------------------------------------
	BYTE	PATT
	 POIN2	Saga_3_001
// 038   ----------------------------------------
	BYTE	PATT
	 POIN2	Saga_3_002
// 039   ----------------------------------------
	BYTE	PATT
	 POIN2	Saga_3_003
// 040   ----------------------------------------
	BYTE	PATT
	 POIN2	Saga_3_008
// 041   ----------------------------------------
	BYTE	PATT
	 POIN2	Saga_3_001
// 042   ----------------------------------------
	BYTE	PATT
	 POIN2	Saga_3_002
// 043   ----------------------------------------
	BYTE	PATT
	 POIN2	Saga_3_003
// 044   ----------------------------------------
	BYTE	PATT
	 POIN2	Saga_3_008
// 045   ----------------------------------------
	BYTE	PATT
	 POIN2	Saga_3_001
// 046   ----------------------------------------
	BYTE	PATT
	 POIN2	Saga_3_002
// 047   ----------------------------------------
	BYTE	PATT
	 POIN2	Saga_3_003
// 048   ----------------------------------------
	BYTE	PATT
	 POIN2	Saga_3_008
// 049   ----------------------------------------
	BYTE	PATT
	 POIN2	Saga_3_001
// 050   ----------------------------------------
	BYTE	PATT
	 POIN2	Saga_3_002
// 051   ----------------------------------------
	BYTE	PATT
	 POIN2	Saga_3_003
// 052   ----------------------------------------
	BYTE	PATT
	 POIN2	Saga_3_008
// 053   ----------------------------------------
	BYTE	PATT
	 POIN2	Saga_3_001
// 054   ----------------------------------------
	BYTE	PATT
	 POIN2	Saga_3_002
// 055   ----------------------------------------
	BYTE	PATT
	 POIN2	Saga_3_003
// 056   ----------------------------------------
	BYTE	PATT
	 POIN2	Saga_3_004
// 057   ----------------------------------------
	BYTE	PATT
	 POIN2	Saga_3_001
// 058   ----------------------------------------
Saga_3_058:
	BYTE	W48
	BYTE		N04     Fn0   v112
	BYTE		N04     Fn1   v100
	BYTE	W12
	BYTE		        Fn0   v108
	BYTE	W36
	BYTE	PEND
// 059   ----------------------------------------
	BYTE	PATT
	 POIN2	Saga_3_001
// 060   ----------------------------------------
Saga_3_060:
	BYTE	W80
	BYTE	W01
	BYTE		N02     Fn1   v060
	BYTE	W03
	BYTE		N01     Fn1   v068
	BYTE	W03
	BYTE		N02     Fn1   v080
	BYTE	W03
	BYTE		        Fn1   v088
	BYTE	W03
	BYTE		        Fn1   v104
	BYTE	W03
	BYTE	PEND
// 061   ----------------------------------------
	BYTE	PATT
	 POIN2	Saga_3_001
// 062   ----------------------------------------
	BYTE	PATT
	 POIN2	Saga_3_058
// 063   ----------------------------------------
	BYTE	PATT
	 POIN2	Saga_3_001
// 064   ----------------------------------------
	BYTE	PATT
	 POIN2	Saga_3_060
// 065   ----------------------------------------
	BYTE	PATT
	 POIN2	Saga_3_001
// 066   ----------------------------------------
	BYTE	PATT
	 POIN2	Saga_3_002
// 067   ----------------------------------------
	BYTE	PATT
	 POIN2	Saga_3_003
// 068   ----------------------------------------
	BYTE	PATT
	 POIN2	Saga_3_008
// 069   ----------------------------------------
	BYTE	PATT
	 POIN2	Saga_3_001
// 070   ----------------------------------------
	BYTE	PATT
	 POIN2	Saga_3_002
// 071   ----------------------------------------
	BYTE	PATT
	 POIN2	Saga_3_003
// 072   ----------------------------------------
	BYTE	PATT
	 POIN2	Saga_3_008
// 073   ----------------------------------------
	BYTE	W96
// 074   ----------------------------------------
	BYTE	W96
// 075   ----------------------------------------
	BYTE	W96
// 076   ----------------------------------------
	BYTE	W96
// 077   ----------------------------------------
	BYTE	W96
// 078   ----------------------------------------
	BYTE	W96
// 079   ----------------------------------------
	BYTE	W96
// 080   ----------------------------------------
	BYTE	W96
// 081   ----------------------------------------
	BYTE	W96
// 082   ----------------------------------------
	BYTE	W96
// 083   ----------------------------------------
	BYTE	W96
// 084   ----------------------------------------
	BYTE	W96
// 085   ----------------------------------------
	BYTE	W96
// 086   ----------------------------------------
	BYTE	W96
// 087   ----------------------------------------
	BYTE	W96
// 088   ----------------------------------------
	BYTE	W96
// 089   ----------------------------------------
	BYTE	PATT
	 POIN2	Saga_3_001
// 090   ----------------------------------------
	BYTE	PATT
	 POIN2	Saga_3_002
// 091   ----------------------------------------
	BYTE	PATT
	 POIN2	Saga_3_003
// 092   ----------------------------------------
	BYTE	PATT
	 POIN2	Saga_3_008
// 093   ----------------------------------------
	BYTE	PATT
	 POIN2	Saga_3_001
// 094   ----------------------------------------
	BYTE	PATT
	 POIN2	Saga_3_002
// 095   ----------------------------------------
	BYTE	PATT
	 POIN2	Saga_3_003
// 096   ----------------------------------------
	BYTE	PATT
	 POIN2	Saga_3_008
// 097   ----------------------------------------
	BYTE	PATT
	 POIN2	Saga_3_001
// 098   ----------------------------------------
	BYTE	PATT
	 POIN2	Saga_3_002
// 099   ----------------------------------------
	BYTE	PATT
	 POIN2	Saga_3_003
// 100   ----------------------------------------
	BYTE	PATT
	 POIN2	Saga_3_008
// 101   ----------------------------------------
	BYTE	PATT
	 POIN2	Saga_3_029
// 102   ----------------------------------------
	BYTE	PATT
	 POIN2	Saga_3_030
// 103   ----------------------------------------
	BYTE	PATT
	 POIN2	Saga_3_031
// 104   ----------------------------------------
	BYTE	PATT
	 POIN2	Saga_3_032
// 105   ----------------------------------------
	BYTE	PATT
	 POIN2	Saga_3_001
// 106   ----------------------------------------
	BYTE	PATT
	 POIN2	Saga_3_058
// 107   ----------------------------------------
	BYTE	PATT
	 POIN2	Saga_3_001
// 108   ----------------------------------------
	BYTE	PATT
	 POIN2	Saga_3_060
// 109   ----------------------------------------
	BYTE	PATT
	 POIN2	Saga_3_001
// 110   ----------------------------------------
	BYTE	PATT
	 POIN2	Saga_3_058
// 111   ----------------------------------------
	BYTE	PATT
	 POIN2	Saga_3_001
// 112   ----------------------------------------
	BYTE	PATT
	 POIN2	Saga_3_060
// 113   ----------------------------------------
	BYTE	PATT
	 POIN2	Saga_3_001
// 114   ----------------------------------------
	BYTE	PATT
	 POIN2	Saga_3_002
// 115   ----------------------------------------
	BYTE	PATT
	 POIN2	Saga_3_003
// 116   ----------------------------------------
	BYTE	PATT
	 POIN2	Saga_3_008
// 117   ----------------------------------------
	BYTE	PATT
	 POIN2	Saga_3_001
// 118   ----------------------------------------
	BYTE	PATT
	 POIN2	Saga_3_002
// 119   ----------------------------------------
	BYTE	PATT
	 POIN2	Saga_3_003
// 120   ----------------------------------------
	BYTE		VOICE   117
	BYTE		PAN     c_v+21
	BYTE		VOL     97*Saga_mvl/mxv
	BYTE		N03     Fn0   v120
	BYTE		N03     Fn1   v112
	BYTE	W12
	BYTE		N02     Fn1   v100
	BYTE	W68
	BYTE	W01
	BYTE		        Fn1   v060
	BYTE	W03
	BYTE		N01     Fn1   v068
	BYTE	W03
	BYTE		N02     Fn1   v080
	BYTE	W03
	BYTE		        Fn1   v088
	BYTE	W03
	BYTE		        Fn1   v104
	BYTE	W03
// 121   ----------------------------------------
	BYTE	PATT
	 POIN2	Saga_3_001
// 122   ----------------------------------------
	BYTE	PATT
	 POIN2	Saga_3_002
// 123   ----------------------------------------
	BYTE	PATT
	 POIN2	Saga_3_003
// 124   ----------------------------------------
	BYTE	PATT
	 POIN2	Saga_3_004
// 125   ----------------------------------------
	BYTE	PATT
	 POIN2	Saga_3_001
// 126   ----------------------------------------
	BYTE	PATT
	 POIN2	Saga_3_002
// 127   ----------------------------------------
	BYTE	PATT
	 POIN2	Saga_3_003
// 128   ----------------------------------------
	BYTE	PATT
	 POIN2	Saga_3_004
// 129   ----------------------------------------
	BYTE		N04     Fn0   v108
	BYTE		N04     Fn1 
	BYTE	W12
	BYTE		        Fn0 
	BYTE	W84
// 130   ----------------------------------------
	BYTE		        Fn0   v096
	BYTE		N04     Fn1 
	BYTE	W12
	BYTE		N05     Fn0   v092
	BYTE	W84
// 131   ----------------------------------------
	BYTE		N04     Fn0   v080
	BYTE		N04     Fn1 
	BYTE	W12
	BYTE		N04   
	BYTE	W36
	BYTE		        Fn0   v072
	BYTE		N04     Fn1 
	BYTE	W12
	BYTE		N03   
	BYTE	W12
	BYTE		N02     Fn1   v068
	BYTE	W06
	BYTE		N03   
	BYTE	W06
	BYTE		N03   
	BYTE	W06
	BYTE		N02   
	BYTE	W06
// 132   ----------------------------------------
	BYTE		N03     Fn0 
	BYTE		N03     Fn1 
	BYTE	W12
	BYTE		N02     Fn1   v064
	BYTE	W68
	BYTE	W01
	BYTE		        Fn1   v056
	BYTE	W03
	BYTE		N01   
	BYTE	W03
	BYTE		N02     Fn1   v052
	BYTE	W03
	BYTE		N02   
	BYTE	W03
	BYTE		N02   
	BYTE	W03
// 133   ----------------------------------------
	BYTE		N04     Fn0 
	BYTE		N04     Fn1 
	BYTE	W06
	BYTE	GoTo
	 POIN2	Saga_3_B1
Saga_3_B2:
	BYTE	W06
	BYTE		N04     Fn0   v052
	BYTE	W84
// 134   ----------------------------------------
	BYTE		        Fn0   v040
	BYTE		N04     Fn1 
	BYTE	W12
	BYTE		N05     Fn0   v036
	BYTE	W84
// 135   ----------------------------------------
	BYTE		N04     Fn0   v024
	BYTE		N04     Fn1 
	BYTE	W12
	BYTE		N04   
	BYTE	W36
	BYTE		        Fn0   v016
	BYTE		N04     Fn1 
	BYTE	W12
	BYTE		N03   
	BYTE	W12
	BYTE		N02   
	BYTE	W06
	BYTE		N03     Fn1   v012
	BYTE	W06
	BYTE		N03   
	BYTE	W06
	BYTE		N02   
	BYTE	W06
// 136   ----------------------------------------
	BYTE		N03     Fn0 
	BYTE		N03     Fn1 
	BYTE	W12
	BYTE		N02     Fn1   v008
	BYTE	W02
	BYTE	FINE

//**************** Track 4 (Midi-Chn.4) ****************//

Saga_4:
	BYTE	KEYSH   Saga_key+0
// 000   ----------------------------------------
	BYTE		VOICE   70
	BYTE	W96
Saga_4_B1:
// 001   ----------------------------------------
	BYTE	W96
// 002   ----------------------------------------
	BYTE	W96
// 003   ----------------------------------------
	BYTE	W96
// 004   ----------------------------------------
	BYTE	W96
// 005   ----------------------------------------
	BYTE	W96
// 006   ----------------------------------------
	BYTE	W96
// 007   ----------------------------------------
	BYTE	W96
// 008   ----------------------------------------
	BYTE	W96
// 009   ----------------------------------------
	BYTE	W96
// 010   ----------------------------------------
	BYTE	W96
// 011   ----------------------------------------
	BYTE	W96
// 012   ----------------------------------------
	BYTE	W96
// 013   ----------------------------------------
	BYTE	W96
// 014   ----------------------------------------
	BYTE	W96
// 015   ----------------------------------------
	BYTE	W96
// 016   ----------------------------------------
	BYTE	W96
// 017   ----------------------------------------
	BYTE		VOL     97*Saga_mvl/mxv
	BYTE		PAN     c_v+15
	BYTE		N90     An2   v120
	BYTE	W30
	BYTE		MOD     2
	BYTE	W01
	BYTE		        4
	BYTE	W01
	BYTE		        8
	BYTE	W01
	BYTE		        10
	BYTE	W01
	BYTE		        14
	BYTE	W01
	BYTE		        18
	BYTE	W01
	BYTE		        22
	BYTE	W01
	BYTE		        24
	BYTE	W01
	BYTE		        28
	BYTE	W01
	BYTE		        32
	BYTE	W01
	BYTE		        34
	BYTE	W01
	BYTE		        38
	BYTE	W01
	BYTE		        42
	BYTE	W01
	BYTE		        46
	BYTE	W01
	BYTE		        48
	BYTE	W01
	BYTE		        52
	BYTE	W01
	BYTE		        56
	BYTE	W01
	BYTE		        60
	BYTE	W01
	BYTE		        62
	BYTE	W01
	BYTE		        66
	BYTE	W01
	BYTE		        70
	BYTE	W01
	BYTE		        72
	BYTE	W01
	BYTE		        76
	BYTE	W01
	BYTE		        80
	BYTE	W01
	BYTE		        84
	BYTE	W01
	BYTE		        86
	BYTE	W01
	BYTE		        90
	BYTE	W01
	BYTE		        94
	BYTE	W01
	BYTE		        98
	BYTE	W01
	BYTE		        100
	BYTE	W01
	BYTE		        104
	BYTE	W01
	BYTE		        108
	BYTE	W01
	BYTE		        110
	BYTE	W01
	BYTE		        114
	BYTE	W01
	BYTE		        118
	BYTE	W01
	BYTE		        122
	BYTE	W01
	BYTE		        124
	BYTE	W01
	BYTE		        127
	BYTE	W14
	BYTE		        0
	BYTE	W15
// 018   ----------------------------------------
Saga_4_018:
	BYTE		N80     An2   v116
	BYTE	W36
	BYTE	W02
	BYTE		MOD     4
	BYTE	W01
	BYTE		        8
	BYTE	W01
	BYTE		        10
	BYTE	W01
	BYTE		        14
	BYTE	W01
	BYTE		        18
	BYTE	W01
	BYTE		        20
	BYTE	W01
	BYTE		        24
	BYTE	W01
	BYTE		        28
	BYTE	W01
	BYTE		        32
	BYTE	W01
	BYTE		        34
	BYTE	W01
	BYTE		        38
	BYTE	W01
	BYTE		        42
	BYTE	W01
	BYTE		        44
	BYTE	W01
	BYTE		        0
	BYTE	W32
	BYTE	W01
	BYTE		N04     An2   v112
	BYTE	W06
	BYTE		N05     Bn2 
	BYTE	W06
	BYTE	PEND
// 019   ----------------------------------------
Saga_4_019:
	BYTE		N24     An2   v127
	BYTE	W24
	BYTE		        Bn2   v096
	BYTE	W24
	BYTE		        Cn3   v112
	BYTE	W24
	BYTE		        Dn3   v108
	BYTE	W24
	BYTE	PEND
// 020   ----------------------------------------
Saga_4_020:
	BYTE		N80     An2   v112
	BYTE	W24
	BYTE	W02
	BYTE		MOD     2
	BYTE	W01
	BYTE		        6
	BYTE	W01
	BYTE		        10
	BYTE	W01
	BYTE		        12
	BYTE	W01
	BYTE		        16
	BYTE	W01
	BYTE		        20
	BYTE	W01
	BYTE		        24
	BYTE	W01
	BYTE		        26
	BYTE	W01
	BYTE		        30
	BYTE	W01
	BYTE		        34
	BYTE	W01
	BYTE		        38
	BYTE	W01
	BYTE		        40
	BYTE	W01
	BYTE		        44
	BYTE	W01
	BYTE		        48
	BYTE	W01
	BYTE		        50
	BYTE	W01
	BYTE		        54
	BYTE	W01
	BYTE		        58
	BYTE	W01
	BYTE		        62
	BYTE	W01
	BYTE		        64
	BYTE	W01
	BYTE		        68
	BYTE	W01
	BYTE		        72
	BYTE	W01
	BYTE		        0
	BYTE	W36
	BYTE	W01
	BYTE		N06     Gn2   v108
	BYTE	W06
	BYTE		N07     Bn2 
	BYTE	W06
	BYTE	PEND
// 021   ----------------------------------------
Saga_4_021:
	BYTE		N84     An2   v120
	BYTE	W84
	BYTE		N07     Gn2   v100
	BYTE	W06
	BYTE		N04     Bn2   v112
	BYTE	W06
	BYTE	PEND
// 022   ----------------------------------------
Saga_4_022:
	BYTE		N78     An2   v127
	BYTE	W24
	BYTE	W02
	BYTE		MOD     4
	BYTE	W01
	BYTE		        6
	BYTE	W01
	BYTE		        10
	BYTE	W01
	BYTE		        14
	BYTE	W01
	BYTE		        18
	BYTE	W01
	BYTE		        20
	BYTE	W01
	BYTE		        24
	BYTE	W01
	BYTE		        28
	BYTE	W01
	BYTE		        32
	BYTE	W01
	BYTE		        34
	BYTE	W01
	BYTE		        38
	BYTE	W01
	BYTE		        42
	BYTE	W01
	BYTE		        44
	BYTE	W01
	BYTE		        48
	BYTE	W01
	BYTE		        52
	BYTE	W01
	BYTE		        56
	BYTE	W01
	BYTE		        58
	BYTE	W01
	BYTE		        62
	BYTE	W01
	BYTE		        66
	BYTE	W01
	BYTE		        70
	BYTE	W01
	BYTE		        72
	BYTE	W01
	BYTE		        0
	BYTE	W36
	BYTE	W01
	BYTE		N04     An2   v112
	BYTE	W06
	BYTE		        Bn2 
	BYTE	W06
	BYTE	PEND
// 023   ----------------------------------------
Saga_4_023:
	BYTE		N48     Cn3   v120
	BYTE	W48
	BYTE		N24     Dn3   v116
	BYTE	W24
	BYTE		        Cn3   v108
	BYTE	W24
	BYTE	PEND
// 024   ----------------------------------------
Saga_4_024:
	BYTE		N88     An2   v112
	BYTE	W16
	BYTE		MOD     4
	BYTE	W01
	BYTE		        6
	BYTE	W01
	BYTE		        10
	BYTE	W01
	BYTE		        14
	BYTE	W01
	BYTE		        18
	BYTE	W01
	BYTE		        20
	BYTE	W01
	BYTE		        24
	BYTE	W01
	BYTE		        28
	BYTE	W01
	BYTE		        30
	BYTE	W01
	BYTE		        34
	BYTE	W01
	BYTE		        38
	BYTE	W01
	BYTE		        42
	BYTE	W01
	BYTE		        44
	BYTE	W01
	BYTE		        48
	BYTE	W01
	BYTE		        52
	BYTE	W01
	BYTE		        56
	BYTE	W01
	BYTE		        58
	BYTE	W01
	BYTE		        62
	BYTE	W01
	BYTE		        66
	BYTE	W01
	BYTE		        68
	BYTE	W01
	BYTE		        72
	BYTE	W01
	BYTE		        76
	BYTE	W01
	BYTE		        80
	BYTE	W01
	BYTE		        82
	BYTE	W01
	BYTE		        86
	BYTE	W01
	BYTE		        90
	BYTE	W01
	BYTE		        94
	BYTE	W01
	BYTE		        96
	BYTE	W01
	BYTE		        100
	BYTE	W01
	BYTE		        104
	BYTE	W01
	BYTE		        106
	BYTE	W01
	BYTE		        110
	BYTE	W01
	BYTE		        114
	BYTE	W01
	BYTE		        118
	BYTE	W01
	BYTE		        120
	BYTE	W01
	BYTE		        124
	BYTE	W01
	BYTE		        127
	BYTE	W16
	BYTE		        0
	BYTE	W28
	BYTE	PEND
// 025   ----------------------------------------
	BYTE	W96
// 026   ----------------------------------------
	BYTE	W96
// 027   ----------------------------------------
	BYTE	W96
// 028   ----------------------------------------
	BYTE	W96
// 029   ----------------------------------------
	BYTE	W96
// 030   ----------------------------------------
	BYTE	W96
// 031   ----------------------------------------
	BYTE	W96
// 032   ----------------------------------------
	BYTE	W96
// 033   ----------------------------------------
Saga_4_033:
	BYTE		N90     An2   v120
	BYTE	W30
	BYTE		MOD     2
	BYTE	W01
	BYTE		        4
	BYTE	W01
	BYTE		        8
	BYTE	W01
	BYTE		        10
	BYTE	W01
	BYTE		        14
	BYTE	W01
	BYTE		        18
	BYTE	W01
	BYTE		        22
	BYTE	W01
	BYTE		        24
	BYTE	W01
	BYTE		        28
	BYTE	W01
	BYTE		        32
	BYTE	W01
	BYTE		        34
	BYTE	W01
	BYTE		        38
	BYTE	W01
	BYTE		        42
	BYTE	W01
	BYTE		        46
	BYTE	W01
	BYTE		        48
	BYTE	W01
	BYTE		        52
	BYTE	W01
	BYTE		        56
	BYTE	W01
	BYTE		        60
	BYTE	W01
	BYTE		        62
	BYTE	W01
	BYTE		        66
	BYTE	W01
	BYTE		        70
	BYTE	W01
	BYTE		        72
	BYTE	W01
	BYTE		        76
	BYTE	W01
	BYTE		        80
	BYTE	W01
	BYTE		        84
	BYTE	W01
	BYTE		        86
	BYTE	W01
	BYTE		        90
	BYTE	W01
	BYTE		        94
	BYTE	W01
	BYTE		        98
	BYTE	W01
	BYTE		        100
	BYTE	W01
	BYTE		        104
	BYTE	W01
	BYTE		        108
	BYTE	W01
	BYTE		        110
	BYTE	W01
	BYTE		        114
	BYTE	W01
	BYTE		        118
	BYTE	W01
	BYTE		        122
	BYTE	W01
	BYTE		        124
	BYTE	W01
	BYTE		        127
	BYTE	W14
	BYTE		        0
	BYTE	W15
	BYTE	PEND
// 034   ----------------------------------------
	BYTE	PATT
	 POIN2	Saga_4_018
// 035   ----------------------------------------
	BYTE	PATT
	 POIN2	Saga_4_019
// 036   ----------------------------------------
	BYTE	PATT
	 POIN2	Saga_4_020
// 037   ----------------------------------------
	BYTE	PATT
	 POIN2	Saga_4_021
// 038   ----------------------------------------
	BYTE	PATT
	 POIN2	Saga_4_022
// 039   ----------------------------------------
	BYTE	PATT
	 POIN2	Saga_4_023
// 040   ----------------------------------------
	BYTE	PATT
	 POIN2	Saga_4_024
// 041   ----------------------------------------
	BYTE	W96
// 042   ----------------------------------------
	BYTE	W96
// 043   ----------------------------------------
	BYTE	W96
// 044   ----------------------------------------
	BYTE	W96
// 045   ----------------------------------------
	BYTE	W96
// 046   ----------------------------------------
	BYTE	W96
// 047   ----------------------------------------
	BYTE	W96
// 048   ----------------------------------------
	BYTE	W96
// 049   ----------------------------------------
	BYTE	W96
// 050   ----------------------------------------
	BYTE	W96
// 051   ----------------------------------------
	BYTE	W96
// 052   ----------------------------------------
	BYTE	W96
// 053   ----------------------------------------
	BYTE	W96
// 054   ----------------------------------------
	BYTE	W96
// 055   ----------------------------------------
	BYTE	W96
// 056   ----------------------------------------
	BYTE	W96
// 057   ----------------------------------------
	BYTE	W96
// 058   ----------------------------------------
	BYTE	W96
// 059   ----------------------------------------
	BYTE	W96
// 060   ----------------------------------------
	BYTE	W96
// 061   ----------------------------------------
	BYTE	W96
// 062   ----------------------------------------
	BYTE	W96
// 063   ----------------------------------------
	BYTE	W96
// 064   ----------------------------------------
	BYTE	W96
// 065   ----------------------------------------
	BYTE	W96
// 066   ----------------------------------------
	BYTE	W96
// 067   ----------------------------------------
	BYTE	W96
// 068   ----------------------------------------
	BYTE	W96
// 069   ----------------------------------------
	BYTE	W96
// 070   ----------------------------------------
	BYTE	W96
// 071   ----------------------------------------
	BYTE	W96
// 072   ----------------------------------------
	BYTE	W96
// 073   ----------------------------------------
	BYTE	W96
// 074   ----------------------------------------
	BYTE	W96
// 075   ----------------------------------------
	BYTE	W96
// 076   ----------------------------------------
	BYTE	W96
// 077   ----------------------------------------
	BYTE	W96
// 078   ----------------------------------------
	BYTE	W96
// 079   ----------------------------------------
	BYTE	W96
// 080   ----------------------------------------
	BYTE	W96
// 081   ----------------------------------------
	BYTE	W96
// 082   ----------------------------------------
	BYTE	W96
// 083   ----------------------------------------
	BYTE	W96
// 084   ----------------------------------------
	BYTE	W96
// 085   ----------------------------------------
	BYTE	W96
// 086   ----------------------------------------
	BYTE	W96
// 087   ----------------------------------------
	BYTE	W96
// 088   ----------------------------------------
	BYTE	W96
// 089   ----------------------------------------
	BYTE	PATT
	 POIN2	Saga_4_033
// 090   ----------------------------------------
	BYTE	PATT
	 POIN2	Saga_4_018
// 091   ----------------------------------------
	BYTE	PATT
	 POIN2	Saga_4_019
// 092   ----------------------------------------
	BYTE	PATT
	 POIN2	Saga_4_020
// 093   ----------------------------------------
	BYTE	PATT
	 POIN2	Saga_4_021
// 094   ----------------------------------------
	BYTE	PATT
	 POIN2	Saga_4_022
// 095   ----------------------------------------
	BYTE	PATT
	 POIN2	Saga_4_023
// 096   ----------------------------------------
	BYTE	PATT
	 POIN2	Saga_4_024
// 097   ----------------------------------------
	BYTE	W96
// 098   ----------------------------------------
	BYTE	W96
// 099   ----------------------------------------
	BYTE	W96
// 100   ----------------------------------------
	BYTE	W96
// 101   ----------------------------------------
	BYTE	W96
// 102   ----------------------------------------
	BYTE	W96
// 103   ----------------------------------------
	BYTE	W96
// 104   ----------------------------------------
	BYTE	W96
// 105   ----------------------------------------
	BYTE	W96
// 106   ----------------------------------------
	BYTE	W96
// 107   ----------------------------------------
	BYTE	W96
// 108   ----------------------------------------
	BYTE	W96
// 109   ----------------------------------------
	BYTE	W96
// 110   ----------------------------------------
	BYTE	W96
// 111   ----------------------------------------
	BYTE	W96
// 112   ----------------------------------------
	BYTE	W96
// 113   ----------------------------------------
	BYTE	PATT
	 POIN2	Saga_4_033
// 114   ----------------------------------------
	BYTE	PATT
	 POIN2	Saga_4_018
// 115   ----------------------------------------
	BYTE	PATT
	 POIN2	Saga_4_019
// 116   ----------------------------------------
	BYTE	PATT
	 POIN2	Saga_4_020
// 117   ----------------------------------------
	BYTE	PATT
	 POIN2	Saga_4_021
// 118   ----------------------------------------
	BYTE	PATT
	 POIN2	Saga_4_022
// 119   ----------------------------------------
	BYTE	PATT
	 POIN2	Saga_4_023
// 120   ----------------------------------------
	BYTE	PATT
	 POIN2	Saga_4_024
// 121   ----------------------------------------
	BYTE	W96
// 122   ----------------------------------------
	BYTE	W96
// 123   ----------------------------------------
	BYTE	W96
// 124   ----------------------------------------
	BYTE	W96
// 125   ----------------------------------------
	BYTE	W96
// 126   ----------------------------------------
	BYTE	W96
// 127   ----------------------------------------
	BYTE	W96
// 128   ----------------------------------------
	BYTE	W96
// 129   ----------------------------------------
	BYTE	W96
// 130   ----------------------------------------
	BYTE	W96
// 131   ----------------------------------------
	BYTE	W96
// 132   ----------------------------------------
	BYTE	W96
// 133   ----------------------------------------
	BYTE	W06
	BYTE	GoTo
	 POIN2	Saga_4_B1
Saga_4_B2:
	BYTE	W90
// 134   ----------------------------------------
	BYTE	W96
// 135   ----------------------------------------
	BYTE	W96
// 136   ----------------------------------------
	BYTE	W14
	BYTE	FINE

//**************** Track 5 (Midi-Chn.5) ****************//

Saga_5:
	BYTE	KEYSH   Saga_key+0
// 000   ----------------------------------------
	BYTE		VOICE   60
	BYTE	W96
Saga_5_B1:
// 001   ----------------------------------------
	BYTE	W96
// 002   ----------------------------------------
	BYTE	W96
// 003   ----------------------------------------
	BYTE	W96
// 004   ----------------------------------------
	BYTE	W96
// 005   ----------------------------------------
	BYTE	W96
// 006   ----------------------------------------
	BYTE	W96
// 007   ----------------------------------------
	BYTE	W96
// 008   ----------------------------------------
	BYTE	W96
// 009   ----------------------------------------
	BYTE		VOL     105*Saga_mvl/mxv
	BYTE		PAN     c_v-22
	BYTE		N88     Dn2   v116
	BYTE	W96
// 010   ----------------------------------------
	BYTE		N72   
	BYTE	W84
	BYTE		N05     Dn2   v112
	BYTE	W06
	BYTE		N04     En2   v120
	BYTE	W06
// 011   ----------------------------------------
	BYTE		N48     Fn2   v112
	BYTE	W48
	BYTE		N22     En2 
	BYTE	W24
	BYTE		N24     Gn2 
	BYTE	W24
// 012   ----------------------------------------
	BYTE		N68     Dn2 
	BYTE	W96
// 013   ----------------------------------------
	BYTE		N84   
	BYTE	W96
// 014   ----------------------------------------
	BYTE		N04     Fn2 
	BYTE	W06
	BYTE		N03     En2   v120
	BYTE	W06
	BYTE		        Dn2 
	BYTE	W06
	BYTE		N01     En2   v116
	BYTE	W06
	BYTE		N48     Dn2   v112
	BYTE	W60
	BYTE		N05     En2   v100
	BYTE	W06
	BYTE		N04     Fn2   v112
	BYTE	W06
// 015   ----------------------------------------
	BYTE		N42     Gn2   v120
	BYTE	W48
	BYTE		N24     Fn2   v116
	BYTE	W24
	BYTE		        En2   v112
	BYTE	W24
// 016   ----------------------------------------
	BYTE		N76     Dn2 
	BYTE	W96
// 017   ----------------------------------------
	BYTE	W96
// 018   ----------------------------------------
	BYTE	W96
// 019   ----------------------------------------
	BYTE	W96
// 020   ----------------------------------------
	BYTE	W96
// 021   ----------------------------------------
	BYTE	W96
// 022   ----------------------------------------
	BYTE	W96
// 023   ----------------------------------------
	BYTE	W96
// 024   ----------------------------------------
	BYTE	W96
// 025   ----------------------------------------
	BYTE		N88     An2   v108
	BYTE	W96
// 026   ----------------------------------------
Saga_5_026:
	BYTE		N72     An2   v108
	BYTE	W84
	BYTE		N05     An2   v104
	BYTE	W06
	BYTE		N04     Bn2   v112
	BYTE	W06
	BYTE	PEND
// 027   ----------------------------------------
Saga_5_027:
	BYTE		N48     Cn3   v104
	BYTE	W48
	BYTE		N22     Bn2 
	BYTE	W24
	BYTE		N24     Dn3 
	BYTE	W24
	BYTE	PEND
// 028   ----------------------------------------
	BYTE		N68     An2 
	BYTE	W96
// 029   ----------------------------------------
	BYTE		N84   
	BYTE	W96
// 030   ----------------------------------------
Saga_5_030:
	BYTE		N04     Cn3   v104
	BYTE	W06
	BYTE		N03     Bn2   v112
	BYTE	W06
	BYTE		        An2 
	BYTE	W06
	BYTE		N01     Bn2   v108
	BYTE	W06
	BYTE		N48     An2   v104
	BYTE	W60
	BYTE		N05     Bn2   v092
	BYTE	W06
	BYTE		N04     Cn3   v104
	BYTE	W06
	BYTE	PEND
// 031   ----------------------------------------
Saga_5_031:
	BYTE		N42     Dn3   v112
	BYTE	W48
	BYTE		N24     Cn3   v108
	BYTE	W24
	BYTE		        Bn2   v104
	BYTE	W24
	BYTE	PEND
// 032   ----------------------------------------
	BYTE		N76     An2 
	BYTE	W96
// 033   ----------------------------------------
	BYTE	W96
// 034   ----------------------------------------
	BYTE	W96
// 035   ----------------------------------------
	BYTE	W96
// 036   ----------------------------------------
	BYTE	W96
// 037   ----------------------------------------
	BYTE	W96
// 038   ----------------------------------------
	BYTE	W96
// 039   ----------------------------------------
	BYTE	W96
// 040   ----------------------------------------
	BYTE	W96
// 041   ----------------------------------------
	BYTE		N88     Gn1   v108
	BYTE	W96
// 042   ----------------------------------------
Saga_5_042:
	BYTE		N20     Gn1   v120
	BYTE	W24
	BYTE		        An1   v116
	BYTE	W24
	BYTE		        As1   v124
	BYTE	W24
	BYTE		N17     Cn2   v120
	BYTE	W24
	BYTE	PEND
// 043   ----------------------------------------
Saga_5_043:
	BYTE		TIE     Ds2   v112
	BYTE	W68
	BYTE	W03
	BYTE		MOD     2
	BYTE	W01
	BYTE		        6
	BYTE	W01
	BYTE		        10
	BYTE	W01
	BYTE		        12
	BYTE	W01
	BYTE		        16
	BYTE	W01
	BYTE		        20
	BYTE	W01
	BYTE		        22
	BYTE	W01
	BYTE		        26
	BYTE	W01
	BYTE		        30
	BYTE	W01
	BYTE		        34
	BYTE	W01
	BYTE		        36
	BYTE	W01
	BYTE		        40
	BYTE	W01
	BYTE		        44
	BYTE	W01
	BYTE		        46
	BYTE	W01
	BYTE		        50
	BYTE	W01
	BYTE		        54
	BYTE	W01
	BYTE		        58
	BYTE	W01
	BYTE		        60
	BYTE	W01
	BYTE		        64
	BYTE	W01
	BYTE		        68
	BYTE	W01
	BYTE		        72
	BYTE	W01
	BYTE		        74
	BYTE	W01
	BYTE		        78
	BYTE	W01
	BYTE		        82
	BYTE	W01
	BYTE		        84
	BYTE	W01
	BYTE	PEND
// 044   ----------------------------------------
Saga_5_044:
	BYTE		MOD     88
	BYTE	W01
	BYTE		        92
	BYTE	W01
	BYTE		        96
	BYTE	W01
	BYTE		        98
	BYTE	W01
	BYTE		        102
	BYTE	W01
	BYTE		        106
	BYTE	W01
	BYTE		        110
	BYTE	W01
	BYTE		        112
	BYTE	W01
	BYTE		        116
	BYTE	W01
	BYTE		        120
	BYTE	W01
	BYTE		        122
	BYTE	W01
	BYTE		        126
	BYTE	W01
	BYTE		        127
	BYTE	W36
	BYTE		        0
	BYTE	W32
	BYTE	PEND
	BYTE		EOT     Ds2 
	BYTE	W16
// 045   ----------------------------------------
	BYTE		N88     Gn1   v108
	BYTE	W96
// 046   ----------------------------------------
	BYTE	PATT
	 POIN2	Saga_5_042
// 047   ----------------------------------------
	BYTE	PATT
	 POIN2	Saga_5_043
// 048   ----------------------------------------
	BYTE	PATT
	 POIN2	Saga_5_044
	BYTE		EOT     Ds2 
	BYTE	W16
// 049   ----------------------------------------
	BYTE		N88     Gn1   v108
	BYTE	W96
// 050   ----------------------------------------
	BYTE	PATT
	 POIN2	Saga_5_042
// 051   ----------------------------------------
	BYTE	PATT
	 POIN2	Saga_5_043
// 052   ----------------------------------------
	BYTE	PATT
	 POIN2	Saga_5_044
	BYTE		EOT     Ds2 
	BYTE	W16
// 053   ----------------------------------------
	BYTE		N88     Gn1   v108
	BYTE	W96
// 054   ----------------------------------------
	BYTE	PATT
	 POIN2	Saga_5_042
// 055   ----------------------------------------
	BYTE	PATT
	 POIN2	Saga_5_043
// 056   ----------------------------------------
	BYTE	PATT
	 POIN2	Saga_5_044
	BYTE		EOT     Ds2 
	BYTE	W16
// 057   ----------------------------------------
	BYTE		TIE     An2   v116
	BYTE	W96
// 058   ----------------------------------------
	BYTE	W48
	BYTE		N48     As2 
	BYTE	W01
	BYTE		EOT     An2 
	BYTE	W44
	BYTE	W03
// 059   ----------------------------------------
	BYTE		TIE     Gn2 
	BYTE	W96
// 060   ----------------------------------------
	BYTE	W92
	BYTE	W01
	BYTE		EOT   
	BYTE	W03
// 061   ----------------------------------------
	BYTE		TIE     An2 
	BYTE	W96
// 062   ----------------------------------------
	BYTE	W48
	BYTE		N48     As2 
	BYTE	W01
	BYTE		EOT     An2 
	BYTE	W44
	BYTE	W03
// 063   ----------------------------------------
	BYTE		TIE     Gn2 
	BYTE	W96
// 064   ----------------------------------------
	BYTE	W92
	BYTE	W01
	BYTE		EOT   
	BYTE	W03
// 065   ----------------------------------------
	BYTE	W96
// 066   ----------------------------------------
	BYTE	W96
// 067   ----------------------------------------
	BYTE	W96
// 068   ----------------------------------------
	BYTE	W96
// 069   ----------------------------------------
	BYTE	W96
// 070   ----------------------------------------
	BYTE	W96
// 071   ----------------------------------------
	BYTE	W96
// 072   ----------------------------------------
	BYTE	W96
// 073   ----------------------------------------
	BYTE	W96
// 074   ----------------------------------------
	BYTE	W96
// 075   ----------------------------------------
	BYTE	W96
// 076   ----------------------------------------
	BYTE	W96
// 077   ----------------------------------------
	BYTE	W96
// 078   ----------------------------------------
	BYTE	W96
// 079   ----------------------------------------
	BYTE	W96
// 080   ----------------------------------------
	BYTE	W96
// 081   ----------------------------------------
	BYTE	W96
// 082   ----------------------------------------
	BYTE	W96
// 083   ----------------------------------------
	BYTE	W96
// 084   ----------------------------------------
	BYTE	W96
// 085   ----------------------------------------
	BYTE	W96
// 086   ----------------------------------------
	BYTE	W96
// 087   ----------------------------------------
	BYTE	W96
// 088   ----------------------------------------
	BYTE	W96
// 089   ----------------------------------------
	BYTE	W96
// 090   ----------------------------------------
	BYTE	W96
// 091   ----------------------------------------
	BYTE	W96
// 092   ----------------------------------------
	BYTE	W96
// 093   ----------------------------------------
	BYTE	W96
// 094   ----------------------------------------
	BYTE	W96
// 095   ----------------------------------------
	BYTE	W96
// 096   ----------------------------------------
	BYTE	W96
// 097   ----------------------------------------
	BYTE		N88     An2   v108
	BYTE	W96
// 098   ----------------------------------------
	BYTE	PATT
	 POIN2	Saga_5_026
// 099   ----------------------------------------
	BYTE	PATT
	 POIN2	Saga_5_027
// 100   ----------------------------------------
	BYTE		N68     An2   v104
	BYTE	W96
// 101   ----------------------------------------
	BYTE		N84   
	BYTE	W96
// 102   ----------------------------------------
	BYTE	PATT
	 POIN2	Saga_5_030
// 103   ----------------------------------------
	BYTE	PATT
	 POIN2	Saga_5_031
// 104   ----------------------------------------
	BYTE		N76     An2   v104
	BYTE	W96
// 105   ----------------------------------------
	BYTE		TIE     An2   v116
	BYTE	W96
// 106   ----------------------------------------
	BYTE	W48
	BYTE		N48     As2 
	BYTE	W01
	BYTE		EOT     An2 
	BYTE	W44
	BYTE	W03
// 107   ----------------------------------------
	BYTE		TIE     Gn2 
	BYTE	W96
// 108   ----------------------------------------
	BYTE	W92
	BYTE	W01
	BYTE		EOT   
	BYTE	W03
// 109   ----------------------------------------
	BYTE		TIE     An2 
	BYTE	W96
// 110   ----------------------------------------
	BYTE	W48
	BYTE		N48     As2 
	BYTE	W01
	BYTE		EOT     An2 
	BYTE	W44
	BYTE	W03
// 111   ----------------------------------------
	BYTE		TIE     Gn2 
	BYTE	W96
// 112   ----------------------------------------
	BYTE	W92
	BYTE	W01
	BYTE		EOT   
	BYTE	W03
// 113   ----------------------------------------
	BYTE	W96
// 114   ----------------------------------------
	BYTE	W96
// 115   ----------------------------------------
	BYTE	W96
// 116   ----------------------------------------
	BYTE	W96
// 117   ----------------------------------------
	BYTE	W96
// 118   ----------------------------------------
	BYTE	W96
// 119   ----------------------------------------
	BYTE	W96
// 120   ----------------------------------------
	BYTE	W96
// 121   ----------------------------------------
	BYTE	W96
// 122   ----------------------------------------
	BYTE	W96
// 123   ----------------------------------------
	BYTE	W96
// 124   ----------------------------------------
	BYTE	W96
// 125   ----------------------------------------
	BYTE	W96
// 126   ----------------------------------------
	BYTE	W96
// 127   ----------------------------------------
	BYTE	W96
// 128   ----------------------------------------
	BYTE	W96
// 129   ----------------------------------------
	BYTE	W96
// 130   ----------------------------------------
	BYTE	W96
// 131   ----------------------------------------
	BYTE	W96
// 132   ----------------------------------------
	BYTE	W96
// 133   ----------------------------------------
	BYTE	W06
	BYTE	GoTo
	 POIN2	Saga_5_B1
Saga_5_B2:
	BYTE	W90
// 134   ----------------------------------------
	BYTE	W96
// 135   ----------------------------------------
	BYTE	W96
// 136   ----------------------------------------
	BYTE	W14
	BYTE	FINE

//**************** Track 6 (Midi-Chn.6) ****************//

Saga_6:
	BYTE	KEYSH   Saga_key+0
// 000   ----------------------------------------
	BYTE		VOICE   117
	BYTE	W96
Saga_6_B1:
// 001   ----------------------------------------
	BYTE	W96
// 002   ----------------------------------------
	BYTE	W96
// 003   ----------------------------------------
	BYTE	W96
// 004   ----------------------------------------
	BYTE	W96
// 005   ----------------------------------------
	BYTE	W96
// 006   ----------------------------------------
	BYTE	W96
// 007   ----------------------------------------
	BYTE	W96
// 008   ----------------------------------------
	BYTE	W96
// 009   ----------------------------------------
	BYTE		VOL     85*Saga_mvl/mxv
	BYTE		PAN     c_v+15
	BYTE		N03     Fn0   v112
	BYTE	W12
	BYTE		N02   
	BYTE	W24
	BYTE		N03     An0   v108
	BYTE	W12
	BYTE		N02     Cn1   v112
	BYTE	W12
	BYTE		N02   
	BYTE	W06
	BYTE		        Cn1   v100
	BYTE	W06
	BYTE		N04     Cn1   v116
	BYTE	W24
// 010   ----------------------------------------
Saga_6_010:
	BYTE	W12
	BYTE		N02     An0   v100
	BYTE	W06
	BYTE		N02   
	BYTE	W06
	BYTE		N03   
	BYTE	W12
	BYTE		N02     Cn1   v108
	BYTE	W12
	BYTE		        Dn1 
	BYTE	W12
	BYTE		        Cn1   v100
	BYTE	W06
	BYTE		        Dn1   v112
	BYTE	W06
	BYTE		N03     Cn1   v104
	BYTE	W24
	BYTE	PEND
// 011   ----------------------------------------
Saga_6_011:
	BYTE	W12
	BYTE		N02     Fn1   v104
	BYTE	W06
	BYTE		N03     Fn1   v100
	BYTE	W06
	BYTE		N01     En1   v084
	BYTE		N04     Fn1   v092
	BYTE	W12
	BYTE		N03     Dn1   v108
	BYTE	W12
	BYTE		N02     Cn1   v104
	BYTE	W12
	BYTE		N03     Dn1   v108
	BYTE	W12
	BYTE		N02     Cn1 
	BYTE	W12
	BYTE		        An0   v112
	BYTE	W12
	BYTE	PEND
// 012   ----------------------------------------
Saga_6_012:
	BYTE		N02     Cn1   v112
	BYTE	W12
	BYTE		N03     Cn1   v096
	BYTE	W12
	BYTE		N02     An0   v104
	BYTE	W24
	BYTE		N03     An0   v112
	BYTE	W12
	BYTE		N02     Gn0   v108
	BYTE	W06
	BYTE		        Gn0   v112
	BYTE	W06
	BYTE		N14     Fn0   v120
	BYTE	W24
	BYTE	PEND
// 013   ----------------------------------------
Saga_6_013:
	BYTE	W12
	BYTE		N03     Cn1   v104
	BYTE	W12
	BYTE		        An0   v124
	BYTE	W36
	BYTE		        Cn1   v100
	BYTE	W06
	BYTE		        Cn1   v080
	BYTE	W06
	BYTE		        Cn1   v092
	BYTE	W12
	BYTE		        Cn1   v112
	BYTE	W12
	BYTE	PEND
// 014   ----------------------------------------
Saga_6_014:
	BYTE		N04     Dn1   v104
	BYTE	W12
	BYTE		N03     Cn1   v108
	BYTE	W12
	BYTE		        Cn1   v104
	BYTE	W12
	BYTE		        Dn1   v112
	BYTE	W12
	BYTE		        Cn1   v108
	BYTE	W12
	BYTE		        Cn1   v100
	BYTE	W06
	BYTE		N04     An0   v112
	BYTE	W06
	BYTE		        Cn1 
	BYTE	W24
	BYTE	PEND
// 015   ----------------------------------------
Saga_6_015:
	BYTE		N03     Fn1   v112
	BYTE	W12
	BYTE		N01     Dn1   v108
	BYTE	W06
	BYTE		N02     Dn1   v080
	BYTE	W06
	BYTE		N04     Dn1   v112
	BYTE	W12
	BYTE		N03     En1 
	BYTE	W12
	BYTE		N02     Cn1   v104
	BYTE	W06
	BYTE		N03     Cn1   v100
	BYTE	W06
	BYTE		        Cn1   v092
	BYTE	W12
	BYTE		        Dn1   v108
	BYTE	W12
	BYTE		        Cn1 
	BYTE	W12
	BYTE	PEND
// 016   ----------------------------------------
Saga_6_016:
	BYTE		N03     An0   v112
	BYTE	W12
	BYTE		        Bn0   v108
	BYTE	W12
	BYTE		N02     Cn1   v112
	BYTE	W12
	BYTE		        An0   v104
	BYTE	W06
	BYTE		N04     An0   v084
	BYTE	W06
	BYTE		N03     Cn1   v104
	BYTE	W06
	BYTE		        An0   v100
	BYTE	W06
	BYTE		        An0   v092
	BYTE	W06
	BYTE		N02     Gn0   v096
	BYTE	W06
	BYTE		N03     Gn0   v120
	BYTE	W12
	BYTE		        Fn0 
	BYTE	W12
	BYTE	PEND
// 017   ----------------------------------------
Saga_6_017:
	BYTE		N03     Fn0   v112
	BYTE	W12
	BYTE		N02   
	BYTE	W24
	BYTE		N03     An0   v108
	BYTE	W12
	BYTE		N02     Cn1   v104
	BYTE	W12
	BYTE		        Cn1   v100
	BYTE	W06
	BYTE		N02   
	BYTE	W06
	BYTE		N04     Cn1   v108
	BYTE	W24
	BYTE	PEND
// 018   ----------------------------------------
	BYTE	PATT
	 POIN2	Saga_6_010
// 019   ----------------------------------------
	BYTE	PATT
	 POIN2	Saga_6_011
// 020   ----------------------------------------
Saga_6_020:
	BYTE		N02     Cn1   v112
	BYTE	W12
	BYTE		N03     Cn1   v100
	BYTE	W12
	BYTE		N02     An0   v104
	BYTE	W24
	BYTE		N03     An0   v112
	BYTE	W12
	BYTE		N02     Gn0   v108
	BYTE	W06
	BYTE		        Gn0   v120
	BYTE	W06
	BYTE		N14     Fn0   v108
	BYTE	W24
	BYTE	PEND
// 021   ----------------------------------------
	BYTE	PATT
	 POIN2	Saga_6_013
// 022   ----------------------------------------
Saga_6_022:
	BYTE		N04     Dn1   v104
	BYTE	W12
	BYTE		N03     Cn1   v108
	BYTE	W12
	BYTE		        Cn1   v104
	BYTE	W12
	BYTE		        Dn1   v112
	BYTE	W12
	BYTE		        Cn1   v108
	BYTE	W12
	BYTE		        Cn1   v100
	BYTE	W06
	BYTE		N04     An0   v112
	BYTE	W06
	BYTE		        Cn1   v104
	BYTE	W24
	BYTE	PEND
// 023   ----------------------------------------
Saga_6_023:
	BYTE		N03     Fn1   v112
	BYTE	W12
	BYTE		N01     Dn1   v108
	BYTE	W06
	BYTE		N02     Dn1   v092
	BYTE	W06
	BYTE		N04     Dn1   v112
	BYTE	W12
	BYTE		N03     En1 
	BYTE	W12
	BYTE		N02     Cn1   v104
	BYTE	W06
	BYTE		N03     Cn1   v100
	BYTE	W06
	BYTE		        Cn1   v112
	BYTE	W12
	BYTE		        Dn1   v120
	BYTE	W12
	BYTE		        Cn1   v108
	BYTE	W12
	BYTE	PEND
// 024   ----------------------------------------
	BYTE	PATT
	 POIN2	Saga_6_016
// 025   ----------------------------------------
Saga_6_025:
	BYTE		N03     Fn0   v112
	BYTE	W12
	BYTE		N02   
	BYTE	W24
	BYTE		N03     An0   v108
	BYTE	W12
	BYTE		N02     Cn1   v112
	BYTE	W12
	BYTE		N02   
	BYTE	W06
	BYTE		        Cn1   v100
	BYTE	W06
	BYTE		N04     Cn1   v116
	BYTE	W24
	BYTE	PEND
// 026   ----------------------------------------
	BYTE	PATT
	 POIN2	Saga_6_010
// 027   ----------------------------------------
	BYTE	PATT
	 POIN2	Saga_6_011
// 028   ----------------------------------------
	BYTE	PATT
	 POIN2	Saga_6_012
// 029   ----------------------------------------
	BYTE	PATT
	 POIN2	Saga_6_013
// 030   ----------------------------------------
	BYTE	PATT
	 POIN2	Saga_6_014
// 031   ----------------------------------------
	BYTE	PATT
	 POIN2	Saga_6_015
// 032   ----------------------------------------
	BYTE	PATT
	 POIN2	Saga_6_016
// 033   ----------------------------------------
	BYTE	PATT
	 POIN2	Saga_6_017
// 034   ----------------------------------------
	BYTE	PATT
	 POIN2	Saga_6_010
// 035   ----------------------------------------
	BYTE	PATT
	 POIN2	Saga_6_011
// 036   ----------------------------------------
	BYTE	PATT
	 POIN2	Saga_6_020
// 037   ----------------------------------------
	BYTE	PATT
	 POIN2	Saga_6_013
// 038   ----------------------------------------
	BYTE	PATT
	 POIN2	Saga_6_022
// 039   ----------------------------------------
	BYTE	PATT
	 POIN2	Saga_6_023
// 040   ----------------------------------------
	BYTE	PATT
	 POIN2	Saga_6_016
// 041   ----------------------------------------
	BYTE	PATT
	 POIN2	Saga_6_017
// 042   ----------------------------------------
	BYTE	PATT
	 POIN2	Saga_6_010
// 043   ----------------------------------------
	BYTE	PATT
	 POIN2	Saga_6_011
// 044   ----------------------------------------
	BYTE	PATT
	 POIN2	Saga_6_020
// 045   ----------------------------------------
	BYTE	PATT
	 POIN2	Saga_6_013
// 046   ----------------------------------------
	BYTE	PATT
	 POIN2	Saga_6_022
// 047   ----------------------------------------
	BYTE	PATT
	 POIN2	Saga_6_023
// 048   ----------------------------------------
Saga_6_048:
	BYTE		N03     An0   v112
	BYTE	W12
	BYTE		        Bn0   v108
	BYTE	W12
	BYTE		N02     Cn1   v112
	BYTE	W12
	BYTE		        An0   v104
	BYTE	W06
	BYTE		N04     An0   v084
	BYTE	W06
	BYTE		N03     Cn1   v104
	BYTE	W06
	BYTE		        An0   v100
	BYTE	W06
	BYTE		        An0   v092
	BYTE	W06
	BYTE		N02     Gn0   v096
	BYTE	W06
	BYTE		N03     Gn0   v120
	BYTE	W24
	BYTE	PEND
// 049   ----------------------------------------
	BYTE	PATT
	 POIN2	Saga_6_017
// 050   ----------------------------------------
	BYTE	PATT
	 POIN2	Saga_6_010
// 051   ----------------------------------------
	BYTE	PATT
	 POIN2	Saga_6_011
// 052   ----------------------------------------
	BYTE	PATT
	 POIN2	Saga_6_020
// 053   ----------------------------------------
	BYTE	PATT
	 POIN2	Saga_6_013
// 054   ----------------------------------------
	BYTE	PATT
	 POIN2	Saga_6_022
// 055   ----------------------------------------
	BYTE	PATT
	 POIN2	Saga_6_023
// 056   ----------------------------------------
	BYTE	PATT
	 POIN2	Saga_6_048
// 057   ----------------------------------------
	BYTE	PATT
	 POIN2	Saga_6_025
// 058   ----------------------------------------
Saga_6_058:
	BYTE		N03     Fn0   v112
	BYTE	W12
	BYTE		N02   
	BYTE	W24
	BYTE		N03     An0   v108
	BYTE	W12
	BYTE		        Fn0   v112
	BYTE	W12
	BYTE		N02   
	BYTE	W24
	BYTE		N03     An0   v108
	BYTE	W12
	BYTE	PEND
// 059   ----------------------------------------
	BYTE	PATT
	 POIN2	Saga_6_025
// 060   ----------------------------------------
Saga_6_060:
	BYTE		N02     Cn1   v112
	BYTE	W12
	BYTE		N02   
	BYTE	W06
	BYTE		        Cn1   v100
	BYTE	W06
	BYTE		N04     Cn1   v116
	BYTE	W24
	BYTE		N02     Cn1   v112
	BYTE	W12
	BYTE		N02   
	BYTE	W06
	BYTE		        Cn1   v100
	BYTE	W06
	BYTE		N04     Cn1   v116
	BYTE	W12
	BYTE		N01     Gs0   v127
	BYTE	W12
	BYTE	PEND
// 061   ----------------------------------------
	BYTE	PATT
	 POIN2	Saga_6_025
// 062   ----------------------------------------
	BYTE	PATT
	 POIN2	Saga_6_058
// 063   ----------------------------------------
	BYTE	PATT
	 POIN2	Saga_6_025
// 064   ----------------------------------------
	BYTE	PATT
	 POIN2	Saga_6_060
// 065   ----------------------------------------
	BYTE	PATT
	 POIN2	Saga_6_025
// 066   ----------------------------------------
	BYTE	PATT
	 POIN2	Saga_6_010
// 067   ----------------------------------------
	BYTE	PATT
	 POIN2	Saga_6_011
// 068   ----------------------------------------
	BYTE	PATT
	 POIN2	Saga_6_012
// 069   ----------------------------------------
	BYTE	PATT
	 POIN2	Saga_6_013
// 070   ----------------------------------------
	BYTE	PATT
	 POIN2	Saga_6_014
// 071   ----------------------------------------
	BYTE	PATT
	 POIN2	Saga_6_015
// 072   ----------------------------------------
	BYTE	PATT
	 POIN2	Saga_6_016
// 073   ----------------------------------------
Saga_6_073:
	BYTE	W12
	BYTE		N02     Dn2   v080
	BYTE	W12
	BYTE		N03     Dn2   v108
	BYTE	W24
	BYTE		N04   
	BYTE	W06
	BYTE		        Dn2   v092
	BYTE	W06
	BYTE		N02     Dn2   v064
	BYTE	W06
	BYTE		N04     Dn2   v072
	BYTE	W06
	BYTE		        Dn2   v104
	BYTE	W06
	BYTE		N02     Dn2   v072
	BYTE	W06
	BYTE		N03     Dn2   v060
	BYTE	W06
	BYTE		N04     Dn2   v104
	BYTE	W06
	BYTE	PEND
// 074   ----------------------------------------
Saga_6_074:
	BYTE		N04     Dn2   v080
	BYTE	W12
	BYTE		        Dn2   v076
	BYTE	W12
	BYTE		N03     Dn2   v112
	BYTE	W24
	BYTE		        Dn2   v108
	BYTE	W06
	BYTE		        Dn2   v076
	BYTE	W12
	BYTE		N04     Dn2   v088
	BYTE	W06
	BYTE		N05     Dn2   v112
	BYTE	W12
	BYTE		N03     Dn2   v056
	BYTE	W12
	BYTE	PEND
// 075   ----------------------------------------
Saga_6_075:
	BYTE		N04     Dn2   v104
	BYTE	W12
	BYTE		        Dn2   v076
	BYTE	W12
	BYTE		        Dn2   v112
	BYTE	W24
	BYTE		N03     Dn2   v092
	BYTE	W06
	BYTE		N04     Dn2   v100
	BYTE	W06
	BYTE		N02     Dn2   v076
	BYTE	W06
	BYTE		N04     Dn2   v088
	BYTE	W06
	BYTE		N03     Dn2   v112
	BYTE	W06
	BYTE		N02     Dn2   v076
	BYTE	W06
	BYTE		N04     Dn2   v072
	BYTE	W06
	BYTE		        Dn2   v104
	BYTE	W06
	BYTE	PEND
// 076   ----------------------------------------
Saga_6_076:
	BYTE		N04     Dn2   v076
	BYTE	W12
	BYTE		N03     Dn2   v088
	BYTE	W12
	BYTE		        Dn2   v112
	BYTE	W24
	BYTE		        Dn2   v108
	BYTE	W06
	BYTE		        Dn2   v096
	BYTE	W06
	BYTE		N02     Dn2   v060
	BYTE	W06
	BYTE		N04   
	BYTE	W06
	BYTE		N05     Dn2   v112
	BYTE	W24
	BYTE	PEND
// 077   ----------------------------------------
Saga_6_077:
	BYTE		N03     Dn2   v108
	BYTE	W12
	BYTE		N02     Dn2   v076
	BYTE	W12
	BYTE		N04     Dn2   v108
	BYTE	W24
	BYTE		N03     Dn2   v100
	BYTE	W06
	BYTE		N04   
	BYTE	W06
	BYTE		N02     Dn2   v080
	BYTE	W06
	BYTE		N04     Dn2   v072
	BYTE	W06
	BYTE		        Dn2   v112
	BYTE	W06
	BYTE		N02     Dn2   v072
	BYTE	W06
	BYTE		N03     Dn2   v060
	BYTE	W06
	BYTE		N04     Dn2   v104
	BYTE	W06
	BYTE	PEND
// 078   ----------------------------------------
Saga_6_078:
	BYTE		N03     Dn2   v084
	BYTE	W12
	BYTE		N03   
	BYTE	W12
	BYTE		N05     Dn2   v116
	BYTE	W24
	BYTE		N03     Dn2   v108
	BYTE	W06
	BYTE		N04     Dn2   v100
	BYTE	W06
	BYTE		N02     Dn2   v076
	BYTE	W06
	BYTE		N04     Dn2   v072
	BYTE	W06
	BYTE		N05     Dn2   v116
	BYTE	W12
	BYTE		N02     Dn2   v044
	BYTE	W12
	BYTE	PEND
// 079   ----------------------------------------
Saga_6_079:
	BYTE		N03     Dn2   v100
	BYTE	W12
	BYTE		N04     Dn2   v084
	BYTE	W12
	BYTE		N07     Dn2   v100
	BYTE	W24
	BYTE		N03     Dn2   v092
	BYTE	W06
	BYTE		N04     Dn2   v104
	BYTE	W12
	BYTE		        Dn2   v076
	BYTE	W06
	BYTE		        Dn2   v116
	BYTE	W06
	BYTE		N02     Dn2   v080
	BYTE	W06
	BYTE		N03     Dn2   v072
	BYTE	W06
	BYTE		N04     Dn2   v112
	BYTE	W06
	BYTE	PEND
// 080   ----------------------------------------
Saga_6_080:
	BYTE		N03     Dn2   v100
	BYTE	W12
	BYTE		N04     Dn2   v076
	BYTE	W12
	BYTE		N05     Dn2   v116
	BYTE	W24
	BYTE		N03     Dn2   v096
	BYTE	W06
	BYTE		N04     Dn2   v100
	BYTE	W06
	BYTE		N02     Dn2   v068
	BYTE	W06
	BYTE		N04     Dn2   v084
	BYTE	W06
	BYTE		        Dn2   v116
	BYTE	W24
	BYTE	PEND
// 081   ----------------------------------------
	BYTE	PATT
	 POIN2	Saga_6_073
// 082   ----------------------------------------
	BYTE	PATT
	 POIN2	Saga_6_074
// 083   ----------------------------------------
	BYTE	PATT
	 POIN2	Saga_6_075
// 084   ----------------------------------------
	BYTE	PATT
	 POIN2	Saga_6_076
// 085   ----------------------------------------
	BYTE	PATT
	 POIN2	Saga_6_077
// 086   ----------------------------------------
	BYTE	PATT
	 POIN2	Saga_6_078
// 087   ----------------------------------------
	BYTE	PATT
	 POIN2	Saga_6_079
// 088   ----------------------------------------
	BYTE	PATT
	 POIN2	Saga_6_080
// 089   ----------------------------------------
	BYTE	PATT
	 POIN2	Saga_6_017
// 090   ----------------------------------------
	BYTE	PATT
	 POIN2	Saga_6_010
// 091   ----------------------------------------
	BYTE	PATT
	 POIN2	Saga_6_011
// 092   ----------------------------------------
	BYTE	PATT
	 POIN2	Saga_6_020
// 093   ----------------------------------------
	BYTE	PATT
	 POIN2	Saga_6_013
// 094   ----------------------------------------
	BYTE	PATT
	 POIN2	Saga_6_022
// 095   ----------------------------------------
	BYTE	PATT
	 POIN2	Saga_6_023
// 096   ----------------------------------------
Saga_6_096:
	BYTE		N03     An0   v112
	BYTE	W12
	BYTE		        Bn0   v108
	BYTE	W12
	BYTE		N02     Cn1   v112
	BYTE	W12
	BYTE		        An0   v104
	BYTE	W06
	BYTE		N04     An0   v084
	BYTE	W06
	BYTE		N03     Cn1   v104
	BYTE	W06
	BYTE		        An0   v100
	BYTE	W06
	BYTE		        An0   v092
	BYTE	W06
	BYTE		N02     Gn0   v096
	BYTE	W06
	BYTE		N03     Gn0   v120
	BYTE	W12
	BYTE		        Fn0 
	BYTE	W04
	BYTE		        Dn2   v020
	BYTE	W07
	BYTE		N04     Dn2   v092
	BYTE	W01
	BYTE	PEND
// 097   ----------------------------------------
	BYTE	PATT
	 POIN2	Saga_6_025
// 098   ----------------------------------------
	BYTE	PATT
	 POIN2	Saga_6_010
// 099   ----------------------------------------
	BYTE	PATT
	 POIN2	Saga_6_011
// 100   ----------------------------------------
	BYTE	PATT
	 POIN2	Saga_6_012
// 101   ----------------------------------------
	BYTE	PATT
	 POIN2	Saga_6_013
// 102   ----------------------------------------
	BYTE	PATT
	 POIN2	Saga_6_014
// 103   ----------------------------------------
	BYTE	PATT
	 POIN2	Saga_6_015
// 104   ----------------------------------------
	BYTE	PATT
	 POIN2	Saga_6_016
// 105   ----------------------------------------
	BYTE	PATT
	 POIN2	Saga_6_025
// 106   ----------------------------------------
	BYTE	PATT
	 POIN2	Saga_6_058
// 107   ----------------------------------------
	BYTE	PATT
	 POIN2	Saga_6_025
// 108   ----------------------------------------
	BYTE	PATT
	 POIN2	Saga_6_060
// 109   ----------------------------------------
	BYTE	PATT
	 POIN2	Saga_6_025
// 110   ----------------------------------------
	BYTE	PATT
	 POIN2	Saga_6_058
// 111   ----------------------------------------
	BYTE	PATT
	 POIN2	Saga_6_025
// 112   ----------------------------------------
	BYTE	PATT
	 POIN2	Saga_6_060
// 113   ----------------------------------------
	BYTE	PATT
	 POIN2	Saga_6_017
// 114   ----------------------------------------
	BYTE	PATT
	 POIN2	Saga_6_010
// 115   ----------------------------------------
	BYTE	PATT
	 POIN2	Saga_6_011
// 116   ----------------------------------------
	BYTE	PATT
	 POIN2	Saga_6_020
// 117   ----------------------------------------
	BYTE	PATT
	 POIN2	Saga_6_013
// 118   ----------------------------------------
	BYTE	PATT
	 POIN2	Saga_6_022
// 119   ----------------------------------------
	BYTE	PATT
	 POIN2	Saga_6_023
// 120   ----------------------------------------
	BYTE	PATT
	 POIN2	Saga_6_096
// 121   ----------------------------------------
	BYTE	W96
// 122   ----------------------------------------
	BYTE	W96
// 123   ----------------------------------------
	BYTE	W96
// 124   ----------------------------------------
	BYTE	W96
// 125   ----------------------------------------
	BYTE	W96
// 126   ----------------------------------------
	BYTE	W96
// 127   ----------------------------------------
	BYTE	W96
// 128   ----------------------------------------
	BYTE	W96
// 129   ----------------------------------------
	BYTE	W96
// 130   ----------------------------------------
	BYTE	W96
// 131   ----------------------------------------
	BYTE	W96
// 132   ----------------------------------------
	BYTE	W96
// 133   ----------------------------------------
	BYTE	W06
	BYTE	GoTo
	 POIN2	Saga_6_B1
Saga_6_B2:
	BYTE	W90
// 134   ----------------------------------------
	BYTE	W96
// 135   ----------------------------------------
	BYTE	W96
// 136   ----------------------------------------
	BYTE	W14
	BYTE	FINE

//**************** Track 7 (Midi-Chn.7) ****************//

Saga_7:
	BYTE	KEYSH   Saga_key+0
// 000   ----------------------------------------
	BYTE		VOICE   44
	BYTE	W96
Saga_7_B1:
// 001   ----------------------------------------
	BYTE	W96
// 002   ----------------------------------------
	BYTE	W96
// 003   ----------------------------------------
	BYTE	W96
// 004   ----------------------------------------
	BYTE	W96
// 005   ----------------------------------------
	BYTE	W96
// 006   ----------------------------------------
	BYTE	W96
// 007   ----------------------------------------
	BYTE	W96
// 008   ----------------------------------------
	BYTE		VOL     91*Saga_mvl/mxv
	BYTE		PAN     c_v-12
	BYTE	W72
	BYTE		N04     Dn2   v100
	BYTE	W06
	BYTE		N07     Fn2   v088
	BYTE	W06
	BYTE		N06     An2   v084
	BYTE	W06
	BYTE		N07     Cn3   v088
	BYTE	W06
// 009   ----------------------------------------
	BYTE		N04     Dn3   v096
	BYTE	W96
// 010   ----------------------------------------
	BYTE	W96
// 011   ----------------------------------------
	BYTE	W96
// 012   ----------------------------------------
Saga_7_012:
	BYTE	W72
	BYTE		N04     Dn2   v100
	BYTE	W06
	BYTE		N07     Fn2   v088
	BYTE	W06
	BYTE		N06     An2   v084
	BYTE	W06
	BYTE		N07     Cn3   v088
	BYTE	W06
	BYTE	PEND
// 013   ----------------------------------------
	BYTE		N04     Dn3   v096
	BYTE	W96
// 014   ----------------------------------------
	BYTE	W96
// 015   ----------------------------------------
	BYTE	W96
// 016   ----------------------------------------
	BYTE	W96
// 017   ----------------------------------------
	BYTE		PAN     c_v+11
	BYTE	W12
	BYTE		N02     Fn3   v104
	BYTE		N02     An3   v100
	BYTE	W12
	BYTE		        Fn3   v112
	BYTE		N01     An3   v100
	BYTE	W24
	BYTE		N02     Gn3   v104
	BYTE		N02     Bn3   v100
	BYTE	W24
	BYTE		        Gn3   v092
	BYTE		N01     Bn3   v096
	BYTE	W12
	BYTE		N02     An3   v108
	BYTE		N02     Cn4 
	BYTE	W12
// 018   ----------------------------------------
Saga_7_018:
	BYTE	W12
	BYTE		N02     Fn3   v096
	BYTE		N02     An3   v092
	BYTE	W12
	BYTE		N01     Fn3   v104
	BYTE		N01     An3   v100
	BYTE	W24
	BYTE		N02     An3   v096
	BYTE		N01     Cn4 
	BYTE	W12
	BYTE		N02     An3   v100
	BYTE		N02     Cn4   v096
	BYTE	W12
	BYTE		        An3   v100
	BYTE		N02     Cn4   v104
	BYTE	W12
	BYTE		N01     Dn3   v092
	BYTE		N01     En3   v080
	BYTE		N02     Fn3   v104
	BYTE	W12
	BYTE	PEND
// 019   ----------------------------------------
Saga_7_019:
	BYTE	W12
	BYTE		N02     Fn3   v096
	BYTE		N01     An3   v092
	BYTE	W12
	BYTE		N02     Fn3   v100
	BYTE		N02     An3   v104
	BYTE	W24
	BYTE		        An3   v100
	BYTE		N02     Cn4 
	BYTE	W24
	BYTE		        Gn3   v096
	BYTE		N02     Bn3 
	BYTE	W12
	BYTE		        Fn3   v104
	BYTE		N02     An3   v092
	BYTE	W12
	BYTE	PEND
// 020   ----------------------------------------
Saga_7_020:
	BYTE	W12
	BYTE		N02     Fn3   v096
	BYTE		N01     An3   v092
	BYTE	W12
	BYTE		N02     Fn3   v108
	BYTE		N01     An3   v104
	BYTE	W12
	BYTE		N02   
	BYTE		N02     Cn4 
	BYTE	W12
	BYTE		        Gn3   v108
	BYTE		N02     Bn3   v104
	BYTE	W12
	BYTE		        Fn3   v100
	BYTE		N02     An3   v092
	BYTE	W12
	BYTE		        Dn3 
	BYTE		N02     Fn3 
	BYTE	W12
	BYTE		        Fn3   v096
	BYTE		N02     An3   v092
	BYTE	W12
	BYTE	PEND
// 021   ----------------------------------------
Saga_7_021:
	BYTE	W12
	BYTE		N02     Fn3   v088
	BYTE		N02     An3   v092
	BYTE	W12
	BYTE		        Fn3   v104
	BYTE		N02     An3 
	BYTE	W24
	BYTE		        Gn3   v100
	BYTE		N01     Bn3 
	BYTE	W24
	BYTE		N02     Gn3   v092
	BYTE		N02     Bn3 
	BYTE	W12
	BYTE		        An3   v100
	BYTE		N02     Cn4   v112
	BYTE	W12
	BYTE	PEND
// 022   ----------------------------------------
Saga_7_022:
	BYTE	W12
	BYTE		N02     Fn3   v096
	BYTE		N02     An3   v104
	BYTE	W12
	BYTE		        Fn3   v096
	BYTE		N02     An3   v104
	BYTE	W24
	BYTE		        An3   v096
	BYTE		N02     Cn4 
	BYTE	W24
	BYTE		        An3 
	BYTE		N02     Cn4 
	BYTE	W12
	BYTE		        Dn3   v092
	BYTE		N02     Fn3   v100
	BYTE	W12
	BYTE	PEND
// 023   ----------------------------------------
Saga_7_023:
	BYTE	W12
	BYTE		N02     Fn3   v096
	BYTE		N02     An3   v100
	BYTE	W12
	BYTE		        Fn3   v092
	BYTE		N02     An3   v104
	BYTE	W12
	BYTE		        Gn3   v092
	BYTE		N02     Bn3   v100
	BYTE	W12
	BYTE		        An3 
	BYTE		N02     Cn4   v104
	BYTE	W12
	BYTE		        An3   v100
	BYTE		N02     Cn4   v104
	BYTE	W12
	BYTE		N03     Gn3   v096
	BYTE		N02     Bn3   v092
	BYTE	W12
	BYTE		        Fn3   v096
	BYTE		N02     An3   v100
	BYTE	W12
	BYTE	PEND
// 024   ----------------------------------------
Saga_7_024:
	BYTE	W12
	BYTE		N03     Dn3   v092
	BYTE		N02     Fn3   v084
	BYTE	W12
	BYTE		        Dn3   v100
	BYTE		N02     Fn3   v096
	BYTE	W24
	BYTE		N03     An3   v108
	BYTE		N02     Cn4   v104
	BYTE	W24
	BYTE		N04     An1   v100
	BYTE		N02     Gn3 
	BYTE		N02     Bn3 
	BYTE	W06
	BYTE		N07     Cn2   v088
	BYTE	W06
	BYTE		N06     En2   v084
	BYTE		N02     An3   v104
	BYTE		N02     Cn4 
	BYTE	W06
	BYTE		N07     Gn2   v088
	BYTE	W06
	BYTE	PEND
// 025   ----------------------------------------
	BYTE		N04     An2   v096
	BYTE	W96
// 026   ----------------------------------------
	BYTE	W96
// 027   ----------------------------------------
	BYTE	W96
// 028   ----------------------------------------
Saga_7_028:
	BYTE	W72
	BYTE		N04     An1   v100
	BYTE	W06
	BYTE		N07     Cn2   v088
	BYTE	W06
	BYTE		N06     En2   v084
	BYTE	W06
	BYTE		N07     Gn2   v088
	BYTE	W06
	BYTE	PEND
// 029   ----------------------------------------
	BYTE		N04     An2   v096
	BYTE	W96
// 030   ----------------------------------------
	BYTE	W96
// 031   ----------------------------------------
	BYTE	W96
// 032   ----------------------------------------
	BYTE	W96
// 033   ----------------------------------------
Saga_7_033:
	BYTE	W12
	BYTE		N02     Fn3   v104
	BYTE		N02     An3   v100
	BYTE	W12
	BYTE		        Fn3   v112
	BYTE		N01     An3   v100
	BYTE	W24
	BYTE		N02     Gn3   v104
	BYTE		N02     Bn3   v100
	BYTE	W24
	BYTE		        Gn3   v092
	BYTE		N01     Bn3   v096
	BYTE	W12
	BYTE		N02     An3   v108
	BYTE		N02     Cn4 
	BYTE	W12
	BYTE	PEND
// 034   ----------------------------------------
	BYTE	PATT
	 POIN2	Saga_7_018
// 035   ----------------------------------------
	BYTE	PATT
	 POIN2	Saga_7_019
// 036   ----------------------------------------
	BYTE	PATT
	 POIN2	Saga_7_020
// 037   ----------------------------------------
	BYTE	PATT
	 POIN2	Saga_7_021
// 038   ----------------------------------------
	BYTE	PATT
	 POIN2	Saga_7_022
// 039   ----------------------------------------
	BYTE	PATT
	 POIN2	Saga_7_023
// 040   ----------------------------------------
Saga_7_040:
	BYTE	W12
	BYTE		N03     Dn3   v092
	BYTE		N02     Fn3   v084
	BYTE	W12
	BYTE		        Dn3   v100
	BYTE		N02     Fn3   v096
	BYTE	W24
	BYTE		N03     An3   v108
	BYTE		N02     Cn4   v104
	BYTE	W24
	BYTE		        Gn3   v100
	BYTE		N02     Bn3 
	BYTE	W12
	BYTE		        An3   v104
	BYTE		N02     Cn4 
	BYTE	W12
	BYTE	PEND
// 041   ----------------------------------------
	BYTE	W96
// 042   ----------------------------------------
	BYTE	W96
// 043   ----------------------------------------
	BYTE	W96
// 044   ----------------------------------------
	BYTE	W96
// 045   ----------------------------------------
	BYTE	W96
// 046   ----------------------------------------
	BYTE	W96
// 047   ----------------------------------------
	BYTE	W96
// 048   ----------------------------------------
	BYTE	W96
// 049   ----------------------------------------
	BYTE	W96
// 050   ----------------------------------------
	BYTE	W96
// 051   ----------------------------------------
	BYTE	W96
// 052   ----------------------------------------
	BYTE	W96
// 053   ----------------------------------------
	BYTE	W96
// 054   ----------------------------------------
	BYTE	W96
// 055   ----------------------------------------
	BYTE	W96
// 056   ----------------------------------------
	BYTE	W96
// 057   ----------------------------------------
	BYTE	W96
// 058   ----------------------------------------
	BYTE	W96
// 059   ----------------------------------------
	BYTE	W96
// 060   ----------------------------------------
	BYTE	W96
// 061   ----------------------------------------
	BYTE	W96
// 062   ----------------------------------------
	BYTE	W96
// 063   ----------------------------------------
	BYTE	W96
// 064   ----------------------------------------
	BYTE	W96
// 065   ----------------------------------------
	BYTE	W96
// 066   ----------------------------------------
	BYTE	W96
// 067   ----------------------------------------
	BYTE	W96
// 068   ----------------------------------------
	BYTE	PATT
	 POIN2	Saga_7_012
// 069   ----------------------------------------
	BYTE		N04     Dn3   v096
	BYTE	W96
// 070   ----------------------------------------
	BYTE	W96
// 071   ----------------------------------------
	BYTE	W96
// 072   ----------------------------------------
	BYTE	W96
// 073   ----------------------------------------
	BYTE	W96
// 074   ----------------------------------------
	BYTE	W96
// 075   ----------------------------------------
	BYTE	W96
// 076   ----------------------------------------
	BYTE	W96
// 077   ----------------------------------------
	BYTE	W96
// 078   ----------------------------------------
	BYTE	W96
// 079   ----------------------------------------
	BYTE	W96
// 080   ----------------------------------------
	BYTE	W96
// 081   ----------------------------------------
	BYTE	W96
// 082   ----------------------------------------
	BYTE	W96
// 083   ----------------------------------------
	BYTE	W96
// 084   ----------------------------------------
	BYTE	W96
// 085   ----------------------------------------
	BYTE	W96
// 086   ----------------------------------------
	BYTE	W96
// 087   ----------------------------------------
	BYTE	W96
// 088   ----------------------------------------
	BYTE	W96
// 089   ----------------------------------------
	BYTE	PATT
	 POIN2	Saga_7_033
// 090   ----------------------------------------
	BYTE	PATT
	 POIN2	Saga_7_018
// 091   ----------------------------------------
	BYTE	PATT
	 POIN2	Saga_7_019
// 092   ----------------------------------------
	BYTE	PATT
	 POIN2	Saga_7_020
// 093   ----------------------------------------
	BYTE	PATT
	 POIN2	Saga_7_021
// 094   ----------------------------------------
	BYTE	PATT
	 POIN2	Saga_7_022
// 095   ----------------------------------------
	BYTE	PATT
	 POIN2	Saga_7_023
// 096   ----------------------------------------
	BYTE	PATT
	 POIN2	Saga_7_024
// 097   ----------------------------------------
	BYTE		N04     An2   v096
	BYTE	W96
// 098   ----------------------------------------
	BYTE	W96
// 099   ----------------------------------------
	BYTE	W96
// 100   ----------------------------------------
	BYTE	PATT
	 POIN2	Saga_7_028
// 101   ----------------------------------------
	BYTE		N04     An2   v096
	BYTE	W96
// 102   ----------------------------------------
	BYTE	W96
// 103   ----------------------------------------
	BYTE	W96
// 104   ----------------------------------------
	BYTE	W96
// 105   ----------------------------------------
	BYTE	W96
// 106   ----------------------------------------
	BYTE	W96
// 107   ----------------------------------------
	BYTE	W96
// 108   ----------------------------------------
	BYTE	W96
// 109   ----------------------------------------
	BYTE	W96
// 110   ----------------------------------------
	BYTE	W96
// 111   ----------------------------------------
	BYTE	W96
// 112   ----------------------------------------
	BYTE	W96
// 113   ----------------------------------------
	BYTE	PATT
	 POIN2	Saga_7_033
// 114   ----------------------------------------
	BYTE	PATT
	 POIN2	Saga_7_018
// 115   ----------------------------------------
	BYTE	PATT
	 POIN2	Saga_7_019
// 116   ----------------------------------------
	BYTE	PATT
	 POIN2	Saga_7_020
// 117   ----------------------------------------
	BYTE	PATT
	 POIN2	Saga_7_021
// 118   ----------------------------------------
	BYTE	PATT
	 POIN2	Saga_7_022
// 119   ----------------------------------------
	BYTE	PATT
	 POIN2	Saga_7_023
// 120   ----------------------------------------
	BYTE	PATT
	 POIN2	Saga_7_040
// 121   ----------------------------------------
	BYTE	W96
// 122   ----------------------------------------
	BYTE	W96
// 123   ----------------------------------------
	BYTE	W96
// 124   ----------------------------------------
	BYTE	W96
// 125   ----------------------------------------
	BYTE	W96
// 126   ----------------------------------------
	BYTE	W96
// 127   ----------------------------------------
	BYTE	W96
// 128   ----------------------------------------
	BYTE	W96
// 129   ----------------------------------------
	BYTE	W96
// 130   ----------------------------------------
	BYTE	W96
// 131   ----------------------------------------
	BYTE	W96
// 132   ----------------------------------------
	BYTE	W96
// 133   ----------------------------------------
	BYTE	W06
	BYTE	GoTo
	 POIN2	Saga_7_B1
Saga_7_B2:
	BYTE	W90
// 134   ----------------------------------------
	BYTE	W96
// 135   ----------------------------------------
	BYTE	W96
// 136   ----------------------------------------
	BYTE	W14
	BYTE	FINE

//**************** Track 8 (Midi-Chn.8) ****************//

Saga_8:
	BYTE	KEYSH   Saga_key+0
// 000   ----------------------------------------
	BYTE		VOICE   45
	BYTE	W96
Saga_8_B1:
// 001   ----------------------------------------
	BYTE	W96
// 002   ----------------------------------------
	BYTE	W96
// 003   ----------------------------------------
	BYTE	W96
// 004   ----------------------------------------
	BYTE	W96
// 005   ----------------------------------------
	BYTE	W96
// 006   ----------------------------------------
	BYTE	W96
// 007   ----------------------------------------
	BYTE	W96
// 008   ----------------------------------------
	BYTE	W96
// 009   ----------------------------------------
	BYTE	W96
// 010   ----------------------------------------
	BYTE	W96
// 011   ----------------------------------------
	BYTE	W96
// 012   ----------------------------------------
	BYTE	W96
// 013   ----------------------------------------
	BYTE	W96
// 014   ----------------------------------------
	BYTE	W96
// 015   ----------------------------------------
	BYTE	W96
// 016   ----------------------------------------
	BYTE	W96
// 017   ----------------------------------------
	BYTE		VOL     117*Saga_mvl/mxv
	BYTE		PAN     c_v+37
	BYTE	W12
	BYTE		N03     Dn2   v072
	BYTE		N03     Dn3   v080
	BYTE	W12
	BYTE		        Dn2   v104
	BYTE		N03     Dn3   v112
	BYTE	W72
// 018   ----------------------------------------
Saga_8_018:
	BYTE	W12
	BYTE		N03     Dn2   v056
	BYTE		N02     Dn3   v072
	BYTE	W12
	BYTE		N03     Dn2   v096
	BYTE		N03     Dn3   v112
	BYTE	W72
	BYTE	PEND
// 019   ----------------------------------------
Saga_8_019:
	BYTE	W12
	BYTE		N03     Fn2   v060
	BYTE		N04     Fn3   v080
	BYTE	W12
	BYTE		N03     Fn2   v100
	BYTE		N03     Fn3 
	BYTE	W36
	BYTE		        En2   v068
	BYTE		N03     En3   v060
	BYTE	W12
	BYTE		        En2   v100
	BYTE		N03     En3   v108
	BYTE	W24
	BYTE	PEND
// 020   ----------------------------------------
Saga_8_020:
	BYTE	W12
	BYTE		N03     Dn2   v060
	BYTE		N03     Dn3 
	BYTE	W12
	BYTE		        Dn2   v104
	BYTE		N03     Dn3   v096
	BYTE	W60
	BYTE		N04     An1   v084
	BYTE		N04     An2 
	BYTE	W12
	BYTE	PEND
// 021   ----------------------------------------
Saga_8_021:
	BYTE	W12
	BYTE		N03     Dn2   v060
	BYTE		N03     Dn3   v080
	BYTE	W12
	BYTE		        Dn3   v104
	BYTE	W72
	BYTE	PEND
// 022   ----------------------------------------
Saga_8_022:
	BYTE	W12
	BYTE		N03     Dn2   v060
	BYTE		N03     Dn3   v088
	BYTE	W12
	BYTE		        Dn2   v104
	BYTE		N03     Dn3 
	BYTE	W60
	BYTE		N04     Dn2   v080
	BYTE		N03     Dn3   v084
	BYTE	W12
	BYTE	PEND
// 023   ----------------------------------------
Saga_8_023:
	BYTE	W12
	BYTE		N03     Fn2   v072
	BYTE		N03     Fn3   v084
	BYTE	W12
	BYTE		N04     Fn2   v104
	BYTE		N04     Fn3   v108
	BYTE	W36
	BYTE		N03     En2   v076
	BYTE		N03     En3   v072
	BYTE	W12
	BYTE		        En2   v100
	BYTE		N03     En3   v104
	BYTE	W24
	BYTE	PEND
// 024   ----------------------------------------
Saga_8_024:
	BYTE	W12
	BYTE		N03     Dn2   v076
	BYTE		N02     Dn3   v080
	BYTE	W12
	BYTE		N03     Dn2   v100
	BYTE		N03     Dn3   v104
	BYTE	W60
	BYTE		        An1   v088
	BYTE		N02     An2   v080
	BYTE	W12
	BYTE	PEND
// 025   ----------------------------------------
	BYTE	W96
// 026   ----------------------------------------
	BYTE	W96
// 027   ----------------------------------------
	BYTE	W96
// 028   ----------------------------------------
	BYTE	W96
// 029   ----------------------------------------
	BYTE	W96
// 030   ----------------------------------------
	BYTE	W96
// 031   ----------------------------------------
	BYTE	W96
// 032   ----------------------------------------
	BYTE	W96
// 033   ----------------------------------------
Saga_8_033:
	BYTE	W12
	BYTE		N03     Dn2   v072
	BYTE		N03     Dn3   v080
	BYTE	W12
	BYTE		        Dn2   v104
	BYTE		N03     Dn3   v112
	BYTE	W72
	BYTE	PEND
// 034   ----------------------------------------
	BYTE	PATT
	 POIN2	Saga_8_018
// 035   ----------------------------------------
	BYTE	PATT
	 POIN2	Saga_8_019
// 036   ----------------------------------------
	BYTE	PATT
	 POIN2	Saga_8_020
// 037   ----------------------------------------
	BYTE	PATT
	 POIN2	Saga_8_021
// 038   ----------------------------------------
	BYTE	PATT
	 POIN2	Saga_8_022
// 039   ----------------------------------------
	BYTE	PATT
	 POIN2	Saga_8_023
// 040   ----------------------------------------
	BYTE	PATT
	 POIN2	Saga_8_024
// 041   ----------------------------------------
Saga_8_041:
	BYTE	W12
	BYTE		N02     Dn3   v084
	BYTE		N02     Gn3 
	BYTE	W06
	BYTE		N03     Dn3   v092
	BYTE		N03     Gn3   v084
	BYTE	W06
	BYTE		N04     Dn3   v092
	BYTE		N04     Gn3   v084
	BYTE	W24
	BYTE		N02     Dn3 
	BYTE		N03     Gn3   v092
	BYTE	W06
	BYTE		        Dn3   v088
	BYTE		N02     Gn3   v080
	BYTE	W06
	BYTE		N03     Dn3   v092
	BYTE		N03     Gn3 
	BYTE	W36
	BYTE	PEND
// 042   ----------------------------------------
Saga_8_042:
	BYTE	W12
	BYTE		N02     Dn3   v084
	BYTE		N02     Gn3 
	BYTE	W06
	BYTE		N03     Dn3 
	BYTE		N03     Gn3   v088
	BYTE	W06
	BYTE		N02     Dn3   v092
	BYTE		N03     Gn3   v088
	BYTE	W24
	BYTE		N02     Dn3 
	BYTE		N02     Gn3   v080
	BYTE	W06
	BYTE		        Dn3   v084
	BYTE		N03     Gn3   v080
	BYTE	W06
	BYTE		        Dn3   v084
	BYTE		N03     Gn3 
	BYTE	W12
	BYTE		        Dn3   v092
	BYTE		N03     Gn3 
	BYTE	W12
	BYTE		N02     Dn3   v084
	BYTE		N03     Gn3   v092
	BYTE	W12
	BYTE	PEND
// 043   ----------------------------------------
Saga_8_043:
	BYTE	W12
	BYTE		N02     As2   v088
	BYTE		N01     Ds3   v084
	BYTE	W06
	BYTE		N02     As2 
	BYTE		N02     Ds3   v100
	BYTE	W06
	BYTE		N03     As2   v088
	BYTE		N03     Ds3   v104
	BYTE	W24
	BYTE		N02     As2   v096
	BYTE		N01     Ds3 
	BYTE	W06
	BYTE		N02     As2   v084
	BYTE		N02     Ds3   v100
	BYTE	W06
	BYTE		        As2   v088
	BYTE		N03     Ds3   v104
	BYTE	W36
	BYTE	PEND
// 044   ----------------------------------------
Saga_8_044:
	BYTE	W12
	BYTE		N02     As2   v088
	BYTE		N02     Ds3 
	BYTE	W06
	BYTE		        As2   v084
	BYTE		N02     Ds3   v096
	BYTE	W06
	BYTE		N03     As2   v080
	BYTE		N03     Ds3   v088
	BYTE	W24
	BYTE		N02     As2 
	BYTE		N01     Ds3   v092
	BYTE	W06
	BYTE		N02     As2   v084
	BYTE		N02     Ds3   v092
	BYTE	W06
	BYTE		N03     As2   v084
	BYTE		N03     Ds3   v088
	BYTE	W12
	BYTE		N02     As2   v092
	BYTE		N02     Ds3 
	BYTE	W12
	BYTE		        As2   v084
	BYTE		N02     Ds3   v088
	BYTE	W12
	BYTE	PEND
// 045   ----------------------------------------
	BYTE	PATT
	 POIN2	Saga_8_041
// 046   ----------------------------------------
	BYTE	PATT
	 POIN2	Saga_8_042
// 047   ----------------------------------------
	BYTE	PATT
	 POIN2	Saga_8_043
// 048   ----------------------------------------
	BYTE	PATT
	 POIN2	Saga_8_044
// 049   ----------------------------------------
	BYTE	PATT
	 POIN2	Saga_8_041
// 050   ----------------------------------------
	BYTE	PATT
	 POIN2	Saga_8_042
// 051   ----------------------------------------
	BYTE	PATT
	 POIN2	Saga_8_043
// 052   ----------------------------------------
	BYTE	PATT
	 POIN2	Saga_8_044
// 053   ----------------------------------------
	BYTE	PATT
	 POIN2	Saga_8_041
// 054   ----------------------------------------
	BYTE	PATT
	 POIN2	Saga_8_042
// 055   ----------------------------------------
	BYTE	PATT
	 POIN2	Saga_8_043
// 056   ----------------------------------------
	BYTE	PATT
	 POIN2	Saga_8_044
// 057   ----------------------------------------
	BYTE	W96
// 058   ----------------------------------------
	BYTE	W96
// 059   ----------------------------------------
	BYTE	W96
// 060   ----------------------------------------
	BYTE	W96
// 061   ----------------------------------------
	BYTE	W96
// 062   ----------------------------------------
	BYTE	W96
// 063   ----------------------------------------
	BYTE	W96
// 064   ----------------------------------------
	BYTE	W96
// 065   ----------------------------------------
	BYTE	W96
// 066   ----------------------------------------
	BYTE	W96
// 067   ----------------------------------------
	BYTE	W96
// 068   ----------------------------------------
	BYTE	W96
// 069   ----------------------------------------
	BYTE	W96
// 070   ----------------------------------------
	BYTE	W96
// 071   ----------------------------------------
	BYTE	W96
// 072   ----------------------------------------
	BYTE	W96
// 073   ----------------------------------------
	BYTE	W96
// 074   ----------------------------------------
	BYTE	W96
// 075   ----------------------------------------
	BYTE	W96
// 076   ----------------------------------------
	BYTE	W96
// 077   ----------------------------------------
	BYTE	W96
// 078   ----------------------------------------
	BYTE	W96
// 079   ----------------------------------------
	BYTE	W96
// 080   ----------------------------------------
	BYTE	W96
// 081   ----------------------------------------
	BYTE	W96
// 082   ----------------------------------------
	BYTE	W96
// 083   ----------------------------------------
	BYTE	W96
// 084   ----------------------------------------
	BYTE	W96
// 085   ----------------------------------------
	BYTE	W96
// 086   ----------------------------------------
	BYTE	W96
// 087   ----------------------------------------
	BYTE	W96
// 088   ----------------------------------------
	BYTE	W96
// 089   ----------------------------------------
	BYTE	PATT
	 POIN2	Saga_8_033
// 090   ----------------------------------------
	BYTE	PATT
	 POIN2	Saga_8_018
// 091   ----------------------------------------
	BYTE	PATT
	 POIN2	Saga_8_019
// 092   ----------------------------------------
	BYTE	PATT
	 POIN2	Saga_8_020
// 093   ----------------------------------------
	BYTE	PATT
	 POIN2	Saga_8_021
// 094   ----------------------------------------
	BYTE	PATT
	 POIN2	Saga_8_022
// 095   ----------------------------------------
	BYTE	PATT
	 POIN2	Saga_8_023
// 096   ----------------------------------------
	BYTE	PATT
	 POIN2	Saga_8_024
// 097   ----------------------------------------
	BYTE	W96
// 098   ----------------------------------------
	BYTE	W96
// 099   ----------------------------------------
	BYTE	W96
// 100   ----------------------------------------
	BYTE	W96
// 101   ----------------------------------------
	BYTE	W96
// 102   ----------------------------------------
	BYTE	W96
// 103   ----------------------------------------
	BYTE	W96
// 104   ----------------------------------------
	BYTE	W96
// 105   ----------------------------------------
	BYTE	W96
// 106   ----------------------------------------
	BYTE	W96
// 107   ----------------------------------------
	BYTE	W96
// 108   ----------------------------------------
	BYTE	W96
// 109   ----------------------------------------
	BYTE	W96
// 110   ----------------------------------------
	BYTE	W96
// 111   ----------------------------------------
	BYTE	W96
// 112   ----------------------------------------
	BYTE	W96
// 113   ----------------------------------------
	BYTE	PATT
	 POIN2	Saga_8_033
// 114   ----------------------------------------
	BYTE	PATT
	 POIN2	Saga_8_018
// 115   ----------------------------------------
	BYTE	PATT
	 POIN2	Saga_8_019
// 116   ----------------------------------------
	BYTE	PATT
	 POIN2	Saga_8_020
// 117   ----------------------------------------
	BYTE	PATT
	 POIN2	Saga_8_021
// 118   ----------------------------------------
	BYTE	PATT
	 POIN2	Saga_8_022
// 119   ----------------------------------------
	BYTE	PATT
	 POIN2	Saga_8_023
// 120   ----------------------------------------
	BYTE	PATT
	 POIN2	Saga_8_024
// 121   ----------------------------------------
	BYTE	W96
// 122   ----------------------------------------
	BYTE	W96
// 123   ----------------------------------------
	BYTE	W96
// 124   ----------------------------------------
	BYTE	W96
// 125   ----------------------------------------
	BYTE	W96
// 126   ----------------------------------------
	BYTE	W96
// 127   ----------------------------------------
	BYTE	W96
// 128   ----------------------------------------
	BYTE	W96
// 129   ----------------------------------------
	BYTE	W96
// 130   ----------------------------------------
	BYTE	W96
// 131   ----------------------------------------
	BYTE	W96
// 132   ----------------------------------------
	BYTE	W96
// 133   ----------------------------------------
	BYTE	W06
	BYTE	GoTo
	 POIN2	Saga_8_B1
Saga_8_B2:
	BYTE	W90
// 134   ----------------------------------------
	BYTE	W96
// 135   ----------------------------------------
	BYTE	W96
// 136   ----------------------------------------
	BYTE	W14
	BYTE	FINE

//**************** Track 9 (Midi-Chn.9) ****************//

Saga_9:
	BYTE	KEYSH   Saga_key+0
// 000   ----------------------------------------
	BYTE		VOICE   14
	BYTE	W96
Saga_9_B1:
// 001   ----------------------------------------
	BYTE	W96
// 002   ----------------------------------------
	BYTE	W96
// 003   ----------------------------------------
	BYTE	W96
// 004   ----------------------------------------
	BYTE	W96
// 005   ----------------------------------------
	BYTE	W96
// 006   ----------------------------------------
	BYTE	W96
// 007   ----------------------------------------
	BYTE	W96
// 008   ----------------------------------------
	BYTE	W96
// 009   ----------------------------------------
	BYTE	W96
// 010   ----------------------------------------
	BYTE	W96
// 011   ----------------------------------------
	BYTE	W96
// 012   ----------------------------------------
	BYTE	W96
// 013   ----------------------------------------
	BYTE	W96
// 014   ----------------------------------------
	BYTE	W96
// 015   ----------------------------------------
	BYTE	W96
// 016   ----------------------------------------
	BYTE	W96
// 017   ----------------------------------------
	BYTE		VOL     115*Saga_mvl/mxv
	BYTE		PAN     c_v-44
	BYTE		N84     Dn3   v112
	BYTE	W96
// 018   ----------------------------------------
	BYTE		N80   
	BYTE	W96
// 019   ----------------------------------------
Saga_9_019:
	BYTE		N42     Fn3   v108
	BYTE	W48
	BYTE		        En3 
	BYTE	W48
	BYTE	PEND
// 020   ----------------------------------------
	BYTE		N68     Dn3   v112
	BYTE	W96
// 021   ----------------------------------------
	BYTE		N84   
	BYTE	W96
// 022   ----------------------------------------
	BYTE		N80   
	BYTE	W96
// 023   ----------------------------------------
	BYTE	PATT
	 POIN2	Saga_9_019
// 024   ----------------------------------------
	BYTE		N68     Dn3   v112
	BYTE	W96
// 025   ----------------------------------------
	BYTE	W96
// 026   ----------------------------------------
	BYTE	W96
// 027   ----------------------------------------
	BYTE	W96
// 028   ----------------------------------------
	BYTE	W96
// 029   ----------------------------------------
	BYTE	W96
// 030   ----------------------------------------
	BYTE	W96
// 031   ----------------------------------------
	BYTE	W96
// 032   ----------------------------------------
	BYTE	W96
// 033   ----------------------------------------
	BYTE		N84   
	BYTE	W96
// 034   ----------------------------------------
	BYTE		N80   
	BYTE	W96
// 035   ----------------------------------------
	BYTE	PATT
	 POIN2	Saga_9_019
// 036   ----------------------------------------
	BYTE		N68     Dn3   v112
	BYTE	W96
// 037   ----------------------------------------
	BYTE		N84   
	BYTE	W96
// 038   ----------------------------------------
	BYTE		N80   
	BYTE	W96
// 039   ----------------------------------------
	BYTE	PATT
	 POIN2	Saga_9_019
// 040   ----------------------------------------
	BYTE		N68     Dn3   v112
	BYTE	W96
// 041   ----------------------------------------
Saga_9_041:
	BYTE	W48
	BYTE		TIE     Gn2   v100
	BYTE	W48
	BYTE	PEND
// 042   ----------------------------------------
	BYTE	W68
	BYTE	W01
	BYTE		EOT   
	BYTE	W24
	BYTE	W03
// 043   ----------------------------------------
Saga_9_043:
	BYTE	W48
	BYTE		TIE     Ds3   v104
	BYTE	W48
	BYTE	PEND
// 044   ----------------------------------------
	BYTE	W72
	BYTE		EOT   
	BYTE	W24
// 045   ----------------------------------------
Saga_9_045:
	BYTE	W48
	BYTE		TIE     Gn2   v112
	BYTE	W48
	BYTE	PEND
// 046   ----------------------------------------
	BYTE	W90
	BYTE		EOT   
	BYTE	W06
// 047   ----------------------------------------
Saga_9_047:
	BYTE	W48
	BYTE		TIE     Ds3   v120
	BYTE	W48
	BYTE	PEND
// 048   ----------------------------------------
	BYTE	W48
	BYTE	W01
	BYTE		EOT   
	BYTE	W44
	BYTE	W03
// 049   ----------------------------------------
	BYTE	PATT
	 POIN2	Saga_9_041
// 050   ----------------------------------------
	BYTE	W68
	BYTE	W01
	BYTE		EOT     Gn2 
	BYTE	W24
	BYTE	W03
// 051   ----------------------------------------
	BYTE	PATT
	 POIN2	Saga_9_043
// 052   ----------------------------------------
	BYTE	W72
	BYTE		EOT     Ds3 
	BYTE	W24
// 053   ----------------------------------------
	BYTE	PATT
	 POIN2	Saga_9_045
// 054   ----------------------------------------
	BYTE	W90
	BYTE		EOT     Gn2 
	BYTE	W06
// 055   ----------------------------------------
	BYTE	PATT
	 POIN2	Saga_9_047
// 056   ----------------------------------------
	BYTE	W48
	BYTE	W01
	BYTE		EOT     Ds3 
	BYTE	W44
	BYTE	W03
// 057   ----------------------------------------
	BYTE	W96
// 058   ----------------------------------------
	BYTE	W96
// 059   ----------------------------------------
	BYTE	W96
// 060   ----------------------------------------
	BYTE	W96
// 061   ----------------------------------------
	BYTE	W96
// 062   ----------------------------------------
	BYTE	W96
// 063   ----------------------------------------
	BYTE	W96
// 064   ----------------------------------------
	BYTE	W96
// 065   ----------------------------------------
	BYTE	W96
// 066   ----------------------------------------
	BYTE	W96
// 067   ----------------------------------------
	BYTE	W96
// 068   ----------------------------------------
	BYTE	W96
// 069   ----------------------------------------
	BYTE	W96
// 070   ----------------------------------------
	BYTE	W96
// 071   ----------------------------------------
	BYTE	W96
// 072   ----------------------------------------
	BYTE	W96
// 073   ----------------------------------------
	BYTE	W96
// 074   ----------------------------------------
	BYTE	W96
// 075   ----------------------------------------
	BYTE	W96
// 076   ----------------------------------------
	BYTE	W72
	BYTE		N02     Dn3   v120
	BYTE	W24
// 077   ----------------------------------------
	BYTE	W96
// 078   ----------------------------------------
	BYTE	W96
// 079   ----------------------------------------
	BYTE	W96
// 080   ----------------------------------------
	BYTE	W96
// 081   ----------------------------------------
	BYTE	W96
// 082   ----------------------------------------
	BYTE	W96
// 083   ----------------------------------------
	BYTE	W96
// 084   ----------------------------------------
	BYTE	W72
	BYTE		N02   
	BYTE	W24
// 085   ----------------------------------------
	BYTE	W96
// 086   ----------------------------------------
	BYTE	W96
// 087   ----------------------------------------
	BYTE	W96
// 088   ----------------------------------------
	BYTE	W96
// 089   ----------------------------------------
	BYTE		N84     Dn3   v112
	BYTE	W96
// 090   ----------------------------------------
	BYTE		N80   
	BYTE	W96
// 091   ----------------------------------------
	BYTE	PATT
	 POIN2	Saga_9_019
// 092   ----------------------------------------
	BYTE		N68     Dn3   v112
	BYTE	W96
// 093   ----------------------------------------
	BYTE		N84   
	BYTE	W96
// 094   ----------------------------------------
	BYTE		N80   
	BYTE	W96
// 095   ----------------------------------------
	BYTE	PATT
	 POIN2	Saga_9_019
// 096   ----------------------------------------
	BYTE		N68     Dn3   v112
	BYTE	W96
// 097   ----------------------------------------
	BYTE	W96
// 098   ----------------------------------------
	BYTE	W96
// 099   ----------------------------------------
	BYTE	W96
// 100   ----------------------------------------
	BYTE	W96
// 101   ----------------------------------------
	BYTE	W96
// 102   ----------------------------------------
	BYTE	W96
// 103   ----------------------------------------
	BYTE	W96
// 104   ----------------------------------------
	BYTE	W96
// 105   ----------------------------------------
	BYTE	W96
// 106   ----------------------------------------
	BYTE	W96
// 107   ----------------------------------------
	BYTE	W96
// 108   ----------------------------------------
	BYTE	W96
// 109   ----------------------------------------
	BYTE	W96
// 110   ----------------------------------------
	BYTE	W96
// 111   ----------------------------------------
	BYTE	W96
// 112   ----------------------------------------
	BYTE	W96
// 113   ----------------------------------------
	BYTE		N84   
	BYTE	W96
// 114   ----------------------------------------
	BYTE		N80   
	BYTE	W96
// 115   ----------------------------------------
	BYTE	PATT
	 POIN2	Saga_9_019
// 116   ----------------------------------------
	BYTE		N68     Dn3   v112
	BYTE	W96
// 117   ----------------------------------------
	BYTE		N84   
	BYTE	W96
// 118   ----------------------------------------
	BYTE		N80   
	BYTE	W96
// 119   ----------------------------------------
	BYTE	PATT
	 POIN2	Saga_9_019
// 120   ----------------------------------------
	BYTE		N68     Dn3   v112
	BYTE	W96
// 121   ----------------------------------------
	BYTE	W96
// 122   ----------------------------------------
	BYTE	W96
// 123   ----------------------------------------
	BYTE	W96
// 124   ----------------------------------------
	BYTE	W96
// 125   ----------------------------------------
	BYTE	W96
// 126   ----------------------------------------
	BYTE	W96
// 127   ----------------------------------------
	BYTE	W96
// 128   ----------------------------------------
	BYTE	W96
// 129   ----------------------------------------
	BYTE		N05     Dn2   v084
	BYTE	W96
// 130   ----------------------------------------
	BYTE		N04     Dn2   v072
	BYTE	W96
// 131   ----------------------------------------
	BYTE		        Dn2   v060
	BYTE	W96
// 132   ----------------------------------------
	BYTE		        Dn2   v048
	BYTE	W96
// 133   ----------------------------------------
	BYTE		        Dn2   v036
	BYTE	W06
	BYTE	GoTo
	 POIN2	Saga_9_B1
Saga_9_B2:
	BYTE	W90
// 134   ----------------------------------------
	BYTE		N04     Dn2   v024
	BYTE	W96
// 135   ----------------------------------------
	BYTE		        Dn2   v012
	BYTE	W96
// 136   ----------------------------------------
	BYTE		        Dn2   v004
	BYTE	W14
	BYTE	FINE

//**************** Track 10 (Midi-Chn.10) ****************//

Saga_10:
	BYTE	KEYSH   Saga_key+0
// 000   ----------------------------------------
	BYTE	W96
Saga_10_B1:
// 001   ----------------------------------------
	BYTE	W96
// 002   ----------------------------------------
	BYTE	W96
// 003   ----------------------------------------
	BYTE	W96
// 004   ----------------------------------------
	BYTE	W96
// 005   ----------------------------------------
	BYTE	W96
// 006   ----------------------------------------
	BYTE	W96
// 007   ----------------------------------------
	BYTE	W96
// 008   ----------------------------------------
	BYTE	W96
// 009   ----------------------------------------
	BYTE		VOL     109*Saga_mvl/mxv
	BYTE		N02     En2   v100
	BYTE	W96
// 010   ----------------------------------------
	BYTE	W96
// 011   ----------------------------------------
Saga_10_011:
	BYTE		N03     En2   v080
	BYTE	W72
	BYTE		N02     Bn2   v072
	BYTE	W24
	BYTE	PEND
// 012   ----------------------------------------
	BYTE		        En2   v084
	BYTE	W96
// 013   ----------------------------------------
Saga_10_013:
	BYTE		N02     Dn2   v080
	BYTE		N02     En2   v084
	BYTE	W96
	BYTE	PEND
// 014   ----------------------------------------
	BYTE		N04     En2   v104
	BYTE	W96
// 015   ----------------------------------------
Saga_10_015:
	BYTE		N05     En2   v096
	BYTE	W72
	BYTE		N03     Bn2   v084
	BYTE	W24
	BYTE	PEND
// 016   ----------------------------------------
	BYTE		        En2   v092
	BYTE	W96
// 017   ----------------------------------------
Saga_10_017:
	BYTE		N02     Dn3   v112
	BYTE	W12
	BYTE		        Cs3   v124
	BYTE	W06
	BYTE		        Cs3   v112
	BYTE	W06
	BYTE		        Dn3 
	BYTE	W06
	BYTE		        Dn3   v092
	BYTE	W06
	BYTE		N03     En3   v104
	BYTE	W06
	BYTE		N02     En3   v076
	BYTE	W06
	BYTE		N03     Dn3   v108
	BYTE	W12
	BYTE		N01     Cs3   v112
	BYTE	W06
	BYTE		N02   
	BYTE	W06
	BYTE		        Dn3 
	BYTE	W06
	BYTE		        Dn3   v104
	BYTE	W06
	BYTE		        En3   v100
	BYTE	W06
	BYTE		N03     En3   v092
	BYTE	W06
	BYTE	PEND
// 018   ----------------------------------------
Saga_10_018:
	BYTE		N04     Dn3   v104
	BYTE	W12
	BYTE		N02     Cs3   v116
	BYTE	W06
	BYTE		        Cs3   v112
	BYTE	W06
	BYTE		        Dn3 
	BYTE	W06
	BYTE		N03     Dn3   v104
	BYTE	W06
	BYTE		        En3   v108
	BYTE	W06
	BYTE		N02     En3   v092
	BYTE	W06
	BYTE		        Dn3   v100
	BYTE	W06
	BYTE		        Dn3   v092
	BYTE	W06
	BYTE		        Cs3   v112
	BYTE	W06
	BYTE		        Cs3   v104
	BYTE	W06
	BYTE		N03     Dn3   v108
	BYTE	W06
	BYTE		N02     Dn3   v080
	BYTE	W06
	BYTE		        Ds3   v112
	BYTE	W06
	BYTE		        En3   v100
	BYTE	W06
	BYTE	PEND
// 019   ----------------------------------------
	BYTE	PATT
	 POIN2	Saga_10_017
// 020   ----------------------------------------
	BYTE	PATT
	 POIN2	Saga_10_018
// 021   ----------------------------------------
	BYTE	PATT
	 POIN2	Saga_10_017
// 022   ----------------------------------------
	BYTE	PATT
	 POIN2	Saga_10_018
// 023   ----------------------------------------
	BYTE	PATT
	 POIN2	Saga_10_017
// 024   ----------------------------------------
	BYTE	PATT
	 POIN2	Saga_10_018
// 025   ----------------------------------------
	BYTE		N02     En2   v100
	BYTE	W96
// 026   ----------------------------------------
	BYTE	W96
// 027   ----------------------------------------
	BYTE	PATT
	 POIN2	Saga_10_011
// 028   ----------------------------------------
	BYTE		N02     En2   v084
	BYTE	W96
// 029   ----------------------------------------
	BYTE	PATT
	 POIN2	Saga_10_013
// 030   ----------------------------------------
	BYTE		N04     En2   v104
	BYTE	W96
// 031   ----------------------------------------
	BYTE	PATT
	 POIN2	Saga_10_015
// 032   ----------------------------------------
	BYTE		N03     En2   v092
	BYTE	W96
// 033   ----------------------------------------
	BYTE	PATT
	 POIN2	Saga_10_017
// 034   ----------------------------------------
	BYTE	PATT
	 POIN2	Saga_10_018
// 035   ----------------------------------------
	BYTE	PATT
	 POIN2	Saga_10_017
// 036   ----------------------------------------
	BYTE	PATT
	 POIN2	Saga_10_018
// 037   ----------------------------------------
	BYTE	PATT
	 POIN2	Saga_10_017
// 038   ----------------------------------------
	BYTE	PATT
	 POIN2	Saga_10_018
// 039   ----------------------------------------
	BYTE	PATT
	 POIN2	Saga_10_017
// 040   ----------------------------------------
	BYTE	PATT
	 POIN2	Saga_10_018
// 041   ----------------------------------------
	BYTE	W24
	BYTE		N03     An2   v084
	BYTE	W72
// 042   ----------------------------------------
	BYTE	W96
// 043   ----------------------------------------
	BYTE	W96
// 044   ----------------------------------------
	BYTE	W96
// 045   ----------------------------------------
	BYTE	W96
// 046   ----------------------------------------
	BYTE	W96
// 047   ----------------------------------------
	BYTE	W96
// 048   ----------------------------------------
	BYTE	W96
// 049   ----------------------------------------
	BYTE	W24
	BYTE		N03   
	BYTE	W72
// 050   ----------------------------------------
	BYTE	W96
// 051   ----------------------------------------
	BYTE	W96
// 052   ----------------------------------------
	BYTE	W96
// 053   ----------------------------------------
	BYTE	W24
	BYTE		N05   
	BYTE	W72
// 054   ----------------------------------------
	BYTE	W96
// 055   ----------------------------------------
	BYTE	W96
// 056   ----------------------------------------
	BYTE	W96
// 057   ----------------------------------------
	BYTE		N02     En2   v100
	BYTE	W96
// 058   ----------------------------------------
	BYTE	W96
// 059   ----------------------------------------
	BYTE	W96
// 060   ----------------------------------------
	BYTE	W96
// 061   ----------------------------------------
	BYTE		N02   
	BYTE	W96
// 062   ----------------------------------------
	BYTE	W96
// 063   ----------------------------------------
	BYTE	W96
// 064   ----------------------------------------
	BYTE	W96
// 065   ----------------------------------------
	BYTE		N02   
	BYTE	W96
// 066   ----------------------------------------
	BYTE	W96
// 067   ----------------------------------------
	BYTE	PATT
	 POIN2	Saga_10_011
// 068   ----------------------------------------
	BYTE		N02     En2   v084
	BYTE	W96
// 069   ----------------------------------------
	BYTE	PATT
	 POIN2	Saga_10_013
// 070   ----------------------------------------
	BYTE		N04     En2   v104
	BYTE	W96
// 071   ----------------------------------------
	BYTE	PATT
	 POIN2	Saga_10_015
// 072   ----------------------------------------
	BYTE		N03     En2   v092
	BYTE	W96
// 073   ----------------------------------------
	BYTE	W96
// 074   ----------------------------------------
	BYTE	W96
// 075   ----------------------------------------
	BYTE	W96
// 076   ----------------------------------------
	BYTE	W96
// 077   ----------------------------------------
	BYTE	W96
// 078   ----------------------------------------
	BYTE	W96
// 079   ----------------------------------------
	BYTE	W96
// 080   ----------------------------------------
	BYTE	W96
// 081   ----------------------------------------
	BYTE	W96
// 082   ----------------------------------------
	BYTE	W96
// 083   ----------------------------------------
	BYTE	W96
// 084   ----------------------------------------
	BYTE	W96
// 085   ----------------------------------------
	BYTE	W96
// 086   ----------------------------------------
	BYTE	W96
// 087   ----------------------------------------
	BYTE	W96
// 088   ----------------------------------------
	BYTE	W96
// 089   ----------------------------------------
	BYTE	PATT
	 POIN2	Saga_10_017
// 090   ----------------------------------------
	BYTE	PATT
	 POIN2	Saga_10_018
// 091   ----------------------------------------
	BYTE	PATT
	 POIN2	Saga_10_017
// 092   ----------------------------------------
	BYTE	PATT
	 POIN2	Saga_10_018
// 093   ----------------------------------------
	BYTE	PATT
	 POIN2	Saga_10_017
// 094   ----------------------------------------
	BYTE	PATT
	 POIN2	Saga_10_018
// 095   ----------------------------------------
	BYTE	PATT
	 POIN2	Saga_10_017
// 096   ----------------------------------------
	BYTE	PATT
	 POIN2	Saga_10_018
// 097   ----------------------------------------
	BYTE		N02     En2   v100
	BYTE	W96
// 098   ----------------------------------------
	BYTE	W96
// 099   ----------------------------------------
	BYTE	PATT
	 POIN2	Saga_10_011
// 100   ----------------------------------------
	BYTE		N02     En2   v084
	BYTE	W96
// 101   ----------------------------------------
	BYTE	PATT
	 POIN2	Saga_10_013
// 102   ----------------------------------------
	BYTE		N04     En2   v104
	BYTE	W96
// 103   ----------------------------------------
	BYTE	PATT
	 POIN2	Saga_10_015
// 104   ----------------------------------------
	BYTE		N03     En2   v092
	BYTE	W96
// 105   ----------------------------------------
	BYTE		N02     En2   v100
	BYTE	W96
// 106   ----------------------------------------
	BYTE	W96
// 107   ----------------------------------------
	BYTE	W96
// 108   ----------------------------------------
	BYTE	W96
// 109   ----------------------------------------
	BYTE		N02   
	BYTE	W96
// 110   ----------------------------------------
	BYTE	W96
// 111   ----------------------------------------
	BYTE	W96
// 112   ----------------------------------------
	BYTE	W96
// 113   ----------------------------------------
	BYTE	PATT
	 POIN2	Saga_10_017
// 114   ----------------------------------------
	BYTE	PATT
	 POIN2	Saga_10_018
// 115   ----------------------------------------
	BYTE	PATT
	 POIN2	Saga_10_017
// 116   ----------------------------------------
	BYTE	PATT
	 POIN2	Saga_10_018
// 117   ----------------------------------------
	BYTE	PATT
	 POIN2	Saga_10_017
// 118   ----------------------------------------
	BYTE	PATT
	 POIN2	Saga_10_018
// 119   ----------------------------------------
	BYTE	PATT
	 POIN2	Saga_10_017
// 120   ----------------------------------------
	BYTE	PATT
	 POIN2	Saga_10_018
// 121   ----------------------------------------
	BYTE	W96
// 122   ----------------------------------------
	BYTE	W96
// 123   ----------------------------------------
	BYTE	W96
// 124   ----------------------------------------
	BYTE	W96
// 125   ----------------------------------------
	BYTE	W96
// 126   ----------------------------------------
	BYTE	W96
// 127   ----------------------------------------
	BYTE	W96
// 128   ----------------------------------------
	BYTE	W96
// 129   ----------------------------------------
	BYTE	W96
// 130   ----------------------------------------
	BYTE	W96
// 131   ----------------------------------------
	BYTE	W96
// 132   ----------------------------------------
	BYTE	W96
// 133   ----------------------------------------
	BYTE	W06
	BYTE	GoTo
	 POIN2	Saga_10_B1
Saga_10_B2:
	BYTE	W90
// 134   ----------------------------------------
	BYTE	W96
// 135   ----------------------------------------
	BYTE	W96
// 136   ----------------------------------------
	BYTE	W14
	BYTE	FINE

//**************** Track 11 (Midi-Chn.11) ****************//

Saga_11:
	BYTE	KEYSH   Saga_key+0
// 000   ----------------------------------------
	BYTE		VOICE   73
	BYTE	W96
Saga_11_B1:
// 001   ----------------------------------------
	BYTE	W96
// 002   ----------------------------------------
	BYTE	W96
// 003   ----------------------------------------
	BYTE	W96
// 004   ----------------------------------------
	BYTE	W96
// 005   ----------------------------------------
	BYTE	W96
// 006   ----------------------------------------
	BYTE	W96
// 007   ----------------------------------------
	BYTE	W96
// 008   ----------------------------------------
	BYTE	W96
// 009   ----------------------------------------
	BYTE	W96
// 010   ----------------------------------------
	BYTE	W96
// 011   ----------------------------------------
	BYTE	W96
// 012   ----------------------------------------
	BYTE	W96
// 013   ----------------------------------------
	BYTE	W96
// 014   ----------------------------------------
	BYTE	W96
// 015   ----------------------------------------
	BYTE	W96
// 016   ----------------------------------------
	BYTE	W96
// 017   ----------------------------------------
	BYTE	W96
// 018   ----------------------------------------
	BYTE	W96
// 019   ----------------------------------------
	BYTE	W96
// 020   ----------------------------------------
	BYTE	W96
// 021   ----------------------------------------
	BYTE	W96
// 022   ----------------------------------------
	BYTE	W96
// 023   ----------------------------------------
	BYTE	W96
// 024   ----------------------------------------
	BYTE	W96
// 025   ----------------------------------------
	BYTE	W96
// 026   ----------------------------------------
	BYTE	W96
// 027   ----------------------------------------
	BYTE	W96
// 028   ----------------------------------------
	BYTE	W96
// 029   ----------------------------------------
	BYTE	W96
// 030   ----------------------------------------
	BYTE	W96
// 031   ----------------------------------------
	BYTE	W96
// 032   ----------------------------------------
	BYTE	W96
// 033   ----------------------------------------
	BYTE	W96
// 034   ----------------------------------------
	BYTE	W96
// 035   ----------------------------------------
	BYTE	W96
// 036   ----------------------------------------
	BYTE	W96
// 037   ----------------------------------------
	BYTE	W96
// 038   ----------------------------------------
	BYTE	W96
// 039   ----------------------------------------
	BYTE	W96
// 040   ----------------------------------------
	BYTE	W96
// 041   ----------------------------------------
	BYTE	W96
// 042   ----------------------------------------
	BYTE	W96
// 043   ----------------------------------------
	BYTE	W96
// 044   ----------------------------------------
	BYTE	W96
// 045   ----------------------------------------
	BYTE	W96
// 046   ----------------------------------------
	BYTE	W96
// 047   ----------------------------------------
	BYTE	W96
// 048   ----------------------------------------
	BYTE	W96
// 049   ----------------------------------------
	BYTE		VOL     77*Saga_mvl/mxv
	BYTE		PAN     c_v+17
	BYTE	W96
// 050   ----------------------------------------
	BYTE	W96
// 051   ----------------------------------------
	BYTE	W12
	BYTE		N01     Gn4   v088
	BYTE		N01     As4   v084
	BYTE	W06
	BYTE		N02     Gn4   v068
	BYTE		N02     As4   v092
	BYTE	W06
	BYTE		N03     Gn4   v104
	BYTE		N04     As4   v112
	BYTE	W12
	BYTE		N02     Fn4   v100
	BYTE		N02     An4   v088
	BYTE	W06
	BYTE		        Fn4   v080
	BYTE		N02     An4 
	BYTE	W06
	BYTE		N03     Fn4   v100
	BYTE		N03     An4   v108
	BYTE	W12
	BYTE		N02     Ds4   v084
	BYTE		N03     Gn4 
	BYTE	W06
	BYTE		N02     Ds4   v092
	BYTE		N02     Gn4   v068
	BYTE	W06
	BYTE		N04     Ds4   v112
	BYTE		N04     Gn4   v100
	BYTE	W24
// 052   ----------------------------------------
	BYTE	W12
	BYTE		N02     Gn4   v084
	BYTE		N02     As4   v100
	BYTE	W06
	BYTE		        Gn4   v084
	BYTE		N02     As4   v092
	BYTE	W06
	BYTE		N03     Gn4 
	BYTE		N04     As4   v112
	BYTE	W12
	BYTE		N02     Fn4   v084
	BYTE		N02     An4   v072
	BYTE	W06
	BYTE		        Fn4   v088
	BYTE		N02     An4   v084
	BYTE	W06
	BYTE		N04     Fn4   v100
	BYTE		N04     An4   v108
	BYTE	W12
	BYTE		N02     Gn4   v084
	BYTE	W06
	BYTE		N03     Dn4   v068
	BYTE		N03     Gn4   v096
	BYTE	W06
	BYTE		N04     Dn4   v100
	BYTE		N03     Gn4   v112
	BYTE	W24
// 053   ----------------------------------------
	BYTE	W96
// 054   ----------------------------------------
	BYTE	W96
// 055   ----------------------------------------
	BYTE	W12
	BYTE		N02     Gn4   v092
	BYTE		N02     As4   v100
	BYTE	W06
	BYTE		        Gn4   v096
	BYTE		N02     As4   v104
	BYTE	W06
	BYTE		N03     Gn4   v096
	BYTE		N03     As4   v112
	BYTE	W12
	BYTE		        Fn4   v076
	BYTE		N03     An4   v060
	BYTE	W06
	BYTE		N02     Fn4   v092
	BYTE		N02     An4   v096
	BYTE	W06
	BYTE		N04     Fn4   v100
	BYTE		N04     An4   v096
	BYTE	W12
	BYTE		N01     Ds4   v076
	BYTE		N02     Gn4   v084
	BYTE	W06
	BYTE		N03     Ds4   v104
	BYTE		N02     Gn4   v084
	BYTE	W06
	BYTE		N04     Ds4   v112
	BYTE		N04     Gn4   v108
	BYTE	W24
// 056   ----------------------------------------
	BYTE	W12
	BYTE		N01     Gn4   v076
	BYTE		N01     As4   v084
	BYTE	W06
	BYTE		N02     Gn4   v092
	BYTE		N02     As4   v112
	BYTE	W06
	BYTE		N03     Gn4 
	BYTE		N04     As4 
	BYTE	W12
	BYTE		N02     Fn4   v096
	BYTE		N02     An4   v084
	BYTE	W06
	BYTE		        Fn4 
	BYTE		N02     An4   v088
	BYTE	W06
	BYTE		N04     Fn4   v104
	BYTE		N04     An4 
	BYTE	W12
	BYTE		N01     Dn4   v080
	BYTE		N02     Gn4   v076
	BYTE	W06
	BYTE		        Dn4   v068
	BYTE		N02     Gn4   v092
	BYTE	W06
	BYTE		N06     Dn4 
	BYTE		N06     Gn4   v104
	BYTE	W24
// 057   ----------------------------------------
	BYTE	W96
// 058   ----------------------------------------
	BYTE	W96
// 059   ----------------------------------------
	BYTE	W96
// 060   ----------------------------------------
	BYTE	W96
// 061   ----------------------------------------
	BYTE	W96
// 062   ----------------------------------------
	BYTE	W96
// 063   ----------------------------------------
	BYTE	W96
// 064   ----------------------------------------
	BYTE	W96
// 065   ----------------------------------------
	BYTE	W96
// 066   ----------------------------------------
	BYTE	W96
// 067   ----------------------------------------
	BYTE	W96
// 068   ----------------------------------------
	BYTE	W96
// 069   ----------------------------------------
	BYTE	W96
// 070   ----------------------------------------
	BYTE	W96
// 071   ----------------------------------------
	BYTE	W96
// 072   ----------------------------------------
	BYTE	W96
// 073   ----------------------------------------
	BYTE	W96
// 074   ----------------------------------------
	BYTE	W96
// 075   ----------------------------------------
	BYTE	W96
// 076   ----------------------------------------
	BYTE	W96
// 077   ----------------------------------------
	BYTE	W96
// 078   ----------------------------------------
	BYTE	W96
// 079   ----------------------------------------
	BYTE	W96
// 080   ----------------------------------------
	BYTE	W96
// 081   ----------------------------------------
	BYTE	W96
// 082   ----------------------------------------
	BYTE	W96
// 083   ----------------------------------------
	BYTE	W96
// 084   ----------------------------------------
	BYTE	W96
// 085   ----------------------------------------
	BYTE	W96
// 086   ----------------------------------------
	BYTE	W96
// 087   ----------------------------------------
	BYTE	W96
// 088   ----------------------------------------
	BYTE	W96
// 089   ----------------------------------------
	BYTE	W96
// 090   ----------------------------------------
	BYTE	W96
// 091   ----------------------------------------
	BYTE	W96
// 092   ----------------------------------------
	BYTE	W96
// 093   ----------------------------------------
	BYTE	W96
// 094   ----------------------------------------
	BYTE	W96
// 095   ----------------------------------------
	BYTE	W96
// 096   ----------------------------------------
	BYTE	W96
// 097   ----------------------------------------
	BYTE	W96
// 098   ----------------------------------------
	BYTE	W96
// 099   ----------------------------------------
	BYTE	W96
// 100   ----------------------------------------
	BYTE	W96
// 101   ----------------------------------------
	BYTE	W96
// 102   ----------------------------------------
	BYTE	W96
// 103   ----------------------------------------
	BYTE	W96
// 104   ----------------------------------------
	BYTE	W96
// 105   ----------------------------------------
	BYTE	W96
// 106   ----------------------------------------
	BYTE	W96
// 107   ----------------------------------------
	BYTE	W96
// 108   ----------------------------------------
	BYTE	W96
// 109   ----------------------------------------
	BYTE	W96
// 110   ----------------------------------------
	BYTE	W96
// 111   ----------------------------------------
	BYTE	W96
// 112   ----------------------------------------
	BYTE	W96
// 113   ----------------------------------------
	BYTE	W96
// 114   ----------------------------------------
	BYTE	W96
// 115   ----------------------------------------
	BYTE	W96
// 116   ----------------------------------------
	BYTE	W96
// 117   ----------------------------------------
	BYTE	W96
// 118   ----------------------------------------
	BYTE	W96
// 119   ----------------------------------------
	BYTE	W96
// 120   ----------------------------------------
	BYTE	W96
// 121   ----------------------------------------
	BYTE	W96
// 122   ----------------------------------------
	BYTE	W96
// 123   ----------------------------------------
	BYTE	W96
// 124   ----------------------------------------
	BYTE	W96
// 125   ----------------------------------------
	BYTE	W96
// 126   ----------------------------------------
	BYTE	W96
// 127   ----------------------------------------
	BYTE	W96
// 128   ----------------------------------------
	BYTE	W96
// 129   ----------------------------------------
	BYTE	W96
// 130   ----------------------------------------
	BYTE	W96
// 131   ----------------------------------------
	BYTE	W96
// 132   ----------------------------------------
	BYTE	W96
// 133   ----------------------------------------
	BYTE	W06
	BYTE	GoTo
	 POIN2	Saga_11_B1
Saga_11_B2:
	BYTE	W90
// 134   ----------------------------------------
	BYTE	W96
// 135   ----------------------------------------
	BYTE	W96
// 136   ----------------------------------------
	BYTE	W14
	BYTE	FINE

//**************** Track 12 (Midi-Chn.12) ****************//

Saga_12:
	BYTE	KEYSH   Saga_key+0
// 000   ----------------------------------------
	BYTE		VOICE   49
	BYTE	W96
Saga_12_B1:
// 001   ----------------------------------------
	BYTE	W96
// 002   ----------------------------------------
	BYTE	W96
// 003   ----------------------------------------
	BYTE	W96
// 004   ----------------------------------------
	BYTE	W96
// 005   ----------------------------------------
	BYTE	W96
// 006   ----------------------------------------
	BYTE	W96
// 007   ----------------------------------------
	BYTE	W96
// 008   ----------------------------------------
	BYTE	W96
// 009   ----------------------------------------
	BYTE	W96
// 010   ----------------------------------------
	BYTE	W96
// 011   ----------------------------------------
	BYTE	W96
// 012   ----------------------------------------
	BYTE	W96
// 013   ----------------------------------------
	BYTE	W96
// 014   ----------------------------------------
	BYTE	W96
// 015   ----------------------------------------
	BYTE	W96
// 016   ----------------------------------------
	BYTE	W96
// 017   ----------------------------------------
	BYTE	W96
// 018   ----------------------------------------
	BYTE	W96
// 019   ----------------------------------------
	BYTE	W96
// 020   ----------------------------------------
	BYTE	W96
// 021   ----------------------------------------
	BYTE	W96
// 022   ----------------------------------------
	BYTE	W96
// 023   ----------------------------------------
	BYTE	W96
// 024   ----------------------------------------
	BYTE	W96
// 025   ----------------------------------------
	BYTE	W96
// 026   ----------------------------------------
	BYTE	W96
// 027   ----------------------------------------
	BYTE	W96
// 028   ----------------------------------------
	BYTE	W96
// 029   ----------------------------------------
	BYTE	W96
// 030   ----------------------------------------
	BYTE	W96
// 031   ----------------------------------------
	BYTE	W96
// 032   ----------------------------------------
	BYTE	W96
// 033   ----------------------------------------
	BYTE	W96
// 034   ----------------------------------------
	BYTE	W96
// 035   ----------------------------------------
	BYTE	W96
// 036   ----------------------------------------
	BYTE	W96
// 037   ----------------------------------------
	BYTE	W96
// 038   ----------------------------------------
	BYTE	W96
// 039   ----------------------------------------
	BYTE	W96
// 040   ----------------------------------------
	BYTE	W96
// 041   ----------------------------------------
	BYTE	W96
// 042   ----------------------------------------
	BYTE	W96
// 043   ----------------------------------------
	BYTE	W96
// 044   ----------------------------------------
	BYTE	W96
// 045   ----------------------------------------
	BYTE	W96
// 046   ----------------------------------------
	BYTE	W96
// 047   ----------------------------------------
	BYTE	W96
// 048   ----------------------------------------
	BYTE	W96
// 049   ----------------------------------------
	BYTE	W96
// 050   ----------------------------------------
	BYTE	W96
// 051   ----------------------------------------
	BYTE	W96
// 052   ----------------------------------------
	BYTE	W96
// 053   ----------------------------------------
	BYTE	W96
// 054   ----------------------------------------
	BYTE	W96
// 055   ----------------------------------------
	BYTE	W96
// 056   ----------------------------------------
	BYTE	W96
// 057   ----------------------------------------
	BYTE	W96
// 058   ----------------------------------------
	BYTE	W96
// 059   ----------------------------------------
	BYTE	W96
// 060   ----------------------------------------
	BYTE	W96
// 061   ----------------------------------------
	BYTE	W96
// 062   ----------------------------------------
	BYTE	W96
// 063   ----------------------------------------
	BYTE	W96
// 064   ----------------------------------------
	BYTE	W96
// 065   ----------------------------------------
	BYTE	W96
// 066   ----------------------------------------
	BYTE	W96
// 067   ----------------------------------------
	BYTE	W96
// 068   ----------------------------------------
	BYTE	W96
// 069   ----------------------------------------
	BYTE	W96
// 070   ----------------------------------------
	BYTE	W96
// 071   ----------------------------------------
	BYTE	W96
// 072   ----------------------------------------
	BYTE	W96
// 073   ----------------------------------------
	BYTE		VOL     93*Saga_mvl/mxv
	BYTE		PAN     c_v+43
	BYTE		TIE     Dn5   v060
	BYTE	W96
// 074   ----------------------------------------
	BYTE	W96
// 075   ----------------------------------------
	BYTE	W96
// 076   ----------------------------------------
	BYTE	W96
// 077   ----------------------------------------
	BYTE	W96
// 078   ----------------------------------------
	BYTE	W96
// 079   ----------------------------------------
	BYTE	W96
// 080   ----------------------------------------
	BYTE	W84
	BYTE	W03
	BYTE		EOT   
	BYTE	W09
// 081   ----------------------------------------
	BYTE		TIE   
	BYTE	W96
// 082   ----------------------------------------
	BYTE	W96
// 083   ----------------------------------------
	BYTE	W96
// 084   ----------------------------------------
	BYTE	W96
// 085   ----------------------------------------
	BYTE	W96
// 086   ----------------------------------------
	BYTE	W96
// 087   ----------------------------------------
	BYTE	W96
// 088   ----------------------------------------
	BYTE	W84
	BYTE	W03
	BYTE		EOT   
	BYTE	W09
// 089   ----------------------------------------
	BYTE	W96
// 090   ----------------------------------------
	BYTE	W96
// 091   ----------------------------------------
	BYTE	W96
// 092   ----------------------------------------
	BYTE	W96
// 093   ----------------------------------------
	BYTE	W96
// 094   ----------------------------------------
	BYTE	W96
// 095   ----------------------------------------
	BYTE	W96
// 096   ----------------------------------------
	BYTE	W96
// 097   ----------------------------------------
	BYTE	W96
// 098   ----------------------------------------
	BYTE	W96
// 099   ----------------------------------------
	BYTE	W96
// 100   ----------------------------------------
	BYTE	W96
// 101   ----------------------------------------
	BYTE	W96
// 102   ----------------------------------------
	BYTE	W96
// 103   ----------------------------------------
	BYTE	W96
// 104   ----------------------------------------
	BYTE	W96
// 105   ----------------------------------------
	BYTE	W96
// 106   ----------------------------------------
	BYTE	W96
// 107   ----------------------------------------
	BYTE	W96
// 108   ----------------------------------------
	BYTE	W96
// 109   ----------------------------------------
	BYTE	W96
// 110   ----------------------------------------
	BYTE	W96
// 111   ----------------------------------------
	BYTE	W96
// 112   ----------------------------------------
	BYTE	W96
// 113   ----------------------------------------
	BYTE	W96
// 114   ----------------------------------------
	BYTE	W96
// 115   ----------------------------------------
	BYTE	W96
// 116   ----------------------------------------
	BYTE	W96
// 117   ----------------------------------------
	BYTE	W96
// 118   ----------------------------------------
	BYTE	W96
// 119   ----------------------------------------
	BYTE	W96
// 120   ----------------------------------------
	BYTE	W96
// 121   ----------------------------------------
	BYTE	W96
// 122   ----------------------------------------
	BYTE	W96
// 123   ----------------------------------------
	BYTE	W96
// 124   ----------------------------------------
	BYTE	W96
// 125   ----------------------------------------
	BYTE	W96
// 126   ----------------------------------------
	BYTE	W96
// 127   ----------------------------------------
	BYTE	W96
// 128   ----------------------------------------
	BYTE	W96
// 129   ----------------------------------------
	BYTE	W96
// 130   ----------------------------------------
	BYTE	W96
// 131   ----------------------------------------
	BYTE	W96
// 132   ----------------------------------------
	BYTE	W96
// 133   ----------------------------------------
	BYTE	W06
	BYTE	GoTo
	 POIN2	Saga_12_B1
Saga_12_B2:
	BYTE	W90
// 134   ----------------------------------------
	BYTE	W96
// 135   ----------------------------------------
	BYTE	W96
// 136   ----------------------------------------
	BYTE	W14
	BYTE	FINE

//******************************************************//
	ALIGN 4

Saga:
	BYTE	12	// NumTrks
	BYTE	0	// NumBlks
	BYTE	Saga_pri	// Priority
	BYTE	Saga_rev	// Reverb.

	POIN2	Saga_grp

	POIN2	Saga_1
	POIN2	Saga_2
	POIN2	Saga_3
	POIN2	Saga_4
	POIN2	Saga_5
	POIN2	Saga_6
	POIN2	Saga_7
	POIN2	Saga_8
	POIN2	Saga_9
	POIN2	Saga_10
	POIN2	Saga_11
	POIN2	Saga_12

	
