	.include "MPlayDef.s"

	.equ	TTSG_grp, voicegroup000
	.equ	TTSG_pri, 0
	.equ	TTSG_rev, 0
	.equ	TTSG_mvl, 67
	.equ	TTSG_key, 0
	.equ	TTSG_tbs, 1
	.equ	TTSG_exg, 0
	.equ	TTSG_cmp, 1

	.section .rodata
	.global	TTSG
	.align	2

@**************** Track 1 (Midi-Chn.1) ****************@

TTSG_1:
	.byte	KEYSH , TTSG_key+0
@ 000   ----------------------------------------
	.byte	TEMPO , 200*TTSG_tbs/2
	.byte		VOICE , 73
	.byte		VOL   , 99*TTSG_mvl/mxv
	.byte		PAN   , c_v+0
	.byte	W12
	.byte		N11   , Dn3 , v112
	.byte	W12
	.byte		        Fn3 
	.byte	W12
	.byte		N23   , Gn3 
	.byte	W12
@ 001   ----------------------------------------
TTSG_1_001:
	.byte	W12
	.byte		N11   , Gn3 , v112
	.byte	W12
	.byte		        Fn3 
	.byte	W12
	.byte		N23   , Gn3 
	.byte	W24
	.byte		N11   
	.byte	W12
	.byte		        Fn3 
	.byte	W12
	.byte		N23   , Gn3 
	.byte	W12
	.byte	PEND
@ 002   ----------------------------------------
TTSG_1_002:
	.byte	W12
	.byte		N11   , Gn3 , v112
	.byte	W12
	.byte		N11   
	.byte	W12
	.byte		        An3 
	.byte	W24
	.byte		        Dn3 
	.byte	W12
	.byte		        Fn3 
	.byte	W12
	.byte		N23   , Gn3 
	.byte	W12
	.byte	PEND
@ 003   ----------------------------------------
TTSG_1_003:
	.byte	W12
	.byte		N11   , Gn3 , v112
	.byte	W12
	.byte		        Fn3 
	.byte	W12
	.byte		N23   , Gn3 
	.byte	W24
	.byte		N11   
	.byte	W12
	.byte		N11   
	.byte	W12
	.byte		N23   , Cn4 
	.byte	W12
	.byte	PEND
@ 004   ----------------------------------------
TTSG_1_004:
	.byte	W12
	.byte		N23   , As3 , v112
	.byte	W24
	.byte		        An3 
	.byte	W24
	.byte		        As3 
	.byte	W24
	.byte		N32   , An3 
	.byte	W12
	.byte	PEND
@ 005   ----------------------------------------
	.byte	W24
	.byte		N23   , Gn3 
	.byte	W72
@ 006   ----------------------------------------
TTSG_1_006:
	.byte		N44   , Dn4 , v112
	.byte	W48
	.byte		N32   , Gn3 
	.byte	W36
	.byte		N32   
	.byte	W12
	.byte	PEND
@ 007   ----------------------------------------
	.byte	W24
	.byte		        Fn3 
	.byte	W72
@ 008   ----------------------------------------
	.byte	TEMPO , 207*TTSG_tbs/2
	.byte	W60
	.byte		N11   , Dn3 
	.byte	W12
	.byte		        Fn3 
	.byte	W12
	.byte		N23   , Gn3 
	.byte	W12
@ 009   ----------------------------------------
	.byte	TEMPO , 213*TTSG_tbs/2
	.byte	W12
	.byte		N11   
	.byte	W12
	.byte		        Fn3 
	.byte	W12
	.byte		N23   , Gn3 
	.byte	W24
	.byte		N11   
	.byte	W12
	.byte		        Fn3 
	.byte	W12
	.byte		N23   , Gn3 
	.byte	W12
@ 010   ----------------------------------------
	.byte	TEMPO , 221*TTSG_tbs/2
	.byte	W12
	.byte		N11   
	.byte	W12
	.byte		N11   
	.byte	W12
	.byte		        An3 
	.byte	W24
	.byte		        Dn3 
	.byte	W12
	.byte		        Fn3 
	.byte	W12
	.byte		N23   , Gn3 
	.byte	W12
@ 011   ----------------------------------------
	.byte	TEMPO , 227*TTSG_tbs/2
	.byte	W12
	.byte		N11   
	.byte	W12
	.byte		        Fn3 
	.byte	W12
	.byte		N23   , Gn3 
	.byte	W24
	.byte		N11   
	.byte	W12
	.byte		N11   
	.byte	W12
	.byte		N23   , Cn4 
	.byte	W12
@ 012   ----------------------------------------
	.byte	TEMPO , 235*TTSG_tbs/2
	.byte	W12
	.byte		        As3 
	.byte	W24
	.byte		        An3 
	.byte	W24
	.byte		        As3 
	.byte	W24
	.byte		        An3 
	.byte	W12
@ 013   ----------------------------------------
	.byte	TEMPO , 241*TTSG_tbs/2
	.byte	W12
	.byte		        Gn3 
	.byte	W72
	.byte		N44   , Dn4 
	.byte	W12
@ 014   ----------------------------------------
	.byte	TEMPO , 248*TTSG_tbs/2
	.byte	W36
	.byte		N32   , Ds4 
	.byte	W36
	.byte	TEMPO , 250*TTSG_tbs/2
	.byte		        Fn4 
	.byte	W24
@ 015   ----------------------------------------
	.byte	W12
	.byte		        Dn4 
	.byte	W84
@ 016   ----------------------------------------
TTSG_1_016:
	.byte	W48
	.byte		N32   , Gn3 , v112
	.byte	W36
	.byte		N80   
	.byte	W12
	.byte	PEND
@ 017   ----------------------------------------
	.byte	W72
	.byte		N23   , Fn3 
	.byte	W24
@ 018   ----------------------------------------
TTSG_1_018:
	.byte		N44   , Fn3 , v112
	.byte	W48
	.byte		N32   , Dn3 
	.byte	W36
	.byte		N80   , Gn3 
	.byte	W12
	.byte	PEND
@ 019   ----------------------------------------
	.byte	W72
	.byte		N23   , Fn3 
	.byte	W24
@ 020   ----------------------------------------
	.byte	PATT
	 .word	TTSG_1_018
@ 021   ----------------------------------------
	.byte	W72
	.byte		N23   , An3 , v112
	.byte	W24
@ 022   ----------------------------------------
TTSG_1_022:
	.byte		N44   , As3 , v112
	.byte	W48
	.byte		N32   , Cn4 
	.byte	W36
	.byte		        An3 
	.byte	W12
	.byte	PEND
@ 023   ----------------------------------------
TTSG_1_023:
	.byte	W24
	.byte		TIE   , Fn3 , v112
	.byte	W72
	.byte	PEND
@ 024   ----------------------------------------
	.byte	W44
	.byte	W03
	.byte		EOT   
	.byte	W01
	.byte		N32   , Gn3 
	.byte	W36
	.byte		N80   
	.byte	W12
@ 025   ----------------------------------------
	.byte	W72
	.byte		N23   , Fs3 
	.byte	W24
@ 026   ----------------------------------------
TTSG_1_026:
	.byte		N44   , Fs3 , v112
	.byte	W48
	.byte		N32   , Dn3 
	.byte	W36
	.byte		N80   , Gn3 
	.byte	W12
	.byte	PEND
@ 027   ----------------------------------------
	.byte	W72
	.byte		N23   , Fs3 
	.byte	W24
@ 028   ----------------------------------------
TTSG_1_028:
	.byte		N44   , Fs3 , v112
	.byte	W48
	.byte		        Dn3 
	.byte	W48
	.byte	PEND
@ 029   ----------------------------------------
TTSG_1_029:
	.byte		N44   , Gn3 , v112
	.byte	W48
	.byte		        An3 
	.byte	W48
	.byte	PEND
@ 030   ----------------------------------------
TTSG_1_030:
	.byte		N44   , As3 , v112
	.byte	W48
	.byte		N32   , Cn4 
	.byte	W36
	.byte		TIE   , Dn4 
	.byte	W12
	.byte	PEND
@ 031   ----------------------------------------
	.byte	W96
@ 032   ----------------------------------------
	.byte	W80
	.byte	W03
	.byte		EOT   
	.byte	W01
	.byte		TIE   , Bn3 
	.byte	W12
@ 033   ----------------------------------------
	.byte	W96
@ 034   ----------------------------------------
	.byte	W44
	.byte	W03
	.byte		EOT   
	.byte	W01
	.byte		N11   
	.byte	W12
	.byte		N23   
	.byte	W24
	.byte		N80   
	.byte	W12
@ 035   ----------------------------------------
	.byte	W72
	.byte		N23   , An3 
	.byte	W24
@ 036   ----------------------------------------
TTSG_1_036:
	.byte		N44   , An3 , v112
	.byte	W48
	.byte		N32   , Dn4 
	.byte	W36
	.byte		TIE   , Bn3 
	.byte	W12
	.byte	PEND
@ 037   ----------------------------------------
	.byte	W96
@ 038   ----------------------------------------
	.byte	W44
	.byte	W03
	.byte		EOT   
	.byte	W01
	.byte		N11   , En4 
	.byte	W12
	.byte		N23   
	.byte	W24
	.byte		N68   
	.byte	W12
@ 039   ----------------------------------------
TTSG_1_039:
	.byte	W60
	.byte		N23   , Dn4 , v112
	.byte	W24
	.byte		N11   
	.byte	W12
	.byte	PEND
@ 040   ----------------------------------------
TTSG_1_040:
	.byte		N44   , Bn3 , v112
	.byte	W48
	.byte		N11   , En4 
	.byte	W12
	.byte		N23   
	.byte	W24
	.byte		N32   
	.byte	W12
	.byte	PEND
@ 041   ----------------------------------------
TTSG_1_041:
	.byte	W24
	.byte		N11   , En4 , v112
	.byte	W12
	.byte		N32   , Dn4 
	.byte	W36
	.byte		N11   , Bn3 
	.byte	W12
	.byte		        En4 
	.byte	W12
	.byte	PEND
@ 042   ----------------------------------------
TTSG_1_042:
	.byte		N44   , Dn4 , v112
	.byte	W48
	.byte		N11   , Bn3 
	.byte	W12
	.byte		N23   
	.byte	W24
	.byte		TIE   
	.byte	W12
	.byte	PEND
@ 043   ----------------------------------------
	.byte	W92
	.byte	W03
	.byte		EOT   
	.byte	W01
@ 044   ----------------------------------------
	.byte	PATT
	 .word	TTSG_1_036
@ 045   ----------------------------------------
	.byte	W96
@ 046   ----------------------------------------
	.byte	W44
	.byte	W03
	.byte		EOT   , Bn3 
	.byte	W01
	.byte		N11   , En4 , v112
	.byte	W12
	.byte		N23   
	.byte	W24
	.byte		N56   
	.byte	W12
@ 047   ----------------------------------------
TTSG_1_047:
	.byte	W48
	.byte		N32   , Dn4 , v112
	.byte	W36
	.byte		N11   
	.byte	W12
	.byte	PEND
@ 048   ----------------------------------------
TTSG_1_048:
	.byte		N44   , Bn3 , v112
	.byte	W48
	.byte		N11   , En4 
	.byte	W12
	.byte		N23   
	.byte	W24
	.byte		N23   
	.byte	W12
	.byte	PEND
@ 049   ----------------------------------------
TTSG_1_049:
	.byte	W12
	.byte		N23   , Dn4 , v112
	.byte	W24
	.byte		N23   
	.byte	W24
	.byte		        Bn3 
	.byte	W24
	.byte		N23   
	.byte	W12
	.byte	PEND
@ 050   ----------------------------------------
TTSG_1_050:
	.byte	W12
	.byte		N23   , An3 , v112
	.byte	W24
	.byte		N23   
	.byte	W24
	.byte		        Gn3 
	.byte	W24
	.byte		TIE   , En3 
	.byte	W12
	.byte	PEND
@ 051   ----------------------------------------
	.byte	W92
	.byte	W03
	.byte		EOT   
	.byte	W01
@ 052   ----------------------------------------
	.byte	W96
@ 053   ----------------------------------------
	.byte	W96
@ 054   ----------------------------------------
	.byte	W96
@ 055   ----------------------------------------
	.byte	W96
@ 056   ----------------------------------------
	.byte	W96
@ 057   ----------------------------------------
	.byte	W96
@ 058   ----------------------------------------
	.byte	W96
@ 059   ----------------------------------------
	.byte	W96
@ 060   ----------------------------------------
	.byte	W96
@ 061   ----------------------------------------
	.byte	W96
@ 062   ----------------------------------------
	.byte	W96
@ 063   ----------------------------------------
	.byte	W96
@ 064   ----------------------------------------
	.byte	W96
@ 065   ----------------------------------------
	.byte	W96
@ 066   ----------------------------------------
	.byte	W96
@ 067   ----------------------------------------
	.byte	W96
@ 068   ----------------------------------------
	.byte	W96
@ 069   ----------------------------------------
	.byte	W96
@ 070   ----------------------------------------
TTSG_1_070:
	.byte	W60
	.byte		N11   , Dn3 , v112
	.byte	W12
	.byte		        Fn3 
	.byte	W12
	.byte		N23   , Gn3 
	.byte	W12
	.byte	PEND
@ 071   ----------------------------------------
	.byte	PATT
	 .word	TTSG_1_001
@ 072   ----------------------------------------
	.byte	PATT
	 .word	TTSG_1_002
@ 073   ----------------------------------------
	.byte	PATT
	 .word	TTSG_1_003
@ 074   ----------------------------------------
	.byte	PATT
	 .word	TTSG_1_004
@ 075   ----------------------------------------
	.byte	W24
	.byte		N23   , Gn3 , v112
	.byte	W72
@ 076   ----------------------------------------
	.byte	PATT
	 .word	TTSG_1_006
@ 077   ----------------------------------------
	.byte	W24
	.byte		N32   , Fn3 , v112
	.byte	W72
@ 078   ----------------------------------------
	.byte	PATT
	 .word	TTSG_1_070
@ 079   ----------------------------------------
	.byte	PATT
	 .word	TTSG_1_001
@ 080   ----------------------------------------
	.byte	PATT
	 .word	TTSG_1_002
@ 081   ----------------------------------------
	.byte	PATT
	 .word	TTSG_1_003
@ 082   ----------------------------------------
	.byte	PATT
	 .word	TTSG_1_004
@ 083   ----------------------------------------
	.byte	W24
	.byte		N23   , Gn3 , v112
	.byte	W72
@ 084   ----------------------------------------
	.byte		N44   , Dn4 
	.byte	W48
	.byte		N32   , Ds4 
	.byte	W36
	.byte		        Fn4 
	.byte	W12
@ 085   ----------------------------------------
	.byte	W24
	.byte		        Dn4 
	.byte	W72
@ 086   ----------------------------------------
	.byte	PATT
	 .word	TTSG_1_016
@ 087   ----------------------------------------
	.byte	W72
	.byte		N23   , Fn3 , v112
	.byte	W24
@ 088   ----------------------------------------
	.byte	PATT
	 .word	TTSG_1_018
@ 089   ----------------------------------------
	.byte	W72
	.byte		N23   , Fn3 , v112
	.byte	W24
@ 090   ----------------------------------------
	.byte	PATT
	 .word	TTSG_1_018
@ 091   ----------------------------------------
	.byte	W72
	.byte		N23   , An3 , v112
	.byte	W24
@ 092   ----------------------------------------
	.byte	PATT
	 .word	TTSG_1_022
@ 093   ----------------------------------------
	.byte	PATT
	 .word	TTSG_1_023
@ 094   ----------------------------------------
	.byte	W44
	.byte	W03
	.byte		EOT   , Fn3 
	.byte	W01
	.byte		N32   , Gn3 , v112
	.byte	W36
	.byte		N80   
	.byte	W12
@ 095   ----------------------------------------
	.byte	W72
	.byte		N23   , Fs3 
	.byte	W24
@ 096   ----------------------------------------
	.byte	PATT
	 .word	TTSG_1_026
@ 097   ----------------------------------------
	.byte	W72
	.byte		N23   , Fs3 , v112
	.byte	W24
@ 098   ----------------------------------------
	.byte	PATT
	 .word	TTSG_1_028
@ 099   ----------------------------------------
	.byte	PATT
	 .word	TTSG_1_029
@ 100   ----------------------------------------
	.byte	PATT
	 .word	TTSG_1_030
@ 101   ----------------------------------------
	.byte	W96
@ 102   ----------------------------------------
	.byte	W80
	.byte	W03
	.byte		EOT   , Dn4 
	.byte	W01
	.byte		TIE   , Bn3 , v112
	.byte	W12
@ 103   ----------------------------------------
	.byte	W96
@ 104   ----------------------------------------
	.byte	W44
	.byte	W03
	.byte		EOT   
	.byte	W01
	.byte		N11   
	.byte	W12
	.byte		N23   
	.byte	W24
	.byte		N80   
	.byte	W12
@ 105   ----------------------------------------
	.byte	W72
	.byte		N23   , An3 
	.byte	W24
@ 106   ----------------------------------------
	.byte	PATT
	 .word	TTSG_1_036
@ 107   ----------------------------------------
	.byte	W96
@ 108   ----------------------------------------
	.byte	W44
	.byte	W03
	.byte		EOT   , Bn3 
	.byte	W01
	.byte		N11   , En4 , v112
	.byte	W12
	.byte		N23   
	.byte	W24
	.byte		N68   
	.byte	W12
@ 109   ----------------------------------------
	.byte	PATT
	 .word	TTSG_1_039
@ 110   ----------------------------------------
	.byte	PATT
	 .word	TTSG_1_040
@ 111   ----------------------------------------
	.byte	PATT
	 .word	TTSG_1_041
@ 112   ----------------------------------------
	.byte	PATT
	 .word	TTSG_1_042
@ 113   ----------------------------------------
	.byte	W92
	.byte	W03
	.byte		EOT   , Bn3 
	.byte	W01
@ 114   ----------------------------------------
	.byte	PATT
	 .word	TTSG_1_036
@ 115   ----------------------------------------
	.byte	W96
@ 116   ----------------------------------------
	.byte	W44
	.byte	W03
	.byte		EOT   , Bn3 
	.byte	W01
	.byte		N11   , En4 , v112
	.byte	W12
	.byte		N23   
	.byte	W24
	.byte		N56   
	.byte	W12
@ 117   ----------------------------------------
	.byte	PATT
	 .word	TTSG_1_047
@ 118   ----------------------------------------
	.byte	PATT
	 .word	TTSG_1_048
@ 119   ----------------------------------------
	.byte	PATT
	 .word	TTSG_1_049
@ 120   ----------------------------------------
	.byte	W12
	.byte		N23   , An3 , v112
	.byte	W24
	.byte		N23   
	.byte	W24
	.byte		        Gn3 
	.byte	W24
	.byte		N92   , Fs3 
	.byte	W12
@ 121   ----------------------------------------
	.byte	W84
	.byte		        Gn3 
	.byte	W12
@ 122   ----------------------------------------
	.byte	W84
	.byte		        Dn4 
	.byte	W12
@ 123   ----------------------------------------
	.byte	W84
	.byte		        Bn3 
	.byte	W12
@ 124   ----------------------------------------
	.byte	W84
	.byte		        Fs3 
	.byte	W12
@ 125   ----------------------------------------
	.byte	W84
	.byte		        Gn3 
	.byte	W12
@ 126   ----------------------------------------
TTSG_1_126:
	.byte	W84
	.byte		TIE   , Dn3 , v112
	.byte	W12
	.byte	PEND
@ 127   ----------------------------------------
	.byte	W96
@ 128   ----------------------------------------
	.byte	W80
	.byte	W03
	.byte		EOT   
	.byte	W01
	.byte		N92   , Fs3 
	.byte	W12
@ 129   ----------------------------------------
	.byte	W84
	.byte		        Gn3 
	.byte	W12
@ 130   ----------------------------------------
	.byte	W84
	.byte		        Dn4 
	.byte	W12
@ 131   ----------------------------------------
	.byte	W84
	.byte		        Bn3 
	.byte	W12
@ 132   ----------------------------------------
	.byte	W84
	.byte		        Fs3 
	.byte	W12
@ 133   ----------------------------------------
	.byte	W84
	.byte		        Gn3 
	.byte	W12
@ 134   ----------------------------------------
	.byte	W84
	.byte		TIE   , Cn4 
	.byte	W12
@ 135   ----------------------------------------
	.byte	W96
@ 136   ----------------------------------------
	.byte	W80
	.byte	W03
	.byte		EOT   
	.byte	W01
	.byte		N92   , Bn2 
	.byte	W12
@ 137   ----------------------------------------
	.byte	W84
	.byte		        Cn3 
	.byte	W12
@ 138   ----------------------------------------
	.byte	W84
	.byte		        An3 
	.byte	W12
@ 139   ----------------------------------------
	.byte	W84
	.byte		        Fs3 
	.byte	W12
@ 140   ----------------------------------------
	.byte	W84
	.byte		        Bn2 
	.byte	W12
@ 141   ----------------------------------------
	.byte	W84
	.byte		        Cn3 
	.byte	W12
@ 142   ----------------------------------------
	.byte	PATT
	 .word	TTSG_1_126
@ 143   ----------------------------------------
	.byte	W96
@ 144   ----------------------------------------
	.byte	W56
	.byte	W03
	.byte		EOT   , Dn3 
	.byte	W01
	.byte		N23   , Bn2 , v112
	.byte	W24
	.byte		N92   
	.byte	W12
@ 145   ----------------------------------------
	.byte	W84
	.byte		        Cn3 
	.byte	W12
@ 146   ----------------------------------------
	.byte	W84
	.byte		        An3 
	.byte	W12
@ 147   ----------------------------------------
	.byte	W84
	.byte	TEMPO , 231*TTSG_tbs/2
	.byte		        Fs3 
	.byte	W12
@ 148   ----------------------------------------
	.byte	W84
	.byte	TEMPO , 211*TTSG_tbs/2
	.byte		N44   , Gn3 
	.byte	W12
@ 149   ----------------------------------------
	.byte	W36
	.byte		        Dn3 
	.byte	W48
	.byte	TEMPO , 192*TTSG_tbs/2
	.byte		N44   
	.byte	W12
@ 150   ----------------------------------------
	.byte	W36
	.byte		        Cn3 
	.byte	W48
	.byte	TEMPO , 173*TTSG_tbs/2
	.byte		        Fn3 
	.byte	W12
@ 151   ----------------------------------------
	.byte	W36
	.byte		        Dn3 
	.byte	W48
	.byte	TEMPO , 154*TTSG_tbs/2
	.byte		N44   
	.byte	W12
@ 152   ----------------------------------------
	.byte	W36
	.byte		        Cn3 
	.byte	W48
	.byte	TEMPO , 136*TTSG_tbs/2
	.byte		        Ds3 
	.byte	W12
@ 153   ----------------------------------------
	.byte	W36
	.byte		        Dn3 
	.byte	W48
	.byte	TEMPO , 116*TTSG_tbs/2
	.byte		        Cn3 
	.byte	W12
@ 154   ----------------------------------------
	.byte	W36
	.byte		        As2 
	.byte	W48
	.byte	TEMPO , 97*TTSG_tbs/2
	.byte		        Dn3 
	.byte	W12
@ 155   ----------------------------------------
	.byte	W36
	.byte		        Cn3 
	.byte	W48
	.byte	TEMPO , 79*TTSG_tbs/2
	.byte		        As2 
	.byte	W12
@ 156   ----------------------------------------
	.byte	W36
	.byte		        An2 
	.byte	W48
	.byte	TEMPO , 60*TTSG_tbs/2
	.byte		TIE   , Gn2 
	.byte	W12
@ 157   ----------------------------------------
	.byte	TEMPO , 250*TTSG_tbs/2
	.byte	W92
	.byte	W03
	.byte		EOT   
	.byte	W01
@ 158   ----------------------------------------
	.byte	W96
@ 159   ----------------------------------------
	.byte	W96
@ 160   ----------------------------------------
	.byte	W96
@ 161   ----------------------------------------
	.byte	W96
@ 162   ----------------------------------------
	.byte	W96
@ 163   ----------------------------------------
	.byte	W96
@ 164   ----------------------------------------
	.byte	W96
@ 165   ----------------------------------------
	.byte	W96
@ 166   ----------------------------------------
	.byte	W96
@ 167   ----------------------------------------
	.byte	W96
@ 168   ----------------------------------------
	.byte	W96
@ 169   ----------------------------------------
	.byte	W96
@ 170   ----------------------------------------
	.byte	W96
@ 171   ----------------------------------------
	.byte	W96
@ 172   ----------------------------------------
	.byte	W96
@ 173   ----------------------------------------
	.byte	W96
@ 174   ----------------------------------------
	.byte	W96
@ 175   ----------------------------------------
	.byte	W96
@ 176   ----------------------------------------
	.byte	W96
@ 177   ----------------------------------------
	.byte	W96
@ 178   ----------------------------------------
	.byte	W96
@ 179   ----------------------------------------
	.byte	W48
	.byte		N11   , Bn3 
	.byte	W12
	.byte		N23   
	.byte	W24
	.byte		N80   
	.byte	W12
@ 180   ----------------------------------------
	.byte	W72
	.byte		N23   , An3 
	.byte	W24
@ 181   ----------------------------------------
	.byte	PATT
	 .word	TTSG_1_036
@ 182   ----------------------------------------
	.byte	W96
@ 183   ----------------------------------------
	.byte	W44
	.byte	W03
	.byte		EOT   , Bn3 
	.byte	W01
	.byte		N11   , En4 , v112
	.byte	W12
	.byte		N23   
	.byte	W24
	.byte		N68   
	.byte	W12
@ 184   ----------------------------------------
	.byte	PATT
	 .word	TTSG_1_039
@ 185   ----------------------------------------
	.byte	PATT
	 .word	TTSG_1_040
@ 186   ----------------------------------------
	.byte	PATT
	 .word	TTSG_1_041
@ 187   ----------------------------------------
	.byte	PATT
	 .word	TTSG_1_042
@ 188   ----------------------------------------
	.byte	W92
	.byte	W03
	.byte		EOT   , Bn3 
	.byte	W01
@ 189   ----------------------------------------
	.byte	PATT
	 .word	TTSG_1_036
@ 190   ----------------------------------------
	.byte	W96
@ 191   ----------------------------------------
	.byte	W44
	.byte	W03
	.byte		EOT   , Bn3 
	.byte	W01
	.byte		N11   , En4 , v112
	.byte	W12
	.byte		N23   
	.byte	W24
	.byte		N56   
	.byte	W12
@ 192   ----------------------------------------
	.byte	PATT
	 .word	TTSG_1_047
@ 193   ----------------------------------------
	.byte	PATT
	 .word	TTSG_1_048
@ 194   ----------------------------------------
	.byte	PATT
	 .word	TTSG_1_049
@ 195   ----------------------------------------
	.byte	PATT
	 .word	TTSG_1_050
@ 196   ----------------------------------------
	.byte	W92
	.byte	W03
	.byte		EOT   , En3 
	.byte	W01
@ 197   ----------------------------------------
	.byte	FINE

@**************** Track 2 (Midi-Chn.2) ****************@

TTSG_2:
	.byte	KEYSH , TTSG_key+0
@ 000   ----------------------------------------
	.byte		VOICE , 73
	.byte		VOL   , 99*TTSG_mvl/mxv
	.byte		PAN   , c_v+0
	.byte	W48
@ 001   ----------------------------------------
	.byte	W96
@ 002   ----------------------------------------
	.byte	W96
@ 003   ----------------------------------------
	.byte	W96
@ 004   ----------------------------------------
	.byte	W96
@ 005   ----------------------------------------
	.byte	W96
@ 006   ----------------------------------------
	.byte	W96
@ 007   ----------------------------------------
	.byte	W96
@ 008   ----------------------------------------
	.byte	W96
@ 009   ----------------------------------------
	.byte	W96
@ 010   ----------------------------------------
	.byte	W96
@ 011   ----------------------------------------
	.byte	W96
@ 012   ----------------------------------------
	.byte	W96
@ 013   ----------------------------------------
	.byte	W96
@ 014   ----------------------------------------
	.byte	W96
@ 015   ----------------------------------------
	.byte	W96
@ 016   ----------------------------------------
TTSG_2_016:
	.byte	W48
	.byte		N32   , As3 , v096
	.byte	W36
	.byte		N80   
	.byte	W12
	.byte	PEND
@ 017   ----------------------------------------
	.byte	W72
	.byte		N23   , An3 
	.byte	W24
@ 018   ----------------------------------------
TTSG_2_018:
	.byte		N44   , An3 , v096
	.byte	W84
	.byte		N80   , As3 
	.byte	W12
	.byte	PEND
@ 019   ----------------------------------------
	.byte	W72
	.byte		N23   , An3 
	.byte	W24
@ 020   ----------------------------------------
	.byte	PATT
	 .word	TTSG_2_018
@ 021   ----------------------------------------
	.byte	W72
	.byte		N23   , An3 , v096
	.byte	W24
@ 022   ----------------------------------------
TTSG_2_022:
	.byte		N44   , As3 , v096
	.byte	W84
	.byte		N32   , Cn4 
	.byte	W12
	.byte	PEND
@ 023   ----------------------------------------
TTSG_2_023:
	.byte	W24
	.byte		TIE   , An3 , v096
	.byte	W72
	.byte	PEND
@ 024   ----------------------------------------
	.byte	W44
	.byte	W03
	.byte		EOT   
	.byte	W36
	.byte	W01
	.byte		N80   , Bn3 
	.byte	W12
@ 025   ----------------------------------------
	.byte	W72
	.byte		N23   , An3 
	.byte	W24
@ 026   ----------------------------------------
TTSG_2_026:
	.byte		N44   , An3 , v096
	.byte	W48
	.byte		N32   , Fs3 
	.byte	W36
	.byte		N80   , Bn3 
	.byte	W12
	.byte	PEND
@ 027   ----------------------------------------
	.byte	W72
	.byte		N23   , An3 
	.byte	W24
@ 028   ----------------------------------------
	.byte		N44   
	.byte	W96
@ 029   ----------------------------------------
	.byte	W96
@ 030   ----------------------------------------
TTSG_2_030:
	.byte	W84
	.byte		TIE   , Dn4 , v096
	.byte	W12
	.byte	PEND
@ 031   ----------------------------------------
	.byte	W96
@ 032   ----------------------------------------
	.byte	W80
	.byte	W03
	.byte		EOT   
	.byte	W01
	.byte		TIE   , Gn3 
	.byte	W12
@ 033   ----------------------------------------
	.byte	W96
@ 034   ----------------------------------------
	.byte	W44
	.byte	W03
	.byte		EOT   
	.byte	W36
	.byte	W01
	.byte		N80   
	.byte	W12
@ 035   ----------------------------------------
	.byte	W72
	.byte		N23   , Fs3 
	.byte	W24
@ 036   ----------------------------------------
TTSG_2_036:
	.byte		N44   , Fs3 , v096
	.byte	W48
	.byte		N32   , An3 
	.byte	W36
	.byte		TIE   , Fs3 
	.byte	W12
	.byte	PEND
@ 037   ----------------------------------------
	.byte	W96
@ 038   ----------------------------------------
	.byte	W44
	.byte	W03
	.byte		EOT   
	.byte	W48
	.byte	W01
@ 039   ----------------------------------------
	.byte	W96
@ 040   ----------------------------------------
	.byte	W96
@ 041   ----------------------------------------
	.byte	W96
@ 042   ----------------------------------------
TTSG_2_042:
	.byte	W84
	.byte		TIE   , Gn3 , v096
	.byte	W12
	.byte	PEND
@ 043   ----------------------------------------
	.byte	W92
	.byte	W03
	.byte		EOT   
	.byte	W01
@ 044   ----------------------------------------
	.byte	PATT
	 .word	TTSG_2_036
@ 045   ----------------------------------------
	.byte	W96
@ 046   ----------------------------------------
	.byte	W44
	.byte	W03
	.byte		EOT   , Fs3 
	.byte	W48
	.byte	W01
@ 047   ----------------------------------------
	.byte	W96
@ 048   ----------------------------------------
	.byte	W96
@ 049   ----------------------------------------
	.byte	W96
@ 050   ----------------------------------------
	.byte	W96
@ 051   ----------------------------------------
	.byte	W96
@ 052   ----------------------------------------
	.byte	W96
@ 053   ----------------------------------------
	.byte	W96
@ 054   ----------------------------------------
	.byte	W96
@ 055   ----------------------------------------
	.byte	W96
@ 056   ----------------------------------------
	.byte	W96
@ 057   ----------------------------------------
	.byte	W96
@ 058   ----------------------------------------
	.byte	W96
@ 059   ----------------------------------------
	.byte	W96
@ 060   ----------------------------------------
	.byte	W96
@ 061   ----------------------------------------
	.byte	W96
@ 062   ----------------------------------------
	.byte	W96
@ 063   ----------------------------------------
	.byte	W96
@ 064   ----------------------------------------
	.byte	W96
@ 065   ----------------------------------------
	.byte	W96
@ 066   ----------------------------------------
	.byte	W96
@ 067   ----------------------------------------
	.byte	W96
@ 068   ----------------------------------------
	.byte	W96
@ 069   ----------------------------------------
	.byte	W96
@ 070   ----------------------------------------
	.byte	W96
@ 071   ----------------------------------------
	.byte	W96
@ 072   ----------------------------------------
	.byte	W96
@ 073   ----------------------------------------
	.byte	W96
@ 074   ----------------------------------------
	.byte	W96
@ 075   ----------------------------------------
	.byte	W96
@ 076   ----------------------------------------
	.byte	W96
@ 077   ----------------------------------------
	.byte	W96
@ 078   ----------------------------------------
	.byte	W96
@ 079   ----------------------------------------
	.byte	W96
@ 080   ----------------------------------------
	.byte	W96
@ 081   ----------------------------------------
	.byte	W96
@ 082   ----------------------------------------
	.byte	W96
@ 083   ----------------------------------------
	.byte	W96
@ 084   ----------------------------------------
	.byte		N44   , Dn4 , v096
	.byte	W48
	.byte		N32   , Ds4 
	.byte	W36
	.byte		        Fn4 
	.byte	W12
@ 085   ----------------------------------------
	.byte	W24
	.byte		        Dn4 
	.byte	W72
@ 086   ----------------------------------------
	.byte	PATT
	 .word	TTSG_2_016
@ 087   ----------------------------------------
	.byte	W72
	.byte		N23   , An3 , v096
	.byte	W24
@ 088   ----------------------------------------
	.byte	PATT
	 .word	TTSG_2_018
@ 089   ----------------------------------------
	.byte	W72
	.byte		N23   , An3 , v096
	.byte	W24
@ 090   ----------------------------------------
	.byte	PATT
	 .word	TTSG_2_018
@ 091   ----------------------------------------
	.byte	W72
	.byte		N23   , An3 , v096
	.byte	W24
@ 092   ----------------------------------------
	.byte	PATT
	 .word	TTSG_2_022
@ 093   ----------------------------------------
	.byte	PATT
	 .word	TTSG_2_023
@ 094   ----------------------------------------
	.byte	W44
	.byte	W03
	.byte		EOT   , An3 
	.byte	W36
	.byte	W01
	.byte		N80   , Bn3 , v096
	.byte	W12
@ 095   ----------------------------------------
	.byte	W72
	.byte		N23   , An3 
	.byte	W24
@ 096   ----------------------------------------
	.byte	PATT
	 .word	TTSG_2_026
@ 097   ----------------------------------------
	.byte	W72
	.byte		N23   , An3 , v096
	.byte	W24
@ 098   ----------------------------------------
	.byte		N44   
	.byte	W96
@ 099   ----------------------------------------
	.byte	W96
@ 100   ----------------------------------------
	.byte	PATT
	 .word	TTSG_2_030
@ 101   ----------------------------------------
	.byte	W96
@ 102   ----------------------------------------
	.byte	W80
	.byte	W03
	.byte		EOT   , Dn4 
	.byte	W01
	.byte		TIE   , Gn3 , v096
	.byte	W12
@ 103   ----------------------------------------
	.byte	W96
@ 104   ----------------------------------------
	.byte	W44
	.byte	W03
	.byte		EOT   
	.byte	W36
	.byte	W01
	.byte		N80   
	.byte	W12
@ 105   ----------------------------------------
	.byte	W72
	.byte		N23   , Fs3 
	.byte	W24
@ 106   ----------------------------------------
	.byte	PATT
	 .word	TTSG_2_036
@ 107   ----------------------------------------
	.byte	W96
@ 108   ----------------------------------------
	.byte	W44
	.byte	W03
	.byte		EOT   , Fs3 
	.byte	W48
	.byte	W01
@ 109   ----------------------------------------
	.byte	W96
@ 110   ----------------------------------------
	.byte	W96
@ 111   ----------------------------------------
	.byte	W96
@ 112   ----------------------------------------
	.byte	PATT
	 .word	TTSG_2_042
@ 113   ----------------------------------------
	.byte	W92
	.byte	W03
	.byte		EOT   , Gn3 
	.byte	W01
@ 114   ----------------------------------------
	.byte	PATT
	 .word	TTSG_2_036
@ 115   ----------------------------------------
	.byte	W96
@ 116   ----------------------------------------
	.byte	W44
	.byte	W03
	.byte		EOT   , Fs3 
	.byte	W48
	.byte	W01
@ 117   ----------------------------------------
	.byte	W96
@ 118   ----------------------------------------
	.byte	W96
@ 119   ----------------------------------------
	.byte	W96
@ 120   ----------------------------------------
	.byte	W96
@ 121   ----------------------------------------
	.byte	W96
@ 122   ----------------------------------------
	.byte	W96
@ 123   ----------------------------------------
	.byte	W96
@ 124   ----------------------------------------
	.byte	W96
@ 125   ----------------------------------------
	.byte	W96
@ 126   ----------------------------------------
	.byte	W96
@ 127   ----------------------------------------
	.byte	W96
@ 128   ----------------------------------------
	.byte	W96
@ 129   ----------------------------------------
	.byte	W96
@ 130   ----------------------------------------
	.byte	W96
@ 131   ----------------------------------------
	.byte	W96
@ 132   ----------------------------------------
	.byte	W96
@ 133   ----------------------------------------
	.byte	W96
@ 134   ----------------------------------------
	.byte	W96
@ 135   ----------------------------------------
	.byte	W96
@ 136   ----------------------------------------
	.byte	W96
@ 137   ----------------------------------------
	.byte	W96
@ 138   ----------------------------------------
	.byte	W96
@ 139   ----------------------------------------
	.byte	W96
@ 140   ----------------------------------------
	.byte	W96
@ 141   ----------------------------------------
	.byte	W96
@ 142   ----------------------------------------
	.byte	W96
@ 143   ----------------------------------------
	.byte	W96
@ 144   ----------------------------------------
	.byte	W96
@ 145   ----------------------------------------
	.byte	W96
@ 146   ----------------------------------------
	.byte	W96
@ 147   ----------------------------------------
	.byte	W96
@ 148   ----------------------------------------
	.byte	W96
@ 149   ----------------------------------------
	.byte	W96
@ 150   ----------------------------------------
	.byte	W96
@ 151   ----------------------------------------
	.byte	W96
@ 152   ----------------------------------------
	.byte	W96
@ 153   ----------------------------------------
	.byte	W96
@ 154   ----------------------------------------
	.byte	W96
@ 155   ----------------------------------------
	.byte	W96
@ 156   ----------------------------------------
	.byte	W96
@ 157   ----------------------------------------
	.byte	W96
@ 158   ----------------------------------------
	.byte	W96
@ 159   ----------------------------------------
	.byte	W96
@ 160   ----------------------------------------
	.byte	W96
@ 161   ----------------------------------------
	.byte	W96
@ 162   ----------------------------------------
	.byte	W96
@ 163   ----------------------------------------
	.byte	W96
@ 164   ----------------------------------------
	.byte	W96
@ 165   ----------------------------------------
	.byte	W96
@ 166   ----------------------------------------
	.byte	W96
@ 167   ----------------------------------------
	.byte	W96
@ 168   ----------------------------------------
	.byte	W96
@ 169   ----------------------------------------
	.byte	W96
@ 170   ----------------------------------------
	.byte	W96
@ 171   ----------------------------------------
	.byte	W96
@ 172   ----------------------------------------
	.byte	W96
@ 173   ----------------------------------------
	.byte	W96
@ 174   ----------------------------------------
	.byte	W96
@ 175   ----------------------------------------
	.byte	W96
@ 176   ----------------------------------------
	.byte	W96
@ 177   ----------------------------------------
	.byte	W96
@ 178   ----------------------------------------
	.byte	W96
@ 179   ----------------------------------------
	.byte	W84
	.byte		N80   , Gn3 , v096
	.byte	W12
@ 180   ----------------------------------------
	.byte	W72
	.byte		N23   , Fs3 
	.byte	W24
@ 181   ----------------------------------------
	.byte	PATT
	 .word	TTSG_2_036
@ 182   ----------------------------------------
	.byte	W96
@ 183   ----------------------------------------
	.byte	W44
	.byte	W03
	.byte		EOT   , Fs3 
	.byte	W48
	.byte	W01
@ 184   ----------------------------------------
	.byte	W96
@ 185   ----------------------------------------
	.byte	W96
@ 186   ----------------------------------------
	.byte	W96
@ 187   ----------------------------------------
	.byte	PATT
	 .word	TTSG_2_042
@ 188   ----------------------------------------
	.byte	W92
	.byte	W03
	.byte		EOT   , Gn3 
	.byte	W01
@ 189   ----------------------------------------
	.byte	PATT
	 .word	TTSG_2_036
@ 190   ----------------------------------------
	.byte	W96
@ 191   ----------------------------------------
	.byte	W44
	.byte	W03
	.byte		EOT   , Fs3 
	.byte	W48
	.byte	W01
@ 192   ----------------------------------------
	.byte	W96
@ 193   ----------------------------------------
	.byte	W96
@ 194   ----------------------------------------
	.byte	W96
@ 195   ----------------------------------------
	.byte	W96
@ 196   ----------------------------------------
	.byte	W96
@ 197   ----------------------------------------
	.byte	FINE

@**************** Track 3 (Midi-Chn.3) ****************@

TTSG_3:
	.byte	KEYSH , TTSG_key+0
@ 000   ----------------------------------------
	.byte		VOICE , 29
	.byte		VOL   , 80*TTSG_mvl/mxv
	.byte		PAN   , c_v+0
	.byte	W48
@ 001   ----------------------------------------
	.byte	W96
@ 002   ----------------------------------------
	.byte	W96
@ 003   ----------------------------------------
	.byte	W96
@ 004   ----------------------------------------
	.byte	W96
@ 005   ----------------------------------------
	.byte	W96
@ 006   ----------------------------------------
	.byte	W96
@ 007   ----------------------------------------
	.byte	W96
@ 008   ----------------------------------------
	.byte	W96
@ 009   ----------------------------------------
	.byte	W96
@ 010   ----------------------------------------
	.byte	W96
@ 011   ----------------------------------------
	.byte	W96
@ 012   ----------------------------------------
	.byte	W96
@ 013   ----------------------------------------
	.byte	W96
@ 014   ----------------------------------------
	.byte	W96
@ 015   ----------------------------------------
	.byte	W96
@ 016   ----------------------------------------
TTSG_3_016:
	.byte	W84
	.byte		N23   , Ds2 , v096
	.byte		N23   , As2 
	.byte	W12
	.byte	PEND
@ 017   ----------------------------------------
TTSG_3_017:
	.byte	W12
	.byte		N11   , Ds2 , v096
	.byte		N11   , As2 
	.byte	W12
	.byte		        Ds2 
	.byte		N11   , As2 
	.byte	W12
	.byte		        Ds2 
	.byte		N11   , As2 
	.byte	W12
	.byte		        Ds2 
	.byte		N11   , As2 
	.byte	W12
	.byte		        Ds2 
	.byte		N11   , As2 
	.byte	W12
	.byte		        Ds2 
	.byte		N11   , As2 
	.byte	W12
	.byte		        Ds2 
	.byte		N11   , As2 
	.byte	W12
	.byte	PEND
@ 018   ----------------------------------------
	.byte		        Ds2 
	.byte		N11   , As2 
	.byte	W12
	.byte		        Ds2 
	.byte		N11   , As2 
	.byte	W12
	.byte		        Ds2 
	.byte		N11   , As2 
	.byte	W12
	.byte		        Ds2 
	.byte		N11   , As2 
	.byte	W12
	.byte		        Ds2 
	.byte		N11   , As2 
	.byte	W12
	.byte		        Ds2 
	.byte		N11   , As2 
	.byte	W12
	.byte		        Ds2 
	.byte		N11   , As2 
	.byte	W12
	.byte		N23   , Dn2 
	.byte		N23   , An2 
	.byte	W12
@ 019   ----------------------------------------
TTSG_3_019:
	.byte	W12
	.byte		N11   , Dn2 , v096
	.byte		N11   , An2 
	.byte	W12
	.byte		        Dn2 
	.byte		N11   , An2 
	.byte	W12
	.byte		        Dn2 
	.byte		N11   , An2 
	.byte	W12
	.byte		        Dn2 
	.byte		N11   , An2 
	.byte	W12
	.byte		        Dn2 
	.byte		N11   , An2 
	.byte	W12
	.byte		        Dn2 
	.byte		N11   , An2 
	.byte	W12
	.byte		        Dn2 
	.byte		N11   , An2 
	.byte	W12
	.byte	PEND
@ 020   ----------------------------------------
	.byte		        Dn2 
	.byte		N11   , An2 
	.byte	W12
	.byte		        Dn2 
	.byte		N11   , An2 
	.byte	W12
	.byte		        Dn2 
	.byte		N11   , An2 
	.byte	W12
	.byte		        Dn2 
	.byte		N11   , An2 
	.byte	W12
	.byte		        Dn2 
	.byte		N11   , An2 
	.byte	W12
	.byte		        Dn2 
	.byte		N11   , An2 
	.byte	W12
	.byte		        Dn2 
	.byte		N11   , An2 
	.byte	W12
	.byte		N23   , Cn2 
	.byte		N23   , Gn2 
	.byte	W12
@ 021   ----------------------------------------
TTSG_3_021:
	.byte	W12
	.byte		N11   , Cn2 , v096
	.byte		N11   , Gn2 
	.byte	W12
	.byte		        Cn2 
	.byte		N11   , Gn2 
	.byte	W12
	.byte		        Cn2 
	.byte		N11   , Gn2 
	.byte	W12
	.byte		        Cn2 
	.byte		N11   , Gn2 
	.byte	W12
	.byte		        Cn2 
	.byte		N11   , Gn2 
	.byte	W12
	.byte		        Cn2 
	.byte		N11   , Gn2 
	.byte	W12
	.byte		        Cn2 
	.byte		N11   , Gn2 
	.byte	W12
	.byte	PEND
@ 022   ----------------------------------------
	.byte		        Cn2 
	.byte		N11   , Gn2 
	.byte	W12
	.byte		        Cn2 
	.byte		N11   , Gn2 
	.byte	W12
	.byte		        Cn2 
	.byte		N11   , Gn2 
	.byte	W12
	.byte		        Cn2 
	.byte		N11   , Gn2 
	.byte	W12
	.byte		        Cn2 
	.byte		N11   , Gn2 
	.byte	W12
	.byte		        Cn2 
	.byte		N11   , Gn2 
	.byte	W12
	.byte		        Cn2 
	.byte		N11   , Gn2 
	.byte	W12
	.byte		N23   , Gn1 
	.byte		N23   , Dn2 
	.byte	W12
@ 023   ----------------------------------------
	.byte	W12
	.byte		N11   , Gn1 
	.byte		N11   , Dn2 
	.byte	W12
	.byte		        Gn1 
	.byte		N11   , Dn2 
	.byte	W12
	.byte		        Gn1 
	.byte		N11   , Dn2 
	.byte	W12
	.byte		        Gn1 
	.byte		N11   , Dn2 
	.byte	W12
	.byte		        Gn1 
	.byte		N11   , Dn2 
	.byte	W12
	.byte		        Gn1 
	.byte		N11   , Dn2 
	.byte	W12
	.byte		        Gn1 
	.byte		N11   , Dn2 
	.byte	W12
@ 024   ----------------------------------------
	.byte		        Gn1 
	.byte		N11   , Dn2 
	.byte	W12
	.byte		        Gn1 
	.byte		N11   , Dn2 
	.byte	W12
	.byte		        Gn1 
	.byte		N11   , Dn2 
	.byte	W12
	.byte		        Gn1 
	.byte		N11   , Dn2 
	.byte	W12
	.byte		        Gn1 
	.byte		N11   , Dn2 
	.byte	W12
	.byte		        Gn1 
	.byte		N11   , Dn2 
	.byte	W12
	.byte		        Gn1 
	.byte		N11   , Dn2 
	.byte	W12
	.byte		N23   , An1 
	.byte		N23   , En2 
	.byte	W12
@ 025   ----------------------------------------
	.byte	W12
	.byte		N11   , An1 
	.byte		N11   , En2 
	.byte	W12
	.byte		        An1 
	.byte		N11   , En2 
	.byte	W12
	.byte		        An1 
	.byte		N11   , En2 
	.byte	W12
	.byte		        An1 
	.byte		N11   , En2 
	.byte	W12
	.byte		        An1 
	.byte		N11   , En2 
	.byte	W12
	.byte		        An1 
	.byte		N11   , En2 
	.byte	W12
	.byte		        An1 
	.byte		N11   , En2 
	.byte	W12
@ 026   ----------------------------------------
	.byte		        An1 
	.byte		N11   , En2 
	.byte	W12
	.byte		        An1 
	.byte		N11   , En2 
	.byte	W12
	.byte		        An1 
	.byte		N11   , En2 
	.byte	W12
	.byte		        An1 
	.byte		N11   , En2 
	.byte	W12
	.byte		        An1 
	.byte		N11   , En2 
	.byte	W12
	.byte		        An1 
	.byte		N11   , En2 
	.byte	W12
	.byte		        An1 
	.byte		N11   , En2 
	.byte	W12
	.byte		N23   , En1 
	.byte		N23   , Bn1 
	.byte	W12
@ 027   ----------------------------------------
TTSG_3_027:
	.byte	W12
	.byte		N11   , En1 , v096
	.byte		N11   , Bn1 
	.byte	W12
	.byte		        En1 
	.byte		N11   , Bn1 
	.byte	W12
	.byte		        En1 
	.byte		N11   , Bn1 
	.byte	W12
	.byte		        En1 
	.byte		N11   , Bn1 
	.byte	W12
	.byte		        En1 
	.byte		N11   , Bn1 
	.byte	W12
	.byte		        En1 
	.byte		N11   , Bn1 
	.byte	W12
	.byte		        En1 
	.byte		N11   , Bn1 
	.byte	W12
	.byte	PEND
@ 028   ----------------------------------------
	.byte		        En1 
	.byte		N11   , Bn1 
	.byte	W12
	.byte		        En1 
	.byte		N11   , Bn1 
	.byte	W12
	.byte		        En1 
	.byte		N11   , Bn1 
	.byte	W12
	.byte		        En1 
	.byte		N11   , Bn1 
	.byte	W12
	.byte		        En1 
	.byte		N11   , Bn1 
	.byte	W12
	.byte		        En1 
	.byte		N11   , Bn1 
	.byte	W12
	.byte		        En1 
	.byte		N11   , Bn1 
	.byte	W12
	.byte		N23   , Cn2 
	.byte		N23   , Gn2 
	.byte	W12
@ 029   ----------------------------------------
	.byte	PATT
	 .word	TTSG_3_021
@ 030   ----------------------------------------
	.byte		N11   , Cn2 , v096
	.byte		N11   , Gn2 
	.byte	W12
	.byte		        Cn2 
	.byte		N11   , Gn2 
	.byte	W12
	.byte		        Cn2 
	.byte		N11   , Gn2 
	.byte	W12
	.byte		        Cn2 
	.byte		N11   , Gn2 
	.byte	W12
	.byte		        Cn2 
	.byte		N11   , Gn2 
	.byte	W12
	.byte		        Cn2 
	.byte		N11   , Gn2 
	.byte	W12
	.byte		        Cn2 
	.byte		N11   , Gn2 
	.byte	W12
	.byte		N23   , Fs1 
	.byte		N23   , Cs2 
	.byte	W12
@ 031   ----------------------------------------
	.byte	W12
	.byte		N11   , Fs1 
	.byte		N11   , Cs2 
	.byte	W12
	.byte		        Fs1 
	.byte		N11   , Cs2 
	.byte	W12
	.byte		        Fs1 
	.byte		N11   , Cs2 
	.byte	W12
	.byte		        Fs1 
	.byte		N11   , Cs2 
	.byte	W12
	.byte		        Fs1 
	.byte		N11   , Cs2 
	.byte	W12
	.byte		        Fs1 
	.byte		N11   , Cs2 
	.byte	W12
	.byte		        Fs1 
	.byte		N11   , Cs2 
	.byte	W12
@ 032   ----------------------------------------
	.byte		        Fs1 
	.byte		N11   , Cs2 
	.byte	W12
	.byte		        Fs1 
	.byte		N11   , Cs2 
	.byte	W12
	.byte		        Fs1 
	.byte		N11   , Cs2 
	.byte	W12
	.byte		        Fs1 
	.byte		N11   , Cs2 
	.byte	W12
	.byte		        Fs1 
	.byte		N11   , Cs2 
	.byte	W12
	.byte		        Fs1 
	.byte		N11   , Cs2 
	.byte	W12
	.byte		        Fs1 
	.byte		N11   , Cs2 
	.byte	W12
	.byte		N23   , Bn1 
	.byte		N23   , Fs2 
	.byte	W12
@ 033   ----------------------------------------
TTSG_3_033:
	.byte	W12
	.byte		N11   , Bn1 , v096
	.byte		N11   , Fs2 
	.byte	W12
	.byte		        Bn1 
	.byte		N11   , Fs2 
	.byte	W12
	.byte		        Bn1 
	.byte		N11   , Fs2 
	.byte	W12
	.byte		        Bn1 
	.byte		N11   , Fs2 
	.byte	W12
	.byte		        Bn1 
	.byte		N11   , Fs2 
	.byte	W12
	.byte		        Bn1 
	.byte		N11   , Fs2 
	.byte	W12
	.byte		        Bn1 
	.byte		N11   , Fs2 
	.byte	W12
	.byte	PEND
@ 034   ----------------------------------------
	.byte		        Bn1 
	.byte		N11   , Fs2 
	.byte	W12
	.byte		        Bn1 
	.byte		N11   , Fs2 
	.byte	W12
	.byte		        Bn1 
	.byte		N11   , Fs2 
	.byte	W12
	.byte		        Bn1 
	.byte		N11   , Fs2 
	.byte	W12
	.byte		        Bn1 
	.byte		N11   , Fs2 
	.byte	W12
	.byte		        Bn1 
	.byte		N11   , Fs2 
	.byte	W12
	.byte		        Bn1 
	.byte		N11   , Fs2 
	.byte	W12
	.byte		N23   , En1 
	.byte		N23   , Bn1 
	.byte	W12
@ 035   ----------------------------------------
	.byte	PATT
	 .word	TTSG_3_027
@ 036   ----------------------------------------
TTSG_3_036:
	.byte		N11   , En1 , v096
	.byte		N11   , Bn1 
	.byte	W12
	.byte		        En1 
	.byte		N11   , Bn1 
	.byte	W12
	.byte		        En1 
	.byte		N11   , Bn1 
	.byte	W12
	.byte		        En1 
	.byte		N11   , Bn1 
	.byte	W12
	.byte		        En1 
	.byte		N11   , Bn1 
	.byte	W12
	.byte		        En1 
	.byte		N11   , Bn1 
	.byte	W12
	.byte		        En1 
	.byte		N11   , Bn1 
	.byte	W12
	.byte		N23   
	.byte		N23   , Fs2 
	.byte	W12
	.byte	PEND
@ 037   ----------------------------------------
	.byte	PATT
	 .word	TTSG_3_033
@ 038   ----------------------------------------
TTSG_3_038:
	.byte		N11   , Bn1 , v096
	.byte		N11   , Fs2 
	.byte	W12
	.byte		        Bn1 
	.byte		N11   , Fs2 
	.byte	W12
	.byte		        Bn1 
	.byte		N11   , Fs2 
	.byte	W12
	.byte		        Bn1 
	.byte		N11   , Fs2 
	.byte	W12
	.byte		        Bn1 
	.byte		N11   , Fs2 
	.byte	W12
	.byte		        Bn1 
	.byte		N11   , Fs2 
	.byte	W12
	.byte		        Bn1 
	.byte		N11   , Fs2 
	.byte	W12
	.byte		N23   , Cn2 
	.byte		N23   , Gn2 
	.byte	W12
	.byte	PEND
@ 039   ----------------------------------------
	.byte	W12
	.byte		N11   , Cn2 
	.byte	W12
	.byte		N11   
	.byte	W12
	.byte		N11   
	.byte	W12
	.byte		N11   
	.byte	W12
	.byte		N11   
	.byte	W12
	.byte		N11   
	.byte	W12
	.byte		N11   
	.byte	W12
@ 040   ----------------------------------------
	.byte		N11   
	.byte	W12
	.byte		N11   
	.byte	W12
	.byte		N11   
	.byte	W12
	.byte		N11   
	.byte	W12
	.byte		N11   
	.byte	W12
	.byte		N11   
	.byte	W12
	.byte		N11   
	.byte	W12
	.byte		N23   , Dn2 
	.byte	W12
@ 041   ----------------------------------------
	.byte	W12
	.byte		N11   
	.byte	W12
	.byte		N11   
	.byte	W12
	.byte		N11   
	.byte	W12
	.byte		N11   
	.byte	W12
	.byte		N11   
	.byte	W12
	.byte		N11   
	.byte	W12
	.byte		N92   , Ds2 
	.byte	W12
@ 042   ----------------------------------------
	.byte	W84
	.byte		N23   , En1 
	.byte		N23   , Bn1 
	.byte	W12
@ 043   ----------------------------------------
	.byte	PATT
	 .word	TTSG_3_027
@ 044   ----------------------------------------
	.byte	PATT
	 .word	TTSG_3_036
@ 045   ----------------------------------------
	.byte	PATT
	 .word	TTSG_3_033
@ 046   ----------------------------------------
	.byte	PATT
	 .word	TTSG_3_038
@ 047   ----------------------------------------
	.byte	PATT
	 .word	TTSG_3_021
@ 048   ----------------------------------------
	.byte		N11   , Cn2 , v096
	.byte		N11   , Gn2 
	.byte	W12
	.byte		        Cn2 
	.byte		N11   , Gn2 
	.byte	W12
	.byte		        Cn2 
	.byte		N11   , Gn2 
	.byte	W12
	.byte		        Cn2 
	.byte		N11   , Gn2 
	.byte	W12
	.byte		        Cn2 
	.byte		N11   , Gn2 
	.byte	W12
	.byte		        Cn2 
	.byte		N11   , Gn2 
	.byte	W12
	.byte		        Cn2 
	.byte		N11   , Gn2 
	.byte	W12
	.byte		N23   , Dn2 
	.byte		N23   , An2 
	.byte	W12
@ 049   ----------------------------------------
	.byte	PATT
	 .word	TTSG_3_019
@ 050   ----------------------------------------
	.byte		N11   , Dn2 , v096
	.byte		N11   , An2 
	.byte	W12
	.byte		        Dn2 
	.byte		N11   , An2 
	.byte	W12
	.byte		        Dn2 
	.byte		N11   , An2 
	.byte	W12
	.byte		        Dn2 
	.byte		N11   , An2 
	.byte	W12
	.byte		        Dn2 
	.byte		N11   , An2 
	.byte	W12
	.byte		        Dn2 
	.byte		N11   , An2 
	.byte	W12
	.byte		        Dn2 
	.byte		N11   , An2 
	.byte	W12
	.byte		N92   , Fs3 
	.byte	W12
@ 051   ----------------------------------------
	.byte	W84
	.byte		        Gn3 
	.byte	W12
@ 052   ----------------------------------------
	.byte	W84
	.byte		        Dn4 
	.byte	W12
@ 053   ----------------------------------------
	.byte	W84
	.byte		        Bn3 
	.byte	W12
@ 054   ----------------------------------------
	.byte	W84
	.byte		        Fs3 
	.byte	W12
@ 055   ----------------------------------------
	.byte	W84
	.byte		        Gn3 
	.byte	W12
@ 056   ----------------------------------------
	.byte	W84
	.byte		        Gn4 
	.byte	W12
@ 057   ----------------------------------------
	.byte	W84
	.byte		        Dn4 
	.byte	W12
@ 058   ----------------------------------------
	.byte	W84
	.byte		        Bn3 
	.byte	W12
@ 059   ----------------------------------------
	.byte	W84
	.byte		        Cn4 
	.byte	W12
@ 060   ----------------------------------------
	.byte	W84
	.byte		        An4 
	.byte	W12
@ 061   ----------------------------------------
	.byte	W84
	.byte		        Fs4 
	.byte	W12
@ 062   ----------------------------------------
	.byte	W84
	.byte		N44   , Gn3 
	.byte	W12
@ 063   ----------------------------------------
TTSG_3_063:
	.byte	W36
	.byte		N44   , Dn4 , v096
	.byte	W48
	.byte		N44   
	.byte	W12
	.byte	PEND
@ 064   ----------------------------------------
	.byte	W36
	.byte		        Cn4 
	.byte	W48
	.byte		        Fn4 
	.byte	W12
@ 065   ----------------------------------------
	.byte	PATT
	 .word	TTSG_3_063
@ 066   ----------------------------------------
	.byte	W36
	.byte		N32   , Cn4 , v096
	.byte	W36
	.byte		N56   , Ds4 
	.byte	W24
@ 067   ----------------------------------------
	.byte	W36
	.byte		N44   
	.byte	W48
	.byte		        Cn4 
	.byte	W12
@ 068   ----------------------------------------
	.byte	W36
	.byte		        As3 
	.byte	W48
	.byte		        Dn4 
	.byte	W12
@ 069   ----------------------------------------
	.byte	W36
	.byte		        Cn4 
	.byte	W48
	.byte		        As3 
	.byte	W12
@ 070   ----------------------------------------
	.byte	W36
	.byte		N44   
	.byte	W48
	.byte		TIE   , Gn3 
	.byte	W12
@ 071   ----------------------------------------
	.byte	W92
	.byte	W03
	.byte		EOT   
	.byte	W01
@ 072   ----------------------------------------
	.byte	W84
	.byte		N32   , Gn1 
	.byte		N32   , Dn2 
	.byte	W12
@ 073   ----------------------------------------
	.byte	W96
@ 074   ----------------------------------------
	.byte	PATT
	 .word	TTSG_3_016
@ 075   ----------------------------------------
	.byte	PATT
	 .word	TTSG_3_017
@ 076   ----------------------------------------
	.byte		N11   , Ds2 , v096
	.byte		N11   , As2 
	.byte	W12
	.byte		        Ds2 
	.byte		N11   , As2 
	.byte	W12
	.byte		        Ds2 
	.byte		N11   , As2 
	.byte	W12
	.byte		        Ds2 
	.byte		N11   , As2 
	.byte	W12
	.byte		        Ds2 
	.byte		N11   , As2 
	.byte	W12
	.byte		        Ds2 
	.byte		N11   , As2 
	.byte	W12
	.byte		        Ds2 
	.byte		N11   , As2 
	.byte	W12
	.byte		        An2 
	.byte	W12
@ 077   ----------------------------------------
	.byte		        As2 
	.byte	W12
	.byte		        An2 
	.byte	W12
	.byte		        Gn2 
	.byte	W12
	.byte		        Fn2 
	.byte	W12
	.byte		        Ds2 
	.byte	W12
	.byte		        Fn2 
	.byte	W12
	.byte		        Gn2 
	.byte	W12
	.byte		        An2 
	.byte	W12
@ 078   ----------------------------------------
	.byte		        As2 
	.byte	W12
	.byte		        Cn3 
	.byte	W12
	.byte		        Dn3 
	.byte	W12
	.byte		        Ds3 
	.byte	W12
	.byte		        Fn3 
	.byte	W12
	.byte		        Gn3 
	.byte	W12
	.byte		        An3 
	.byte	W12
	.byte		N56   , As3 
	.byte	W12
@ 079   ----------------------------------------
	.byte	W96
@ 080   ----------------------------------------
	.byte	W84
	.byte		        Cn4 
	.byte	W12
@ 081   ----------------------------------------
	.byte	W96
@ 082   ----------------------------------------
	.byte	PATT
	 .word	TTSG_3_016
@ 083   ----------------------------------------
	.byte	PATT
	 .word	TTSG_3_017
@ 084   ----------------------------------------
	.byte		N11   , Ds2 , v096
	.byte		N11   , As2 
	.byte	W12
	.byte		        Ds2 
	.byte		N11   , As2 
	.byte	W12
	.byte		        Ds2 
	.byte		N11   , As2 
	.byte	W12
	.byte		        Ds2 
	.byte		N11   , As2 
	.byte	W12
	.byte		        Ds2 
	.byte		N11   , As2 
	.byte	W12
	.byte		        Ds2 
	.byte		N11   , As2 
	.byte	W12
	.byte		        Ds2 
	.byte		N11   , As2 
	.byte	W12
	.byte		N07   , Dn3 , v127
	.byte	W08
	.byte		        Cn3 
	.byte	W04
@ 085   ----------------------------------------
	.byte	W04
	.byte		        As2 
	.byte	W08
	.byte		N11   , An2 
	.byte	W12
	.byte		        Gn2 
	.byte	W12
	.byte		N05   , Fn2 
	.byte	W06
	.byte		        Gn2 
	.byte	W06
	.byte		N11   , An2 
	.byte	W12
	.byte		N05   , As2 
	.byte	W06
	.byte		        Cn3 
	.byte	W06
	.byte		N11   , Dn3 
	.byte	W12
	.byte		N05   , Ds3 
	.byte	W06
	.byte		        Fn3 
	.byte	W06
@ 086   ----------------------------------------
	.byte		N11   , Gn3 
	.byte	W12
	.byte		N07   , An3 
	.byte	W08
	.byte		        As3 
	.byte	W08
	.byte		        Cn4 
	.byte	W08
	.byte		        Dn4 
	.byte	W08
	.byte		        Ds4 
	.byte	W08
	.byte		        Fn4 
	.byte	W08
	.byte		N08   , Gn4 
	.byte	W09
	.byte		TIE   , As4 
	.byte	W24
	.byte	W03
@ 087   ----------------------------------------
	.byte	W80
	.byte	W03
	.byte		EOT   
	.byte	W01
	.byte		N56   , An4 
	.byte	W12
@ 088   ----------------------------------------
	.byte	W48
	.byte		N32   , Fn4 
	.byte	W36
	.byte		N92   , As4 
	.byte	W12
@ 089   ----------------------------------------
	.byte	W84
	.byte		N56   , An4 
	.byte	W12
@ 090   ----------------------------------------
	.byte	W48
	.byte		N32   , As4 
	.byte	W36
	.byte		TIE   , Gn4 
	.byte	W12
@ 091   ----------------------------------------
	.byte	W96
@ 092   ----------------------------------------
	.byte	W44
	.byte	W03
	.byte		EOT   
	.byte	W01
	.byte		N32   , An4 
	.byte	W36
	.byte		TIE   , Fn4 
	.byte	W12
@ 093   ----------------------------------------
	.byte	W96
@ 094   ----------------------------------------
	.byte	W80
	.byte	W03
	.byte		EOT   
	.byte	W01
	.byte		TIE   , En4 
	.byte	W12
@ 095   ----------------------------------------
	.byte	W96
@ 096   ----------------------------------------
	.byte	W44
	.byte	W03
	.byte		EOT   
	.byte	W01
	.byte		N32   , Gn4 
	.byte	W36
	.byte		N92   , Fs4 
	.byte	W12
@ 097   ----------------------------------------
	.byte	W84
	.byte		N11   , Dn4 
	.byte	W12
@ 098   ----------------------------------------
	.byte		N80   , Fs4 
	.byte	W84
	.byte		N92   , Gn4 
	.byte	W12
@ 099   ----------------------------------------
	.byte	W84
	.byte		        As4 
	.byte	W12
@ 100   ----------------------------------------
	.byte	W84
	.byte		        Fs4 
	.byte	W12
@ 101   ----------------------------------------
	.byte	W84
	.byte		        An4 
	.byte	W12
@ 102   ----------------------------------------
	.byte	W84
	.byte		TIE   , Bn4 
	.byte	W12
@ 103   ----------------------------------------
	.byte	W92
	.byte	W03
	.byte		EOT   
	.byte	W01
@ 104   ----------------------------------------
TTSG_3_104:
	.byte	W84
	.byte		N23   , En1 , v127
	.byte		N23   , Bn1 
	.byte	W12
	.byte	PEND
@ 105   ----------------------------------------
TTSG_3_105:
	.byte	W12
	.byte		N11   , En1 , v127
	.byte	W12
	.byte		N11   
	.byte	W12
	.byte		N11   
	.byte	W12
	.byte		N11   
	.byte	W12
	.byte		N11   
	.byte	W12
	.byte		N11   
	.byte	W12
	.byte		N11   
	.byte	W12
	.byte	PEND
@ 106   ----------------------------------------
	.byte		N11   
	.byte	W12
	.byte		N11   
	.byte	W12
	.byte		N11   
	.byte	W12
	.byte		N11   
	.byte	W12
	.byte		N11   
	.byte	W12
	.byte		N23   , Bn1 
	.byte		N23   , Fs2 
	.byte	W24
	.byte		TIE   , Bn1 
	.byte		TIE   , Fs2 
	.byte	W12
@ 107   ----------------------------------------
	.byte	W92
	.byte	W03
	.byte		EOT   , Bn1 
	.byte		        Fs2 
	.byte	W01
@ 108   ----------------------------------------
	.byte		N11   , Bn1 
	.byte	W12
	.byte		N11   
	.byte	W12
	.byte		N11   
	.byte	W12
	.byte		N11   
	.byte	W12
	.byte		N11   
	.byte	W12
	.byte		N11   
	.byte	W12
	.byte		N11   
	.byte	W12
	.byte		N80   , Cn2 
	.byte		N80   , Gn2 
	.byte	W12
@ 109   ----------------------------------------
	.byte	W72
	.byte		N11   , Cn2 
	.byte	W12
	.byte		N11   
	.byte	W12
@ 110   ----------------------------------------
TTSG_3_110:
	.byte		N11   , Cn2 , v127
	.byte	W12
	.byte		N11   
	.byte	W12
	.byte		N11   
	.byte	W12
	.byte		N11   
	.byte	W12
	.byte		N11   
	.byte	W12
	.byte		N11   
	.byte	W12
	.byte		N11   
	.byte	W12
	.byte		N23   , Dn2 
	.byte	W12
	.byte	PEND
@ 111   ----------------------------------------
TTSG_3_111:
	.byte	W12
	.byte		N11   , Dn2 , v127
	.byte	W12
	.byte		N11   
	.byte	W12
	.byte		N11   
	.byte	W12
	.byte		N11   
	.byte	W12
	.byte		N11   
	.byte	W12
	.byte		N11   
	.byte	W12
	.byte		N92   , Ds2 
	.byte	W12
	.byte	PEND
@ 112   ----------------------------------------
	.byte	PATT
	 .word	TTSG_3_104
@ 113   ----------------------------------------
	.byte	PATT
	 .word	TTSG_3_105
@ 114   ----------------------------------------
	.byte		N11   , En1 , v127
	.byte	W12
	.byte		N11   
	.byte	W12
	.byte		N11   
	.byte	W12
	.byte		N11   
	.byte	W12
	.byte		N11   
	.byte	W12
	.byte		N11   
	.byte	W12
	.byte		N11   
	.byte	W12
	.byte		N23   , Bn1 
	.byte		N23   , Fs2 
	.byte	W12
@ 115   ----------------------------------------
	.byte	W12
	.byte		N11   , Bn1 
	.byte	W12
	.byte		N11   
	.byte	W12
	.byte		N11   
	.byte	W12
	.byte		N11   
	.byte	W12
	.byte		N11   
	.byte	W12
	.byte		N11   
	.byte	W12
	.byte		N11   
	.byte	W12
@ 116   ----------------------------------------
	.byte		N11   
	.byte	W12
	.byte		N11   
	.byte	W12
	.byte		N11   
	.byte	W12
	.byte		N11   
	.byte	W12
	.byte		N11   
	.byte	W12
	.byte		N11   
	.byte	W12
	.byte		N11   
	.byte	W12
	.byte		TIE   , Cn2 
	.byte		TIE   , Gn2 
	.byte	W12
@ 117   ----------------------------------------
	.byte	W96
@ 118   ----------------------------------------
	.byte	W80
	.byte	W03
	.byte		EOT   , Cn2 
	.byte		        Gn2 
	.byte	W01
	.byte		TIE   , Dn2 
	.byte		TIE   , An2 
	.byte	W12
@ 119   ----------------------------------------
	.byte	W96
@ 120   ----------------------------------------
	.byte	W68
	.byte	W03
	.byte		EOT   , Dn2 
	.byte		        An2 
	.byte	W24
	.byte	W01
@ 121   ----------------------------------------
	.byte	W96
@ 122   ----------------------------------------
	.byte	W96
@ 123   ----------------------------------------
	.byte	W96
@ 124   ----------------------------------------
	.byte	W96
@ 125   ----------------------------------------
	.byte	W96
@ 126   ----------------------------------------
	.byte	W96
@ 127   ----------------------------------------
	.byte	W96
@ 128   ----------------------------------------
	.byte	W96
@ 129   ----------------------------------------
	.byte	W96
@ 130   ----------------------------------------
	.byte	W96
@ 131   ----------------------------------------
	.byte	W96
@ 132   ----------------------------------------
	.byte	W96
@ 133   ----------------------------------------
	.byte	W96
@ 134   ----------------------------------------
	.byte	W96
@ 135   ----------------------------------------
	.byte	W96
@ 136   ----------------------------------------
	.byte	W96
@ 137   ----------------------------------------
	.byte	W96
@ 138   ----------------------------------------
	.byte	W96
@ 139   ----------------------------------------
	.byte	W96
@ 140   ----------------------------------------
	.byte	W96
@ 141   ----------------------------------------
	.byte	W96
@ 142   ----------------------------------------
	.byte	W96
@ 143   ----------------------------------------
	.byte	W96
@ 144   ----------------------------------------
	.byte	W96
@ 145   ----------------------------------------
	.byte	W96
@ 146   ----------------------------------------
	.byte	W96
@ 147   ----------------------------------------
	.byte	W96
@ 148   ----------------------------------------
	.byte	W96
@ 149   ----------------------------------------
	.byte	W96
@ 150   ----------------------------------------
	.byte	W96
@ 151   ----------------------------------------
	.byte	W96
@ 152   ----------------------------------------
	.byte	W96
@ 153   ----------------------------------------
	.byte	W96
@ 154   ----------------------------------------
	.byte	W96
@ 155   ----------------------------------------
	.byte	W96
@ 156   ----------------------------------------
	.byte	W96
@ 157   ----------------------------------------
	.byte	W84
	.byte		N23   , Ds2 
	.byte		N23   , As2 
	.byte	W12
@ 158   ----------------------------------------
TTSG_3_158:
	.byte	W12
	.byte		N11   , Ds2 , v127
	.byte		N11   , As2 
	.byte	W12
	.byte		        Ds2 
	.byte		N11   , As2 
	.byte	W12
	.byte		        Ds2 
	.byte		N11   , As2 
	.byte	W12
	.byte		        Ds2 
	.byte		N11   , As2 
	.byte	W12
	.byte		        Ds2 
	.byte		N11   , As2 
	.byte	W12
	.byte		        Ds2 
	.byte		N11   , As2 
	.byte	W12
	.byte		        Ds2 
	.byte		N11   , As2 
	.byte	W12
	.byte	PEND
@ 159   ----------------------------------------
TTSG_3_159:
	.byte		N11   , Ds2 , v127
	.byte		N11   , As2 
	.byte	W12
	.byte		        Ds2 
	.byte		N11   , As2 
	.byte	W12
	.byte		        Ds2 
	.byte		N11   , As2 
	.byte	W12
	.byte		        Ds2 
	.byte		N11   , As2 
	.byte	W12
	.byte		        Ds2 
	.byte		N11   , As2 
	.byte	W12
	.byte		        Ds2 
	.byte		N11   , As2 
	.byte	W12
	.byte		        Ds2 
	.byte		N11   , As2 
	.byte	W12
	.byte		N23   , Dn2 
	.byte		N23   , An2 
	.byte	W12
	.byte	PEND
@ 160   ----------------------------------------
TTSG_3_160:
	.byte	W12
	.byte		N11   , Dn2 , v127
	.byte		N11   , An2 
	.byte	W12
	.byte		        Dn2 
	.byte		N11   , An2 
	.byte	W12
	.byte		        Dn2 
	.byte		N11   , An2 
	.byte	W12
	.byte		        Dn2 
	.byte		N11   , An2 
	.byte	W12
	.byte		        Dn2 
	.byte		N11   , An2 
	.byte	W12
	.byte		        Dn2 
	.byte		N11   , An2 
	.byte	W12
	.byte		        Dn2 
	.byte		N11   , An2 
	.byte	W12
	.byte	PEND
@ 161   ----------------------------------------
	.byte		        Dn2 
	.byte		N11   , An2 
	.byte	W12
	.byte		        Dn2 
	.byte		N11   , An2 
	.byte	W12
	.byte		        Dn2 
	.byte		N11   , An2 
	.byte	W12
	.byte		        Dn2 
	.byte		N11   , An2 
	.byte	W12
	.byte		        Dn2 
	.byte		N11   , An2 
	.byte	W12
	.byte		        Dn2 
	.byte		N11   , An2 
	.byte	W12
	.byte		        Dn2 
	.byte		N11   , An2 
	.byte	W12
	.byte		N23   , Ds2 
	.byte		N23   , As2 
	.byte	W12
@ 162   ----------------------------------------
	.byte	PATT
	 .word	TTSG_3_158
@ 163   ----------------------------------------
	.byte	PATT
	 .word	TTSG_3_159
@ 164   ----------------------------------------
	.byte	PATT
	 .word	TTSG_3_160
@ 165   ----------------------------------------
	.byte		N11   , Dn2 , v127
	.byte		N11   , An2 
	.byte	W12
	.byte		        Dn2 
	.byte		N11   , An2 
	.byte	W12
	.byte		        Dn2 
	.byte		N11   , An2 
	.byte	W12
	.byte		        Dn2 
	.byte		N11   , An2 
	.byte	W12
	.byte		        Dn2 
	.byte		N11   , An2 
	.byte	W12
	.byte		        Dn2 
	.byte		N11   , An2 
	.byte	W12
	.byte		        Dn2 
	.byte		N11   , An2 
	.byte	W12
	.byte		N23   , Cn2 
	.byte		N23   , Gn2 
	.byte	W12
@ 166   ----------------------------------------
TTSG_3_166:
	.byte	W12
	.byte		N11   , Cn2 , v127
	.byte		N11   , Gn2 
	.byte	W12
	.byte		        Cn2 
	.byte		N11   , Gn2 
	.byte	W12
	.byte		        Cn2 
	.byte		N11   , Gn2 
	.byte	W12
	.byte		        Cn2 
	.byte		N11   , Gn2 
	.byte	W12
	.byte		        Cn2 
	.byte		N11   , Gn2 
	.byte	W12
	.byte		        Cn2 
	.byte		N11   , Gn2 
	.byte	W12
	.byte		        Cn2 
	.byte		N11   , Gn2 
	.byte	W12
	.byte	PEND
@ 167   ----------------------------------------
	.byte		        Cn2 
	.byte		N11   , Gn2 
	.byte	W12
	.byte		        Cn2 
	.byte		N11   , Gn2 
	.byte	W12
	.byte		        Cn2 
	.byte		N11   , Gn2 
	.byte	W12
	.byte		        Cn2 
	.byte		N11   , Gn2 
	.byte	W12
	.byte		        Cn2 
	.byte		N11   , Gn2 
	.byte	W12
	.byte		        Cn2 
	.byte		N11   , Gn2 
	.byte	W12
	.byte		        Cn2 
	.byte		N11   , Gn2 
	.byte	W12
	.byte		N23   , Gn1 
	.byte		N23   , Dn2 
	.byte	W12
@ 168   ----------------------------------------
	.byte	W12
	.byte		N11   , Gn1 
	.byte		N11   , Dn2 
	.byte	W12
	.byte		        Gn1 
	.byte		N11   , Dn2 
	.byte	W12
	.byte		        Gn1 
	.byte		N11   , Dn2 
	.byte	W12
	.byte		        Gn1 
	.byte		N11   , Dn2 
	.byte	W12
	.byte		        Gn1 
	.byte		N11   , Dn2 
	.byte	W12
	.byte		        Gn1 
	.byte		N11   , Dn2 
	.byte	W12
	.byte		        Gn1 
	.byte		N11   , Dn2 
	.byte	W12
@ 169   ----------------------------------------
	.byte		        Gn1 
	.byte		N11   , Dn2 
	.byte	W12
	.byte		        Gn1 
	.byte		N11   , Dn2 
	.byte	W12
	.byte		        Gn1 
	.byte		N11   , Dn2 
	.byte	W12
	.byte		        Gn1 
	.byte		N11   , Dn2 
	.byte	W12
	.byte		        Gn1 
	.byte		N11   , Dn2 
	.byte	W12
	.byte		        Gn1 
	.byte		N11   , Dn2 
	.byte	W12
	.byte		        Gn1 
	.byte		N11   , Dn2 
	.byte	W12
	.byte		N23   , An1 
	.byte		N23   , En2 
	.byte	W12
@ 170   ----------------------------------------
	.byte	W12
	.byte		N11   , An1 
	.byte		N11   , En2 
	.byte	W12
	.byte		        An1 
	.byte		N11   , En2 
	.byte	W12
	.byte		        An1 
	.byte		N11   , En2 
	.byte	W12
	.byte		        An1 
	.byte		N11   , En2 
	.byte	W12
	.byte		        An1 
	.byte		N11   , En2 
	.byte	W12
	.byte		        An1 
	.byte		N11   , En2 
	.byte	W12
	.byte		        An1 
	.byte		N11   , En2 
	.byte	W12
@ 171   ----------------------------------------
	.byte		        An1 
	.byte		N11   , En2 
	.byte	W12
	.byte		        An1 
	.byte		N11   , En2 
	.byte	W12
	.byte		        An1 
	.byte		N11   , En2 
	.byte	W12
	.byte		        An1 
	.byte		N11   , En2 
	.byte	W12
	.byte		        An1 
	.byte		N11   , En2 
	.byte	W12
	.byte		        An1 
	.byte		N11   , En2 
	.byte	W12
	.byte		        An1 
	.byte		N11   , En2 
	.byte	W12
	.byte		N23   , En1 
	.byte		N23   , Bn1 
	.byte	W12
@ 172   ----------------------------------------
TTSG_3_172:
	.byte	W12
	.byte		N11   , En1 , v127
	.byte		N11   , Bn1 
	.byte	W12
	.byte		        En1 
	.byte		N11   , Bn1 
	.byte	W12
	.byte		        En1 
	.byte		N11   , Bn1 
	.byte	W12
	.byte		        En1 
	.byte		N11   , Bn1 
	.byte	W12
	.byte		        En1 
	.byte		N11   , Bn1 
	.byte	W12
	.byte		        En1 
	.byte		N11   , Bn1 
	.byte	W12
	.byte		        En1 
	.byte		N11   , Bn1 
	.byte	W12
	.byte	PEND
@ 173   ----------------------------------------
	.byte		        En1 
	.byte		N11   , Bn1 
	.byte	W12
	.byte		        En1 
	.byte		N11   , Bn1 
	.byte	W12
	.byte		        En1 
	.byte		N11   , Bn1 
	.byte	W12
	.byte		        En1 
	.byte		N11   , Bn1 
	.byte	W12
	.byte		        En1 
	.byte		N11   , Bn1 
	.byte	W12
	.byte		        En1 
	.byte		N11   , Bn1 
	.byte	W12
	.byte		        En1 
	.byte		N11   , Bn1 
	.byte	W12
	.byte		N23   , Cn2 
	.byte		N23   , Gn2 
	.byte	W12
@ 174   ----------------------------------------
	.byte	PATT
	 .word	TTSG_3_166
@ 175   ----------------------------------------
	.byte		N11   , Cn2 , v127
	.byte		N11   , Gn2 
	.byte	W12
	.byte		        Cn2 
	.byte		N11   , Gn2 
	.byte	W12
	.byte		        Cn2 
	.byte		N11   , Gn2 
	.byte	W12
	.byte		        Cn2 
	.byte		N11   , Gn2 
	.byte	W12
	.byte		        Cn2 
	.byte		N11   , Gn2 
	.byte	W12
	.byte		        Cn2 
	.byte		N11   , Gn2 
	.byte	W12
	.byte		        Cn2 
	.byte		N11   , Gn2 
	.byte	W12
	.byte		N23   , Fs1 
	.byte		N23   , Cs2 
	.byte	W12
@ 176   ----------------------------------------
	.byte	W12
	.byte		N11   , Fs1 
	.byte		N11   , Cs2 
	.byte	W12
	.byte		        Fs1 
	.byte		N11   , Cs2 
	.byte	W12
	.byte		        Fs1 
	.byte		N11   , Cs2 
	.byte	W12
	.byte		        Fs1 
	.byte		N11   , Cs2 
	.byte	W12
	.byte		        Fs1 
	.byte		N11   , Cs2 
	.byte	W12
	.byte		        Fs1 
	.byte		N11   , Cs2 
	.byte	W12
	.byte		        Fs1 
	.byte		N11   , Cs2 
	.byte	W12
@ 177   ----------------------------------------
	.byte		        Fs1 
	.byte		N11   , Cs2 
	.byte	W12
	.byte		        Fs1 
	.byte		N11   , Cs2 
	.byte	W12
	.byte		        Fs1 
	.byte		N11   , Cs2 
	.byte	W12
	.byte		        Fs1 
	.byte		N11   , Cs2 
	.byte	W12
	.byte		        Fs1 
	.byte		N11   , Cs2 
	.byte	W12
	.byte		        Fs1 
	.byte		N11   , Cs2 
	.byte	W12
	.byte		        Fs1 
	.byte		N11   , Cs2 
	.byte	W12
	.byte		N23   , Bn1 
	.byte		N23   , Fs2 
	.byte	W12
@ 178   ----------------------------------------
TTSG_3_178:
	.byte	W12
	.byte		N11   , Bn1 , v127
	.byte		N11   , Fs2 
	.byte	W12
	.byte		        Bn1 
	.byte		N11   , Fs2 
	.byte	W12
	.byte		        Bn1 
	.byte		N11   , Fs2 
	.byte	W12
	.byte		        Bn1 
	.byte		N11   , Fs2 
	.byte	W12
	.byte		        Bn1 
	.byte		N11   , Fs2 
	.byte	W12
	.byte		        Bn1 
	.byte		N11   , Fs2 
	.byte	W12
	.byte		        Bn1 
	.byte		N11   , Fs2 
	.byte	W12
	.byte	PEND
@ 179   ----------------------------------------
	.byte		        Bn1 
	.byte		N11   , Fs2 
	.byte	W12
	.byte		        Bn1 
	.byte		N11   , Fs2 
	.byte	W12
	.byte		        Bn1 
	.byte		N11   , Fs2 
	.byte	W12
	.byte		        Bn1 
	.byte		N11   , Fs2 
	.byte	W12
	.byte		        Bn1 
	.byte		N11   , Fs2 
	.byte	W12
	.byte		        Bn1 
	.byte		N11   , Fs2 
	.byte	W12
	.byte		        Bn1 
	.byte		N11   , Fs2 
	.byte	W12
	.byte		N23   , En1 
	.byte		N23   , Bn1 
	.byte	W12
@ 180   ----------------------------------------
	.byte	PATT
	 .word	TTSG_3_172
@ 181   ----------------------------------------
TTSG_3_181:
	.byte		N11   , En1 , v127
	.byte		N11   , Bn1 
	.byte	W12
	.byte		        En1 
	.byte		N11   , Bn1 
	.byte	W12
	.byte		        En1 
	.byte		N11   , Bn1 
	.byte	W12
	.byte		        En1 
	.byte		N11   , Bn1 
	.byte	W12
	.byte		        En1 
	.byte		N11   , Bn1 
	.byte	W12
	.byte		        En1 
	.byte		N11   , Bn1 
	.byte	W12
	.byte		        En1 
	.byte		N11   , Bn1 
	.byte	W12
	.byte		N23   
	.byte		N23   , Fs2 
	.byte	W12
	.byte	PEND
@ 182   ----------------------------------------
	.byte	PATT
	 .word	TTSG_3_178
@ 183   ----------------------------------------
TTSG_3_183:
	.byte		N11   , Bn1 , v127
	.byte		N11   , Fs2 
	.byte	W12
	.byte		        Bn1 
	.byte		N11   , Fs2 
	.byte	W12
	.byte		        Bn1 
	.byte		N11   , Fs2 
	.byte	W12
	.byte		        Bn1 
	.byte		N11   , Fs2 
	.byte	W12
	.byte		        Bn1 
	.byte		N11   , Fs2 
	.byte	W12
	.byte		        Bn1 
	.byte		N11   , Fs2 
	.byte	W12
	.byte		        Bn1 
	.byte		N11   , Fs2 
	.byte	W12
	.byte		N23   , Cn2 
	.byte		N23   , Gn2 
	.byte	W12
	.byte	PEND
@ 184   ----------------------------------------
	.byte	W12
	.byte		N11   , Cn2 
	.byte	W12
	.byte		N11   
	.byte	W12
	.byte		N11   
	.byte	W12
	.byte		N11   
	.byte	W12
	.byte		N11   
	.byte	W12
	.byte		N11   
	.byte	W12
	.byte		N11   
	.byte	W12
@ 185   ----------------------------------------
	.byte	PATT
	 .word	TTSG_3_110
@ 186   ----------------------------------------
	.byte	PATT
	 .word	TTSG_3_111
@ 187   ----------------------------------------
	.byte	PATT
	 .word	TTSG_3_104
@ 188   ----------------------------------------
	.byte	PATT
	 .word	TTSG_3_172
@ 189   ----------------------------------------
	.byte	PATT
	 .word	TTSG_3_181
@ 190   ----------------------------------------
	.byte	PATT
	 .word	TTSG_3_178
@ 191   ----------------------------------------
	.byte	PATT
	 .word	TTSG_3_183
@ 192   ----------------------------------------
	.byte	PATT
	 .word	TTSG_3_166
@ 193   ----------------------------------------
	.byte		N11   , Cn2 , v127
	.byte		N11   , Gn2 
	.byte	W12
	.byte		        Cn2 
	.byte		N11   , Gn2 
	.byte	W12
	.byte		        Cn2 
	.byte		N11   , Gn2 
	.byte	W12
	.byte		        Cn2 
	.byte		N11   , Gn2 
	.byte	W12
	.byte		        Cn2 
	.byte		N11   , Gn2 
	.byte	W12
	.byte		        Cn2 
	.byte		N11   , Gn2 
	.byte	W12
	.byte		        Cn2 
	.byte		N11   , Gn2 
	.byte	W12
	.byte		N23   , Dn2 
	.byte		N23   , An2 
	.byte	W12
@ 194   ----------------------------------------
	.byte	PATT
	 .word	TTSG_3_160
@ 195   ----------------------------------------
	.byte		N11   , Dn2 , v127
	.byte		N11   , An2 
	.byte	W12
	.byte		        Dn2 
	.byte		N11   , An2 
	.byte	W12
	.byte		        Dn2 
	.byte		N11   , An2 
	.byte	W12
	.byte		        Dn2 
	.byte		N11   , An2 
	.byte	W12
	.byte		        Dn2 
	.byte		N11   , An2 
	.byte	W12
	.byte		        Dn2 
	.byte		N11   , An2 
	.byte	W12
	.byte		        Dn2 
	.byte		N11   , An2 
	.byte	W24
@ 196   ----------------------------------------
	.byte	W96
@ 197   ----------------------------------------
	.byte	FINE

@**************** Track 4 (Midi-Chn.4) ****************@

TTSG_4:
	.byte	KEYSH , TTSG_key+0
@ 000   ----------------------------------------
	.byte		VOICE , 29
	.byte		VOL   , 80*TTSG_mvl/mxv
	.byte		PAN   , c_v+0
	.byte	W48
@ 001   ----------------------------------------
	.byte	W96
@ 002   ----------------------------------------
	.byte	W96
@ 003   ----------------------------------------
	.byte	W96
@ 004   ----------------------------------------
	.byte	W96
@ 005   ----------------------------------------
	.byte	W96
@ 006   ----------------------------------------
	.byte	W96
@ 007   ----------------------------------------
	.byte	W96
@ 008   ----------------------------------------
	.byte	W96
@ 009   ----------------------------------------
	.byte	W96
@ 010   ----------------------------------------
	.byte	W96
@ 011   ----------------------------------------
	.byte	W96
@ 012   ----------------------------------------
	.byte	W96
@ 013   ----------------------------------------
	.byte	W96
@ 014   ----------------------------------------
	.byte	W96
@ 015   ----------------------------------------
	.byte	W96
@ 016   ----------------------------------------
TTSG_4_016:
	.byte	W84
	.byte		N23   , Gn2 , v096
	.byte		N23   , Dn3 
	.byte	W12
	.byte	PEND
@ 017   ----------------------------------------
TTSG_4_017:
	.byte	W12
	.byte		N11   , Gn2 , v096
	.byte		N11   , Dn3 
	.byte	W12
	.byte		        Gn2 
	.byte		N11   , Dn3 
	.byte	W12
	.byte		        Gn2 
	.byte		N11   , Dn3 
	.byte	W12
	.byte		        Gn2 
	.byte		N11   , Dn3 
	.byte	W12
	.byte		        Gn2 
	.byte		N11   , Dn3 
	.byte	W12
	.byte		        Gn2 
	.byte		N11   , Dn3 
	.byte	W12
	.byte		        Gn2 
	.byte		N11   , Dn3 
	.byte	W12
	.byte	PEND
@ 018   ----------------------------------------
TTSG_4_018:
	.byte		N11   , Gn2 , v096
	.byte		N11   , Dn3 
	.byte	W12
	.byte		        Gn2 
	.byte		N11   , Dn3 
	.byte	W12
	.byte		        Gn2 
	.byte		N11   , Dn3 
	.byte	W12
	.byte		        Gn2 
	.byte		N11   , Dn3 
	.byte	W12
	.byte		        Gn2 
	.byte		N11   , Dn3 
	.byte	W12
	.byte		        Gn2 
	.byte		N11   , Dn3 
	.byte	W12
	.byte		        Gn2 
	.byte		N11   , Dn3 
	.byte	W12
	.byte		N23   , Fn2 
	.byte		N23   , Cn3 
	.byte	W12
	.byte	PEND
@ 019   ----------------------------------------
TTSG_4_019:
	.byte	W12
	.byte		N11   , Fn2 , v096
	.byte		N11   , Cn3 
	.byte	W12
	.byte		        Fn2 
	.byte		N11   , Cn3 
	.byte	W12
	.byte		        Fn2 
	.byte		N11   , Cn3 
	.byte	W12
	.byte		        Fn2 
	.byte		N11   , Cn3 
	.byte	W12
	.byte		        Fn2 
	.byte		N11   , Cn3 
	.byte	W12
	.byte		        Fn2 
	.byte		N11   , Cn3 
	.byte	W12
	.byte		        Fn2 
	.byte		N11   , Cn3 
	.byte	W12
	.byte	PEND
@ 020   ----------------------------------------
TTSG_4_020:
	.byte		N11   , Fn2 , v096
	.byte		N11   , Cn3 
	.byte	W12
	.byte		        Fn2 
	.byte		N11   , Cn3 
	.byte	W12
	.byte		        Fn2 
	.byte		N11   , Cn3 
	.byte	W12
	.byte		        Fn2 
	.byte		N11   , Cn3 
	.byte	W12
	.byte		        Fn2 
	.byte		N11   , Cn3 
	.byte	W12
	.byte		        Fn2 
	.byte		N11   , Cn3 
	.byte	W12
	.byte		        Fn2 
	.byte		N11   , Cn3 
	.byte	W12
	.byte		N23   , Ds2 
	.byte		N23   , As2 
	.byte	W12
	.byte	PEND
@ 021   ----------------------------------------
TTSG_4_021:
	.byte	W12
	.byte		N11   , Ds2 , v096
	.byte		N11   , As2 
	.byte	W12
	.byte		        Ds2 
	.byte		N11   , As2 
	.byte	W12
	.byte		        Ds2 
	.byte		N11   , As2 
	.byte	W12
	.byte		        Ds2 
	.byte		N11   , As2 
	.byte	W12
	.byte		        Ds2 
	.byte		N11   , As2 
	.byte	W12
	.byte		        Ds2 
	.byte		N11   , As2 
	.byte	W12
	.byte		        Ds2 
	.byte		N11   , As2 
	.byte	W12
	.byte	PEND
@ 022   ----------------------------------------
TTSG_4_022:
	.byte		N11   , Ds2 , v096
	.byte		N11   , As2 
	.byte	W12
	.byte		        Ds2 
	.byte		N11   , As2 
	.byte	W12
	.byte		        Ds2 
	.byte		N11   , As2 
	.byte	W12
	.byte		        Ds2 
	.byte		N11   , As2 
	.byte	W12
	.byte		        Ds2 
	.byte		N11   , As2 
	.byte	W12
	.byte		        Ds2 
	.byte		N11   , As2 
	.byte	W12
	.byte		        Ds2 
	.byte		N11   , As2 
	.byte	W12
	.byte		N23   , Fn3 
	.byte		N23   , An3 
	.byte	W12
	.byte	PEND
@ 023   ----------------------------------------
TTSG_4_023:
	.byte	W12
	.byte		N11   , Fn3 , v096
	.byte		N11   , An3 
	.byte	W12
	.byte		        Fn3 
	.byte		N11   , An3 
	.byte	W12
	.byte		        Fn3 
	.byte		N11   , An3 
	.byte	W12
	.byte		        Fn3 
	.byte		N11   , An3 
	.byte	W12
	.byte		        Fn3 
	.byte		N11   , An3 
	.byte	W12
	.byte		        Fn3 
	.byte		N11   , An3 
	.byte	W12
	.byte		        Fn3 
	.byte		N11   , An3 
	.byte	W12
	.byte	PEND
@ 024   ----------------------------------------
TTSG_4_024:
	.byte		N11   , Fn3 , v096
	.byte		N11   , An3 
	.byte	W12
	.byte		        Fn3 
	.byte		N11   , An3 
	.byte	W12
	.byte		        Fn3 
	.byte		N11   , An3 
	.byte	W12
	.byte		        Fn3 
	.byte		N11   , An3 
	.byte	W12
	.byte		        Fn3 
	.byte		N11   , An3 
	.byte	W12
	.byte		        Fn3 
	.byte		N11   , An3 
	.byte	W12
	.byte		        Fn3 
	.byte		N11   , An3 
	.byte	W12
	.byte		N23   , Cn3 
	.byte		N23   , Gn3 
	.byte	W12
	.byte	PEND
@ 025   ----------------------------------------
TTSG_4_025:
	.byte	W12
	.byte		N11   , Cn3 , v096
	.byte		N11   , Gn3 
	.byte	W12
	.byte		        Cn3 
	.byte		N11   , Gn3 
	.byte	W12
	.byte		        Cn3 
	.byte		N11   , Gn3 
	.byte	W12
	.byte		        Cn3 
	.byte		N11   , Gn3 
	.byte	W12
	.byte		        Cn3 
	.byte		N11   , Gn3 
	.byte	W12
	.byte		        Cn3 
	.byte		N11   , Gn3 
	.byte	W12
	.byte		        Cn3 
	.byte		N11   , Gn3 
	.byte	W12
	.byte	PEND
@ 026   ----------------------------------------
TTSG_4_026:
	.byte		N11   , Cn3 , v096
	.byte		N11   , Gn3 
	.byte	W12
	.byte		        Cn3 
	.byte		N11   , Gn3 
	.byte	W12
	.byte		        Cn3 
	.byte		N11   , Gn3 
	.byte	W12
	.byte		        Cn3 
	.byte		N11   , Gn3 
	.byte	W12
	.byte		        Cn3 
	.byte		N11   , Gn3 
	.byte	W12
	.byte		        Cn3 
	.byte		N11   , Gn3 
	.byte	W12
	.byte		        Cn3 
	.byte		N11   , Gn3 
	.byte	W12
	.byte		N23   , Bn2 
	.byte		N23   , Fs3 
	.byte	W12
	.byte	PEND
@ 027   ----------------------------------------
TTSG_4_027:
	.byte	W12
	.byte		N11   , Bn2 , v096
	.byte		N11   , Fs3 
	.byte	W12
	.byte		        Bn2 
	.byte		N11   , Fs3 
	.byte	W12
	.byte		        Bn2 
	.byte		N11   , Fs3 
	.byte	W12
	.byte		        Bn2 
	.byte		N11   , Fs3 
	.byte	W12
	.byte		        Bn2 
	.byte		N11   , Fs3 
	.byte	W12
	.byte		        Bn2 
	.byte		N11   , Fs3 
	.byte	W12
	.byte		        Bn2 
	.byte		N11   , Fs3 
	.byte	W12
	.byte	PEND
@ 028   ----------------------------------------
TTSG_4_028:
	.byte		N11   , Bn2 , v096
	.byte		N11   , Fs3 
	.byte	W12
	.byte		        Bn2 
	.byte		N11   , Fs3 
	.byte	W12
	.byte		        Bn2 
	.byte		N11   , Fs3 
	.byte	W12
	.byte		        Bn2 
	.byte		N11   , Fs3 
	.byte	W12
	.byte		        Bn2 
	.byte		N11   , Fs3 
	.byte	W12
	.byte		        Bn2 
	.byte		N11   , Fs3 
	.byte	W12
	.byte		        Bn2 
	.byte		N11   , Fs3 
	.byte	W12
	.byte		N23   , Cn3 
	.byte		N23   , Gn3 
	.byte	W12
	.byte	PEND
@ 029   ----------------------------------------
TTSG_4_029:
	.byte	W12
	.byte		N11   , Cn3 , v096
	.byte		N11   , Gn3 
	.byte	W12
	.byte		        Cn3 
	.byte		N11   , Gn3 
	.byte	W12
	.byte		        Cn3 
	.byte		N11   , Gn3 
	.byte	W12
	.byte		        Cn3 
	.byte		N11   , Gn3 
	.byte	W12
	.byte		        Cn3 
	.byte		N11   , Gn3 
	.byte	W12
	.byte		        Cn3 
	.byte		N11   , Gn3 
	.byte	W12
	.byte		N92   , Ds3 
	.byte		N92   , As3 
	.byte	W12
	.byte	PEND
@ 030   ----------------------------------------
TTSG_4_030:
	.byte	W84
	.byte		N92   , Dn3 , v096
	.byte		N92   , An3 
	.byte	W12
	.byte	PEND
@ 031   ----------------------------------------
TTSG_4_031:
	.byte	W84
	.byte		N92   , Gn3 , v096
	.byte		N92   , Cn4 
	.byte	W12
	.byte	PEND
@ 032   ----------------------------------------
TTSG_4_032:
	.byte	W84
	.byte		N92   , An2 , v096
	.byte		N92   , Gn3 
	.byte	W12
	.byte	PEND
@ 033   ----------------------------------------
	.byte	PATT
	 .word	TTSG_4_032
@ 034   ----------------------------------------
TTSG_4_034:
	.byte	W84
	.byte		N23   , En2 , v096
	.byte		N23   , Bn2 
	.byte	W12
	.byte	PEND
@ 035   ----------------------------------------
TTSG_4_035:
	.byte	W12
	.byte		N11   , En2 , v096
	.byte		N11   , Bn2 
	.byte	W12
	.byte		        En2 
	.byte		N11   , Bn2 
	.byte	W12
	.byte		        En2 
	.byte		N11   , Bn2 
	.byte	W12
	.byte		        En2 
	.byte		N11   , Bn2 
	.byte	W12
	.byte		        En2 
	.byte		N11   , Bn2 
	.byte	W12
	.byte		        En2 
	.byte		N11   , Bn2 
	.byte	W12
	.byte		        En2 
	.byte		N11   , Bn2 
	.byte	W12
	.byte	PEND
@ 036   ----------------------------------------
TTSG_4_036:
	.byte		N11   , En2 , v096
	.byte		N11   , Bn2 
	.byte	W12
	.byte		        En2 
	.byte		N11   , Bn2 
	.byte	W12
	.byte		        En2 
	.byte		N11   , Bn2 
	.byte	W12
	.byte		        En2 
	.byte		N11   , Bn2 
	.byte	W12
	.byte		        En2 
	.byte		N11   , Bn2 
	.byte	W12
	.byte		        En2 
	.byte		N11   , Bn2 
	.byte	W12
	.byte		        En2 
	.byte		N11   , Bn2 
	.byte	W12
	.byte		N23   , Bn1 
	.byte		N23   , Fs2 
	.byte	W12
	.byte	PEND
@ 037   ----------------------------------------
TTSG_4_037:
	.byte	W12
	.byte		N11   , Bn1 , v096
	.byte		N11   , Fs2 
	.byte	W12
	.byte		        Bn1 
	.byte		N11   , Fs2 
	.byte	W12
	.byte		        Bn1 
	.byte		N11   , Fs2 
	.byte	W12
	.byte		        Bn1 
	.byte		N11   , Fs2 
	.byte	W12
	.byte		        Bn1 
	.byte		N11   , Fs2 
	.byte	W12
	.byte		        Bn1 
	.byte		N11   , Fs2 
	.byte	W12
	.byte		        Bn1 
	.byte		N11   , Fs2 
	.byte	W12
	.byte	PEND
@ 038   ----------------------------------------
TTSG_4_038:
	.byte		N11   , Bn1 , v096
	.byte		N11   , Fs2 
	.byte	W12
	.byte		        Bn1 
	.byte		N11   , Fs2 
	.byte	W12
	.byte		        Bn1 
	.byte		N11   , Fs2 
	.byte	W12
	.byte		        Bn1 
	.byte		N11   , Fs2 
	.byte	W12
	.byte		        Bn1 
	.byte		N11   , Fs2 
	.byte	W12
	.byte		        Bn1 
	.byte		N11   , Fs2 
	.byte	W12
	.byte		        Bn1 
	.byte		N11   , Fs2 
	.byte	W12
	.byte		N23   , Cn2 
	.byte		N23   , Gn2 
	.byte	W12
	.byte	PEND
@ 039   ----------------------------------------
TTSG_4_039:
	.byte	W12
	.byte		N11   , Cn2 , v096
	.byte		N11   , Gn2 
	.byte	W12
	.byte		        Cn2 
	.byte		N11   , Gn2 
	.byte	W12
	.byte		        Cn2 
	.byte		N11   , Gn2 
	.byte	W12
	.byte		        Cn2 
	.byte		N11   , Gn2 
	.byte	W12
	.byte		        Cn2 
	.byte		N11   , Gn2 
	.byte	W12
	.byte		        Cn2 
	.byte		N11   , Gn2 
	.byte	W12
	.byte		        Cn2 
	.byte		N11   , Gn2 
	.byte	W12
	.byte	PEND
@ 040   ----------------------------------------
TTSG_4_040:
	.byte		N11   , Cn2 , v096
	.byte		N11   , Gn2 
	.byte	W12
	.byte		        Cn2 
	.byte		N11   , Gn2 
	.byte	W12
	.byte		        Cn2 
	.byte		N11   , Gn2 
	.byte	W12
	.byte		        Cn2 
	.byte		N11   , Gn2 
	.byte	W12
	.byte		        Cn2 
	.byte		N11   , Gn2 
	.byte	W12
	.byte		        Cn2 
	.byte		N11   , Gn2 
	.byte	W12
	.byte		        Cn2 
	.byte		N11   , Gn2 
	.byte	W12
	.byte		N23   , Dn2 
	.byte		N23   , An2 
	.byte	W12
	.byte	PEND
@ 041   ----------------------------------------
TTSG_4_041:
	.byte	W12
	.byte		N11   , Dn2 , v096
	.byte		N11   , An2 
	.byte	W12
	.byte		        Dn2 
	.byte		N11   , An2 
	.byte	W12
	.byte		        Dn2 
	.byte		N11   , An2 
	.byte	W12
	.byte		        Dn2 
	.byte		N11   , An2 
	.byte	W12
	.byte		        Dn2 
	.byte		N11   , An2 
	.byte	W12
	.byte		        Dn2 
	.byte		N11   , An2 
	.byte	W12
	.byte		        Ds2 
	.byte		N11   , Bn2 
	.byte	W12
	.byte	PEND
@ 042   ----------------------------------------
TTSG_4_042:
	.byte		N11   , Ds2 , v096
	.byte		N11   , Bn2 
	.byte	W12
	.byte		        Ds2 
	.byte		N11   , Bn2 
	.byte	W12
	.byte		        Ds2 
	.byte		N11   , Bn2 
	.byte	W12
	.byte		        Ds2 
	.byte		N11   , Bn2 
	.byte	W12
	.byte		        Ds2 
	.byte		N11   , Bn2 
	.byte	W12
	.byte		        Ds2 
	.byte		N11   , Bn2 
	.byte	W12
	.byte		        Ds2 
	.byte		N11   , Bn2 
	.byte	W12
	.byte		N23   , En2 
	.byte		N23   , Bn2 
	.byte	W12
	.byte	PEND
@ 043   ----------------------------------------
	.byte	PATT
	 .word	TTSG_4_035
@ 044   ----------------------------------------
	.byte	PATT
	 .word	TTSG_4_036
@ 045   ----------------------------------------
	.byte	PATT
	 .word	TTSG_4_037
@ 046   ----------------------------------------
	.byte		N11   , Bn1 , v096
	.byte		N11   , Fs2 
	.byte	W12
	.byte		        Bn1 
	.byte		N11   , Fs2 
	.byte	W12
	.byte		        Bn1 
	.byte		N11   , Fs2 
	.byte	W12
	.byte		        Bn1 
	.byte		N11   , Fs2 
	.byte	W12
	.byte		        Bn1 
	.byte		N11   , Fs2 
	.byte	W12
	.byte		        Bn1 
	.byte		N11   , Fs2 
	.byte	W12
	.byte		        Bn1 
	.byte		N11   , Fs2 
	.byte	W12
	.byte		TIE   , En2 
	.byte		TIE   , Bn2 
	.byte	W12
@ 047   ----------------------------------------
	.byte	W96
@ 048   ----------------------------------------
	.byte	W80
	.byte	W03
	.byte		EOT   , En2 
	.byte		        Bn2 
	.byte	W01
	.byte		TIE   , Dn2 
	.byte		TIE   , An2 
	.byte	W12
@ 049   ----------------------------------------
	.byte	W96
@ 050   ----------------------------------------
	.byte	W68
	.byte	W03
	.byte		EOT   , Dn2 
	.byte		        An2 
	.byte	W24
	.byte	W01
@ 051   ----------------------------------------
	.byte	W96
@ 052   ----------------------------------------
	.byte	W96
@ 053   ----------------------------------------
	.byte	W96
@ 054   ----------------------------------------
	.byte	W96
@ 055   ----------------------------------------
	.byte	W96
@ 056   ----------------------------------------
	.byte	W96
@ 057   ----------------------------------------
	.byte	W96
@ 058   ----------------------------------------
	.byte	W96
@ 059   ----------------------------------------
	.byte	W96
@ 060   ----------------------------------------
	.byte	W96
@ 061   ----------------------------------------
	.byte	W96
@ 062   ----------------------------------------
	.byte	W96
@ 063   ----------------------------------------
	.byte	W96
@ 064   ----------------------------------------
	.byte	W96
@ 065   ----------------------------------------
	.byte	W96
@ 066   ----------------------------------------
	.byte	W96
@ 067   ----------------------------------------
	.byte	W96
@ 068   ----------------------------------------
	.byte	W96
@ 069   ----------------------------------------
	.byte	W96
@ 070   ----------------------------------------
	.byte	W84
	.byte		N32   , Gn1 
	.byte		N32   , Dn2 
	.byte	W12
@ 071   ----------------------------------------
	.byte	W96
@ 072   ----------------------------------------
	.byte	W84
	.byte		        Gn2 
	.byte		N32   , Dn3 
	.byte	W12
@ 073   ----------------------------------------
	.byte	W96
@ 074   ----------------------------------------
	.byte	PATT
	 .word	TTSG_4_016
@ 075   ----------------------------------------
	.byte	PATT
	 .word	TTSG_4_017
@ 076   ----------------------------------------
	.byte		N11   , Gn2 , v096
	.byte		N11   , Dn3 
	.byte	W12
	.byte		        Gn2 
	.byte		N11   , Dn3 
	.byte	W12
	.byte		        Gn2 
	.byte		N11   , Dn3 
	.byte	W12
	.byte		        Gn2 
	.byte		N11   , Dn3 
	.byte	W12
	.byte		        Gn2 
	.byte		N11   , Dn3 
	.byte	W12
	.byte		        Gn2 
	.byte		N11   , Dn3 
	.byte	W12
	.byte		        Gn2 
	.byte		N11   , Dn3 
	.byte	W12
	.byte		        Fn2 
	.byte	W12
@ 077   ----------------------------------------
	.byte		        Gn2 
	.byte	W12
	.byte		        Fn2 
	.byte	W12
	.byte		        Ds2 
	.byte	W12
	.byte		        Dn2 
	.byte	W12
	.byte		        Cn2 
	.byte	W12
	.byte		        Dn2 
	.byte	W12
	.byte		        Ds2 
	.byte	W12
	.byte		        Fn2 
	.byte	W12
@ 078   ----------------------------------------
	.byte		        Gn2 
	.byte	W12
	.byte		        An2 
	.byte	W12
	.byte		        As2 
	.byte	W12
	.byte		        Cn3 
	.byte	W12
	.byte		        Dn3 
	.byte	W12
	.byte		        Ds3 
	.byte	W12
	.byte		        Fn3 
	.byte	W12
	.byte		N56   , Gn3 
	.byte	W12
@ 079   ----------------------------------------
	.byte	W96
@ 080   ----------------------------------------
	.byte	W84
	.byte		        An3 
	.byte	W12
@ 081   ----------------------------------------
	.byte	W96
@ 082   ----------------------------------------
	.byte	PATT
	 .word	TTSG_4_016
@ 083   ----------------------------------------
	.byte	PATT
	 .word	TTSG_4_017
@ 084   ----------------------------------------
	.byte		N11   , Gn2 , v096
	.byte		N11   , Dn3 
	.byte	W12
	.byte		        Gn2 
	.byte		N11   , Dn3 
	.byte	W12
	.byte		        Gn2 
	.byte		N11   , Dn3 
	.byte	W12
	.byte		        Gn2 
	.byte		N11   , Dn3 
	.byte	W12
	.byte		        Gn2 
	.byte		N11   , Dn3 
	.byte	W12
	.byte		        Gn2 
	.byte		N11   , Dn3 
	.byte	W12
	.byte		        Gn2 
	.byte		N11   , Dn3 
	.byte	W24
@ 085   ----------------------------------------
	.byte	W96
@ 086   ----------------------------------------
	.byte	PATT
	 .word	TTSG_4_016
@ 087   ----------------------------------------
	.byte	PATT
	 .word	TTSG_4_017
@ 088   ----------------------------------------
	.byte	PATT
	 .word	TTSG_4_018
@ 089   ----------------------------------------
	.byte	PATT
	 .word	TTSG_4_019
@ 090   ----------------------------------------
	.byte	PATT
	 .word	TTSG_4_020
@ 091   ----------------------------------------
	.byte	PATT
	 .word	TTSG_4_021
@ 092   ----------------------------------------
	.byte	PATT
	 .word	TTSG_4_022
@ 093   ----------------------------------------
	.byte	PATT
	 .word	TTSG_4_023
@ 094   ----------------------------------------
	.byte	PATT
	 .word	TTSG_4_024
@ 095   ----------------------------------------
	.byte	PATT
	 .word	TTSG_4_025
@ 096   ----------------------------------------
	.byte	PATT
	 .word	TTSG_4_026
@ 097   ----------------------------------------
	.byte	PATT
	 .word	TTSG_4_027
@ 098   ----------------------------------------
	.byte	PATT
	 .word	TTSG_4_028
@ 099   ----------------------------------------
	.byte	PATT
	 .word	TTSG_4_029
@ 100   ----------------------------------------
	.byte	PATT
	 .word	TTSG_4_030
@ 101   ----------------------------------------
	.byte	PATT
	 .word	TTSG_4_031
@ 102   ----------------------------------------
	.byte	W84
	.byte		TIE   , An2 , v096
	.byte		TIE   , Gn3 
	.byte	W12
@ 103   ----------------------------------------
	.byte	W96
@ 104   ----------------------------------------
	.byte	W80
	.byte	W03
	.byte		EOT   , An2 
	.byte		        Gn3 
	.byte	W01
	.byte		N23   , En2 
	.byte		N23   , Bn2 
	.byte	W12
@ 105   ----------------------------------------
	.byte	PATT
	 .word	TTSG_4_035
@ 106   ----------------------------------------
	.byte	PATT
	 .word	TTSG_4_036
@ 107   ----------------------------------------
	.byte	PATT
	 .word	TTSG_4_037
@ 108   ----------------------------------------
	.byte	PATT
	 .word	TTSG_4_038
@ 109   ----------------------------------------
	.byte	PATT
	 .word	TTSG_4_039
@ 110   ----------------------------------------
	.byte	PATT
	 .word	TTSG_4_040
@ 111   ----------------------------------------
	.byte	PATT
	 .word	TTSG_4_041
@ 112   ----------------------------------------
	.byte	PATT
	 .word	TTSG_4_042
@ 113   ----------------------------------------
	.byte	PATT
	 .word	TTSG_4_035
@ 114   ----------------------------------------
	.byte	PATT
	 .word	TTSG_4_036
@ 115   ----------------------------------------
	.byte	PATT
	 .word	TTSG_4_037
@ 116   ----------------------------------------
TTSG_4_116:
	.byte		N11   , Bn1 , v096
	.byte		N11   , Fs2 
	.byte	W12
	.byte		        Bn1 
	.byte		N11   , Fs2 
	.byte	W12
	.byte		        Bn1 
	.byte		N11   , Fs2 
	.byte	W12
	.byte		        Bn1 
	.byte		N11   , Fs2 
	.byte	W12
	.byte		        Bn1 
	.byte		N11   , Fs2 
	.byte	W12
	.byte		        Bn1 
	.byte		N11   , Fs2 
	.byte	W12
	.byte		        Bn1 
	.byte		N11   , Fs2 
	.byte	W12
	.byte		TIE   , Cn2 
	.byte		TIE   , Gn2 
	.byte	W12
	.byte	PEND
@ 117   ----------------------------------------
	.byte	W96
@ 118   ----------------------------------------
	.byte	W80
	.byte	W03
	.byte		EOT   , Cn2 
	.byte		        Gn2 
	.byte	W01
	.byte		TIE   , Dn2 
	.byte		TIE   , An2 
	.byte	W12
@ 119   ----------------------------------------
	.byte	W96
@ 120   ----------------------------------------
	.byte	W68
	.byte	W03
	.byte		EOT   , Dn2 
	.byte		        An2 
	.byte	W24
	.byte	W01
@ 121   ----------------------------------------
	.byte	W96
@ 122   ----------------------------------------
	.byte	W96
@ 123   ----------------------------------------
	.byte	W96
@ 124   ----------------------------------------
	.byte	W96
@ 125   ----------------------------------------
	.byte	W96
@ 126   ----------------------------------------
	.byte	W96
@ 127   ----------------------------------------
	.byte	W96
@ 128   ----------------------------------------
	.byte	W96
@ 129   ----------------------------------------
	.byte	W96
@ 130   ----------------------------------------
	.byte	W96
@ 131   ----------------------------------------
	.byte	W96
@ 132   ----------------------------------------
	.byte	W96
@ 133   ----------------------------------------
	.byte	W96
@ 134   ----------------------------------------
	.byte	W96
@ 135   ----------------------------------------
	.byte	W96
@ 136   ----------------------------------------
	.byte	W96
@ 137   ----------------------------------------
	.byte	W96
@ 138   ----------------------------------------
	.byte	W96
@ 139   ----------------------------------------
	.byte	W96
@ 140   ----------------------------------------
	.byte	W96
@ 141   ----------------------------------------
	.byte	W96
@ 142   ----------------------------------------
	.byte	W96
@ 143   ----------------------------------------
	.byte	W96
@ 144   ----------------------------------------
	.byte	W96
@ 145   ----------------------------------------
	.byte	W96
@ 146   ----------------------------------------
	.byte	W96
@ 147   ----------------------------------------
	.byte	W96
@ 148   ----------------------------------------
	.byte	W96
@ 149   ----------------------------------------
	.byte	W96
@ 150   ----------------------------------------
	.byte	W96
@ 151   ----------------------------------------
	.byte	W96
@ 152   ----------------------------------------
	.byte	W96
@ 153   ----------------------------------------
	.byte	W96
@ 154   ----------------------------------------
	.byte	W96
@ 155   ----------------------------------------
	.byte	W96
@ 156   ----------------------------------------
	.byte	W96
@ 157   ----------------------------------------
	.byte	PATT
	 .word	TTSG_4_016
@ 158   ----------------------------------------
	.byte	PATT
	 .word	TTSG_4_017
@ 159   ----------------------------------------
	.byte	PATT
	 .word	TTSG_4_018
@ 160   ----------------------------------------
	.byte	PATT
	 .word	TTSG_4_019
@ 161   ----------------------------------------
	.byte		N11   , Fn2 , v096
	.byte		N11   , Cn3 
	.byte	W12
	.byte		        Fn2 
	.byte		N11   , Cn3 
	.byte	W12
	.byte		        Fn2 
	.byte		N11   , Cn3 
	.byte	W12
	.byte		        Fn2 
	.byte		N11   , Cn3 
	.byte	W12
	.byte		        Fn2 
	.byte		N11   , Cn3 
	.byte	W12
	.byte		        Fn2 
	.byte		N11   , Cn3 
	.byte	W12
	.byte		        Fn2 
	.byte		N11   , Cn3 
	.byte	W12
	.byte		N23   , Gn2 
	.byte		N23   , Dn3 
	.byte	W12
@ 162   ----------------------------------------
	.byte	PATT
	 .word	TTSG_4_017
@ 163   ----------------------------------------
	.byte	PATT
	 .word	TTSG_4_018
@ 164   ----------------------------------------
	.byte	PATT
	 .word	TTSG_4_019
@ 165   ----------------------------------------
	.byte	PATT
	 .word	TTSG_4_020
@ 166   ----------------------------------------
	.byte	PATT
	 .word	TTSG_4_021
@ 167   ----------------------------------------
	.byte	PATT
	 .word	TTSG_4_022
@ 168   ----------------------------------------
	.byte	PATT
	 .word	TTSG_4_023
@ 169   ----------------------------------------
	.byte	PATT
	 .word	TTSG_4_024
@ 170   ----------------------------------------
	.byte	PATT
	 .word	TTSG_4_025
@ 171   ----------------------------------------
	.byte	PATT
	 .word	TTSG_4_026
@ 172   ----------------------------------------
	.byte	PATT
	 .word	TTSG_4_027
@ 173   ----------------------------------------
	.byte	PATT
	 .word	TTSG_4_028
@ 174   ----------------------------------------
	.byte	PATT
	 .word	TTSG_4_025
@ 175   ----------------------------------------
	.byte		N11   , Cn3 , v096
	.byte		N11   , Gn3 
	.byte	W12
	.byte		        Cn3 
	.byte		N11   , Gn3 
	.byte	W12
	.byte		        Cn3 
	.byte		N11   , Gn3 
	.byte	W12
	.byte		        Cn3 
	.byte		N11   , Gn3 
	.byte	W12
	.byte		        Cn3 
	.byte		N11   , Gn3 
	.byte	W12
	.byte		        Cn3 
	.byte		N11   , Gn3 
	.byte	W12
	.byte		        Cn3 
	.byte		N11   , Gn3 
	.byte	W12
	.byte		N92   , Ds3 
	.byte		N92   , As3 
	.byte	W12
@ 176   ----------------------------------------
	.byte	PATT
	 .word	TTSG_4_030
@ 177   ----------------------------------------
	.byte	PATT
	 .word	TTSG_4_031
@ 178   ----------------------------------------
	.byte	PATT
	 .word	TTSG_4_032
@ 179   ----------------------------------------
	.byte	PATT
	 .word	TTSG_4_034
@ 180   ----------------------------------------
	.byte	PATT
	 .word	TTSG_4_035
@ 181   ----------------------------------------
	.byte	PATT
	 .word	TTSG_4_036
@ 182   ----------------------------------------
	.byte	PATT
	 .word	TTSG_4_037
@ 183   ----------------------------------------
	.byte	PATT
	 .word	TTSG_4_038
@ 184   ----------------------------------------
	.byte	PATT
	 .word	TTSG_4_039
@ 185   ----------------------------------------
	.byte	PATT
	 .word	TTSG_4_040
@ 186   ----------------------------------------
	.byte	PATT
	 .word	TTSG_4_041
@ 187   ----------------------------------------
	.byte	PATT
	 .word	TTSG_4_042
@ 188   ----------------------------------------
	.byte	PATT
	 .word	TTSG_4_035
@ 189   ----------------------------------------
	.byte	PATT
	 .word	TTSG_4_036
@ 190   ----------------------------------------
	.byte	PATT
	 .word	TTSG_4_037
@ 191   ----------------------------------------
	.byte	PATT
	 .word	TTSG_4_116
@ 192   ----------------------------------------
	.byte	W96
@ 193   ----------------------------------------
	.byte	W80
	.byte	W03
	.byte		EOT   , Cn2 
	.byte		        Gn2 
	.byte	W01
	.byte		TIE   , Dn2 , v096
	.byte		TIE   , An2 
	.byte	W12
@ 194   ----------------------------------------
	.byte	W96
@ 195   ----------------------------------------
	.byte	W68
	.byte	W03
	.byte		EOT   , Dn2 
	.byte		        An2 
	.byte	W24
	.byte	W01
@ 196   ----------------------------------------
	.byte	W96
@ 197   ----------------------------------------
	.byte	FINE

@**************** Track 5 (Midi-Chn.5) ****************@

TTSG_5:
	.byte	KEYSH , TTSG_key+0
@ 000   ----------------------------------------
	.byte		VOICE , 30
	.byte		VOL   , 85*TTSG_mvl/mxv
	.byte		PAN   , c_v+0
	.byte	W48
@ 001   ----------------------------------------
	.byte	W96
@ 002   ----------------------------------------
	.byte	W96
@ 003   ----------------------------------------
	.byte	W96
@ 004   ----------------------------------------
	.byte	W96
@ 005   ----------------------------------------
	.byte	W96
@ 006   ----------------------------------------
	.byte	W96
@ 007   ----------------------------------------
	.byte	W96
@ 008   ----------------------------------------
	.byte	W96
@ 009   ----------------------------------------
	.byte	W96
@ 010   ----------------------------------------
	.byte	W96
@ 011   ----------------------------------------
	.byte	W96
@ 012   ----------------------------------------
	.byte	W96
@ 013   ----------------------------------------
	.byte	W96
@ 014   ----------------------------------------
	.byte	W96
@ 015   ----------------------------------------
	.byte	W96
@ 016   ----------------------------------------
	.byte	W96
@ 017   ----------------------------------------
	.byte	W96
@ 018   ----------------------------------------
	.byte	W96
@ 019   ----------------------------------------
	.byte	W96
@ 020   ----------------------------------------
	.byte	W96
@ 021   ----------------------------------------
	.byte	W96
@ 022   ----------------------------------------
	.byte	W96
@ 023   ----------------------------------------
	.byte	W96
@ 024   ----------------------------------------
	.byte	W96
@ 025   ----------------------------------------
	.byte	W96
@ 026   ----------------------------------------
	.byte	W96
@ 027   ----------------------------------------
	.byte	W96
@ 028   ----------------------------------------
	.byte	W96
@ 029   ----------------------------------------
	.byte	W96
@ 030   ----------------------------------------
	.byte	W96
@ 031   ----------------------------------------
	.byte	W96
@ 032   ----------------------------------------
	.byte	W96
@ 033   ----------------------------------------
	.byte	W96
@ 034   ----------------------------------------
	.byte	W96
@ 035   ----------------------------------------
	.byte	W96
@ 036   ----------------------------------------
	.byte	W96
@ 037   ----------------------------------------
	.byte	W96
@ 038   ----------------------------------------
	.byte	W96
@ 039   ----------------------------------------
	.byte	W96
@ 040   ----------------------------------------
	.byte	W96
@ 041   ----------------------------------------
	.byte	W96
@ 042   ----------------------------------------
	.byte	W96
@ 043   ----------------------------------------
	.byte	W96
@ 044   ----------------------------------------
	.byte	W96
@ 045   ----------------------------------------
	.byte	W96
@ 046   ----------------------------------------
	.byte	W96
@ 047   ----------------------------------------
	.byte	W96
@ 048   ----------------------------------------
	.byte	W96
@ 049   ----------------------------------------
	.byte	W96
@ 050   ----------------------------------------
	.byte	W96
@ 051   ----------------------------------------
	.byte	W96
@ 052   ----------------------------------------
	.byte	W96
@ 053   ----------------------------------------
	.byte	W96
@ 054   ----------------------------------------
	.byte	W96
@ 055   ----------------------------------------
	.byte	W96
@ 056   ----------------------------------------
	.byte	W96
@ 057   ----------------------------------------
	.byte	W96
@ 058   ----------------------------------------
	.byte	W96
@ 059   ----------------------------------------
	.byte	W96
@ 060   ----------------------------------------
	.byte	W96
@ 061   ----------------------------------------
	.byte	W96
@ 062   ----------------------------------------
	.byte	W96
@ 063   ----------------------------------------
	.byte	W96
@ 064   ----------------------------------------
	.byte	W96
@ 065   ----------------------------------------
	.byte	W96
@ 066   ----------------------------------------
	.byte	W96
@ 067   ----------------------------------------
	.byte	W96
@ 068   ----------------------------------------
	.byte	W96
@ 069   ----------------------------------------
	.byte	W96
@ 070   ----------------------------------------
	.byte	W96
@ 071   ----------------------------------------
	.byte	W96
@ 072   ----------------------------------------
	.byte	W96
@ 073   ----------------------------------------
	.byte	W96
@ 074   ----------------------------------------
	.byte	W96
@ 075   ----------------------------------------
	.byte	W96
@ 076   ----------------------------------------
	.byte	W96
@ 077   ----------------------------------------
	.byte	W96
@ 078   ----------------------------------------
	.byte	W96
@ 079   ----------------------------------------
	.byte	W96
@ 080   ----------------------------------------
	.byte	W96
@ 081   ----------------------------------------
	.byte	W96
@ 082   ----------------------------------------
	.byte	W96
@ 083   ----------------------------------------
	.byte	W96
@ 084   ----------------------------------------
	.byte	W84
	.byte		N11   , As2 , v127
	.byte	W12
@ 085   ----------------------------------------
	.byte		N05   , An2 
	.byte	W06
	.byte		        Gn2 
	.byte	W06
	.byte		N11   , Fn2 
	.byte	W12
	.byte		        Dn2 
	.byte	W12
	.byte		N05   , Ds2 
	.byte	W06
	.byte		N11   , Fn2 
	.byte	W12
	.byte		N05   , Gn2 
	.byte	W06
	.byte		        An2 
	.byte	W06
	.byte		N11   , As2 
	.byte	W12
	.byte		N05   , Cn3 
	.byte	W06
	.byte		N07   , Dn3 
	.byte	W08
	.byte		N03   , Ds3 
	.byte	W04
@ 086   ----------------------------------------
	.byte		N03   
	.byte	W04
	.byte		N07   , Fn3 
	.byte	W08
	.byte		N11   , Gn3 
	.byte	W12
	.byte		        An3 
	.byte	W12
	.byte		N07   , As3 
	.byte	W08
	.byte		        Cn4 
	.byte	W07
	.byte		N08   , Ds4 
	.byte	W01
	.byte		N07   , Dn4 
	.byte	W08
	.byte		TIE   , Gn4 
	.byte	W36
@ 087   ----------------------------------------
	.byte	W80
	.byte	W03
	.byte		EOT   
	.byte	W01
	.byte		N56   , Fn4 
	.byte	W12
@ 088   ----------------------------------------
	.byte	W48
	.byte		N32   
	.byte	W36
	.byte		N92   , Gn4 
	.byte	W12
@ 089   ----------------------------------------
	.byte	W84
	.byte		N56   , Fn4 
	.byte	W12
@ 090   ----------------------------------------
	.byte	W48
	.byte		N32   , Gn4 
	.byte	W36
	.byte		TIE   , Ds4 
	.byte	W12
@ 091   ----------------------------------------
	.byte	W96
@ 092   ----------------------------------------
	.byte	W44
	.byte	W03
	.byte		EOT   
	.byte	W01
	.byte		N32   , Fn4 
	.byte	W36
	.byte		N23   , Dn4 
	.byte		N23   , Fn4 
	.byte	W12
@ 093   ----------------------------------------
	.byte	W12
	.byte		N11   , Dn4 
	.byte		N11   , Fn4 
	.byte	W12
	.byte		        As3 
	.byte		N11   , Dn4 
	.byte	W12
	.byte		N11   
	.byte		N11   , Fn4 
	.byte	W12
	.byte		N23   , An3 
	.byte		N23   , Cn4 
	.byte	W24
	.byte		N11   , An3 
	.byte		N11   , Cn4 
	.byte	W12
	.byte		        As3 
	.byte		N11   , Dn4 
	.byte	W12
@ 094   ----------------------------------------
	.byte		N23   , Gn3 
	.byte		N23   , As3 
	.byte	W24
	.byte		N11   , Gn3 
	.byte		N11   , As3 
	.byte	W12
	.byte		        An3 
	.byte		N11   , Cn4 
	.byte	W12
	.byte		        Fn3 
	.byte		N11   , An3 
	.byte	W12
	.byte		        Gn3 
	.byte		N11   , As3 
	.byte	W12
	.byte		        An3 
	.byte		N11   , Cn4 
	.byte	W12
	.byte		N56   , En4 
	.byte	W12
@ 095   ----------------------------------------
	.byte	W96
@ 096   ----------------------------------------
	.byte	W96
@ 097   ----------------------------------------
	.byte	W96
@ 098   ----------------------------------------
	.byte	W96
@ 099   ----------------------------------------
	.byte	W96
@ 100   ----------------------------------------
	.byte	W96
@ 101   ----------------------------------------
TTSG_5_101:
	.byte		N23   , An3 , v127
	.byte		N23   , Dn4 
	.byte	W24
	.byte		N05   , As3 
	.byte		N05   , Ds4 
	.byte	W06
	.byte		        An3 
	.byte		N05   , Dn4 
	.byte	W06
	.byte		N11   , Gn3 
	.byte		N11   , Cn4 
	.byte	W12
	.byte		N23   , An3 
	.byte		N23   , Dn4 
	.byte	W24
	.byte		N05   , As3 
	.byte		N05   , Ds4 
	.byte	W06
	.byte		        An3 
	.byte		N05   , Dn4 
	.byte	W06
	.byte		N11   , Gn3 
	.byte		N11   , Cn4 
	.byte	W12
	.byte	PEND
@ 102   ----------------------------------------
	.byte	PATT
	 .word	TTSG_5_101
@ 103   ----------------------------------------
	.byte		N07   , Dn4 , v127
	.byte		N07   , Fs4 
	.byte	W08
	.byte		        Dn4 
	.byte		N07   , Fs4 
	.byte	W08
	.byte		        Ds4 
	.byte		N07   , Gn4 
	.byte	W08
	.byte		        Ds4 
	.byte		N07   , Gn4 
	.byte	W08
	.byte		        Dn4 
	.byte		N07   , Fs4 
	.byte	W08
	.byte		        Cn4 
	.byte		N07   , En4 
	.byte	W08
	.byte		        Dn4 
	.byte		N07   , Fs4 
	.byte	W08
	.byte		        Dn4 
	.byte		N07   , Fs4 
	.byte	W08
	.byte		        Ds4 
	.byte		N07   , Gn4 
	.byte	W08
	.byte		        Ds4 
	.byte		N07   , Gn4 
	.byte	W08
	.byte		        Dn4 
	.byte		N07   , Fs4 
	.byte	W08
	.byte		        Cn4 
	.byte		N07   , En4 
	.byte	W08
@ 104   ----------------------------------------
	.byte		        Dn4 
	.byte		N07   , Fs4 
	.byte	W08
	.byte		        Dn4 
	.byte		N07   , Fs4 
	.byte	W08
	.byte		        Ds4 
	.byte		N07   , Gn4 
	.byte	W08
	.byte		        Ds4 
	.byte		N07   , Gn4 
	.byte	W08
	.byte		        Dn4 
	.byte		N07   , Fs4 
	.byte	W08
	.byte		        Cn4 
	.byte		N07   , En4 
	.byte	W08
	.byte		N23   , Dn4 
	.byte		N23   , Fs4 
	.byte	W48
@ 105   ----------------------------------------
	.byte	W96
@ 106   ----------------------------------------
	.byte	W96
@ 107   ----------------------------------------
	.byte	W96
@ 108   ----------------------------------------
	.byte	W96
@ 109   ----------------------------------------
	.byte	W96
@ 110   ----------------------------------------
	.byte	W96
@ 111   ----------------------------------------
	.byte	W96
@ 112   ----------------------------------------
	.byte	W96
@ 113   ----------------------------------------
	.byte	W96
@ 114   ----------------------------------------
	.byte	W96
@ 115   ----------------------------------------
	.byte	W96
@ 116   ----------------------------------------
	.byte	W96
@ 117   ----------------------------------------
	.byte	W96
@ 118   ----------------------------------------
	.byte	W96
@ 119   ----------------------------------------
	.byte	W96
@ 120   ----------------------------------------
	.byte	W96
@ 121   ----------------------------------------
	.byte	W96
@ 122   ----------------------------------------
	.byte	W96
@ 123   ----------------------------------------
	.byte	W96
@ 124   ----------------------------------------
	.byte	W96
@ 125   ----------------------------------------
	.byte	W96
@ 126   ----------------------------------------
	.byte	W96
@ 127   ----------------------------------------
	.byte	W12
	.byte		N11   , Fs2 , v096
	.byte	W12
	.byte		        Gn2 
	.byte	W12
	.byte		        An2 
	.byte	W12
	.byte		        Dn3 
	.byte	W12
	.byte		        Fs3 
	.byte	W12
	.byte		        Bn2 
	.byte	W12
	.byte		        Gn3 
	.byte	W12
@ 128   ----------------------------------------
	.byte		        Fs3 
	.byte	W12
	.byte		        Dn3 
	.byte	W12
	.byte		        Bn2 
	.byte	W12
	.byte		        An3 
	.byte	W12
	.byte		        Gn3 
	.byte	W12
	.byte		        Fs3 
	.byte	W12
	.byte		        Dn3 
	.byte	W24
@ 129   ----------------------------------------
	.byte	W96
@ 130   ----------------------------------------
	.byte	W96
@ 131   ----------------------------------------
	.byte	W96
@ 132   ----------------------------------------
	.byte	W96
@ 133   ----------------------------------------
	.byte	W96
@ 134   ----------------------------------------
	.byte	W96
@ 135   ----------------------------------------
	.byte	W96
@ 136   ----------------------------------------
	.byte	W96
@ 137   ----------------------------------------
	.byte	W96
@ 138   ----------------------------------------
	.byte	W96
@ 139   ----------------------------------------
	.byte	W96
@ 140   ----------------------------------------
	.byte	W96
@ 141   ----------------------------------------
	.byte	W96
@ 142   ----------------------------------------
	.byte	W96
@ 143   ----------------------------------------
	.byte	W96
@ 144   ----------------------------------------
	.byte	W96
@ 145   ----------------------------------------
	.byte	W96
@ 146   ----------------------------------------
	.byte	W96
@ 147   ----------------------------------------
	.byte	W96
@ 148   ----------------------------------------
	.byte	W96
@ 149   ----------------------------------------
	.byte	W96
@ 150   ----------------------------------------
	.byte	W96
@ 151   ----------------------------------------
	.byte	W96
@ 152   ----------------------------------------
	.byte	W96
@ 153   ----------------------------------------
	.byte	W96
@ 154   ----------------------------------------
	.byte	W96
@ 155   ----------------------------------------
	.byte	W96
@ 156   ----------------------------------------
	.byte	W96
@ 157   ----------------------------------------
	.byte	W96
@ 158   ----------------------------------------
	.byte	W96
@ 159   ----------------------------------------
	.byte	W96
@ 160   ----------------------------------------
	.byte		N07   , Fn4 , v127
	.byte	W08
	.byte		        Ds4 
	.byte	W08
	.byte		        Dn4 
	.byte	W08
	.byte		N05   , Cn4 
	.byte	W06
	.byte		        As3 
	.byte	W06
	.byte		        An3 
	.byte	W06
	.byte		        Gn3 
	.byte	W06
	.byte		N07   , Fn3 
	.byte	W08
	.byte		        Ds3 
	.byte	W08
	.byte		        Dn3 
	.byte	W08
	.byte		        Cn3 
	.byte	W08
	.byte		        As2 
	.byte	W08
	.byte		        An2 
	.byte	W08
@ 161   ----------------------------------------
	.byte		        Gn2 
	.byte	W08
	.byte		N15   , Fn2 
	.byte	W16
	.byte		N07   , Gn2 
	.byte	W08
	.byte		        As2 
	.byte	W08
	.byte		        Gn3 
	.byte	W08
	.byte		N08   , Fn3 
	.byte	W09
	.byte		        Dn3 
	.byte	W09
	.byte		N05   , Cn4 
	.byte	W06
	.byte		        Dn4 
	.byte	W06
	.byte		        Fn4 
	.byte	W06
	.byte		N68   , An4 
	.byte	W12
@ 162   ----------------------------------------
	.byte	W60
	.byte		N23   , As4 
	.byte	W24
	.byte		N92   , Gn4 
	.byte	W12
@ 163   ----------------------------------------
	.byte	W84
	.byte		        An3 
	.byte	W12
@ 164   ----------------------------------------
	.byte	W84
	.byte		TIE   , Dn3 
	.byte	W12
@ 165   ----------------------------------------
	.byte	W92
	.byte	W03
	.byte		EOT   
	.byte	W01
@ 166   ----------------------------------------
	.byte	W12
	.byte		N05   
	.byte	W06
	.byte		        Ds3 
	.byte	W06
	.byte		N11   , Dn3 
	.byte	W12
	.byte		        Cn3 
	.byte	W12
	.byte		        As2 
	.byte	W12
	.byte		        An2 
	.byte	W12
	.byte		        As2 
	.byte	W12
	.byte		        Cn3 
	.byte	W12
@ 167   ----------------------------------------
	.byte		        Dn3 
	.byte	W12
	.byte		        Ds3 
	.byte	W12
	.byte		        Fn3 
	.byte	W12
	.byte		        Gn3 
	.byte	W12
	.byte		        An3 
	.byte	W12
	.byte		        As3 
	.byte	W12
	.byte		N07   , An3 
	.byte	W08
	.byte		N03   , Gn3 
	.byte	W04
	.byte		N07   , An3 
	.byte	W08
	.byte		N09   , As3 
	.byte	W04
@ 168   ----------------------------------------
	.byte	W06
	.byte		N05   , An3 
	.byte	W06
	.byte		        Gn3 
	.byte	W06
	.byte		N11   , An3 
	.byte	W12
	.byte		        As3 
	.byte	W12
	.byte		N05   , An3 
	.byte	W06
	.byte		        Gn3 
	.byte	W06
	.byte		N11   , Fn3 
	.byte	W12
	.byte		        Ds3 
	.byte	W12
	.byte		        Dn3 
	.byte	W12
	.byte		N17   , Cn3 
	.byte	W06
@ 169   ----------------------------------------
	.byte	W12
	.byte		N11   , As2 
	.byte	W12
	.byte		        An2 
	.byte	W24
	.byte		        Gn2 
	.byte	W12
	.byte		        Fs2 
	.byte	W12
	.byte		        Fn2 
	.byte	W12
	.byte		N56   , En2 
	.byte	W12
@ 170   ----------------------------------------
	.byte	W48
	.byte		N32   , Dn3 
	.byte	W36
	.byte		N68   , Bn2 
	.byte	W12
@ 171   ----------------------------------------
	.byte	W60
	.byte		N17   , An2 
	.byte	W18
	.byte		N05   , Bn2 
	.byte	W06
	.byte		        An2 
	.byte	W06
	.byte		        Gn2 
	.byte	W06
@ 172   ----------------------------------------
	.byte		N44   , An2 
	.byte	W48
	.byte		N32   , An3 
	.byte	W36
	.byte		N92   , Fs3 
	.byte	W12
@ 173   ----------------------------------------
	.byte	W84
	.byte		N44   , Ds4 
	.byte		N44   , Gn4 
	.byte	W12
@ 174   ----------------------------------------
	.byte	W36
	.byte		N11   , Ds4 
	.byte		N11   , Gn4 
	.byte	W12
	.byte		        Cn4 
	.byte		N11   , Ds4 
	.byte	W12
	.byte		        As3 
	.byte		N11   , Dn4 
	.byte	W12
	.byte		        An3 
	.byte		N11   , Cn4 
	.byte	W12
	.byte		        Gn3 
	.byte		N11   , As3 
	.byte	W12
@ 175   ----------------------------------------
	.byte		        Fn3 
	.byte		N11   , An3 
	.byte	W12
	.byte		        Ds3 
	.byte		N11   , Gn3 
	.byte	W12
	.byte		        Dn3 
	.byte		N11   , Fn3 
	.byte	W12
	.byte		        Cn3 
	.byte		N11   , Ds3 
	.byte	W12
	.byte		        As2 
	.byte		N11   , Dn3 
	.byte	W12
	.byte		        An2 
	.byte		N11   , Cn3 
	.byte	W12
	.byte		        Gn2 
	.byte		N11   , As2 
	.byte	W12
	.byte		N44   , Fs2 
	.byte		N44   , An2 
	.byte	W12
@ 176   ----------------------------------------
	.byte	W24
	.byte		N11   , Gs4 
	.byte	W12
	.byte		N44   , An4 
	.byte		N44   , Cn5 
	.byte	W48
	.byte		N05   , Ds4 
	.byte		N05   , Fs4 
	.byte	W06
	.byte		N05   
	.byte		N05   , An4 
	.byte	W06
@ 177   ----------------------------------------
	.byte		N11   , Ds4 
	.byte		N11   , Fs4 
	.byte	W12
	.byte		        Cn4 
	.byte		N11   , Ds4 
	.byte	W12
	.byte		N11   
	.byte		N11   , Fs4 
	.byte	W12
	.byte		        Cn4 
	.byte		N11   , Ds4 
	.byte	W12
	.byte		        An3 
	.byte		N11   , Cn4 
	.byte	W12
	.byte		        Fs3 
	.byte		N11   , An3 
	.byte	W12
	.byte		        Cn3 
	.byte		N11   , En3 
	.byte	W12
	.byte		N44   , Bn2 
	.byte		N44   , Ds3 
	.byte	W12
@ 178   ----------------------------------------
	.byte	W36
	.byte		N44   
	.byte		N44   , Fs3 
	.byte	W48
	.byte		        Bn4 
	.byte		N44   , Ds5 
	.byte	W12
@ 179   ----------------------------------------
	.byte	W96
@ 180   ----------------------------------------
	.byte	W96
@ 181   ----------------------------------------
	.byte	W96
@ 182   ----------------------------------------
	.byte	W96
@ 183   ----------------------------------------
	.byte	W96
@ 184   ----------------------------------------
	.byte	W96
@ 185   ----------------------------------------
	.byte	W96
@ 186   ----------------------------------------
	.byte	W96
@ 187   ----------------------------------------
	.byte	W96
@ 188   ----------------------------------------
	.byte	W96
@ 189   ----------------------------------------
	.byte	W96
@ 190   ----------------------------------------
	.byte	W96
@ 191   ----------------------------------------
	.byte	W96
@ 192   ----------------------------------------
	.byte	W96
@ 193   ----------------------------------------
	.byte	W96
@ 194   ----------------------------------------
	.byte	W96
@ 195   ----------------------------------------
	.byte	W96
@ 196   ----------------------------------------
	.byte	W96
@ 197   ----------------------------------------
	.byte	FINE

@**************** Track 6 (Midi-Chn.6) ****************@

TTSG_6:
	.byte	KEYSH , TTSG_key+0
@ 000   ----------------------------------------
	.byte		VOICE , 33
	.byte		VOL   , 90*TTSG_mvl/mxv
	.byte		PAN   , c_v+0
	.byte	W48
@ 001   ----------------------------------------
	.byte	W96
@ 002   ----------------------------------------
	.byte	W96
@ 003   ----------------------------------------
	.byte	W96
@ 004   ----------------------------------------
	.byte	W96
@ 005   ----------------------------------------
	.byte	W96
@ 006   ----------------------------------------
	.byte	W96
@ 007   ----------------------------------------
	.byte	W96
@ 008   ----------------------------------------
	.byte	W96
@ 009   ----------------------------------------
	.byte	W96
@ 010   ----------------------------------------
	.byte	W96
@ 011   ----------------------------------------
	.byte	W96
@ 012   ----------------------------------------
	.byte	W96
@ 013   ----------------------------------------
	.byte	W96
@ 014   ----------------------------------------
	.byte	W96
@ 015   ----------------------------------------
	.byte	W96
@ 016   ----------------------------------------
	.byte	W84
	.byte		N23   , Ds2 , v080
	.byte	W12
@ 017   ----------------------------------------
TTSG_6_017:
	.byte	W12
	.byte		N11   , Ds2 , v080
	.byte	W12
	.byte		N11   
	.byte	W12
	.byte		N11   
	.byte	W12
	.byte		N11   
	.byte	W12
	.byte		N11   
	.byte	W12
	.byte		N11   
	.byte	W12
	.byte		N11   
	.byte	W12
	.byte	PEND
@ 018   ----------------------------------------
TTSG_6_018:
	.byte		N11   , As2 , v080
	.byte	W12
	.byte		N32   , Cn3 
	.byte	W36
	.byte		        As2 
	.byte	W36
	.byte		N23   , Dn2 
	.byte	W12
	.byte	PEND
@ 019   ----------------------------------------
TTSG_6_019:
	.byte	W12
	.byte		N11   , Dn2 , v080
	.byte	W12
	.byte		N11   
	.byte	W12
	.byte		N11   
	.byte	W12
	.byte		N11   
	.byte	W12
	.byte		N11   
	.byte	W12
	.byte		N11   
	.byte	W12
	.byte		N11   
	.byte	W12
	.byte	PEND
@ 020   ----------------------------------------
TTSG_6_020:
	.byte		N11   , Dn2 , v080
	.byte	W12
	.byte		N11   
	.byte	W12
	.byte		N11   
	.byte	W12
	.byte		N11   
	.byte	W12
	.byte		N11   
	.byte	W12
	.byte		N11   
	.byte	W12
	.byte		N11   
	.byte	W12
	.byte		N23   , Cn2 
	.byte	W12
	.byte	PEND
@ 021   ----------------------------------------
TTSG_6_021:
	.byte	W12
	.byte		N11   , Cn2 , v080
	.byte	W12
	.byte		N11   
	.byte	W12
	.byte		N11   
	.byte	W12
	.byte		N11   
	.byte	W12
	.byte		N11   
	.byte	W12
	.byte		N11   
	.byte	W12
	.byte		N11   
	.byte	W09
	.byte		N02   , As1 
	.byte	W03
	.byte	PEND
@ 022   ----------------------------------------
TTSG_6_022:
	.byte		N11   , Cn2 , v080
	.byte	W12
	.byte		        Gn1 
	.byte	W24
	.byte		N11   
	.byte	W12
	.byte		        Cn2 
	.byte	W12
	.byte		        An1 
	.byte	W12
	.byte		        Gs1 
	.byte	W12
	.byte		N23   , Gn1 
	.byte	W12
	.byte	PEND
@ 023   ----------------------------------------
TTSG_6_023:
	.byte	W12
	.byte		N11   , Gn1 , v080
	.byte	W12
	.byte		N11   
	.byte	W12
	.byte		        En1 
	.byte	W12
	.byte		        Fn1 
	.byte	W12
	.byte		N11   
	.byte	W12
	.byte		        Gn1 
	.byte	W12
	.byte		N11   
	.byte	W12
	.byte	PEND
@ 024   ----------------------------------------
TTSG_6_024:
	.byte		N11   , As1 , v080
	.byte	W12
	.byte		        Cn2 
	.byte	W12
	.byte		N23   , As1 
	.byte	W60
	.byte		        En1 
	.byte	W12
	.byte	PEND
@ 025   ----------------------------------------
TTSG_6_025:
	.byte	W12
	.byte		N11   , An1 , v080
	.byte	W12
	.byte		N11   
	.byte	W12
	.byte		N11   
	.byte	W12
	.byte		N11   
	.byte	W12
	.byte		N11   
	.byte	W12
	.byte		N11   
	.byte	W12
	.byte		N23   
	.byte	W12
	.byte	PEND
@ 026   ----------------------------------------
TTSG_6_026:
	.byte	W12
	.byte		N11   , An1 , v080
	.byte	W12
	.byte		N11   
	.byte	W12
	.byte		N11   
	.byte	W12
	.byte		        Dn2 
	.byte	W12
	.byte		N23   , En2 
	.byte	W24
	.byte		N23   
	.byte	W12
	.byte	PEND
@ 027   ----------------------------------------
TTSG_6_027:
	.byte	W12
	.byte		N11   , En2 , v080
	.byte	W12
	.byte		N11   
	.byte	W12
	.byte		N11   
	.byte	W12
	.byte		N11   
	.byte	W12
	.byte		        Bn1 
	.byte	W12
	.byte		        Dn2 
	.byte	W12
	.byte		        En2 
	.byte	W12
	.byte	PEND
@ 028   ----------------------------------------
TTSG_6_028:
	.byte		N11   , En2 , v080
	.byte	W12
	.byte		N11   
	.byte	W12
	.byte		N11   
	.byte	W12
	.byte		N11   
	.byte	W12
	.byte		N11   
	.byte	W12
	.byte		N11   
	.byte	W12
	.byte		N11   
	.byte	W12
	.byte		N23   , Cn2 
	.byte	W12
	.byte	PEND
@ 029   ----------------------------------------
TTSG_6_029:
	.byte	W12
	.byte		N11   , Cn2 , v080
	.byte	W12
	.byte		N11   
	.byte	W12
	.byte		N11   
	.byte	W12
	.byte		N11   
	.byte	W12
	.byte		N11   
	.byte	W12
	.byte		N11   
	.byte	W12
	.byte		N11   
	.byte	W12
	.byte	PEND
@ 030   ----------------------------------------
TTSG_6_030:
	.byte		N11   , Cn2 , v080
	.byte	W12
	.byte		N11   
	.byte	W12
	.byte		N11   
	.byte	W12
	.byte		N11   
	.byte	W12
	.byte		N11   
	.byte	W12
	.byte		N11   
	.byte	W12
	.byte		N11   
	.byte	W12
	.byte		N23   , Fs1 
	.byte	W12
	.byte	PEND
@ 031   ----------------------------------------
TTSG_6_031:
	.byte	W12
	.byte		N11   , Fs1 , v080
	.byte	W12
	.byte		N11   
	.byte	W12
	.byte		N11   
	.byte	W12
	.byte		N11   
	.byte	W12
	.byte		N11   
	.byte	W12
	.byte		N11   
	.byte	W12
	.byte		N11   
	.byte	W12
	.byte	PEND
@ 032   ----------------------------------------
TTSG_6_032:
	.byte		N11   , Fs1 , v080
	.byte	W12
	.byte		N11   
	.byte	W12
	.byte		N11   
	.byte	W12
	.byte		N11   
	.byte	W12
	.byte		N11   
	.byte	W12
	.byte		N11   
	.byte	W12
	.byte		N11   
	.byte	W12
	.byte		N23   , Bn1 
	.byte	W12
	.byte	PEND
@ 033   ----------------------------------------
TTSG_6_033:
	.byte	W12
	.byte		N11   , Bn1 , v080
	.byte	W12
	.byte		N11   
	.byte	W12
	.byte		N11   
	.byte	W12
	.byte		N11   
	.byte	W12
	.byte		N11   
	.byte	W12
	.byte		N11   
	.byte	W12
	.byte		N11   
	.byte	W12
	.byte	PEND
@ 034   ----------------------------------------
TTSG_6_034:
	.byte		N44   , Bn1 , v080
	.byte	W84
	.byte		N23   , En1 
	.byte	W12
	.byte	PEND
@ 035   ----------------------------------------
TTSG_6_035:
	.byte	W12
	.byte		N11   , En1 , v080
	.byte	W12
	.byte		N11   
	.byte	W12
	.byte		N11   
	.byte	W12
	.byte		        En2 
	.byte	W12
	.byte		N11   
	.byte	W12
	.byte		N11   
	.byte	W12
	.byte		        En1 
	.byte	W12
	.byte	PEND
@ 036   ----------------------------------------
TTSG_6_036:
	.byte		N11   , En1 , v080
	.byte	W12
	.byte		N11   
	.byte	W12
	.byte		N11   
	.byte	W12
	.byte		N11   
	.byte	W12
	.byte		N11   
	.byte	W12
	.byte		N11   
	.byte	W12
	.byte		N11   
	.byte	W12
	.byte		N23   , Bn1 
	.byte	W12
	.byte	PEND
@ 037   ----------------------------------------
TTSG_6_037:
	.byte	W12
	.byte		N11   , Bn1 , v080
	.byte	W12
	.byte		N11   
	.byte	W12
	.byte		N11   
	.byte	W12
	.byte		        An1 
	.byte	W12
	.byte		        Bn1 
	.byte	W12
	.byte		N11   
	.byte	W12
	.byte		N11   
	.byte	W12
	.byte	PEND
@ 038   ----------------------------------------
TTSG_6_038:
	.byte		N11   , An1 , v080
	.byte	W12
	.byte		        Bn1 
	.byte	W12
	.byte		N11   
	.byte	W12
	.byte		N11   
	.byte	W12
	.byte		        An1 
	.byte	W12
	.byte		        Bn1 
	.byte	W12
	.byte		        Dn2 
	.byte	W12
	.byte		N23   , Cn2 
	.byte	W12
	.byte	PEND
@ 039   ----------------------------------------
	.byte	PATT
	 .word	TTSG_6_029
@ 040   ----------------------------------------
TTSG_6_040:
	.byte		N11   , Cn2 , v080
	.byte	W12
	.byte		N11   
	.byte	W12
	.byte		N11   
	.byte	W12
	.byte		N11   
	.byte	W12
	.byte		N11   
	.byte	W12
	.byte		N11   
	.byte	W12
	.byte		N11   
	.byte	W12
	.byte		N23   , Dn2 
	.byte	W12
	.byte	PEND
@ 041   ----------------------------------------
TTSG_6_041:
	.byte	W12
	.byte		N11   , Dn2 , v080
	.byte	W12
	.byte		N11   
	.byte	W12
	.byte		N11   
	.byte	W12
	.byte		N11   
	.byte	W12
	.byte		N11   
	.byte	W12
	.byte		N11   
	.byte	W12
	.byte		        Ds2 
	.byte	W12
	.byte	PEND
@ 042   ----------------------------------------
TTSG_6_042:
	.byte		N11   , Ds2 , v080
	.byte	W12
	.byte		N11   
	.byte	W12
	.byte		N11   
	.byte	W12
	.byte		N11   
	.byte	W12
	.byte		        Dn2 
	.byte	W24
	.byte		        Ds2 
	.byte	W12
	.byte		N23   , En1 
	.byte	W12
	.byte	PEND
@ 043   ----------------------------------------
TTSG_6_043:
	.byte	W12
	.byte		N11   , En1 , v080
	.byte	W12
	.byte		N11   
	.byte	W12
	.byte		N11   
	.byte	W12
	.byte		        Dn2 
	.byte	W12
	.byte		        En2 
	.byte	W12
	.byte		N11   
	.byte	W12
	.byte		N11   
	.byte	W12
	.byte	PEND
@ 044   ----------------------------------------
TTSG_6_044:
	.byte		N11   , En2 , v080
	.byte	W12
	.byte		N32   , An2 
	.byte	W36
	.byte		N11   , En2 
	.byte	W12
	.byte		        En1 
	.byte	W12
	.byte		        Dn2 
	.byte	W12
	.byte		N23   , Bn1 
	.byte	W12
	.byte	PEND
@ 045   ----------------------------------------
	.byte	PATT
	 .word	TTSG_6_033
@ 046   ----------------------------------------
TTSG_6_046:
	.byte		N11   , Bn1 , v080
	.byte	W12
	.byte		N11   
	.byte	W12
	.byte		        Fs1 
	.byte	W12
	.byte		N23   , Gn1 
	.byte	W24
	.byte		N11   , Fs1 
	.byte	W12
	.byte		        Bn1 
	.byte	W12
	.byte		        Cn2 
	.byte	W12
	.byte	PEND
@ 047   ----------------------------------------
TTSG_6_047:
	.byte		N11   , Cn2 , v080
	.byte	W12
	.byte		N11   
	.byte	W12
	.byte		N11   
	.byte	W12
	.byte		N11   
	.byte	W12
	.byte		N11   
	.byte	W12
	.byte		N11   
	.byte	W12
	.byte		N11   
	.byte	W12
	.byte		N11   
	.byte	W12
	.byte	PEND
@ 048   ----------------------------------------
	.byte	PATT
	 .word	TTSG_6_040
@ 049   ----------------------------------------
	.byte	PATT
	 .word	TTSG_6_019
@ 050   ----------------------------------------
	.byte		N11   , Dn2 , v080
	.byte	W12
	.byte		N11   
	.byte	W12
	.byte		N11   
	.byte	W12
	.byte		N11   
	.byte	W12
	.byte		N11   
	.byte	W12
	.byte		N11   
	.byte	W12
	.byte		N11   
	.byte	W12
	.byte		N23   , En1 
	.byte	W12
@ 051   ----------------------------------------
	.byte	W12
	.byte		N11   
	.byte	W12
	.byte		N11   
	.byte	W12
	.byte		N11   
	.byte	W12
	.byte		N11   
	.byte	W24
	.byte		        Cn2 
	.byte	W12
	.byte		        En1 
	.byte	W12
@ 052   ----------------------------------------
	.byte		N11   
	.byte	W12
	.byte		N11   
	.byte	W12
	.byte		N11   
	.byte	W12
	.byte		N11   
	.byte	W12
	.byte		N23   , Bn1 
	.byte	W24
	.byte		N11   , An1 
	.byte	W12
	.byte		N23   , Cn2 
	.byte	W12
@ 053   ----------------------------------------
	.byte	PATT
	 .word	TTSG_6_029
@ 054   ----------------------------------------
	.byte		N11   , Cn2 , v080
	.byte	W12
	.byte		N11   
	.byte	W12
	.byte		N11   
	.byte	W12
	.byte		N11   
	.byte	W12
	.byte		N11   
	.byte	W12
	.byte		N11   
	.byte	W12
	.byte		N11   
	.byte	W12
	.byte		N23   , Bn1 
	.byte	W12
@ 055   ----------------------------------------
	.byte	PATT
	 .word	TTSG_6_033
@ 056   ----------------------------------------
	.byte		N11   , Bn1 , v080
	.byte	W12
	.byte		N11   
	.byte	W12
	.byte		N11   
	.byte	W12
	.byte		N11   
	.byte	W12
	.byte		N11   
	.byte	W12
	.byte		N11   
	.byte	W12
	.byte		N11   
	.byte	W12
	.byte		N23   , As1 
	.byte	W12
@ 057   ----------------------------------------
	.byte	W12
	.byte		N11   
	.byte	W12
	.byte		N11   
	.byte	W12
	.byte		N11   
	.byte	W12
	.byte		N11   
	.byte	W12
	.byte		N11   
	.byte	W12
	.byte		N11   
	.byte	W12
	.byte		N11   
	.byte	W12
@ 058   ----------------------------------------
	.byte		N11   
	.byte	W12
	.byte		N11   
	.byte	W12
	.byte		N11   
	.byte	W12
	.byte		N11   
	.byte	W12
	.byte		N11   
	.byte	W12
	.byte		N11   
	.byte	W12
	.byte		N11   
	.byte	W12
	.byte		N23   , An1 
	.byte	W12
@ 059   ----------------------------------------
	.byte	W12
	.byte		N11   
	.byte	W12
	.byte		        Bn1 
	.byte	W12
	.byte		        Cn2 
	.byte	W12
	.byte		        Dn2 
	.byte	W12
	.byte		        Cn2 
	.byte	W12
	.byte		        Dn2 
	.byte	W12
	.byte		        En2 
	.byte	W12
@ 060   ----------------------------------------
	.byte		N11   
	.byte	W12
	.byte		N11   
	.byte	W12
	.byte		        Dn2 
	.byte	W12
	.byte		        Cn2 
	.byte	W12
	.byte		        En2 
	.byte	W12
	.byte		        Gn2 
	.byte	W12
	.byte		        En2 
	.byte	W12
	.byte		N23   
	.byte	W12
@ 061   ----------------------------------------
	.byte	W12
	.byte		N11   
	.byte	W12
	.byte		N11   
	.byte	W12
	.byte		N11   
	.byte	W12
	.byte		N11   
	.byte	W12
	.byte		N11   
	.byte	W12
	.byte		N11   
	.byte	W12
	.byte		N11   
	.byte	W12
@ 062   ----------------------------------------
	.byte		N11   
	.byte	W12
	.byte		N11   
	.byte	W12
	.byte		N11   
	.byte	W12
	.byte		N11   
	.byte	W12
	.byte		N11   
	.byte	W12
	.byte		N11   
	.byte	W12
	.byte		N11   
	.byte	W12
	.byte		N23   , Ds2 
	.byte	W12
@ 063   ----------------------------------------
	.byte	W12
	.byte		N23   
	.byte	W24
	.byte		        As2 
	.byte	W24
	.byte		N11   , Cn3 
	.byte	W12
	.byte		        Dn3 
	.byte	W12
	.byte		N23   , Ds3 
	.byte	W12
@ 064   ----------------------------------------
	.byte	W12
	.byte		N11   
	.byte	W12
	.byte		N11   
	.byte	W12
	.byte		N23   , Dn3 
	.byte	W24
	.byte		N11   
	.byte	W12
	.byte		N11   
	.byte	W12
	.byte		N23   , Cn3 
	.byte	W12
@ 065   ----------------------------------------
	.byte	W12
	.byte		N11   
	.byte	W12
	.byte		N11   
	.byte	W12
	.byte		N23   , As2 
	.byte	W24
	.byte		N11   
	.byte	W12
	.byte		N11   
	.byte	W12
	.byte		N23   , Gn2 
	.byte	W12
@ 066   ----------------------------------------
	.byte	W12
	.byte		N11   
	.byte	W12
	.byte		N11   
	.byte	W12
	.byte		N23   , Fn2 
	.byte	W24
	.byte		N11   
	.byte	W12
	.byte		N11   
	.byte	W12
	.byte		N23   , Dn2 
	.byte	W12
@ 067   ----------------------------------------
	.byte	W12
	.byte		N11   
	.byte	W12
	.byte		N11   
	.byte	W12
	.byte		N23   , Cn2 
	.byte	W24
	.byte		N11   
	.byte	W12
	.byte		N11   
	.byte	W12
	.byte		N23   , Dn2 
	.byte	W12
@ 068   ----------------------------------------
	.byte	W12
	.byte		N11   
	.byte	W12
	.byte		N11   
	.byte	W12
	.byte		N23   , Fn2 
	.byte	W24
	.byte		N11   
	.byte	W12
	.byte		N11   
	.byte	W12
	.byte		N23   , Dn2 
	.byte	W12
@ 069   ----------------------------------------
	.byte	W96
@ 070   ----------------------------------------
	.byte	W84
	.byte		N32   , Gn1 
	.byte	W12
@ 071   ----------------------------------------
	.byte	W96
@ 072   ----------------------------------------
	.byte	W84
	.byte		N32   
	.byte	W12
@ 073   ----------------------------------------
	.byte	W96
@ 074   ----------------------------------------
	.byte	W84
	.byte		N23   , Ds2 
	.byte	W12
@ 075   ----------------------------------------
	.byte	PATT
	 .word	TTSG_6_017
@ 076   ----------------------------------------
TTSG_6_076:
	.byte		N11   , Ds2 , v080
	.byte	W12
	.byte		N11   
	.byte	W12
	.byte		N11   
	.byte	W12
	.byte		N11   
	.byte	W12
	.byte		N11   
	.byte	W12
	.byte		N11   
	.byte	W12
	.byte		N11   
	.byte	W12
	.byte		N23   , Dn2 
	.byte	W12
	.byte	PEND
@ 077   ----------------------------------------
	.byte	PATT
	 .word	TTSG_6_019
@ 078   ----------------------------------------
	.byte		N11   , Dn2 , v080
	.byte	W12
	.byte		N11   
	.byte	W12
	.byte		N11   
	.byte	W12
	.byte		N11   
	.byte	W12
	.byte		N11   
	.byte	W12
	.byte		N11   
	.byte	W12
	.byte		N11   
	.byte	W12
	.byte		N32   , Gn1 
	.byte	W12
@ 079   ----------------------------------------
	.byte	W96
@ 080   ----------------------------------------
	.byte	W84
	.byte		N32   
	.byte	W12
@ 081   ----------------------------------------
	.byte	W96
@ 082   ----------------------------------------
	.byte	W84
	.byte		N23   , Ds2 
	.byte	W12
@ 083   ----------------------------------------
	.byte	PATT
	 .word	TTSG_6_017
@ 084   ----------------------------------------
	.byte	PATT
	 .word	TTSG_6_076
@ 085   ----------------------------------------
	.byte	PATT
	 .word	TTSG_6_019
@ 086   ----------------------------------------
	.byte		N11   , Dn2 , v080
	.byte	W12
	.byte		N11   
	.byte	W12
	.byte		N11   
	.byte	W12
	.byte		N11   
	.byte	W12
	.byte		N11   
	.byte	W12
	.byte		N11   
	.byte	W12
	.byte		N11   
	.byte	W12
	.byte		N23   , Ds2 
	.byte	W12
@ 087   ----------------------------------------
	.byte	PATT
	 .word	TTSG_6_017
@ 088   ----------------------------------------
	.byte	PATT
	 .word	TTSG_6_018
@ 089   ----------------------------------------
	.byte	PATT
	 .word	TTSG_6_019
@ 090   ----------------------------------------
	.byte	PATT
	 .word	TTSG_6_020
@ 091   ----------------------------------------
	.byte	PATT
	 .word	TTSG_6_021
@ 092   ----------------------------------------
	.byte	PATT
	 .word	TTSG_6_022
@ 093   ----------------------------------------
	.byte	W12
	.byte		N11   , Gn1 , v080
	.byte	W12
	.byte		N11   
	.byte	W12
	.byte		        En1 
	.byte	W12
	.byte		        Fn1 
	.byte	W12
	.byte		        Gn1 
	.byte	W12
	.byte		N11   
	.byte	W12
	.byte		N11   
	.byte	W12
@ 094   ----------------------------------------
	.byte	PATT
	 .word	TTSG_6_024
@ 095   ----------------------------------------
	.byte	PATT
	 .word	TTSG_6_025
@ 096   ----------------------------------------
	.byte	PATT
	 .word	TTSG_6_026
@ 097   ----------------------------------------
	.byte	PATT
	 .word	TTSG_6_027
@ 098   ----------------------------------------
	.byte	PATT
	 .word	TTSG_6_028
@ 099   ----------------------------------------
	.byte	PATT
	 .word	TTSG_6_029
@ 100   ----------------------------------------
	.byte	PATT
	 .word	TTSG_6_030
@ 101   ----------------------------------------
	.byte	PATT
	 .word	TTSG_6_031
@ 102   ----------------------------------------
	.byte	PATT
	 .word	TTSG_6_032
@ 103   ----------------------------------------
	.byte	PATT
	 .word	TTSG_6_033
@ 104   ----------------------------------------
	.byte	PATT
	 .word	TTSG_6_034
@ 105   ----------------------------------------
	.byte	PATT
	 .word	TTSG_6_035
@ 106   ----------------------------------------
	.byte	PATT
	 .word	TTSG_6_036
@ 107   ----------------------------------------
	.byte	PATT
	 .word	TTSG_6_037
@ 108   ----------------------------------------
	.byte	PATT
	 .word	TTSG_6_038
@ 109   ----------------------------------------
	.byte	PATT
	 .word	TTSG_6_029
@ 110   ----------------------------------------
	.byte	PATT
	 .word	TTSG_6_040
@ 111   ----------------------------------------
	.byte	PATT
	 .word	TTSG_6_041
@ 112   ----------------------------------------
	.byte	PATT
	 .word	TTSG_6_042
@ 113   ----------------------------------------
	.byte	PATT
	 .word	TTSG_6_043
@ 114   ----------------------------------------
	.byte	PATT
	 .word	TTSG_6_044
@ 115   ----------------------------------------
	.byte	PATT
	 .word	TTSG_6_033
@ 116   ----------------------------------------
	.byte	PATT
	 .word	TTSG_6_046
@ 117   ----------------------------------------
	.byte	PATT
	 .word	TTSG_6_047
@ 118   ----------------------------------------
TTSG_6_118:
	.byte		N11   , Cn2 , v080
	.byte	W12
	.byte		N11   
	.byte	W12
	.byte		N11   
	.byte	W12
	.byte		N11   
	.byte	W12
	.byte		N11   
	.byte	W12
	.byte		N11   
	.byte	W12
	.byte		N11   
	.byte	W12
	.byte		TIE   , Dn2 
	.byte	W12
	.byte	PEND
@ 119   ----------------------------------------
	.byte	W96
@ 120   ----------------------------------------
	.byte	W92
	.byte	W03
	.byte		EOT   
	.byte	W01
@ 121   ----------------------------------------
	.byte	W96
@ 122   ----------------------------------------
	.byte	W96
@ 123   ----------------------------------------
	.byte	W96
@ 124   ----------------------------------------
	.byte	W96
@ 125   ----------------------------------------
	.byte	W96
@ 126   ----------------------------------------
	.byte	W96
@ 127   ----------------------------------------
	.byte	W96
@ 128   ----------------------------------------
	.byte	W96
@ 129   ----------------------------------------
	.byte	W96
@ 130   ----------------------------------------
	.byte	W96
@ 131   ----------------------------------------
	.byte	W96
@ 132   ----------------------------------------
	.byte	W96
@ 133   ----------------------------------------
	.byte	W96
@ 134   ----------------------------------------
	.byte	W96
@ 135   ----------------------------------------
	.byte	W96
@ 136   ----------------------------------------
	.byte	W96
@ 137   ----------------------------------------
	.byte	W96
@ 138   ----------------------------------------
	.byte	W96
@ 139   ----------------------------------------
	.byte	W96
@ 140   ----------------------------------------
	.byte	W96
@ 141   ----------------------------------------
	.byte	W96
@ 142   ----------------------------------------
	.byte	W96
@ 143   ----------------------------------------
	.byte	W96
@ 144   ----------------------------------------
	.byte	W96
@ 145   ----------------------------------------
	.byte	W96
@ 146   ----------------------------------------
	.byte	W96
@ 147   ----------------------------------------
	.byte	W96
@ 148   ----------------------------------------
	.byte	W96
@ 149   ----------------------------------------
	.byte	W96
@ 150   ----------------------------------------
	.byte	W96
@ 151   ----------------------------------------
	.byte	W96
@ 152   ----------------------------------------
	.byte	W96
@ 153   ----------------------------------------
	.byte	W96
@ 154   ----------------------------------------
	.byte	W96
@ 155   ----------------------------------------
	.byte	W96
@ 156   ----------------------------------------
	.byte	W96
@ 157   ----------------------------------------
	.byte	W96
@ 158   ----------------------------------------
	.byte	W96
@ 159   ----------------------------------------
	.byte	W96
@ 160   ----------------------------------------
	.byte	W96
@ 161   ----------------------------------------
	.byte	W84
	.byte		N23   , Ds2 
	.byte	W12
@ 162   ----------------------------------------
	.byte	PATT
	 .word	TTSG_6_017
@ 163   ----------------------------------------
	.byte	PATT
	 .word	TTSG_6_018
@ 164   ----------------------------------------
	.byte	PATT
	 .word	TTSG_6_019
@ 165   ----------------------------------------
	.byte	PATT
	 .word	TTSG_6_020
@ 166   ----------------------------------------
	.byte	PATT
	 .word	TTSG_6_021
@ 167   ----------------------------------------
	.byte	PATT
	 .word	TTSG_6_022
@ 168   ----------------------------------------
	.byte	PATT
	 .word	TTSG_6_023
@ 169   ----------------------------------------
	.byte	PATT
	 .word	TTSG_6_024
@ 170   ----------------------------------------
	.byte	PATT
	 .word	TTSG_6_025
@ 171   ----------------------------------------
	.byte	PATT
	 .word	TTSG_6_026
@ 172   ----------------------------------------
	.byte	PATT
	 .word	TTSG_6_027
@ 173   ----------------------------------------
	.byte	PATT
	 .word	TTSG_6_028
@ 174   ----------------------------------------
	.byte	PATT
	 .word	TTSG_6_029
@ 175   ----------------------------------------
	.byte	PATT
	 .word	TTSG_6_030
@ 176   ----------------------------------------
	.byte	PATT
	 .word	TTSG_6_031
@ 177   ----------------------------------------
	.byte	PATT
	 .word	TTSG_6_032
@ 178   ----------------------------------------
	.byte	PATT
	 .word	TTSG_6_033
@ 179   ----------------------------------------
	.byte	PATT
	 .word	TTSG_6_034
@ 180   ----------------------------------------
	.byte	PATT
	 .word	TTSG_6_035
@ 181   ----------------------------------------
	.byte	PATT
	 .word	TTSG_6_036
@ 182   ----------------------------------------
	.byte	PATT
	 .word	TTSG_6_037
@ 183   ----------------------------------------
	.byte	PATT
	 .word	TTSG_6_038
@ 184   ----------------------------------------
	.byte	PATT
	 .word	TTSG_6_029
@ 185   ----------------------------------------
	.byte	PATT
	 .word	TTSG_6_040
@ 186   ----------------------------------------
	.byte	PATT
	 .word	TTSG_6_041
@ 187   ----------------------------------------
	.byte	PATT
	 .word	TTSG_6_042
@ 188   ----------------------------------------
	.byte	PATT
	 .word	TTSG_6_043
@ 189   ----------------------------------------
	.byte	PATT
	 .word	TTSG_6_044
@ 190   ----------------------------------------
	.byte	PATT
	 .word	TTSG_6_033
@ 191   ----------------------------------------
	.byte	PATT
	 .word	TTSG_6_046
@ 192   ----------------------------------------
	.byte	PATT
	 .word	TTSG_6_047
@ 193   ----------------------------------------
	.byte	PATT
	 .word	TTSG_6_118
@ 194   ----------------------------------------
	.byte	W92
	.byte	W03
	.byte		EOT   , Dn2 
	.byte	W01
@ 195   ----------------------------------------
	.byte	W96
@ 196   ----------------------------------------
	.byte		N11   , En2 , v080
	.byte	W96
@ 197   ----------------------------------------
	.byte	FINE

@**************** Track 7 (Midi-Chn.7) ****************@

TTSG_7:
	.byte	KEYSH , TTSG_key+0
@ 000   ----------------------------------------
	.byte		VOICE , 0
	.byte		VOL   , 85*TTSG_mvl/mxv
	.byte		PAN   , c_v+0
	.byte	W48
@ 001   ----------------------------------------
	.byte	W96
@ 002   ----------------------------------------
	.byte	W96
@ 003   ----------------------------------------
	.byte	W96
@ 004   ----------------------------------------
	.byte	W96
@ 005   ----------------------------------------
	.byte	W96
@ 006   ----------------------------------------
	.byte	W96
@ 007   ----------------------------------------
	.byte	W96
@ 008   ----------------------------------------
	.byte	W84
	.byte		TIE   , Dn3 , v112
	.byte	W12
@ 009   ----------------------------------------
	.byte	W92
	.byte	W03
	.byte		EOT   
	.byte	W01
@ 010   ----------------------------------------
	.byte	W96
@ 011   ----------------------------------------
	.byte	W96
@ 012   ----------------------------------------
	.byte	W96
@ 013   ----------------------------------------
	.byte	W96
@ 014   ----------------------------------------
	.byte	W96
@ 015   ----------------------------------------
	.byte	W96
@ 016   ----------------------------------------
	.byte	W96
@ 017   ----------------------------------------
	.byte	W96
@ 018   ----------------------------------------
	.byte	W96
@ 019   ----------------------------------------
	.byte	W96
@ 020   ----------------------------------------
	.byte	W96
@ 021   ----------------------------------------
	.byte	W96
@ 022   ----------------------------------------
	.byte	W96
@ 023   ----------------------------------------
	.byte	W96
@ 024   ----------------------------------------
	.byte	W96
@ 025   ----------------------------------------
	.byte	W96
@ 026   ----------------------------------------
	.byte	W96
@ 027   ----------------------------------------
	.byte	W96
@ 028   ----------------------------------------
	.byte	W96
@ 029   ----------------------------------------
	.byte	W96
@ 030   ----------------------------------------
	.byte	W96
@ 031   ----------------------------------------
	.byte	W96
@ 032   ----------------------------------------
	.byte	W96
@ 033   ----------------------------------------
	.byte	W96
@ 034   ----------------------------------------
	.byte	W96
@ 035   ----------------------------------------
	.byte	W96
@ 036   ----------------------------------------
	.byte	W96
@ 037   ----------------------------------------
	.byte	W96
@ 038   ----------------------------------------
	.byte	W96
@ 039   ----------------------------------------
	.byte	W96
@ 040   ----------------------------------------
	.byte	W96
@ 041   ----------------------------------------
	.byte	W96
@ 042   ----------------------------------------
	.byte	W96
@ 043   ----------------------------------------
	.byte	W96
@ 044   ----------------------------------------
	.byte	W96
@ 045   ----------------------------------------
	.byte	W96
@ 046   ----------------------------------------
	.byte	W96
@ 047   ----------------------------------------
	.byte	W96
@ 048   ----------------------------------------
	.byte	W96
@ 049   ----------------------------------------
	.byte	W96
@ 050   ----------------------------------------
	.byte	W84
	.byte		N92   , Fs4 
	.byte	W12
@ 051   ----------------------------------------
	.byte	W84
	.byte		        Gn4 
	.byte	W12
@ 052   ----------------------------------------
	.byte	W84
	.byte		        Dn5 
	.byte	W12
@ 053   ----------------------------------------
	.byte	W84
	.byte		        Bn4 
	.byte	W12
@ 054   ----------------------------------------
	.byte	W84
	.byte		        Fs4 
	.byte	W12
@ 055   ----------------------------------------
	.byte	W84
	.byte		        Gn4 
	.byte	W12
@ 056   ----------------------------------------
	.byte	W84
	.byte		        Gn5 
	.byte	W12
@ 057   ----------------------------------------
	.byte	W84
	.byte		        Dn5 
	.byte	W12
@ 058   ----------------------------------------
	.byte	W84
	.byte		        Bn4 
	.byte	W12
@ 059   ----------------------------------------
	.byte	W84
	.byte		        Cn5 
	.byte	W12
@ 060   ----------------------------------------
	.byte	W84
	.byte		        An5 
	.byte	W12
@ 061   ----------------------------------------
	.byte	W84
	.byte		        Fs5 
	.byte	W12
@ 062   ----------------------------------------
	.byte	W84
	.byte		N44   , Gn4 
	.byte	W12
@ 063   ----------------------------------------
TTSG_7_063:
	.byte	W36
	.byte		N44   , Dn5 , v112
	.byte	W48
	.byte		N44   
	.byte	W12
	.byte	PEND
@ 064   ----------------------------------------
	.byte	W36
	.byte		        Cn5 
	.byte	W48
	.byte		        Fn5 
	.byte	W12
@ 065   ----------------------------------------
	.byte	PATT
	 .word	TTSG_7_063
@ 066   ----------------------------------------
	.byte	W36
	.byte		N32   , Cn5 , v112
	.byte	W36
	.byte		N56   , Ds5 
	.byte	W24
@ 067   ----------------------------------------
	.byte	W36
	.byte		N44   
	.byte	W48
	.byte		        Cn5 
	.byte	W12
@ 068   ----------------------------------------
	.byte	W36
	.byte		        As4 
	.byte	W48
	.byte		        Dn5 
	.byte	W12
@ 069   ----------------------------------------
	.byte	W36
	.byte		        Cn5 
	.byte	W48
	.byte		        As4 
	.byte	W12
@ 070   ----------------------------------------
	.byte	W36
	.byte		N44   
	.byte	W48
	.byte		TIE   , Gn4 
	.byte	W12
@ 071   ----------------------------------------
	.byte	W92
	.byte	W03
	.byte		EOT   
	.byte	W01
@ 072   ----------------------------------------
	.byte	W96
@ 073   ----------------------------------------
	.byte	W96
@ 074   ----------------------------------------
	.byte	W96
@ 075   ----------------------------------------
	.byte	W96
@ 076   ----------------------------------------
	.byte	W96
@ 077   ----------------------------------------
	.byte	W96
@ 078   ----------------------------------------
	.byte	W96
@ 079   ----------------------------------------
	.byte	W96
@ 080   ----------------------------------------
	.byte	W96
@ 081   ----------------------------------------
	.byte	W96
@ 082   ----------------------------------------
	.byte	W96
@ 083   ----------------------------------------
	.byte	W96
@ 084   ----------------------------------------
	.byte	W96
@ 085   ----------------------------------------
	.byte	W96
@ 086   ----------------------------------------
	.byte	W96
@ 087   ----------------------------------------
	.byte	W96
@ 088   ----------------------------------------
	.byte	W96
@ 089   ----------------------------------------
	.byte	W96
@ 090   ----------------------------------------
	.byte	W96
@ 091   ----------------------------------------
	.byte	W96
@ 092   ----------------------------------------
	.byte	W96
@ 093   ----------------------------------------
	.byte	W96
@ 094   ----------------------------------------
	.byte	W96
@ 095   ----------------------------------------
	.byte	W96
@ 096   ----------------------------------------
	.byte	W96
@ 097   ----------------------------------------
	.byte	W96
@ 098   ----------------------------------------
	.byte	W96
@ 099   ----------------------------------------
	.byte	W96
@ 100   ----------------------------------------
	.byte	W96
@ 101   ----------------------------------------
	.byte	W96
@ 102   ----------------------------------------
	.byte	W96
@ 103   ----------------------------------------
	.byte	W96
@ 104   ----------------------------------------
	.byte	W96
@ 105   ----------------------------------------
	.byte	W96
@ 106   ----------------------------------------
	.byte	W96
@ 107   ----------------------------------------
	.byte	W96
@ 108   ----------------------------------------
	.byte	W96
@ 109   ----------------------------------------
	.byte	W96
@ 110   ----------------------------------------
	.byte	W96
@ 111   ----------------------------------------
	.byte	W96
@ 112   ----------------------------------------
	.byte	W96
@ 113   ----------------------------------------
	.byte	W96
@ 114   ----------------------------------------
	.byte	W96
@ 115   ----------------------------------------
	.byte	W96
@ 116   ----------------------------------------
	.byte	W96
@ 117   ----------------------------------------
	.byte	W96
@ 118   ----------------------------------------
	.byte	W96
@ 119   ----------------------------------------
	.byte	W96
@ 120   ----------------------------------------
	.byte	W96
@ 121   ----------------------------------------
	.byte	W96
@ 122   ----------------------------------------
	.byte	W96
@ 123   ----------------------------------------
	.byte	W96
@ 124   ----------------------------------------
	.byte	W96
@ 125   ----------------------------------------
	.byte	W96
@ 126   ----------------------------------------
	.byte	W96
@ 127   ----------------------------------------
	.byte	W96
@ 128   ----------------------------------------
	.byte	W96
@ 129   ----------------------------------------
	.byte	W96
@ 130   ----------------------------------------
	.byte	W96
@ 131   ----------------------------------------
	.byte	W96
@ 132   ----------------------------------------
	.byte	W96
@ 133   ----------------------------------------
	.byte	W96
@ 134   ----------------------------------------
	.byte	W96
@ 135   ----------------------------------------
	.byte	W96
@ 136   ----------------------------------------
	.byte	W96
@ 137   ----------------------------------------
	.byte	W96
@ 138   ----------------------------------------
	.byte	W96
@ 139   ----------------------------------------
	.byte	W96
@ 140   ----------------------------------------
	.byte	W96
@ 141   ----------------------------------------
	.byte	W96
@ 142   ----------------------------------------
	.byte	W96
@ 143   ----------------------------------------
	.byte	W96
@ 144   ----------------------------------------
	.byte	W96
@ 145   ----------------------------------------
	.byte	W96
@ 146   ----------------------------------------
	.byte	W96
@ 147   ----------------------------------------
	.byte	W96
@ 148   ----------------------------------------
	.byte	W96
@ 149   ----------------------------------------
	.byte	W96
@ 150   ----------------------------------------
	.byte	W96
@ 151   ----------------------------------------
	.byte	W96
@ 152   ----------------------------------------
	.byte	W96
@ 153   ----------------------------------------
	.byte	W96
@ 154   ----------------------------------------
	.byte	W96
@ 155   ----------------------------------------
	.byte	W96
@ 156   ----------------------------------------
	.byte	W96
@ 157   ----------------------------------------
	.byte	W96
@ 158   ----------------------------------------
	.byte	W96
@ 159   ----------------------------------------
	.byte	W96
@ 160   ----------------------------------------
	.byte	W96
@ 161   ----------------------------------------
	.byte	W96
@ 162   ----------------------------------------
	.byte	W96
@ 163   ----------------------------------------
	.byte	W96
@ 164   ----------------------------------------
	.byte	W96
@ 165   ----------------------------------------
	.byte	W96
@ 166   ----------------------------------------
	.byte	W96
@ 167   ----------------------------------------
	.byte	W96
@ 168   ----------------------------------------
	.byte	W96
@ 169   ----------------------------------------
	.byte	W96
@ 170   ----------------------------------------
	.byte	W96
@ 171   ----------------------------------------
	.byte	W96
@ 172   ----------------------------------------
	.byte	W96
@ 173   ----------------------------------------
	.byte	W96
@ 174   ----------------------------------------
	.byte	W96
@ 175   ----------------------------------------
	.byte	W96
@ 176   ----------------------------------------
	.byte	W96
@ 177   ----------------------------------------
	.byte	W96
@ 178   ----------------------------------------
	.byte	W96
@ 179   ----------------------------------------
	.byte	W96
@ 180   ----------------------------------------
	.byte	W96
@ 181   ----------------------------------------
	.byte	W96
@ 182   ----------------------------------------
	.byte	W96
@ 183   ----------------------------------------
	.byte	W96
@ 184   ----------------------------------------
	.byte	W96
@ 185   ----------------------------------------
	.byte	W96
@ 186   ----------------------------------------
	.byte	W96
@ 187   ----------------------------------------
	.byte	W96
@ 188   ----------------------------------------
	.byte	W96
@ 189   ----------------------------------------
	.byte	W96
@ 190   ----------------------------------------
	.byte	W96
@ 191   ----------------------------------------
	.byte	W96
@ 192   ----------------------------------------
	.byte	W96
@ 193   ----------------------------------------
	.byte	W96
@ 194   ----------------------------------------
	.byte	W96
@ 195   ----------------------------------------
	.byte	W96
@ 196   ----------------------------------------
	.byte	W96
@ 197   ----------------------------------------
	.byte	FINE

@**************** Track 8 (Midi-Chn.7) ****************@

TTSG_8:
@ 000   ----------------------------------------
	.byte		VOICE , 0
	.byte		VOL   , 85*TTSG_mvl/mxv
	.byte		PAN   , c_v+0
	.byte	W48
@ 001   ----------------------------------------
	.byte	W96
@ 002   ----------------------------------------
	.byte	W96
@ 003   ----------------------------------------
	.byte	W96
@ 004   ----------------------------------------
	.byte	W96
@ 005   ----------------------------------------
	.byte	W96
@ 006   ----------------------------------------
	.byte	W96
@ 007   ----------------------------------------
	.byte	W96
@ 008   ----------------------------------------
	.byte	W84
	.byte		TIE   , Gn2 , v112
	.byte		TIE   , As2 
	.byte	W12
@ 009   ----------------------------------------
	.byte	W92
	.byte	W03
	.byte		EOT   , Gn2 
	.byte		        As2 
	.byte	W01
@ 010   ----------------------------------------
	.byte	W84
	.byte		TIE   , Gn1 
	.byte	W12
@ 011   ----------------------------------------
	.byte	W92
	.byte	W03
	.byte		EOT   
	.byte	W01
@ 012   ----------------------------------------
	.byte	W84
	.byte		TIE   , Ds2 
	.byte		TIE   , Gn2 
	.byte		TIE   , As2 
	.byte	W12
@ 013   ----------------------------------------
	.byte	W92
	.byte	W03
	.byte		EOT   , Ds2 
	.byte		        Gn2 
	.byte		        As2 
	.byte	W01
@ 014   ----------------------------------------
	.byte	W84
	.byte		TIE   , Dn2 
	.byte		TIE   , Fn2 
	.byte		TIE   , An2 
	.byte		TIE   , Cn3 
	.byte	W12
@ 015   ----------------------------------------
	.byte	W92
	.byte	W03
	.byte		EOT   , Dn2 
	.byte		        Fn2 
	.byte		        An2 
	.byte		        Cn3 
	.byte	W01
@ 016   ----------------------------------------
	.byte	W96
@ 017   ----------------------------------------
	.byte	W96
@ 018   ----------------------------------------
	.byte	W96
@ 019   ----------------------------------------
	.byte	W96
@ 020   ----------------------------------------
	.byte	W96
@ 021   ----------------------------------------
	.byte	W96
@ 022   ----------------------------------------
	.byte	W96
@ 023   ----------------------------------------
	.byte	W96
@ 024   ----------------------------------------
	.byte	W96
@ 025   ----------------------------------------
	.byte	W96
@ 026   ----------------------------------------
	.byte	W96
@ 027   ----------------------------------------
	.byte	W96
@ 028   ----------------------------------------
	.byte	W96
@ 029   ----------------------------------------
	.byte	W96
@ 030   ----------------------------------------
	.byte	W96
@ 031   ----------------------------------------
	.byte	W96
@ 032   ----------------------------------------
	.byte	W96
@ 033   ----------------------------------------
	.byte	W96
@ 034   ----------------------------------------
	.byte	W96
@ 035   ----------------------------------------
	.byte	W96
@ 036   ----------------------------------------
	.byte	W96
@ 037   ----------------------------------------
	.byte	W96
@ 038   ----------------------------------------
	.byte	W96
@ 039   ----------------------------------------
	.byte	W96
@ 040   ----------------------------------------
	.byte	W96
@ 041   ----------------------------------------
	.byte	W96
@ 042   ----------------------------------------
	.byte	W96
@ 043   ----------------------------------------
	.byte	W96
@ 044   ----------------------------------------
	.byte	W96
@ 045   ----------------------------------------
	.byte	W96
@ 046   ----------------------------------------
	.byte	W96
@ 047   ----------------------------------------
	.byte	W96
@ 048   ----------------------------------------
	.byte	W96
@ 049   ----------------------------------------
	.byte	W96
@ 050   ----------------------------------------
	.byte	W96
@ 051   ----------------------------------------
	.byte	W96
@ 052   ----------------------------------------
	.byte	W96
@ 053   ----------------------------------------
	.byte	W96
@ 054   ----------------------------------------
	.byte	W96
@ 055   ----------------------------------------
	.byte	W96
@ 056   ----------------------------------------
	.byte	W96
@ 057   ----------------------------------------
	.byte	W96
@ 058   ----------------------------------------
	.byte	W96
@ 059   ----------------------------------------
	.byte	W96
@ 060   ----------------------------------------
	.byte	W96
@ 061   ----------------------------------------
	.byte	W96
@ 062   ----------------------------------------
	.byte	W96
@ 063   ----------------------------------------
	.byte	W96
@ 064   ----------------------------------------
	.byte	W96
@ 065   ----------------------------------------
	.byte	W96
@ 066   ----------------------------------------
	.byte	W96
@ 067   ----------------------------------------
	.byte	W96
@ 068   ----------------------------------------
	.byte	W96
@ 069   ----------------------------------------
	.byte	W96
@ 070   ----------------------------------------
	.byte	W96
@ 071   ----------------------------------------
	.byte	W96
@ 072   ----------------------------------------
	.byte	W96
@ 073   ----------------------------------------
	.byte	W96
@ 074   ----------------------------------------
	.byte	W96
@ 075   ----------------------------------------
	.byte	W96
@ 076   ----------------------------------------
	.byte	W96
@ 077   ----------------------------------------
	.byte	W96
@ 078   ----------------------------------------
	.byte	W96
@ 079   ----------------------------------------
	.byte	W96
@ 080   ----------------------------------------
	.byte	W96
@ 081   ----------------------------------------
	.byte	W96
@ 082   ----------------------------------------
	.byte	W96
@ 083   ----------------------------------------
	.byte	W96
@ 084   ----------------------------------------
	.byte	W96
@ 085   ----------------------------------------
	.byte	W96
@ 086   ----------------------------------------
	.byte	W96
@ 087   ----------------------------------------
	.byte	W96
@ 088   ----------------------------------------
	.byte	W96
@ 089   ----------------------------------------
	.byte	W96
@ 090   ----------------------------------------
	.byte	W96
@ 091   ----------------------------------------
	.byte	W96
@ 092   ----------------------------------------
	.byte	W96
@ 093   ----------------------------------------
	.byte	W96
@ 094   ----------------------------------------
	.byte	W96
@ 095   ----------------------------------------
	.byte	W96
@ 096   ----------------------------------------
	.byte	W96
@ 097   ----------------------------------------
	.byte	W96
@ 098   ----------------------------------------
	.byte	W96
@ 099   ----------------------------------------
	.byte	W96
@ 100   ----------------------------------------
	.byte	W96
@ 101   ----------------------------------------
	.byte	W96
@ 102   ----------------------------------------
	.byte	W96
@ 103   ----------------------------------------
	.byte	W96
@ 104   ----------------------------------------
	.byte	W96
@ 105   ----------------------------------------
	.byte	W96
@ 106   ----------------------------------------
	.byte	W96
@ 107   ----------------------------------------
	.byte	W96
@ 108   ----------------------------------------
	.byte	W96
@ 109   ----------------------------------------
	.byte	W96
@ 110   ----------------------------------------
	.byte	W96
@ 111   ----------------------------------------
	.byte	W96
@ 112   ----------------------------------------
	.byte	W96
@ 113   ----------------------------------------
	.byte	W96
@ 114   ----------------------------------------
	.byte	W96
@ 115   ----------------------------------------
	.byte	W96
@ 116   ----------------------------------------
	.byte	W96
@ 117   ----------------------------------------
	.byte	W96
@ 118   ----------------------------------------
	.byte	W96
@ 119   ----------------------------------------
	.byte	W96
@ 120   ----------------------------------------
	.byte	W96
@ 121   ----------------------------------------
	.byte	W96
@ 122   ----------------------------------------
	.byte	W96
@ 123   ----------------------------------------
	.byte	W96
@ 124   ----------------------------------------
	.byte	W96
@ 125   ----------------------------------------
	.byte	W96
@ 126   ----------------------------------------
	.byte	W96
@ 127   ----------------------------------------
	.byte	W96
@ 128   ----------------------------------------
	.byte	W96
@ 129   ----------------------------------------
	.byte	W96
@ 130   ----------------------------------------
	.byte	W96
@ 131   ----------------------------------------
	.byte	W96
@ 132   ----------------------------------------
	.byte	W96
@ 133   ----------------------------------------
	.byte	W96
@ 134   ----------------------------------------
	.byte	W96
@ 135   ----------------------------------------
	.byte	W96
@ 136   ----------------------------------------
	.byte	W96
@ 137   ----------------------------------------
	.byte	W96
@ 138   ----------------------------------------
	.byte	W96
@ 139   ----------------------------------------
	.byte	W96
@ 140   ----------------------------------------
	.byte	W96
@ 141   ----------------------------------------
	.byte	W96
@ 142   ----------------------------------------
	.byte	W96
@ 143   ----------------------------------------
	.byte	W96
@ 144   ----------------------------------------
	.byte	W96
@ 145   ----------------------------------------
	.byte	W96
@ 146   ----------------------------------------
	.byte	W96
@ 147   ----------------------------------------
	.byte	W96
@ 148   ----------------------------------------
	.byte	W96
@ 149   ----------------------------------------
	.byte	W96
@ 150   ----------------------------------------
	.byte	W96
@ 151   ----------------------------------------
	.byte	W96
@ 152   ----------------------------------------
	.byte	W96
@ 153   ----------------------------------------
	.byte	W96
@ 154   ----------------------------------------
	.byte	W96
@ 155   ----------------------------------------
	.byte	W96
@ 156   ----------------------------------------
	.byte	W96
@ 157   ----------------------------------------
	.byte	W96
@ 158   ----------------------------------------
	.byte	W96
@ 159   ----------------------------------------
	.byte	W96
@ 160   ----------------------------------------
	.byte	W96
@ 161   ----------------------------------------
	.byte	W96
@ 162   ----------------------------------------
	.byte	W96
@ 163   ----------------------------------------
	.byte	W96
@ 164   ----------------------------------------
	.byte	W96
@ 165   ----------------------------------------
	.byte	W96
@ 166   ----------------------------------------
	.byte	W96
@ 167   ----------------------------------------
	.byte	W96
@ 168   ----------------------------------------
	.byte	W96
@ 169   ----------------------------------------
	.byte	W96
@ 170   ----------------------------------------
	.byte	W96
@ 171   ----------------------------------------
	.byte	W96
@ 172   ----------------------------------------
	.byte	W96
@ 173   ----------------------------------------
	.byte	W96
@ 174   ----------------------------------------
	.byte	W96
@ 175   ----------------------------------------
	.byte	W96
@ 176   ----------------------------------------
	.byte	W96
@ 177   ----------------------------------------
	.byte	W96
@ 178   ----------------------------------------
	.byte	W96
@ 179   ----------------------------------------
	.byte	W96
@ 180   ----------------------------------------
	.byte	W96
@ 181   ----------------------------------------
	.byte	W96
@ 182   ----------------------------------------
	.byte	W96
@ 183   ----------------------------------------
	.byte	W96
@ 184   ----------------------------------------
	.byte	W96
@ 185   ----------------------------------------
	.byte	W96
@ 186   ----------------------------------------
	.byte	W96
@ 187   ----------------------------------------
	.byte	W96
@ 188   ----------------------------------------
	.byte	W96
@ 189   ----------------------------------------
	.byte	W96
@ 190   ----------------------------------------
	.byte	W96
@ 191   ----------------------------------------
	.byte	W96
@ 192   ----------------------------------------
	.byte	W96
@ 193   ----------------------------------------
	.byte	W96
@ 194   ----------------------------------------
	.byte	W96
@ 195   ----------------------------------------
	.byte	W96
@ 196   ----------------------------------------
	.byte	W96
@ 197   ----------------------------------------
	.byte	FINE

@**************** Track 9 (Midi-Chn.10) ****************@

TTSG_9:
@ 000   ----------------------------------------
	.byte		VOICE , 122
	.byte		VOL   , 99*TTSG_mvl/mxv
	.byte		PAN   , c_v+0
	.byte	W48
@ 001   ----------------------------------------
	.byte	W96
@ 002   ----------------------------------------
	.byte	W96
@ 003   ----------------------------------------
	.byte	W96
@ 004   ----------------------------------------
	.byte	W96
@ 005   ----------------------------------------
	.byte	W96
@ 006   ----------------------------------------
	.byte	W96
@ 007   ----------------------------------------
	.byte	W96
@ 008   ----------------------------------------
	.byte	W84
	.byte		N11   , Fs1 , v096
	.byte	W12
@ 009   ----------------------------------------
TTSG_9_009:
	.byte		N11   , Fs1 , v096
	.byte	W12
	.byte		N11   
	.byte	W12
	.byte		        Cn1 
	.byte		N11   , Fs1 
	.byte	W12
	.byte		N11   
	.byte	W12
	.byte		N11   
	.byte	W12
	.byte		N11   
	.byte	W12
	.byte		        Cn1 
	.byte		N11   , Fs1 
	.byte	W12
	.byte		N11   
	.byte	W12
	.byte	PEND
@ 010   ----------------------------------------
	.byte	PATT
	 .word	TTSG_9_009
@ 011   ----------------------------------------
	.byte	PATT
	 .word	TTSG_9_009
@ 012   ----------------------------------------
	.byte	PATT
	 .word	TTSG_9_009
@ 013   ----------------------------------------
	.byte	PATT
	 .word	TTSG_9_009
@ 014   ----------------------------------------
	.byte	PATT
	 .word	TTSG_9_009
@ 015   ----------------------------------------
	.byte		N11   , Cn1 , v096
	.byte		N11   , Fs1 
	.byte	W12
	.byte		N11   
	.byte	W12
	.byte		        Cn1 
	.byte		N11   , Fs1 
	.byte	W12
	.byte		N11   
	.byte	W12
	.byte		        Cn1 
	.byte		N11   , Fs1 
	.byte	W12
	.byte		N11   
	.byte	W12
	.byte		        Cn1 
	.byte		N11   , Fs1 
	.byte	W12
	.byte		N11   
	.byte	W12
@ 016   ----------------------------------------
	.byte		        En1 
	.byte	W12
	.byte		N11   
	.byte	W12
	.byte		N11   
	.byte	W12
	.byte		N11   
	.byte	W12
	.byte		N11   
	.byte	W12
	.byte		N11   
	.byte	W12
	.byte		N11   
	.byte	W12
	.byte		N23   , Cn1 
	.byte		N23   , En2 
	.byte	W12
@ 017   ----------------------------------------
TTSG_9_017:
	.byte	W12
	.byte		N11   , Cn1 , v096
	.byte	W12
	.byte		        En1 
	.byte		N11   , As1 
	.byte	W12
	.byte		        Cn1 
	.byte	W12
	.byte		N11   
	.byte		N11   , As1 
	.byte	W12
	.byte		        Cn1 
	.byte	W12
	.byte		        En1 
	.byte		N11   , As1 
	.byte	W12
	.byte		        Cn1 
	.byte	W12
	.byte	PEND
@ 018   ----------------------------------------
TTSG_9_018:
	.byte		N11   , Cn1 , v096
	.byte		N11   , As1 
	.byte	W12
	.byte		        Cn1 
	.byte	W12
	.byte		        En1 
	.byte		N11   , As1 
	.byte	W12
	.byte		        Cn1 
	.byte	W12
	.byte		N11   
	.byte		N11   , As1 
	.byte	W12
	.byte		        Cn1 
	.byte	W12
	.byte		        En1 
	.byte		N11   , As1 
	.byte	W12
	.byte		N23   , Cn1 
	.byte	W12
	.byte	PEND
@ 019   ----------------------------------------
TTSG_9_019:
	.byte		N11   , As1 , v096
	.byte	W12
	.byte		        Cn1 
	.byte	W12
	.byte		        En1 
	.byte		N11   , As1 
	.byte	W12
	.byte		        Cn1 
	.byte	W12
	.byte		N11   
	.byte		N11   , As1 
	.byte	W12
	.byte		        Cn1 
	.byte	W12
	.byte		        En1 
	.byte		N11   , As1 
	.byte	W12
	.byte		        Cn1 
	.byte	W12
	.byte	PEND
@ 020   ----------------------------------------
TTSG_9_020:
	.byte		N11   , Cn1 , v096
	.byte		N11   , As1 
	.byte	W12
	.byte		        Cn1 
	.byte	W12
	.byte		        En1 
	.byte		N11   , As1 
	.byte	W12
	.byte		        Cn1 
	.byte	W12
	.byte		N11   
	.byte		N11   , As1 
	.byte	W12
	.byte		        Cn1 
	.byte	W12
	.byte		        En1 
	.byte		N11   , As1 
	.byte	W12
	.byte		N23   , Cn1 
	.byte		N11   , En2 
	.byte	W12
	.byte	PEND
@ 021   ----------------------------------------
	.byte	PATT
	 .word	TTSG_9_019
@ 022   ----------------------------------------
TTSG_9_022:
	.byte		N11   , Cn1 , v096
	.byte		N11   , As1 
	.byte	W12
	.byte		        Cn1 
	.byte	W12
	.byte		        En1 
	.byte		N11   , As1 
	.byte	W12
	.byte		        Cn1 
	.byte	W12
	.byte		N11   
	.byte		N11   , As1 
	.byte	W12
	.byte		        Cn1 
	.byte	W12
	.byte		        En1 
	.byte		N11   , As1 
	.byte	W12
	.byte		N23   , Cn1 
	.byte		N23   , En2 
	.byte	W12
	.byte	PEND
@ 023   ----------------------------------------
TTSG_9_023:
	.byte	W12
	.byte		N11   , Cn1 , v096
	.byte	W12
	.byte		        En1 
	.byte		N11   , En2 
	.byte	W12
	.byte		        Cn1 
	.byte	W12
	.byte		N11   
	.byte		N11   , En2 
	.byte	W12
	.byte		        Cn1 
	.byte	W12
	.byte		        En1 
	.byte		N11   , En2 
	.byte	W12
	.byte		        Cn1 
	.byte	W12
	.byte	PEND
@ 024   ----------------------------------------
TTSG_9_024:
	.byte		N11   , Cn1 , v096
	.byte		N11   , En2 
	.byte	W12
	.byte		        Cn1 
	.byte	W12
	.byte		        En1 
	.byte		N11   , En2 
	.byte	W12
	.byte		        Cn1 
	.byte	W12
	.byte		N11   
	.byte		N11   , En2 
	.byte	W12
	.byte		        Cn1 
	.byte	W12
	.byte		        En1 
	.byte	W12
	.byte		N23   , Cn1 
	.byte		N23   , En2 
	.byte	W12
	.byte	PEND
@ 025   ----------------------------------------
	.byte	PATT
	 .word	TTSG_9_017
@ 026   ----------------------------------------
	.byte	PATT
	 .word	TTSG_9_018
@ 027   ----------------------------------------
	.byte	PATT
	 .word	TTSG_9_019
@ 028   ----------------------------------------
	.byte	PATT
	 .word	TTSG_9_022
@ 029   ----------------------------------------
	.byte	PATT
	 .word	TTSG_9_017
@ 030   ----------------------------------------
	.byte	PATT
	 .word	TTSG_9_022
@ 031   ----------------------------------------
	.byte	PATT
	 .word	TTSG_9_023
@ 032   ----------------------------------------
TTSG_9_032:
	.byte		N11   , Cn1 , v096
	.byte		N11   , En2 
	.byte	W12
	.byte		        Cn1 
	.byte	W12
	.byte		        En1 
	.byte		N11   , En2 
	.byte	W12
	.byte		        Cn1 
	.byte	W12
	.byte		N11   
	.byte		N11   , En2 
	.byte	W12
	.byte		        Cn1 
	.byte	W12
	.byte		        En1 
	.byte		N11   , En2 
	.byte	W12
	.byte		        Cn1 
	.byte	W12
	.byte	PEND
@ 033   ----------------------------------------
	.byte		        En1 
	.byte		N11   , En2 
	.byte	W12
	.byte		        Cn1 
	.byte	W12
	.byte		N11   
	.byte	W12
	.byte		N11   
	.byte		N11   , En1 
	.byte	W12
	.byte		        Cn1 
	.byte	W12
	.byte		N11   
	.byte	W12
	.byte		        En1 
	.byte		N11   , Cs2 
	.byte	W12
	.byte		        Cn1 
	.byte	W12
@ 034   ----------------------------------------
	.byte		        En1 
	.byte	W12
	.byte		N11   
	.byte	W12
	.byte		N11   
	.byte	W12
	.byte		N11   
	.byte	W12
	.byte		N11   
	.byte	W12
	.byte		N11   
	.byte	W12
	.byte		N11   
	.byte	W12
	.byte		N23   , Cn1 
	.byte		N11   , Cs2 
	.byte	W12
@ 035   ----------------------------------------
	.byte	PATT
	 .word	TTSG_9_023
@ 036   ----------------------------------------
TTSG_9_036:
	.byte		N11   , Cn1 , v096
	.byte		N11   , En2 
	.byte	W12
	.byte		        Cn1 
	.byte	W12
	.byte		        En1 
	.byte		N11   , En2 
	.byte	W12
	.byte		        Cn1 
	.byte	W12
	.byte		N11   
	.byte		N11   , En2 
	.byte	W12
	.byte		        Cn1 
	.byte	W12
	.byte		        En1 
	.byte		N11   , En2 
	.byte	W12
	.byte		N23   , Cn1 
	.byte	W12
	.byte	PEND
@ 037   ----------------------------------------
TTSG_9_037:
	.byte		N11   , En2 , v096
	.byte	W12
	.byte		        Cn1 
	.byte	W12
	.byte		        En1 
	.byte		N11   , En2 
	.byte	W12
	.byte		        Cn1 
	.byte	W12
	.byte		N11   
	.byte		N11   , En2 
	.byte	W12
	.byte		        Cn1 
	.byte	W12
	.byte		        En1 
	.byte		N11   , En2 
	.byte	W12
	.byte		        Cn1 
	.byte	W12
	.byte	PEND
@ 038   ----------------------------------------
	.byte	PATT
	 .word	TTSG_9_036
@ 039   ----------------------------------------
	.byte	PATT
	 .word	TTSG_9_037
@ 040   ----------------------------------------
	.byte	PATT
	 .word	TTSG_9_036
@ 041   ----------------------------------------
	.byte	PATT
	 .word	TTSG_9_037
@ 042   ----------------------------------------
	.byte	PATT
	 .word	TTSG_9_036
@ 043   ----------------------------------------
	.byte	PATT
	 .word	TTSG_9_037
@ 044   ----------------------------------------
	.byte	PATT
	 .word	TTSG_9_036
@ 045   ----------------------------------------
	.byte	PATT
	 .word	TTSG_9_037
@ 046   ----------------------------------------
	.byte	PATT
	 .word	TTSG_9_036
@ 047   ----------------------------------------
	.byte	PATT
	 .word	TTSG_9_037
@ 048   ----------------------------------------
	.byte	PATT
	 .word	TTSG_9_036
@ 049   ----------------------------------------
	.byte	PATT
	 .word	TTSG_9_037
@ 050   ----------------------------------------
	.byte		N11   , Cn1 , v096
	.byte		N11   , En2 
	.byte	W12
	.byte		        Cn1 
	.byte	W12
	.byte		        En1 
	.byte		N11   , En2 
	.byte	W12
	.byte		        Cn1 
	.byte	W12
	.byte		        En1 
	.byte		N11   , En2 
	.byte	W12
	.byte		        Gn1 
	.byte	W12
	.byte		        Fn1 
	.byte		N11   , En2 
	.byte	W12
	.byte		N23   , Cn1 
	.byte	W12
@ 051   ----------------------------------------
	.byte	PATT
	 .word	TTSG_9_017
@ 052   ----------------------------------------
	.byte	PATT
	 .word	TTSG_9_018
@ 053   ----------------------------------------
	.byte	PATT
	 .word	TTSG_9_019
@ 054   ----------------------------------------
	.byte	PATT
	 .word	TTSG_9_020
@ 055   ----------------------------------------
	.byte	PATT
	 .word	TTSG_9_017
@ 056   ----------------------------------------
	.byte	PATT
	 .word	TTSG_9_020
@ 057   ----------------------------------------
	.byte	PATT
	 .word	TTSG_9_017
@ 058   ----------------------------------------
	.byte		N11   , Cn1 , v096
	.byte		N11   , As1 
	.byte	W12
	.byte		        En1 
	.byte	W12
	.byte		N11   
	.byte	W12
	.byte		N11   
	.byte	W12
	.byte		N11   
	.byte	W12
	.byte		        Gn1 
	.byte	W12
	.byte		        Fn1 
	.byte	W12
	.byte		N23   , Cn1 
	.byte		N11   , En2 
	.byte	W12
@ 059   ----------------------------------------
	.byte	PATT
	 .word	TTSG_9_017
@ 060   ----------------------------------------
	.byte	PATT
	 .word	TTSG_9_018
@ 061   ----------------------------------------
	.byte	PATT
	 .word	TTSG_9_017
@ 062   ----------------------------------------
	.byte	PATT
	 .word	TTSG_9_022
@ 063   ----------------------------------------
	.byte	PATT
	 .word	TTSG_9_023
@ 064   ----------------------------------------
	.byte	PATT
	 .word	TTSG_9_032
@ 065   ----------------------------------------
	.byte	PATT
	 .word	TTSG_9_032
@ 066   ----------------------------------------
	.byte	PATT
	 .word	TTSG_9_024
@ 067   ----------------------------------------
	.byte	PATT
	 .word	TTSG_9_023
@ 068   ----------------------------------------
	.byte	PATT
	 .word	TTSG_9_032
@ 069   ----------------------------------------
	.byte		N07   , En1 , v096
	.byte	W08
	.byte		N07   
	.byte	W08
	.byte		N07   
	.byte	W08
	.byte		N07   
	.byte	W08
	.byte		N07   
	.byte	W08
	.byte		N07   
	.byte	W08
	.byte		        An1 
	.byte	W08
	.byte		N07   
	.byte	W08
	.byte		N07   
	.byte	W08
	.byte		N07   
	.byte	W08
	.byte		N07   
	.byte	W08
	.byte		N07   
	.byte	W08
@ 070   ----------------------------------------
	.byte		        Gn1 
	.byte	W08
	.byte		N07   
	.byte	W08
	.byte		N07   
	.byte	W08
	.byte		N07   
	.byte	W08
	.byte		N07   
	.byte	W08
	.byte		N07   
	.byte	W08
	.byte		        Fn1 
	.byte	W08
	.byte		N07   
	.byte	W08
	.byte		N07   
	.byte	W08
	.byte		N07   
	.byte	W08
	.byte		N07   
	.byte	W08
	.byte		        Cn1 
	.byte		N19   , En2 
	.byte	W08
@ 071   ----------------------------------------
TTSG_9_071:
	.byte		N11   , Cn1 , v096
	.byte	W12
	.byte		N11   
	.byte	W12
	.byte		        En1 
	.byte		N11   , As1 
	.byte	W12
	.byte		        Cn1 
	.byte	W12
	.byte		N11   
	.byte		N11   , As1 
	.byte	W12
	.byte		        Cn1 
	.byte	W12
	.byte		        En1 
	.byte		N11   , As1 
	.byte	W12
	.byte		        Cn1 
	.byte	W12
	.byte	PEND
@ 072   ----------------------------------------
	.byte	PATT
	 .word	TTSG_9_022
@ 073   ----------------------------------------
	.byte	PATT
	 .word	TTSG_9_017
@ 074   ----------------------------------------
	.byte	PATT
	 .word	TTSG_9_022
@ 075   ----------------------------------------
	.byte	PATT
	 .word	TTSG_9_017
@ 076   ----------------------------------------
	.byte		N11   , Cn1 , v096
	.byte		N11   , As1 
	.byte	W12
	.byte		        Cn1 
	.byte	W12
	.byte		        En1 
	.byte		N11   , As1 
	.byte	W12
	.byte		        Cn1 
	.byte	W12
	.byte		N11   
	.byte		N11   , As1 
	.byte	W12
	.byte		        Cn1 
	.byte	W12
	.byte		        En1 
	.byte		N11   , As1 
	.byte	W12
	.byte		N23   , Cn1 
	.byte		N23   , As1 
	.byte	W12
@ 077   ----------------------------------------
	.byte	PATT
	 .word	TTSG_9_017
@ 078   ----------------------------------------
	.byte		N11   , Cn1 , v096
	.byte		N11   , As1 
	.byte	W12
	.byte		        Cn1 
	.byte	W12
	.byte		        En1 
	.byte		N11   , As1 
	.byte	W12
	.byte		        Cn1 
	.byte	W12
	.byte		N11   
	.byte		N11   , En1 
	.byte		N11   , As1 
	.byte	W12
	.byte		        Cn1 
	.byte		N11   , En1 
	.byte	W12
	.byte		N11   
	.byte	W12
	.byte		N23   , Cn1 
	.byte	W12
@ 079   ----------------------------------------
	.byte	PATT
	 .word	TTSG_9_017
@ 080   ----------------------------------------
	.byte	PATT
	 .word	TTSG_9_018
@ 081   ----------------------------------------
	.byte	PATT
	 .word	TTSG_9_019
@ 082   ----------------------------------------
	.byte	PATT
	 .word	TTSG_9_022
@ 083   ----------------------------------------
	.byte	PATT
	 .word	TTSG_9_023
@ 084   ----------------------------------------
	.byte		N11   , Cn1 , v096
	.byte		N11   , En2 
	.byte	W12
	.byte		        Cn1 
	.byte	W12
	.byte		        En1 
	.byte		N11   , En2 
	.byte	W12
	.byte		        Cn1 
	.byte	W12
	.byte		N11   
	.byte		N11   , En2 
	.byte	W12
	.byte		        Cn1 
	.byte	W12
	.byte		        En1 
	.byte		N11   , En2 
	.byte	W12
	.byte		        Cn1 
	.byte		N11   , En2 
	.byte	W12
@ 085   ----------------------------------------
	.byte		        En1 
	.byte		N11   , Ds2 
	.byte	W12
	.byte		        Cn1 
	.byte	W12
	.byte		N11   
	.byte	W12
	.byte		        En1 
	.byte		N11   , Ds2 
	.byte	W12
	.byte		        Cn1 
	.byte	W12
	.byte		N11   
	.byte	W12
	.byte		        En1 
	.byte		N11   , Ds2 
	.byte	W12
	.byte		        Cn1 
	.byte	W12
@ 086   ----------------------------------------
	.byte		        En1 
	.byte		N11   , Ds2 
	.byte	W12
	.byte		        En1 
	.byte	W12
	.byte		N11   
	.byte		N11   , Ds2 
	.byte	W12
	.byte		        En1 
	.byte	W12
	.byte		        Gn1 
	.byte	W12
	.byte		N11   
	.byte	W12
	.byte		        Fn1 
	.byte	W12
	.byte		        Cn1 
	.byte		N23   , Cs2 
	.byte	W12
@ 087   ----------------------------------------
	.byte	PATT
	 .word	TTSG_9_071
@ 088   ----------------------------------------
TTSG_9_088:
	.byte		N11   , Cn1 , v096
	.byte		N11   , As1 
	.byte	W12
	.byte		        Cn1 
	.byte	W12
	.byte		        En1 
	.byte		N11   , As1 
	.byte	W12
	.byte		        Cn1 
	.byte	W12
	.byte		N11   
	.byte		N11   , As1 
	.byte	W12
	.byte		        Cn1 
	.byte	W12
	.byte		        En1 
	.byte		N11   , As1 
	.byte	W12
	.byte		        Cn1 
	.byte	W12
	.byte	PEND
@ 089   ----------------------------------------
	.byte	PATT
	 .word	TTSG_9_071
@ 090   ----------------------------------------
	.byte	PATT
	 .word	TTSG_9_088
@ 091   ----------------------------------------
	.byte	PATT
	 .word	TTSG_9_071
@ 092   ----------------------------------------
	.byte	PATT
	 .word	TTSG_9_088
@ 093   ----------------------------------------
	.byte	PATT
	 .word	TTSG_9_071
@ 094   ----------------------------------------
	.byte	PATT
	 .word	TTSG_9_088
@ 095   ----------------------------------------
	.byte	PATT
	 .word	TTSG_9_071
@ 096   ----------------------------------------
	.byte	PATT
	 .word	TTSG_9_088
@ 097   ----------------------------------------
	.byte	PATT
	 .word	TTSG_9_071
@ 098   ----------------------------------------
	.byte	PATT
	 .word	TTSG_9_088
@ 099   ----------------------------------------
	.byte	PATT
	 .word	TTSG_9_071
@ 100   ----------------------------------------
	.byte	PATT
	 .word	TTSG_9_088
@ 101   ----------------------------------------
	.byte	PATT
	 .word	TTSG_9_088
@ 102   ----------------------------------------
	.byte	PATT
	 .word	TTSG_9_088
@ 103   ----------------------------------------
TTSG_9_103:
	.byte		N07   , En1 , v096
	.byte		N07   , En2 
	.byte	W08
	.byte		        Cn1 
	.byte	W08
	.byte		N07   
	.byte	W08
	.byte		N07   
	.byte	W08
	.byte		N07   
	.byte	W08
	.byte		N07   
	.byte	W08
	.byte		        En1 
	.byte		N07   , Cs2 
	.byte	W08
	.byte		        Cn1 
	.byte	W08
	.byte		N07   
	.byte	W08
	.byte		N07   
	.byte	W08
	.byte		N07   
	.byte	W08
	.byte		N07   
	.byte	W08
	.byte	PEND
@ 104   ----------------------------------------
TTSG_9_104:
	.byte		N05   , En1 , v096
	.byte	W06
	.byte		N05   
	.byte	W06
	.byte		N05   
	.byte	W06
	.byte		N05   
	.byte	W06
	.byte		N05   
	.byte	W06
	.byte		N05   
	.byte	W06
	.byte		N05   
	.byte	W06
	.byte		N05   
	.byte	W06
	.byte		N23   , Cn1 
	.byte		N23   , En1 
	.byte	W36
	.byte		        Cn1 
	.byte		N23   , En2 
	.byte	W12
	.byte	PEND
@ 105   ----------------------------------------
	.byte	PATT
	 .word	TTSG_9_023
@ 106   ----------------------------------------
	.byte	PATT
	 .word	TTSG_9_036
@ 107   ----------------------------------------
	.byte	PATT
	 .word	TTSG_9_037
@ 108   ----------------------------------------
	.byte	PATT
	 .word	TTSG_9_036
@ 109   ----------------------------------------
	.byte	PATT
	 .word	TTSG_9_037
@ 110   ----------------------------------------
	.byte	PATT
	 .word	TTSG_9_036
@ 111   ----------------------------------------
	.byte	PATT
	 .word	TTSG_9_037
@ 112   ----------------------------------------
	.byte	PATT
	 .word	TTSG_9_036
@ 113   ----------------------------------------
	.byte	PATT
	 .word	TTSG_9_037
@ 114   ----------------------------------------
	.byte	PATT
	 .word	TTSG_9_036
@ 115   ----------------------------------------
	.byte	PATT
	 .word	TTSG_9_037
@ 116   ----------------------------------------
	.byte	PATT
	 .word	TTSG_9_036
@ 117   ----------------------------------------
TTSG_9_117:
	.byte		N11   , En2 , v096
	.byte	W12
	.byte		        Cn1 
	.byte	W12
	.byte		        En1 
	.byte		N11   , En2 
	.byte	W12
	.byte		        Cn1 
	.byte	W12
	.byte		N11   
	.byte		N11   , En2 
	.byte	W12
	.byte		        Cn1 
	.byte	W12
	.byte		        En1 
	.byte		N11   , En2 
	.byte	W12
	.byte		N23   , Cn1 
	.byte	W12
	.byte	PEND
@ 118   ----------------------------------------
	.byte		N11   , En2 
	.byte	W12
	.byte		        Cn1 
	.byte	W12
	.byte		        En1 
	.byte		N11   , En2 
	.byte	W12
	.byte		        Cn1 
	.byte	W12
	.byte		N11   
	.byte		N11   , En2 
	.byte	W12
	.byte		        Cn1 
	.byte	W12
	.byte		        En1 
	.byte		N11   , En2 
	.byte	W12
	.byte		        Cn1 
	.byte		N11   , En2 
	.byte	W12
@ 119   ----------------------------------------
	.byte	W96
@ 120   ----------------------------------------
	.byte	W84
	.byte		N32   , Cn1 
	.byte	W12
@ 121   ----------------------------------------
TTSG_9_121:
	.byte	W24
	.byte		N32   , Cn1 , v096
	.byte	W36
	.byte		N23   
	.byte	W24
	.byte		N11   , Gn1 
	.byte	W12
	.byte	PEND
@ 122   ----------------------------------------
	.byte	W84
	.byte		N32   , Cn1 
	.byte	W12
@ 123   ----------------------------------------
	.byte	PATT
	 .word	TTSG_9_121
@ 124   ----------------------------------------
	.byte	W36
	.byte		N11   , Gn1 , v096
	.byte	W12
	.byte		        Fn1 
	.byte	W12
	.byte		N11   
	.byte	W12
	.byte		N11   
	.byte	W12
	.byte		N32   , Cn1 
	.byte	W12
@ 125   ----------------------------------------
	.byte	PATT
	 .word	TTSG_9_121
@ 126   ----------------------------------------
TTSG_9_126:
	.byte	W60
	.byte		N11   , Fn1 , v096
	.byte	W12
	.byte		N11   
	.byte	W12
	.byte		N32   , Cn1 
	.byte	W12
	.byte	PEND
@ 127   ----------------------------------------
TTSG_9_127:
	.byte	W24
	.byte		N32   , Cn1 , v096
	.byte	W36
	.byte		N23   
	.byte	W24
	.byte		        Gn1 
	.byte	W12
	.byte	PEND
@ 128   ----------------------------------------
	.byte	W12
	.byte		        Cn1 
	.byte	W24
	.byte		N11   , Gn1 
	.byte	W24
	.byte		N11   
	.byte	W12
	.byte		N11   
	.byte	W12
	.byte		N32   , Cn1 
	.byte	W12
@ 129   ----------------------------------------
	.byte	PATT
	 .word	TTSG_9_121
@ 130   ----------------------------------------
	.byte	W84
	.byte		N32   , Cn1 , v096
	.byte	W12
@ 131   ----------------------------------------
	.byte	PATT
	 .word	TTSG_9_121
@ 132   ----------------------------------------
	.byte	W36
	.byte		N11   , Fn1 , v096
	.byte	W12
	.byte		N11   
	.byte	W12
	.byte		N11   
	.byte	W12
	.byte		N11   
	.byte	W12
	.byte		N32   , Cn1 
	.byte	W12
@ 133   ----------------------------------------
	.byte	PATT
	 .word	TTSG_9_121
@ 134   ----------------------------------------
	.byte	PATT
	 .word	TTSG_9_126
@ 135   ----------------------------------------
	.byte	PATT
	 .word	TTSG_9_127
@ 136   ----------------------------------------
	.byte	W84
	.byte		N23   , En1 , v096
	.byte	W12
@ 137   ----------------------------------------
TTSG_9_137:
	.byte	W12
	.byte		N11   , En1 , v096
	.byte	W12
	.byte		N11   
	.byte	W60
	.byte		N11   
	.byte	W12
	.byte	PEND
@ 138   ----------------------------------------
	.byte	W24
	.byte		N11   
	.byte	W12
	.byte		N11   
	.byte	W12
	.byte		N11   
	.byte	W12
	.byte		N11   
	.byte	W24
	.byte		N23   
	.byte	W12
@ 139   ----------------------------------------
	.byte	PATT
	 .word	TTSG_9_137
@ 140   ----------------------------------------
	.byte	W36
	.byte		N11   , En1 , v096
	.byte	W12
	.byte		N11   
	.byte	W12
	.byte		N11   
	.byte	W12
	.byte		N11   
	.byte	W12
	.byte		N32   
	.byte	W12
@ 141   ----------------------------------------
	.byte	W24
	.byte		N32   
	.byte	W36
	.byte		N23   
	.byte	W24
	.byte		N23   
	.byte	W12
@ 142   ----------------------------------------
TTSG_9_142:
	.byte	W36
	.byte		N11   , En1 , v096
	.byte	W12
	.byte		N11   
	.byte	W12
	.byte		N11   
	.byte	W12
	.byte		N11   
	.byte	W12
	.byte		N23   
	.byte	W12
	.byte	PEND
@ 143   ----------------------------------------
TTSG_9_143:
	.byte	W12
	.byte		N11   , En1 , v096
	.byte	W12
	.byte		N23   
	.byte	W24
	.byte		N11   
	.byte	W12
	.byte		N11   
	.byte	W12
	.byte		N11   
	.byte	W12
	.byte		N11   
	.byte	W12
	.byte	PEND
@ 144   ----------------------------------------
	.byte	W84
	.byte		N32   
	.byte	W12
@ 145   ----------------------------------------
	.byte	W24
	.byte		N32   
	.byte	W36
	.byte		N32   
	.byte	W36
@ 146   ----------------------------------------
	.byte	PATT
	 .word	TTSG_9_142
@ 147   ----------------------------------------
	.byte	PATT
	 .word	TTSG_9_143
@ 148   ----------------------------------------
	.byte	W36
	.byte		N11   , En1 , v096
	.byte	W48
	.byte		N11   
	.byte	W12
@ 149   ----------------------------------------
	.byte	W96
@ 150   ----------------------------------------
	.byte	W96
@ 151   ----------------------------------------
	.byte	W96
@ 152   ----------------------------------------
	.byte	W96
@ 153   ----------------------------------------
	.byte	W96
@ 154   ----------------------------------------
	.byte	W96
@ 155   ----------------------------------------
	.byte	W96
@ 156   ----------------------------------------
	.byte	W96
@ 157   ----------------------------------------
	.byte	W96
@ 158   ----------------------------------------
	.byte	W96
@ 159   ----------------------------------------
	.byte	W96
@ 160   ----------------------------------------
	.byte		N07   
	.byte	W08
	.byte		N07   
	.byte	W08
	.byte		N07   
	.byte	W08
	.byte		N07   
	.byte	W08
	.byte		N07   
	.byte	W08
	.byte		N07   
	.byte	W08
	.byte		N07   
	.byte	W08
	.byte		N07   
	.byte	W08
	.byte		N07   
	.byte	W08
	.byte		N07   
	.byte	W08
	.byte		N07   
	.byte	W08
	.byte		N07   
	.byte	W08
@ 161   ----------------------------------------
	.byte		        An1 
	.byte	W08
	.byte		N07   
	.byte	W08
	.byte		N07   
	.byte	W08
	.byte		        Gn1 
	.byte	W08
	.byte		N07   
	.byte	W08
	.byte		N07   
	.byte	W08
	.byte		        Fn1 
	.byte	W08
	.byte		N07   
	.byte	W08
	.byte		N07   
	.byte	W08
	.byte		N11   
	.byte	W12
	.byte		N23   , Cn1 
	.byte		N23   , En2 
	.byte	W12
@ 162   ----------------------------------------
	.byte	PATT
	 .word	TTSG_9_017
@ 163   ----------------------------------------
	.byte	PATT
	 .word	TTSG_9_018
@ 164   ----------------------------------------
	.byte	PATT
	 .word	TTSG_9_017
@ 165   ----------------------------------------
	.byte	PATT
	 .word	TTSG_9_018
@ 166   ----------------------------------------
	.byte	PATT
	 .word	TTSG_9_017
@ 167   ----------------------------------------
	.byte	PATT
	 .word	TTSG_9_020
@ 168   ----------------------------------------
	.byte	PATT
	 .word	TTSG_9_017
@ 169   ----------------------------------------
	.byte	PATT
	 .word	TTSG_9_022
@ 170   ----------------------------------------
	.byte	PATT
	 .word	TTSG_9_017
@ 171   ----------------------------------------
	.byte	PATT
	 .word	TTSG_9_018
@ 172   ----------------------------------------
	.byte	PATT
	 .word	TTSG_9_017
@ 173   ----------------------------------------
	.byte	PATT
	 .word	TTSG_9_020
@ 174   ----------------------------------------
	.byte	PATT
	 .word	TTSG_9_017
@ 175   ----------------------------------------
	.byte	PATT
	 .word	TTSG_9_018
@ 176   ----------------------------------------
	.byte	PATT
	 .word	TTSG_9_017
@ 177   ----------------------------------------
	.byte	PATT
	 .word	TTSG_9_088
@ 178   ----------------------------------------
	.byte	PATT
	 .word	TTSG_9_103
@ 179   ----------------------------------------
	.byte	PATT
	 .word	TTSG_9_104
@ 180   ----------------------------------------
	.byte	PATT
	 .word	TTSG_9_023
@ 181   ----------------------------------------
	.byte	PATT
	 .word	TTSG_9_036
@ 182   ----------------------------------------
	.byte	PATT
	 .word	TTSG_9_037
@ 183   ----------------------------------------
	.byte	PATT
	 .word	TTSG_9_036
@ 184   ----------------------------------------
	.byte	PATT
	 .word	TTSG_9_037
@ 185   ----------------------------------------
	.byte	PATT
	 .word	TTSG_9_036
@ 186   ----------------------------------------
	.byte	PATT
	 .word	TTSG_9_037
@ 187   ----------------------------------------
	.byte	PATT
	 .word	TTSG_9_036
@ 188   ----------------------------------------
	.byte	PATT
	 .word	TTSG_9_037
@ 189   ----------------------------------------
	.byte	PATT
	 .word	TTSG_9_036
@ 190   ----------------------------------------
	.byte	PATT
	 .word	TTSG_9_037
@ 191   ----------------------------------------
	.byte	PATT
	 .word	TTSG_9_036
@ 192   ----------------------------------------
	.byte	PATT
	 .word	TTSG_9_117
@ 193   ----------------------------------------
	.byte		N11   , En2 , v096
	.byte	W12
	.byte		        Cn1 
	.byte	W12
	.byte		        En1 
	.byte		N11   , En2 
	.byte	W12
	.byte		        Cn1 
	.byte	W12
	.byte		N11   
	.byte		N11   , En2 
	.byte	W12
	.byte		        Cn1 
	.byte	W12
	.byte		        En1 
	.byte		N11   , En2 
	.byte	W24
@ 194   ----------------------------------------
	.byte	W96
@ 195   ----------------------------------------
	.byte		        En1 
	.byte	W12
	.byte		N11   
	.byte	W12
	.byte		N11   
	.byte	W12
	.byte		N11   
	.byte	W12
	.byte		N11   
	.byte	W12
	.byte		N11   
	.byte	W12
	.byte		N11   
	.byte	W12
	.byte		TIE   , En2 
	.byte	W12
@ 196   ----------------------------------------
	.byte	W92
	.byte	W03
	.byte		EOT   
	.byte	W01
@ 197   ----------------------------------------
	.byte	FINE

@******************************************************@
	.align	2

TTSG:
	.byte	9	@ NumTrks
	.byte	0	@ NumBlks
	.byte	TTSG_pri	@ Priority
	.byte	TTSG_rev	@ Reverb.

	.word	TTSG_grp

	.word	TTSG_1
	.word	TTSG_2
	.word	TTSG_3
	.word	TTSG_4
	.word	TTSG_5
	.word	TTSG_6
	.word	TTSG_7
	.word	TTSG_8
	.word	TTSG_9

	.end
