	.include "MPlayDef.s"

	.equ	wings0_grp, voicegroup000
	.equ	wings0_pri, 0
	.equ	wings0_rev, 0
	.equ	wings0_mvl, 67
	.equ	wings0_key, 0
	.equ	wings0_tbs, 1
	.equ	wings0_exg, 0
	.equ	wings0_cmp, 1

	.section .rodata
	.global	wings0
	.align	2

@**************** Track 1 (Midi-Chn.1) ****************@

wings0_1:
	.byte	KEYSH , wings0_key+0
@ 000   ----------------------------------------
	.byte	TEMPO , 60*wings0_tbs/2
	.byte		VOICE , 85
	.byte		VOL   , 100*wings0_mvl/mxv
	.byte		PAN   , c_v+0
	.byte	W96
@ 001   ----------------------------------------
	.byte	W96
@ 002   ----------------------------------------
	.byte	W96
@ 003   ----------------------------------------
	.byte	W96
@ 004   ----------------------------------------
	.byte	W96
@ 005   ----------------------------------------
	.byte	W96
@ 006   ----------------------------------------
wings0_1_006:
	.byte		N32   , An4 , v112
	.byte	W36
	.byte		N56   , Dn4 
	.byte	W60
	.byte	PEND
@ 007   ----------------------------------------
	.byte	W72
	.byte		N05   , Bn3 
	.byte	W06
	.byte		N11   , Dn4 
	.byte	W12
	.byte		N05   , Bn3 
	.byte	W06
@ 008   ----------------------------------------
wings0_1_008:
	.byte		N32   , En4 , v112
	.byte	W36
	.byte		N56   , An3 
	.byte	W60
	.byte	PEND
@ 009   ----------------------------------------
wings0_1_009:
	.byte	W84
	.byte		N05   , Fs4 , v112
	.byte	W06
	.byte		        An4 
	.byte	W06
	.byte	PEND
@ 010   ----------------------------------------
	.byte	PATT
	 .word	wings0_1_006
@ 011   ----------------------------------------
wings0_1_011:
	.byte	W84
	.byte		N05   , Dn4 , v112
	.byte	W06
	.byte		        En4 
	.byte	W06
	.byte	PEND
@ 012   ----------------------------------------
wings0_1_012:
	.byte		N23   , En4 , v112
	.byte	W24
	.byte		N11   , An3 
	.byte	W12
	.byte		N56   
	.byte	W60
	.byte	PEND
@ 013   ----------------------------------------
	.byte	W96
@ 014   ----------------------------------------
	.byte	PATT
	 .word	wings0_1_006
@ 015   ----------------------------------------
wings0_1_015:
	.byte	W84
	.byte		N05   , Bn3 , v112
	.byte	W06
	.byte		        Dn4 
	.byte	W06
	.byte	PEND
@ 016   ----------------------------------------
	.byte	PATT
	 .word	wings0_1_012
@ 017   ----------------------------------------
	.byte	PATT
	 .word	wings0_1_009
@ 018   ----------------------------------------
	.byte	PATT
	 .word	wings0_1_006
@ 019   ----------------------------------------
	.byte	PATT
	 .word	wings0_1_015
@ 020   ----------------------------------------
wings0_1_020:
	.byte		N23   , En4 , v112
	.byte	W24
	.byte		N05   , Fs4 
	.byte	W06
	.byte		        En4 
	.byte	W06
	.byte		        Fs4 
	.byte	W06
	.byte		N52   , En4 
	.byte	W54
	.byte	PEND
@ 021   ----------------------------------------
	.byte	W96
@ 022   ----------------------------------------
	.byte	W24
	.byte		N05   , Fs4 
	.byte	W06
	.byte		N17   , An4 
	.byte	W18
	.byte		N11   
	.byte	W12
	.byte		N05   
	.byte	W06
	.byte		N17   
	.byte	W18
	.byte		N11   , Dn4 
	.byte	W12
@ 023   ----------------------------------------
	.byte	W24
	.byte		N05   , Fs4 
	.byte	W06
	.byte		N11   , An4 
	.byte	W12
	.byte		N05   
	.byte	W06
	.byte		N11   
	.byte	W12
	.byte		N05   
	.byte	W06
	.byte		N28   
	.byte	W30
@ 024   ----------------------------------------
	.byte	W24
	.byte		N05   , Fs4 
	.byte	W06
	.byte		N11   , An4 
	.byte	W12
	.byte		N05   
	.byte	W06
	.byte		N11   
	.byte	W12
	.byte		N05   
	.byte	W06
	.byte		N17   
	.byte	W18
	.byte		N11   , Dn4 
	.byte	W12
@ 025   ----------------------------------------
wings0_1_025:
	.byte		N32   , Dn4 , v112
	.byte	W36
	.byte		        Bn3 
	.byte	W36
	.byte		N68   , En4 
	.byte	W24
	.byte	PEND
@ 026   ----------------------------------------
	.byte	W72
	.byte		N32   , Dn4 
	.byte	W24
@ 027   ----------------------------------------
wings0_1_027:
	.byte	W12
	.byte		N32   , Bn3 , v112
	.byte	W36
	.byte		N44   , En4 
	.byte	W48
	.byte	PEND
@ 028   ----------------------------------------
	.byte	W48
@ 029   ----------------------------------------
	.byte	W19
wings0_1_B1:
	.byte	W28
	.byte	W01
	.byte		N11   , Fs4 , v112
	.byte	W12
	.byte		N23   , An4 
	.byte	W24
	.byte		N23   
	.byte	W12
@ 030   ----------------------------------------
wings0_1_030:
	.byte	W12
	.byte		N11   , Gn4 , v112
	.byte	W12
	.byte		        Fs4 
	.byte	W12
	.byte		N23   , En4 
	.byte	W24
	.byte		        Fs4 
	.byte	W36
	.byte	PEND
@ 031   ----------------------------------------
wings0_1_031:
	.byte	W48
	.byte		N11   , Fs4 , v112
	.byte	W12
	.byte		N23   , An4 
	.byte	W24
	.byte		        Bn4 
	.byte	W12
	.byte	PEND
@ 032   ----------------------------------------
wings0_1_032:
	.byte	W12
	.byte		N23   , Fs4 , v112
	.byte	W24
	.byte		        En4 
	.byte	W24
	.byte		        Fs4 
	.byte	W24
	.byte		N32   , An3 
	.byte	W12
	.byte	PEND
@ 033   ----------------------------------------
wings0_1_033:
	.byte	W48
	.byte		N11   , Fs4 , v112
	.byte	W12
	.byte		N23   , An4 
	.byte	W24
	.byte		N23   
	.byte	W12
	.byte	PEND
@ 034   ----------------------------------------
	.byte	PATT
	 .word	wings0_1_030
@ 035   ----------------------------------------
wings0_1_035:
	.byte	W30
	.byte		N05   , An3 , v112
	.byte	W06
	.byte		N05   
	.byte	W06
	.byte		        Fs4 
	.byte	W06
	.byte		        En4 
	.byte	W06
	.byte		N40   
	.byte	W42
	.byte	PEND
@ 036   ----------------------------------------
wings0_1_036:
	.byte	W36
	.byte		N11   , An3 , v112
	.byte	W12
	.byte		        Bn3 
	.byte	W12
	.byte		N23   , An3 
	.byte	W24
	.byte		N44   , Gn4 
	.byte	W12
	.byte	PEND
@ 037   ----------------------------------------
wings0_1_037:
	.byte	W36
	.byte		N32   , Fs4 , v112
	.byte	W36
	.byte		N68   , Dn4 
	.byte	W24
	.byte	PEND
@ 038   ----------------------------------------
	.byte	W96
@ 039   ----------------------------------------
	.byte	W96
@ 040   ----------------------------------------
	.byte	W96
@ 041   ----------------------------------------
	.byte	W96
@ 042   ----------------------------------------
	.byte	W96
@ 043   ----------------------------------------
	.byte	PATT
	 .word	wings0_1_006
@ 044   ----------------------------------------
	.byte	PATT
	 .word	wings0_1_011
@ 045   ----------------------------------------
	.byte	PATT
	 .word	wings0_1_008
@ 046   ----------------------------------------
	.byte	PATT
	 .word	wings0_1_009
@ 047   ----------------------------------------
	.byte	PATT
	 .word	wings0_1_006
@ 048   ----------------------------------------
	.byte	PATT
	 .word	wings0_1_015
@ 049   ----------------------------------------
	.byte	PATT
	 .word	wings0_1_012
@ 050   ----------------------------------------
	.byte	W96
@ 051   ----------------------------------------
	.byte	PATT
	 .word	wings0_1_006
@ 052   ----------------------------------------
	.byte	W84
	.byte		N05   , Fs4 , v112
	.byte	W06
	.byte		        En4 
	.byte	W06
@ 053   ----------------------------------------
	.byte	PATT
	 .word	wings0_1_008
@ 054   ----------------------------------------
	.byte	PATT
	 .word	wings0_1_009
@ 055   ----------------------------------------
	.byte	PATT
	 .word	wings0_1_006
@ 056   ----------------------------------------
	.byte	PATT
	 .word	wings0_1_015
@ 057   ----------------------------------------
	.byte	PATT
	 .word	wings0_1_020
@ 058   ----------------------------------------
	.byte	W96
@ 059   ----------------------------------------
	.byte	W18
	.byte		N05   , Dn4 , v112
	.byte	W06
	.byte		        Fs4 
	.byte	W06
	.byte		N11   , An4 
	.byte	W12
	.byte		N05   
	.byte	W06
	.byte		N17   
	.byte	W18
	.byte		N17   
	.byte	W18
	.byte		N11   , Dn4 
	.byte	W12
@ 060   ----------------------------------------
	.byte	W18
	.byte		N05   
	.byte	W06
	.byte		        Fs4 
	.byte	W06
	.byte		N11   , An4 
	.byte	W12
	.byte		N05   
	.byte	W06
	.byte		N17   
	.byte	W18
	.byte		N28   
	.byte	W30
@ 061   ----------------------------------------
	.byte	W18
	.byte		N05   , Fs4 
	.byte	W06
	.byte		N05   
	.byte	W06
	.byte		N11   , An4 
	.byte	W12
	.byte		N05   
	.byte	W06
	.byte		N17   
	.byte	W18
	.byte		N17   
	.byte	W18
	.byte		N11   , Dn4 
	.byte	W12
@ 062   ----------------------------------------
	.byte	PATT
	 .word	wings0_1_025
@ 063   ----------------------------------------
	.byte	W72
	.byte		N32   , Dn4 , v112
	.byte	W24
@ 064   ----------------------------------------
	.byte	PATT
	 .word	wings0_1_027
@ 065   ----------------------------------------
	.byte	W48
@ 066   ----------------------------------------
	.byte	PATT
	 .word	wings0_1_033
@ 067   ----------------------------------------
	.byte	PATT
	 .word	wings0_1_030
@ 068   ----------------------------------------
	.byte	PATT
	 .word	wings0_1_031
@ 069   ----------------------------------------
	.byte	PATT
	 .word	wings0_1_032
@ 070   ----------------------------------------
	.byte	PATT
	 .word	wings0_1_033
@ 071   ----------------------------------------
	.byte	PATT
	 .word	wings0_1_030
@ 072   ----------------------------------------
	.byte	PATT
	 .word	wings0_1_035
@ 073   ----------------------------------------
	.byte	PATT
	 .word	wings0_1_036
@ 074   ----------------------------------------
	.byte	PATT
	 .word	wings0_1_037
@ 075   ----------------------------------------
	.byte	W92
	.byte	W03
	.byte	GOTO
	 .word	wings0_1_B1
wings0_1_B2:
	.byte	FINE

@**************** Track 2 (Midi-Chn.2) ****************@

wings0_2:
	.byte	KEYSH , wings0_key+0
@ 000   ----------------------------------------
	.byte		VOICE , 30
	.byte		VOL   , 100*wings0_mvl/mxv
	.byte		PAN   , c_v+0
	.byte	W96
@ 001   ----------------------------------------
	.byte	W96
@ 002   ----------------------------------------
	.byte	W96
@ 003   ----------------------------------------
	.byte	W96
@ 004   ----------------------------------------
	.byte	W96
@ 005   ----------------------------------------
	.byte	W96
@ 006   ----------------------------------------
	.byte	W96
@ 007   ----------------------------------------
	.byte	W96
@ 008   ----------------------------------------
	.byte	W96
@ 009   ----------------------------------------
	.byte	W96
@ 010   ----------------------------------------
	.byte	W96
@ 011   ----------------------------------------
	.byte	W96
@ 012   ----------------------------------------
	.byte	W96
@ 013   ----------------------------------------
	.byte	W96
@ 014   ----------------------------------------
	.byte	W96
@ 015   ----------------------------------------
	.byte	W96
@ 016   ----------------------------------------
	.byte	W96
@ 017   ----------------------------------------
	.byte	W96
@ 018   ----------------------------------------
	.byte	W96
@ 019   ----------------------------------------
	.byte	W96
@ 020   ----------------------------------------
	.byte	W96
@ 021   ----------------------------------------
	.byte	W96
@ 022   ----------------------------------------
	.byte	W96
@ 023   ----------------------------------------
	.byte	W96
@ 024   ----------------------------------------
	.byte	W96
@ 025   ----------------------------------------
	.byte	W96
@ 026   ----------------------------------------
	.byte	W96
@ 027   ----------------------------------------
	.byte	W96
@ 028   ----------------------------------------
	.byte	W48
@ 029   ----------------------------------------
	.byte		N80   , An3 , v096
	.byte	W03
	.byte		        En3 
	.byte	W03
	.byte		N78   , Dn3 
	.byte	W03
	.byte		N80   , An2 
	.byte	W10
wings0_2_B1:
	.byte	W64
	.byte	W01
	.byte		N05   , Dn3 , v096
	.byte	W03
	.byte		N44   , Gn3 
	.byte	W03
	.byte		        Bn3 
	.byte	W06
@ 030   ----------------------------------------
wings0_2_030:
	.byte	W36
	.byte		N56   , En3 , v096
	.byte	W03
	.byte		        An3 
	.byte	W03
	.byte		        Cs4 
	.byte	W54
	.byte	PEND
@ 031   ----------------------------------------
wings0_2_031:
	.byte		N02   , An3 , v096
	.byte	W03
	.byte		N80   , En3 
	.byte	W03
	.byte		        Dn3 
	.byte	W03
	.byte		        An2 
	.byte	W72
	.byte	W03
	.byte		N44   , Bn2 
	.byte	W03
	.byte		N02   , Dn3 
	.byte	W03
	.byte		N44   , Gn3 
	.byte	W03
	.byte		        Bn3 
	.byte	W03
	.byte	PEND
@ 032   ----------------------------------------
wings0_2_032:
	.byte	W36
	.byte		N56   , Cs3 , v096
	.byte	W03
	.byte		        En3 
	.byte	W03
	.byte		N54   , An3 
	.byte	W54
	.byte	PEND
@ 033   ----------------------------------------
wings0_2_033:
	.byte		N05   , An3 , v096
	.byte	W03
	.byte		N80   , En3 
	.byte	W03
	.byte		        Dn3 
	.byte	W03
	.byte		        An2 
	.byte	W72
	.byte	W03
	.byte		N44   , Bn2 
	.byte	W03
	.byte		N02   , Dn3 
	.byte	W03
	.byte		N44   , Gn3 
	.byte	W03
	.byte		        Bn3 
	.byte	W03
	.byte	PEND
@ 034   ----------------------------------------
wings0_2_034:
	.byte	W36
	.byte		N56   , Cs3 , v096
	.byte	W03
	.byte		        En3 
	.byte	W03
	.byte		        An3 
	.byte	W54
	.byte	PEND
@ 035   ----------------------------------------
wings0_2_035:
	.byte	W12
	.byte		N32   , Gn1 , v096
	.byte	W36
	.byte		N23   , Dn3 
	.byte	W24
	.byte		        Gn3 
	.byte	W24
	.byte	PEND
@ 036   ----------------------------------------
wings0_2_036:
	.byte		N92   , Gn1 , v096
	.byte		N92   , Bn1 
	.byte		N92   , Dn2 
	.byte		N92   , Gn2 
	.byte		N92   , Bn2 
	.byte		N92   , Gn3 
	.byte	W96
	.byte	PEND
@ 037   ----------------------------------------
wings0_2_037:
	.byte		N92   , Gn1 , v096
	.byte		N92   , Bn1 
	.byte		N92   , Dn2 
	.byte		N92   , Gn2 
	.byte		N92   , Dn3 
	.byte	W96
	.byte	PEND
@ 038   ----------------------------------------
	.byte	PATT
	 .word	wings0_2_036
@ 039   ----------------------------------------
	.byte	W96
@ 040   ----------------------------------------
	.byte	W96
@ 041   ----------------------------------------
	.byte	W96
@ 042   ----------------------------------------
	.byte	W96
@ 043   ----------------------------------------
	.byte	W96
@ 044   ----------------------------------------
	.byte	W96
@ 045   ----------------------------------------
	.byte	W96
@ 046   ----------------------------------------
	.byte	W96
@ 047   ----------------------------------------
	.byte	W96
@ 048   ----------------------------------------
	.byte	W96
@ 049   ----------------------------------------
	.byte	W96
@ 050   ----------------------------------------
	.byte	W96
@ 051   ----------------------------------------
	.byte	W96
@ 052   ----------------------------------------
	.byte	W96
@ 053   ----------------------------------------
	.byte	W96
@ 054   ----------------------------------------
	.byte	W96
@ 055   ----------------------------------------
	.byte	W96
@ 056   ----------------------------------------
	.byte	W96
@ 057   ----------------------------------------
	.byte	W96
@ 058   ----------------------------------------
	.byte	W96
@ 059   ----------------------------------------
	.byte	W96
@ 060   ----------------------------------------
	.byte	W96
@ 061   ----------------------------------------
	.byte	W96
@ 062   ----------------------------------------
	.byte	W96
@ 063   ----------------------------------------
	.byte	W96
@ 064   ----------------------------------------
	.byte	W96
@ 065   ----------------------------------------
	.byte	W48
@ 066   ----------------------------------------
	.byte		N80   , An3 , v096
	.byte	W03
	.byte		        En3 
	.byte	W03
	.byte		N78   , Dn3 
	.byte	W03
	.byte		N80   , An2 
	.byte	W72
	.byte	W03
	.byte		N05   , Dn3 
	.byte	W03
	.byte		N44   , Gn3 
	.byte	W03
	.byte		        Bn3 
	.byte	W06
@ 067   ----------------------------------------
	.byte	PATT
	 .word	wings0_2_030
@ 068   ----------------------------------------
	.byte	PATT
	 .word	wings0_2_031
@ 069   ----------------------------------------
	.byte	PATT
	 .word	wings0_2_032
@ 070   ----------------------------------------
	.byte	PATT
	 .word	wings0_2_033
@ 071   ----------------------------------------
	.byte	PATT
	 .word	wings0_2_034
@ 072   ----------------------------------------
	.byte	PATT
	 .word	wings0_2_035
@ 073   ----------------------------------------
	.byte	PATT
	 .word	wings0_2_036
@ 074   ----------------------------------------
	.byte	PATT
	 .word	wings0_2_037
@ 075   ----------------------------------------
	.byte		N92   , Gn1 , v096
	.byte		N92   , Bn1 
	.byte		N92   , Dn2 
	.byte		N92   , Gn2 
	.byte		N92   , Bn2 
	.byte		N92   , Gn3 
	.byte	W92
	.byte	W03
	.byte	GOTO
	 .word	wings0_2_B1
wings0_2_B2:
	.byte	FINE

@**************** Track 3 (Midi-Chn.3) ****************@

wings0_3:
	.byte	KEYSH , wings0_key+0
@ 000   ----------------------------------------
	.byte		VOICE , 30
	.byte		VOL   , 100*wings0_mvl/mxv
	.byte		PAN   , c_v+0
	.byte	W96
@ 001   ----------------------------------------
	.byte	W96
@ 002   ----------------------------------------
	.byte	W96
@ 003   ----------------------------------------
	.byte	W96
@ 004   ----------------------------------------
	.byte	W96
@ 005   ----------------------------------------
	.byte	W96
@ 006   ----------------------------------------
	.byte	W96
@ 007   ----------------------------------------
	.byte	W96
@ 008   ----------------------------------------
	.byte	W96
@ 009   ----------------------------------------
	.byte	W96
@ 010   ----------------------------------------
	.byte	W96
@ 011   ----------------------------------------
	.byte	W96
@ 012   ----------------------------------------
	.byte	W96
@ 013   ----------------------------------------
	.byte	W96
@ 014   ----------------------------------------
	.byte	W96
@ 015   ----------------------------------------
	.byte	W96
@ 016   ----------------------------------------
	.byte	W96
@ 017   ----------------------------------------
	.byte	W96
@ 018   ----------------------------------------
	.byte	W96
@ 019   ----------------------------------------
	.byte	W96
@ 020   ----------------------------------------
	.byte	W96
@ 021   ----------------------------------------
	.byte	W96
@ 022   ----------------------------------------
	.byte	W96
@ 023   ----------------------------------------
	.byte	W96
@ 024   ----------------------------------------
	.byte	W96
@ 025   ----------------------------------------
	.byte	W96
@ 026   ----------------------------------------
	.byte	W96
@ 027   ----------------------------------------
	.byte	W96
@ 028   ----------------------------------------
	.byte	W48
@ 029   ----------------------------------------
	.byte		N80   , Dn1 , v096
	.byte		N80   , An1 
	.byte	W19
wings0_3_B1:
	.byte	W64
	.byte	W01
	.byte		N44   , En1 , v096
	.byte		N44   , Bn1 
	.byte	W12
@ 030   ----------------------------------------
wings0_3_030:
	.byte	W36
	.byte		N56   , Fs1 , v096
	.byte		N56   , Cs2 
	.byte	W60
	.byte	PEND
@ 031   ----------------------------------------
wings0_3_031:
	.byte		N80   , Dn1 , v096
	.byte		N80   , An1 
	.byte	W84
	.byte		N44   , En1 
	.byte		N44   , Bn1 
	.byte	W12
	.byte	PEND
@ 032   ----------------------------------------
wings0_3_032:
	.byte	W36
	.byte		N44   , An1 , v096
	.byte		N44   , En2 
	.byte	W48
	.byte		N92   , Dn1 
	.byte		N72   , An1 
	.byte	W12
	.byte	PEND
@ 033   ----------------------------------------
wings0_3_033:
	.byte	W36
	.byte		N23   , Gn2 , v096
	.byte		N23   , Bn2 
	.byte	W24
	.byte		        An1 
	.byte	W24
	.byte		N44   , En1 
	.byte		N44   , Bn1 
	.byte	W12
	.byte	PEND
@ 034   ----------------------------------------
wings0_3_034:
	.byte	W36
	.byte		N56   , An1 , v096
	.byte		N56   , En2 
	.byte	W60
	.byte	PEND
@ 035   ----------------------------------------
	.byte		N92   , Gn1 
	.byte		N92   , Dn2 
	.byte	W96
@ 036   ----------------------------------------
	.byte		        Gn1 
	.byte		N92   , Dn2 
	.byte	W96
@ 037   ----------------------------------------
	.byte		        Gn1 
	.byte		N92   , Dn2 
	.byte	W96
@ 038   ----------------------------------------
	.byte	W96
@ 039   ----------------------------------------
	.byte	W96
@ 040   ----------------------------------------
	.byte	W96
@ 041   ----------------------------------------
	.byte	W96
@ 042   ----------------------------------------
	.byte	W96
@ 043   ----------------------------------------
	.byte	W96
@ 044   ----------------------------------------
	.byte	W96
@ 045   ----------------------------------------
	.byte	W96
@ 046   ----------------------------------------
	.byte	W96
@ 047   ----------------------------------------
	.byte	W96
@ 048   ----------------------------------------
	.byte	W96
@ 049   ----------------------------------------
	.byte	W96
@ 050   ----------------------------------------
	.byte	W96
@ 051   ----------------------------------------
	.byte	W96
@ 052   ----------------------------------------
	.byte	W96
@ 053   ----------------------------------------
	.byte	W96
@ 054   ----------------------------------------
	.byte	W96
@ 055   ----------------------------------------
	.byte	W96
@ 056   ----------------------------------------
	.byte	W96
@ 057   ----------------------------------------
	.byte	W96
@ 058   ----------------------------------------
	.byte	W96
@ 059   ----------------------------------------
	.byte	W96
@ 060   ----------------------------------------
	.byte	W96
@ 061   ----------------------------------------
	.byte	W96
@ 062   ----------------------------------------
	.byte	W96
@ 063   ----------------------------------------
	.byte	W96
@ 064   ----------------------------------------
	.byte	W96
@ 065   ----------------------------------------
	.byte	W48
@ 066   ----------------------------------------
	.byte	PATT
	 .word	wings0_3_031
@ 067   ----------------------------------------
	.byte	PATT
	 .word	wings0_3_030
@ 068   ----------------------------------------
	.byte	PATT
	 .word	wings0_3_031
@ 069   ----------------------------------------
	.byte	PATT
	 .word	wings0_3_032
@ 070   ----------------------------------------
	.byte	PATT
	 .word	wings0_3_033
@ 071   ----------------------------------------
	.byte	PATT
	 .word	wings0_3_034
@ 072   ----------------------------------------
	.byte		N92   , Gn1 , v096
	.byte		N92   , Dn2 
	.byte	W96
@ 073   ----------------------------------------
	.byte		        Gn1 
	.byte		N92   , Dn2 
	.byte	W96
@ 074   ----------------------------------------
	.byte		        Gn1 
	.byte		N92   , Dn2 
	.byte	W96
@ 075   ----------------------------------------
	.byte	W92
	.byte	W03
	.byte	GOTO
	 .word	wings0_3_B1
wings0_3_B2:
	.byte	FINE

@**************** Track 4 (Midi-Chn.4) ****************@

wings0_4:
	.byte	KEYSH , wings0_key+0
@ 000   ----------------------------------------
	.byte		VOICE , 29
	.byte		VOL   , 100*wings0_mvl/mxv
	.byte		PAN   , c_v+0
	.byte	W96
@ 001   ----------------------------------------
	.byte	W96
@ 002   ----------------------------------------
	.byte	W96
@ 003   ----------------------------------------
	.byte	W96
@ 004   ----------------------------------------
	.byte	W96
@ 005   ----------------------------------------
	.byte	W96
@ 006   ----------------------------------------
	.byte	W96
@ 007   ----------------------------------------
	.byte	W96
@ 008   ----------------------------------------
	.byte	W96
@ 009   ----------------------------------------
	.byte	W96
@ 010   ----------------------------------------
	.byte	W96
@ 011   ----------------------------------------
	.byte	W96
@ 012   ----------------------------------------
	.byte	W96
@ 013   ----------------------------------------
	.byte	W96
@ 014   ----------------------------------------
	.byte	W96
@ 015   ----------------------------------------
	.byte	W96
@ 016   ----------------------------------------
	.byte	W96
@ 017   ----------------------------------------
	.byte	W96
@ 018   ----------------------------------------
	.byte	W96
@ 019   ----------------------------------------
	.byte	W96
@ 020   ----------------------------------------
	.byte	W96
@ 021   ----------------------------------------
	.byte	W96
@ 022   ----------------------------------------
	.byte	W96
@ 023   ----------------------------------------
	.byte	W96
@ 024   ----------------------------------------
	.byte	W96
@ 025   ----------------------------------------
	.byte	W96
@ 026   ----------------------------------------
	.byte	W96
@ 027   ----------------------------------------
	.byte	W96
@ 028   ----------------------------------------
	.byte	W48
@ 029   ----------------------------------------
	.byte	W19
wings0_4_B1:
	.byte	W76
	.byte	W01
@ 030   ----------------------------------------
	.byte	W96
@ 031   ----------------------------------------
	.byte	W96
@ 032   ----------------------------------------
	.byte	W96
@ 033   ----------------------------------------
	.byte	W96
@ 034   ----------------------------------------
	.byte	W96
@ 035   ----------------------------------------
	.byte	W96
@ 036   ----------------------------------------
	.byte	W96
@ 037   ----------------------------------------
	.byte	W96
@ 038   ----------------------------------------
	.byte	W96
@ 039   ----------------------------------------
	.byte		N32   , An3 , v127
	.byte	W36
	.byte		TIE   , Dn3 
	.byte	W60
@ 040   ----------------------------------------
	.byte	W80
	.byte	W03
	.byte		EOT   
	.byte	W01
	.byte		N44   , En3 
	.byte	W12
@ 041   ----------------------------------------
	.byte	W36
	.byte		TIE   , An2 
	.byte	W60
@ 042   ----------------------------------------
	.byte	W44
	.byte	W03
	.byte		EOT   
	.byte	W01
	.byte		N44   , Cs4 
	.byte	W48
@ 043   ----------------------------------------
	.byte	W96
@ 044   ----------------------------------------
	.byte	W96
@ 045   ----------------------------------------
	.byte	W96
@ 046   ----------------------------------------
	.byte	W96
@ 047   ----------------------------------------
	.byte	W96
@ 048   ----------------------------------------
	.byte	W96
@ 049   ----------------------------------------
	.byte	W96
@ 050   ----------------------------------------
	.byte	W96
@ 051   ----------------------------------------
	.byte	W96
@ 052   ----------------------------------------
	.byte	W96
@ 053   ----------------------------------------
	.byte	W96
@ 054   ----------------------------------------
	.byte	W96
@ 055   ----------------------------------------
	.byte	W96
@ 056   ----------------------------------------
	.byte	W96
@ 057   ----------------------------------------
	.byte	W96
@ 058   ----------------------------------------
	.byte	W60
	.byte		TIE   , Dn3 , v052
	.byte		TIE   , Fs3 
	.byte	W36
@ 059   ----------------------------------------
	.byte	W92
	.byte	W03
	.byte		EOT   , Dn3 
	.byte		        Fs3 
	.byte	W01
@ 060   ----------------------------------------
	.byte	W78
	.byte		TIE   , En4 
	.byte		TIE   , An4 
	.byte	W18
@ 061   ----------------------------------------
	.byte	W92
	.byte	W03
	.byte		EOT   , En4 
	.byte		        An4 
	.byte	W01
@ 062   ----------------------------------------
	.byte	W96
@ 063   ----------------------------------------
	.byte	W96
@ 064   ----------------------------------------
	.byte	W96
@ 065   ----------------------------------------
	.byte	W48
@ 066   ----------------------------------------
	.byte	W96
@ 067   ----------------------------------------
	.byte	W96
@ 068   ----------------------------------------
	.byte	W96
@ 069   ----------------------------------------
	.byte	W96
@ 070   ----------------------------------------
	.byte	W96
@ 071   ----------------------------------------
	.byte	W96
@ 072   ----------------------------------------
	.byte	W96
@ 073   ----------------------------------------
	.byte	W96
@ 074   ----------------------------------------
	.byte	W96
@ 075   ----------------------------------------
	.byte	W92
	.byte	W03
	.byte	GOTO
	 .word	wings0_4_B1
wings0_4_B2:
	.byte	FINE

@**************** Track 5 (Midi-Chn.5) ****************@

wings0_5:
	.byte	KEYSH , wings0_key+0
@ 000   ----------------------------------------
	.byte		VOICE , 33
	.byte		VOL   , 100*wings0_mvl/mxv
	.byte		PAN   , c_v+0
	.byte	W96
@ 001   ----------------------------------------
	.byte	W96
@ 002   ----------------------------------------
	.byte	W96
@ 003   ----------------------------------------
	.byte	W96
@ 004   ----------------------------------------
	.byte	W96
@ 005   ----------------------------------------
	.byte	W96
@ 006   ----------------------------------------
	.byte	W96
@ 007   ----------------------------------------
	.byte	W96
@ 008   ----------------------------------------
	.byte	W96
@ 009   ----------------------------------------
	.byte	W96
@ 010   ----------------------------------------
	.byte	W96
@ 011   ----------------------------------------
	.byte	W96
@ 012   ----------------------------------------
	.byte	W96
@ 013   ----------------------------------------
	.byte	W96
@ 014   ----------------------------------------
	.byte	W96
@ 015   ----------------------------------------
	.byte	W96
@ 016   ----------------------------------------
	.byte	W96
@ 017   ----------------------------------------
	.byte	W96
@ 018   ----------------------------------------
	.byte	W96
@ 019   ----------------------------------------
	.byte	W96
@ 020   ----------------------------------------
	.byte	W96
@ 021   ----------------------------------------
	.byte	W96
@ 022   ----------------------------------------
	.byte	W96
@ 023   ----------------------------------------
	.byte	W96
@ 024   ----------------------------------------
	.byte	W96
@ 025   ----------------------------------------
	.byte	W96
@ 026   ----------------------------------------
	.byte	W96
@ 027   ----------------------------------------
	.byte	W96
@ 028   ----------------------------------------
	.byte	W48
@ 029   ----------------------------------------
	.byte		N44   , Dn1 , v080
	.byte	W19
wings0_5_B1:
	.byte	W28
	.byte	W01
	.byte		N32   , Dn1 , v080
	.byte	W36
	.byte		N44   , En1 
	.byte	W12
@ 030   ----------------------------------------
	.byte	W36
	.byte		N56   , An1 
	.byte	W60
@ 031   ----------------------------------------
wings0_5_031:
	.byte		N44   , Dn1 , v080
	.byte	W48
	.byte		N11   
	.byte	W12
	.byte		N23   
	.byte	W24
	.byte		N44   , En1 
	.byte	W12
	.byte	PEND
@ 032   ----------------------------------------
wings0_5_032:
	.byte	W36
	.byte		N44   , An1 , v080
	.byte	W48
	.byte		N56   , Dn1 
	.byte	W12
	.byte	PEND
@ 033   ----------------------------------------
wings0_5_033:
	.byte	W48
	.byte		N11   , Dn1 , v080
	.byte	W12
	.byte		N23   
	.byte	W24
	.byte		N44   , En1 
	.byte	W12
	.byte	PEND
@ 034   ----------------------------------------
	.byte	W36
	.byte		N56   , An1 
	.byte	W60
@ 035   ----------------------------------------
	.byte		N92   , Gn1 
	.byte	W96
@ 036   ----------------------------------------
wings0_5_036:
	.byte		N32   , Gn1 , v080
	.byte	W36
	.byte		N56   
	.byte	W60
	.byte	PEND
@ 037   ----------------------------------------
	.byte	PATT
	 .word	wings0_5_036
@ 038   ----------------------------------------
	.byte		N32   , Gn1 , v080
	.byte	W36
	.byte		N32   
	.byte	W36
	.byte		N23   , Fs1 
	.byte	W24
@ 039   ----------------------------------------
	.byte		N32   , Bn1 
	.byte	W36
	.byte		TIE   , Gn1 
	.byte	W60
@ 040   ----------------------------------------
	.byte	W68
	.byte	W03
	.byte		EOT   
	.byte	W01
	.byte		N11   
	.byte	W12
	.byte		N05   
	.byte	W06
	.byte		        An1 
	.byte	W06
@ 041   ----------------------------------------
	.byte		N32   , Bn1 
	.byte	W36
	.byte		N56   , Gn1 
	.byte	W48
	.byte	W03
	.byte		N08   , Fs2 
	.byte	W09
@ 042   ----------------------------------------
	.byte		N32   , Gn2 
	.byte	W36
	.byte		N23   , Fs2 
	.byte	W24
	.byte		N32   , Dn2 
	.byte	W36
@ 043   ----------------------------------------
	.byte		        Bn1 
	.byte	W36
	.byte		N56   , Gn1 
	.byte	W60
@ 044   ----------------------------------------
	.byte		N23   
	.byte	W36
	.byte		N32   
	.byte	W36
	.byte		N05   
	.byte	W06
	.byte		        Fs1 
	.byte	W06
	.byte		        Gn1 
	.byte	W06
	.byte		        An1 
	.byte	W06
@ 045   ----------------------------------------
	.byte		N32   , Bn1 
	.byte	W36
	.byte		N52   , Gn1 
	.byte	W54
	.byte		N05   , Fs1 
	.byte	W06
@ 046   ----------------------------------------
	.byte		N28   , Gn1 
	.byte	W36
	.byte		N23   
	.byte	W48
	.byte		N05   
	.byte	W06
	.byte		        An1 
	.byte	W06
@ 047   ----------------------------------------
	.byte		N32   , Bn1 
	.byte	W36
	.byte		N52   , Gn1 
	.byte	W60
@ 048   ----------------------------------------
	.byte		N23   
	.byte	W36
	.byte		N32   
	.byte	W36
	.byte		N05   
	.byte	W06
	.byte		N05   
	.byte	W06
	.byte		N05   
	.byte	W06
	.byte		        An1 
	.byte	W06
@ 049   ----------------------------------------
	.byte		N23   , Bn1 
	.byte	W36
	.byte		N52   , Gn1 
	.byte	W54
	.byte		N05   , En1 
	.byte	W06
@ 050   ----------------------------------------
	.byte		N28   , Gn1 
	.byte	W36
	.byte		N23   
	.byte	W24
	.byte		N17   , Dn2 
	.byte	W18
	.byte		        En2 
	.byte	W18
@ 051   ----------------------------------------
wings0_5_051:
	.byte		N32   , Bn1 , v080
	.byte	W36
	.byte		N52   , Gn1 
	.byte	W54
	.byte		N05   , En1 
	.byte	W06
	.byte	PEND
@ 052   ----------------------------------------
	.byte		N32   , Gn1 
	.byte	W42
	.byte		N28   
	.byte	W30
	.byte		N05   
	.byte	W06
	.byte		        Fs1 
	.byte	W06
	.byte		        En1 
	.byte	W06
	.byte		        An1 
	.byte	W06
@ 053   ----------------------------------------
	.byte	PATT
	 .word	wings0_5_051
@ 054   ----------------------------------------
	.byte		N32   , Gn1 , v080
	.byte	W48
	.byte		N23   , Bn2 
	.byte	W24
	.byte		        Gn2 
	.byte	W24
@ 055   ----------------------------------------
	.byte	PATT
	 .word	wings0_5_051
@ 056   ----------------------------------------
	.byte		N23   , Gn1 , v080
	.byte	W36
	.byte		N17   
	.byte	W18
	.byte		N05   , Fs2 
	.byte	W06
	.byte		        Gn2 
	.byte	W06
	.byte		        Fs2 
	.byte	W06
	.byte		N23   , En2 
	.byte	W24
@ 057   ----------------------------------------
	.byte	PATT
	 .word	wings0_5_051
@ 058   ----------------------------------------
	.byte		N11   , Gn1 , v080
	.byte	W12
	.byte		N17   
	.byte	W18
	.byte		N05   , En1 
	.byte	W06
	.byte		N32   , Gn1 
	.byte	W36
	.byte		N05   
	.byte	W06
	.byte		        Fs1 
	.byte	W06
	.byte		        En1 
	.byte	W06
	.byte		        Fs1 
	.byte	W06
@ 059   ----------------------------------------
	.byte		N11   , Gn1 
	.byte	W96
@ 060   ----------------------------------------
	.byte	W96
@ 061   ----------------------------------------
	.byte	W96
@ 062   ----------------------------------------
	.byte	W96
@ 063   ----------------------------------------
	.byte	W96
@ 064   ----------------------------------------
	.byte	W96
@ 065   ----------------------------------------
	.byte	W48
@ 066   ----------------------------------------
	.byte		N44   , Dn1 
	.byte	W48
	.byte		N32   
	.byte	W36
	.byte		N44   , En1 
	.byte	W12
@ 067   ----------------------------------------
	.byte	W36
	.byte		N56   , An1 
	.byte	W60
@ 068   ----------------------------------------
	.byte	PATT
	 .word	wings0_5_031
@ 069   ----------------------------------------
	.byte	PATT
	 .word	wings0_5_032
@ 070   ----------------------------------------
	.byte	PATT
	 .word	wings0_5_033
@ 071   ----------------------------------------
	.byte	W36
	.byte		N56   , An1 , v080
	.byte	W60
@ 072   ----------------------------------------
	.byte		N92   , Gn1 
	.byte	W96
@ 073   ----------------------------------------
	.byte	PATT
	 .word	wings0_5_036
@ 074   ----------------------------------------
	.byte	PATT
	 .word	wings0_5_036
@ 075   ----------------------------------------
	.byte		N92   , Gn1 , v080
	.byte	W92
	.byte	W03
	.byte	GOTO
	 .word	wings0_5_B1
wings0_5_B2:
	.byte	FINE

@**************** Track 6 (Midi-Chn.6) ****************@

wings0_6:
	.byte	KEYSH , wings0_key+0
@ 000   ----------------------------------------
	.byte		VOICE , 3
	.byte		VOL   , 100*wings0_mvl/mxv
	.byte		PAN   , c_v+0
	.byte	W96
@ 001   ----------------------------------------
	.byte	W96
@ 002   ----------------------------------------
	.byte		N11   , Bn0 , v127
	.byte		N11   , An2 
	.byte		N32   , Dn3 
	.byte		N32   , Fs3 
	.byte		N32   , An3 
	.byte	W12
	.byte		N23   , Bn1 
	.byte	W24
	.byte		N56   , Gn1 
	.byte		N56   , Dn2 
	.byte		N56   , Gn2 
	.byte		N56   , An2 
	.byte		N56   , Bn2 
	.byte		N32   , Dn3 
	.byte	W60
@ 003   ----------------------------------------
	.byte		N11   , Gn1 
	.byte		N11   , Dn2 
	.byte		N11   , En2 
	.byte		N11   , An2 
	.byte	W12
	.byte		        Fs2 
	.byte	W12
	.byte		        Dn2 
	.byte	W12
	.byte		N56   , En2 
	.byte		N32   , Cs3 
	.byte	W48
	.byte		N05   , Dn3 
	.byte	W06
	.byte		        En3 
	.byte	W06
@ 004   ----------------------------------------
	.byte		        Bn0 
	.byte		N05   , An2 
	.byte		N23   , Cs3 
	.byte		N23   , Fs3 
	.byte	W06
	.byte		N05   , Fs1 
	.byte	W06
	.byte		N11   , Bn1 
	.byte	W24
	.byte		N76   , Gn1 
	.byte		N76   , Dn2 
	.byte		N76   , Fs2 
	.byte		N76   , An2 
	.byte	W60
@ 005   ----------------------------------------
	.byte	W18
	.byte		N05   , Gn1 
	.byte	W06
	.byte		        Dn2 
	.byte	W06
	.byte		        Gn2 
	.byte	W06
	.byte		N28   , An2 
	.byte	W30
	.byte		N05   , Dn2 
	.byte	W06
	.byte		        Fs2 
	.byte	W06
	.byte		        Gn2 
	.byte	W06
	.byte		N11   , An2 
	.byte	W12
@ 006   ----------------------------------------
	.byte		        Bn0 
	.byte		N11   , An2 
	.byte		N32   , Dn3 
	.byte		N32   , Fs3 
	.byte		N32   , An3 
	.byte	W12
	.byte		N05   , Fs1 
	.byte	W06
	.byte		        Bn1 
	.byte	W06
	.byte		        Gn2 
	.byte	W06
	.byte		        An2 
	.byte	W06
	.byte		N56   , Gn1 
	.byte		N56   , Dn2 
	.byte		N56   , Gn2 
	.byte		N32   , Dn3 
	.byte	W60
@ 007   ----------------------------------------
	.byte		N11   , Gn1 
	.byte		N11   , Fs2 
	.byte		N11   , An2 
	.byte		N32   , Dn3 
	.byte	W12
	.byte		N05   , En2 
	.byte	W06
	.byte		N11   , Bn2 
	.byte	W12
	.byte		N05   , Fs2 
	.byte	W06
	.byte		N56   , En2 
	.byte		N56   , Cs3 
	.byte	W60
@ 008   ----------------------------------------
	.byte		N11   , Bn0 
	.byte		N11   , An2 
	.byte		N44   , Cs3 
	.byte		N44   , Dn3 
	.byte		N44   , En3 
	.byte	W12
	.byte		N05   , Fs1 
	.byte	W06
	.byte		        Bn1 
	.byte	W18
	.byte		N52   , Gn1 
	.byte		N52   , Dn2 
	.byte		N52   , En2 
	.byte		N52   , An2 
	.byte	W54
	.byte		N05   , Dn2 
	.byte	W06
@ 009   ----------------------------------------
	.byte		        Gn1 
	.byte		N05   , Fs2 
	.byte		N68   , Dn3 
	.byte	W06
	.byte		N05   , Dn2 
	.byte	W06
	.byte		N11   , Bn2 
	.byte	W12
	.byte		        Gn2 
	.byte	W12
	.byte		N23   , Fs2 
	.byte		N23   , An2 
	.byte	W24
	.byte		N11   , Gn2 
	.byte	W36
@ 010   ----------------------------------------
	.byte		N05   , Bn0 
	.byte		N17   , Dn3 
	.byte		N17   , Fs3 
	.byte		N17   , An3 
	.byte	W06
	.byte		N05   , Fs1 
	.byte	W06
	.byte		N11   , Bn1 
	.byte	W06
	.byte		N17   , Cs3 
	.byte	W18
	.byte		N32   , Gn1 
	.byte		N32   , Dn2 
	.byte		N32   , Gn2 
	.byte		N32   , An2 
	.byte		N32   , Bn2 
	.byte		N32   , Dn3 
	.byte	W60
@ 011   ----------------------------------------
	.byte		N05   , Gn1 
	.byte	W06
	.byte		        Dn2 
	.byte	W06
	.byte		        Gn2 
	.byte	W06
	.byte		        An2 
	.byte	W30
	.byte		N17   , Fs2 
	.byte	W06
	.byte		N05   , Cs3 
	.byte	W06
	.byte		N17   , Dn3 
	.byte	W06
	.byte		N05   , En2 
	.byte	W06
	.byte		N23   , An2 
	.byte	W06
	.byte		N05   , Cs3 
	.byte	W06
	.byte		        Dn3 
	.byte	W06
	.byte		        En3 
	.byte	W06
@ 012   ----------------------------------------
	.byte		        Bn0 
	.byte		N05   , An2 
	.byte		N23   , Cs3 
	.byte		N23   , En3 
	.byte	W06
	.byte		N05   , Fs1 
	.byte	W06
	.byte		        Bn1 
	.byte	W06
	.byte		        Gn2 
	.byte	W06
	.byte		        An2 
	.byte	W06
	.byte		        Bn2 
	.byte	W06
	.byte		N32   , Gn1 
	.byte		N32   , Dn2 
	.byte		N32   , En2 
	.byte		N32   , An2 
	.byte	W54
	.byte		N05   , Gn1 
	.byte	W06
@ 013   ----------------------------------------
	.byte		N17   , Bn1 
	.byte	W18
	.byte		N05   , Fs2 
	.byte	W06
	.byte		N23   , Cs3 
	.byte		N23   , An3 
	.byte	W18
	.byte		N05   , Dn2 
	.byte	W06
	.byte		N17   , Fs2 
	.byte		N17   , An2 
	.byte		N23   , Fs3 
	.byte	W18
	.byte		N28   , Dn2 
	.byte	W06
	.byte		N23   , Cs3 
	.byte		N23   , En3 
	.byte	W24
@ 014   ----------------------------------------
	.byte		N11   , Bn1 
	.byte		N32   , Cs3 
	.byte		N32   , Dn3 
	.byte		N32   , Fs3 
	.byte		N32   , An3 
	.byte	W12
	.byte		N11   , Fs2 
	.byte	W12
	.byte		N05   , Dn2 
	.byte	W06
	.byte		        An2 
	.byte	W06
	.byte		N23   , Gn1 
	.byte		N23   , Gn2 
	.byte		N23   , An2 
	.byte		N32   , Dn3 
	.byte	W24
	.byte		N23   , Dn2 
	.byte	W24
	.byte		N05   , Gn2 
	.byte	W06
	.byte		        An2 
	.byte	W06
@ 015   ----------------------------------------
	.byte		N11   , Gn1 
	.byte		N11   , Bn2 
	.byte	W12
	.byte		        Fs2 
	.byte		N11   , Cs3 
	.byte	W12
	.byte		        Dn3 
	.byte	W12
	.byte		        Gn1 
	.byte		N11   , An2 
	.byte		N11   , En3 
	.byte	W24
	.byte		        Bn2 
	.byte	W12
	.byte		        Fs2 
	.byte	W12
	.byte		N05   , An2 
	.byte	W06
	.byte		        Bn2 
	.byte	W06
@ 016   ----------------------------------------
	.byte		N11   , Gn1 
	.byte		N11   , An2 
	.byte		N11   , Bn2 
	.byte		N23   , En3 
	.byte	W12
	.byte		N11   , Fs2 
	.byte	W12
	.byte		        An2 
	.byte	W12
	.byte		        Gn1 
	.byte		N11   , Dn2 
	.byte		N11   , An2 
	.byte	W24
	.byte		N28   , Dn2 
	.byte	W30
	.byte		N05   , An2 
	.byte	W06
@ 017   ----------------------------------------
	.byte		N17   , Gn1 
	.byte		N05   , En3 
	.byte	W06
	.byte		        Cs4 
	.byte	W06
	.byte		N11   , Dn4 
	.byte	W06
	.byte		N23   , Dn2 
	.byte	W06
	.byte		N11   , En3 
	.byte		N11   , Cs4 
	.byte	W12
	.byte		        An3 
	.byte	W06
	.byte		N23   , An2 
	.byte	W06
	.byte		N05   , Fs3 
	.byte	W06
	.byte		        An3 
	.byte	W06
	.byte		N11   , Bn3 
	.byte	W06
	.byte		N05   , An2 
	.byte	W06
	.byte		N11   , Fs3 
	.byte	W12
	.byte		        En3 
	.byte	W12
@ 018   ----------------------------------------
	.byte		        Bn1 
	.byte		N23   , Cs3 
	.byte		N23   , Dn3 
	.byte		N23   , Fs3 
	.byte		N23   , An3 
	.byte	W12
	.byte		N05   , Fs2 
	.byte	W06
	.byte		        An2 
	.byte	W06
	.byte		N11   , Bn2 
	.byte	W06
	.byte		N05   , Cs3 
	.byte	W06
	.byte		N32   , Gn1 
	.byte		N32   , Dn2 
	.byte		N32   , Gn2 
	.byte		N32   , Bn2 
	.byte		N32   , En3 
	.byte	W36
	.byte		N11   , Dn2 
	.byte	W12
	.byte		N05   
	.byte	W06
	.byte		        Fs2 
	.byte	W06
@ 019   ----------------------------------------
	.byte		N11   , Gn1 
	.byte		N11   , Gn2 
	.byte	W12
	.byte		        En2 
	.byte		N11   , An2 
	.byte	W12
	.byte		        Dn2 
	.byte		N11   , Bn2 
	.byte	W12
	.byte		        Fs2 
	.byte		N11   , An2 
	.byte		N11   , Cs3 
	.byte	W24
	.byte		N32   , En2 
	.byte		N32   , Gn2 
	.byte		N32   , Bn2 
	.byte		N32   , Dn3 
	.byte	W36
@ 020   ----------------------------------------
	.byte		N23   , Bn1 
	.byte		N23   , Fs2 
	.byte		N23   , An2 
	.byte		N23   , Bn2 
	.byte		N23   , Cs3 
	.byte		N23   , En3 
	.byte	W36
	.byte		N11   , Gn1 
	.byte		N11   , Dn2 
	.byte		N11   , An2 
	.byte	W54
	.byte		N05   , Fs2 
	.byte	W06
@ 021   ----------------------------------------
	.byte		        Gn1 
	.byte		N11   , An3 
	.byte		N11   , Fs4 
	.byte	W06
	.byte		N17   , Dn2 
	.byte	W06
	.byte		N11   , Gn3 
	.byte		N11   , En4 
	.byte	W12
	.byte		N17   , Fs2 
	.byte		N11   , Gn3 
	.byte		N11   , En4 
	.byte	W12
	.byte		        Dn4 
	.byte	W06
	.byte		N05   , Dn2 
	.byte	W06
	.byte		N44   , Gn1 
	.byte		N05   , Cs4 
	.byte	W06
	.byte		        Dn4 
	.byte	W06
	.byte		        Cs4 
	.byte	W06
	.byte		        An3 
	.byte	W06
	.byte		N11   , En3 
	.byte	W12
	.byte		        Dn3 
	.byte	W12
@ 022   ----------------------------------------
	.byte		N23   , Bn1 
	.byte		N23   , Fs2 
	.byte		N23   , An2 
	.byte		N23   , Bn2 
	.byte		N23   , Dn3 
	.byte	W24
	.byte		N05   
	.byte	W06
	.byte		        An3 
	.byte	W18
	.byte		N17   
	.byte	W18
	.byte		N17   
	.byte	W18
	.byte		N11   , Dn3 
	.byte	W12
@ 023   ----------------------------------------
	.byte		N23   , Bn1 
	.byte		N23   , Fs2 
	.byte		N23   , An2 
	.byte		N23   , Bn2 
	.byte		N23   , Dn3 
	.byte	W24
	.byte		N05   
	.byte	W06
	.byte		        An3 
	.byte	W18
	.byte		N17   
	.byte	W18
	.byte		N05   , Bn3 
	.byte	W30
@ 024   ----------------------------------------
	.byte		N23   , Bn1 
	.byte		N23   , Fs2 
	.byte		N23   , An2 
	.byte		N23   , Bn2 
	.byte		N23   , Dn3 
	.byte	W24
	.byte		N05   
	.byte	W06
	.byte		        An3 
	.byte	W18
	.byte		N17   
	.byte	W18
	.byte		N05   
	.byte	W18
	.byte		N11   , Dn3 
	.byte	W12
@ 025   ----------------------------------------
	.byte		N23   , Fs1 
	.byte		N23   , Dn2 
	.byte		N23   , En2 
	.byte		N23   , An2 
	.byte		N23   , Dn3 
	.byte	W36
	.byte		N11   , En1 
	.byte		N11   , Bn1 
	.byte		N11   , Dn2 
	.byte		N11   , Gn2 
	.byte		N11   , Bn2 
	.byte	W36
	.byte		N68   , Bn0 
	.byte		N68   , Fs1 
	.byte		N68   , Bn1 
	.byte		N68   , An2 
	.byte		N68   , Cs3 
	.byte		N68   , En3 
	.byte	W24
@ 026   ----------------------------------------
	.byte	W72
	.byte		N23   , En1 
	.byte		N23   , Gn2 
	.byte		N23   , Bn2 
	.byte		N23   , Dn3 
	.byte	W24
@ 027   ----------------------------------------
	.byte	W12
	.byte		N11   , Fs1 
	.byte		N11   , Dn2 
	.byte		N11   , Fs2 
	.byte		N11   , An2 
	.byte	W36
	.byte		N44   , An1 
	.byte		N44   , An2 
	.byte		N44   , Bn2 
	.byte		N44   , Cs3 
	.byte		N44   , En3 
	.byte	W48
@ 028   ----------------------------------------
	.byte	W42
	.byte		N05   , Fs2 
	.byte		N05   , An2 
	.byte	W06
@ 029   ----------------------------------------
	.byte		N23   , Dn1 
	.byte		N23   , An1 
	.byte		N23   , Dn2 
	.byte		N23   , En2 
	.byte	W19
wings0_6_B1:
	.byte	W05
	.byte		N11   , Dn2 , v127
	.byte	W12
	.byte		N05   , An1 
	.byte	W06
	.byte		        Dn2 
	.byte	W06
	.byte		        Dn1 
	.byte		N05   , An2 
	.byte		N11   , Dn3 
	.byte		N11   , Fs3 
	.byte	W06
	.byte		N05   , An1 
	.byte	W06
	.byte		N11   , An2 
	.byte		N11   , Dn3 
	.byte		N11   , Fs3 
	.byte		N11   , An3 
	.byte	W12
	.byte		        Dn2 
	.byte	W12
	.byte		N05   , Bn2 
	.byte		N23   , Dn3 
	.byte		N23   , An3 
	.byte	W06
	.byte		N05   , Bn1 
	.byte	W06
@ 030   ----------------------------------------
	.byte		N11   , En1 
	.byte		N11   , En2 
	.byte	W12
	.byte		        Bn1 
	.byte		N11   , Bn2 
	.byte		N11   , Dn3 
	.byte		N11   , Gn3 
	.byte	W12
	.byte		N05   , En2 
	.byte	W06
	.byte		        Bn2 
	.byte		N28   , Dn3 
	.byte		N28   , Fs3 
	.byte	W06
	.byte		N23   , An1 
	.byte		N23   , Bn2 
	.byte	W24
	.byte		N11   
	.byte		N11   , Dn3 
	.byte		N11   , Fs3 
	.byte	W12
	.byte		N05   , An1 
	.byte	W06
	.byte		        Bn2 
	.byte	W06
	.byte		N05   
	.byte		N11   , Dn3 
	.byte		N11   , Fs3 
	.byte	W06
	.byte		N05   , An1 
	.byte	W06
@ 031   ----------------------------------------
	.byte		N11   , Dn1 
	.byte		N11   , Dn2 
	.byte		N11   , En2 
	.byte		N11   , An2 
	.byte	W12
	.byte		        Fs2 
	.byte		N11   , An2 
	.byte	W12
	.byte		N05   , Dn2 
	.byte		N05   , En2 
	.byte	W06
	.byte		        Fs2 
	.byte	W06
	.byte		        An1 
	.byte	W06
	.byte		        Dn2 
	.byte	W06
	.byte		N11   , Dn1 
	.byte		N11   , An2 
	.byte		N11   , Dn3 
	.byte		N11   , Fs3 
	.byte	W12
	.byte		        An2 
	.byte		N11   , Dn3 
	.byte		N11   , Fs3 
	.byte		N11   , An3 
	.byte	W12
	.byte		        Dn2 
	.byte	W12
	.byte		N05   , En1 
	.byte		N05   , En2 
	.byte		N11   , Dn3 
	.byte	W06
	.byte		N28   , Bn1 
	.byte	W06
@ 032   ----------------------------------------
	.byte	W12
	.byte		N11   , Fs3 
	.byte	W12
	.byte		N05   , En2 
	.byte	W06
	.byte		        Gn2 
	.byte	W06
	.byte		N11   , An1 
	.byte		N11   , Gn2 
	.byte		N11   , Bn2 
	.byte		N11   , Dn3 
	.byte		N11   , En3 
	.byte	W24
	.byte		        Gn2 
	.byte		N11   , Bn2 
	.byte		N11   , Dn3 
	.byte		N11   , Fs3 
	.byte	W12
	.byte		        An1 
	.byte	W12
	.byte		        Dn2 
	.byte		N11   , En2 
	.byte		N11   , Fs2 
	.byte		N11   , An2 
	.byte	W12
@ 033   ----------------------------------------
	.byte		        Dn1 
	.byte		N11   , An1 
	.byte	W12
	.byte		        Dn2 
	.byte	W12
	.byte		N11   
	.byte		N11   , Fs2 
	.byte		N11   , An2 
	.byte	W12
	.byte		N05   , An1 
	.byte	W06
	.byte		        Dn2 
	.byte	W06
	.byte		N11   , An2 
	.byte		N11   , Dn3 
	.byte		N11   , Fs3 
	.byte	W12
	.byte		        An2 
	.byte		N11   , Dn3 
	.byte		N11   , Fs3 
	.byte		N11   , An3 
	.byte	W12
	.byte		        Dn2 
	.byte	W12
	.byte		        En1 
	.byte		N11   , Bn1 
	.byte		N11   , Bn2 
	.byte		N11   , Cs3 
	.byte		N11   , An3 
	.byte	W12
@ 034   ----------------------------------------
	.byte		        En2 
	.byte	W12
	.byte		        Bn2 
	.byte		N11   , Dn3 
	.byte		N11   , Gn3 
	.byte	W12
	.byte		N23   , En2 
	.byte		N23   , Bn2 
	.byte		N11   , Fs3 
	.byte	W12
	.byte		N23   , En3 
	.byte	W12
	.byte		N05   , An1 
	.byte	W06
	.byte		N17   , An2 
	.byte	W06
	.byte		N28   , Fs3 
	.byte	W12
	.byte		N17   , An1 
	.byte	W18
	.byte		N05   , An2 
	.byte		N05   , Bn2 
	.byte		N28   , Dn3 
	.byte	W06
@ 035   ----------------------------------------
	.byte		N11   , Gn1 
	.byte		N11   , Dn2 
	.byte	W12
	.byte		        Gn2 
	.byte	W24
	.byte		N05   , Fs2 
	.byte	W06
	.byte		N28   , An2 
	.byte	W42
	.byte		N05   , Dn3 
	.byte	W06
	.byte		        Fs3 
	.byte	W06
@ 036   ----------------------------------------
	.byte		N11   , Gn1 
	.byte	W06
	.byte		        Gn3 
	.byte	W06
	.byte		        Dn2 
	.byte	W06
	.byte		N05   , An3 
	.byte	W06
	.byte		N44   , Fs2 
	.byte	W12
	.byte		N32   , Dn4 
	.byte	W60
@ 037   ----------------------------------------
	.byte		N05   , Gn1 
	.byte		N17   , Fs4 
	.byte	W06
	.byte		N05   , Dn2 
	.byte	W06
	.byte		N56   , Fs2 
	.byte	W06
	.byte		N05   , An3 
	.byte	W06
	.byte		        Cs4 
	.byte	W06
	.byte		        Dn4 
	.byte	W06
	.byte		N32   , Gn3 
	.byte	W60
@ 038   ----------------------------------------
	.byte		N23   , Gn1 
	.byte		N05   , Fs3 
	.byte	W06
	.byte		        Gn3 
	.byte	W06
	.byte		        An3 
	.byte	W06
	.byte		        Dn3 
	.byte	W06
	.byte		        An2 
	.byte	W06
	.byte		        Gn2 
	.byte	W06
	.byte		N32   , An2 
	.byte	W60
@ 039   ----------------------------------------
	.byte		N05   , Bn0 
	.byte		N05   , Fs2 
	.byte		N05   , An2 
	.byte		N23   , Cs3 
	.byte	W06
	.byte		N05   , Fs1 
	.byte	W06
	.byte		N11   , Bn1 
	.byte	W24
	.byte		        Gn1 
	.byte		N11   , Dn2 
	.byte		N11   , Gn2 
	.byte		N11   , An2 
	.byte	W54
	.byte		N05   , Dn3 
	.byte	W06
@ 040   ----------------------------------------
	.byte		        Gn1 
	.byte		N23   , Gn3 
	.byte	W06
	.byte		N05   , Dn2 
	.byte	W06
	.byte		N11   , An2 
	.byte	W12
	.byte		N17   , Gn2 
	.byte	W12
	.byte		N11   , Dn3 
	.byte	W06
	.byte		N28   , Gn2 
	.byte	W06
	.byte		N11   , Fs3 
	.byte	W12
	.byte		        An3 
	.byte	W12
	.byte		N23   , Gn2 
	.byte	W12
	.byte		N05   , Dn3 
	.byte	W06
	.byte		        En3 
	.byte	W06
@ 041   ----------------------------------------
	.byte		        Bn0 
	.byte		N05   , An2 
	.byte		N11   , Fs3 
	.byte	W06
	.byte		N17   , Fs1 
	.byte	W06
	.byte		N05   , Cs3 
	.byte	W06
	.byte		        Dn3 
	.byte	W06
	.byte		        Bn1 
	.byte		N23   , Cs3 
	.byte	W06
	.byte		N05   , Gn2 
	.byte	W06
	.byte		N23   , Gn1 
	.byte		N23   , Dn2 
	.byte		N23   , Bn2 
	.byte	W24
	.byte		N11   , Fs2 
	.byte		N11   , An2 
	.byte	W30
	.byte		N05   , An3 
	.byte		N05   , Dn4 
	.byte	W06
@ 042   ----------------------------------------
	.byte		N28   , Dn2 
	.byte		N11   , Fs4 
	.byte	W12
	.byte		N05   , Gn4 
	.byte	W06
	.byte		        Dn4 
	.byte	W06
	.byte		N11   , An3 
	.byte	W06
	.byte		N40   , Fs2 
	.byte	W06
	.byte		N11   , Dn5 
	.byte	W60
@ 043   ----------------------------------------
wings0_6_043:
	.byte		N23   , Fs2 , v127
	.byte		N23   , An2 
	.byte		N23   , Cs3 
	.byte		N23   , Dn3 
	.byte		N23   , Fs3 
	.byte		N23   , An3 
	.byte	W36
	.byte		TIE   , Fs2 
	.byte		TIE   , Gn2 
	.byte		TIE   , Bn2 
	.byte		TIE   , Dn3 
	.byte	W60
	.byte	PEND
@ 044   ----------------------------------------
	.byte	W68
	.byte	W03
	.byte		EOT   , Fs2 
	.byte		        Gn2 
	.byte		        Bn2 
	.byte		        Dn3 
	.byte	W01
	.byte		N05   , Fs2 
	.byte	W06
	.byte		        Gn2 
	.byte	W06
	.byte		N11   , Bn2 
	.byte	W06
	.byte		N05   , Dn3 
	.byte	W06
@ 045   ----------------------------------------
	.byte		N23   , Fs2 
	.byte		N23   , An2 
	.byte		N23   , Cs3 
	.byte		N23   , En3 
	.byte	W36
	.byte		N56   , Dn2 
	.byte		N56   , An2 
	.byte	W60
@ 046   ----------------------------------------
	.byte	W96
@ 047   ----------------------------------------
	.byte		N23   , Fs2 
	.byte		N23   , An2 
	.byte		N23   , Bn2 
	.byte		N23   , Cs3 
	.byte		N23   , Dn3 
	.byte		N23   , Fs3 
	.byte		N23   , An3 
	.byte	W36
	.byte		TIE   , Fs2 
	.byte		TIE   , Gn2 
	.byte		TIE   , Bn2 
	.byte		TIE   , Dn3 
	.byte	W60
@ 048   ----------------------------------------
	.byte	W68
	.byte	W03
	.byte		EOT   , Fs2 
	.byte		        Gn2 
	.byte		        Bn2 
	.byte		        Dn3 
	.byte	W24
	.byte	W01
@ 049   ----------------------------------------
	.byte		N23   , An2 
	.byte		N23   , Cs3 
	.byte		N23   , En3 
	.byte	W36
	.byte		TIE   , Dn2 
	.byte		TIE   , An2 
	.byte	W60
@ 050   ----------------------------------------
	.byte	W44
	.byte	W03
	.byte		EOT   , Dn2 
	.byte		        An2 
	.byte	W48
	.byte	W01
@ 051   ----------------------------------------
	.byte	PATT
	 .word	wings0_6_043
@ 052   ----------------------------------------
	.byte	W68
	.byte	W03
	.byte		EOT   , Fs2 
	.byte		        Gn2 
	.byte		        Bn2 
	.byte		        Dn3 
	.byte	W24
	.byte	W01
@ 053   ----------------------------------------
	.byte		N23   , Fs2 , v127
	.byte		N23   , An2 
	.byte		N23   , Cs3 
	.byte		N23   , En3 
	.byte	W36
	.byte		TIE   , Dn2 
	.byte		TIE   , An2 
	.byte	W60
@ 054   ----------------------------------------
	.byte	W44
	.byte	W03
	.byte		EOT   , Dn2 
	.byte		        An2 
	.byte	W48
	.byte	W01
@ 055   ----------------------------------------
	.byte		N23   , Fs2 
	.byte		N23   , An2 
	.byte		N23   , Bn2 
	.byte		N23   , Cs3 
	.byte		N23   , Dn3 
	.byte		N23   , Fs3 
	.byte		N23   , An3 
	.byte	W36
	.byte		N32   , Fs2 
	.byte		N32   , Gn2 
	.byte		N32   , Bn2 
	.byte		N32   , Dn3 
	.byte	W60
@ 056   ----------------------------------------
	.byte		N68   , Fs2 
	.byte		N68   , Gn2 
	.byte		N68   , Bn2 
	.byte	W96
@ 057   ----------------------------------------
	.byte		N23   , An2 
	.byte		N23   , Cs3 
	.byte		N23   , En3 
	.byte	W36
	.byte		N56   , Dn2 
	.byte		N56   , An2 
	.byte	W60
@ 058   ----------------------------------------
	.byte		N11   , Fs3 
	.byte	W03
	.byte		        Gn3 
	.byte	W03
	.byte		        Dn4 
	.byte	W06
	.byte		        An3 
	.byte	W12
	.byte		        Cs4 
	.byte	W03
	.byte		        Dn4 
	.byte	W03
	.byte		        An4 
	.byte	W06
	.byte		        En4 
	.byte	W12
	.byte		        Fs4 
	.byte	W03
	.byte		        Gn4 
	.byte	W03
	.byte		        Dn5 
	.byte	W06
	.byte		        An4 
	.byte	W12
	.byte		        Cs5 
	.byte	W03
	.byte		        Dn5 
	.byte	W03
	.byte		        An5 
	.byte	W06
	.byte		        En5 
	.byte	W12
@ 059   ----------------------------------------
	.byte		N23   , Gn1 
	.byte		N23   , Dn2 
	.byte		N23   , Bn2 
	.byte		N23   , Dn4 
	.byte		N23   , Fs4 
	.byte		N23   , An4 
	.byte		N23   , Dn5 
	.byte	W24
	.byte		        An2 
	.byte		N23   , Bn2 
	.byte		N23   , Dn3 
	.byte		N23   , Fs3 
	.byte	W24
	.byte		        An2 
	.byte		N23   , Bn2 
	.byte		N23   , Dn3 
	.byte		N23   , Fs3 
	.byte	W24
	.byte		        An2 
	.byte		N23   , Bn2 
	.byte		N23   , Dn3 
	.byte		N23   , Fs3 
	.byte	W24
@ 060   ----------------------------------------
wings0_6_060:
	.byte		N23   , Gn1 , v127
	.byte		N23   , Dn2 
	.byte		N23   , An2 
	.byte		N23   , Bn2 
	.byte		N23   , Dn3 
	.byte		N23   , Fs3 
	.byte	W24
	.byte		        An2 
	.byte		N23   , Bn2 
	.byte		N23   , Dn3 
	.byte		N23   , Fs3 
	.byte	W24
	.byte		        An2 
	.byte		N23   , Bn2 
	.byte		N23   , Dn3 
	.byte		N23   , Fs3 
	.byte	W24
	.byte		        An2 
	.byte		N23   , Bn2 
	.byte		N23   , Dn3 
	.byte		N23   , Fs3 
	.byte	W24
	.byte	PEND
@ 061   ----------------------------------------
	.byte	PATT
	 .word	wings0_6_060
@ 062   ----------------------------------------
	.byte		N23   , Gn1 , v127
	.byte		N23   , Dn2 
	.byte		N23   , An2 
	.byte		N23   , Bn2 
	.byte		N23   , Dn3 
	.byte	W36
	.byte		N11   , En1 
	.byte		N11   , Bn1 
	.byte		N11   , Fs2 
	.byte		N11   , Gn2 
	.byte		N11   , Bn2 
	.byte	W36
	.byte		N23   , Bn1 
	.byte		N23   , Fs2 
	.byte		N23   , An2 
	.byte		N23   , Bn2 
	.byte		N23   , Cs3 
	.byte		N23   , En3 
	.byte	W24
@ 063   ----------------------------------------
	.byte	W24
	.byte		N05   , An2 
	.byte	W06
	.byte		        Bn2 
	.byte	W06
	.byte		        Cs3 
	.byte	W06
	.byte		        Dn3 
	.byte	W06
	.byte		        En3 
	.byte	W06
	.byte		        Fs3 
	.byte	W06
	.byte		        Gn3 
	.byte	W06
	.byte		        An3 
	.byte	W06
	.byte		N23   , En1 
	.byte		N23   , Bn1 
	.byte		N23   , En2 
	.byte		N23   , Gn3 
	.byte		N23   , Bn3 
	.byte		N23   , Dn4 
	.byte	W24
@ 064   ----------------------------------------
	.byte	W12
	.byte		N11   , Dn3 
	.byte		N11   , Fs3 
	.byte		N11   , Bn3 
	.byte	W36
	.byte		N44   , En3 
	.byte		N44   , An3 
	.byte		N44   , Cs4 
	.byte		N44   , En4 
	.byte	W48
@ 065   ----------------------------------------
	.byte	W48
@ 066   ----------------------------------------
	.byte	W96
@ 067   ----------------------------------------
	.byte	W96
@ 068   ----------------------------------------
	.byte	W96
@ 069   ----------------------------------------
	.byte	W96
@ 070   ----------------------------------------
	.byte	W96
@ 071   ----------------------------------------
	.byte	W96
@ 072   ----------------------------------------
	.byte	W96
@ 073   ----------------------------------------
	.byte	W96
@ 074   ----------------------------------------
	.byte	W96
@ 075   ----------------------------------------
	.byte	W92
	.byte	W03
	.byte	GOTO
	 .word	wings0_6_B1
wings0_6_B2:
	.byte	FINE

@**************** Track 7 (Midi-Chn.7) ****************@

wings0_7:
	.byte	KEYSH , wings0_key+0
@ 000   ----------------------------------------
	.byte		VOICE , 42
	.byte		VOL   , 100*wings0_mvl/mxv
	.byte		PAN   , c_v+0
	.byte	W96
@ 001   ----------------------------------------
	.byte	W96
@ 002   ----------------------------------------
	.byte	W96
@ 003   ----------------------------------------
	.byte	W96
@ 004   ----------------------------------------
	.byte	W96
@ 005   ----------------------------------------
	.byte	W96
@ 006   ----------------------------------------
	.byte	W96
@ 007   ----------------------------------------
	.byte	W96
@ 008   ----------------------------------------
	.byte	W96
@ 009   ----------------------------------------
	.byte	W96
@ 010   ----------------------------------------
	.byte	W96
@ 011   ----------------------------------------
	.byte	W96
@ 012   ----------------------------------------
	.byte	W96
@ 013   ----------------------------------------
	.byte	W96
@ 014   ----------------------------------------
	.byte	W96
@ 015   ----------------------------------------
	.byte	W96
@ 016   ----------------------------------------
	.byte	W96
@ 017   ----------------------------------------
	.byte	W96
@ 018   ----------------------------------------
	.byte	W96
@ 019   ----------------------------------------
	.byte	W96
@ 020   ----------------------------------------
	.byte	W96
@ 021   ----------------------------------------
	.byte	W96
@ 022   ----------------------------------------
	.byte	W96
@ 023   ----------------------------------------
	.byte	W96
@ 024   ----------------------------------------
	.byte	W96
@ 025   ----------------------------------------
	.byte	W96
@ 026   ----------------------------------------
	.byte	W96
@ 027   ----------------------------------------
	.byte	W96
@ 028   ----------------------------------------
	.byte	W48
@ 029   ----------------------------------------
	.byte	W19
wings0_7_B1:
	.byte	W76
	.byte	W01
@ 030   ----------------------------------------
	.byte	W96
@ 031   ----------------------------------------
	.byte	W96
@ 032   ----------------------------------------
	.byte	W96
@ 033   ----------------------------------------
	.byte	W96
@ 034   ----------------------------------------
	.byte	W96
@ 035   ----------------------------------------
	.byte	W96
@ 036   ----------------------------------------
	.byte	W96
@ 037   ----------------------------------------
	.byte	W96
@ 038   ----------------------------------------
	.byte	W96
@ 039   ----------------------------------------
	.byte	W96
@ 040   ----------------------------------------
	.byte	W96
@ 041   ----------------------------------------
	.byte	W96
@ 042   ----------------------------------------
	.byte	W96
@ 043   ----------------------------------------
	.byte	W72
	.byte		N23   , An2 , v096
	.byte	W24
@ 044   ----------------------------------------
	.byte		N32   , Bn2 
	.byte	W36
	.byte		N92   , Fs2 
	.byte	W60
@ 045   ----------------------------------------
	.byte	W36
	.byte		N56   , An1 
	.byte	W60
@ 046   ----------------------------------------
	.byte		N23   , En2 
	.byte	W24
	.byte		N64   , Fs2 
	.byte	W66
	.byte		N40   , An2 
	.byte	W06
@ 047   ----------------------------------------
	.byte	W36
	.byte		N44   , Dn2 
	.byte	W48
	.byte		N05   , En2 
	.byte	W06
	.byte		        Fs2 
	.byte	W06
@ 048   ----------------------------------------
	.byte		N32   , Bn2 
	.byte	W36
	.byte		N23   , Cs3 
	.byte	W24
	.byte		N32   , An2 
	.byte	W36
@ 049   ----------------------------------------
wings0_7_049:
	.byte		N32   , Bn2 , v096
	.byte	W36
	.byte		N56   , Fs2 
	.byte	W60
	.byte	PEND
@ 050   ----------------------------------------
	.byte		N32   , Gn2 
	.byte	W36
	.byte		N23   , Dn3 
	.byte	W24
	.byte		N32   , En3 
	.byte	W36
@ 051   ----------------------------------------
	.byte		        Fs3 
	.byte	W36
	.byte		TIE   , Dn3 
	.byte	W60
@ 052   ----------------------------------------
	.byte	W92
	.byte	W03
	.byte		EOT   
	.byte	W01
@ 053   ----------------------------------------
	.byte		N32   , Cs3 
	.byte	W36
	.byte		N56   , Fs2 
	.byte	W60
@ 054   ----------------------------------------
	.byte		N32   , Cs3 
	.byte	W36
	.byte		TIE   , An2 
	.byte	W60
@ 055   ----------------------------------------
	.byte	W92
	.byte	W03
	.byte		EOT   
	.byte	W01
@ 056   ----------------------------------------
	.byte	PATT
	 .word	wings0_7_049
@ 057   ----------------------------------------
	.byte		N44   , Gn2 , v096
	.byte	W48
	.byte		N23   , An2 
	.byte	W24
	.byte		        Bn2 
	.byte	W24
@ 058   ----------------------------------------
	.byte		N44   , Gn2 
	.byte	W96
@ 059   ----------------------------------------
	.byte	W96
@ 060   ----------------------------------------
	.byte	W96
@ 061   ----------------------------------------
	.byte	W96
@ 062   ----------------------------------------
	.byte	W96
@ 063   ----------------------------------------
	.byte	W96
@ 064   ----------------------------------------
	.byte	W96
@ 065   ----------------------------------------
	.byte	W48
@ 066   ----------------------------------------
	.byte	W96
@ 067   ----------------------------------------
	.byte	W96
@ 068   ----------------------------------------
	.byte	W96
@ 069   ----------------------------------------
	.byte	W96
@ 070   ----------------------------------------
	.byte	W96
@ 071   ----------------------------------------
	.byte	W96
@ 072   ----------------------------------------
	.byte	W96
@ 073   ----------------------------------------
	.byte	W96
@ 074   ----------------------------------------
	.byte	W96
@ 075   ----------------------------------------
	.byte	W92
	.byte	W03
	.byte	GOTO
	 .word	wings0_7_B1
wings0_7_B2:
	.byte	FINE

@**************** Track 8 (Midi-Chn.10) ****************@

wings0_8:
	.byte	KEYSH , wings0_key+0
@ 000   ----------------------------------------
	.byte		VOICE , 121
	.byte		VOL   , 100*wings0_mvl/mxv
	.byte		PAN   , c_v+0
	.byte		N23   , Cn1 , v096
	.byte	W24
	.byte		N23   
	.byte	W24
	.byte		N23   
	.byte	W24
	.byte		N23   
	.byte	W24
@ 001   ----------------------------------------
wings0_8_001:
	.byte		N23   , Cn1 , v096
	.byte	W24
	.byte		N23   
	.byte	W24
	.byte		N23   
	.byte	W24
	.byte		N23   
	.byte	W24
	.byte	PEND
@ 002   ----------------------------------------
	.byte	PATT
	 .word	wings0_8_001
@ 003   ----------------------------------------
	.byte	PATT
	 .word	wings0_8_001
@ 004   ----------------------------------------
	.byte	PATT
	 .word	wings0_8_001
@ 005   ----------------------------------------
	.byte	PATT
	 .word	wings0_8_001
@ 006   ----------------------------------------
	.byte	PATT
	 .word	wings0_8_001
@ 007   ----------------------------------------
	.byte	PATT
	 .word	wings0_8_001
@ 008   ----------------------------------------
	.byte	PATT
	 .word	wings0_8_001
@ 009   ----------------------------------------
	.byte	PATT
	 .word	wings0_8_001
@ 010   ----------------------------------------
	.byte	PATT
	 .word	wings0_8_001
@ 011   ----------------------------------------
	.byte	PATT
	 .word	wings0_8_001
@ 012   ----------------------------------------
	.byte	PATT
	 .word	wings0_8_001
@ 013   ----------------------------------------
	.byte	PATT
	 .word	wings0_8_001
@ 014   ----------------------------------------
	.byte	PATT
	 .word	wings0_8_001
@ 015   ----------------------------------------
	.byte	PATT
	 .word	wings0_8_001
@ 016   ----------------------------------------
	.byte	PATT
	 .word	wings0_8_001
@ 017   ----------------------------------------
	.byte	PATT
	 .word	wings0_8_001
@ 018   ----------------------------------------
	.byte	PATT
	 .word	wings0_8_001
@ 019   ----------------------------------------
	.byte	PATT
	 .word	wings0_8_001
@ 020   ----------------------------------------
	.byte	PATT
	 .word	wings0_8_001
@ 021   ----------------------------------------
	.byte	PATT
	 .word	wings0_8_001
@ 022   ----------------------------------------
	.byte	PATT
	 .word	wings0_8_001
@ 023   ----------------------------------------
	.byte	PATT
	 .word	wings0_8_001
@ 024   ----------------------------------------
	.byte	PATT
	 .word	wings0_8_001
@ 025   ----------------------------------------
	.byte	PATT
	 .word	wings0_8_001
@ 026   ----------------------------------------
	.byte	PATT
	 .word	wings0_8_001
@ 027   ----------------------------------------
	.byte	PATT
	 .word	wings0_8_001
@ 028   ----------------------------------------
	.byte	W48
@ 029   ----------------------------------------
	.byte		N23   , Cn1 , v096
	.byte		N23   , En2 
	.byte	W19
wings0_8_B1:
	.byte	W05
	.byte		N11   , Dn1 , v096
	.byte		N11   , As1 
	.byte	W12
	.byte		N05   
	.byte	W06
	.byte		        Cn1 
	.byte	W06
	.byte		N11   
	.byte		N11   , As1 
	.byte	W12
	.byte		N11   
	.byte	W12
	.byte		        Dn1 
	.byte		N11   , As1 
	.byte	W12
	.byte		N11   
	.byte	W12
@ 030   ----------------------------------------
wings0_8_030:
	.byte		N11   , Cn1 , v096
	.byte		N11   , As1 
	.byte	W12
	.byte		N11   
	.byte	W12
	.byte		        Dn1 
	.byte		N11   , As1 
	.byte	W12
	.byte		N11   
	.byte	W12
	.byte		        Cn1 
	.byte		N11   , As1 
	.byte	W12
	.byte		N11   
	.byte	W12
	.byte		        Dn1 
	.byte		N11   , As1 
	.byte	W12
	.byte		N05   
	.byte	W06
	.byte		        Cn1 
	.byte	W06
	.byte	PEND
@ 031   ----------------------------------------
wings0_8_031:
	.byte		N17   , Cn1 , v096
	.byte		N17   , En2 
	.byte	W18
	.byte		N05   , Cn1 
	.byte	W06
	.byte		N11   , Dn1 
	.byte		N11   , As1 
	.byte	W12
	.byte		N11   
	.byte	W12
	.byte		        Cn1 
	.byte		N11   , As1 
	.byte	W12
	.byte		N05   
	.byte	W06
	.byte		        Cn1 
	.byte	W06
	.byte		        Dn1 
	.byte		N05   , As1 
	.byte	W06
	.byte		        Cn1 
	.byte	W06
	.byte		N11   , As1 
	.byte	W12
	.byte	PEND
@ 032   ----------------------------------------
wings0_8_032:
	.byte		N11   , Cn1 , v096
	.byte		N11   , As1 
	.byte	W12
	.byte		N11   
	.byte	W12
	.byte		        Dn1 
	.byte		N11   , As1 
	.byte	W12
	.byte		N05   
	.byte	W06
	.byte		        Cn1 
	.byte	W06
	.byte		N11   
	.byte		N11   , As1 
	.byte	W12
	.byte		N05   
	.byte	W06
	.byte		        Cn1 
	.byte	W06
	.byte		        Dn1 
	.byte		N05   , As1 
	.byte	W06
	.byte		        Cn1 
	.byte	W06
	.byte		N11   , As1 
	.byte	W12
	.byte	PEND
@ 033   ----------------------------------------
	.byte		N17   , Cn1 
	.byte		N17   , En2 
	.byte	W18
	.byte		N05   , Cn1 
	.byte	W06
	.byte		N11   , Dn1 
	.byte		N11   , As1 
	.byte	W12
	.byte		N05   
	.byte	W06
	.byte		        Cn1 
	.byte	W06
	.byte		N11   
	.byte		N11   , As1 
	.byte	W12
	.byte		N05   
	.byte	W06
	.byte		        Cn1 
	.byte	W06
	.byte		        Dn1 
	.byte		N05   , As1 
	.byte	W06
	.byte		        Cn1 
	.byte	W06
	.byte		        As1 
	.byte	W06
	.byte		        Cn1 
	.byte	W06
@ 034   ----------------------------------------
	.byte		N11   
	.byte		N11   , As1 
	.byte	W12
	.byte		N05   
	.byte	W06
	.byte		N11   , Cn1 
	.byte	W12
	.byte		N05   , Dn1 
	.byte		N05   , As1 
	.byte	W06
	.byte		N05   
	.byte	W06
	.byte		        Cn1 
	.byte	W06
	.byte		N11   
	.byte		N11   , As1 
	.byte	W12
	.byte		N11   
	.byte	W12
	.byte		N05   , Dn1 
	.byte		N05   , As1 
	.byte	W06
	.byte		        Dn1 
	.byte	W06
	.byte		        Dn1 
	.byte	W06
	.byte		        Fn1 
	.byte	W06
@ 035   ----------------------------------------
wings0_8_035:
	.byte		N11   , Cn1 , v096
	.byte		N11   , En2 
	.byte	W12
	.byte		N05   , Ds2 
	.byte	W06
	.byte		        Dn1 
	.byte	W06
	.byte		        Ds2 
	.byte	W06
	.byte		        Dn1 
	.byte	W06
	.byte		N05   
	.byte		N05   , Ds2 
	.byte	W06
	.byte		N05   
	.byte	W06
	.byte		N05   
	.byte	W06
	.byte		        Dn1 
	.byte	W06
	.byte		        Ds2 
	.byte	W06
	.byte		        Dn1 
	.byte	W06
	.byte		        Ds2 
	.byte	W06
	.byte		        Fn1 
	.byte	W06
	.byte		        Ds2 
	.byte	W06
	.byte		        Cn1 
	.byte	W06
	.byte	PEND
@ 036   ----------------------------------------
wings0_8_036:
	.byte		N11   , Cn1 , v096
	.byte		N11   , En2 
	.byte	W12
	.byte		N05   , Ds2 
	.byte	W06
	.byte		        Dn1 
	.byte	W06
	.byte		N11   , Ds2 
	.byte	W12
	.byte		        Cn1 
	.byte		N11   , Ds2 
	.byte	W12
	.byte		N11   
	.byte	W12
	.byte		N11   
	.byte	W12
	.byte		        Dn1 
	.byte		N11   , Ds2 
	.byte	W12
	.byte		N05   
	.byte	W06
	.byte		        Cn1 
	.byte	W06
	.byte	PEND
@ 037   ----------------------------------------
wings0_8_037:
	.byte		N11   , Cn1 , v096
	.byte		N11   , Ds2 
	.byte	W12
	.byte		N05   
	.byte	W06
	.byte		        Dn1 
	.byte	W06
	.byte		N11   , Ds2 
	.byte	W12
	.byte		        Cn1 
	.byte		N11   , Ds2 
	.byte	W12
	.byte		N05   
	.byte	W06
	.byte		N11   , Cn1 
	.byte	W12
	.byte		N05   
	.byte	W06
	.byte		N11   , Dn1 
	.byte		N11   , Ds2 
	.byte	W12
	.byte		N05   , Dn1 
	.byte		N05   , Ds2 
	.byte	W06
	.byte		        Cn1 
	.byte	W06
	.byte	PEND
@ 038   ----------------------------------------
	.byte		N05   
	.byte		N05   , Ds2 
	.byte	W06
	.byte		N05   
	.byte	W06
	.byte		N05   
	.byte	W06
	.byte		        Cn1 
	.byte	W12
	.byte		N05   
	.byte	W06
	.byte		        Dn1 
	.byte		N05   , Ds2 
	.byte	W06
	.byte		N05   
	.byte	W06
	.byte		N05   
	.byte	W06
	.byte		        Dn1 
	.byte	W06
	.byte		        Ds2 
	.byte	W06
	.byte		        Dn1 
	.byte	W06
	.byte		N11   
	.byte	W12
	.byte		N05   , Dn1 
	.byte	W06
	.byte		        Dn1 
	.byte	W06
@ 039   ----------------------------------------
wings0_8_039:
	.byte		N05   , Cn1 , v096
	.byte		N05   , Cs1 
	.byte	W06
	.byte		N05   
	.byte	W06
	.byte		N05   
	.byte	W06
	.byte		N05   
	.byte	W06
	.byte		        Cn1 
	.byte		N05   , Cs1 
	.byte	W06
	.byte		N05   
	.byte	W06
	.byte		N05   
	.byte	W06
	.byte		N05   
	.byte	W06
	.byte		        Cn1 
	.byte		N05   , Cs1 
	.byte	W06
	.byte		N05   
	.byte	W06
	.byte		N05   
	.byte	W06
	.byte		N05   
	.byte	W06
	.byte		        Cn1 
	.byte		N05   , Cs1 
	.byte	W06
	.byte		N05   
	.byte	W06
	.byte		N05   
	.byte	W06
	.byte		N05   
	.byte	W06
	.byte	PEND
@ 040   ----------------------------------------
	.byte	PATT
	 .word	wings0_8_039
@ 041   ----------------------------------------
	.byte	PATT
	 .word	wings0_8_039
@ 042   ----------------------------------------
	.byte	PATT
	 .word	wings0_8_039
@ 043   ----------------------------------------
	.byte	PATT
	 .word	wings0_8_039
@ 044   ----------------------------------------
	.byte	PATT
	 .word	wings0_8_039
@ 045   ----------------------------------------
	.byte	PATT
	 .word	wings0_8_039
@ 046   ----------------------------------------
	.byte	PATT
	 .word	wings0_8_039
@ 047   ----------------------------------------
	.byte	PATT
	 .word	wings0_8_039
@ 048   ----------------------------------------
	.byte	PATT
	 .word	wings0_8_039
@ 049   ----------------------------------------
	.byte	PATT
	 .word	wings0_8_039
@ 050   ----------------------------------------
	.byte	PATT
	 .word	wings0_8_039
@ 051   ----------------------------------------
	.byte	PATT
	 .word	wings0_8_039
@ 052   ----------------------------------------
	.byte	PATT
	 .word	wings0_8_039
@ 053   ----------------------------------------
	.byte	PATT
	 .word	wings0_8_039
@ 054   ----------------------------------------
	.byte	PATT
	 .word	wings0_8_039
@ 055   ----------------------------------------
	.byte	PATT
	 .word	wings0_8_039
@ 056   ----------------------------------------
	.byte	PATT
	 .word	wings0_8_039
@ 057   ----------------------------------------
	.byte	PATT
	 .word	wings0_8_039
@ 058   ----------------------------------------
	.byte	PATT
	 .word	wings0_8_039
@ 059   ----------------------------------------
	.byte	W96
@ 060   ----------------------------------------
	.byte	W96
@ 061   ----------------------------------------
	.byte	W96
@ 062   ----------------------------------------
	.byte	W96
@ 063   ----------------------------------------
	.byte	W96
@ 064   ----------------------------------------
	.byte	W96
@ 065   ----------------------------------------
	.byte	W48
@ 066   ----------------------------------------
	.byte		N23   , Cn1 , v096
	.byte		N23   , En2 
	.byte	W24
	.byte		N11   , Dn1 
	.byte		N11   , As1 
	.byte	W12
	.byte		N05   
	.byte	W06
	.byte		        Cn1 
	.byte	W06
	.byte		N11   
	.byte		N11   , As1 
	.byte	W12
	.byte		N11   
	.byte	W12
	.byte		        Dn1 
	.byte		N11   , As1 
	.byte	W12
	.byte		N11   
	.byte	W12
@ 067   ----------------------------------------
	.byte	PATT
	 .word	wings0_8_030
@ 068   ----------------------------------------
	.byte	PATT
	 .word	wings0_8_031
@ 069   ----------------------------------------
	.byte	PATT
	 .word	wings0_8_032
@ 070   ----------------------------------------
	.byte		N17   , Cn1 , v096
	.byte		N17   , En2 
	.byte	W18
	.byte		N05   , Cn1 
	.byte	W06
	.byte		N11   , Dn1 
	.byte		N11   , As1 
	.byte	W18
	.byte		N05   , Cn1 
	.byte	W06
	.byte		N11   
	.byte		N11   , As1 
	.byte	W12
	.byte		N05   
	.byte	W06
	.byte		        Cn1 
	.byte	W06
	.byte		        Dn1 
	.byte		N05   , As1 
	.byte	W06
	.byte		        Cn1 
	.byte	W12
	.byte		N05   
	.byte	W06
@ 071   ----------------------------------------
	.byte	W12
	.byte		        As1 
	.byte	W06
	.byte		N11   , Cn1 
	.byte	W12
	.byte		N05   , Dn1 
	.byte		N05   , As1 
	.byte	W06
	.byte		N05   
	.byte	W06
	.byte		        Cn1 
	.byte	W06
	.byte		N11   
	.byte		N11   , As1 
	.byte	W12
	.byte		N05   , Dn1 
	.byte		N05   , As1 
	.byte	W06
	.byte		        Cn1 
	.byte	W06
	.byte		        Dn1 
	.byte		N05   , As1 
	.byte	W06
	.byte		        Dn1 
	.byte	W06
	.byte		        Dn1 
	.byte	W06
	.byte		        Fn1 
	.byte	W06
@ 072   ----------------------------------------
	.byte	PATT
	 .word	wings0_8_035
@ 073   ----------------------------------------
	.byte	PATT
	 .word	wings0_8_036
@ 074   ----------------------------------------
	.byte	PATT
	 .word	wings0_8_037
@ 075   ----------------------------------------
	.byte		N23   , Cn1 , v096
	.byte		N23   , Ds2 
	.byte	W92
	.byte	W03
	.byte	GOTO
	 .word	wings0_8_B1
wings0_8_B2:
	.byte	FINE

@**************** Track 9 (Midi-Chn.11) ****************@

wings0_9:
	.byte	KEYSH , wings0_key+0
@ 000   ----------------------------------------
	.byte		VOICE , 68
	.byte		VOL   , 100*wings0_mvl/mxv
	.byte		PAN   , c_v+0
	.byte	W96
@ 001   ----------------------------------------
	.byte	W96
@ 002   ----------------------------------------
	.byte	W96
@ 003   ----------------------------------------
	.byte	W96
@ 004   ----------------------------------------
	.byte	W96
@ 005   ----------------------------------------
	.byte	W96
@ 006   ----------------------------------------
	.byte	W96
@ 007   ----------------------------------------
	.byte	W96
@ 008   ----------------------------------------
	.byte	W96
@ 009   ----------------------------------------
	.byte	W96
@ 010   ----------------------------------------
	.byte	W96
@ 011   ----------------------------------------
	.byte	W96
@ 012   ----------------------------------------
	.byte	W96
@ 013   ----------------------------------------
	.byte	W96
@ 014   ----------------------------------------
	.byte	W96
@ 015   ----------------------------------------
	.byte	W96
@ 016   ----------------------------------------
	.byte	W96
@ 017   ----------------------------------------
	.byte	W96
@ 018   ----------------------------------------
	.byte	W96
@ 019   ----------------------------------------
	.byte	W96
@ 020   ----------------------------------------
	.byte	W96
@ 021   ----------------------------------------
	.byte	W96
@ 022   ----------------------------------------
	.byte	W96
@ 023   ----------------------------------------
	.byte	W96
@ 024   ----------------------------------------
	.byte	W96
@ 025   ----------------------------------------
	.byte	W96
@ 026   ----------------------------------------
	.byte	W96
@ 027   ----------------------------------------
	.byte	W96
@ 028   ----------------------------------------
	.byte	W48
@ 029   ----------------------------------------
	.byte	W19
wings0_9_B1:
	.byte	W76
	.byte	W01
@ 030   ----------------------------------------
	.byte	W96
@ 031   ----------------------------------------
	.byte	W96
@ 032   ----------------------------------------
	.byte	W96
@ 033   ----------------------------------------
	.byte	W96
@ 034   ----------------------------------------
	.byte	W96
@ 035   ----------------------------------------
	.byte	W96
@ 036   ----------------------------------------
	.byte	W96
@ 037   ----------------------------------------
	.byte	W96
@ 038   ----------------------------------------
	.byte	W96
@ 039   ----------------------------------------
	.byte	W96
@ 040   ----------------------------------------
	.byte	W96
@ 041   ----------------------------------------
	.byte	W96
@ 042   ----------------------------------------
	.byte	W96
@ 043   ----------------------------------------
	.byte	W96
@ 044   ----------------------------------------
	.byte	W96
@ 045   ----------------------------------------
	.byte	W96
@ 046   ----------------------------------------
	.byte	W96
@ 047   ----------------------------------------
	.byte	W96
@ 048   ----------------------------------------
	.byte	W96
@ 049   ----------------------------------------
	.byte	W36
	.byte		N56   , Fs3 , v052
	.byte	W60
@ 050   ----------------------------------------
	.byte		N32   , Gn3 
	.byte	W36
	.byte		N23   , Bn3 
	.byte	W24
	.byte		N32   , Cs4 
	.byte	W36
@ 051   ----------------------------------------
	.byte		N92   , Dn4 
	.byte	W96
@ 052   ----------------------------------------
	.byte		N32   , En4 
	.byte	W36
	.byte		N56   , An4 
	.byte	W60
@ 053   ----------------------------------------
	.byte	W96
@ 054   ----------------------------------------
	.byte		N40   , Dn4 
	.byte	W42
	.byte		N05   , Cs4 
	.byte	W06
	.byte		N23   , Bn3 
	.byte	W24
	.byte		        Cs4 
	.byte	W24
@ 055   ----------------------------------------
	.byte		N32   , An3 
	.byte	W36
	.byte		N56   , Dn3 
	.byte	W60
@ 056   ----------------------------------------
	.byte	W96
@ 057   ----------------------------------------
	.byte	W96
@ 058   ----------------------------------------
	.byte	W96
@ 059   ----------------------------------------
	.byte	W96
@ 060   ----------------------------------------
	.byte	W96
@ 061   ----------------------------------------
	.byte	W96
@ 062   ----------------------------------------
	.byte	W96
@ 063   ----------------------------------------
	.byte	W96
@ 064   ----------------------------------------
	.byte	W96
@ 065   ----------------------------------------
	.byte	W48
@ 066   ----------------------------------------
	.byte	W96
@ 067   ----------------------------------------
	.byte	W96
@ 068   ----------------------------------------
	.byte	W96
@ 069   ----------------------------------------
	.byte	W96
@ 070   ----------------------------------------
	.byte	W96
@ 071   ----------------------------------------
	.byte	W96
@ 072   ----------------------------------------
	.byte	W96
@ 073   ----------------------------------------
	.byte	W96
@ 074   ----------------------------------------
	.byte	W96
@ 075   ----------------------------------------
	.byte	W92
	.byte	W03
	.byte	GOTO
	 .word	wings0_9_B1
wings0_9_B2:
	.byte	FINE

@**************** Track 10 (Midi-Chn.12) ****************@

wings0_10:
	.byte	KEYSH , wings0_key+0
@ 000   ----------------------------------------
	.byte		VOICE , 51
	.byte		VOL   , 100*wings0_mvl/mxv
	.byte		PAN   , c_v+0
	.byte	W96
@ 001   ----------------------------------------
	.byte	W96
@ 002   ----------------------------------------
	.byte	W96
@ 003   ----------------------------------------
	.byte	W96
@ 004   ----------------------------------------
	.byte	W96
@ 005   ----------------------------------------
	.byte	W96
@ 006   ----------------------------------------
	.byte	W96
@ 007   ----------------------------------------
	.byte	W96
@ 008   ----------------------------------------
	.byte	W96
@ 009   ----------------------------------------
	.byte	W96
@ 010   ----------------------------------------
	.byte	W96
@ 011   ----------------------------------------
	.byte	W96
@ 012   ----------------------------------------
	.byte	W96
@ 013   ----------------------------------------
	.byte	W96
@ 014   ----------------------------------------
	.byte	W96
@ 015   ----------------------------------------
	.byte	W96
@ 016   ----------------------------------------
	.byte	W96
@ 017   ----------------------------------------
	.byte	W96
@ 018   ----------------------------------------
	.byte	W96
@ 019   ----------------------------------------
	.byte	W96
@ 020   ----------------------------------------
	.byte	W96
@ 021   ----------------------------------------
	.byte	W96
@ 022   ----------------------------------------
	.byte	W96
@ 023   ----------------------------------------
	.byte	W96
@ 024   ----------------------------------------
	.byte	W96
@ 025   ----------------------------------------
	.byte	W96
@ 026   ----------------------------------------
	.byte	W96
@ 027   ----------------------------------------
	.byte	W96
@ 028   ----------------------------------------
	.byte	W48
@ 029   ----------------------------------------
	.byte	W19
wings0_10_B1:
	.byte	W76
	.byte	W01
@ 030   ----------------------------------------
	.byte	W96
@ 031   ----------------------------------------
	.byte	W96
@ 032   ----------------------------------------
	.byte	W96
@ 033   ----------------------------------------
	.byte	W96
@ 034   ----------------------------------------
	.byte	W96
@ 035   ----------------------------------------
	.byte	W96
@ 036   ----------------------------------------
	.byte	W96
@ 037   ----------------------------------------
	.byte	W96
@ 038   ----------------------------------------
	.byte	W96
@ 039   ----------------------------------------
	.byte	W96
@ 040   ----------------------------------------
	.byte	W96
@ 041   ----------------------------------------
	.byte	W96
@ 042   ----------------------------------------
	.byte	W96
@ 043   ----------------------------------------
	.byte		N32   , Cs3 , v064
	.byte		N32   , Dn3 
	.byte		N32   , Fs3 
	.byte		N32   , An3 
	.byte	W36
	.byte		TIE   , Fs2 
	.byte		TIE   , Gn2 
	.byte		TIE   , Bn2 
	.byte		TIE   , Dn3 
	.byte	W60
@ 044   ----------------------------------------
	.byte	W68
	.byte	W03
	.byte		EOT   , Fs2 
	.byte		        Gn2 
	.byte		        Bn2 
	.byte	W18
	.byte		        Dn3 
	.byte	W01
	.byte		N28   , Fs2 
	.byte		N28   , An2 
	.byte		N28   , Cs3 
	.byte		N28   , En3 
	.byte	W06
@ 045   ----------------------------------------
	.byte	W24
	.byte		TIE   , Dn2 
	.byte		TIE   , An2 
	.byte	W72
@ 046   ----------------------------------------
	.byte	W92
	.byte	W03
	.byte		EOT   , Dn2 
	.byte		        An2 
	.byte	W01
@ 047   ----------------------------------------
	.byte		N32   , Bn2 
	.byte		N32   , Cs3 
	.byte		N32   , Dn3 
	.byte		N32   , Fs3 
	.byte		N32   , An3 
	.byte	W36
	.byte		TIE   , Fs2 
	.byte		TIE   , Gn2 
	.byte		TIE   , Dn3 
	.byte	W60
@ 048   ----------------------------------------
	.byte	W88
	.byte	W01
	.byte		EOT   , Fs2 
	.byte		        Gn2 
	.byte	W01
	.byte		N05   , An2 
	.byte	W05
	.byte		EOT   , Dn3 
	.byte	W01
@ 049   ----------------------------------------
	.byte		N32   , Fs2 
	.byte		N23   , Cs3 
	.byte		N23   , En3 
	.byte	W36
	.byte		TIE   , Dn2 
	.byte	W60
@ 050   ----------------------------------------
	.byte	W90
	.byte		N05   , Cs3 
	.byte		N05   , Dn3 
	.byte		N05   , An3 
	.byte	W05
	.byte		EOT   , Dn2 
	.byte	W01
@ 051   ----------------------------------------
	.byte		N32   , Fs3 
	.byte	W36
	.byte		TIE   , Fs2 
	.byte		TIE   , Gn2 
	.byte		TIE   , Bn2 
	.byte		TIE   , Dn3 
	.byte	W60
@ 052   ----------------------------------------
	.byte	W68
	.byte	W03
	.byte		EOT   , Fs2 
	.byte		        Gn2 
	.byte		        Bn2 
	.byte	W18
	.byte		        Dn3 
	.byte	W01
	.byte		N40   , Fs2 
	.byte		N40   , An2 
	.byte		N28   , Cs3 
	.byte		N28   , En3 
	.byte	W06
@ 053   ----------------------------------------
	.byte	W36
	.byte		TIE   , Dn2 
	.byte	W60
@ 054   ----------------------------------------
	.byte	W92
	.byte	W03
	.byte		EOT   
	.byte	W01
@ 055   ----------------------------------------
	.byte		N32   , Bn2 
	.byte		N32   , Cs3 
	.byte		N32   , Dn3 
	.byte		N32   , Fs3 
	.byte		N32   , An3 
	.byte	W36
	.byte		TIE   , Fs2 
	.byte		TIE   , Gn2 
	.byte	W60
@ 056   ----------------------------------------
	.byte	W88
	.byte	W01
	.byte		EOT   , Fs2 
	.byte		        Gn2 
	.byte	W01
	.byte		N05   , An2 
	.byte		N05   , Cs3 
	.byte	W06
@ 057   ----------------------------------------
	.byte		N32   , Fs2 
	.byte		N23   , En3 
	.byte	W36
	.byte		TIE   , Dn2 
	.byte		TIE   , Bn2 
	.byte	W60
@ 058   ----------------------------------------
	.byte	W92
	.byte	W03
	.byte		EOT   , Dn2 
	.byte		        Bn2 
	.byte	W01
@ 059   ----------------------------------------
	.byte	W96
@ 060   ----------------------------------------
	.byte	W96
@ 061   ----------------------------------------
	.byte	W96
@ 062   ----------------------------------------
	.byte	W96
@ 063   ----------------------------------------
	.byte	W96
@ 064   ----------------------------------------
	.byte	W96
@ 065   ----------------------------------------
	.byte	W48
@ 066   ----------------------------------------
	.byte	W96
@ 067   ----------------------------------------
	.byte	W96
@ 068   ----------------------------------------
	.byte	W96
@ 069   ----------------------------------------
	.byte	W96
@ 070   ----------------------------------------
	.byte	W96
@ 071   ----------------------------------------
	.byte	W96
@ 072   ----------------------------------------
	.byte	W96
@ 073   ----------------------------------------
	.byte	W96
@ 074   ----------------------------------------
	.byte	W96
@ 075   ----------------------------------------
	.byte	W92
	.byte	W03
	.byte	GOTO
	 .word	wings0_10_B1
wings0_10_B2:
	.byte	FINE

@**************** Track 11 (Midi-Chn.13) ****************@

wings0_11:
	.byte	KEYSH , wings0_key+0
@ 000   ----------------------------------------
	.byte		VOICE , 51
	.byte		VOL   , 100*wings0_mvl/mxv
	.byte		PAN   , c_v+0
	.byte	W96
@ 001   ----------------------------------------
	.byte	W96
@ 002   ----------------------------------------
	.byte	W96
@ 003   ----------------------------------------
	.byte	W96
@ 004   ----------------------------------------
	.byte	W96
@ 005   ----------------------------------------
	.byte	W96
@ 006   ----------------------------------------
	.byte	W96
@ 007   ----------------------------------------
	.byte	W96
@ 008   ----------------------------------------
	.byte	W96
@ 009   ----------------------------------------
	.byte	W96
@ 010   ----------------------------------------
	.byte	W96
@ 011   ----------------------------------------
	.byte	W96
@ 012   ----------------------------------------
	.byte	W96
@ 013   ----------------------------------------
	.byte	W96
@ 014   ----------------------------------------
	.byte	W96
@ 015   ----------------------------------------
	.byte	W96
@ 016   ----------------------------------------
	.byte	W96
@ 017   ----------------------------------------
	.byte	W96
@ 018   ----------------------------------------
	.byte	W96
@ 019   ----------------------------------------
	.byte	W96
@ 020   ----------------------------------------
	.byte	W96
@ 021   ----------------------------------------
	.byte	W96
@ 022   ----------------------------------------
	.byte	W96
@ 023   ----------------------------------------
	.byte	W96
@ 024   ----------------------------------------
	.byte	W96
@ 025   ----------------------------------------
	.byte	W96
@ 026   ----------------------------------------
	.byte	W96
@ 027   ----------------------------------------
	.byte	W96
@ 028   ----------------------------------------
	.byte	W48
@ 029   ----------------------------------------
	.byte		N80   , Dn0 , v064
	.byte		N80   , An3 
	.byte	W19
wings0_11_B1:
	.byte	W64
	.byte	W01
	.byte		TIE   , En3 , v064
	.byte		N44   , Bn3 
	.byte	W12
@ 030   ----------------------------------------
	.byte	W36
	.byte		        En4 
	.byte	W48
	.byte		N80   , Dn4 
	.byte	W11
	.byte		EOT   , En3 
	.byte	W01
@ 031   ----------------------------------------
	.byte		N92   , Dn0 
	.byte	W84
	.byte		N32   , En4 
	.byte	W12
@ 032   ----------------------------------------
	.byte		N92   , En3 
	.byte	W36
	.byte		N32   , Gn4 
	.byte	W36
	.byte		N44   , Fs4 
	.byte	W24
@ 033   ----------------------------------------
	.byte	W24
	.byte		N80   , An4 
	.byte	W60
	.byte		TIE   , En3 
	.byte	W12
@ 034   ----------------------------------------
	.byte	W12
	.byte		N11   , Gn4 
	.byte	W12
	.byte		        Fs4 
	.byte	W12
	.byte		N32   , En4 
	.byte	W36
	.byte		N23   , An4 
	.byte	W23
	.byte		EOT   , En3 
	.byte	W01
@ 035   ----------------------------------------
	.byte		N32   , Gn3 
	.byte		N36   , Bn3 
	.byte	W36
	.byte		N44   
	.byte	W48
	.byte		N11   , Cs4 
	.byte	W12
@ 036   ----------------------------------------
	.byte		N32   , Dn4 
	.byte		N84   , Bn4 
	.byte	W36
	.byte		N44   , An4 
	.byte	W48
	.byte		N11   , Bn4 
	.byte	W12
@ 037   ----------------------------------------
	.byte		TIE   , Bn3 
	.byte	W30
	.byte		N56   , Cs5 
	.byte	W60
	.byte		N40   , An4 
	.byte	W06
@ 038   ----------------------------------------
	.byte	W36
	.byte		N23   , Fs4 
	.byte	W24
	.byte		        Dn4 
	.byte	W24
	.byte		N56   , Cs4 
	.byte	W11
	.byte		EOT   , Bn3 
	.byte	W01
@ 039   ----------------------------------------
	.byte	W96
@ 040   ----------------------------------------
	.byte	W96
@ 041   ----------------------------------------
	.byte	W96
@ 042   ----------------------------------------
	.byte	W96
@ 043   ----------------------------------------
	.byte	W96
@ 044   ----------------------------------------
	.byte	W96
@ 045   ----------------------------------------
	.byte	W96
@ 046   ----------------------------------------
	.byte	W96
@ 047   ----------------------------------------
	.byte	W96
@ 048   ----------------------------------------
	.byte	W96
@ 049   ----------------------------------------
	.byte	W96
@ 050   ----------------------------------------
	.byte	W48
	.byte		N40   , Dn4 
	.byte	W42
	.byte		        Fs4 
	.byte	W06
@ 051   ----------------------------------------
	.byte	W36
	.byte		N52   , Dn4 
	.byte	W54
	.byte		N32   , En4 
	.byte	W06
@ 052   ----------------------------------------
	.byte	W30
	.byte		N56   , An4 
	.byte	W60
	.byte		N28   , Bn4 
	.byte	W06
@ 053   ----------------------------------------
	.byte	W30
	.byte		N64   , Fs4 
	.byte	W66
@ 054   ----------------------------------------
	.byte	W96
@ 055   ----------------------------------------
	.byte	W36
	.byte		N44   , Dn4 
	.byte	W48
	.byte		N05   
	.byte	W06
	.byte		N28   , En4 
	.byte	W06
@ 056   ----------------------------------------
	.byte	W24
	.byte		N03   
	.byte	W04
	.byte		        Ds4 
	.byte	W04
	.byte		N56   , Cs4 
	.byte	W56
	.byte	W02
	.byte		N28   , An3 
	.byte	W06
@ 057   ----------------------------------------
	.byte	W30
	.byte		N80   , Fs3 
	.byte	W66
@ 058   ----------------------------------------
	.byte	W18
	.byte		N23   , An3 
	.byte	W24
	.byte		        Bn3 
	.byte	W24
	.byte		N28   , Cs4 
	.byte	W30
@ 059   ----------------------------------------
	.byte	W96
@ 060   ----------------------------------------
	.byte	W96
@ 061   ----------------------------------------
	.byte	W96
@ 062   ----------------------------------------
	.byte	W96
@ 063   ----------------------------------------
	.byte	W96
@ 064   ----------------------------------------
	.byte	W96
@ 065   ----------------------------------------
	.byte	W48
@ 066   ----------------------------------------
	.byte	W48
	.byte		N68   , Dn1 
	.byte		N68   , Dn2 
	.byte		N68   , An2 
	.byte		N68   , Dn3 
	.byte		N68   , Fs3 
	.byte		N68   , An3 
	.byte	W48
@ 067   ----------------------------------------
wings0_11_067:
	.byte	W36
	.byte		N32   , Cs1 , v064
	.byte		N32   , En2 
	.byte		N32   , Bn2 
	.byte		N32   , En3 
	.byte		N32   , Gn3 
	.byte	W48
	.byte		        An1 
	.byte		N32   , An2 
	.byte		N32   , Cs3 
	.byte		N32   , En3 
	.byte		N32   , An3 
	.byte	W12
	.byte	PEND
@ 068   ----------------------------------------
	.byte	W42
	.byte		N05   , Dn1 
	.byte		N05   , An2 
	.byte		N05   , Fs3 
	.byte	W06
	.byte		N68   , Dn2 
	.byte		N68   , Dn3 
	.byte		N68   , An3 
	.byte	W48
@ 069   ----------------------------------------
	.byte	PATT
	 .word	wings0_11_067
@ 070   ----------------------------------------
	.byte	W30
	.byte		N05   , Dn1 , v064
	.byte	W06
	.byte		N80   , Dn2 
	.byte		N80   , An2 
	.byte		N80   , Dn3 
	.byte		N80   , An3 
	.byte	W60
@ 071   ----------------------------------------
	.byte	W36
	.byte		N32   , Cs1 
	.byte		N32   , En2 
	.byte		N32   , Bn2 
	.byte		N32   , En3 
	.byte		N32   , Gn3 
	.byte	W48
	.byte		        An1 
	.byte		N32   , An2 
	.byte		N56   , Cs3 
	.byte		N56   , En3 
	.byte		N56   , An3 
	.byte	W12
@ 072   ----------------------------------------
	.byte	W48
	.byte		TIE   , Gn1 
	.byte		TIE   , Gn2 
	.byte		TIE   , Bn2 
	.byte		TIE   , Dn3 
	.byte		TIE   , Gn3 
	.byte	W48
@ 073   ----------------------------------------
	.byte	W96
@ 074   ----------------------------------------
	.byte	W96
@ 075   ----------------------------------------
	.byte	W92
	.byte	W03
	.byte		EOT   , Gn1 
	.byte		        Gn2 
	.byte		        Bn2 
	.byte		        Dn3 
	.byte		        Gn3 
	.byte	GOTO
	 .word	wings0_11_B1
wings0_11_B2:
	.byte	FINE

@******************************************************@
	.align	2

wings0:
	.byte	11	@ NumTrks
	.byte	0	@ NumBlks
	.byte	wings0_pri	@ Priority
	.byte	wings0_rev	@ Reverb.

	.word	wings0_grp

	.word	wings0_1
	.word	wings0_2
	.word	wings0_3
	.word	wings0_4
	.word	wings0_5
	.word	wings0_6
	.word	wings0_7
	.word	wings0_8
	.word	wings0_9
	.word	wings0_10
	.word	wings0_11

	.end
